%TF.GenerationSoftware,KiCad,Pcbnew,(5.1.10)-1*%
%TF.CreationDate,2022-01-13T22:30:23-08:00*%
%TF.ProjectId,PI-CM4Stencil,50492d43-4d34-4537-9465-6e63696c2e6b,rev?*%
%TF.SameCoordinates,Original*%
%TF.FileFunction,Copper,L1,Top*%
%TF.FilePolarity,Positive*%
%FSLAX46Y46*%
G04 Gerber Fmt 4.6, Leading zero omitted, Abs format (unit mm)*
G04 Created by KiCad (PCBNEW (5.1.10)-1) date 2022-01-13 22:30:23*
%MOMM*%
%LPD*%
G01*
G04 APERTURE LIST*
%TA.AperFunction,SMDPad,CuDef*%
%ADD10R,0.700000X0.200000*%
%TD*%
G04 APERTURE END LIST*
D10*
%TO.P,REF\u002A\u002A,200*%
%TO.N,N/C*%
X167090000Y-107590000D03*
%TO.P,REF\u002A\u002A,199*%
X164010000Y-107590000D03*
%TO.P,REF\u002A\u002A,198*%
X167090000Y-107190000D03*
%TO.P,REF\u002A\u002A,197*%
X164010000Y-107190000D03*
%TO.P,REF\u002A\u002A,196*%
X167090000Y-106790000D03*
%TO.P,REF\u002A\u002A,195*%
X164010000Y-106790000D03*
%TO.P,REF\u002A\u002A,194*%
X167090000Y-106390000D03*
%TO.P,REF\u002A\u002A,193*%
X164010000Y-106390000D03*
%TO.P,REF\u002A\u002A,192*%
X167090000Y-105990000D03*
%TO.P,REF\u002A\u002A,191*%
X164010000Y-105990000D03*
%TO.P,REF\u002A\u002A,190*%
X167090000Y-105590000D03*
%TO.P,REF\u002A\u002A,189*%
X164010000Y-105590000D03*
%TO.P,REF\u002A\u002A,188*%
X167090000Y-105190000D03*
%TO.P,REF\u002A\u002A,187*%
X164010000Y-105190000D03*
%TO.P,REF\u002A\u002A,186*%
X167090000Y-104790000D03*
%TO.P,REF\u002A\u002A,185*%
X164010000Y-104790000D03*
%TO.P,REF\u002A\u002A,184*%
X167090000Y-104390000D03*
%TO.P,REF\u002A\u002A,183*%
X164010000Y-104390000D03*
%TO.P,REF\u002A\u002A,182*%
X167090000Y-103990000D03*
%TO.P,REF\u002A\u002A,181*%
X164010000Y-103990000D03*
%TO.P,REF\u002A\u002A,180*%
X167090000Y-103590000D03*
%TO.P,REF\u002A\u002A,179*%
X164010000Y-103590000D03*
%TO.P,REF\u002A\u002A,178*%
X167090000Y-103190000D03*
%TO.P,REF\u002A\u002A,177*%
X164010000Y-103190000D03*
%TO.P,REF\u002A\u002A,176*%
X167090000Y-102790000D03*
%TO.P,REF\u002A\u002A,175*%
X164010000Y-102790000D03*
%TO.P,REF\u002A\u002A,174*%
X167090000Y-102390000D03*
%TO.P,REF\u002A\u002A,173*%
X164010000Y-102390000D03*
%TO.P,REF\u002A\u002A,172*%
X167090000Y-101990000D03*
%TO.P,REF\u002A\u002A,171*%
X164010000Y-101990000D03*
%TO.P,REF\u002A\u002A,170*%
X167090000Y-101590000D03*
%TO.P,REF\u002A\u002A,169*%
X164010000Y-101590000D03*
%TO.P,REF\u002A\u002A,168*%
X167090000Y-101190000D03*
%TO.P,REF\u002A\u002A,167*%
X164010000Y-101190000D03*
%TO.P,REF\u002A\u002A,166*%
X167090000Y-100790000D03*
%TO.P,REF\u002A\u002A,165*%
X164010000Y-100790000D03*
%TO.P,REF\u002A\u002A,164*%
X167090000Y-100390000D03*
%TO.P,REF\u002A\u002A,163*%
X164010000Y-100390000D03*
%TO.P,REF\u002A\u002A,162*%
X167090000Y-99990000D03*
%TO.P,REF\u002A\u002A,161*%
X164010000Y-99990000D03*
%TO.P,REF\u002A\u002A,160*%
X167090000Y-99590000D03*
%TO.P,REF\u002A\u002A,159*%
X164010000Y-99590000D03*
%TO.P,REF\u002A\u002A,158*%
X167090000Y-99190000D03*
%TO.P,REF\u002A\u002A,157*%
X164010000Y-99190000D03*
%TO.P,REF\u002A\u002A,156*%
X167090000Y-98790000D03*
%TO.P,REF\u002A\u002A,155*%
X164010000Y-98790000D03*
%TO.P,REF\u002A\u002A,154*%
X167090000Y-98390000D03*
%TO.P,REF\u002A\u002A,153*%
X164010000Y-98390000D03*
%TO.P,REF\u002A\u002A,152*%
X167090000Y-97990000D03*
%TO.P,REF\u002A\u002A,151*%
X164010000Y-97990000D03*
%TO.P,REF\u002A\u002A,150*%
X167090000Y-97590000D03*
%TO.P,REF\u002A\u002A,149*%
X164010000Y-97590000D03*
%TO.P,REF\u002A\u002A,148*%
X167090000Y-97190000D03*
%TO.P,REF\u002A\u002A,147*%
X164010000Y-97190000D03*
%TO.P,REF\u002A\u002A,146*%
X167090000Y-96790000D03*
%TO.P,REF\u002A\u002A,145*%
X164010000Y-96790000D03*
%TO.P,REF\u002A\u002A,144*%
X167090000Y-96390000D03*
%TO.P,REF\u002A\u002A,143*%
X164010000Y-96390000D03*
%TO.P,REF\u002A\u002A,142*%
X167090000Y-95990000D03*
%TO.P,REF\u002A\u002A,141*%
X164010000Y-95990000D03*
%TO.P,REF\u002A\u002A,140*%
X167090000Y-95590000D03*
%TO.P,REF\u002A\u002A,139*%
X164010000Y-95590000D03*
%TO.P,REF\u002A\u002A,138*%
X167090000Y-95190000D03*
%TO.P,REF\u002A\u002A,137*%
X164010000Y-95190000D03*
%TO.P,REF\u002A\u002A,136*%
X167090000Y-94790000D03*
%TO.P,REF\u002A\u002A,135*%
X164010000Y-94790000D03*
%TO.P,REF\u002A\u002A,134*%
X167090000Y-94390000D03*
%TO.P,REF\u002A\u002A,133*%
X164010000Y-94390000D03*
%TO.P,REF\u002A\u002A,132*%
X167090000Y-93990000D03*
%TO.P,REF\u002A\u002A,131*%
X164010000Y-93990000D03*
%TO.P,REF\u002A\u002A,130*%
X167090000Y-93590000D03*
%TO.P,REF\u002A\u002A,129*%
X164010000Y-93590000D03*
%TO.P,REF\u002A\u002A,128*%
X167090000Y-93190000D03*
%TO.P,REF\u002A\u002A,127*%
X164010000Y-93190000D03*
%TO.P,REF\u002A\u002A,126*%
X167090000Y-92790000D03*
%TO.P,REF\u002A\u002A,125*%
X164010000Y-92790000D03*
%TO.P,REF\u002A\u002A,124*%
X167090000Y-92390000D03*
%TO.P,REF\u002A\u002A,123*%
X164010000Y-92390000D03*
%TO.P,REF\u002A\u002A,122*%
X167090000Y-91990000D03*
%TO.P,REF\u002A\u002A,121*%
X164010000Y-91990000D03*
%TO.P,REF\u002A\u002A,120*%
X167090000Y-91590000D03*
%TO.P,REF\u002A\u002A,119*%
X164010000Y-91590000D03*
%TO.P,REF\u002A\u002A,118*%
X167090000Y-91190000D03*
%TO.P,REF\u002A\u002A,117*%
X164010000Y-91190000D03*
%TO.P,REF\u002A\u002A,116*%
X167090000Y-90790000D03*
%TO.P,REF\u002A\u002A,115*%
X164010000Y-90790000D03*
%TO.P,REF\u002A\u002A,114*%
X167090000Y-90390000D03*
%TO.P,REF\u002A\u002A,113*%
X164010000Y-90390000D03*
%TO.P,REF\u002A\u002A,112*%
X167090000Y-89990000D03*
%TO.P,REF\u002A\u002A,111*%
X164010000Y-89990000D03*
%TO.P,REF\u002A\u002A,110*%
X167090000Y-89590000D03*
%TO.P,REF\u002A\u002A,109*%
X164010000Y-89590000D03*
%TO.P,REF\u002A\u002A,108*%
X167090000Y-89190000D03*
%TO.P,REF\u002A\u002A,107*%
X164010000Y-89190000D03*
%TO.P,REF\u002A\u002A,106*%
X167090000Y-88790000D03*
%TO.P,REF\u002A\u002A,105*%
X164010000Y-88790000D03*
%TO.P,REF\u002A\u002A,104*%
X167090000Y-88390000D03*
%TO.P,REF\u002A\u002A,103*%
X164010000Y-88390000D03*
%TO.P,REF\u002A\u002A,102*%
X167090000Y-87990000D03*
%TO.P,REF\u002A\u002A,101*%
X164010000Y-87990000D03*
%TO.P,REF\u002A\u002A,100*%
X133170000Y-107590000D03*
%TO.P,REF\u002A\u002A,99*%
X130090000Y-107590000D03*
%TO.P,REF\u002A\u002A,98*%
X133170000Y-107190000D03*
%TO.P,REF\u002A\u002A,97*%
X130090000Y-107190000D03*
%TO.P,REF\u002A\u002A,96*%
X133170000Y-106790000D03*
%TO.P,REF\u002A\u002A,95*%
X130090000Y-106790000D03*
%TO.P,REF\u002A\u002A,94*%
X133170000Y-106390000D03*
%TO.P,REF\u002A\u002A,93*%
X130090000Y-106390000D03*
%TO.P,REF\u002A\u002A,92*%
X133170000Y-105990000D03*
%TO.P,REF\u002A\u002A,91*%
X130090000Y-105990000D03*
%TO.P,REF\u002A\u002A,90*%
X133170000Y-105590000D03*
%TO.P,REF\u002A\u002A,89*%
X130090000Y-105590000D03*
%TO.P,REF\u002A\u002A,88*%
X133170000Y-105190000D03*
%TO.P,REF\u002A\u002A,87*%
X130090000Y-105190000D03*
%TO.P,REF\u002A\u002A,86*%
X133170000Y-104790000D03*
%TO.P,REF\u002A\u002A,85*%
X130090000Y-104790000D03*
%TO.P,REF\u002A\u002A,84*%
X133170000Y-104390000D03*
%TO.P,REF\u002A\u002A,83*%
X130090000Y-104390000D03*
%TO.P,REF\u002A\u002A,82*%
X133170000Y-103990000D03*
%TO.P,REF\u002A\u002A,81*%
X130090000Y-103990000D03*
%TO.P,REF\u002A\u002A,80*%
X133170000Y-103590000D03*
%TO.P,REF\u002A\u002A,79*%
X130090000Y-103590000D03*
%TO.P,REF\u002A\u002A,78*%
X133170000Y-103190000D03*
%TO.P,REF\u002A\u002A,77*%
X130090000Y-103190000D03*
%TO.P,REF\u002A\u002A,76*%
X133170000Y-102790000D03*
%TO.P,REF\u002A\u002A,75*%
X130090000Y-102790000D03*
%TO.P,REF\u002A\u002A,74*%
X133170000Y-102390000D03*
%TO.P,REF\u002A\u002A,73*%
X130090000Y-102390000D03*
%TO.P,REF\u002A\u002A,72*%
X133170000Y-101990000D03*
%TO.P,REF\u002A\u002A,71*%
X130090000Y-101990000D03*
%TO.P,REF\u002A\u002A,70*%
X133170000Y-101590000D03*
%TO.P,REF\u002A\u002A,69*%
X130090000Y-101590000D03*
%TO.P,REF\u002A\u002A,68*%
X133170000Y-101190000D03*
%TO.P,REF\u002A\u002A,67*%
X130090000Y-101190000D03*
%TO.P,REF\u002A\u002A,66*%
X133170000Y-100790000D03*
%TO.P,REF\u002A\u002A,65*%
X130090000Y-100790000D03*
%TO.P,REF\u002A\u002A,64*%
X133170000Y-100390000D03*
%TO.P,REF\u002A\u002A,63*%
X130090000Y-100390000D03*
%TO.P,REF\u002A\u002A,62*%
X133170000Y-99990000D03*
%TO.P,REF\u002A\u002A,61*%
X130090000Y-99990000D03*
%TO.P,REF\u002A\u002A,60*%
X133170000Y-99590000D03*
%TO.P,REF\u002A\u002A,59*%
X130090000Y-99590000D03*
%TO.P,REF\u002A\u002A,58*%
X133170000Y-99190000D03*
%TO.P,REF\u002A\u002A,57*%
X130090000Y-99190000D03*
%TO.P,REF\u002A\u002A,56*%
X133170000Y-98790000D03*
%TO.P,REF\u002A\u002A,55*%
X130090000Y-98790000D03*
%TO.P,REF\u002A\u002A,54*%
X133170000Y-98390000D03*
%TO.P,REF\u002A\u002A,53*%
X130090000Y-98390000D03*
%TO.P,REF\u002A\u002A,52*%
X133170000Y-97990000D03*
%TO.P,REF\u002A\u002A,51*%
X130090000Y-97990000D03*
%TO.P,REF\u002A\u002A,50*%
X133170000Y-97590000D03*
%TO.P,REF\u002A\u002A,49*%
X130090000Y-97590000D03*
%TO.P,REF\u002A\u002A,48*%
X133170000Y-97190000D03*
%TO.P,REF\u002A\u002A,47*%
X130090000Y-97190000D03*
%TO.P,REF\u002A\u002A,46*%
X133170000Y-96790000D03*
%TO.P,REF\u002A\u002A,45*%
X130090000Y-96790000D03*
%TO.P,REF\u002A\u002A,44*%
X133170000Y-96390000D03*
%TO.P,REF\u002A\u002A,43*%
X130090000Y-96390000D03*
%TO.P,REF\u002A\u002A,42*%
X133170000Y-95990000D03*
%TO.P,REF\u002A\u002A,41*%
X130090000Y-95990000D03*
%TO.P,REF\u002A\u002A,40*%
X133170000Y-95590000D03*
%TO.P,REF\u002A\u002A,39*%
X130090000Y-95590000D03*
%TO.P,REF\u002A\u002A,38*%
X133170000Y-95190000D03*
%TO.P,REF\u002A\u002A,37*%
X130090000Y-95190000D03*
%TO.P,REF\u002A\u002A,36*%
X133170000Y-94790000D03*
%TO.P,REF\u002A\u002A,35*%
X130090000Y-94790000D03*
%TO.P,REF\u002A\u002A,34*%
X133170000Y-94390000D03*
%TO.P,REF\u002A\u002A,33*%
X130090000Y-94390000D03*
%TO.P,REF\u002A\u002A,32*%
X133170000Y-93990000D03*
%TO.P,REF\u002A\u002A,31*%
X130090000Y-93990000D03*
%TO.P,REF\u002A\u002A,30*%
X133170000Y-93590000D03*
%TO.P,REF\u002A\u002A,29*%
X130090000Y-93590000D03*
%TO.P,REF\u002A\u002A,28*%
X133170000Y-93190000D03*
%TO.P,REF\u002A\u002A,27*%
X130090000Y-93190000D03*
%TO.P,REF\u002A\u002A,26*%
X133170000Y-92790000D03*
%TO.P,REF\u002A\u002A,25*%
X130090000Y-92790000D03*
%TO.P,REF\u002A\u002A,24*%
X133170000Y-92390000D03*
%TO.P,REF\u002A\u002A,23*%
X130090000Y-92390000D03*
%TO.P,REF\u002A\u002A,22*%
X133170000Y-91990000D03*
%TO.P,REF\u002A\u002A,21*%
X130090000Y-91990000D03*
%TO.P,REF\u002A\u002A,20*%
X133170000Y-91590000D03*
%TO.P,REF\u002A\u002A,19*%
X130090000Y-91590000D03*
%TO.P,REF\u002A\u002A,18*%
X133170000Y-91190000D03*
%TO.P,REF\u002A\u002A,17*%
X130090000Y-91190000D03*
%TO.P,REF\u002A\u002A,16*%
X133170000Y-90790000D03*
%TO.P,REF\u002A\u002A,15*%
X130090000Y-90790000D03*
%TO.P,REF\u002A\u002A,14*%
X133170000Y-90390000D03*
%TO.P,REF\u002A\u002A,13*%
X130090000Y-90390000D03*
%TO.P,REF\u002A\u002A,12*%
X133170000Y-89990000D03*
%TO.P,REF\u002A\u002A,11*%
X130090000Y-89990000D03*
%TO.P,REF\u002A\u002A,10*%
X133170000Y-89590000D03*
%TO.P,REF\u002A\u002A,9*%
X130090000Y-89590000D03*
%TO.P,REF\u002A\u002A,8*%
X133170000Y-89190000D03*
%TO.P,REF\u002A\u002A,7*%
X130090000Y-89190000D03*
%TO.P,REF\u002A\u002A,6*%
X133170000Y-88790000D03*
%TO.P,REF\u002A\u002A,5*%
X130090000Y-88790000D03*
%TO.P,REF\u002A\u002A,4*%
X133170000Y-88390000D03*
%TO.P,REF\u002A\u002A,3*%
X130090000Y-88390000D03*
%TO.P,REF\u002A\u002A,2*%
X133170000Y-87990000D03*
%TO.P,REF\u002A\u002A,1*%
X130090000Y-87990000D03*
%TD*%
M02*
