%TF.GenerationSoftware,KiCad,Pcbnew,(5.1.10)-1*%
%TF.CreationDate,2022-01-13T22:30:23-08:00*%
%TF.ProjectId,PI-CM4Stencil,50492d43-4d34-4537-9465-6e63696c2e6b,rev?*%
%TF.SameCoordinates,Original*%
%TF.FileFunction,Soldermask,Top*%
%TF.FilePolarity,Negative*%
%FSLAX46Y46*%
G04 Gerber Fmt 4.6, Leading zero omitted, Abs format (unit mm)*
G04 Created by KiCad (PCBNEW (5.1.10)-1) date 2022-01-13 22:30:23*
%MOMM*%
%LPD*%
G01*
G04 APERTURE LIST*
%ADD10R,0.700000X0.200000*%
%ADD11C,6.100000*%
G04 APERTURE END LIST*
D10*
%TO.C,REF\u002A\u002A*%
X167090000Y-107590000D03*
X164010000Y-107590000D03*
X167090000Y-107190000D03*
X164010000Y-107190000D03*
X167090000Y-106790000D03*
X164010000Y-106790000D03*
X167090000Y-106390000D03*
X164010000Y-106390000D03*
X167090000Y-105990000D03*
X164010000Y-105990000D03*
X167090000Y-105590000D03*
X164010000Y-105590000D03*
X167090000Y-105190000D03*
X164010000Y-105190000D03*
X167090000Y-104790000D03*
X164010000Y-104790000D03*
X167090000Y-104390000D03*
X164010000Y-104390000D03*
X167090000Y-103990000D03*
X164010000Y-103990000D03*
X167090000Y-103590000D03*
X164010000Y-103590000D03*
X167090000Y-103190000D03*
X164010000Y-103190000D03*
X167090000Y-102790000D03*
X164010000Y-102790000D03*
X167090000Y-102390000D03*
X164010000Y-102390000D03*
X167090000Y-101990000D03*
X164010000Y-101990000D03*
X167090000Y-101590000D03*
X164010000Y-101590000D03*
X167090000Y-101190000D03*
X164010000Y-101190000D03*
X167090000Y-100790000D03*
X164010000Y-100790000D03*
X167090000Y-100390000D03*
X164010000Y-100390000D03*
X167090000Y-99990000D03*
X164010000Y-99990000D03*
X167090000Y-99590000D03*
X164010000Y-99590000D03*
X167090000Y-99190000D03*
X164010000Y-99190000D03*
X167090000Y-98790000D03*
X164010000Y-98790000D03*
X167090000Y-98390000D03*
X164010000Y-98390000D03*
X167090000Y-97990000D03*
X164010000Y-97990000D03*
X167090000Y-97590000D03*
X164010000Y-97590000D03*
X167090000Y-97190000D03*
X164010000Y-97190000D03*
X167090000Y-96790000D03*
X164010000Y-96790000D03*
X167090000Y-96390000D03*
X164010000Y-96390000D03*
X167090000Y-95990000D03*
X164010000Y-95990000D03*
X167090000Y-95590000D03*
X164010000Y-95590000D03*
X167090000Y-95190000D03*
X164010000Y-95190000D03*
X167090000Y-94790000D03*
X164010000Y-94790000D03*
X167090000Y-94390000D03*
X164010000Y-94390000D03*
X167090000Y-93990000D03*
X164010000Y-93990000D03*
X167090000Y-93590000D03*
X164010000Y-93590000D03*
X167090000Y-93190000D03*
X164010000Y-93190000D03*
X167090000Y-92790000D03*
X164010000Y-92790000D03*
X167090000Y-92390000D03*
X164010000Y-92390000D03*
X167090000Y-91990000D03*
X164010000Y-91990000D03*
X167090000Y-91590000D03*
X164010000Y-91590000D03*
X167090000Y-91190000D03*
X164010000Y-91190000D03*
X167090000Y-90790000D03*
X164010000Y-90790000D03*
X167090000Y-90390000D03*
X164010000Y-90390000D03*
X167090000Y-89990000D03*
X164010000Y-89990000D03*
X167090000Y-89590000D03*
X164010000Y-89590000D03*
X167090000Y-89190000D03*
X164010000Y-89190000D03*
X167090000Y-88790000D03*
X164010000Y-88790000D03*
X167090000Y-88390000D03*
X164010000Y-88390000D03*
X167090000Y-87990000D03*
X164010000Y-87990000D03*
X133170000Y-107590000D03*
X130090000Y-107590000D03*
X133170000Y-107190000D03*
X130090000Y-107190000D03*
X133170000Y-106790000D03*
X130090000Y-106790000D03*
X133170000Y-106390000D03*
X130090000Y-106390000D03*
X133170000Y-105990000D03*
X130090000Y-105990000D03*
X133170000Y-105590000D03*
X130090000Y-105590000D03*
X133170000Y-105190000D03*
X130090000Y-105190000D03*
X133170000Y-104790000D03*
X130090000Y-104790000D03*
X133170000Y-104390000D03*
X130090000Y-104390000D03*
X133170000Y-103990000D03*
X130090000Y-103990000D03*
X133170000Y-103590000D03*
X130090000Y-103590000D03*
X133170000Y-103190000D03*
X130090000Y-103190000D03*
X133170000Y-102790000D03*
X130090000Y-102790000D03*
X133170000Y-102390000D03*
X130090000Y-102390000D03*
X133170000Y-101990000D03*
X130090000Y-101990000D03*
X133170000Y-101590000D03*
X130090000Y-101590000D03*
X133170000Y-101190000D03*
X130090000Y-101190000D03*
X133170000Y-100790000D03*
X130090000Y-100790000D03*
X133170000Y-100390000D03*
X130090000Y-100390000D03*
X133170000Y-99990000D03*
X130090000Y-99990000D03*
X133170000Y-99590000D03*
X130090000Y-99590000D03*
X133170000Y-99190000D03*
X130090000Y-99190000D03*
X133170000Y-98790000D03*
X130090000Y-98790000D03*
X133170000Y-98390000D03*
X130090000Y-98390000D03*
X133170000Y-97990000D03*
X130090000Y-97990000D03*
X133170000Y-97590000D03*
X130090000Y-97590000D03*
X133170000Y-97190000D03*
X130090000Y-97190000D03*
X133170000Y-96790000D03*
X130090000Y-96790000D03*
X133170000Y-96390000D03*
X130090000Y-96390000D03*
X133170000Y-95990000D03*
X130090000Y-95990000D03*
X133170000Y-95590000D03*
X130090000Y-95590000D03*
X133170000Y-95190000D03*
X130090000Y-95190000D03*
X133170000Y-94790000D03*
X130090000Y-94790000D03*
X133170000Y-94390000D03*
X130090000Y-94390000D03*
X133170000Y-93990000D03*
X130090000Y-93990000D03*
X133170000Y-93590000D03*
X130090000Y-93590000D03*
X133170000Y-93190000D03*
X130090000Y-93190000D03*
X133170000Y-92790000D03*
X130090000Y-92790000D03*
X133170000Y-92390000D03*
X130090000Y-92390000D03*
X133170000Y-91990000D03*
X130090000Y-91990000D03*
X133170000Y-91590000D03*
X130090000Y-91590000D03*
X133170000Y-91190000D03*
X130090000Y-91190000D03*
X133170000Y-90790000D03*
X130090000Y-90790000D03*
X133170000Y-90390000D03*
X130090000Y-90390000D03*
X133170000Y-89990000D03*
X130090000Y-89990000D03*
X133170000Y-89590000D03*
X130090000Y-89590000D03*
X133170000Y-89190000D03*
X130090000Y-89190000D03*
X133170000Y-88790000D03*
X130090000Y-88790000D03*
X133170000Y-88390000D03*
X130090000Y-88390000D03*
X133170000Y-87990000D03*
X130090000Y-87990000D03*
D11*
X165090000Y-71290000D03*
X132090000Y-119290000D03*
X165090000Y-119290000D03*
X132090000Y-71290000D03*
%TD*%
M02*
