%TF.GenerationSoftware,KiCad,Pcbnew,(5.1.10)-1*%
%TF.CreationDate,2022-01-13T22:30:23-08:00*%
%TF.ProjectId,PI-CM4Stencil,50492d43-4d34-4537-9465-6e63696c2e6b,rev?*%
%TF.SameCoordinates,Original*%
%TF.FileFunction,Legend,Top*%
%TF.FilePolarity,Positive*%
%FSLAX46Y46*%
G04 Gerber Fmt 4.6, Leading zero omitted, Abs format (unit mm)*
G04 Created by KiCad (PCBNEW (5.1.10)-1) date 2022-01-13 22:30:23*
%MOMM*%
%LPD*%
G01*
G04 APERTURE LIST*
%ADD10C,0.120000*%
%ADD11C,0.150000*%
G04 APERTURE END LIST*
D10*
%TO.C,REF\u002A\u002A*%
X165090000Y-67790000D02*
G75*
G02*
X168590000Y-71290000I0J-3500000D01*
G01*
X168590000Y-119290000D02*
G75*
G02*
X165090000Y-122790000I-3500000J0D01*
G01*
X128590000Y-71290000D02*
G75*
G02*
X132090000Y-67790000I3500000J0D01*
G01*
X132090000Y-122790000D02*
G75*
G02*
X128590000Y-119290000I0J3500000D01*
G01*
X165090000Y-67790000D02*
X132090000Y-67790000D01*
X163660000Y-86390000D02*
X163660000Y-87390000D01*
X167440000Y-86390000D02*
X167440000Y-87390000D01*
X128590000Y-71290000D02*
X128590000Y-119290000D01*
X132090000Y-122790000D02*
X165090000Y-122790000D01*
X163660000Y-109190000D02*
X167440000Y-109190000D01*
X133520000Y-109190000D02*
X133520000Y-108190000D01*
X129740000Y-109190000D02*
X129740000Y-108190000D01*
X163660000Y-86390000D02*
X167440000Y-86390000D01*
X129740000Y-86390000D02*
X133520000Y-86390000D01*
X168590000Y-119290000D02*
X168590000Y-71290000D01*
X167440000Y-109190000D02*
X167440000Y-108190000D01*
X163660000Y-109190000D02*
X163660000Y-108190000D01*
X129740000Y-109190000D02*
X133520000Y-109190000D01*
D11*
X150922380Y-115543333D02*
X150446190Y-115876666D01*
X150922380Y-116114761D02*
X149922380Y-116114761D01*
X149922380Y-115733809D01*
X149970000Y-115638571D01*
X150017619Y-115590952D01*
X150112857Y-115543333D01*
X150255714Y-115543333D01*
X150350952Y-115590952D01*
X150398571Y-115638571D01*
X150446190Y-115733809D01*
X150446190Y-116114761D01*
X150398571Y-115114761D02*
X150398571Y-114781428D01*
X150922380Y-114638571D02*
X150922380Y-115114761D01*
X149922380Y-115114761D01*
X149922380Y-114638571D01*
X150398571Y-113876666D02*
X150398571Y-114210000D01*
X150922380Y-114210000D02*
X149922380Y-114210000D01*
X149922380Y-113733809D01*
X149922380Y-113210000D02*
X150160476Y-113210000D01*
X150065238Y-113448095D02*
X150160476Y-113210000D01*
X150065238Y-112971904D01*
X150350952Y-113352857D02*
X150160476Y-113210000D01*
X150350952Y-113067142D01*
X149922380Y-112448095D02*
X150160476Y-112448095D01*
X150065238Y-112686190D02*
X150160476Y-112448095D01*
X150065238Y-112210000D01*
X150350952Y-112590952D02*
X150160476Y-112448095D01*
X150350952Y-112305238D01*
%TD*%
M02*
