%TF.GenerationSoftware,KiCad,Pcbnew,(5.1.9)-1*%
%TF.CreationDate,2021-12-11T15:02:24-08:00*%
%TF.ProjectId,DevelopmentBoard,44657665-6c6f-4706-9d65-6e74426f6172,rev?*%
%TF.SameCoordinates,Original*%
%TF.FileFunction,Legend,Bot*%
%TF.FilePolarity,Positive*%
%FSLAX46Y46*%
G04 Gerber Fmt 4.6, Leading zero omitted, Abs format (unit mm)*
G04 Created by KiCad (PCBNEW (5.1.9)-1) date 2021-12-11 15:02:24*
%MOMM*%
%LPD*%
G01*
G04 APERTURE LIST*
%ADD10C,0.152400*%
%ADD11C,0.096000*%
%ADD12C,0.250000*%
%ADD13C,6.100000*%
%ADD14O,1.000000X1.270000*%
%ADD15C,1.900000*%
%ADD16C,4.000000*%
%ADD17C,1.524000*%
%ADD18C,3.000000*%
%ADD19R,1.408000X1.408000*%
%ADD20C,1.408000*%
%ADD21C,3.200000*%
%ADD22C,2.550000*%
%ADD23C,1.508000*%
%ADD24C,1.500000*%
%ADD25R,1.428000X1.428000*%
%ADD26C,1.428000*%
%ADD27C,3.316000*%
%ADD28O,1.050000X2.100000*%
%ADD29R,3.800000X3.800000*%
%ADD30C,3.800000*%
%ADD31R,0.930000X0.890000*%
%ADD32O,1.700000X1.700000*%
%ADD33R,1.700000X1.700000*%
G04 APERTURE END LIST*
D10*
X120968419Y-66572895D02*
X120968419Y-67153466D01*
X121007123Y-67269580D01*
X121084533Y-67346990D01*
X121200647Y-67385695D01*
X121278057Y-67385695D01*
X120194323Y-67385695D02*
X120581371Y-67385695D01*
X120581371Y-66572895D01*
X119458933Y-67308285D02*
X119497638Y-67346990D01*
X119613752Y-67385695D01*
X119691161Y-67385695D01*
X119807276Y-67346990D01*
X119884685Y-67269580D01*
X119923390Y-67192171D01*
X119962095Y-67037352D01*
X119962095Y-66921238D01*
X119923390Y-66766419D01*
X119884685Y-66689009D01*
X119807276Y-66611600D01*
X119691161Y-66572895D01*
X119613752Y-66572895D01*
X119497638Y-66611600D01*
X119458933Y-66650304D01*
X118878361Y-66572895D02*
X118878361Y-67153466D01*
X118917066Y-67269580D01*
X118994476Y-67346990D01*
X119110590Y-67385695D01*
X119188000Y-67385695D01*
X118104266Y-67385695D02*
X118491314Y-67385695D01*
X118491314Y-66572895D01*
X117368876Y-67308285D02*
X117407580Y-67346990D01*
X117523695Y-67385695D01*
X117601104Y-67385695D01*
X117717219Y-67346990D01*
X117794628Y-67269580D01*
X117833333Y-67192171D01*
X117872038Y-67037352D01*
X117872038Y-66921238D01*
X117833333Y-66766419D01*
X117794628Y-66689009D01*
X117717219Y-66611600D01*
X117601104Y-66572895D01*
X117523695Y-66572895D01*
X117407580Y-66611600D01*
X117368876Y-66650304D01*
X116788304Y-66572895D02*
X116788304Y-67153466D01*
X116827009Y-67269580D01*
X116904419Y-67346990D01*
X117020533Y-67385695D01*
X117097942Y-67385695D01*
X116014209Y-67385695D02*
X116401257Y-67385695D01*
X116401257Y-66572895D01*
X115278819Y-67308285D02*
X115317523Y-67346990D01*
X115433638Y-67385695D01*
X115511047Y-67385695D01*
X115627161Y-67346990D01*
X115704571Y-67269580D01*
X115743276Y-67192171D01*
X115781980Y-67037352D01*
X115781980Y-66921238D01*
X115743276Y-66766419D01*
X115704571Y-66689009D01*
X115627161Y-66611600D01*
X115511047Y-66572895D01*
X115433638Y-66572895D01*
X115317523Y-66611600D01*
X115278819Y-66650304D01*
X114698247Y-66572895D02*
X114698247Y-67153466D01*
X114736952Y-67269580D01*
X114814361Y-67346990D01*
X114930476Y-67385695D01*
X115007885Y-67385695D01*
X113924152Y-67385695D02*
X114311200Y-67385695D01*
X114311200Y-66572895D01*
X113188761Y-67308285D02*
X113227466Y-67346990D01*
X113343580Y-67385695D01*
X113420990Y-67385695D01*
X113537104Y-67346990D01*
X113614514Y-67269580D01*
X113653219Y-67192171D01*
X113691923Y-67037352D01*
X113691923Y-66921238D01*
X113653219Y-66766419D01*
X113614514Y-66689009D01*
X113537104Y-66611600D01*
X113420990Y-66572895D01*
X113343580Y-66572895D01*
X113227466Y-66611600D01*
X113188761Y-66650304D01*
X112608190Y-66572895D02*
X112608190Y-67153466D01*
X112646895Y-67269580D01*
X112724304Y-67346990D01*
X112840419Y-67385695D01*
X112917828Y-67385695D01*
X111834095Y-67385695D02*
X112221142Y-67385695D01*
X112221142Y-66572895D01*
X111098704Y-67308285D02*
X111137409Y-67346990D01*
X111253523Y-67385695D01*
X111330933Y-67385695D01*
X111447047Y-67346990D01*
X111524457Y-67269580D01*
X111563161Y-67192171D01*
X111601866Y-67037352D01*
X111601866Y-66921238D01*
X111563161Y-66766419D01*
X111524457Y-66689009D01*
X111447047Y-66611600D01*
X111330933Y-66572895D01*
X111253523Y-66572895D01*
X111137409Y-66611600D01*
X111098704Y-66650304D01*
X110518133Y-66572895D02*
X110518133Y-67153466D01*
X110556838Y-67269580D01*
X110634247Y-67346990D01*
X110750361Y-67385695D01*
X110827771Y-67385695D01*
X109744038Y-67385695D02*
X110131085Y-67385695D01*
X110131085Y-66572895D01*
X109008647Y-67308285D02*
X109047352Y-67346990D01*
X109163466Y-67385695D01*
X109240876Y-67385695D01*
X109356990Y-67346990D01*
X109434400Y-67269580D01*
X109473104Y-67192171D01*
X109511809Y-67037352D01*
X109511809Y-66921238D01*
X109473104Y-66766419D01*
X109434400Y-66689009D01*
X109356990Y-66611600D01*
X109240876Y-66572895D01*
X109163466Y-66572895D01*
X109047352Y-66611600D01*
X109008647Y-66650304D01*
D11*
X150706545Y-105644846D02*
X150693056Y-105610728D01*
X149830962Y-104819807D02*
X149781685Y-104784611D01*
X150077983Y-104948634D02*
X150034612Y-104926715D01*
X150281666Y-105085567D02*
X150232553Y-105046946D01*
X150444887Y-105241741D02*
X150396916Y-105191739D01*
X151912612Y-108596238D02*
X151854995Y-108607230D01*
X152316877Y-108510727D02*
X152279883Y-108514980D01*
X149877060Y-104848232D02*
X149846547Y-104829755D01*
X149711072Y-104727355D02*
X149673012Y-104692968D01*
X150547026Y-105364485D02*
X150505339Y-105311276D01*
X151693214Y-108631453D02*
X151612907Y-108641194D01*
X152154059Y-108537659D02*
X152126116Y-108544430D01*
X150122444Y-104973007D02*
X150077983Y-104948634D01*
X149238753Y-104193225D02*
X149179840Y-104115645D01*
X149428155Y-104430049D02*
X149364850Y-104353058D01*
X149364850Y-104353058D02*
X149349864Y-104334510D01*
X149501089Y-104514509D02*
X149452909Y-104459120D01*
X150232553Y-105046946D02*
X150184323Y-105012054D01*
X152625424Y-108497312D02*
X152557965Y-108498300D01*
X151834055Y-108610811D02*
X151790311Y-108617872D01*
X151965461Y-108585056D02*
X151912612Y-108596238D01*
X152688346Y-108496408D02*
X152625424Y-108497312D01*
X152465272Y-108500831D02*
X152398734Y-108504226D01*
X152012930Y-108573753D02*
X151981662Y-108581289D01*
X151493572Y-108653432D02*
X151394799Y-108662037D01*
X150660223Y-105541483D02*
X150631241Y-105488863D01*
X149349864Y-104334510D02*
X149288498Y-104257382D01*
X149288498Y-104257382D02*
X149267539Y-104230630D01*
X149590870Y-104611666D02*
X149524514Y-104540828D01*
X152070846Y-108558816D02*
X152027998Y-108569985D01*
X149781685Y-104784611D02*
X149729523Y-104743339D01*
X149978028Y-104899997D02*
X149935421Y-104879343D01*
X150168633Y-105001691D02*
X150137693Y-104982168D01*
X151767506Y-108621353D02*
X151693214Y-108631453D01*
X152262183Y-108517304D02*
X152213419Y-108525359D01*
X152534715Y-108498792D02*
X152488369Y-108500058D01*
X152112353Y-108547920D02*
X152070846Y-108558816D01*
X150331312Y-105128764D02*
X150298215Y-105099619D01*
X150490580Y-105293718D02*
X150460354Y-105258951D01*
X150585834Y-105417903D02*
X150547026Y-105364485D01*
X150727661Y-105712030D02*
X150712703Y-105661801D01*
X150620439Y-105471171D02*
X150597735Y-105435691D01*
X151584101Y-108644317D02*
X151524433Y-108650436D01*
X152213419Y-108525359D02*
X152168239Y-108534378D01*
X149149713Y-104075469D02*
X149091187Y-103995931D01*
X149091187Y-103995931D02*
X149055322Y-103946656D01*
X149935421Y-104879343D02*
X149891988Y-104856761D01*
X152398734Y-108504226D02*
X152336171Y-108508798D01*
X150020419Y-104919960D02*
X149992127Y-104906601D01*
X150685725Y-105593565D02*
X150660223Y-105541483D01*
X150396916Y-105191739D02*
X150347860Y-105143858D01*
X149653402Y-104674566D02*
X149590870Y-104611666D01*
X153407947Y-108015901D02*
X153353350Y-108046409D01*
X153508094Y-107961056D02*
X153476103Y-107978933D01*
X153708983Y-107795900D02*
X153668326Y-107841359D01*
X153785764Y-107689047D02*
X153761161Y-107727033D01*
X153321027Y-106730453D02*
X153393561Y-106780282D01*
X152030640Y-106396398D02*
X152101128Y-106372958D01*
X153830559Y-107608004D02*
X153797703Y-107669433D01*
X151560441Y-106582795D02*
X151624845Y-106560797D01*
X153789209Y-107084009D02*
X153829356Y-107124404D01*
X152739397Y-106442216D02*
X152786539Y-106459489D01*
X153070115Y-108249317D02*
X153014983Y-108299462D01*
X153459727Y-107987839D02*
X153407947Y-108015901D01*
X153882887Y-107481881D02*
X153868051Y-107523888D01*
X153552730Y-106895488D02*
X153614820Y-106942190D01*
X152451297Y-106350297D02*
X152508704Y-106364120D01*
X151499445Y-106600139D02*
X151560441Y-106582795D01*
X152254633Y-106340454D02*
X152315977Y-106336021D01*
X152123965Y-106366476D02*
X152168863Y-106355064D01*
X153246106Y-106681983D02*
X153296222Y-106714115D01*
X151788154Y-106494117D02*
X151861003Y-106463127D01*
X153870808Y-107179943D02*
X153891895Y-107224666D01*
X153743658Y-107043399D02*
X153789209Y-107084009D01*
X153393561Y-106780282D02*
X153463944Y-106830259D01*
X152885487Y-106497520D02*
X152962135Y-106529566D01*
X152650535Y-106410374D02*
X152716355Y-106433867D01*
X152335734Y-106336278D02*
X152374773Y-106338417D01*
X153213410Y-108136628D02*
X153150990Y-108182782D01*
X152883044Y-108435445D02*
X152858547Y-108460659D01*
X153614820Y-106942190D02*
X153673460Y-106987052D01*
X152528155Y-106369814D02*
X152567672Y-106382070D01*
X151885453Y-106452891D02*
X151934256Y-106432898D01*
X151958609Y-106423141D02*
X152030640Y-106396398D01*
X152742014Y-108494645D02*
X152707154Y-108495959D01*
X152190924Y-106350134D02*
X152254633Y-106340454D01*
X152797068Y-108489000D02*
X152758067Y-108493779D01*
X152851157Y-108466744D02*
X152835683Y-108476945D01*
X153568734Y-107923432D02*
X153523710Y-107952086D01*
X153612310Y-107891876D02*
X153568734Y-107923432D01*
X153691734Y-107001391D02*
X153726833Y-107029564D01*
X152587738Y-106388632D02*
X152650535Y-106410374D01*
X152912621Y-108403105D02*
X152883044Y-108435445D01*
X153840783Y-107138045D02*
X153861509Y-107165814D01*
X152810638Y-106468414D02*
X152885487Y-106497520D01*
X153014983Y-108299462D02*
X152965428Y-108347508D01*
X153275095Y-108094342D02*
X153213410Y-108136628D01*
X153334203Y-108057708D02*
X153295075Y-108081675D01*
X153748496Y-107745405D02*
X153708983Y-107795900D01*
X153859766Y-107545033D02*
X153830559Y-107608004D01*
X153910302Y-107342639D02*
X153903113Y-107400449D01*
X153891895Y-107224666D02*
X153905936Y-107272303D01*
X153486600Y-106846757D02*
X153530993Y-106879371D01*
X152394054Y-106340298D02*
X152451297Y-106350297D01*
X151647334Y-106552170D02*
X151693135Y-106533987D01*
X151443350Y-106610132D02*
X151480328Y-106604139D01*
X153143762Y-106621191D02*
X153220796Y-106666190D01*
X152988048Y-106541363D02*
X153039983Y-106566113D01*
X153903113Y-107400449D02*
X153889438Y-107461018D01*
X151716447Y-106524429D02*
X151788154Y-106494117D01*
X152827599Y-108481060D02*
X152797068Y-108489000D01*
X153654471Y-107854788D02*
X153626463Y-107880046D01*
X152951072Y-108362301D02*
X152924669Y-108390100D01*
X153908219Y-107289299D02*
X153910402Y-107324467D01*
X153066005Y-106579066D02*
X153143762Y-106621191D01*
X153130367Y-108199177D02*
X153089930Y-108232445D01*
X153223891Y-109409574D02*
X153208068Y-109455842D01*
X153276517Y-109092353D02*
X153284346Y-109116531D01*
X151375662Y-106611580D02*
X151425489Y-106612124D01*
X151287782Y-106588021D02*
X151315226Y-106599612D01*
X150687907Y-106163738D02*
X150725862Y-106172143D01*
X153160502Y-109557798D02*
X153131156Y-109595563D01*
X153238422Y-109363311D02*
X153228793Y-109394089D01*
X152982668Y-109685461D02*
X152922772Y-109700867D01*
X151034267Y-106296127D02*
X151063643Y-106331814D01*
X151785071Y-109681196D02*
X151748123Y-109683608D01*
X151237740Y-106554286D02*
X151274584Y-106581124D01*
X152335064Y-109696990D02*
X152265915Y-109691647D01*
X152113938Y-109681634D02*
X152052877Y-109679010D01*
X153036714Y-109665463D02*
X152982668Y-109685461D01*
X153214354Y-109011531D02*
X153247090Y-109045457D01*
X150649649Y-106153682D02*
X150687907Y-106163738D01*
X151973883Y-109677026D02*
X151935339Y-109676821D01*
X152980146Y-108893516D02*
X153021918Y-108907316D01*
X151171392Y-106483842D02*
X151192490Y-106509611D01*
X150812532Y-106186453D02*
X150848739Y-106192459D01*
X152052877Y-109679010D02*
X151993317Y-109677288D01*
X153131156Y-109595563D02*
X153096089Y-109629368D01*
X152895365Y-108872521D02*
X152958986Y-108887236D01*
X150929466Y-106216218D02*
X150962352Y-106232973D01*
X151674689Y-109690095D02*
X151619878Y-109696209D01*
X152506607Y-109709754D02*
X152431553Y-109704501D01*
X153171056Y-108979484D02*
X153200719Y-109000653D01*
X153082322Y-109639171D02*
X153052634Y-109657219D01*
X153288014Y-109166471D02*
X153283531Y-109205354D01*
X151203296Y-106521944D02*
X151237740Y-106554286D01*
X150860588Y-106194846D02*
X150884024Y-106200369D01*
X153280604Y-109218766D02*
X153273823Y-109246091D01*
X152832999Y-109712978D02*
X152760241Y-109716708D01*
X153208068Y-109455842D02*
X153190366Y-109501207D01*
X151131282Y-106428335D02*
X151161100Y-106470407D01*
X151004212Y-106264838D02*
X151034267Y-106296127D01*
X151102142Y-106385813D02*
X151131282Y-106428335D01*
X151916230Y-109676878D02*
X151859629Y-109678026D01*
X153042529Y-108914838D02*
X153101080Y-108940629D01*
X153247090Y-109045457D02*
X153271291Y-109080410D01*
X152265915Y-109691647D02*
X152198984Y-109686781D01*
X153256935Y-109303296D02*
X153243148Y-109348017D01*
X151729703Y-109684980D02*
X151674689Y-109690095D01*
X151073283Y-106344923D02*
X151092533Y-106371922D01*
X151859629Y-109678026D02*
X151803599Y-109680156D01*
X152582872Y-109714261D02*
X152506607Y-109709754D01*
X152760241Y-109716708D02*
X152685138Y-109717534D01*
X153101080Y-108940629D02*
X153155027Y-108969193D01*
X150972979Y-106240107D02*
X150993909Y-106256039D01*
X150895611Y-106203505D02*
X150929466Y-106216218D01*
X150738404Y-106174468D02*
X150763356Y-106178793D01*
X150611017Y-106141185D02*
X150636802Y-106149728D01*
X152407093Y-109702624D02*
X152358849Y-109698869D01*
X153269968Y-109260005D02*
X153256935Y-109303296D01*
X150559001Y-106120897D02*
X150598080Y-106136597D01*
X151601665Y-109698581D02*
X151565291Y-109703656D01*
X152659629Y-109717010D02*
X152608496Y-109715373D01*
X150775768Y-106180793D02*
X150812532Y-106186453D01*
X151329470Y-106604305D02*
X151375662Y-106611580D01*
X151547130Y-109706361D02*
X151492797Y-109715472D01*
X153286948Y-109128765D02*
X153288014Y-109166471D01*
X152177393Y-109685368D02*
X152134870Y-109682794D01*
X152901050Y-109704549D02*
X152856164Y-109710604D01*
X153183550Y-109515781D02*
X153168618Y-109544076D01*
X153225796Y-111823916D02*
X153238730Y-111807888D01*
X153461267Y-111544722D02*
X153484100Y-111529863D01*
X153096038Y-111860583D02*
X153132180Y-111866757D01*
X153142825Y-111866606D02*
X153162834Y-111864176D01*
X152887582Y-111760173D02*
X152941893Y-111791245D01*
X152697448Y-111656061D02*
X152754347Y-111684835D01*
X151492796Y-109715474D02*
G75*
G03*
X151422601Y-109067297I-162827431J-17305748D01*
G01*
X153197012Y-111849224D02*
X153219119Y-111831357D01*
X152585596Y-108872536D02*
X152621572Y-108866497D01*
X153532707Y-111502662D02*
X153571270Y-111484144D01*
X152573591Y-111612594D02*
X152624616Y-111626278D01*
X153288222Y-111731166D02*
X153301407Y-111710676D01*
X151670097Y-109020410D02*
X151766466Y-109005560D01*
X151766466Y-109005560D02*
X151769522Y-109005110D01*
X152832578Y-108862102D02*
X152895365Y-108872521D01*
X151896298Y-108987483D02*
X151956571Y-108979684D01*
X152458198Y-108899774D02*
X152513544Y-108887417D01*
X152316309Y-108928716D02*
X152379911Y-108916613D01*
X152248850Y-108940269D02*
X152316309Y-108928716D01*
X153055610Y-111847909D02*
X153096038Y-111860583D01*
X153470611Y-109847772D02*
X153848583Y-109847772D01*
X153263328Y-111771144D02*
X153281828Y-111741384D01*
X151769522Y-109005110D02*
X151865514Y-108991542D01*
X153826046Y-111413968D02*
X153876770Y-111407312D01*
X153729480Y-111432178D02*
X153760851Y-111425291D01*
X153669218Y-111448417D02*
X153714040Y-111435868D01*
X153495819Y-111522685D02*
X153532707Y-111502662D01*
X152941893Y-111791245D02*
X152993568Y-111819360D01*
X153308198Y-111700404D02*
X153330128Y-111669992D01*
X152695105Y-108858641D02*
X152752291Y-108856778D01*
X152513544Y-108887417D02*
X152567689Y-108875907D01*
X151986060Y-108975943D02*
X152070426Y-108965229D01*
X151422601Y-109067297D02*
X151517775Y-109047720D01*
X151517775Y-109047720D02*
X151531193Y-109045085D01*
X153172199Y-111861898D02*
X153197012Y-111849224D01*
X153244989Y-111799301D02*
X153263328Y-111771144D01*
X152175850Y-108951156D02*
X152224991Y-108943940D01*
X153470611Y-109847772D02*
G75*
G03*
X153279549Y-108560177I-739762J548202D01*
G01*
X152337001Y-105917696D02*
G75*
G03*
X150321839Y-104627573I-3788306J-3698407D01*
G01*
X153389199Y-111602951D02*
X153418703Y-111576946D01*
X153503840Y-108427264D02*
X153279549Y-108560177D01*
X153848583Y-109847773D02*
G75*
G03*
X153503840Y-108427264I-4019517J-223408D01*
G01*
X153330128Y-111669992D02*
X153353807Y-111640324D01*
X149055322Y-103946657D02*
G75*
G03*
X148357287Y-104394545I358293J-1326288D01*
G01*
X153776784Y-111422092D02*
X153826046Y-111413968D01*
X151337023Y-106042677D02*
G75*
G03*
X150321839Y-104627573I-3431271J-1389871D01*
G01*
X152830946Y-111727309D02*
X152868822Y-111749234D01*
X153362327Y-111630773D02*
X153380024Y-111612087D01*
X153009714Y-111827371D02*
X153040735Y-111841645D01*
X153625909Y-111462450D02*
X153669218Y-111448417D01*
X153418703Y-111576946D02*
X153450153Y-111552403D01*
X152525456Y-111605489D02*
X152573591Y-111612594D01*
X152642490Y-111632872D02*
X152678906Y-111647763D01*
X152772028Y-108857415D02*
X152812172Y-108860078D01*
X152337000Y-105917696D02*
G75*
G03*
X151524201Y-106171697I704851J-3682999D01*
G01*
X152639639Y-108863830D02*
X152695105Y-108858641D01*
X152070426Y-108965229D02*
X152150568Y-108954701D01*
X151524201Y-106171697D02*
X151337023Y-106042677D01*
X152399950Y-108912427D02*
X152439094Y-108904007D01*
X152754347Y-111684835D02*
X152811831Y-111716323D01*
X151566425Y-109038527D02*
X151635877Y-109026189D01*
X150727661Y-105712030D02*
G75*
G03*
X150288879Y-105717466I-206744J-1023606D01*
G01*
X150288879Y-105717465D02*
G75*
G03*
X148357287Y-104394545I-3490949J-3025509D01*
G01*
X151394799Y-108662036D02*
G75*
G03*
X150559001Y-106120897I-4850544J-187358D01*
G01*
X153584667Y-111478471D02*
X153611986Y-111467624D01*
X148783722Y-104869180D02*
X148696985Y-104827645D01*
X148696985Y-104827645D02*
X148631855Y-104796458D01*
X150129725Y-105822804D02*
X150062569Y-105753291D01*
X150062569Y-105753291D02*
X150021585Y-105710869D01*
X153503970Y-113894120D02*
X153442508Y-113968515D01*
X153442508Y-113968515D02*
X153436568Y-113975706D01*
X151147826Y-108028503D02*
X151128222Y-107931556D01*
X151128222Y-107931556D02*
X151118763Y-107884779D01*
X149084415Y-105027819D02*
X148993480Y-104977714D01*
X148993480Y-104977714D02*
X148901943Y-104928926D01*
X148901943Y-104928926D02*
X148859518Y-104906853D01*
X149781581Y-105496659D02*
X149703481Y-105433988D01*
X149703481Y-105433988D02*
X149623432Y-105372492D01*
X149623432Y-105372492D02*
X149585850Y-105344514D01*
X152232011Y-113469272D02*
X152180533Y-113378448D01*
X152180533Y-113378448D02*
X152134637Y-113291676D01*
X152134637Y-113291676D02*
X152089640Y-113200935D01*
X152089640Y-113200935D02*
X152085192Y-113191645D01*
X152933367Y-114113265D02*
X152842143Y-114079557D01*
X152842143Y-114079557D02*
X152770435Y-114044580D01*
X151508948Y-110927212D02*
X151494727Y-110829343D01*
X151494727Y-110829343D02*
X151480913Y-110731543D01*
X151480913Y-110731543D02*
X151467497Y-110633858D01*
X151467497Y-110633858D02*
X151454471Y-110536335D01*
X151454471Y-110536335D02*
X151447199Y-110480699D01*
X149965020Y-105655745D02*
X149892055Y-105590306D01*
X149892055Y-105590306D02*
X149816947Y-105525971D01*
X149816947Y-105525971D02*
X149781581Y-105496659D01*
X150940046Y-107281676D02*
X150904390Y-107188905D01*
X150904390Y-107188905D02*
X150885245Y-107140051D01*
X151910004Y-112745290D02*
X151880363Y-112652170D01*
X151880363Y-112652170D02*
X151851460Y-112557279D01*
X151851460Y-112557279D02*
X151823293Y-112460677D01*
X151823293Y-112460677D02*
X151795860Y-112362425D01*
X153275753Y-114086413D02*
X153182392Y-114118820D01*
X153182392Y-114118820D02*
X153137980Y-114128276D01*
X150806843Y-106946149D02*
X150769267Y-106857512D01*
X150769267Y-106857512D02*
X150763739Y-106844471D01*
X150991837Y-107426475D02*
X150959088Y-107333633D01*
X150959088Y-107333633D02*
X150957530Y-107329214D01*
X152039547Y-113085966D02*
X152004133Y-112995735D01*
X152004133Y-112995735D02*
X151966494Y-112899839D01*
X151966494Y-112899839D02*
X151951953Y-112862789D01*
X147268542Y-104332659D02*
X147173075Y-104314420D01*
X147173075Y-104314420D02*
X147114812Y-104303289D01*
X151280956Y-108993217D02*
X151269839Y-108895862D01*
X151269839Y-108895862D02*
X151258359Y-108795328D01*
X151258359Y-108795328D02*
X151255035Y-108766211D01*
X151579379Y-111374181D02*
X151563188Y-111276593D01*
X151563188Y-111276593D02*
X151547444Y-111178861D01*
X151547444Y-111178861D02*
X151532137Y-111081031D01*
X151532137Y-111081031D02*
X151517260Y-110983149D01*
X151517260Y-110983149D02*
X151508948Y-110927212D01*
X147572482Y-104405819D02*
X147473107Y-104379841D01*
X147473107Y-104379841D02*
X147373486Y-104355475D01*
X147373486Y-104355475D02*
X147344972Y-104348811D01*
X148555784Y-104761410D02*
X148463122Y-104720931D01*
X148463122Y-104720931D02*
X148370559Y-104681745D01*
X148370559Y-104681745D02*
X148327875Y-104664095D01*
X149305130Y-105156765D02*
X149216052Y-105103417D01*
X149216052Y-105103417D02*
X149126156Y-105051388D01*
X149126156Y-105051388D02*
X149084415Y-105027819D01*
X149517061Y-105296278D02*
X149436896Y-105242662D01*
X149436896Y-105242662D02*
X149376701Y-105202403D01*
X150444320Y-106229139D02*
X150388158Y-106146664D01*
X150388158Y-106146664D02*
X150328664Y-106064426D01*
X150328664Y-106064426D02*
X150320479Y-106053487D01*
X151202774Y-108365206D02*
X151187674Y-108263841D01*
X151187674Y-108263841D02*
X151172359Y-108166997D01*
X151172359Y-108166997D02*
X151162019Y-108104930D01*
X150549133Y-106403862D02*
X150498971Y-106318661D01*
X150498971Y-106318661D02*
X150480718Y-106287656D01*
X150885245Y-107140051D02*
X150849508Y-107050392D01*
X150849508Y-107050392D02*
X150827441Y-106995893D01*
X151429123Y-110333977D02*
X151417068Y-110232013D01*
X151417068Y-110232013D02*
X151405097Y-110130755D01*
X151405097Y-110130755D02*
X151394953Y-110044951D01*
X151795860Y-112362425D02*
X151769159Y-112262581D01*
X151769159Y-112262581D02*
X151743190Y-112161207D01*
X151743190Y-112161207D02*
X151717951Y-112058361D01*
X151717951Y-112058361D02*
X151693442Y-111954104D01*
X151057247Y-107638018D02*
X151030152Y-107545057D01*
X151030152Y-107545057D02*
X151008660Y-107476197D01*
X152549985Y-113884983D02*
X152482345Y-113813617D01*
X152482345Y-113813617D02*
X152441066Y-113770062D01*
X153610258Y-113680461D02*
X153572463Y-113773264D01*
X153572463Y-113773264D02*
X153534924Y-113848196D01*
X153088241Y-114130663D02*
X152990583Y-114123499D01*
X152990583Y-114123499D02*
X152985935Y-114123158D01*
X153708601Y-112877295D02*
X153710156Y-112978368D01*
X153710156Y-112978368D02*
X153709504Y-113076018D01*
X153709504Y-113076018D02*
X153706997Y-113161821D01*
X151663131Y-111811285D02*
X151644569Y-111716911D01*
X151644569Y-111716911D02*
X151624662Y-111615696D01*
X151624662Y-111615696D02*
X151606100Y-111521323D01*
X150741233Y-106792536D02*
X150699983Y-106701878D01*
X150699983Y-106701878D02*
X150665954Y-106629994D01*
X147037512Y-104290071D02*
X146942394Y-104276538D01*
X146942394Y-104276538D02*
X146846707Y-104264524D01*
X146846707Y-104264524D02*
X146802351Y-104259494D01*
X148025179Y-104547425D02*
X147931494Y-104515310D01*
X147931494Y-104515310D02*
X147874318Y-104495710D01*
X152770435Y-114044580D02*
X152687912Y-113995095D01*
X152687912Y-113995095D02*
X152605029Y-113935339D01*
X153667546Y-113483194D02*
X153642960Y-113579323D01*
X153642960Y-113579323D02*
X153612323Y-113674742D01*
X153612323Y-113674742D02*
X153610258Y-113680461D01*
X147798945Y-104471189D02*
X147699961Y-104441569D01*
X147699961Y-104441569D02*
X147600836Y-104413535D01*
X147600836Y-104413535D02*
X147572482Y-104405819D01*
X148327875Y-104664095D02*
X148235477Y-104626798D01*
X148235477Y-104626798D02*
X148143207Y-104590798D01*
X148143207Y-104590798D02*
X148100666Y-104574620D01*
X150320479Y-106053487D02*
X150261495Y-105977121D01*
X150261495Y-105977121D02*
X150199547Y-105901206D01*
X150199547Y-105901206D02*
X150181300Y-105879615D01*
X150665954Y-106629994D02*
X150622170Y-106541193D01*
X150622170Y-106541193D02*
X150581150Y-106461551D01*
X151334904Y-109495304D02*
X151324427Y-109397083D01*
X151324427Y-109397083D02*
X151314126Y-109300402D01*
X151314126Y-109300402D02*
X151302728Y-109193535D01*
X151302728Y-109193535D02*
X151293990Y-109111847D01*
X151103893Y-107817482D02*
X151079357Y-107719721D01*
X151079357Y-107719721D02*
X151057247Y-107638018D01*
X151242148Y-108657835D02*
X151228743Y-108553559D01*
X151228743Y-108553559D02*
X151215207Y-108453150D01*
X151215207Y-108453150D02*
X151202774Y-108365206D01*
X151378859Y-109902648D02*
X151367533Y-109798736D01*
X151367533Y-109798736D02*
X151356442Y-109696178D01*
X151356442Y-109696178D02*
X151345570Y-109595018D01*
X151345570Y-109595018D02*
X151334904Y-109495304D01*
X153400119Y-114011367D02*
X153316120Y-114066477D01*
X153316120Y-114066477D02*
X153275753Y-114086413D01*
X152387192Y-113705496D02*
X152328101Y-113621838D01*
X152328101Y-113621838D02*
X152274866Y-113539945D01*
X152274866Y-113539945D02*
X152232011Y-113469272D01*
X153700235Y-113247006D02*
X153688484Y-113342727D01*
X153688484Y-113342727D02*
X153680509Y-113407692D01*
X153225719Y-110144526D02*
X153196462Y-110113859D01*
X151920716Y-111907211D02*
X151940161Y-111904106D01*
X151902464Y-111909671D02*
X151914533Y-111908082D01*
X151853946Y-110067173D02*
X151787036Y-110074127D01*
X152453630Y-110104703D02*
X152398650Y-110098162D01*
X153800819Y-110251389D02*
X153736486Y-110256806D01*
X153065085Y-110021678D02*
X153031761Y-110020260D01*
X151554907Y-110116139D02*
G75*
G03*
X151879801Y-111912095I9059301J711495D01*
G01*
X152747135Y-110094683D02*
X152697703Y-110103891D01*
X153348531Y-110233748D02*
X153306014Y-110211663D01*
X151696005Y-110087140D02*
X151649579Y-110095538D01*
X152983463Y-110026570D02*
X152957398Y-110033005D01*
X152266681Y-110080736D02*
X152208150Y-110073914D01*
X152630016Y-110110819D02*
X152578070Y-110111956D01*
X153586114Y-110268089D02*
X153524754Y-110268342D01*
X153996086Y-110254180D02*
X153941359Y-110248934D01*
X152067256Y-110062957D02*
X152004654Y-110061655D01*
X152208150Y-110073914D02*
X152148637Y-110068066D01*
X152507568Y-110109424D02*
X152471694Y-110106471D01*
X153863101Y-110248042D02*
X153821820Y-110250011D01*
X152795532Y-110083133D02*
X152747135Y-110094683D01*
X152398650Y-110098162D02*
X152342845Y-110090833D01*
X152680919Y-110106082D02*
X152647075Y-110109546D01*
X153395375Y-110251247D02*
X153348531Y-110233748D01*
X153524754Y-110268342D02*
X153466215Y-110264869D01*
X153736486Y-110256806D02*
X153671578Y-110262550D01*
X152355495Y-111663066D02*
X152378688Y-111647113D01*
X152045544Y-111877960D02*
X152062871Y-111871473D01*
X151879801Y-111912095D02*
X151896577Y-111910388D01*
X152481332Y-111607399D02*
X152510421Y-111605389D01*
X152427755Y-111621918D02*
X152467277Y-111609509D01*
X152390497Y-111639686D02*
X152427755Y-111621918D01*
X152244856Y-111755952D02*
X152266755Y-111737273D01*
X151967609Y-111899028D02*
X151982116Y-111895917D01*
X152310710Y-111699185D02*
X152344111Y-111671593D01*
X152277713Y-111727755D02*
X152310710Y-111699185D01*
X153095564Y-110030585D02*
X153075455Y-110024007D01*
X152201351Y-111790694D02*
X152233915Y-111765112D01*
X152128464Y-110066533D02*
X152087774Y-110063979D01*
X153447843Y-110262262D02*
X153412423Y-110255451D01*
X151919407Y-110063131D02*
X151875886Y-110065589D01*
X151626184Y-110100118D02*
X151554906Y-110116139D01*
X153293231Y-110202967D02*
X153268896Y-110184618D01*
X152169352Y-111813946D02*
X152201351Y-111790694D01*
X152138522Y-111833704D02*
X152158960Y-111820831D01*
X152099505Y-111855030D02*
X152128476Y-111839692D01*
X152004654Y-110061655D02*
X151940987Y-110062257D01*
X152323956Y-110088277D02*
X152285874Y-110083229D01*
X152943992Y-110036769D02*
X152901710Y-110050129D01*
X152578070Y-110111956D02*
X152525379Y-110110609D01*
X153187263Y-110103988D02*
X153169110Y-110085110D01*
X153941359Y-110248934D02*
X153883381Y-110247450D01*
X153133136Y-110053049D02*
X153105302Y-110034833D01*
X153650012Y-110264245D02*
X153607280Y-110267015D01*
X152071729Y-111867918D02*
X152099505Y-111855030D01*
X152842284Y-110069356D02*
X152811272Y-110078655D01*
X152012775Y-111888178D02*
X152037074Y-111880891D01*
X153031761Y-110020260D02*
X152996121Y-110023900D01*
X151989529Y-111894232D02*
X152012775Y-111888178D01*
X151787036Y-110074127D02*
X151719035Y-110083321D01*
X152901710Y-110050129D02*
X152857556Y-110064536D01*
X153257344Y-110174966D02*
X153225719Y-110144526D01*
X153160157Y-110076102D02*
X153133136Y-110053049D01*
X151940161Y-111904106D02*
X151960515Y-111900453D01*
X154603465Y-111143612D02*
X154613091Y-111115398D01*
X152600240Y-112448902D02*
X152621272Y-112450114D01*
X152416609Y-112464010D02*
X152433268Y-112459162D01*
X152468278Y-112452918D02*
X152495240Y-112450034D01*
X154485985Y-111295595D02*
X154506670Y-111276547D01*
X152504360Y-112449424D02*
X152522756Y-112448484D01*
X154407041Y-110512552D02*
X154385812Y-110494990D01*
X154477667Y-110575934D02*
X154448243Y-110548163D01*
X154504803Y-110605716D02*
X154486938Y-110585653D01*
X154623101Y-110998294D02*
X154622100Y-110973478D01*
X154536782Y-110649335D02*
X154513397Y-110616059D01*
X154246942Y-111427330D02*
X154270469Y-111421319D01*
X152532032Y-112448154D02*
X152560542Y-112447919D01*
X154621382Y-110960701D02*
X154617923Y-110920432D01*
X154590661Y-111171559D02*
X154603465Y-111143612D01*
X154516586Y-111266921D02*
X154543281Y-111237951D01*
X154038550Y-111423677D02*
X154057632Y-111426608D01*
X152979224Y-112514286D02*
X153040540Y-112529571D01*
X152666492Y-112454199D02*
X152703235Y-112458648D01*
X154282388Y-111417779D02*
X154318889Y-111403804D01*
X154201525Y-111434317D02*
X154235333Y-111429802D01*
X152441827Y-112457158D02*
X152468278Y-112452918D01*
X154137212Y-111435510D02*
X154158128Y-111436206D01*
X152716331Y-112460529D02*
X152743451Y-112464715D01*
X153946872Y-111409175D02*
X153964749Y-111411905D01*
X152757475Y-112467018D02*
X152802520Y-112475255D01*
X152560542Y-112447919D02*
X152590001Y-112448451D01*
X152632065Y-112450875D02*
X152666492Y-112454199D01*
X152867766Y-112488515D02*
X152903077Y-112496312D01*
X154610885Y-110864367D02*
X154605953Y-110835723D01*
X154622779Y-111044213D02*
X154623385Y-111010332D01*
X154620472Y-111076058D02*
X154622779Y-111044213D01*
X154168733Y-111436277D02*
X154201525Y-111434317D01*
X152802520Y-112475255D02*
X152850657Y-112484852D01*
X154448243Y-110548163D02*
X154417568Y-110521332D01*
X154557568Y-110684988D02*
X154536782Y-110649335D01*
X154603177Y-110821350D02*
X154592707Y-110778681D01*
X154405144Y-111357447D02*
X154440923Y-111332085D01*
X154617923Y-110920432D02*
X154613042Y-110878639D01*
X154318889Y-111403804D02*
X154355878Y-111386512D01*
X153129085Y-112552852D02*
X153200601Y-112572495D01*
X154573235Y-111199717D02*
X154585250Y-111180906D01*
X154543281Y-111237951D02*
X154566631Y-111209181D01*
X153911801Y-111404095D02*
X153938002Y-111407846D01*
X154046144Y-110264857D02*
X154013164Y-110257285D01*
X154368258Y-111379700D02*
X154392891Y-111365168D01*
X154001205Y-111417689D02*
X154029096Y-111422178D01*
X154106403Y-110286558D02*
X154062046Y-110269326D01*
X153062109Y-112535149D02*
X153106381Y-112546790D01*
X154147711Y-110307196D02*
X154106403Y-110286558D01*
X154440923Y-111332085D02*
X154475216Y-111305018D01*
X154067260Y-111428041D02*
X154096742Y-111431858D01*
X154574747Y-110723684D02*
X154563593Y-110697657D01*
X154185622Y-110331448D02*
X154160586Y-110315041D01*
X152921278Y-112500447D02*
X152979224Y-112514286D01*
X154232687Y-110367078D02*
X154197783Y-110340010D01*
X154266450Y-110394928D02*
X154232687Y-110367078D01*
X154096742Y-111431858D02*
X154126902Y-111434885D01*
X154592707Y-110778681D02*
X154579876Y-110737042D01*
X154299355Y-110422923D02*
X154277459Y-110404289D01*
X154342749Y-110459473D02*
X154310242Y-110432196D01*
X154375109Y-110486209D02*
X154342749Y-110459473D01*
X154615343Y-111105767D02*
X154619033Y-111086097D01*
X153973757Y-111413307D02*
X154001205Y-111417689D01*
X152987475Y-112242861D02*
X152938145Y-112220399D01*
X152345255Y-112599470D02*
X152344895Y-112559981D01*
X152352870Y-112646990D02*
X152347238Y-112614706D01*
X152371392Y-112719303D02*
X152356521Y-112664038D01*
X152388950Y-112777278D02*
X152371392Y-112719303D01*
X153239173Y-112249337D02*
X153214682Y-112260473D01*
X152407624Y-112836081D02*
X152395239Y-112796985D01*
X152528411Y-112038697D02*
X152493172Y-112041814D01*
X151992759Y-112334240D02*
X152002335Y-112371498D01*
X152188195Y-113021190D02*
X152203503Y-113032491D01*
X152429522Y-112910565D02*
X152413721Y-112855470D01*
X152098785Y-112273671D02*
X152069981Y-112272099D01*
X152441376Y-112960985D02*
X152429522Y-112910565D01*
X153153021Y-112278501D02*
X153121734Y-112279318D01*
X152445763Y-113002754D02*
X152443568Y-112975747D01*
X152096507Y-112764275D02*
X152116758Y-112846860D01*
X152427580Y-112080011D02*
X152403615Y-112108113D01*
X153263823Y-112237445D02*
X153247329Y-112245389D01*
X152240163Y-113046706D02*
X152272501Y-113055429D01*
X152161428Y-112981888D02*
X152181063Y-113014285D01*
X152123267Y-112871152D02*
X152136116Y-112915566D01*
X152054182Y-112583056D02*
X152068426Y-112644189D01*
X151991243Y-112261456D02*
X151983281Y-112263654D01*
X152737522Y-112115097D02*
X152701226Y-112096870D01*
X152161786Y-112269952D02*
X152113973Y-112273920D01*
X153214682Y-112260473D02*
X153189571Y-112270247D01*
X152811689Y-112154373D02*
X152755931Y-112124638D01*
X152632219Y-112066102D02*
X152584323Y-112049020D01*
X152341847Y-112181949D02*
X152307959Y-112211225D01*
X152398847Y-113071525D02*
X152415847Y-113066517D01*
X152056363Y-112270777D02*
X152022427Y-112265668D01*
X153074338Y-112272875D02*
X153047492Y-112265565D01*
X152867131Y-112184052D02*
X152811689Y-112154373D01*
X152356241Y-113071305D02*
X152389309Y-113072823D01*
X152284293Y-113058238D02*
X152308291Y-113063550D01*
X151981441Y-112284826D02*
X151988612Y-112318032D01*
X152370352Y-112149961D02*
X152351711Y-112171356D01*
X152211677Y-113036887D02*
X152240163Y-113046706D01*
X152142456Y-112935688D02*
X152161428Y-112981888D01*
X152209843Y-112260585D02*
X152161786Y-112269952D01*
X152403615Y-112108113D02*
X152379130Y-112139159D01*
X152493172Y-112041814D02*
X152462258Y-112052424D01*
X152683339Y-112088184D02*
X152632219Y-112066102D01*
X153180780Y-112272811D02*
X153162505Y-112276938D01*
X152075563Y-112675008D02*
X152096507Y-112764275D01*
X152007765Y-112392548D02*
X152026603Y-112467931D01*
X151980822Y-112266005D02*
X151981441Y-112284826D01*
X153033423Y-112261077D02*
X152987475Y-112242861D01*
X152453187Y-112058326D02*
X152435848Y-112072120D01*
X153121734Y-112279318D02*
X153087114Y-112275698D01*
X153298048Y-112221570D02*
X153272159Y-112233449D01*
X152022427Y-112265668D02*
X151996747Y-112261609D01*
X152255117Y-112243613D02*
X152225314Y-112255545D01*
X152569626Y-112045300D02*
X152541670Y-112040139D01*
X152307959Y-112211225D02*
X152269447Y-112236720D01*
X152920738Y-112211723D02*
X152885231Y-112193549D01*
X152026603Y-112467931D02*
X152047075Y-112552742D01*
X152386434Y-112478792D02*
X152408510Y-112466852D01*
X152438342Y-113043249D02*
X152445765Y-113015000D01*
X152423310Y-113062806D02*
X152438342Y-113043249D01*
X152367369Y-112494933D02*
X152386434Y-112478792D01*
X152353666Y-112517940D02*
X152362282Y-112501965D01*
X152320497Y-113066053D02*
X152356241Y-113071305D01*
X152344895Y-112559981D02*
X152350136Y-112526883D01*
X153507533Y-112089267D02*
X153482512Y-112115077D01*
X153772944Y-111839633D02*
X153750517Y-111840373D01*
X153324877Y-112209734D02*
X153298048Y-112221570D01*
X153352787Y-112197491D02*
X153334111Y-112205727D01*
X153390819Y-112179335D02*
X153362228Y-112193262D01*
X152646444Y-113648123D02*
X152599153Y-113609417D01*
X153628394Y-111920980D02*
X153608173Y-111948116D01*
X152606957Y-113487785D02*
X152622301Y-113486896D01*
X153560177Y-112019503D02*
X153538487Y-112050483D01*
X153601448Y-111957914D02*
X153587919Y-111977977D01*
X152832299Y-113266845D02*
X152844292Y-113212328D01*
X152653077Y-113478678D02*
X152677259Y-113466628D01*
X152802745Y-112960105D02*
X152793513Y-112921704D01*
X153817072Y-111846208D02*
X153802537Y-111842789D01*
X152546493Y-113562926D02*
X152526220Y-113542988D01*
X153911801Y-111898214D02*
X153892678Y-111883029D01*
X152784159Y-113362050D02*
X152803244Y-113333059D01*
X152575511Y-113485156D02*
X152599227Y-113487680D01*
X153269945Y-113901058D02*
X153235279Y-113917387D01*
X152517377Y-113533755D02*
X152499150Y-113511016D01*
X153184038Y-113926739D02*
X153141321Y-113924168D01*
X153141321Y-113924168D02*
X153095539Y-113915259D01*
X152499150Y-113511016D02*
X152489333Y-113493445D01*
X153419340Y-112163690D02*
X153390819Y-112179335D01*
X153447182Y-112145017D02*
X153428709Y-112157751D01*
X153845443Y-111856343D02*
X153824277Y-111848263D01*
X153648841Y-111896676D02*
X153628394Y-111920980D01*
X153720648Y-111847195D02*
X153698583Y-111857322D01*
X153581115Y-111988241D02*
X153560177Y-112019503D01*
X153669803Y-111876857D02*
X153655779Y-111889670D01*
X153698583Y-111857322D02*
X153676888Y-111871050D01*
X153795207Y-111841426D02*
X153772944Y-111839633D01*
X153886128Y-111878546D02*
X153872852Y-111870162D01*
X152551655Y-113481429D02*
X152575511Y-113485156D01*
X153028293Y-113891257D02*
X152973536Y-113865032D01*
X152700068Y-113689242D02*
X152663902Y-113661723D01*
X153079236Y-113910228D02*
X153045613Y-113898228D01*
X152816526Y-113007182D02*
X152807186Y-112975189D01*
X152845477Y-113193306D02*
X152845379Y-113154973D01*
X152777264Y-113744710D02*
X152718776Y-113703162D01*
X152973536Y-113865032D02*
X152916365Y-113834038D01*
X152529128Y-113477970D02*
X152543916Y-113480141D01*
X153222918Y-113920783D02*
X153197297Y-113925459D01*
X152504655Y-113476939D02*
X152522080Y-113477086D01*
X152599153Y-113609417D02*
X152557924Y-113573631D01*
X153482512Y-112115077D02*
X153456285Y-112138222D01*
X153866127Y-111866262D02*
X153845443Y-111856343D01*
X152685856Y-113460837D02*
X152703734Y-113447345D01*
X153530938Y-112060475D02*
X153515461Y-112079867D01*
X152837021Y-113785095D02*
X152777264Y-113744710D01*
X154623001Y-112572495D02*
X153200601Y-112572495D01*
X152793513Y-112921704D02*
X152790183Y-112890955D01*
X152844095Y-113135663D02*
X152834614Y-113078671D01*
X152812171Y-113317663D02*
X152832299Y-113266845D01*
X152742905Y-113410609D02*
X152774001Y-113375646D01*
X153743029Y-111841555D02*
X153728094Y-111844966D01*
X152629916Y-113485900D02*
X152653077Y-113478678D01*
X152492304Y-113480212D02*
X152504655Y-113476939D01*
X152488818Y-113489324D02*
X152490303Y-113482707D01*
X152834614Y-113078671D02*
X152821425Y-113024091D01*
X154623001Y-112572495D02*
X153911801Y-111898214D01*
X152713015Y-113439644D02*
X152742905Y-113410609D01*
X152896684Y-113822330D02*
X152857012Y-113797859D01*
X148686127Y-103720271D02*
X148601399Y-103767762D01*
X148955004Y-103632299D02*
X148876909Y-103645361D01*
X149268676Y-103704068D02*
X149199866Y-103668950D01*
X149482715Y-103900672D02*
X149420600Y-103830811D01*
X153232907Y-112952803D02*
X153283697Y-112952933D01*
X152915555Y-112880012D02*
X152938989Y-112889308D01*
X149031275Y-103628695D02*
X148955004Y-103632299D01*
X152160681Y-105283538D02*
G75*
G03*
X149620173Y-104102488I-3238690J-3643694D01*
G01*
X149542811Y-103981011D02*
X149502911Y-103926599D01*
X148769297Y-103680868D02*
X148686127Y-103720271D01*
X149335135Y-103751384D02*
X149291018Y-103718856D01*
X152950524Y-112894166D02*
X152982227Y-112908493D01*
X152869070Y-112865187D02*
X152903656Y-112875575D01*
X153545840Y-113083844D02*
X153543941Y-113111470D01*
X153519278Y-113382554D02*
X153514833Y-113416603D01*
X152225451Y-105337022D02*
X152160681Y-105283539D01*
X153512855Y-113428660D02*
X153508290Y-113453557D01*
X153522585Y-113350258D02*
X153519278Y-113382554D01*
X153059097Y-112941781D02*
X153078087Y-112946472D01*
X153525030Y-113319450D02*
X153523434Y-113339923D01*
X153547886Y-112996530D02*
X153548006Y-113031083D01*
X153108069Y-112949756D02*
X153137741Y-112951021D01*
X153084969Y-112947483D02*
X153099960Y-112949125D01*
X148396306Y-103916947D02*
G75*
G03*
X146596603Y-104241297I-491889J-2425809D01*
G01*
X153040037Y-112935081D02*
X153059097Y-112941781D01*
X152982227Y-112908493D02*
X153010189Y-112921615D01*
X148485440Y-103846585D02*
X148407525Y-103907744D01*
X148407525Y-103907744D02*
X148396305Y-103916945D01*
X152812995Y-112860856D02*
X152828583Y-112858902D01*
X153548006Y-113031083D02*
X153546661Y-113070047D01*
X153534112Y-113213882D02*
X153531835Y-113236378D01*
X153519836Y-112945293D02*
X153534354Y-112951155D01*
X153353616Y-112952074D02*
X153387471Y-112951020D01*
X149199866Y-103668950D02*
X149129223Y-103643342D01*
X153137741Y-112951021D02*
X153173488Y-112951955D01*
X153302429Y-113878867D02*
X153269945Y-113901058D01*
X153332361Y-113849540D02*
X153312602Y-113869637D01*
X148850288Y-103652775D02*
X148796482Y-103670528D01*
X149420600Y-103830811D02*
X149356909Y-103769124D01*
X153495891Y-113507241D02*
X153483943Y-113550182D01*
X153394549Y-113761575D02*
X153369062Y-113801887D01*
X153403924Y-112950369D02*
X153448122Y-112947986D01*
X153187464Y-112952204D02*
X153217173Y-112952629D01*
X152837493Y-112859080D02*
X152869070Y-112865187D01*
X153528111Y-113278706D02*
X153525777Y-113309312D01*
X153369062Y-113801887D02*
X153341948Y-113838674D01*
X153417803Y-113717814D02*
X153402494Y-113747199D01*
X148572653Y-103786202D02*
X148514674Y-103825613D01*
X149105051Y-103638047D02*
X149056077Y-103630723D01*
X149620173Y-104102488D02*
X149569801Y-104020710D01*
X149569801Y-104020710D02*
X149562515Y-104009497D01*
X153445412Y-113656805D02*
X153425168Y-113702805D01*
X153530777Y-113247296D02*
X153528111Y-113278706D01*
X153463703Y-113610543D02*
X153445412Y-113656805D01*
X153479238Y-113565081D02*
X153469118Y-113595261D01*
X152286278Y-105390840D02*
X152246055Y-105354934D01*
X153505703Y-113466396D02*
X153495891Y-113507241D01*
X153539176Y-113165045D02*
X153535331Y-113202304D01*
X153542862Y-113125299D02*
X153539176Y-113165045D01*
X153544934Y-112970777D02*
X153547214Y-112987095D01*
X153534354Y-112951155D02*
X153543326Y-112963895D01*
X153495555Y-112945188D02*
X153512643Y-112944986D01*
X153448122Y-112947986D02*
X153485659Y-112945697D01*
X153283697Y-112952933D02*
X153336214Y-112952478D01*
X153018188Y-112925359D02*
X153033112Y-112932092D01*
X152794201Y-112877295D02*
X152806317Y-112862987D01*
X152606770Y-105754851D02*
X152580589Y-105718427D01*
X153262805Y-106364192D02*
X153206339Y-106339115D01*
X154056097Y-107835803D02*
X154086091Y-107778627D01*
X153945298Y-108009431D02*
X153979799Y-107960214D01*
X154571451Y-110186784D02*
X154534320Y-110161321D01*
X153584249Y-106521113D02*
X153543039Y-106495849D01*
X154102108Y-106966891D02*
X154077026Y-106935873D01*
X153785941Y-108185545D02*
X153811331Y-108162406D01*
X153909775Y-108055328D02*
X153933535Y-108025017D01*
X154024284Y-107890770D02*
X154045625Y-107854336D01*
X154293446Y-110052571D02*
X154216601Y-110032495D01*
X154223081Y-107307295D02*
X154222231Y-107270499D01*
X152656423Y-105827097D02*
X152619548Y-105773022D01*
X153734225Y-108227245D02*
X153773152Y-108196657D01*
X152727489Y-105932814D02*
X152703989Y-105898096D01*
X152775189Y-106000116D02*
X152739244Y-105949989D01*
X152851793Y-106094568D02*
X152825234Y-106064165D01*
X154453618Y-110115872D02*
X154388265Y-110085914D01*
X153004675Y-106228116D02*
X152971247Y-106204013D01*
X152908853Y-106151687D02*
X152865429Y-106109421D01*
X153371450Y-106411111D02*
X153336222Y-106395844D01*
X153719784Y-106617261D02*
X153678353Y-106585999D01*
X154194040Y-107129785D02*
X154180581Y-107096130D01*
X154148358Y-107640512D02*
X154170222Y-107580283D01*
X153915207Y-106775772D02*
X153868378Y-106736000D01*
X154217636Y-107382894D02*
X154222765Y-107325899D01*
X154123291Y-107700349D02*
X154140242Y-107660523D01*
X154194706Y-107500248D02*
X154204322Y-107460659D01*
X152812311Y-106048615D02*
X152775189Y-106000116D01*
X153130769Y-106302607D02*
X153075439Y-106272298D01*
X153806948Y-106685637D02*
X153777143Y-106661869D01*
X154221065Y-107252306D02*
X154212905Y-107198953D01*
X153823932Y-108150380D02*
X153861156Y-108111569D01*
X152954962Y-106191550D02*
X152908853Y-106151687D01*
X153624626Y-106547648D02*
X153584249Y-106521113D01*
X154145776Y-107030537D02*
X154114057Y-106982564D01*
X153075439Y-106272298D02*
X153021819Y-106239756D01*
X153979799Y-107960214D02*
X154013414Y-107908671D01*
X153187382Y-106330281D02*
X153149597Y-106312027D01*
X153318259Y-106388137D02*
X153262805Y-106364192D01*
X153438079Y-106441295D02*
X153388715Y-106418671D01*
X154365198Y-110077029D02*
X154317789Y-110060357D01*
X154170222Y-107580283D02*
X154189339Y-107520159D01*
X153484963Y-106464154D02*
X153438079Y-106441295D01*
X153528844Y-106487790D02*
X153499806Y-106471942D01*
X153961777Y-106817486D02*
X153930815Y-106789526D01*
X154063891Y-106920528D02*
X154021624Y-106875543D01*
X154086091Y-107778627D02*
X154114455Y-107720163D01*
X153861156Y-108111569D02*
X153897779Y-108070054D01*
X153762456Y-106650275D02*
X153719784Y-106617261D01*
X154216600Y-110032496D02*
G75*
G03*
X153734225Y-108227245I-9091873J-1462340D01*
G01*
X153868378Y-106736000D02*
X153822066Y-106697811D01*
X154212905Y-107198953D02*
X154199967Y-107146792D01*
X154208571Y-107440980D02*
X154217636Y-107382894D01*
X153664857Y-106576146D02*
X153637993Y-106556971D01*
X154173049Y-107079480D02*
X154145776Y-107030537D01*
X154021624Y-106875543D02*
X153977131Y-106831693D01*
X152361822Y-105463058D02*
X152305898Y-105408835D01*
X152414845Y-105517503D02*
X152361822Y-105463058D01*
X152464106Y-105572192D02*
X152431570Y-105535716D01*
X152524761Y-105645315D02*
X152479917Y-105590454D01*
X154515112Y-110149134D02*
X154453618Y-110115872D01*
X152567185Y-105700173D02*
X152524761Y-105645315D01*
X152692246Y-105880552D02*
X152656423Y-105827097D01*
X141515877Y-109978340D02*
X141517079Y-110074784D01*
X141517079Y-110074784D02*
X141519506Y-110177917D01*
X141519506Y-110177917D02*
X141520655Y-110214565D01*
X154470601Y-111658095D02*
X154547372Y-111625551D01*
X141596330Y-108909017D02*
X141582533Y-109004893D01*
X141582533Y-109004893D02*
X141572174Y-109076887D01*
X142416461Y-106690708D02*
X142366395Y-106777006D01*
X142366395Y-106777006D02*
X142317205Y-106864034D01*
X142317205Y-106864034D02*
X142284916Y-106922448D01*
X154904745Y-110738183D02*
X154893328Y-110695395D01*
X154638486Y-111578310D02*
X154698347Y-111539974D01*
X154288020Y-113876852D02*
X154312641Y-113781924D01*
X154312641Y-113781924D02*
X154334951Y-113684055D01*
X154334951Y-113684055D02*
X154337753Y-113670786D01*
X153733015Y-114696746D02*
X153814166Y-114640118D01*
X153814166Y-114640118D02*
X153867114Y-114598093D01*
X141719802Y-111658094D02*
G75*
G03*
X152489401Y-114909295I17596162J38824535D01*
G01*
X154930316Y-111226144D02*
X154941907Y-111170650D01*
X155131001Y-112877295D02*
G75*
G03*
X155232601Y-112674095I0J127000D01*
G01*
X141584653Y-110966713D02*
X141599344Y-111067784D01*
X141599344Y-111067784D02*
X141615191Y-111167841D01*
X141615191Y-111167841D02*
X141617392Y-111181106D01*
X141519671Y-109737162D02*
X141517715Y-109833170D01*
X141517715Y-109833170D02*
X141516388Y-109898329D01*
X154813454Y-111442070D02*
X154850712Y-111395919D01*
X154223758Y-114064420D02*
X154256089Y-113973911D01*
X154256089Y-113973911D02*
X154267855Y-113940974D01*
X141671473Y-111457672D02*
X141693482Y-111552201D01*
X141693482Y-111552201D02*
X141716630Y-111645705D01*
X141716630Y-111645705D02*
X141719803Y-111658095D01*
X154948972Y-111093374D02*
X154948781Y-111033226D01*
X154914093Y-111279875D02*
X154930316Y-111226144D01*
X154850712Y-111395919D02*
X154882450Y-111347825D01*
X154409733Y-113133863D02*
X154414968Y-113031090D01*
X154414968Y-113031090D02*
X154418410Y-112934452D01*
X154418410Y-112934452D02*
X154419801Y-112877295D01*
X153586336Y-114779382D02*
X153674932Y-114732234D01*
X153674932Y-114732234D02*
X153733015Y-114696746D01*
X154386889Y-113374164D02*
X154397017Y-113275533D01*
X154397017Y-113275533D02*
X154403199Y-113215339D01*
X141659971Y-108571518D02*
X141640061Y-108666562D01*
X141640061Y-108666562D02*
X141621508Y-108761552D01*
X141621508Y-108761552D02*
X141609889Y-108824839D01*
X141630047Y-111251025D02*
X141649059Y-111348254D01*
X141649059Y-111348254D02*
X141657088Y-111389307D01*
X141557199Y-110747723D02*
X141568555Y-110844094D01*
X141568555Y-110844094D02*
X141580930Y-110939590D01*
X141580930Y-110939590D02*
X141584653Y-110966713D01*
X141561577Y-109160579D02*
X141551072Y-109262016D01*
X141551072Y-109262016D02*
X141541894Y-109363065D01*
X141541894Y-109363065D02*
X141538099Y-109409567D01*
X141719786Y-108317978D02*
X141696201Y-108413054D01*
X141696201Y-108413054D02*
X141674003Y-108508137D01*
X141674003Y-108508137D02*
X141659971Y-108571518D01*
X142284916Y-106922448D02*
X142237262Y-107010646D01*
X142237262Y-107010646D02*
X142190576Y-107099518D01*
X142190576Y-107099518D02*
X142160008Y-107159131D01*
X154698347Y-111539974D02*
X154752538Y-111499692D01*
X154685421Y-110289266D02*
X154639297Y-110243096D01*
X155131001Y-112877295D02*
X153708601Y-112877295D01*
X142009122Y-107483064D02*
X141970633Y-107575683D01*
X141970633Y-107575683D02*
X141933489Y-107668683D01*
X141933489Y-107668683D02*
X141909481Y-107730883D01*
X154774803Y-110411430D02*
X154739514Y-110356767D01*
X154806783Y-110468468D02*
X154774803Y-110411430D01*
X153423458Y-114841392D02*
X153515109Y-114808306D01*
X153515109Y-114808306D02*
X153533354Y-114801720D01*
X154834659Y-110528200D02*
X154816399Y-110488184D01*
X154470601Y-112013695D02*
X154470601Y-111658095D01*
X154866541Y-110610757D02*
X154843303Y-110548499D01*
X141792945Y-108065160D02*
X141765646Y-108157307D01*
X141765646Y-108157307D02*
X141743050Y-108233584D01*
X154891227Y-111331151D02*
X154907048Y-111297177D01*
X154944328Y-111151591D02*
X154947860Y-111112953D01*
X141538099Y-109409567D02*
X141530816Y-109510009D01*
X141530816Y-109510009D02*
X141524800Y-109610008D01*
X141524800Y-109610008D02*
X141522444Y-109656007D01*
X142120873Y-107239494D02*
X142079597Y-107328108D01*
X142079597Y-107328108D02*
X142045431Y-107401461D01*
X153184508Y-114896346D02*
X153282591Y-114878113D01*
X153282591Y-114878113D02*
X153366544Y-114858726D01*
X154923770Y-110823922D02*
X154910069Y-110759631D01*
X152991550Y-114920059D02*
X153089377Y-114909919D01*
X153089377Y-114909919D02*
X153184508Y-114896346D01*
X154935159Y-110887885D02*
X154923770Y-110823922D01*
X154948781Y-111033226D02*
X154945371Y-110971813D01*
X141520655Y-110214565D02*
X141524646Y-110316650D01*
X141524646Y-110316650D02*
X141529772Y-110417948D01*
X141529772Y-110417948D02*
X141531442Y-110446744D01*
X154768709Y-111485612D02*
X154799167Y-111456802D01*
X154020302Y-114433950D02*
X154075760Y-114353029D01*
X154075760Y-114353029D02*
X154116187Y-114286644D01*
X155232601Y-112674095D02*
X154470601Y-112013695D01*
X154337753Y-113670786D02*
X154356233Y-113576458D01*
X154356233Y-113576458D02*
X154372751Y-113479632D01*
X154372751Y-113479632D02*
X154377114Y-113451513D01*
X154116187Y-114286644D02*
X154162127Y-114202022D01*
X154162127Y-114202022D02*
X154199826Y-114123746D01*
X141536959Y-110522724D02*
X141545293Y-110620123D01*
X141545293Y-110620123D02*
X141549837Y-110673214D01*
X153907548Y-114559778D02*
X153974317Y-114488232D01*
X153974317Y-114488232D02*
X153984142Y-114477706D01*
X141909481Y-107730883D02*
X141874610Y-107824465D01*
X141874610Y-107824465D02*
X141841124Y-107918366D01*
X141841124Y-107918366D02*
X141819575Y-107981132D01*
X154571090Y-111614062D02*
X154616647Y-111590442D01*
X152784578Y-114925931D02*
X152882399Y-114924200D01*
X152882399Y-114924200D02*
X152923701Y-114923470D01*
X152489401Y-114909295D02*
X152588594Y-114917730D01*
X152588594Y-114917730D02*
X152685865Y-114923719D01*
X152685865Y-114923719D02*
X152713304Y-114924981D01*
X154639297Y-110243096D02*
X154589372Y-110200060D01*
X154726595Y-110339417D02*
X154699549Y-110305666D01*
X154943258Y-110950975D02*
X154938152Y-110909010D01*
X154887235Y-110674056D02*
X154866541Y-110610757D01*
X142555309Y-106466457D02*
X142504380Y-106547881D01*
X142504380Y-106547881D02*
X142462224Y-106615282D01*
X142748290Y-106179543D02*
X142693286Y-106258793D01*
X142693286Y-106258793D02*
X142638734Y-106339029D01*
X142638734Y-106339029D02*
X142602630Y-106393059D01*
X142897002Y-105973158D02*
X142836247Y-106056120D01*
X142836247Y-106056120D02*
X142775954Y-106140292D01*
X142775954Y-106140292D02*
X142748290Y-106179543D01*
X143048994Y-105777025D02*
X142988485Y-105854382D01*
X142988485Y-105854382D02*
X142947419Y-105906884D01*
X145177969Y-104349524D02*
X145082077Y-104372698D01*
X145082077Y-104372698D02*
X144987176Y-104397640D01*
X144987176Y-104397640D02*
X144943729Y-104409750D01*
X146802351Y-104259494D02*
X146705822Y-104249716D01*
X146705822Y-104249716D02*
X146608712Y-104241483D01*
X146608712Y-104241483D02*
X146563696Y-104238207D01*
X143255912Y-105531222D02*
X143192334Y-105604191D01*
X143192334Y-105604191D02*
X143129172Y-105678609D01*
X143129172Y-105678609D02*
X143100153Y-105713440D01*
X143414328Y-105357884D02*
X143344670Y-105432610D01*
X143344670Y-105432610D02*
X143275561Y-105509064D01*
X143275561Y-105509064D02*
X143255912Y-105531222D01*
X143577417Y-105196932D02*
X143506741Y-105265692D01*
X143506741Y-105265692D02*
X143468218Y-105303172D01*
X143804044Y-105000699D02*
X143728354Y-105062775D01*
X143728354Y-105062775D02*
X143653818Y-105126770D01*
X143653818Y-105126770D02*
X143632726Y-105145405D01*
X143981683Y-104866086D02*
X143903144Y-104923727D01*
X143903144Y-104923727D02*
X143825889Y-104983317D01*
X143825889Y-104983317D02*
X143804044Y-105000699D01*
X145992281Y-104236964D02*
X145891828Y-104243094D01*
X145891828Y-104243094D02*
X145791340Y-104250909D01*
X145791340Y-104250909D02*
X145744966Y-104255087D01*
X144169235Y-104745250D02*
X144087727Y-104796634D01*
X144087727Y-104796634D02*
X144043299Y-104824643D01*
X144435266Y-104604079D02*
X144345921Y-104647923D01*
X144345921Y-104647923D02*
X144258282Y-104693813D01*
X144258282Y-104693813D02*
X144233556Y-104707300D01*
X144645885Y-104511567D02*
X144552643Y-104550720D01*
X144552643Y-104550720D02*
X144461106Y-104591928D01*
X144461106Y-104591928D02*
X144435266Y-104604079D01*
X146482995Y-104234279D02*
X146386284Y-104231536D01*
X146386284Y-104231536D02*
X146320648Y-104229676D01*
X145417823Y-104299992D02*
X145319767Y-104318827D01*
X145319767Y-104318827D02*
X145222543Y-104339423D01*
X145222543Y-104339423D02*
X145177969Y-104349524D01*
X144867932Y-104433408D02*
X144775451Y-104465021D01*
X144775451Y-104465021D02*
X144719010Y-104484316D01*
X145662767Y-104264567D02*
X145565326Y-104277941D01*
X145565326Y-104277941D02*
X145499195Y-104287019D01*
X146239000Y-104229000D02*
X146138902Y-104231017D01*
X146138902Y-104231017D02*
X146038614Y-104234700D01*
X146038614Y-104234700D02*
X145992281Y-104236964D01*
D10*
X148398000Y-112992000D02*
X148398000Y-111468000D01*
X147736018Y-112963817D02*
G75*
G02*
X149032999Y-112991999I661982J606817D01*
G01*
X149033000Y-130518000D02*
X149033000Y-112992000D01*
X148398000Y-130518000D02*
X149033000Y-130518000D01*
X148398000Y-130518000D02*
X147763000Y-130518000D01*
X148398000Y-112992000D02*
X148398000Y-130518000D01*
X147763000Y-130518000D02*
X147763000Y-112992000D01*
D12*
X140007619Y-115606142D02*
X140055238Y-115653761D01*
X140198095Y-115701380D01*
X140293333Y-115701380D01*
X140436190Y-115653761D01*
X140531428Y-115558523D01*
X140579047Y-115463285D01*
X140626666Y-115272809D01*
X140626666Y-115129952D01*
X140579047Y-114939476D01*
X140531428Y-114844238D01*
X140436190Y-114749000D01*
X140293333Y-114701380D01*
X140198095Y-114701380D01*
X140055238Y-114749000D01*
X140007619Y-114796619D01*
X139579047Y-115701380D02*
X139579047Y-115034714D01*
X139579047Y-115225190D02*
X139531428Y-115129952D01*
X139483809Y-115082333D01*
X139388571Y-115034714D01*
X139293333Y-115034714D01*
X138579047Y-115653761D02*
X138674285Y-115701380D01*
X138864761Y-115701380D01*
X138960000Y-115653761D01*
X139007619Y-115558523D01*
X139007619Y-115177571D01*
X138960000Y-115082333D01*
X138864761Y-115034714D01*
X138674285Y-115034714D01*
X138579047Y-115082333D01*
X138531428Y-115177571D01*
X138531428Y-115272809D01*
X139007619Y-115368047D01*
X137674285Y-115701380D02*
X137674285Y-115177571D01*
X137721904Y-115082333D01*
X137817142Y-115034714D01*
X138007619Y-115034714D01*
X138102857Y-115082333D01*
X137674285Y-115653761D02*
X137769523Y-115701380D01*
X138007619Y-115701380D01*
X138102857Y-115653761D01*
X138150476Y-115558523D01*
X138150476Y-115463285D01*
X138102857Y-115368047D01*
X138007619Y-115320428D01*
X137769523Y-115320428D01*
X137674285Y-115272809D01*
X137340952Y-115034714D02*
X136960000Y-115034714D01*
X137198095Y-114701380D02*
X137198095Y-115558523D01*
X137150476Y-115653761D01*
X137055238Y-115701380D01*
X136960000Y-115701380D01*
X136245714Y-115653761D02*
X136340952Y-115701380D01*
X136531428Y-115701380D01*
X136626666Y-115653761D01*
X136674285Y-115558523D01*
X136674285Y-115177571D01*
X136626666Y-115082333D01*
X136531428Y-115034714D01*
X136340952Y-115034714D01*
X136245714Y-115082333D01*
X136198095Y-115177571D01*
X136198095Y-115272809D01*
X136674285Y-115368047D01*
X135340952Y-115701380D02*
X135340952Y-114701380D01*
X135340952Y-115653761D02*
X135436190Y-115701380D01*
X135626666Y-115701380D01*
X135721904Y-115653761D01*
X135769523Y-115606142D01*
X135817142Y-115510904D01*
X135817142Y-115225190D01*
X135769523Y-115129952D01*
X135721904Y-115082333D01*
X135626666Y-115034714D01*
X135436190Y-115034714D01*
X135340952Y-115082333D01*
X133769523Y-115177571D02*
X133626666Y-115225190D01*
X133579047Y-115272809D01*
X133531428Y-115368047D01*
X133531428Y-115510904D01*
X133579047Y-115606142D01*
X133626666Y-115653761D01*
X133721904Y-115701380D01*
X134102857Y-115701380D01*
X134102857Y-114701380D01*
X133769523Y-114701380D01*
X133674285Y-114749000D01*
X133626666Y-114796619D01*
X133579047Y-114891857D01*
X133579047Y-114987095D01*
X133626666Y-115082333D01*
X133674285Y-115129952D01*
X133769523Y-115177571D01*
X134102857Y-115177571D01*
X133198095Y-115034714D02*
X132960000Y-115701380D01*
X132721904Y-115034714D02*
X132960000Y-115701380D01*
X133055238Y-115939476D01*
X133102857Y-115987095D01*
X133198095Y-116034714D01*
X132340952Y-115606142D02*
X132293333Y-115653761D01*
X132340952Y-115701380D01*
X132388571Y-115653761D01*
X132340952Y-115606142D01*
X132340952Y-115701380D01*
X132340952Y-115082333D02*
X132293333Y-115129952D01*
X132340952Y-115177571D01*
X132388571Y-115129952D01*
X132340952Y-115082333D01*
X132340952Y-115177571D01*
X141745714Y-116451380D02*
X141745714Y-117165666D01*
X141793333Y-117308523D01*
X141888571Y-117403761D01*
X142031428Y-117451380D01*
X142126666Y-117451380D01*
X141126666Y-117451380D02*
X141221904Y-117403761D01*
X141269523Y-117356142D01*
X141317142Y-117260904D01*
X141317142Y-116975190D01*
X141269523Y-116879952D01*
X141221904Y-116832333D01*
X141126666Y-116784714D01*
X140983809Y-116784714D01*
X140888571Y-116832333D01*
X140840952Y-116879952D01*
X140793333Y-116975190D01*
X140793333Y-117260904D01*
X140840952Y-117356142D01*
X140888571Y-117403761D01*
X140983809Y-117451380D01*
X141126666Y-117451380D01*
X140412380Y-117403761D02*
X140317142Y-117451380D01*
X140126666Y-117451380D01*
X140031428Y-117403761D01*
X139983809Y-117308523D01*
X139983809Y-117260904D01*
X140031428Y-117165666D01*
X140126666Y-117118047D01*
X140269523Y-117118047D01*
X140364761Y-117070428D01*
X140412380Y-116975190D01*
X140412380Y-116927571D01*
X140364761Y-116832333D01*
X140269523Y-116784714D01*
X140126666Y-116784714D01*
X140031428Y-116832333D01*
X139555238Y-117451380D02*
X139555238Y-116784714D01*
X139555238Y-116451380D02*
X139602857Y-116499000D01*
X139555238Y-116546619D01*
X139507619Y-116499000D01*
X139555238Y-116451380D01*
X139555238Y-116546619D01*
X138650476Y-117451380D02*
X138650476Y-116927571D01*
X138698095Y-116832333D01*
X138793333Y-116784714D01*
X138983809Y-116784714D01*
X139079047Y-116832333D01*
X138650476Y-117403761D02*
X138745714Y-117451380D01*
X138983809Y-117451380D01*
X139079047Y-117403761D01*
X139126666Y-117308523D01*
X139126666Y-117213285D01*
X139079047Y-117118047D01*
X138983809Y-117070428D01*
X138745714Y-117070428D01*
X138650476Y-117022809D01*
X138221904Y-117403761D02*
X138126666Y-117451380D01*
X137936190Y-117451380D01*
X137840952Y-117403761D01*
X137793333Y-117308523D01*
X137793333Y-117260904D01*
X137840952Y-117165666D01*
X137936190Y-117118047D01*
X138079047Y-117118047D01*
X138174285Y-117070428D01*
X138221904Y-116975190D01*
X138221904Y-116927571D01*
X138174285Y-116832333D01*
X138079047Y-116784714D01*
X137936190Y-116784714D01*
X137840952Y-116832333D01*
X136602857Y-117451380D02*
X136602857Y-116451380D01*
X136031428Y-117451380D01*
X136031428Y-116451380D01*
X135126666Y-117451380D02*
X135126666Y-116927571D01*
X135174285Y-116832333D01*
X135269523Y-116784714D01*
X135460000Y-116784714D01*
X135555238Y-116832333D01*
X135126666Y-117403761D02*
X135221904Y-117451380D01*
X135460000Y-117451380D01*
X135555238Y-117403761D01*
X135602857Y-117308523D01*
X135602857Y-117213285D01*
X135555238Y-117118047D01*
X135460000Y-117070428D01*
X135221904Y-117070428D01*
X135126666Y-117022809D01*
X134745714Y-116784714D02*
X134507619Y-117451380D01*
X134269523Y-116784714D01*
X133460000Y-117451380D02*
X133460000Y-116927571D01*
X133507619Y-116832333D01*
X133602857Y-116784714D01*
X133793333Y-116784714D01*
X133888571Y-116832333D01*
X133460000Y-117403761D02*
X133555238Y-117451380D01*
X133793333Y-117451380D01*
X133888571Y-117403761D01*
X133936190Y-117308523D01*
X133936190Y-117213285D01*
X133888571Y-117118047D01*
X133793333Y-117070428D01*
X133555238Y-117070428D01*
X133460000Y-117022809D01*
X133031428Y-117403761D02*
X132936190Y-117451380D01*
X132745714Y-117451380D01*
X132650476Y-117403761D01*
X132602857Y-117308523D01*
X132602857Y-117260904D01*
X132650476Y-117165666D01*
X132745714Y-117118047D01*
X132888571Y-117118047D01*
X132983809Y-117070428D01*
X133031428Y-116975190D01*
X133031428Y-116927571D01*
X132983809Y-116832333D01*
X132888571Y-116784714D01*
X132745714Y-116784714D01*
X132650476Y-116832333D01*
X131745714Y-117403761D02*
X131840952Y-117451380D01*
X132031428Y-117451380D01*
X132126666Y-117403761D01*
X132174285Y-117356142D01*
X132221904Y-117260904D01*
X132221904Y-116975190D01*
X132174285Y-116879952D01*
X132126666Y-116832333D01*
X132031428Y-116784714D01*
X131840952Y-116784714D01*
X131745714Y-116832333D01*
X130888571Y-117451380D02*
X130888571Y-116927571D01*
X130936190Y-116832333D01*
X131031428Y-116784714D01*
X131221904Y-116784714D01*
X131317142Y-116832333D01*
X130888571Y-117403761D02*
X130983809Y-117451380D01*
X131221904Y-117451380D01*
X131317142Y-117403761D01*
X131364761Y-117308523D01*
X131364761Y-117213285D01*
X131317142Y-117118047D01*
X131221904Y-117070428D01*
X130983809Y-117070428D01*
X130888571Y-117022809D01*
X141007619Y-118677571D02*
X140864761Y-118725190D01*
X140817142Y-118772809D01*
X140769523Y-118868047D01*
X140769523Y-119010904D01*
X140817142Y-119106142D01*
X140864761Y-119153761D01*
X140960000Y-119201380D01*
X141340952Y-119201380D01*
X141340952Y-118201380D01*
X141007619Y-118201380D01*
X140912380Y-118249000D01*
X140864761Y-118296619D01*
X140817142Y-118391857D01*
X140817142Y-118487095D01*
X140864761Y-118582333D01*
X140912380Y-118629952D01*
X141007619Y-118677571D01*
X141340952Y-118677571D01*
X140340952Y-119201380D02*
X140340952Y-118534714D01*
X140340952Y-118725190D02*
X140293333Y-118629952D01*
X140245714Y-118582333D01*
X140150476Y-118534714D01*
X140055238Y-118534714D01*
X139817142Y-118534714D02*
X139579047Y-119201380D01*
X139340952Y-118534714D02*
X139579047Y-119201380D01*
X139674285Y-119439476D01*
X139721904Y-119487095D01*
X139817142Y-119534714D01*
X138531428Y-119153761D02*
X138626666Y-119201380D01*
X138817142Y-119201380D01*
X138912380Y-119153761D01*
X138960000Y-119106142D01*
X139007619Y-119010904D01*
X139007619Y-118725190D01*
X138960000Y-118629952D01*
X138912380Y-118582333D01*
X138817142Y-118534714D01*
X138626666Y-118534714D01*
X138531428Y-118582333D01*
X137721904Y-119153761D02*
X137817142Y-119201380D01*
X138007619Y-119201380D01*
X138102857Y-119153761D01*
X138150476Y-119058523D01*
X138150476Y-118677571D01*
X138102857Y-118582333D01*
X138007619Y-118534714D01*
X137817142Y-118534714D01*
X137721904Y-118582333D01*
X137674285Y-118677571D01*
X137674285Y-118772809D01*
X138150476Y-118868047D01*
X136483809Y-119201380D02*
X136483809Y-118201380D01*
X136245714Y-118201380D01*
X136102857Y-118249000D01*
X136007619Y-118344238D01*
X135960000Y-118439476D01*
X135912380Y-118629952D01*
X135912380Y-118772809D01*
X135960000Y-118963285D01*
X136007619Y-119058523D01*
X136102857Y-119153761D01*
X136245714Y-119201380D01*
X136483809Y-119201380D01*
X135102857Y-119153761D02*
X135198095Y-119201380D01*
X135388571Y-119201380D01*
X135483809Y-119153761D01*
X135531428Y-119058523D01*
X135531428Y-118677571D01*
X135483809Y-118582333D01*
X135388571Y-118534714D01*
X135198095Y-118534714D01*
X135102857Y-118582333D01*
X135055238Y-118677571D01*
X135055238Y-118772809D01*
X135531428Y-118868047D01*
X134626666Y-119201380D02*
X134626666Y-118534714D01*
X134626666Y-118725190D02*
X134579047Y-118629952D01*
X134531428Y-118582333D01*
X134436190Y-118534714D01*
X134340952Y-118534714D01*
X134007619Y-119201380D02*
X134007619Y-118534714D01*
X134007619Y-118725190D02*
X133960000Y-118629952D01*
X133912380Y-118582333D01*
X133817142Y-118534714D01*
X133721904Y-118534714D01*
X133388571Y-119201380D02*
X133388571Y-118534714D01*
X133388571Y-118201380D02*
X133436190Y-118249000D01*
X133388571Y-118296619D01*
X133340952Y-118249000D01*
X133388571Y-118201380D01*
X133388571Y-118296619D01*
X132912380Y-118534714D02*
X132912380Y-119201380D01*
X132912380Y-118629952D02*
X132864761Y-118582333D01*
X132769523Y-118534714D01*
X132626666Y-118534714D01*
X132531428Y-118582333D01*
X132483809Y-118677571D01*
X132483809Y-119201380D01*
X131579047Y-118534714D02*
X131579047Y-119344238D01*
X131626666Y-119439476D01*
X131674285Y-119487095D01*
X131769523Y-119534714D01*
X131912380Y-119534714D01*
X132007619Y-119487095D01*
X131579047Y-119153761D02*
X131674285Y-119201380D01*
X131864761Y-119201380D01*
X131960000Y-119153761D01*
X132007619Y-119106142D01*
X132055238Y-119010904D01*
X132055238Y-118725190D01*
X132007619Y-118629952D01*
X131960000Y-118582333D01*
X131864761Y-118534714D01*
X131674285Y-118534714D01*
X131579047Y-118582333D01*
X140174285Y-120951380D02*
X140174285Y-119951380D01*
X139840952Y-120665666D01*
X139507619Y-119951380D01*
X139507619Y-120951380D01*
X138602857Y-120951380D02*
X138602857Y-120427571D01*
X138650476Y-120332333D01*
X138745714Y-120284714D01*
X138936190Y-120284714D01*
X139031428Y-120332333D01*
X138602857Y-120903761D02*
X138698095Y-120951380D01*
X138936190Y-120951380D01*
X139031428Y-120903761D01*
X139079047Y-120808523D01*
X139079047Y-120713285D01*
X139031428Y-120618047D01*
X138936190Y-120570428D01*
X138698095Y-120570428D01*
X138602857Y-120522809D01*
X138126666Y-120951380D02*
X138126666Y-120284714D01*
X138126666Y-120475190D02*
X138079047Y-120379952D01*
X138031428Y-120332333D01*
X137936190Y-120284714D01*
X137840952Y-120284714D01*
X137650476Y-120284714D02*
X137269523Y-120284714D01*
X137507619Y-119951380D02*
X137507619Y-120808523D01*
X137460000Y-120903761D01*
X137364761Y-120951380D01*
X137269523Y-120951380D01*
X136936190Y-120951380D02*
X136936190Y-120284714D01*
X136936190Y-119951380D02*
X136983809Y-119999000D01*
X136936190Y-120046619D01*
X136888571Y-119999000D01*
X136936190Y-119951380D01*
X136936190Y-120046619D01*
X136460000Y-120284714D02*
X136460000Y-120951380D01*
X136460000Y-120379952D02*
X136412380Y-120332333D01*
X136317142Y-120284714D01*
X136174285Y-120284714D01*
X136079047Y-120332333D01*
X136031428Y-120427571D01*
X136031428Y-120951380D01*
X134317142Y-120951380D02*
X134793333Y-120951380D01*
X134793333Y-119951380D01*
X133602857Y-120903761D02*
X133698095Y-120951380D01*
X133888571Y-120951380D01*
X133983809Y-120903761D01*
X134031428Y-120808523D01*
X134031428Y-120427571D01*
X133983809Y-120332333D01*
X133888571Y-120284714D01*
X133698095Y-120284714D01*
X133602857Y-120332333D01*
X133555238Y-120427571D01*
X133555238Y-120522809D01*
X134031428Y-120618047D01*
X132745714Y-120903761D02*
X132840952Y-120951380D01*
X133031428Y-120951380D01*
X133126666Y-120903761D01*
X133174285Y-120808523D01*
X133174285Y-120427571D01*
X133126666Y-120332333D01*
X133031428Y-120284714D01*
X132840952Y-120284714D01*
X132745714Y-120332333D01*
X132698095Y-120427571D01*
X132698095Y-120522809D01*
X133174285Y-120618047D01*
X140555238Y-122415666D02*
X140079047Y-122415666D01*
X140650476Y-122701380D02*
X140317142Y-121701380D01*
X139983809Y-122701380D01*
X139650476Y-122701380D02*
X139650476Y-122034714D01*
X139650476Y-121701380D02*
X139698095Y-121749000D01*
X139650476Y-121796619D01*
X139602857Y-121749000D01*
X139650476Y-121701380D01*
X139650476Y-121796619D01*
X138745714Y-122701380D02*
X138745714Y-121701380D01*
X138745714Y-122653761D02*
X138840952Y-122701380D01*
X139031428Y-122701380D01*
X139126666Y-122653761D01*
X139174285Y-122606142D01*
X139221904Y-122510904D01*
X139221904Y-122225190D01*
X139174285Y-122129952D01*
X139126666Y-122082333D01*
X139031428Y-122034714D01*
X138840952Y-122034714D01*
X138745714Y-122082333D01*
X137888571Y-122653761D02*
X137983809Y-122701380D01*
X138174285Y-122701380D01*
X138269523Y-122653761D01*
X138317142Y-122558523D01*
X138317142Y-122177571D01*
X138269523Y-122082333D01*
X138174285Y-122034714D01*
X137983809Y-122034714D01*
X137888571Y-122082333D01*
X137840952Y-122177571D01*
X137840952Y-122272809D01*
X138317142Y-122368047D01*
X137412380Y-122034714D02*
X137412380Y-122701380D01*
X137412380Y-122129952D02*
X137364761Y-122082333D01*
X137269523Y-122034714D01*
X137126666Y-122034714D01*
X137031428Y-122082333D01*
X136983809Y-122177571D01*
X136983809Y-122701380D01*
X135269523Y-122701380D02*
X135745714Y-122701380D01*
X135745714Y-121701380D01*
X134936190Y-122701380D02*
X134936190Y-122034714D01*
X134936190Y-121701380D02*
X134983809Y-121749000D01*
X134936190Y-121796619D01*
X134888571Y-121749000D01*
X134936190Y-121701380D01*
X134936190Y-121796619D01*
X134602857Y-122034714D02*
X134221904Y-122034714D01*
X134460000Y-121701380D02*
X134460000Y-122558523D01*
X134412380Y-122653761D01*
X134317142Y-122701380D01*
X134221904Y-122701380D01*
X134031428Y-122034714D02*
X133650476Y-122034714D01*
X133888571Y-121701380D02*
X133888571Y-122558523D01*
X133840952Y-122653761D01*
X133745714Y-122701380D01*
X133650476Y-122701380D01*
X133174285Y-122701380D02*
X133269523Y-122653761D01*
X133317142Y-122558523D01*
X133317142Y-121701380D01*
X132412380Y-122653761D02*
X132507619Y-122701380D01*
X132698095Y-122701380D01*
X132793333Y-122653761D01*
X132840952Y-122558523D01*
X132840952Y-122177571D01*
X132793333Y-122082333D01*
X132698095Y-122034714D01*
X132507619Y-122034714D01*
X132412380Y-122082333D01*
X132364761Y-122177571D01*
X132364761Y-122272809D01*
X132840952Y-122368047D01*
X140388571Y-124165666D02*
X139912380Y-124165666D01*
X140483809Y-124451380D02*
X140150476Y-123451380D01*
X139817142Y-124451380D01*
X139483809Y-123784714D02*
X139483809Y-124451380D01*
X139483809Y-123879952D02*
X139436190Y-123832333D01*
X139340952Y-123784714D01*
X139198095Y-123784714D01*
X139102857Y-123832333D01*
X139055238Y-123927571D01*
X139055238Y-124451380D01*
X138721904Y-123784714D02*
X138340952Y-123784714D01*
X138579047Y-123451380D02*
X138579047Y-124308523D01*
X138531428Y-124403761D01*
X138436190Y-124451380D01*
X138340952Y-124451380D01*
X138007619Y-124451380D02*
X138007619Y-123451380D01*
X137579047Y-124451380D02*
X137579047Y-123927571D01*
X137626666Y-123832333D01*
X137721904Y-123784714D01*
X137864761Y-123784714D01*
X137960000Y-123832333D01*
X138007619Y-123879952D01*
X136960000Y-124451380D02*
X137055238Y-124403761D01*
X137102857Y-124356142D01*
X137150476Y-124260904D01*
X137150476Y-123975190D01*
X137102857Y-123879952D01*
X137055238Y-123832333D01*
X136960000Y-123784714D01*
X136817142Y-123784714D01*
X136721904Y-123832333D01*
X136674285Y-123879952D01*
X136626666Y-123975190D01*
X136626666Y-124260904D01*
X136674285Y-124356142D01*
X136721904Y-124403761D01*
X136817142Y-124451380D01*
X136960000Y-124451380D01*
X136198095Y-123784714D02*
X136198095Y-124451380D01*
X136198095Y-123879952D02*
X136150476Y-123832333D01*
X136055238Y-123784714D01*
X135912380Y-123784714D01*
X135817142Y-123832333D01*
X135769523Y-123927571D01*
X135769523Y-124451380D01*
X135388571Y-123784714D02*
X135150476Y-124451380D01*
X134912380Y-123784714D02*
X135150476Y-124451380D01*
X135245714Y-124689476D01*
X135293333Y-124737095D01*
X135388571Y-124784714D01*
X133293333Y-124451380D02*
X133769523Y-124451380D01*
X133769523Y-123451380D01*
X132579047Y-124403761D02*
X132674285Y-124451380D01*
X132864761Y-124451380D01*
X132960000Y-124403761D01*
X133007619Y-124308523D01*
X133007619Y-123927571D01*
X132960000Y-123832333D01*
X132864761Y-123784714D01*
X132674285Y-123784714D01*
X132579047Y-123832333D01*
X132531428Y-123927571D01*
X132531428Y-124022809D01*
X133007619Y-124118047D01*
X138864761Y-125677571D02*
X138531428Y-125677571D01*
X138388571Y-126201380D02*
X138864761Y-126201380D01*
X138864761Y-125201380D01*
X138388571Y-125201380D01*
X137960000Y-125820428D02*
X137198095Y-125820428D01*
X136721904Y-126201380D02*
X136721904Y-125534714D01*
X136721904Y-125629952D02*
X136674285Y-125582333D01*
X136579047Y-125534714D01*
X136436190Y-125534714D01*
X136340952Y-125582333D01*
X136293333Y-125677571D01*
X136293333Y-126201380D01*
X136293333Y-125677571D02*
X136245714Y-125582333D01*
X136150476Y-125534714D01*
X136007619Y-125534714D01*
X135912380Y-125582333D01*
X135864761Y-125677571D01*
X135864761Y-126201380D01*
X134960000Y-126201380D02*
X134960000Y-125677571D01*
X135007619Y-125582333D01*
X135102857Y-125534714D01*
X135293333Y-125534714D01*
X135388571Y-125582333D01*
X134960000Y-126153761D02*
X135055238Y-126201380D01*
X135293333Y-126201380D01*
X135388571Y-126153761D01*
X135436190Y-126058523D01*
X135436190Y-125963285D01*
X135388571Y-125868047D01*
X135293333Y-125820428D01*
X135055238Y-125820428D01*
X134960000Y-125772809D01*
X134483809Y-125534714D02*
X134483809Y-126201380D01*
X134483809Y-125629952D02*
X134436190Y-125582333D01*
X134340952Y-125534714D01*
X134198095Y-125534714D01*
X134102857Y-125582333D01*
X134055238Y-125677571D01*
X134055238Y-126201380D01*
X140007619Y-127951380D02*
X140340952Y-127475190D01*
X140579047Y-127951380D02*
X140579047Y-126951380D01*
X140198095Y-126951380D01*
X140102857Y-126999000D01*
X140055238Y-127046619D01*
X140007619Y-127141857D01*
X140007619Y-127284714D01*
X140055238Y-127379952D01*
X140102857Y-127427571D01*
X140198095Y-127475190D01*
X140579047Y-127475190D01*
X139150476Y-127951380D02*
X139150476Y-127427571D01*
X139198095Y-127332333D01*
X139293333Y-127284714D01*
X139483809Y-127284714D01*
X139579047Y-127332333D01*
X139150476Y-127903761D02*
X139245714Y-127951380D01*
X139483809Y-127951380D01*
X139579047Y-127903761D01*
X139626666Y-127808523D01*
X139626666Y-127713285D01*
X139579047Y-127618047D01*
X139483809Y-127570428D01*
X139245714Y-127570428D01*
X139150476Y-127522809D01*
X138674285Y-127284714D02*
X138674285Y-127951380D01*
X138674285Y-127379952D02*
X138626666Y-127332333D01*
X138531428Y-127284714D01*
X138388571Y-127284714D01*
X138293333Y-127332333D01*
X138245714Y-127427571D01*
X138245714Y-127951380D01*
X137769523Y-127951380D02*
X137769523Y-127284714D01*
X137769523Y-126951380D02*
X137817142Y-126999000D01*
X137769523Y-127046619D01*
X137721904Y-126999000D01*
X137769523Y-126951380D01*
X137769523Y-127046619D01*
X136531428Y-127951380D02*
X136531428Y-126951380D01*
X136531428Y-127427571D02*
X135960000Y-127427571D01*
X135960000Y-127951380D02*
X135960000Y-126951380D01*
X135055238Y-127951380D02*
X135055238Y-127427571D01*
X135102857Y-127332333D01*
X135198095Y-127284714D01*
X135388571Y-127284714D01*
X135483809Y-127332333D01*
X135055238Y-127903761D02*
X135150476Y-127951380D01*
X135388571Y-127951380D01*
X135483809Y-127903761D01*
X135531428Y-127808523D01*
X135531428Y-127713285D01*
X135483809Y-127618047D01*
X135388571Y-127570428D01*
X135150476Y-127570428D01*
X135055238Y-127522809D01*
X134579047Y-127284714D02*
X134579047Y-127951380D01*
X134579047Y-127379952D02*
X134531428Y-127332333D01*
X134436190Y-127284714D01*
X134293333Y-127284714D01*
X134198095Y-127332333D01*
X134150476Y-127427571D01*
X134150476Y-127951380D01*
X133674285Y-127284714D02*
X133674285Y-127951380D01*
X133674285Y-127379952D02*
X133626666Y-127332333D01*
X133531428Y-127284714D01*
X133388571Y-127284714D01*
X133293333Y-127332333D01*
X133245714Y-127427571D01*
X133245714Y-127951380D01*
X132340952Y-127951380D02*
X132340952Y-127427571D01*
X132388571Y-127332333D01*
X132483809Y-127284714D01*
X132674285Y-127284714D01*
X132769523Y-127332333D01*
X132340952Y-127903761D02*
X132436190Y-127951380D01*
X132674285Y-127951380D01*
X132769523Y-127903761D01*
X132817142Y-127808523D01*
X132817142Y-127713285D01*
X132769523Y-127618047D01*
X132674285Y-127570428D01*
X132436190Y-127570428D01*
X132340952Y-127522809D01*
%LPC*%
D13*
%TO.C,U1*%
X156962000Y-126068000D03*
X123962000Y-78068000D03*
X156962000Y-78068000D03*
X123962000Y-126068000D03*
%TD*%
D14*
%TO.C,A1*%
X161746000Y-115226000D03*
X161746000Y-119226000D03*
X161746000Y-117226000D03*
X161746000Y-121226000D03*
X161746000Y-111226000D03*
D15*
X163656000Y-126256000D03*
X168736000Y-126256000D03*
D14*
X161746000Y-113226000D03*
D15*
X173816000Y-126256000D03*
D14*
X161746000Y-107226000D03*
D15*
X176356000Y-126256000D03*
X171276000Y-126256000D03*
D14*
X161746000Y-109226000D03*
D15*
X166196000Y-126256000D03*
%TD*%
D16*
%TO.C,U5*%
X183694800Y-71261800D03*
X183694800Y-101741800D03*
X211634800Y-101741800D03*
X211634800Y-71261800D03*
D17*
X196394800Y-101741800D03*
X193854800Y-101741800D03*
X191314800Y-101741800D03*
X188774800Y-101741800D03*
X198934800Y-101741800D03*
X201474800Y-101741800D03*
X204014800Y-101741800D03*
X206554800Y-101741800D03*
X206554800Y-71261800D03*
X188774800Y-71261800D03*
X196394800Y-71261800D03*
X204014800Y-71261800D03*
X201474800Y-71261800D03*
X191314800Y-71261800D03*
X193854800Y-71261800D03*
X198934800Y-71261800D03*
%TD*%
D18*
%TO.C,U3*%
X164088000Y-83570000D03*
D17*
X173228000Y-82550000D03*
X175768000Y-82550000D03*
X178318000Y-82540000D03*
X170688000Y-82550000D03*
X168148000Y-82550000D03*
D18*
X177288000Y-96770000D03*
D17*
X178318000Y-93230000D03*
%TD*%
D19*
%TO.C,J4*%
X109391000Y-109347000D03*
D20*
X106851000Y-110617000D03*
X109391000Y-111887000D03*
X106851000Y-113157000D03*
X109391000Y-114427000D03*
X106851000Y-115697000D03*
X109391000Y-116967000D03*
X106851000Y-118237000D03*
D21*
X100501000Y-109347000D03*
X100501000Y-120777000D03*
D22*
X103551000Y-122912000D03*
X103551000Y-107212000D03*
D23*
X96441000Y-108432000D03*
X96441000Y-121692000D03*
D20*
X109391000Y-119507000D03*
X106851000Y-120777000D03*
D23*
X96441000Y-110972000D03*
X96441000Y-119152000D03*
%TD*%
D24*
%TO.C,Y1*%
X116606000Y-78702000D03*
X111726000Y-78702000D03*
%TD*%
D25*
%TO.C,J3*%
X103001000Y-93241000D03*
D26*
X103001000Y-95741000D03*
X103001000Y-97741000D03*
X103001000Y-100241000D03*
D27*
X105971000Y-90171000D03*
X105971000Y-103311000D03*
X100291000Y-90171000D03*
X100291000Y-103311000D03*
D25*
X105621000Y-93241000D03*
D26*
X105621000Y-95741000D03*
X105621000Y-97741000D03*
X105621000Y-100241000D03*
%TD*%
D25*
%TO.C,J2*%
X103026000Y-75341000D03*
D26*
X103026000Y-77841000D03*
X103026000Y-79841000D03*
X103026000Y-82341000D03*
D27*
X105996000Y-72271000D03*
X105996000Y-85411000D03*
X100316000Y-72271000D03*
X100316000Y-85411000D03*
D25*
X105646000Y-75341000D03*
D26*
X105646000Y-77841000D03*
X105646000Y-79841000D03*
X105646000Y-82341000D03*
%TD*%
D28*
%TO.C,U4*%
X135516000Y-67036000D03*
X142666000Y-67036000D03*
%TD*%
D29*
%TO.C,X1*%
X163384000Y-70066000D03*
D30*
X168384000Y-70066000D03*
%TD*%
D29*
%TO.C,X2*%
X175830000Y-69946000D03*
D30*
X175830000Y-74946000D03*
%TD*%
D24*
%TO.C,X3*%
X218186000Y-99330000D03*
X218186000Y-97330000D03*
X218186000Y-101330000D03*
X218186000Y-103330000D03*
%TD*%
D31*
%TO.C,D1*%
X166586000Y-79664000D03*
X166586000Y-78036000D03*
%TD*%
D32*
%TO.C,J1*%
X217170000Y-89662000D03*
X217170000Y-87122000D03*
X217170000Y-84582000D03*
D33*
X217170000Y-82042000D03*
%TD*%
D16*
%TO.C,U2*%
X180756000Y-117696000D03*
X210756000Y-127696000D03*
X210756000Y-107696000D03*
%TD*%
D33*
%TO.C,J5*%
X146874000Y-70066000D03*
D32*
X149414000Y-70066000D03*
X151954000Y-70066000D03*
X154494000Y-70066000D03*
%TD*%
D33*
%TO.C,J6*%
X117216000Y-126281000D03*
D32*
X117216000Y-128821000D03*
X114676000Y-126281000D03*
X114676000Y-128821000D03*
X112136000Y-126281000D03*
X112136000Y-128821000D03*
X109596000Y-126281000D03*
X109596000Y-128821000D03*
X107056000Y-126281000D03*
X107056000Y-128821000D03*
X104516000Y-126281000D03*
X104516000Y-128821000D03*
X101976000Y-126281000D03*
X101976000Y-128821000D03*
%TD*%
M02*
