%TF.GenerationSoftware,KiCad,Pcbnew,(5.1.9)-1*%
%TF.CreationDate,2021-12-11T15:02:24-08:00*%
%TF.ProjectId,DevelopmentBoard,44657665-6c6f-4706-9d65-6e74426f6172,rev?*%
%TF.SameCoordinates,Original*%
%TF.FileFunction,Copper,L1,Top*%
%TF.FilePolarity,Positive*%
%FSLAX46Y46*%
G04 Gerber Fmt 4.6, Leading zero omitted, Abs format (unit mm)*
G04 Created by KiCad (PCBNEW (5.1.9)-1) date 2021-12-11 15:02:24*
%MOMM*%
%LPD*%
G01*
G04 APERTURE LIST*
%TA.AperFunction,SMDPad,CuDef*%
%ADD10R,0.700000X0.200000*%
%TD*%
%TA.AperFunction,ComponentPad*%
%ADD11O,1.000000X1.270000*%
%TD*%
%TA.AperFunction,ComponentPad*%
%ADD12C,1.900000*%
%TD*%
%TA.AperFunction,SMDPad,CuDef*%
%ADD13R,0.600000X0.900000*%
%TD*%
%TA.AperFunction,ComponentPad*%
%ADD14C,4.000000*%
%TD*%
%TA.AperFunction,ComponentPad*%
%ADD15C,1.524000*%
%TD*%
%TA.AperFunction,SMDPad,CuDef*%
%ADD16R,0.900000X0.600000*%
%TD*%
%TA.AperFunction,SMDPad,CuDef*%
%ADD17R,1.525000X0.440000*%
%TD*%
%TA.AperFunction,ComponentPad*%
%ADD18R,1.408000X1.408000*%
%TD*%
%TA.AperFunction,ComponentPad*%
%ADD19C,1.408000*%
%TD*%
%TA.AperFunction,ComponentPad*%
%ADD20C,2.550000*%
%TD*%
%TA.AperFunction,ComponentPad*%
%ADD21C,1.508000*%
%TD*%
%TA.AperFunction,ComponentPad*%
%ADD22C,1.500000*%
%TD*%
%TA.AperFunction,ComponentPad*%
%ADD23R,1.428000X1.428000*%
%TD*%
%TA.AperFunction,ComponentPad*%
%ADD24C,1.428000*%
%TD*%
%TA.AperFunction,ComponentPad*%
%ADD25C,3.316000*%
%TD*%
%TA.AperFunction,ComponentPad*%
%ADD26O,1.050000X2.100000*%
%TD*%
%TA.AperFunction,SMDPad,CuDef*%
%ADD27R,1.150000X1.450000*%
%TD*%
%TA.AperFunction,SMDPad,CuDef*%
%ADD28R,1.750000X1.900000*%
%TD*%
%TA.AperFunction,SMDPad,CuDef*%
%ADD29R,0.400000X1.400000*%
%TD*%
%TA.AperFunction,ComponentPad*%
%ADD30R,3.800000X3.800000*%
%TD*%
%TA.AperFunction,ComponentPad*%
%ADD31C,3.800000*%
%TD*%
%TA.AperFunction,ComponentPad*%
%ADD32R,0.930000X0.890000*%
%TD*%
%TA.AperFunction,ComponentPad*%
%ADD33O,1.700000X1.700000*%
%TD*%
%TA.AperFunction,ComponentPad*%
%ADD34R,1.700000X1.700000*%
%TD*%
%TA.AperFunction,SMDPad,CuDef*%
%ADD35C,2.000000*%
%TD*%
%TA.AperFunction,ViaPad*%
%ADD36C,4.000000*%
%TD*%
%TA.AperFunction,ViaPad*%
%ADD37C,0.685800*%
%TD*%
%TA.AperFunction,ViaPad*%
%ADD38C,0.500000*%
%TD*%
%TA.AperFunction,Conductor*%
%ADD39C,0.400000*%
%TD*%
%TA.AperFunction,Conductor*%
%ADD40C,0.200000*%
%TD*%
%TA.AperFunction,Conductor*%
%ADD41C,0.300000*%
%TD*%
%TA.AperFunction,Conductor*%
%ADD42C,1.500000*%
%TD*%
%TA.AperFunction,Conductor*%
%ADD43C,1.000000*%
%TD*%
%TA.AperFunction,Conductor*%
%ADD44C,4.000000*%
%TD*%
%TA.AperFunction,Conductor*%
%ADD45C,0.254000*%
%TD*%
%TA.AperFunction,Conductor*%
%ADD46C,0.508000*%
%TD*%
G04 APERTURE END LIST*
D10*
%TO.P,U1,1*%
%TO.N,GND*%
X158962000Y-109368000D03*
%TO.P,U1,2*%
X155882000Y-109368000D03*
%TO.P,U1,3*%
%TO.N,/ETH_P3_P*%
X158962000Y-108968000D03*
%TO.P,U1,4*%
%TO.N,/ETH_P1_P*%
X155882000Y-108968000D03*
%TO.P,U1,5*%
%TO.N,/ETH_P3_N*%
X158962000Y-108568000D03*
%TO.P,U1,6*%
%TO.N,/ETH_P1_N*%
X155882000Y-108568000D03*
%TO.P,U1,7*%
%TO.N,GND*%
X158962000Y-108168000D03*
%TO.P,U1,8*%
X155882000Y-108168000D03*
%TO.P,U1,9*%
%TO.N,/ETH_P2_N*%
X158962000Y-107768000D03*
%TO.P,U1,10*%
%TO.N,/ETH_P0_N*%
X155882000Y-107768000D03*
%TO.P,U1,11*%
%TO.N,/ETH_P2_P*%
X158962000Y-107368000D03*
%TO.P,U1,12*%
%TO.N,/ETH_P0_P*%
X155882000Y-107368000D03*
%TO.P,U1,13*%
%TO.N,GND*%
X158962000Y-106968000D03*
%TO.P,U1,14*%
X155882000Y-106968000D03*
%TO.P,U1,15*%
%TO.N,/ETH_LEDY*%
X158962000Y-106568000D03*
%TO.P,U1,16*%
%TO.N,Net-(U1-Pad16)*%
X155882000Y-106568000D03*
%TO.P,U1,17*%
%TO.N,/ETH_LEDG*%
X158962000Y-106168000D03*
%TO.P,U1,18*%
%TO.N,Net-(U1-Pad18)*%
X155882000Y-106168000D03*
%TO.P,U1,19*%
%TO.N,Net-(U1-Pad19)*%
X158962000Y-105768000D03*
%TO.P,U1,20*%
%TO.N,Net-(U1-Pad20)*%
X155882000Y-105768000D03*
%TO.P,U1,21*%
%TO.N,Net-(U1-Pad21)*%
X158962000Y-105368000D03*
%TO.P,U1,22*%
%TO.N,GND*%
X155882000Y-105368000D03*
%TO.P,U1,23*%
X158962000Y-104968000D03*
%TO.P,U1,24*%
%TO.N,/GPIO26*%
X155882000Y-104968000D03*
%TO.P,U1,25*%
%TO.N,/CH2*%
X158962000Y-104568000D03*
%TO.P,U1,26*%
%TO.N,/GPIO19*%
X155882000Y-104568000D03*
%TO.P,U1,27*%
%TO.N,/CH1*%
X158962000Y-104168000D03*
%TO.P,U1,28*%
%TO.N,/GPIO13*%
X155882000Y-104168000D03*
%TO.P,U1,29*%
%TO.N,Net-(U1-Pad29)*%
X158962000Y-103768000D03*
%TO.P,U1,30*%
%TO.N,/GPIO6*%
X155882000Y-103768000D03*
%TO.P,U1,31*%
%TO.N,/SBUS*%
X158962000Y-103368000D03*
%TO.P,U1,32*%
%TO.N,GND*%
X155882000Y-103368000D03*
%TO.P,U1,33*%
X158962000Y-102968000D03*
%TO.P,U1,34*%
%TO.N,/GPIO5*%
X155882000Y-102968000D03*
%TO.P,U1,35*%
%TO.N,Net-(U1-Pad35)*%
X158962000Y-102568000D03*
%TO.P,U1,36*%
%TO.N,Net-(U1-Pad36)*%
X155882000Y-102568000D03*
%TO.P,U1,37*%
%TO.N,Net-(U1-Pad37)*%
X158962000Y-102168000D03*
%TO.P,U1,38*%
%TO.N,/VN-100_SCK*%
X155882000Y-102168000D03*
%TO.P,U1,39*%
%TO.N,/VN-100_CS*%
X158962000Y-101768000D03*
%TO.P,U1,40*%
%TO.N,/VN-100_MISO*%
X155882000Y-101768000D03*
%TO.P,U1,41*%
%TO.N,Net-(U1-Pad41)*%
X158962000Y-101368000D03*
%TO.P,U1,42*%
%TO.N,GND*%
X155882000Y-101368000D03*
%TO.P,U1,43*%
X158962000Y-100968000D03*
%TO.P,U1,44*%
%TO.N,/VN-100_MOSI*%
X155882000Y-100968000D03*
%TO.P,U1,45*%
%TO.N,Net-(U1-Pad45)*%
X158962000Y-100568000D03*
%TO.P,U1,46*%
%TO.N,/GPIO22*%
X155882000Y-100568000D03*
%TO.P,U1,47*%
%TO.N,/VN-100_Enable*%
X158962000Y-100168000D03*
%TO.P,U1,48*%
%TO.N,/GPIO27*%
X155882000Y-100168000D03*
%TO.P,U1,49*%
%TO.N,Net-(U1-Pad49)*%
X158962000Y-99768000D03*
%TO.P,U1,50*%
%TO.N,/GPIO28*%
X155882000Y-99768000D03*
%TO.P,U1,51*%
%TO.N,/RX*%
X158962000Y-99368000D03*
%TO.P,U1,52*%
%TO.N,GND*%
X155882000Y-99368000D03*
%TO.P,U1,53*%
X158962000Y-98968000D03*
%TO.P,U1,54*%
%TO.N,/GPIO4*%
X155882000Y-98968000D03*
%TO.P,U1,55*%
%TO.N,/TX*%
X158962000Y-98568000D03*
%TO.P,U1,56*%
%TO.N,/GPIO3*%
X155882000Y-98568000D03*
%TO.P,U1,57*%
%TO.N,Net-(U1-Pad57)*%
X158962000Y-98168000D03*
%TO.P,U1,58*%
%TO.N,/MCU_Reset*%
X155882000Y-98168000D03*
%TO.P,U1,59*%
%TO.N,GND*%
X158962000Y-97768000D03*
%TO.P,U1,60*%
X155882000Y-97768000D03*
%TO.P,U1,61*%
%TO.N,Net-(U1-Pad61)*%
X158962000Y-97368000D03*
%TO.P,U1,62*%
%TO.N,Net-(U1-Pad62)*%
X155882000Y-97368000D03*
%TO.P,U1,63*%
%TO.N,Net-(U1-Pad63)*%
X158962000Y-96968000D03*
%TO.P,U1,64*%
%TO.N,Net-(U1-Pad64)*%
X155882000Y-96968000D03*
%TO.P,U1,65*%
%TO.N,GND*%
X158962000Y-96568000D03*
%TO.P,U1,66*%
X155882000Y-96568000D03*
%TO.P,U1,67*%
%TO.N,Net-(U1-Pad67)*%
X158962000Y-96168000D03*
%TO.P,U1,68*%
%TO.N,Net-(U1-Pad68)*%
X155882000Y-96168000D03*
%TO.P,U1,69*%
%TO.N,Net-(U1-Pad69)*%
X158962000Y-95768000D03*
%TO.P,U1,70*%
%TO.N,Net-(U1-Pad70)*%
X155882000Y-95768000D03*
%TO.P,U1,71*%
%TO.N,GND*%
X158962000Y-95368000D03*
%TO.P,U1,72*%
%TO.N,Net-(U1-Pad72)*%
X155882000Y-95368000D03*
%TO.P,U1,73*%
%TO.N,Net-(U1-Pad73)*%
X158962000Y-94968000D03*
%TO.P,U1,74*%
%TO.N,GND*%
X155882000Y-94968000D03*
%TO.P,U1,75*%
%TO.N,Net-(U1-Pad75)*%
X158962000Y-94568000D03*
%TO.P,U1,76*%
%TO.N,Net-(U1-Pad76)*%
X155882000Y-94568000D03*
%TO.P,U1,77*%
%TO.N,+5V*%
X158962000Y-94168000D03*
%TO.P,U1,78*%
%TO.N,Net-(U1-Pad78)*%
X155882000Y-94168000D03*
%TO.P,U1,79*%
%TO.N,+5V*%
X158962000Y-93768000D03*
%TO.P,U1,80*%
%TO.N,/SCL*%
X155882000Y-93768000D03*
%TO.P,U1,81*%
%TO.N,+5V*%
X158962000Y-93368000D03*
%TO.P,U1,82*%
%TO.N,/SDA*%
X155882000Y-93368000D03*
%TO.P,U1,83*%
%TO.N,+5V*%
X158962000Y-92968000D03*
%TO.P,U1,84*%
%TO.N,+3V3*%
X155882000Y-92968000D03*
%TO.P,U1,85*%
%TO.N,+5V*%
X158962000Y-92568000D03*
%TO.P,U1,86*%
%TO.N,+3V3*%
X155882000Y-92568000D03*
%TO.P,U1,87*%
%TO.N,+5V*%
X158962000Y-92168000D03*
%TO.P,U1,88*%
%TO.N,Net-(U1-Pad88)*%
X155882000Y-92168000D03*
%TO.P,U1,89*%
%TO.N,Net-(U1-Pad89)*%
X158962000Y-91768000D03*
%TO.P,U1,90*%
%TO.N,Net-(U1-Pad90)*%
X155882000Y-91768000D03*
%TO.P,U1,91*%
%TO.N,Net-(U1-Pad91)*%
X158962000Y-91368000D03*
%TO.P,U1,92*%
%TO.N,Net-(U1-Pad92)*%
X155882000Y-91368000D03*
%TO.P,U1,93*%
%TO.N,Net-(U1-Pad93)*%
X158962000Y-90968000D03*
%TO.P,U1,94*%
%TO.N,Net-(U1-Pad94)*%
X155882000Y-90968000D03*
%TO.P,U1,95*%
%TO.N,Net-(D1-Pad1)*%
X158962000Y-90568000D03*
%TO.P,U1,96*%
%TO.N,Net-(U1-Pad96)*%
X155882000Y-90568000D03*
%TO.P,U1,97*%
%TO.N,Net-(U1-Pad97)*%
X158962000Y-90168000D03*
%TO.P,U1,98*%
%TO.N,GND*%
X155882000Y-90168000D03*
%TO.P,U1,99*%
%TO.N,Net-(U1-Pad99)*%
X158962000Y-89768000D03*
%TO.P,U1,100*%
%TO.N,Net-(U1-Pad100)*%
X155882000Y-89768000D03*
%TO.P,U1,101*%
%TO.N,Net-(U1-Pad101)*%
X125042000Y-109368000D03*
%TO.P,U1,102*%
%TO.N,Net-(U1-Pad102)*%
X121962000Y-109368000D03*
%TO.P,U1,103*%
%TO.N,/D0-*%
X125042000Y-108968000D03*
%TO.P,U1,104*%
%TO.N,Net-(U1-Pad104)*%
X121962000Y-108968000D03*
%TO.P,U1,105*%
%TO.N,/D0+*%
X125042000Y-108568000D03*
%TO.P,U1,106*%
%TO.N,Net-(U1-Pad106)*%
X121962000Y-108568000D03*
%TO.P,U1,107*%
%TO.N,GND*%
X125042000Y-108168000D03*
%TO.P,U1,108*%
X121962000Y-108168000D03*
%TO.P,U1,109*%
%TO.N,Net-(U1-Pad109)*%
X125042000Y-107768000D03*
%TO.P,U1,110*%
%TO.N,Net-(U1-Pad110)*%
X121962000Y-107768000D03*
%TO.P,U1,111*%
%TO.N,Net-(U1-Pad111)*%
X125042000Y-107368000D03*
%TO.P,U1,112*%
%TO.N,Net-(U1-Pad112)*%
X121962000Y-107368000D03*
%TO.P,U1,113*%
%TO.N,GND*%
X125042000Y-106968000D03*
%TO.P,U1,114*%
X121962000Y-106968000D03*
%TO.P,U1,115*%
%TO.N,Net-(U1-Pad115)*%
X125042000Y-106568000D03*
%TO.P,U1,116*%
%TO.N,Net-(U1-Pad116)*%
X121962000Y-106568000D03*
%TO.P,U1,117*%
%TO.N,Net-(U1-Pad117)*%
X125042000Y-106168000D03*
%TO.P,U1,118*%
%TO.N,Net-(U1-Pad118)*%
X121962000Y-106168000D03*
%TO.P,U1,119*%
%TO.N,GND*%
X125042000Y-105768000D03*
%TO.P,U1,120*%
X121962000Y-105768000D03*
%TO.P,U1,121*%
%TO.N,Net-(U1-Pad121)*%
X125042000Y-105368000D03*
%TO.P,U1,122*%
%TO.N,Net-(U1-Pad122)*%
X121962000Y-105368000D03*
%TO.P,U1,123*%
%TO.N,Net-(U1-Pad123)*%
X125042000Y-104968000D03*
%TO.P,U1,124*%
%TO.N,Net-(U1-Pad124)*%
X121962000Y-104968000D03*
%TO.P,U1,125*%
%TO.N,GND*%
X125042000Y-104568000D03*
%TO.P,U1,126*%
X121962000Y-104568000D03*
%TO.P,U1,127*%
%TO.N,Net-(U1-Pad127)*%
X125042000Y-104168000D03*
%TO.P,U1,128*%
%TO.N,Net-(U1-Pad128)*%
X121962000Y-104168000D03*
%TO.P,U1,129*%
%TO.N,Net-(U1-Pad129)*%
X125042000Y-103768000D03*
%TO.P,U1,130*%
%TO.N,Net-(U1-Pad130)*%
X121962000Y-103768000D03*
%TO.P,U1,131*%
%TO.N,GND*%
X125042000Y-103368000D03*
%TO.P,U1,132*%
X121962000Y-103368000D03*
%TO.P,U1,133*%
%TO.N,Net-(U1-Pad133)*%
X125042000Y-102968000D03*
%TO.P,U1,134*%
%TO.N,Net-(U1-Pad134)*%
X121962000Y-102968000D03*
%TO.P,U1,135*%
%TO.N,Net-(U1-Pad135)*%
X125042000Y-102568000D03*
%TO.P,U1,136*%
%TO.N,Net-(U1-Pad136)*%
X121962000Y-102568000D03*
%TO.P,U1,137*%
%TO.N,GND*%
X125042000Y-102168000D03*
%TO.P,U1,138*%
X121962000Y-102168000D03*
%TO.P,U1,139*%
%TO.N,Net-(U1-Pad139)*%
X125042000Y-101768000D03*
%TO.P,U1,140*%
%TO.N,Net-(U1-Pad140)*%
X121962000Y-101768000D03*
%TO.P,U1,141*%
%TO.N,Net-(U1-Pad141)*%
X125042000Y-101368000D03*
%TO.P,U1,142*%
%TO.N,Net-(U1-Pad142)*%
X121962000Y-101368000D03*
%TO.P,U1,143*%
%TO.N,Net-(U1-Pad143)*%
X125042000Y-100968000D03*
%TO.P,U1,144*%
%TO.N,GND*%
X121962000Y-100968000D03*
%TO.P,U1,145*%
%TO.N,Net-(U1-Pad145)*%
X125042000Y-100568000D03*
%TO.P,U1,146*%
%TO.N,Net-(U1-Pad146)*%
X121962000Y-100568000D03*
%TO.P,U1,147*%
%TO.N,Net-(U1-Pad147)*%
X125042000Y-100168000D03*
%TO.P,U1,148*%
%TO.N,Net-(U1-Pad148)*%
X121962000Y-100168000D03*
%TO.P,U1,149*%
%TO.N,Net-(U1-Pad149)*%
X125042000Y-99768000D03*
%TO.P,U1,150*%
%TO.N,GND*%
X121962000Y-99768000D03*
%TO.P,U1,151*%
%TO.N,Net-(U1-Pad151)*%
X125042000Y-99368000D03*
%TO.P,U1,152*%
%TO.N,Net-(U1-Pad152)*%
X121962000Y-99368000D03*
%TO.P,U1,153*%
%TO.N,Net-(U1-Pad153)*%
X125042000Y-98968000D03*
%TO.P,U1,154*%
%TO.N,Net-(U1-Pad154)*%
X121962000Y-98968000D03*
%TO.P,U1,155*%
%TO.N,GND*%
X125042000Y-98568000D03*
%TO.P,U1,156*%
X121962000Y-98568000D03*
%TO.P,U1,157*%
%TO.N,Net-(U1-Pad157)*%
X125042000Y-98168000D03*
%TO.P,U1,158*%
%TO.N,Net-(U1-Pad158)*%
X121962000Y-98168000D03*
%TO.P,U1,159*%
%TO.N,Net-(U1-Pad159)*%
X125042000Y-97768000D03*
%TO.P,U1,160*%
%TO.N,Net-(U1-Pad160)*%
X121962000Y-97768000D03*
%TO.P,U1,161*%
%TO.N,GND*%
X125042000Y-97368000D03*
%TO.P,U1,162*%
X121962000Y-97368000D03*
%TO.P,U1,163*%
%TO.N,Net-(U1-Pad163)*%
X125042000Y-96968000D03*
%TO.P,U1,164*%
%TO.N,Net-(U1-Pad164)*%
X121962000Y-96968000D03*
%TO.P,U1,165*%
%TO.N,Net-(U1-Pad165)*%
X125042000Y-96568000D03*
%TO.P,U1,166*%
%TO.N,Net-(U1-Pad166)*%
X121962000Y-96568000D03*
%TO.P,U1,167*%
%TO.N,GND*%
X125042000Y-96168000D03*
%TO.P,U1,168*%
X121962000Y-96168000D03*
%TO.P,U1,169*%
%TO.N,Net-(U1-Pad169)*%
X125042000Y-95768000D03*
%TO.P,U1,170*%
%TO.N,Net-(U1-Pad170)*%
X121962000Y-95768000D03*
%TO.P,U1,171*%
%TO.N,Net-(U1-Pad171)*%
X125042000Y-95368000D03*
%TO.P,U1,172*%
%TO.N,Net-(U1-Pad172)*%
X121962000Y-95368000D03*
%TO.P,U1,173*%
%TO.N,GND*%
X125042000Y-94968000D03*
%TO.P,U1,174*%
X121962000Y-94968000D03*
%TO.P,U1,175*%
%TO.N,Net-(U1-Pad175)*%
X125042000Y-94568000D03*
%TO.P,U1,176*%
%TO.N,Net-(U1-Pad176)*%
X121962000Y-94568000D03*
%TO.P,U1,177*%
%TO.N,Net-(U1-Pad177)*%
X125042000Y-94168000D03*
%TO.P,U1,178*%
%TO.N,Net-(U1-Pad178)*%
X121962000Y-94168000D03*
%TO.P,U1,179*%
%TO.N,GND*%
X125042000Y-93768000D03*
%TO.P,U1,180*%
X121962000Y-93768000D03*
%TO.P,U1,181*%
%TO.N,Net-(U1-Pad181)*%
X125042000Y-93368000D03*
%TO.P,U1,182*%
%TO.N,Net-(U1-Pad182)*%
X121962000Y-93368000D03*
%TO.P,U1,183*%
%TO.N,Net-(U1-Pad183)*%
X125042000Y-92968000D03*
%TO.P,U1,184*%
%TO.N,Net-(U1-Pad184)*%
X121962000Y-92968000D03*
%TO.P,U1,185*%
%TO.N,GND*%
X125042000Y-92568000D03*
%TO.P,U1,186*%
X121962000Y-92568000D03*
%TO.P,U1,187*%
%TO.N,Net-(U1-Pad187)*%
X125042000Y-92168000D03*
%TO.P,U1,188*%
%TO.N,Net-(U1-Pad188)*%
X121962000Y-92168000D03*
%TO.P,U1,189*%
%TO.N,Net-(U1-Pad189)*%
X125042000Y-91768000D03*
%TO.P,U1,190*%
%TO.N,Net-(U1-Pad190)*%
X121962000Y-91768000D03*
%TO.P,U1,191*%
%TO.N,GND*%
X125042000Y-91368000D03*
%TO.P,U1,192*%
X121962000Y-91368000D03*
%TO.P,U1,193*%
%TO.N,Net-(U1-Pad193)*%
X125042000Y-90968000D03*
%TO.P,U1,194*%
%TO.N,Net-(U1-Pad194)*%
X121962000Y-90968000D03*
%TO.P,U1,195*%
%TO.N,Net-(U1-Pad195)*%
X125042000Y-90568000D03*
%TO.P,U1,196*%
%TO.N,Net-(U1-Pad196)*%
X121962000Y-90568000D03*
%TO.P,U1,197*%
%TO.N,GND*%
X125042000Y-90168000D03*
%TO.P,U1,198*%
X121962000Y-90168000D03*
%TO.P,U1,199*%
%TO.N,Net-(U1-Pad199)*%
X125042000Y-89768000D03*
%TO.P,U1,200*%
%TO.N,Net-(U1-Pad200)*%
X121962000Y-89768000D03*
%TD*%
D11*
%TO.P,A1,10*%
%TO.N,/SBUS*%
X161746000Y-115226000D03*
%TO.P,A1,8*%
%TO.N,Net-(A1-Pad8)*%
X161746000Y-119226000D03*
%TO.P,A1,9*%
%TO.N,Net-(A1-Pad9)*%
X161746000Y-117226000D03*
%TO.P,A1,7*%
%TO.N,Net-(A1-Pad7)*%
X161746000Y-121226000D03*
%TO.P,A1,12*%
%TO.N,Net-(A1-Pad12)*%
X161746000Y-111226000D03*
D12*
%TO.P,A1,6*%
%TO.N,Net-(A1-Pad6)*%
X163656000Y-126256000D03*
%TO.P,A1,4*%
%TO.N,/CH2*%
X168736000Y-126256000D03*
D11*
%TO.P,A1,11*%
%TO.N,Net-(A1-Pad11)*%
X161746000Y-113226000D03*
D12*
%TO.P,A1,2*%
%TO.N,+5V*%
X173816000Y-126256000D03*
D11*
%TO.P,A1,14*%
%TO.N,Net-(A1-Pad14)*%
X161746000Y-107226000D03*
D12*
%TO.P,A1,1*%
%TO.N,GND*%
X176356000Y-126256000D03*
%TO.P,A1,3*%
%TO.N,/CH1*%
X171276000Y-126256000D03*
D11*
%TO.P,A1,13*%
%TO.N,GND*%
X161746000Y-109226000D03*
D12*
%TO.P,A1,5*%
%TO.N,Net-(A1-Pad5)*%
X166196000Y-126256000D03*
%TD*%
D13*
%TO.P,R4,2*%
%TO.N,Net-(R4-Pad2)*%
X132786000Y-72352000D03*
%TO.P,R4,1*%
%TO.N,/D0+*%
X131286000Y-72352000D03*
%TD*%
%TO.P,R2,1*%
%TO.N,/D0-*%
X134316000Y-71590000D03*
%TO.P,R2,2*%
%TO.N,Net-(R2-Pad2)*%
X135816000Y-71590000D03*
%TD*%
D14*
%TO.P,U5,*%
%TO.N,*%
X183694800Y-71261800D03*
X183694800Y-101741800D03*
X211634800Y-101741800D03*
X211634800Y-71261800D03*
D15*
%TO.P,U5,12*%
%TO.N,Net-(J1-Pad4)*%
X196394800Y-101741800D03*
%TO.P,U5,11*%
%TO.N,Net-(J1-Pad3)*%
X193854800Y-101741800D03*
%TO.P,U5,10*%
%TO.N,GND*%
X191314800Y-101741800D03*
%TO.P,U5,9*%
X188774800Y-101741800D03*
%TO.P,U5,13*%
%TO.N,Net-(TP2-Pad1)*%
X198934800Y-101741800D03*
%TO.P,U5,14*%
%TO.N,Net-(TP1-Pad1)*%
X201474800Y-101741800D03*
%TO.P,U5,15*%
%TO.N,+5V*%
X204014800Y-101741800D03*
%TO.P,U5,16*%
%TO.N,Net-(R10-Pad1)*%
X206554800Y-101741800D03*
%TO.P,U5,1*%
%TO.N,Net-(R8-Pad2)*%
X206554800Y-71261800D03*
%TO.P,U5,8*%
%TO.N,/VN-100_CS*%
X188774800Y-71261800D03*
%TO.P,U5,5*%
%TO.N,/VN-100_MISO*%
X196394800Y-71261800D03*
%TO.P,U5,2*%
%TO.N,Net-(R9-Pad2)*%
X204014800Y-71261800D03*
%TO.P,U5,3*%
%TO.N,/VN-100_SCK*%
X201474800Y-71261800D03*
%TO.P,U5,7*%
%TO.N,Net-(U5-Pad7)*%
X191314800Y-71261800D03*
%TO.P,U5,6*%
%TO.N,Net-(R7-Pad1)*%
X193854800Y-71261800D03*
%TO.P,U5,4*%
%TO.N,/VN-100_MOSI*%
X198934800Y-71261800D03*
%TD*%
%TO.P,U3,3*%
%TO.N,Net-(U3-Pad3)*%
X173228000Y-82550000D03*
%TO.P,U3,2*%
%TO.N,Net-(U3-Pad2)*%
X175768000Y-82550000D03*
%TO.P,U3,1*%
%TO.N,Net-(U3-Pad1)*%
X178318000Y-82540000D03*
%TO.P,U3,4*%
%TO.N,GND*%
X170688000Y-82550000D03*
%TO.P,U3,5*%
%TO.N,+5V*%
X168148000Y-82550000D03*
%TO.P,U3,6*%
%TO.N,GND*%
X178318000Y-93230000D03*
%TD*%
D16*
%TO.P,R11,2*%
%TO.N,+3V3*%
X115106000Y-95836000D03*
%TO.P,R11,1*%
%TO.N,Net-(IC1-Pad19)*%
X115106000Y-94336000D03*
%TD*%
D17*
%TO.P,IC1,21*%
%TO.N,+3V3*%
X117203000Y-88041000D03*
%TO.P,IC1,27*%
%TO.N,Net-(IC1-Pad27)*%
X117203000Y-84201000D03*
%TO.P,IC1,14*%
%TO.N,Net-(IC1-Pad14)*%
X111779000Y-91881000D03*
%TO.P,IC1,10*%
%TO.N,/D1-*%
X111779000Y-89321000D03*
%TO.P,IC1,9*%
%TO.N,/D2+*%
X111779000Y-88681000D03*
%TO.P,IC1,26*%
%TO.N,+3V3*%
X117203000Y-84841000D03*
%TO.P,IC1,7*%
%TO.N,/D3+*%
X111779000Y-87401000D03*
%TO.P,IC1,22*%
%TO.N,Net-(IC1-Pad22)*%
X117203000Y-87401000D03*
%TO.P,IC1,19*%
%TO.N,Net-(IC1-Pad19)*%
X117203000Y-89321000D03*
%TO.P,IC1,5*%
%TO.N,/D4+*%
X111779000Y-86121000D03*
%TO.P,IC1,4*%
%TO.N,/D4-*%
X111779000Y-85481000D03*
%TO.P,IC1,2*%
%TO.N,Net-(IC1-Pad2)*%
X111779000Y-84201000D03*
%TO.P,IC1,18*%
%TO.N,+3V3*%
X117203000Y-89961000D03*
%TO.P,IC1,20*%
%TO.N,Net-(C2-Pad2)*%
X117203000Y-88681000D03*
%TO.P,IC1,25*%
%TO.N,Net-(IC1-Pad25)*%
X117203000Y-85481000D03*
%TO.P,IC1,24*%
%TO.N,Net-(IC1-Pad24)*%
X117203000Y-86121000D03*
%TO.P,IC1,13*%
%TO.N,+3V3*%
X111779000Y-91241000D03*
%TO.P,IC1,12*%
%TO.N,+1V8*%
X111779000Y-90601000D03*
%TO.P,IC1,6*%
%TO.N,/D3-*%
X111779000Y-86761000D03*
%TO.P,IC1,28*%
%TO.N,+1V8*%
X117203000Y-83561000D03*
%TO.P,IC1,17*%
%TO.N,Net-(IC1-Pad17)*%
X117203000Y-90601000D03*
%TO.P,IC1,16*%
%TO.N,/D0+*%
X117203000Y-91241000D03*
%TO.P,IC1,15*%
%TO.N,/D0-*%
X117203000Y-91881000D03*
%TO.P,IC1,11*%
%TO.N,/D1+*%
X111779000Y-89961000D03*
%TO.P,IC1,23*%
%TO.N,Net-(IC1-Pad23)*%
X117203000Y-86761000D03*
%TO.P,IC1,8*%
%TO.N,/D2-*%
X111779000Y-88041000D03*
%TO.P,IC1,3*%
%TO.N,Net-(IC1-Pad3)*%
X111779000Y-84841000D03*
%TO.P,IC1,1*%
%TO.N,GND*%
X111779000Y-83561000D03*
%TD*%
D13*
%TO.P,C3,2*%
%TO.N,Net-(C2-Pad2)*%
X113986000Y-101056000D03*
%TO.P,C3,1*%
%TO.N,+5V*%
X112486000Y-101056000D03*
%TD*%
D16*
%TO.P,R15,2*%
%TO.N,+3V3*%
X164916000Y-79736000D03*
%TO.P,R15,1*%
%TO.N,Net-(D1-Pad2)*%
X164916000Y-78236000D03*
%TD*%
D13*
%TO.P,R14,2*%
%TO.N,/ETH_LEDY*%
X115766000Y-108856000D03*
%TO.P,R14,1*%
%TO.N,Net-(J4-Pad12)*%
X114266000Y-108856000D03*
%TD*%
%TO.P,R13,2*%
%TO.N,/ETH_LEDG*%
X115776000Y-107036000D03*
%TO.P,R13,1*%
%TO.N,Net-(J4-Pad13)*%
X114276000Y-107036000D03*
%TD*%
D18*
%TO.P,J4,1*%
%TO.N,/ETH_P0_P*%
X109391000Y-109347000D03*
D19*
%TO.P,J4,2*%
%TO.N,/ETH_P0_N*%
X106851000Y-110617000D03*
%TO.P,J4,3*%
%TO.N,/ETH_P1_P*%
X109391000Y-111887000D03*
%TO.P,J4,4*%
%TO.N,/ETH_P1_N*%
X106851000Y-113157000D03*
%TO.P,J4,5*%
%TO.N,Net-(J4-Pad5)*%
X109391000Y-114427000D03*
%TO.P,J4,6*%
%TO.N,Net-(J4-Pad6)*%
X106851000Y-115697000D03*
%TO.P,J4,7*%
%TO.N,/ETH_P2_P*%
X109391000Y-116967000D03*
%TO.P,J4,8*%
%TO.N,/ETH_P2_N*%
X106851000Y-118237000D03*
D20*
%TO.P,J4,S1*%
%TO.N,GND*%
X103551000Y-122912000D03*
%TO.P,J4,S2*%
X103551000Y-107212000D03*
D21*
%TO.P,J4,11*%
%TO.N,+3V3*%
X96441000Y-108432000D03*
%TO.P,J4,14*%
X96441000Y-121692000D03*
D19*
%TO.P,J4,9*%
%TO.N,/ETH_P3_P*%
X109391000Y-119507000D03*
%TO.P,J4,10*%
%TO.N,/ETH_P3_N*%
X106851000Y-120777000D03*
D21*
%TO.P,J4,12*%
%TO.N,Net-(J4-Pad12)*%
X96441000Y-110972000D03*
%TO.P,J4,13*%
%TO.N,Net-(J4-Pad13)*%
X96441000Y-119152000D03*
%TD*%
D22*
%TO.P,Y1,1*%
%TO.N,Net-(IC1-Pad3)*%
X116606000Y-78702000D03*
%TO.P,Y1,2*%
%TO.N,Net-(IC1-Pad2)*%
X111726000Y-78702000D03*
%TD*%
D13*
%TO.P,R12,2*%
%TO.N,+5V*%
X112496000Y-103716000D03*
%TO.P,R12,1*%
%TO.N,Net-(IC1-Pad17)*%
X113996000Y-103716000D03*
%TD*%
D16*
%TO.P,R6,2*%
%TO.N,GND*%
X111856000Y-95826000D03*
%TO.P,R6,1*%
%TO.N,Net-(IC1-Pad14)*%
X111856000Y-94326000D03*
%TD*%
D23*
%TO.P,J3,1_1*%
%TO.N,+5V*%
X103001000Y-93241000D03*
D24*
%TO.P,J3,2_1*%
%TO.N,/D1-*%
X103001000Y-95741000D03*
%TO.P,J3,3_1*%
%TO.N,/D1+*%
X103001000Y-97741000D03*
%TO.P,J3,4_1*%
%TO.N,GND*%
X103001000Y-100241000D03*
D25*
%TO.P,J3,S1*%
X105971000Y-90171000D03*
X105971000Y-103311000D03*
X100291000Y-90171000D03*
X100291000Y-103311000D03*
D23*
%TO.P,J3,1_2*%
%TO.N,+5V*%
X105621000Y-93241000D03*
D24*
%TO.P,J3,2_2*%
%TO.N,/D2-*%
X105621000Y-95741000D03*
%TO.P,J3,3_2*%
%TO.N,/D2+*%
X105621000Y-97741000D03*
%TO.P,J3,4_2*%
%TO.N,GND*%
X105621000Y-100241000D03*
%TD*%
D16*
%TO.P,C4,2*%
%TO.N,GND*%
X119346000Y-85836000D03*
%TO.P,C4,1*%
%TO.N,+3V3*%
X119346000Y-87336000D03*
%TD*%
D13*
%TO.P,C2,2*%
%TO.N,Net-(C2-Pad2)*%
X113986000Y-98546000D03*
%TO.P,C2,1*%
%TO.N,+5V*%
X112486000Y-98546000D03*
%TD*%
D16*
%TO.P,C1,2*%
%TO.N,GND*%
X119336000Y-83836000D03*
%TO.P,C1,1*%
%TO.N,+1V8*%
X119336000Y-82336000D03*
%TD*%
D23*
%TO.P,J2,1_1*%
%TO.N,+5V*%
X103026000Y-75341000D03*
D24*
%TO.P,J2,2_1*%
%TO.N,/D3-*%
X103026000Y-77841000D03*
%TO.P,J2,3_1*%
%TO.N,/D3+*%
X103026000Y-79841000D03*
%TO.P,J2,4_1*%
%TO.N,GND*%
X103026000Y-82341000D03*
D25*
%TO.P,J2,S1*%
X105996000Y-72271000D03*
X105996000Y-85411000D03*
X100316000Y-72271000D03*
X100316000Y-85411000D03*
D23*
%TO.P,J2,1_2*%
%TO.N,+5V*%
X105646000Y-75341000D03*
D24*
%TO.P,J2,2_2*%
%TO.N,/D4-*%
X105646000Y-77841000D03*
%TO.P,J2,3_2*%
%TO.N,/D4+*%
X105646000Y-79841000D03*
%TO.P,J2,4_2*%
%TO.N,GND*%
X105646000Y-82341000D03*
%TD*%
D13*
%TO.P,R10,2*%
%TO.N,/VN-100_Enable*%
X201242000Y-105880000D03*
%TO.P,R10,1*%
%TO.N,Net-(R10-Pad1)*%
X202742000Y-105880000D03*
%TD*%
%TO.P,R9,2*%
%TO.N,Net-(R9-Pad2)*%
X203962000Y-67236000D03*
%TO.P,R9,1*%
%TO.N,/TX*%
X202462000Y-67236000D03*
%TD*%
%TO.P,R8,2*%
%TO.N,Net-(R8-Pad2)*%
X208916000Y-67186000D03*
%TO.P,R8,1*%
%TO.N,/RX*%
X207416000Y-67186000D03*
%TD*%
%TO.P,R7,2*%
%TO.N,/MCU_Reset*%
X192196000Y-67216000D03*
%TO.P,R7,1*%
%TO.N,Net-(R7-Pad1)*%
X193696000Y-67216000D03*
%TD*%
%TO.P,R5,2*%
%TO.N,/VN-100_CS*%
X188876000Y-67186000D03*
%TO.P,R5,1*%
%TO.N,+3V3*%
X187376000Y-67186000D03*
%TD*%
%TO.P,R3,2*%
%TO.N,/SCL*%
X161656000Y-79536000D03*
%TO.P,R3,1*%
%TO.N,+3V3*%
X163156000Y-79536000D03*
%TD*%
%TO.P,R1,2*%
%TO.N,/SDA*%
X161626000Y-77826000D03*
%TO.P,R1,1*%
%TO.N,+3V3*%
X163126000Y-77826000D03*
%TD*%
D26*
%TO.P,U4,S6*%
%TO.N,N/C*%
X135516000Y-67036000D03*
%TO.P,U4,S5*%
X142666000Y-67036000D03*
D27*
%TO.P,U4,6*%
%TO.N,GND*%
X136771000Y-69266000D03*
X141411000Y-69266000D03*
D28*
X137966000Y-67036000D03*
X140216000Y-67036000D03*
D29*
%TO.P,U4,5*%
%TO.N,+5V*%
X137791000Y-69686000D03*
%TO.P,U4,4*%
%TO.N,Net-(R2-Pad2)*%
X138441000Y-69686000D03*
%TO.P,U4,3*%
%TO.N,Net-(R4-Pad2)*%
X139091000Y-69686000D03*
%TO.P,U4,2*%
%TO.N,Net-(U4-Pad2)*%
X139741000Y-69686000D03*
%TO.P,U4,1*%
%TO.N,GND*%
X140391000Y-69686000D03*
%TD*%
D30*
%TO.P,X1,1*%
%TO.N,GND*%
X163384000Y-70066000D03*
D31*
%TO.P,X1,2*%
%TO.N,+12V*%
X168384000Y-70066000D03*
%TD*%
D30*
%TO.P,X2,1*%
%TO.N,+12V*%
X175830000Y-69946000D03*
D31*
%TO.P,X2,2*%
%TO.N,Net-(U3-Pad3)*%
X175830000Y-74946000D03*
%TD*%
D22*
%TO.P,X3,2*%
%TO.N,+5V*%
X218186000Y-99330000D03*
%TO.P,X3,1*%
%TO.N,GND*%
X218186000Y-97330000D03*
%TO.P,X3,3*%
%TO.N,/SDA*%
X218186000Y-101330000D03*
%TO.P,X3,4*%
%TO.N,/SCL*%
X218186000Y-103330000D03*
%TD*%
D32*
%TO.P,D1,1*%
%TO.N,Net-(D1-Pad1)*%
X166586000Y-79664000D03*
%TO.P,D1,2*%
%TO.N,Net-(D1-Pad2)*%
X166586000Y-78036000D03*
%TD*%
D33*
%TO.P,J1,4*%
%TO.N,Net-(J1-Pad4)*%
X217170000Y-89662000D03*
%TO.P,J1,3*%
%TO.N,Net-(J1-Pad3)*%
X217170000Y-87122000D03*
%TO.P,J1,2*%
%TO.N,+5V*%
X217170000Y-84582000D03*
D34*
%TO.P,J1,1*%
%TO.N,GND*%
X217170000Y-82042000D03*
%TD*%
D14*
%TO.P,U2,*%
%TO.N,*%
X180756000Y-117696000D03*
X210756000Y-127696000D03*
X210756000Y-107696000D03*
%TD*%
D35*
%TO.P,TP2,1*%
%TO.N,Net-(TP2-Pad1)*%
X189666000Y-106626000D03*
%TD*%
%TO.P,TP1,1*%
%TO.N,Net-(TP1-Pad1)*%
X193356000Y-106642000D03*
%TD*%
D34*
%TO.P,J5,1*%
%TO.N,GND*%
X146874000Y-70066000D03*
D33*
%TO.P,J5,2*%
%TO.N,+5V*%
X149414000Y-70066000D03*
%TO.P,J5,3*%
%TO.N,/SCL*%
X151954000Y-70066000D03*
%TO.P,J5,4*%
%TO.N,/SDA*%
X154494000Y-70066000D03*
%TD*%
D34*
%TO.P,J6,1*%
%TO.N,GND*%
X117216000Y-126281000D03*
D33*
%TO.P,J6,2*%
X117216000Y-128821000D03*
%TO.P,J6,3*%
%TO.N,/GPIO28*%
X114676000Y-126281000D03*
%TO.P,J6,4*%
%TO.N,/GPIO27*%
X114676000Y-128821000D03*
%TO.P,J6,5*%
%TO.N,/GPIO4*%
X112136000Y-126281000D03*
%TO.P,J6,6*%
%TO.N,/GPIO22*%
X112136000Y-128821000D03*
%TO.P,J6,7*%
%TO.N,/GPIO13*%
X109596000Y-126281000D03*
%TO.P,J6,8*%
%TO.N,/GPIO3*%
X109596000Y-128821000D03*
%TO.P,J6,9*%
%TO.N,/GPIO26*%
X107056000Y-126281000D03*
%TO.P,J6,10*%
%TO.N,/GPIO19*%
X107056000Y-128821000D03*
%TO.P,J6,11*%
%TO.N,/GPIO5*%
X104516000Y-126281000D03*
%TO.P,J6,12*%
%TO.N,/GPIO6*%
X104516000Y-128821000D03*
%TO.P,J6,13*%
%TO.N,+5V*%
X101976000Y-126281000D03*
%TO.P,J6,14*%
X101976000Y-128821000D03*
%TD*%
D36*
%TO.N,*%
X96266000Y-69596000D03*
X96266000Y-126746000D03*
X216916000Y-126746000D03*
X216916000Y-69596000D03*
D37*
%TO.N,GND*%
X119336000Y-85386000D03*
X119336000Y-84236000D03*
X111776000Y-83186000D03*
X111846000Y-96306000D03*
D38*
X122540320Y-90168000D03*
X122540320Y-91367999D03*
X122540320Y-92567999D03*
X122540320Y-94968001D03*
X122540320Y-96168001D03*
X122540320Y-97367999D03*
X122540320Y-98568000D03*
X122540320Y-100968000D03*
X122540320Y-102167999D03*
X122540320Y-103368000D03*
X122540320Y-104568001D03*
X122540320Y-105768000D03*
X122542104Y-106969366D03*
X122541050Y-108167444D03*
X124457338Y-106972751D03*
X124459762Y-105771023D03*
X124459615Y-104564862D03*
X124463680Y-103368001D03*
X124463680Y-102168001D03*
X124463680Y-98567999D03*
X124463680Y-97367999D03*
X124463680Y-96167999D03*
X124463680Y-94968000D03*
X124463680Y-93768000D03*
X124463680Y-92568001D03*
X124463679Y-91368000D03*
X124463680Y-90168000D03*
X158383680Y-96568000D03*
X158383680Y-97767999D03*
X156693010Y-96572795D03*
D37*
X140216000Y-68216000D03*
X136926000Y-66696000D03*
X136736000Y-70196000D03*
X141426000Y-68326000D03*
X140386000Y-70586000D03*
D38*
X155508665Y-109444279D03*
X156779813Y-108064004D03*
X158956000Y-109656000D03*
X158306000Y-108091000D03*
D37*
%TO.N,+5V*%
X112006000Y-103716000D03*
X111986000Y-98556000D03*
X112066000Y-101046000D03*
D38*
%TO.N,+3V3*%
X115136000Y-96286000D03*
X174366000Y-79606000D03*
X164486000Y-80646000D03*
X169363005Y-80645995D03*
X172006000Y-80646000D03*
%TO.N,/SDA*%
X154668289Y-93288309D03*
D37*
X161256000Y-78556000D03*
X161606000Y-77178000D03*
D38*
%TO.N,/SCL*%
X154606000Y-93946000D03*
D37*
X161166000Y-80216000D03*
X162114000Y-79464000D03*
X162368000Y-76670000D03*
X159828000Y-75654000D03*
D38*
%TO.N,/VN-100_CS*%
X182976000Y-83196000D03*
X179207950Y-86905950D03*
X162056000Y-99285988D03*
D37*
X169636000Y-91746000D03*
D38*
%TO.N,/MCU_Reset*%
X156460320Y-98168001D03*
X186766000Y-82946000D03*
X183044000Y-86678000D03*
X173026000Y-100306000D03*
D37*
%TO.N,/RX*%
X206986000Y-67196000D03*
D38*
X159686000Y-99356000D03*
D37*
%TO.N,/TX*%
X201946000Y-67226000D03*
D38*
X159696000Y-98446000D03*
%TO.N,/VN-100_Enable*%
X157856002Y-102908990D03*
X161126000Y-102908990D03*
X175986000Y-111206000D03*
X164906000Y-110386000D03*
%TO.N,/VN-100_MOSI*%
X156460320Y-100967999D03*
X196996000Y-83376000D03*
%TO.N,/VN-100_MISO*%
X195976000Y-83406000D03*
X154488702Y-100633298D03*
%TO.N,/VN-100_SCK*%
X156460320Y-102167999D03*
X197886000Y-83346000D03*
%TO.N,/CH2*%
X163046000Y-107446000D03*
X166738157Y-110458157D03*
X168146000Y-112536000D03*
%TO.N,/CH1*%
X163145831Y-106681236D03*
X167516000Y-110096000D03*
X168976000Y-112436000D03*
D37*
%TO.N,/D0-*%
X130066000Y-75796000D03*
X133816000Y-71386000D03*
%TO.N,/D0+*%
X128556000Y-75776000D03*
X130776002Y-72146000D03*
%TO.N,Net-(IC1-Pad14)*%
X111796000Y-92366000D03*
%TO.N,Net-(C2-Pad2)*%
X113986000Y-97886000D03*
X116186506Y-88666003D03*
D38*
%TO.N,Net-(D1-Pad1)*%
X158335998Y-90566000D03*
%TO.N,Net-(J4-Pad13)*%
X111816000Y-107036000D03*
X113806000Y-107046000D03*
%TO.N,/ETH_LEDG*%
X154236000Y-106756000D03*
X157386000Y-106696000D03*
%TO.N,/ETH_LEDY*%
X154291669Y-107381346D03*
X157476000Y-107346000D03*
%TO.N,/GPIO26*%
X156559575Y-105081364D03*
X169406000Y-107086000D03*
%TO.N,/GPIO19*%
X157219462Y-104909377D03*
X169956000Y-106546000D03*
%TO.N,/GPIO13*%
X157818890Y-104725450D03*
X170586000Y-106036000D03*
%TO.N,/GPIO6*%
X154929818Y-104844695D03*
X168846000Y-107606000D03*
%TO.N,/GPIO3*%
X155106003Y-96396003D03*
X159786000Y-96936000D03*
%TO.N,/GPIO4*%
X154451877Y-96426011D03*
X160346000Y-96386000D03*
%TO.N,/GPIO28*%
X153786000Y-96456000D03*
X160816000Y-95796000D03*
%TO.N,/GPIO27*%
X153159091Y-96466808D03*
X161356000Y-95186000D03*
%TO.N,/GPIO22*%
X152534231Y-96415025D03*
X161846000Y-94596000D03*
%TO.N,/GPIO5*%
X154336000Y-105176000D03*
X168286000Y-108146000D03*
%TD*%
D39*
%TO.N,GND*%
X119346000Y-85396000D02*
X119336000Y-85386000D01*
X119346000Y-85836000D02*
X119346000Y-85396000D01*
X119336000Y-83836000D02*
X119336000Y-84236000D01*
X111779000Y-83189000D02*
X111776000Y-83186000D01*
X111779000Y-83561000D02*
X111779000Y-83189000D01*
X111856000Y-96296000D02*
X111846000Y-96306000D01*
X111856000Y-95826000D02*
X111856000Y-96296000D01*
X119336000Y-85386000D02*
X119336000Y-84236000D01*
D40*
X121962000Y-90168000D02*
X122540320Y-90168000D01*
X122540319Y-91368000D02*
X122540320Y-91367999D01*
X121962000Y-91368000D02*
X122540319Y-91368000D01*
X122540319Y-92568000D02*
X122540320Y-92567999D01*
X121962000Y-92568000D02*
X122540319Y-92568000D01*
X122540319Y-94968000D02*
X122540320Y-94968001D01*
X121962000Y-94968000D02*
X122540319Y-94968000D01*
X122540319Y-96168000D02*
X122540320Y-96168001D01*
X121962000Y-96168000D02*
X122540319Y-96168000D01*
X122540319Y-97368000D02*
X122540320Y-97367999D01*
X121962000Y-97368000D02*
X122540319Y-97368000D01*
X121962000Y-98568000D02*
X122540320Y-98568000D01*
X121962000Y-100968000D02*
X122540320Y-100968000D01*
X122540319Y-102168000D02*
X122540320Y-102167999D01*
X121962000Y-102168000D02*
X122540319Y-102168000D01*
X121962000Y-103368000D02*
X122540320Y-103368000D01*
X122540319Y-104568000D02*
X122540320Y-104568001D01*
X121962000Y-104568000D02*
X122540319Y-104568000D01*
X121962000Y-105768000D02*
X122540320Y-105768000D01*
X122540738Y-106968000D02*
X122542104Y-106969366D01*
X121962000Y-106968000D02*
X122540738Y-106968000D01*
X122540494Y-108168000D02*
X122541050Y-108167444D01*
X121962000Y-108168000D02*
X122540494Y-108168000D01*
X124462089Y-106968000D02*
X124457338Y-106972751D01*
X125042000Y-106968000D02*
X124462089Y-106968000D01*
X124462785Y-105768000D02*
X124459762Y-105771023D01*
X125042000Y-105768000D02*
X124462785Y-105768000D01*
X124462753Y-104568000D02*
X124459615Y-104564862D01*
X125042000Y-104568000D02*
X124462753Y-104568000D01*
X124463681Y-103368000D02*
X124463680Y-103368001D01*
X125042000Y-103368000D02*
X124463681Y-103368000D01*
X124463681Y-102168000D02*
X124463680Y-102168001D01*
X125042000Y-102168000D02*
X124463681Y-102168000D01*
X124463681Y-98568000D02*
X124463680Y-98567999D01*
X125042000Y-98568000D02*
X124463681Y-98568000D01*
X124463681Y-97368000D02*
X124463680Y-97367999D01*
X125042000Y-97368000D02*
X124463681Y-97368000D01*
X124463681Y-96168000D02*
X124463680Y-96167999D01*
X125042000Y-96168000D02*
X124463681Y-96168000D01*
X125042000Y-94968000D02*
X124463680Y-94968000D01*
X125042000Y-93768000D02*
X124463680Y-93768000D01*
X124463681Y-92568000D02*
X124463680Y-92568001D01*
X125042000Y-92568000D02*
X124463681Y-92568000D01*
X125042000Y-91368000D02*
X124463679Y-91368000D01*
X125042000Y-90168000D02*
X124463680Y-90168000D01*
X158962000Y-96568000D02*
X158383680Y-96568000D01*
X158383681Y-97768000D02*
X158383680Y-97767999D01*
X158962000Y-97768000D02*
X158383681Y-97768000D01*
X155882000Y-96568000D02*
X156688215Y-96568000D01*
X156688215Y-96568000D02*
X156693010Y-96572795D01*
X141411000Y-68341000D02*
X141426000Y-68326000D01*
X141411000Y-69266000D02*
X141411000Y-68341000D01*
X140391000Y-70581000D02*
X140386000Y-70586000D01*
X140391000Y-69686000D02*
X140391000Y-70581000D01*
D41*
X136736000Y-69301000D02*
X136771000Y-69266000D01*
X136736000Y-70196000D02*
X136736000Y-69301000D01*
X137626000Y-66696000D02*
X137966000Y-67036000D01*
X136926000Y-66696000D02*
X137626000Y-66696000D01*
D39*
X140216000Y-68216000D02*
X140216000Y-67036000D01*
D40*
X155584944Y-109368000D02*
X155508665Y-109444279D01*
X155882000Y-109368000D02*
X155584944Y-109368000D01*
X156675817Y-108168000D02*
X156779813Y-108064004D01*
X155882000Y-108168000D02*
X156675817Y-108168000D01*
X158962000Y-109650000D02*
X158956000Y-109656000D01*
X158962000Y-109368000D02*
X158962000Y-109650000D01*
X158383000Y-108168000D02*
X158306000Y-108091000D01*
X158962000Y-108168000D02*
X158383000Y-108168000D01*
D42*
X188774800Y-101741800D02*
X191314800Y-101741800D01*
D39*
%TO.N,+5V*%
X111886000Y-98546000D02*
X111876000Y-98556000D01*
X112006000Y-103716000D02*
X112496000Y-103716000D01*
X111996000Y-98546000D02*
X111986000Y-98556000D01*
X112486000Y-98546000D02*
X111996000Y-98546000D01*
D42*
X103001000Y-93241000D02*
X105621000Y-93241000D01*
X104001000Y-75341000D02*
X105646000Y-75341000D01*
X103026000Y-75341000D02*
X104001000Y-75341000D01*
D39*
X112076000Y-101056000D02*
X112066000Y-101046000D01*
X112486000Y-101056000D02*
X112076000Y-101056000D01*
D40*
X158962000Y-92568000D02*
X158962000Y-92168000D01*
X158962000Y-92968000D02*
X158962000Y-92568000D01*
X158962000Y-93368000D02*
X158962000Y-92968000D01*
X158962000Y-93768000D02*
X158962000Y-93368000D01*
X158962000Y-94168000D02*
X158962000Y-93768000D01*
X159787400Y-94168000D02*
X160189001Y-93766399D01*
X158962000Y-94168000D02*
X159787400Y-94168000D01*
X160187400Y-93768000D02*
X160189001Y-93766399D01*
X158962000Y-93768000D02*
X160187400Y-93768000D01*
X159790602Y-93368000D02*
X160189001Y-93766399D01*
X158962000Y-93368000D02*
X159790602Y-93368000D01*
X159864000Y-92968000D02*
X160189001Y-92642999D01*
X158962000Y-92968000D02*
X159864000Y-92968000D01*
D42*
X160189001Y-91642999D02*
X160189001Y-92642999D01*
D40*
X160114002Y-92568000D02*
X160189001Y-92642999D01*
X158962000Y-92568000D02*
X160114002Y-92568000D01*
X159664000Y-92168000D02*
X160189001Y-91642999D01*
X158962000Y-92168000D02*
X159664000Y-92168000D01*
D42*
X204014800Y-101741800D02*
X204014800Y-100007200D01*
X204014800Y-99067200D02*
X204014800Y-100007200D01*
X98411000Y-75341000D02*
X104001000Y-75341000D01*
X96020000Y-77732000D02*
X96655000Y-77097000D01*
X96655000Y-77097000D02*
X98411000Y-75341000D01*
D39*
X111986000Y-103696000D02*
X112006000Y-103716000D01*
X111986000Y-98556000D02*
X111986000Y-103696000D01*
D42*
X165638000Y-86724000D02*
X168148000Y-84214000D01*
X162748000Y-86724000D02*
X165638000Y-86724000D01*
X160189001Y-89282999D02*
X162748000Y-86724000D01*
X160189001Y-91642999D02*
X160189001Y-89282999D01*
X168148000Y-84214000D02*
X168148000Y-82550000D01*
X107860000Y-75341000D02*
X105646000Y-75341000D01*
X109095000Y-74106000D02*
X107860000Y-75341000D01*
X168148000Y-77128000D02*
X165126000Y-74106000D01*
X168148000Y-82550000D02*
X168148000Y-77128000D01*
D41*
X135947214Y-68263999D02*
X135135213Y-69076000D01*
X137567601Y-68263999D02*
X135947214Y-68263999D01*
X137791000Y-68487398D02*
X137567601Y-68263999D01*
X137791000Y-69686000D02*
X137791000Y-68487398D01*
D42*
X124916000Y-74106000D02*
X109095000Y-74106000D01*
X127542544Y-74106000D02*
X124916000Y-74106000D01*
D41*
X125686000Y-74106000D02*
X124916000Y-74106000D01*
D43*
X130716000Y-69076000D02*
X125686000Y-74106000D01*
X135135213Y-69076000D02*
X130716000Y-69076000D01*
D39*
X96126000Y-97422000D02*
X96126000Y-102626000D01*
D42*
X96126000Y-77626000D02*
X96655000Y-77097000D01*
X96126000Y-102626000D02*
X96126000Y-77626000D01*
X98471000Y-93241000D02*
X96126000Y-95586000D01*
X103001000Y-93241000D02*
X98471000Y-93241000D01*
D43*
X149414000Y-70066000D02*
X149414000Y-71844000D01*
D42*
X151676000Y-74106000D02*
X127542544Y-74106000D01*
D43*
X149414000Y-71844000D02*
X151676000Y-74106000D01*
D42*
X165126000Y-74106000D02*
X151676000Y-74106000D01*
X168148000Y-86724000D02*
X168148000Y-84214000D01*
X168148000Y-88670000D02*
X168148000Y-86724000D01*
X168148000Y-88670000D02*
X168148000Y-86676002D01*
X212348000Y-88296000D02*
X209104000Y-85052000D01*
X212348000Y-96326000D02*
X212348000Y-88296000D01*
X215352000Y-99330000D02*
X212348000Y-96326000D01*
X218186000Y-99330000D02*
X215352000Y-99330000D01*
X204014800Y-88852800D02*
X204014800Y-100007200D01*
X200214000Y-85052000D02*
X204014800Y-88852800D01*
X216700000Y-85052000D02*
X217170000Y-84582000D01*
X200214000Y-85052000D02*
X216700000Y-85052000D01*
X173290000Y-85052000D02*
X200214000Y-85052000D01*
X168148000Y-88670000D02*
X168148000Y-88416000D01*
X171512000Y-85052000D02*
X173290000Y-85052000D01*
X168148000Y-88416000D02*
X171512000Y-85052000D01*
X101976000Y-128821000D02*
X101976000Y-126281000D01*
X100066000Y-123706000D02*
X101976000Y-125616000D01*
X101976000Y-125616000D02*
X101976000Y-126281000D01*
X94266000Y-122431000D02*
X95541000Y-123706000D01*
X95541000Y-123706000D02*
X100066000Y-123706000D01*
X96126000Y-102626000D02*
X94266000Y-104486000D01*
X160189001Y-92642999D02*
X160189001Y-93766399D01*
X168148000Y-97368000D02*
X168148000Y-88670000D01*
X173856000Y-103076000D02*
X168148000Y-97368000D01*
X173856000Y-127036000D02*
X173856000Y-103076000D01*
D39*
X110236000Y-105486000D02*
X96946000Y-105486000D01*
X112006000Y-103716000D02*
X110236000Y-105486000D01*
X96946000Y-105486000D02*
X94266000Y-108166000D01*
D42*
X94266000Y-108166000D02*
X94266000Y-122431000D01*
X94266000Y-104486000D02*
X94266000Y-108166000D01*
D39*
%TO.N,+3V3*%
X117203000Y-84841000D02*
X118111000Y-84841000D01*
X118134102Y-88041000D02*
X118436000Y-87739102D01*
X117203000Y-88041000D02*
X118134102Y-88041000D01*
X118436000Y-87739102D02*
X118436000Y-85086000D01*
X118191000Y-84841000D02*
X118111000Y-84841000D01*
X118436000Y-85086000D02*
X118191000Y-84841000D01*
X119346000Y-87666000D02*
X119346000Y-87336000D01*
X118971000Y-88041000D02*
X119346000Y-87666000D01*
X118134102Y-88041000D02*
X118971000Y-88041000D01*
X117203000Y-88041000D02*
X118711000Y-88041000D01*
X111779000Y-91241000D02*
X112941500Y-91241000D01*
X112941500Y-91241000D02*
X113386000Y-91685500D01*
X113386000Y-91685500D02*
X113386000Y-95376000D01*
X113846000Y-95836000D02*
X113676000Y-95666000D01*
X115106000Y-95836000D02*
X113846000Y-95836000D01*
X113676000Y-95666000D02*
X113836000Y-95826000D01*
X113386000Y-95376000D02*
X113676000Y-95666000D01*
X115556000Y-95836000D02*
X115106000Y-95836000D01*
X116276000Y-95116000D02*
X115556000Y-95836000D01*
X116276000Y-93426000D02*
X116276000Y-95116000D01*
X115426000Y-92576000D02*
X116276000Y-93426000D01*
X115426000Y-90566000D02*
X115426000Y-92576000D01*
X116031000Y-89961000D02*
X115426000Y-90566000D01*
X117203000Y-89961000D02*
X116031000Y-89961000D01*
D40*
X155208000Y-92968000D02*
X155882000Y-92968000D01*
X155882000Y-92568000D02*
X155368000Y-92568000D01*
D39*
X155048000Y-92568000D02*
X154946000Y-92466000D01*
X155368000Y-92568000D02*
X155048000Y-92568000D01*
X115106000Y-96256000D02*
X115136000Y-96286000D01*
X115106000Y-95836000D02*
X115106000Y-96256000D01*
X187366000Y-67196000D02*
X187376000Y-67186000D01*
X186916000Y-67196000D02*
X187366000Y-67196000D01*
X186446000Y-67666000D02*
X186916000Y-67196000D01*
X186446000Y-74146000D02*
X186446000Y-67666000D01*
X118436000Y-89659102D02*
X118436000Y-87739102D01*
X118134102Y-89961000D02*
X118436000Y-89659102D01*
X117203000Y-89961000D02*
X118134102Y-89961000D01*
X180986000Y-79606000D02*
X181111000Y-79481000D01*
X174366000Y-79606000D02*
X180986000Y-79606000D01*
X181111000Y-79481000D02*
X186446000Y-74146000D01*
X180966000Y-79626000D02*
X181111000Y-79481000D01*
X162376002Y-80646000D02*
X164046000Y-80646000D01*
X164046000Y-80646000D02*
X164486000Y-80646000D01*
X164916000Y-80216000D02*
X164486000Y-80646000D01*
X164916000Y-79736000D02*
X164916000Y-80216000D01*
X163126000Y-79506000D02*
X163156000Y-79536000D01*
X163126000Y-77826000D02*
X163126000Y-79506000D01*
X162446000Y-80646000D02*
X162866000Y-80646000D01*
X162376002Y-80646000D02*
X162446000Y-80646000D01*
X162446000Y-80616000D02*
X162446000Y-80646000D01*
X163156000Y-79906000D02*
X162446000Y-80616000D01*
X163156000Y-79536000D02*
X163156000Y-79906000D01*
X172005995Y-80645995D02*
X172006000Y-80646000D01*
X169363005Y-80645995D02*
X172005995Y-80645995D01*
X154748000Y-88274002D02*
X162376002Y-80646000D01*
X154748000Y-92268000D02*
X154748000Y-88274002D01*
X154946000Y-92466000D02*
X154748000Y-92268000D01*
X154748000Y-92508000D02*
X155208000Y-92968000D01*
X154748000Y-92268000D02*
X154748000Y-92508000D01*
D40*
%TO.N,/SDA*%
X155882000Y-93368000D02*
X155854991Y-93395009D01*
X154774989Y-93395009D02*
X154668289Y-93288309D01*
X155854991Y-93395009D02*
X154774989Y-93395009D01*
D39*
X161626000Y-78186000D02*
X161256000Y-78556000D01*
X161626000Y-77826000D02*
X161626000Y-78186000D01*
X161626000Y-77198000D02*
X161606000Y-77178000D01*
X161626000Y-77826000D02*
X161626000Y-77198000D01*
D40*
%TO.N,/SCL*%
X154784000Y-93768000D02*
X154606000Y-93946000D01*
X155882000Y-93768000D02*
X154784000Y-93768000D01*
D39*
X161656000Y-79726000D02*
X161166000Y-80216000D01*
X161656000Y-79536000D02*
X161656000Y-79726000D01*
X162042000Y-79536000D02*
X162114000Y-79464000D01*
X161656000Y-79536000D02*
X162042000Y-79536000D01*
X162368000Y-76670000D02*
X162368000Y-76162000D01*
X161860000Y-75654000D02*
X159828000Y-75654000D01*
X162368000Y-76162000D02*
X161860000Y-75654000D01*
%TO.N,/VN-100_CS*%
X188774800Y-67287200D02*
X188876000Y-67186000D01*
X188774800Y-71261800D02*
X188774800Y-67287200D01*
D40*
X159540323Y-101768000D02*
X159540329Y-101767994D01*
X158962000Y-101768000D02*
X159540323Y-101768000D01*
D39*
X188774800Y-71261800D02*
X188774800Y-77397200D01*
X188774800Y-77397200D02*
X182976000Y-83196000D01*
X159574000Y-101768000D02*
X162056000Y-99286000D01*
X159540323Y-101768000D02*
X159574000Y-101768000D01*
X169646000Y-91746000D02*
X169636000Y-91746000D01*
X174486050Y-86905950D02*
X169646000Y-91746000D01*
X179207950Y-86905950D02*
X174486050Y-86905950D01*
%TO.N,Net-(R7-Pad1)*%
X193696000Y-71103000D02*
X193854800Y-71261800D01*
X193696000Y-67216000D02*
X193696000Y-71103000D01*
%TO.N,/MCU_Reset*%
X190796000Y-67226000D02*
X190066000Y-67956000D01*
X191786000Y-67226000D02*
X190796000Y-67226000D01*
X190066000Y-74746000D02*
X190056000Y-74756000D01*
X190066000Y-67956000D02*
X190066000Y-74746000D01*
X192196000Y-67216000D02*
X191796000Y-67216000D01*
X190066000Y-79646000D02*
X186766000Y-82946000D01*
X190066000Y-74746000D02*
X190066000Y-79646000D01*
D40*
X156460319Y-98168000D02*
X156460320Y-98168001D01*
X155882000Y-98168000D02*
X156460319Y-98168000D01*
D39*
X175026000Y-98306000D02*
X173026000Y-100306000D01*
X175026000Y-94696000D02*
X175026000Y-98306000D01*
X183044000Y-86678000D02*
X175026000Y-94696000D01*
%TO.N,Net-(R8-Pad2)*%
X207830200Y-71261800D02*
X206554800Y-71261800D01*
X208916000Y-70176000D02*
X207830200Y-71261800D01*
X208916000Y-67186000D02*
X208916000Y-70176000D01*
%TO.N,/RX*%
X206996000Y-67186000D02*
X206986000Y-67196000D01*
X207416000Y-67186000D02*
X206996000Y-67186000D01*
D40*
X158962000Y-99368000D02*
X159674000Y-99368000D01*
X159674000Y-99368000D02*
X159686000Y-99356000D01*
D39*
%TO.N,/TX*%
X201956000Y-67236000D02*
X201946000Y-67226000D01*
X202462000Y-67236000D02*
X201956000Y-67236000D01*
D40*
X159574000Y-98568000D02*
X159696000Y-98446000D01*
X158962000Y-98568000D02*
X159574000Y-98568000D01*
D39*
%TO.N,Net-(R9-Pad2)*%
X203962000Y-71209000D02*
X204014800Y-71261800D01*
X203962000Y-67236000D02*
X203962000Y-71209000D01*
D40*
%TO.N,/VN-100_Enable*%
X158412000Y-100168000D02*
X157856002Y-100723998D01*
X158962000Y-100168000D02*
X158412000Y-100168000D01*
X157856002Y-100723998D02*
X157856002Y-102908990D01*
D39*
X201242000Y-105880000D02*
X201242000Y-106730000D01*
X201242000Y-106730000D02*
X196766000Y-111206000D01*
X196766000Y-111206000D02*
X175986000Y-111206000D01*
X161126000Y-102908990D02*
X164906000Y-106688990D01*
X164906000Y-106688990D02*
X164906000Y-110386000D01*
%TO.N,Net-(R10-Pad1)*%
X202742000Y-105880000D02*
X204278000Y-105880000D01*
X206554800Y-103603200D02*
X206554800Y-101741800D01*
X204278000Y-105880000D02*
X206554800Y-103603200D01*
D40*
%TO.N,/VN-100_MOSI*%
X156460319Y-100968000D02*
X156460320Y-100967999D01*
X155882000Y-100968000D02*
X156460319Y-100968000D01*
D39*
X198934800Y-81437200D02*
X196996000Y-83376000D01*
X198934800Y-71261800D02*
X198934800Y-81437200D01*
D40*
%TO.N,/VN-100_MISO*%
X155882000Y-101768000D02*
X155288000Y-101768000D01*
D39*
X197786000Y-81596000D02*
X195976000Y-83406000D01*
X197786000Y-72653000D02*
X197786000Y-81596000D01*
X196394800Y-71261800D02*
X197786000Y-72653000D01*
X154488702Y-101178702D02*
X154488702Y-100633298D01*
X155078000Y-101768000D02*
X154488702Y-101178702D01*
X155288000Y-101768000D02*
X155078000Y-101768000D01*
D40*
%TO.N,/VN-100_SCK*%
X156460319Y-102168000D02*
X156460320Y-102167999D01*
X155882000Y-102168000D02*
X156460319Y-102168000D01*
D39*
X200076000Y-81156000D02*
X197886000Y-83346000D01*
X200076000Y-72660600D02*
X200076000Y-81156000D01*
X201474800Y-71261800D02*
X200076000Y-72660600D01*
D44*
%TO.N,+12V*%
X175710000Y-70066000D02*
X175830000Y-69946000D01*
X168384000Y-70066000D02*
X175710000Y-70066000D01*
D39*
%TO.N,Net-(TP1-Pad1)*%
X193006000Y-106736000D02*
X192906000Y-106636000D01*
X193262000Y-106736000D02*
X193006000Y-106736000D01*
X194372000Y-105626000D02*
X193262000Y-106736000D01*
X201474800Y-102587200D02*
X198436000Y-105626000D01*
X198436000Y-105626000D02*
X194372000Y-105626000D01*
X201474800Y-101741800D02*
X201474800Y-102587200D01*
%TO.N,Net-(TP2-Pad1)*%
X198934800Y-102333200D02*
X198934800Y-101741800D01*
X197674000Y-103594000D02*
X198934800Y-102333200D01*
X192698000Y-103594000D02*
X197674000Y-103594000D01*
X189346000Y-106946000D02*
X192698000Y-103594000D01*
X189038000Y-106638000D02*
X189346000Y-106946000D01*
X189038000Y-106642000D02*
X189038000Y-106638000D01*
D42*
%TO.N,Net-(U3-Pad3)*%
X173228000Y-82550000D02*
X173228000Y-77548000D01*
X173228000Y-77548000D02*
X175830000Y-74946000D01*
D40*
%TO.N,/SBUS*%
X158962000Y-103368000D02*
X159494000Y-103368000D01*
D39*
X163466000Y-115226000D02*
X161746000Y-115226000D01*
X164166000Y-106867441D02*
X164166000Y-114526000D01*
X160666559Y-103368000D02*
X164166000Y-106867441D01*
X164166000Y-114526000D02*
X163466000Y-115226000D01*
X159494000Y-103368000D02*
X160666559Y-103368000D01*
D40*
%TO.N,/CH2*%
X160358000Y-104568000D02*
X163046000Y-107256000D01*
X163046000Y-107256000D02*
X163046000Y-107446000D01*
X158962000Y-104568000D02*
X160358000Y-104568000D01*
X166738157Y-110458157D02*
X166848157Y-110458157D01*
D39*
X168146000Y-111756000D02*
X168146000Y-112536000D01*
X166848157Y-110458157D02*
X168146000Y-111756000D01*
D40*
%TO.N,/CH1*%
X160632595Y-104168000D02*
X163145831Y-106681236D01*
X158962000Y-104168000D02*
X160632595Y-104168000D01*
X167516000Y-110096000D02*
X167546000Y-110096000D01*
D39*
X167546000Y-110096000D02*
X168976000Y-111526000D01*
X168976000Y-111526000D02*
X168976000Y-112436000D01*
%TO.N,Net-(D1-Pad2)*%
X166386000Y-78236000D02*
X166586000Y-78036000D01*
X164916000Y-78236000D02*
X166386000Y-78236000D01*
D40*
%TO.N,/ETH_P3_P*%
X109400000Y-119516000D02*
X109391000Y-119507000D01*
X109825000Y-119507000D02*
X109391000Y-119507000D01*
X158412000Y-108968000D02*
X158962000Y-108968000D01*
X157996570Y-111655430D02*
X157996570Y-109383430D01*
X114771000Y-118736000D02*
X150916000Y-118736000D01*
X114655845Y-118748974D02*
X114771000Y-118736000D01*
X114448344Y-118848902D02*
X114546465Y-118787248D01*
X111966474Y-120578633D02*
X112004748Y-120688013D01*
X157996570Y-109383430D02*
X158412000Y-108968000D01*
X114266474Y-119138345D02*
X114304748Y-119028965D01*
X111953500Y-120463479D02*
X111966474Y-120578633D01*
X112004748Y-120688013D02*
X112066402Y-120786134D01*
X111940525Y-119138345D02*
X111953500Y-119253500D01*
X114253500Y-119253500D02*
X114266474Y-119138345D01*
X114546465Y-118787248D02*
X114655845Y-118748974D01*
X111660534Y-118787248D02*
X111758655Y-118848902D01*
X111902251Y-119028965D02*
X111940525Y-119138345D01*
X112246465Y-120929730D02*
X112355845Y-120968004D01*
X150916000Y-118736000D02*
X157996570Y-111655430D01*
X114366402Y-118930844D02*
X114448344Y-118848902D01*
X111436000Y-118736000D02*
X111551154Y-118748974D01*
X111953500Y-119253500D02*
X111953500Y-120463479D01*
X113960534Y-120929730D02*
X114058655Y-120868076D01*
X111840597Y-118930844D02*
X111902251Y-119028965D01*
X110162000Y-118736000D02*
X111436000Y-118736000D01*
X111758655Y-118848902D02*
X111840597Y-118930844D01*
X114253500Y-120463479D02*
X114253500Y-119253500D01*
X113736000Y-120980979D02*
X113851154Y-120968004D01*
X111551154Y-118748974D02*
X111660534Y-118787248D01*
X112355845Y-120968004D02*
X112471000Y-120980979D01*
X109391000Y-119507000D02*
X110162000Y-118736000D01*
X112066402Y-120786134D02*
X112148344Y-120868076D01*
X114240525Y-120578633D02*
X114253500Y-120463479D01*
X112148344Y-120868076D02*
X112246465Y-120929730D01*
X114140597Y-120786134D02*
X114202251Y-120688013D01*
X112471000Y-120980979D02*
X113736000Y-120980979D01*
X113851154Y-120968004D02*
X113960534Y-120929730D01*
X114058655Y-120868076D02*
X114140597Y-120786134D01*
X114202251Y-120688013D02*
X114240525Y-120578633D01*
X114304748Y-119028965D02*
X114366402Y-118930844D01*
%TO.N,/ETH_P1_P*%
X156340602Y-108968000D02*
X155882000Y-108968000D01*
X156459001Y-109086399D02*
X156340602Y-108968000D01*
X156459001Y-109649601D02*
X156459001Y-109086399D01*
X119666402Y-116661156D02*
X119748344Y-116743098D01*
X117253500Y-116338500D02*
X117253500Y-115173500D01*
X117240525Y-116453655D02*
X117253500Y-116338500D01*
X119846465Y-116804752D02*
X119955845Y-116843026D01*
X117140597Y-116661156D02*
X117202251Y-116563035D01*
X117058655Y-116743098D02*
X117140597Y-116661156D01*
X114156000Y-116856000D02*
X116736000Y-116856000D01*
X116960534Y-116804752D02*
X117058655Y-116743098D01*
X116851154Y-116843026D02*
X116960534Y-116804752D01*
X116736000Y-116856000D02*
X116851154Y-116843026D01*
X117253500Y-115173500D02*
X117266474Y-115058346D01*
X119540525Y-115058346D02*
X119553500Y-115173500D01*
X149252602Y-116856000D02*
X156459001Y-109649601D01*
X109391000Y-112091000D02*
X114156000Y-116856000D01*
X119955845Y-116843026D02*
X120071000Y-116856000D01*
X117266474Y-115058346D02*
X117304748Y-114948966D01*
X119260534Y-114707249D02*
X119358655Y-114768903D01*
X117202251Y-116563035D02*
X117240525Y-116453655D01*
X117448344Y-114768903D02*
X117546465Y-114707249D01*
X119553500Y-115173500D02*
X119553500Y-116338500D01*
X109391000Y-111887000D02*
X109391000Y-112091000D01*
X117304748Y-114948966D02*
X117366402Y-114850845D01*
X119566474Y-116453655D02*
X119604748Y-116563035D01*
X117366402Y-114850845D02*
X117448344Y-114768903D01*
X120071000Y-116856000D02*
X149252602Y-116856000D01*
X117546465Y-114707249D02*
X117655845Y-114668975D01*
X119036000Y-114656000D02*
X119151154Y-114668975D01*
X119748344Y-116743098D02*
X119846465Y-116804752D01*
X117655845Y-114668975D02*
X117771000Y-114656000D01*
X117771000Y-114656000D02*
X119036000Y-114656000D01*
X119151154Y-114668975D02*
X119260534Y-114707249D01*
X119604748Y-116563035D02*
X119666402Y-116661156D01*
X119358655Y-114768903D02*
X119440597Y-114850845D01*
X119440597Y-114850845D02*
X119502251Y-114948966D01*
X119502251Y-114948966D02*
X119540525Y-115058346D01*
X119553500Y-116338500D02*
X119566474Y-116453655D01*
D39*
%TO.N,/ETH_P3_N*%
X106851000Y-120777000D02*
X106767000Y-120777000D01*
D40*
X106851000Y-120777000D02*
X106851000Y-120181000D01*
X106851000Y-120777000D02*
X106851000Y-120401000D01*
X158065960Y-108568000D02*
X158962000Y-108568000D01*
X157546000Y-111506000D02*
X157546000Y-109087960D01*
X150736000Y-118316000D02*
X157546000Y-111506000D01*
X108976000Y-118316000D02*
X150736000Y-118316000D01*
X107554999Y-119737001D02*
X108976000Y-118316000D01*
X157546000Y-109087960D02*
X158065960Y-108568000D01*
X107554999Y-120073001D02*
X107554999Y-119737001D01*
X106851000Y-120777000D02*
X107554999Y-120073001D01*
%TO.N,/ETH_P1_N*%
X156518000Y-108568000D02*
X155882000Y-108568000D01*
X156886000Y-108936000D02*
X156518000Y-108568000D01*
X156886000Y-109846000D02*
X156886000Y-108936000D01*
X149516000Y-117216000D02*
X156886000Y-109846000D01*
X113966000Y-117216000D02*
X149516000Y-117216000D01*
X109907000Y-113157000D02*
X113966000Y-117216000D01*
X106851000Y-113157000D02*
X109907000Y-113157000D01*
%TO.N,/ETH_P2_N*%
X106851000Y-118237000D02*
X106495000Y-118237000D01*
D39*
X106695000Y-118237000D02*
X106851000Y-118237000D01*
D40*
X159739000Y-108155462D02*
X159351538Y-107768000D01*
X152183011Y-119288989D02*
X159739000Y-111733000D01*
X120573011Y-119288989D02*
X152183011Y-119288989D01*
X118264845Y-121411025D02*
X118450975Y-121411025D01*
X159739000Y-111733000D02*
X159739000Y-108155462D01*
X118155465Y-121372751D02*
X118264845Y-121411025D01*
X117975402Y-121229155D02*
X118057344Y-121311097D01*
X117913748Y-121131034D02*
X117975402Y-121229155D01*
X117875474Y-121021654D02*
X117913748Y-121131034D01*
X117862500Y-120906500D02*
X117875474Y-121021654D01*
X117862500Y-119743318D02*
X117862500Y-120906500D01*
X117849525Y-119628163D02*
X117862500Y-119743318D01*
X117811251Y-119518783D02*
X117849525Y-119628163D01*
X108012000Y-121374000D02*
X115268285Y-121374000D01*
X105636000Y-121030000D02*
X106488000Y-121882000D01*
X118450975Y-121411025D02*
X120573011Y-119288989D01*
X115268285Y-121374000D02*
X115269534Y-121372751D01*
X118057344Y-121311097D02*
X118155465Y-121372751D01*
X115855465Y-119277066D02*
X115964845Y-119238792D01*
X105636000Y-120266000D02*
X105636000Y-121030000D01*
X108256000Y-118416000D02*
X107066000Y-119606000D01*
X108256000Y-117896000D02*
X108256000Y-118416000D01*
X107893001Y-117533001D02*
X108256000Y-117896000D01*
X117569534Y-119277066D02*
X117667655Y-119338720D01*
X115613748Y-119518783D02*
X115675402Y-119420662D01*
X107066000Y-119606000D02*
X106296000Y-119606000D01*
X115757344Y-119338720D02*
X115855465Y-119277066D01*
X107554999Y-117533001D02*
X107893001Y-117533001D01*
X117345000Y-119225818D02*
X117460154Y-119238792D01*
X115575474Y-119628163D02*
X115613748Y-119518783D01*
X117460154Y-119238792D02*
X117569534Y-119277066D01*
X107504000Y-121882000D02*
X108012000Y-121374000D01*
X106488000Y-121882000D02*
X107504000Y-121882000D01*
X117667655Y-119338720D02*
X117749597Y-119420662D01*
X106851000Y-118237000D02*
X107554999Y-117533001D01*
X115269534Y-121372751D02*
X115367655Y-121311097D01*
X115367655Y-121311097D02*
X115449597Y-121229155D01*
X115449597Y-121229155D02*
X115511251Y-121131034D01*
X115511251Y-121131034D02*
X115549525Y-121021654D01*
X116080000Y-119225818D02*
X117345000Y-119225818D01*
X115549525Y-121021654D02*
X115562500Y-120906500D01*
X159351538Y-107768000D02*
X158962000Y-107768000D01*
X115562500Y-120906500D02*
X115562500Y-119743318D01*
X115562500Y-119743318D02*
X115575474Y-119628163D01*
X117749597Y-119420662D02*
X117811251Y-119518783D01*
X106296000Y-119606000D02*
X105636000Y-120266000D01*
X115675402Y-119420662D02*
X115757344Y-119338720D01*
X115964845Y-119238792D02*
X116080000Y-119225818D01*
%TO.N,/ETH_P0_N*%
X155882000Y-107768000D02*
X155423398Y-107768000D01*
X155423398Y-107768000D02*
X149535398Y-113656000D01*
X149535398Y-113656000D02*
X112656000Y-113656000D01*
X109617000Y-110617000D02*
X106851000Y-110617000D01*
X112656000Y-113656000D02*
X109617000Y-110617000D01*
%TO.N,/ETH_P2_P*%
X109302000Y-117056000D02*
X109391000Y-116967000D01*
X160156000Y-108110000D02*
X159414000Y-107368000D01*
X160156000Y-111816000D02*
X160156000Y-108110000D01*
X152356000Y-119616000D02*
X160156000Y-111816000D01*
X121016000Y-119616000D02*
X152356000Y-119616000D01*
X108139000Y-121755000D02*
X118877000Y-121755000D01*
X107250000Y-122644000D02*
X108139000Y-121755000D01*
X106297571Y-122644000D02*
X107250000Y-122644000D01*
X104968990Y-121315419D02*
X106297571Y-122644000D01*
X159414000Y-107368000D02*
X158962000Y-107368000D01*
X104968990Y-118563010D02*
X104968990Y-121315419D01*
X106565000Y-116967000D02*
X104968990Y-118563010D01*
X118877000Y-121755000D02*
X121016000Y-119616000D01*
X109391000Y-116967000D02*
X106565000Y-116967000D01*
%TO.N,/ETH_P0_P*%
X155332000Y-107368000D02*
X155882000Y-107368000D01*
X149404000Y-113296000D02*
X155332000Y-107368000D01*
X116481000Y-113296000D02*
X149404000Y-113296000D01*
X116365845Y-113283026D02*
X116481000Y-113296000D01*
X116256465Y-113244752D02*
X116365845Y-113283026D01*
X116158344Y-113183098D02*
X116256465Y-113244752D01*
X116076402Y-113101156D02*
X116158344Y-113183098D01*
X116014748Y-113003035D02*
X116076402Y-113101156D01*
X113676474Y-112333862D02*
X113714748Y-112224482D01*
X109391000Y-109347000D02*
X109391000Y-109881000D01*
X113663500Y-112449016D02*
X113676474Y-112333862D01*
X115768655Y-112044419D02*
X115850597Y-112126361D01*
X113663500Y-112778500D02*
X113663500Y-112449016D01*
X115950525Y-112333862D02*
X115963500Y-112449016D01*
X113650525Y-112893655D02*
X113663500Y-112778500D01*
X113468655Y-113183098D02*
X113550597Y-113101156D01*
X112806000Y-113296000D02*
X113146000Y-113296000D01*
X113370534Y-113244752D02*
X113468655Y-113183098D01*
X113550597Y-113101156D02*
X113612251Y-113003035D01*
X113146000Y-113296000D02*
X113261154Y-113283026D01*
X113612251Y-113003035D02*
X113650525Y-112893655D01*
X115670534Y-111982765D02*
X115768655Y-112044419D01*
X109391000Y-109881000D02*
X112806000Y-113296000D01*
X113261154Y-113283026D02*
X113370534Y-113244752D01*
X113714748Y-112224482D02*
X113776402Y-112126361D01*
X113956465Y-111982765D02*
X114065845Y-111944491D01*
X113776402Y-112126361D02*
X113858344Y-112044419D01*
X113858344Y-112044419D02*
X113956465Y-111982765D01*
X114065845Y-111944491D02*
X114181000Y-111931516D01*
X115963500Y-112778500D02*
X115976474Y-112893655D01*
X114181000Y-111931516D02*
X115446000Y-111931516D01*
X115446000Y-111931516D02*
X115561154Y-111944491D01*
X115561154Y-111944491D02*
X115670534Y-111982765D01*
X115850597Y-112126361D02*
X115912251Y-112224482D01*
X115912251Y-112224482D02*
X115950525Y-112333862D01*
X115963500Y-112449016D02*
X115963500Y-112778500D01*
X115976474Y-112893655D02*
X116014748Y-113003035D01*
%TO.N,Net-(R2-Pad2)*%
X138441000Y-70344602D02*
X138441000Y-69686000D01*
D45*
X138441000Y-70641000D02*
X138441000Y-69686000D01*
X137492000Y-71590000D02*
X138441000Y-70641000D01*
X135816000Y-71590000D02*
X137492000Y-71590000D01*
%TO.N,Net-(R4-Pad2)*%
X139091000Y-70621000D02*
X139091000Y-69686000D01*
X137136000Y-72576000D02*
X139091000Y-70621000D01*
X133010000Y-72576000D02*
X137136000Y-72576000D01*
X132786000Y-72352000D02*
X133010000Y-72576000D01*
D40*
%TO.N,/D0-*%
X125818000Y-108968000D02*
X125956000Y-109106000D01*
X125042000Y-108968000D02*
X125818000Y-108968000D01*
X125042000Y-108968000D02*
X124492000Y-108968000D01*
X124492000Y-108968000D02*
X124286000Y-109174000D01*
D39*
X119061000Y-91881000D02*
X117203000Y-91881000D01*
X124286000Y-109174000D02*
X124250448Y-109174000D01*
X124250448Y-109174000D02*
X122727681Y-110696767D01*
X122727681Y-110696767D02*
X120834319Y-110696767D01*
X120834319Y-110696767D02*
X119566000Y-109428448D01*
X119566000Y-109428448D02*
X119566000Y-92386000D01*
X119566000Y-92386000D02*
X119061000Y-91881000D01*
X129653000Y-106791448D02*
X129653000Y-76209000D01*
X127338448Y-109106000D02*
X129653000Y-106791448D01*
X125956000Y-109106000D02*
X127338448Y-109106000D01*
X130066000Y-75796000D02*
X129653000Y-76209000D01*
X134112000Y-71386000D02*
X133816000Y-71386000D01*
X134316000Y-71590000D02*
X134112000Y-71386000D01*
D40*
%TO.N,/D0+*%
X125824000Y-108568000D02*
X125956000Y-108436000D01*
X125042000Y-108568000D02*
X125824000Y-108568000D01*
X125042000Y-108568000D02*
X124438000Y-108568000D01*
X124438000Y-108568000D02*
X124256000Y-108386000D01*
D39*
X124113552Y-108386000D02*
X124256000Y-108386000D01*
X122456785Y-110042767D02*
X124113552Y-108386000D01*
X121105215Y-110042767D02*
X122456785Y-110042767D01*
X120246000Y-109183552D02*
X121105215Y-110042767D01*
X119331000Y-91241000D02*
X120246000Y-92156000D01*
X120246000Y-92156000D02*
X120246000Y-109183552D01*
X117203000Y-91241000D02*
X119331000Y-91241000D01*
X128999000Y-76219000D02*
X128556000Y-75776000D01*
X128999000Y-106633000D02*
X128999000Y-76219000D01*
X127196000Y-108436000D02*
X128999000Y-106633000D01*
X125956000Y-108436000D02*
X127196000Y-108436000D01*
X131080000Y-72146000D02*
X131286000Y-72352000D01*
X130776002Y-72146000D02*
X131080000Y-72146000D01*
D45*
%TO.N,Net-(IC1-Pad14)*%
X111779000Y-92349000D02*
X111796000Y-92366000D01*
X111779000Y-91881000D02*
X111779000Y-92349000D01*
D39*
X111856000Y-92426000D02*
X111856000Y-94326000D01*
X111796000Y-92366000D02*
X111856000Y-92426000D01*
%TO.N,Net-(IC1-Pad19)*%
X115729357Y-89322643D02*
X115771000Y-89322643D01*
X114696000Y-90356000D02*
X115729357Y-89322643D01*
X114696000Y-93106000D02*
X114696000Y-90356000D01*
X115106000Y-93516000D02*
X114696000Y-93106000D01*
X115106000Y-94336000D02*
X115106000Y-93516000D01*
X115771000Y-89321000D02*
X115785903Y-89335903D01*
X115785903Y-89335903D02*
X117188097Y-89335903D01*
X117188097Y-89335903D02*
X117203000Y-89321000D01*
%TO.N,Net-(IC1-Pad2)*%
X112971000Y-84201000D02*
X111779000Y-84201000D01*
X114216000Y-82956000D02*
X112971000Y-84201000D01*
X114216000Y-80186000D02*
X114216000Y-82956000D01*
X112732000Y-78702000D02*
X114216000Y-80186000D01*
X112060000Y-78702000D02*
X112732000Y-78702000D01*
X111726000Y-79036000D02*
X112060000Y-78702000D01*
%TO.N,Net-(IC1-Pad17)*%
X114846000Y-103716000D02*
X113996000Y-103716000D01*
X117056000Y-93305102D02*
X117056000Y-101506000D01*
X117056000Y-101506000D02*
X114846000Y-103716000D01*
X115996000Y-92245102D02*
X117056000Y-93305102D01*
X115996000Y-90876898D02*
X115996000Y-92245102D01*
X116271898Y-90601000D02*
X115996000Y-90876898D01*
X117203000Y-90601000D02*
X116271898Y-90601000D01*
%TO.N,Net-(IC1-Pad3)*%
X112009000Y-84841000D02*
X111779000Y-84841000D01*
X113201000Y-84841000D02*
X111779000Y-84841000D01*
X114846000Y-80706000D02*
X114846000Y-83196000D01*
X114846000Y-83196000D02*
X113201000Y-84841000D01*
X116606000Y-78946000D02*
X114846000Y-80706000D01*
X116606000Y-78702000D02*
X116606000Y-78946000D01*
%TO.N,+1V8*%
X117203000Y-83561000D02*
X116835000Y-83561000D01*
X116298980Y-83561000D02*
X117203000Y-83561000D01*
X113264990Y-90046112D02*
X113264990Y-86594990D01*
X113264990Y-86594990D02*
X116298980Y-83561000D01*
X112710102Y-90601000D02*
X113264990Y-90046112D01*
X111779000Y-90601000D02*
X112710102Y-90601000D01*
X117203000Y-83561000D02*
X118111000Y-83561000D01*
X119336000Y-82336000D02*
X118566000Y-82336000D01*
X118566000Y-82336000D02*
X118326000Y-82576000D01*
X118326000Y-83346000D02*
X118111000Y-83561000D01*
X118326000Y-82576000D02*
X118326000Y-83346000D01*
%TO.N,Net-(C2-Pad2)*%
X113986000Y-97886000D02*
X113986000Y-98546000D01*
X116201503Y-88681000D02*
X116186506Y-88666003D01*
X117203000Y-88681000D02*
X116201503Y-88681000D01*
X113986000Y-98546000D02*
X113986000Y-101056000D01*
%TO.N,/D1-*%
X103291000Y-95741000D02*
X103001000Y-95741000D01*
X103001000Y-95741000D02*
X103261000Y-95741000D01*
X103001000Y-95741000D02*
X103001000Y-95461000D01*
X110351000Y-89321000D02*
X111779000Y-89321000D01*
X109626000Y-97336000D02*
X109626000Y-90046000D01*
X107846000Y-99116000D02*
X109626000Y-97336000D01*
X105016000Y-99116000D02*
X107846000Y-99116000D01*
X104376000Y-98476000D02*
X105016000Y-99116000D01*
X104376000Y-96036000D02*
X104376000Y-98476000D01*
X103906000Y-95566000D02*
X104376000Y-96036000D01*
X103041000Y-95741000D02*
X103216000Y-95566000D01*
X109626000Y-90046000D02*
X110351000Y-89321000D01*
X103216000Y-95566000D02*
X103906000Y-95566000D01*
X103001000Y-95741000D02*
X103041000Y-95741000D01*
%TO.N,/D2+*%
X110061000Y-88681000D02*
X111779000Y-88681000D01*
X108846000Y-89896000D02*
X110061000Y-88681000D01*
X108846000Y-96366000D02*
X108846000Y-89896000D01*
X107471000Y-97741000D02*
X108846000Y-96366000D01*
X105621000Y-97741000D02*
X107471000Y-97741000D01*
%TO.N,/D3+*%
X111779000Y-87401000D02*
X108961000Y-87401000D01*
X108961000Y-87401000D02*
X108206000Y-86646000D01*
X108206000Y-86646000D02*
X108206000Y-84096000D01*
X108206000Y-84096000D02*
X107506000Y-83396000D01*
X107506000Y-83396000D02*
X104786002Y-83396000D01*
X104786002Y-83396000D02*
X104376000Y-82985998D01*
X104376000Y-82985998D02*
X104376000Y-81716000D01*
X104376000Y-81716000D02*
X103026000Y-80366000D01*
X103026000Y-80366000D02*
X103026000Y-79841000D01*
%TO.N,/D4+*%
X109776000Y-85466000D02*
X110431000Y-86121000D01*
X109776000Y-81376000D02*
X109776000Y-85466000D01*
X107606000Y-79206000D02*
X109776000Y-81376000D01*
X106281000Y-79206000D02*
X107606000Y-79206000D01*
X110431000Y-86121000D02*
X111779000Y-86121000D01*
X105646000Y-79841000D02*
X106281000Y-79206000D01*
%TO.N,/D4-*%
X107151000Y-77841000D02*
X105646000Y-77841000D01*
X110376000Y-81066000D02*
X107151000Y-77841000D01*
X110376000Y-85009102D02*
X110376000Y-81066000D01*
X110847898Y-85481000D02*
X110376000Y-85009102D01*
X111779000Y-85481000D02*
X110847898Y-85481000D01*
%TO.N,/D3-*%
X103026000Y-77841000D02*
X103401000Y-78216000D01*
X103026000Y-77841000D02*
X103481000Y-77841000D01*
X106146000Y-81036000D02*
X104866000Y-81036000D01*
X109076000Y-83966000D02*
X106146000Y-81036000D01*
X109076000Y-86066000D02*
X109076000Y-83966000D01*
X109771000Y-86761000D02*
X109076000Y-86066000D01*
X111779000Y-86761000D02*
X109771000Y-86761000D01*
X103026000Y-77841000D02*
X104406000Y-79221000D01*
X104406000Y-80576000D02*
X104866000Y-81036000D01*
X104406000Y-79221000D02*
X104406000Y-80576000D01*
%TO.N,/D1+*%
X103001000Y-97991000D02*
X103001000Y-97741000D01*
X104276000Y-100778900D02*
X104276000Y-99266000D01*
X104276000Y-99266000D02*
X103001000Y-97991000D01*
X106426000Y-101296000D02*
X104793100Y-101296000D01*
X110206000Y-97516000D02*
X106426000Y-101296000D01*
X110206000Y-90371500D02*
X110206000Y-97516000D01*
X104793100Y-101296000D02*
X104276000Y-100778900D01*
X110616500Y-89961000D02*
X110206000Y-90371500D01*
X111779000Y-89961000D02*
X110616500Y-89961000D01*
%TO.N,/D2-*%
X109801000Y-88041000D02*
X111779000Y-88041000D01*
X108216000Y-95756000D02*
X108216000Y-89626000D01*
X107336000Y-96636000D02*
X108216000Y-95756000D01*
X106326000Y-96636000D02*
X107336000Y-96636000D01*
X108216000Y-89626000D02*
X109801000Y-88041000D01*
X105621000Y-95931000D02*
X106326000Y-96636000D01*
X105621000Y-95741000D02*
X105621000Y-95931000D01*
D40*
%TO.N,Net-(D1-Pad1)*%
X158960000Y-90566000D02*
X158962000Y-90568000D01*
D46*
X161626000Y-82976000D02*
X161056000Y-83546000D01*
D39*
X163266000Y-81336000D02*
X161626000Y-82976000D01*
X166586000Y-79664000D02*
X166586000Y-80816000D01*
X166586000Y-80816000D02*
X166066000Y-81336000D01*
X166066000Y-81336000D02*
X163266000Y-81336000D01*
D40*
X158962000Y-90568000D02*
X158337998Y-90568000D01*
X158337998Y-90568000D02*
X158335998Y-90566000D01*
D39*
X158206000Y-86396000D02*
X161626000Y-82976000D01*
X158206000Y-90436002D02*
X158206000Y-86396000D01*
X158335998Y-90566000D02*
X158206000Y-90436002D01*
%TO.N,Net-(J4-Pad12)*%
X113496000Y-108856000D02*
X114266000Y-108856000D01*
X113056000Y-108416000D02*
X113496000Y-108856000D01*
X112376000Y-106446000D02*
X113056000Y-107126000D01*
X108406000Y-106446000D02*
X112376000Y-106446000D01*
X103126001Y-111725999D02*
X108406000Y-106446000D01*
X97194999Y-111725999D02*
X103126001Y-111725999D01*
X113056000Y-107126000D02*
X113056000Y-108416000D01*
X96441000Y-110972000D02*
X97194999Y-111725999D01*
%TO.N,Net-(J4-Pad13)*%
X111816000Y-107036000D02*
X111816000Y-107036000D01*
X114266000Y-107046000D02*
X114276000Y-107036000D01*
X113806000Y-107046000D02*
X114266000Y-107046000D01*
X96441000Y-119152000D02*
X96790118Y-119152000D01*
X96790118Y-119152000D02*
X108906118Y-107036000D01*
X108906118Y-107036000D02*
X111816000Y-107036000D01*
%TO.N,/ETH_LEDG*%
X152006000Y-106756000D02*
X154236000Y-106756000D01*
X147026000Y-111736000D02*
X152006000Y-106756000D01*
X120476000Y-111736000D02*
X147026000Y-111736000D01*
X115776000Y-107036000D02*
X120476000Y-111736000D01*
D40*
X158962000Y-106168000D02*
X157914000Y-106168000D01*
X157914000Y-106168000D02*
X157386000Y-106696000D01*
D39*
%TO.N,/ETH_LEDY*%
X152350654Y-107381346D02*
X154291669Y-107381346D01*
X147396000Y-112336000D02*
X152350654Y-107381346D01*
X118396000Y-112336000D02*
X147396000Y-112336000D01*
X115766000Y-109706000D02*
X118396000Y-112336000D01*
X115766000Y-108856000D02*
X115766000Y-109706000D01*
D40*
X158962000Y-106568000D02*
X158254000Y-106568000D01*
X158254000Y-106568000D02*
X157476000Y-107346000D01*
%TO.N,/GPIO26*%
X156446211Y-104968000D02*
X156559575Y-105081364D01*
X155882000Y-104968000D02*
X156446211Y-104968000D01*
X107056000Y-125426000D02*
X107056000Y-126281000D01*
X170174970Y-107854970D02*
X170174970Y-115567030D01*
X109403011Y-123078989D02*
X107056000Y-125426000D01*
X121474000Y-121374000D02*
X119769011Y-123078989D01*
X119769011Y-123078989D02*
X109403011Y-123078989D01*
X126793997Y-121374000D02*
X121474000Y-121374000D01*
X129343008Y-123923011D02*
X126793997Y-121374000D01*
X151276529Y-123923011D02*
X129343008Y-123923011D01*
X154513540Y-120686000D02*
X151276529Y-123923011D01*
X163286000Y-122456000D02*
X161606000Y-122456000D01*
X161606000Y-122456000D02*
X159836000Y-120686000D01*
X169406000Y-107086000D02*
X170174970Y-107854970D01*
X159836000Y-120686000D02*
X154513540Y-120686000D01*
X170174970Y-115567030D02*
X163286000Y-122456000D01*
%TO.N,/GPIO19*%
X156878085Y-104568000D02*
X157219462Y-104909377D01*
X155882000Y-104568000D02*
X156878085Y-104568000D01*
X108186000Y-127691000D02*
X107056000Y-128821000D01*
X169956000Y-106546000D02*
X170501980Y-107091980D01*
X108186000Y-125518000D02*
X108186000Y-127691000D01*
X161113011Y-122783011D02*
X159406000Y-121076000D01*
X170501981Y-115702482D02*
X163421452Y-122783011D01*
X126707149Y-121838989D02*
X121560548Y-121838989D01*
X110298000Y-123406000D02*
X108186000Y-125518000D01*
X170501980Y-107091980D02*
X170501981Y-115702482D01*
X163421452Y-122783011D02*
X161113011Y-122783011D01*
X159406000Y-121076000D02*
X154586000Y-121076000D01*
X129164160Y-124296000D02*
X126707149Y-121838989D01*
X154586000Y-121076000D02*
X151366000Y-124296000D01*
X121560548Y-121838989D02*
X119993537Y-123406000D01*
X151366000Y-124296000D02*
X129164160Y-124296000D01*
X119993537Y-123406000D02*
X110298000Y-123406000D01*
%TO.N,/GPIO13*%
X155882000Y-104168000D02*
X157261440Y-104168000D01*
X157261440Y-104168000D02*
X157818890Y-104725450D01*
X170828991Y-106278991D02*
X170586000Y-106036000D01*
X160900022Y-123110022D02*
X163556904Y-123110022D01*
X163556904Y-123110022D02*
X170828991Y-115837934D01*
X170828991Y-115837934D02*
X170828991Y-106278991D01*
X159206000Y-121416000D02*
X160900022Y-123110022D01*
X159206000Y-121416000D02*
X157796000Y-121416000D01*
X159196000Y-121406000D02*
X159206000Y-121416000D01*
X151431080Y-124706000D02*
X154731080Y-121406000D01*
X129111700Y-124706000D02*
X151431080Y-124706000D01*
X126571699Y-122165999D02*
X129111700Y-124706000D01*
X121696000Y-122166000D02*
X126571699Y-122165999D01*
X120123011Y-123738989D02*
X121696000Y-122166000D01*
X111483011Y-123738989D02*
X120123011Y-123738989D01*
X154731080Y-121406000D02*
X159196000Y-121406000D01*
X109596000Y-125626000D02*
X111483011Y-123738989D01*
X109596000Y-126281000D02*
X109596000Y-125626000D01*
%TO.N,/GPIO6*%
X155332000Y-103768000D02*
X154929818Y-104170182D01*
X155882000Y-103768000D02*
X155332000Y-103768000D01*
X154929818Y-104170182D02*
X154929818Y-104844695D01*
X105593001Y-127743999D02*
X104516000Y-128821000D01*
X108991060Y-122751978D02*
X105593001Y-126150037D01*
X119633559Y-122751978D02*
X108991060Y-122751978D01*
X121338548Y-121046989D02*
X119633559Y-122751978D01*
X124808531Y-121046989D02*
X121338548Y-121046989D01*
X126929452Y-121046992D02*
X124808534Y-121046992D01*
X129478460Y-123596000D02*
X126929452Y-121046992D01*
X154406530Y-120326000D02*
X151136530Y-123596000D01*
X169847960Y-113764040D02*
X163286000Y-120326000D01*
X163286000Y-120326000D02*
X154406530Y-120326000D01*
X169847960Y-108607960D02*
X169847960Y-113764040D01*
X151136530Y-123596000D02*
X129478460Y-123596000D01*
X168846000Y-107606000D02*
X169847960Y-108607960D01*
X105593001Y-126150037D02*
X105593001Y-127743999D01*
X124808534Y-121046992D02*
X124808531Y-121046989D01*
%TO.N,/GPIO3*%
X154986000Y-98306000D02*
X154986000Y-96516006D01*
X155248000Y-98568000D02*
X154986000Y-98306000D01*
X154986000Y-96516006D02*
X155106003Y-96396003D01*
X155882000Y-98568000D02*
X155248000Y-98568000D01*
X171156001Y-105666001D02*
X162426000Y-96936000D01*
X171156001Y-115976004D02*
X171156001Y-105666001D01*
X109596000Y-128821000D02*
X110806000Y-127611000D01*
X112432000Y-124066000D02*
X120306000Y-124066000D01*
X120306000Y-124066000D02*
X121806000Y-122566000D01*
X162426000Y-96936000D02*
X159786000Y-96936000D01*
X110806000Y-127611000D02*
X110806000Y-125692000D01*
X110806000Y-125692000D02*
X112432000Y-124066000D01*
X129039240Y-125096000D02*
X151503540Y-125096000D01*
X121806000Y-122566000D02*
X126509240Y-122566000D01*
X151503540Y-125096000D02*
X154790548Y-121808992D01*
X126509240Y-122566000D02*
X129039240Y-125096000D01*
X154790548Y-121808992D02*
X158928992Y-121808992D01*
X163616005Y-123516000D02*
X171156001Y-115976004D01*
X158928992Y-121808992D02*
X160636000Y-123516000D01*
X160636000Y-123516000D02*
X163616005Y-123516000D01*
%TO.N,/GPIO4*%
X154451877Y-98241877D02*
X154451877Y-96426011D01*
X155178000Y-98968000D02*
X154451877Y-98241877D01*
X155882000Y-98968000D02*
X155178000Y-98968000D01*
X121988990Y-122893010D02*
X126033010Y-122893010D01*
X120466000Y-124416000D02*
X121988990Y-122893010D01*
X114001000Y-124416000D02*
X120466000Y-124416000D01*
X112136000Y-126281000D02*
X114001000Y-124416000D01*
X162396000Y-96386000D02*
X160346000Y-96386000D01*
X171506000Y-116146000D02*
X171506000Y-105496000D01*
X163796000Y-123856000D02*
X171506000Y-116146000D01*
X158716000Y-122136000D02*
X160436000Y-123856000D01*
X171506000Y-105496000D02*
X162396000Y-96386000D01*
X151786000Y-125456000D02*
X155106000Y-122136000D01*
X155106000Y-122136000D02*
X158716000Y-122136000D01*
X128896000Y-125456000D02*
X151786000Y-125456000D01*
X126333010Y-122893010D02*
X128896000Y-125456000D01*
X160436000Y-123856000D02*
X163796000Y-123856000D01*
X126033010Y-122893010D02*
X126333010Y-122893010D01*
%TO.N,/GPIO28*%
X153786000Y-98136000D02*
X153786000Y-96456000D01*
X155418000Y-99768000D02*
X153786000Y-98136000D01*
X155882000Y-99768000D02*
X155418000Y-99768000D01*
X114676000Y-126281000D02*
X114676000Y-126566000D01*
X158443539Y-122476000D02*
X155446000Y-122476000D01*
X160816000Y-95796000D02*
X162276000Y-95796000D01*
X162276000Y-95796000D02*
X171833011Y-105353011D01*
X171833011Y-105353011D02*
X171833011Y-116328989D01*
X122449999Y-129218001D02*
X120589999Y-127358001D01*
X115753001Y-127358001D02*
X114676000Y-126281000D01*
X171833011Y-116328989D02*
X163956000Y-124206000D01*
X163956000Y-124206000D02*
X160173539Y-124206000D01*
X155446000Y-122476000D02*
X152116000Y-125806000D01*
X128886002Y-125806000D02*
X125474001Y-129218001D01*
X160173539Y-124206000D02*
X158443539Y-122476000D01*
X152116000Y-125806000D02*
X128886002Y-125806000D01*
X125474001Y-129218001D02*
X122449999Y-129218001D01*
X120589999Y-127358001D02*
X115753001Y-127358001D01*
%TO.N,/GPIO27*%
X153159091Y-98059091D02*
X153159091Y-96466808D01*
X155268000Y-100168000D02*
X153159091Y-98059091D01*
X155882000Y-100168000D02*
X155268000Y-100168000D01*
X115781000Y-127716000D02*
X114676000Y-128821000D01*
X122025011Y-129545011D02*
X120196000Y-127716000D01*
X161356000Y-95186000D02*
X162128463Y-95186000D01*
X164130400Y-124548989D02*
X162603011Y-124548989D01*
X162128463Y-95186000D02*
X172160022Y-105217559D01*
X172160022Y-105217559D02*
X172160022Y-116519367D01*
X172160022Y-116519367D02*
X164130400Y-124548989D01*
X158773011Y-129328989D02*
X155328990Y-129328989D01*
X152166001Y-126166000D02*
X129136000Y-126166000D01*
X162603011Y-124548989D02*
X160886000Y-126266000D01*
X125756989Y-129545011D02*
X122025011Y-129545011D01*
X120196000Y-127716000D02*
X115781000Y-127716000D01*
X160886000Y-126266000D02*
X160886000Y-127216000D01*
X160886000Y-127216000D02*
X158773011Y-129328989D01*
X155328990Y-129328989D02*
X152166001Y-126166000D01*
X129136000Y-126166000D02*
X125756989Y-129545011D01*
%TO.N,/GPIO22*%
X152534231Y-98004231D02*
X152534231Y-96415025D01*
X155098000Y-100568000D02*
X152534231Y-98004231D01*
X155882000Y-100568000D02*
X155098000Y-100568000D01*
X113241000Y-129926000D02*
X112136000Y-128821000D01*
X161846000Y-94596000D02*
X162199553Y-94596000D01*
X125948461Y-129926000D02*
X113241000Y-129926000D01*
X161366000Y-126356000D02*
X161366000Y-127376000D01*
X172487033Y-104883480D02*
X172487033Y-116654819D01*
X172487033Y-116654819D02*
X164265852Y-124876000D01*
X162846000Y-124876000D02*
X161366000Y-126356000D01*
X164265852Y-124876000D02*
X162846000Y-124876000D01*
X161366000Y-127376000D02*
X159086000Y-129656000D01*
X152133539Y-126596000D02*
X129278461Y-126596000D01*
X162199553Y-94596000D02*
X172487033Y-104883480D01*
X159086000Y-129656000D02*
X155193538Y-129655999D01*
X155193538Y-129655999D02*
X152133539Y-126596000D01*
X129278461Y-126596000D02*
X125948461Y-129926000D01*
%TO.N,/GPIO5*%
X154336000Y-103964000D02*
X154336000Y-105176000D01*
X155882000Y-102968000D02*
X155332000Y-102968000D01*
X155332000Y-102968000D02*
X154336000Y-103964000D01*
X169520950Y-109380950D02*
X168286000Y-108146000D01*
X104516000Y-126281000D02*
X108407000Y-122390000D01*
X127119979Y-120729979D02*
X129556000Y-123166000D01*
X108407000Y-122390000D02*
X119533075Y-122390000D01*
X129556000Y-123166000D02*
X151104070Y-123166000D01*
X119533075Y-122390000D02*
X121203097Y-120719979D01*
X121203097Y-120719979D02*
X127119979Y-120719979D01*
X127119979Y-120719979D02*
X127119979Y-120729979D01*
X169520950Y-113451050D02*
X169520950Y-109380950D01*
X151104070Y-123166000D02*
X154271078Y-119998992D01*
X154271078Y-119998992D02*
X159363008Y-119998992D01*
X159363008Y-119998992D02*
X161076000Y-118286000D01*
X161076000Y-118286000D02*
X164686000Y-118286000D01*
X164686000Y-118286000D02*
X169520950Y-113451050D01*
%TD*%
M02*
