%TF.GenerationSoftware,KiCad,Pcbnew,(5.1.9)-1*%
%TF.CreationDate,2021-12-11T15:02:24-08:00*%
%TF.ProjectId,DevelopmentBoard,44657665-6c6f-4706-9d65-6e74426f6172,rev?*%
%TF.SameCoordinates,Original*%
%TF.FileFunction,Paste,Top*%
%TF.FilePolarity,Positive*%
%FSLAX46Y46*%
G04 Gerber Fmt 4.6, Leading zero omitted, Abs format (unit mm)*
G04 Created by KiCad (PCBNEW (5.1.9)-1) date 2021-12-11 15:02:24*
%MOMM*%
%LPD*%
G01*
G04 APERTURE LIST*
%ADD10R,0.700000X0.200000*%
%ADD11R,0.600000X0.900000*%
%ADD12R,0.900000X0.600000*%
%ADD13R,1.525000X0.440000*%
%ADD14R,1.150000X1.450000*%
%ADD15R,1.750000X1.900000*%
%ADD16R,0.400000X1.400000*%
G04 APERTURE END LIST*
D10*
%TO.C,U1*%
X158962000Y-109368000D03*
X155882000Y-109368000D03*
X158962000Y-108968000D03*
X155882000Y-108968000D03*
X158962000Y-108568000D03*
X155882000Y-108568000D03*
X158962000Y-108168000D03*
X155882000Y-108168000D03*
X158962000Y-107768000D03*
X155882000Y-107768000D03*
X158962000Y-107368000D03*
X155882000Y-107368000D03*
X158962000Y-106968000D03*
X155882000Y-106968000D03*
X158962000Y-106568000D03*
X155882000Y-106568000D03*
X158962000Y-106168000D03*
X155882000Y-106168000D03*
X158962000Y-105768000D03*
X155882000Y-105768000D03*
X158962000Y-105368000D03*
X155882000Y-105368000D03*
X158962000Y-104968000D03*
X155882000Y-104968000D03*
X158962000Y-104568000D03*
X155882000Y-104568000D03*
X158962000Y-104168000D03*
X155882000Y-104168000D03*
X158962000Y-103768000D03*
X155882000Y-103768000D03*
X158962000Y-103368000D03*
X155882000Y-103368000D03*
X158962000Y-102968000D03*
X155882000Y-102968000D03*
X158962000Y-102568000D03*
X155882000Y-102568000D03*
X158962000Y-102168000D03*
X155882000Y-102168000D03*
X158962000Y-101768000D03*
X155882000Y-101768000D03*
X158962000Y-101368000D03*
X155882000Y-101368000D03*
X158962000Y-100968000D03*
X155882000Y-100968000D03*
X158962000Y-100568000D03*
X155882000Y-100568000D03*
X158962000Y-100168000D03*
X155882000Y-100168000D03*
X158962000Y-99768000D03*
X155882000Y-99768000D03*
X158962000Y-99368000D03*
X155882000Y-99368000D03*
X158962000Y-98968000D03*
X155882000Y-98968000D03*
X158962000Y-98568000D03*
X155882000Y-98568000D03*
X158962000Y-98168000D03*
X155882000Y-98168000D03*
X158962000Y-97768000D03*
X155882000Y-97768000D03*
X158962000Y-97368000D03*
X155882000Y-97368000D03*
X158962000Y-96968000D03*
X155882000Y-96968000D03*
X158962000Y-96568000D03*
X155882000Y-96568000D03*
X158962000Y-96168000D03*
X155882000Y-96168000D03*
X158962000Y-95768000D03*
X155882000Y-95768000D03*
X158962000Y-95368000D03*
X155882000Y-95368000D03*
X158962000Y-94968000D03*
X155882000Y-94968000D03*
X158962000Y-94568000D03*
X155882000Y-94568000D03*
X158962000Y-94168000D03*
X155882000Y-94168000D03*
X158962000Y-93768000D03*
X155882000Y-93768000D03*
X158962000Y-93368000D03*
X155882000Y-93368000D03*
X158962000Y-92968000D03*
X155882000Y-92968000D03*
X158962000Y-92568000D03*
X155882000Y-92568000D03*
X158962000Y-92168000D03*
X155882000Y-92168000D03*
X158962000Y-91768000D03*
X155882000Y-91768000D03*
X158962000Y-91368000D03*
X155882000Y-91368000D03*
X158962000Y-90968000D03*
X155882000Y-90968000D03*
X158962000Y-90568000D03*
X155882000Y-90568000D03*
X158962000Y-90168000D03*
X155882000Y-90168000D03*
X158962000Y-89768000D03*
X155882000Y-89768000D03*
X125042000Y-109368000D03*
X121962000Y-109368000D03*
X125042000Y-108968000D03*
X121962000Y-108968000D03*
X125042000Y-108568000D03*
X121962000Y-108568000D03*
X125042000Y-108168000D03*
X121962000Y-108168000D03*
X125042000Y-107768000D03*
X121962000Y-107768000D03*
X125042000Y-107368000D03*
X121962000Y-107368000D03*
X125042000Y-106968000D03*
X121962000Y-106968000D03*
X125042000Y-106568000D03*
X121962000Y-106568000D03*
X125042000Y-106168000D03*
X121962000Y-106168000D03*
X125042000Y-105768000D03*
X121962000Y-105768000D03*
X125042000Y-105368000D03*
X121962000Y-105368000D03*
X125042000Y-104968000D03*
X121962000Y-104968000D03*
X125042000Y-104568000D03*
X121962000Y-104568000D03*
X125042000Y-104168000D03*
X121962000Y-104168000D03*
X125042000Y-103768000D03*
X121962000Y-103768000D03*
X125042000Y-103368000D03*
X121962000Y-103368000D03*
X125042000Y-102968000D03*
X121962000Y-102968000D03*
X125042000Y-102568000D03*
X121962000Y-102568000D03*
X125042000Y-102168000D03*
X121962000Y-102168000D03*
X125042000Y-101768000D03*
X121962000Y-101768000D03*
X125042000Y-101368000D03*
X121962000Y-101368000D03*
X125042000Y-100968000D03*
X121962000Y-100968000D03*
X125042000Y-100568000D03*
X121962000Y-100568000D03*
X125042000Y-100168000D03*
X121962000Y-100168000D03*
X125042000Y-99768000D03*
X121962000Y-99768000D03*
X125042000Y-99368000D03*
X121962000Y-99368000D03*
X125042000Y-98968000D03*
X121962000Y-98968000D03*
X125042000Y-98568000D03*
X121962000Y-98568000D03*
X125042000Y-98168000D03*
X121962000Y-98168000D03*
X125042000Y-97768000D03*
X121962000Y-97768000D03*
X125042000Y-97368000D03*
X121962000Y-97368000D03*
X125042000Y-96968000D03*
X121962000Y-96968000D03*
X125042000Y-96568000D03*
X121962000Y-96568000D03*
X125042000Y-96168000D03*
X121962000Y-96168000D03*
X125042000Y-95768000D03*
X121962000Y-95768000D03*
X125042000Y-95368000D03*
X121962000Y-95368000D03*
X125042000Y-94968000D03*
X121962000Y-94968000D03*
X125042000Y-94568000D03*
X121962000Y-94568000D03*
X125042000Y-94168000D03*
X121962000Y-94168000D03*
X125042000Y-93768000D03*
X121962000Y-93768000D03*
X125042000Y-93368000D03*
X121962000Y-93368000D03*
X125042000Y-92968000D03*
X121962000Y-92968000D03*
X125042000Y-92568000D03*
X121962000Y-92568000D03*
X125042000Y-92168000D03*
X121962000Y-92168000D03*
X125042000Y-91768000D03*
X121962000Y-91768000D03*
X125042000Y-91368000D03*
X121962000Y-91368000D03*
X125042000Y-90968000D03*
X121962000Y-90968000D03*
X125042000Y-90568000D03*
X121962000Y-90568000D03*
X125042000Y-90168000D03*
X121962000Y-90168000D03*
X125042000Y-89768000D03*
X121962000Y-89768000D03*
%TD*%
D11*
%TO.C,R4*%
X132786000Y-72352000D03*
X131286000Y-72352000D03*
%TD*%
%TO.C,R2*%
X134316000Y-71590000D03*
X135816000Y-71590000D03*
%TD*%
D12*
%TO.C,R11*%
X115106000Y-95836000D03*
X115106000Y-94336000D03*
%TD*%
D13*
%TO.C,IC1*%
X117203000Y-88041000D03*
X117203000Y-84201000D03*
X111779000Y-91881000D03*
X111779000Y-89321000D03*
X111779000Y-88681000D03*
X117203000Y-84841000D03*
X111779000Y-87401000D03*
X117203000Y-87401000D03*
X117203000Y-89321000D03*
X111779000Y-86121000D03*
X111779000Y-85481000D03*
X111779000Y-84201000D03*
X117203000Y-89961000D03*
X117203000Y-88681000D03*
X117203000Y-85481000D03*
X117203000Y-86121000D03*
X111779000Y-91241000D03*
X111779000Y-90601000D03*
X111779000Y-86761000D03*
X117203000Y-83561000D03*
X117203000Y-90601000D03*
X117203000Y-91241000D03*
X117203000Y-91881000D03*
X111779000Y-89961000D03*
X117203000Y-86761000D03*
X111779000Y-88041000D03*
X111779000Y-84841000D03*
X111779000Y-83561000D03*
%TD*%
D11*
%TO.C,C3*%
X113986000Y-101056000D03*
X112486000Y-101056000D03*
%TD*%
D12*
%TO.C,R15*%
X164916000Y-79736000D03*
X164916000Y-78236000D03*
%TD*%
D11*
%TO.C,R14*%
X115766000Y-108856000D03*
X114266000Y-108856000D03*
%TD*%
%TO.C,R13*%
X115776000Y-107036000D03*
X114276000Y-107036000D03*
%TD*%
%TO.C,R12*%
X112496000Y-103716000D03*
X113996000Y-103716000D03*
%TD*%
D12*
%TO.C,R6*%
X111856000Y-95826000D03*
X111856000Y-94326000D03*
%TD*%
%TO.C,C4*%
X119346000Y-85836000D03*
X119346000Y-87336000D03*
%TD*%
D11*
%TO.C,C2*%
X113986000Y-98546000D03*
X112486000Y-98546000D03*
%TD*%
D12*
%TO.C,C1*%
X119336000Y-83836000D03*
X119336000Y-82336000D03*
%TD*%
D11*
%TO.C,R10*%
X201242000Y-105880000D03*
X202742000Y-105880000D03*
%TD*%
%TO.C,R9*%
X203962000Y-67236000D03*
X202462000Y-67236000D03*
%TD*%
%TO.C,R8*%
X208916000Y-67186000D03*
X207416000Y-67186000D03*
%TD*%
%TO.C,R7*%
X192196000Y-67216000D03*
X193696000Y-67216000D03*
%TD*%
%TO.C,R5*%
X188876000Y-67186000D03*
X187376000Y-67186000D03*
%TD*%
%TO.C,R3*%
X161656000Y-79536000D03*
X163156000Y-79536000D03*
%TD*%
%TO.C,R1*%
X161626000Y-77826000D03*
X163126000Y-77826000D03*
%TD*%
D14*
%TO.C,U4*%
X136771000Y-69266000D03*
X141411000Y-69266000D03*
D15*
X137966000Y-67036000D03*
X140216000Y-67036000D03*
D16*
X137791000Y-69686000D03*
X138441000Y-69686000D03*
X139091000Y-69686000D03*
X139741000Y-69686000D03*
X140391000Y-69686000D03*
%TD*%
M02*
