%TF.GenerationSoftware,KiCad,Pcbnew,(5.1.9)-1*%
%TF.CreationDate,2021-12-11T15:02:24-08:00*%
%TF.ProjectId,DevelopmentBoard,44657665-6c6f-4706-9d65-6e74426f6172,rev?*%
%TF.SameCoordinates,Original*%
%TF.FileFunction,Soldermask,Bot*%
%TF.FilePolarity,Negative*%
%FSLAX46Y46*%
G04 Gerber Fmt 4.6, Leading zero omitted, Abs format (unit mm)*
G04 Created by KiCad (PCBNEW (5.1.9)-1) date 2021-12-11 15:02:24*
%MOMM*%
%LPD*%
G01*
G04 APERTURE LIST*
%ADD10C,6.100000*%
%ADD11O,1.000000X1.270000*%
%ADD12C,1.900000*%
%ADD13C,4.000000*%
%ADD14C,1.524000*%
%ADD15C,3.000000*%
%ADD16R,1.408000X1.408000*%
%ADD17C,1.408000*%
%ADD18C,3.200000*%
%ADD19C,2.550000*%
%ADD20C,1.508000*%
%ADD21C,1.500000*%
%ADD22R,1.428000X1.428000*%
%ADD23C,1.428000*%
%ADD24C,3.316000*%
%ADD25O,1.050000X2.100000*%
%ADD26R,3.800000X3.800000*%
%ADD27C,3.800000*%
%ADD28R,0.930000X0.890000*%
%ADD29O,1.700000X1.700000*%
%ADD30R,1.700000X1.700000*%
G04 APERTURE END LIST*
D10*
%TO.C,U1*%
X156962000Y-126068000D03*
X123962000Y-78068000D03*
X156962000Y-78068000D03*
X123962000Y-126068000D03*
%TD*%
D11*
%TO.C,A1*%
X161746000Y-115226000D03*
X161746000Y-119226000D03*
X161746000Y-117226000D03*
X161746000Y-121226000D03*
X161746000Y-111226000D03*
D12*
X163656000Y-126256000D03*
X168736000Y-126256000D03*
D11*
X161746000Y-113226000D03*
D12*
X173816000Y-126256000D03*
D11*
X161746000Y-107226000D03*
D12*
X176356000Y-126256000D03*
X171276000Y-126256000D03*
D11*
X161746000Y-109226000D03*
D12*
X166196000Y-126256000D03*
%TD*%
D13*
%TO.C,U5*%
X183694800Y-71261800D03*
X183694800Y-101741800D03*
X211634800Y-101741800D03*
X211634800Y-71261800D03*
D14*
X196394800Y-101741800D03*
X193854800Y-101741800D03*
X191314800Y-101741800D03*
X188774800Y-101741800D03*
X198934800Y-101741800D03*
X201474800Y-101741800D03*
X204014800Y-101741800D03*
X206554800Y-101741800D03*
X206554800Y-71261800D03*
X188774800Y-71261800D03*
X196394800Y-71261800D03*
X204014800Y-71261800D03*
X201474800Y-71261800D03*
X191314800Y-71261800D03*
X193854800Y-71261800D03*
X198934800Y-71261800D03*
%TD*%
D15*
%TO.C,U3*%
X164088000Y-83570000D03*
D14*
X173228000Y-82550000D03*
X175768000Y-82550000D03*
X178318000Y-82540000D03*
X170688000Y-82550000D03*
X168148000Y-82550000D03*
D15*
X177288000Y-96770000D03*
D14*
X178318000Y-93230000D03*
%TD*%
D16*
%TO.C,J4*%
X109391000Y-109347000D03*
D17*
X106851000Y-110617000D03*
X109391000Y-111887000D03*
X106851000Y-113157000D03*
X109391000Y-114427000D03*
X106851000Y-115697000D03*
X109391000Y-116967000D03*
X106851000Y-118237000D03*
D18*
X100501000Y-109347000D03*
X100501000Y-120777000D03*
D19*
X103551000Y-122912000D03*
X103551000Y-107212000D03*
D20*
X96441000Y-108432000D03*
X96441000Y-121692000D03*
D17*
X109391000Y-119507000D03*
X106851000Y-120777000D03*
D20*
X96441000Y-110972000D03*
X96441000Y-119152000D03*
%TD*%
D21*
%TO.C,Y1*%
X116606000Y-78702000D03*
X111726000Y-78702000D03*
%TD*%
D22*
%TO.C,J3*%
X103001000Y-93241000D03*
D23*
X103001000Y-95741000D03*
X103001000Y-97741000D03*
X103001000Y-100241000D03*
D24*
X105971000Y-90171000D03*
X105971000Y-103311000D03*
X100291000Y-90171000D03*
X100291000Y-103311000D03*
D22*
X105621000Y-93241000D03*
D23*
X105621000Y-95741000D03*
X105621000Y-97741000D03*
X105621000Y-100241000D03*
%TD*%
D22*
%TO.C,J2*%
X103026000Y-75341000D03*
D23*
X103026000Y-77841000D03*
X103026000Y-79841000D03*
X103026000Y-82341000D03*
D24*
X105996000Y-72271000D03*
X105996000Y-85411000D03*
X100316000Y-72271000D03*
X100316000Y-85411000D03*
D22*
X105646000Y-75341000D03*
D23*
X105646000Y-77841000D03*
X105646000Y-79841000D03*
X105646000Y-82341000D03*
%TD*%
D25*
%TO.C,U4*%
X135516000Y-67036000D03*
X142666000Y-67036000D03*
%TD*%
D26*
%TO.C,X1*%
X163384000Y-70066000D03*
D27*
X168384000Y-70066000D03*
%TD*%
D26*
%TO.C,X2*%
X175830000Y-69946000D03*
D27*
X175830000Y-74946000D03*
%TD*%
D21*
%TO.C,X3*%
X218186000Y-99330000D03*
X218186000Y-97330000D03*
X218186000Y-101330000D03*
X218186000Y-103330000D03*
%TD*%
D28*
%TO.C,D1*%
X166586000Y-79664000D03*
X166586000Y-78036000D03*
%TD*%
D29*
%TO.C,J1*%
X217170000Y-89662000D03*
X217170000Y-87122000D03*
X217170000Y-84582000D03*
D30*
X217170000Y-82042000D03*
%TD*%
D13*
%TO.C,U2*%
X180756000Y-117696000D03*
X210756000Y-127696000D03*
X210756000Y-107696000D03*
%TD*%
D30*
%TO.C,J5*%
X146874000Y-70066000D03*
D29*
X149414000Y-70066000D03*
X151954000Y-70066000D03*
X154494000Y-70066000D03*
%TD*%
D30*
%TO.C,J6*%
X117216000Y-126281000D03*
D29*
X117216000Y-128821000D03*
X114676000Y-126281000D03*
X114676000Y-128821000D03*
X112136000Y-126281000D03*
X112136000Y-128821000D03*
X109596000Y-126281000D03*
X109596000Y-128821000D03*
X107056000Y-126281000D03*
X107056000Y-128821000D03*
X104516000Y-126281000D03*
X104516000Y-128821000D03*
X101976000Y-126281000D03*
X101976000Y-128821000D03*
%TD*%
M02*
