0
SECTION
2
HEADER
9
$INSUNITS
70
1
9
$ACADVER
1
AC1014
9
$HANDSEED
5
FFFF
0
ENDSEC
0
SECTION
2
TABLES
0
TABLE
2
VPORT
5
8
100
AcDbSymbolTable
0
ENDTAB
0
TABLE
2
LTYPE
5
5
100
AcDbSymbolTable
0
LTYPE
5
14
100
AcDbSymbolTableRecord
100
AcDbLinetypeTableRecord
2
BYBLOCK
70
0
0
LTYPE
5
15
100
AcDbSymbolTableRecord
100
AcDbLinetypeTableRecord
2
BYLAYER
70
0
0
ENDTAB
0
TABLE
2
LAYER
5
2
100
AcDbSymbolTable
70
2
0
LAYER
5
50
100
AcDbSymbolTableRecord
100
AcDbLayerTableRecord
2
0
70
0
6
CONTINUOUS
0
ENDTAB
0
TABLE
2
STYLE
5
3
100
AcDbSymbolTable
70
1
0
STYLE
5
11
100
AcDbSymbolTableRecord
100
AcDbTextStyleTableRecord
2
STANDARD
70
0
0
ENDTAB
0
TABLE
2
VIEW
5
6
100
AcDbSymbolTable
70
0
0
ENDTAB
0
TABLE
2
UCS
5
7
100
AcDbSymbolTable
70
0
0
ENDTAB
0
TABLE
2
APPID
5
9
100
AcDbSymbolTable
70
2
0
APPID
5
12
100
AcDbSymbolTableRecord
100
AcDbRegAppTableRecord
2
ACAD
70
0
0
ENDTAB
0
TABLE
2
DIMSTYLE
5
A
100
AcDbSymbolTable
70
1
0
ENDTAB
0
TABLE
2
BLOCK_RECORD
5
1
100
AcDbSymbolTable
70
1
0
BLOCK_RECORD
5
1F
100
AcDbSymbolTableRecord
100
AcDbBlockTableRecord
2
*MODEL_SPACE
0
BLOCK_RECORD
5
1B
100
AcDbSymbolTableRecord
100
AcDbBlockTableRecord
2
*PAPER_SPACE
0
ENDTAB
0
ENDSEC
0
SECTION
2
BLOCKS
0
BLOCK
5
20
100
AcDbEntity
100
AcDbBlockBegin
2
*MODEL_SPACE
0
ENDBLK
5
21
100
AcDbEntity
100
AcDbBlockEnd
0
BLOCK
5
1C
100
AcDbEntity
100
AcDbBlockBegin
2
*PAPER_SPACE
0
ENDBLK
5
1D
100
AcDbEntity
100
AcDbBlockEnd
0
ENDSEC
0
SECTION
2
ENTITIES
0
LWPOLYLINE
5
100
100
AcDbEntity
8
0
100
AcDbPolyline
90
7
70
1
43
0.0
10
-0.58085905317724518
20
0.84001530470110564
42
-0.66817863919080478
10
-0.59147983398799764
20
0.81441458149845014
10
-0.59179598562337254
20
0.24354166757711287
10
0.19820387314612625
20
0.24310416260597575
10
0.19868512859274126
20
1.1121040072494675
10
-0.29318779945824885
20
1.1123764083442214
42
-0.66817863808774258
10
-0.31880027058002436
20
1.101783989564989
0
LWPOLYLINE
5
101
100
AcDbEntity
8
0
100
AcDbPolyline
90
4
70
1
43
0.0
10
-0.19655581504164091
20
0.67708334952159877
10
-0.24441141824411886
20
0.59430117254894621
10
-0.19664753426724085
20
0.51146654213619702
10
-0.14879222034216671
20
0.5942482182689881
0
LWPOLYLINE
5
102
100
AcDbEntity
8
0
100
AcDbPolyline
90
6
70
1
43
0.0
10
-0.18246857823500809
20
0.70359094234652853
10
-0.13408749851899965
20
0.61968492199143177
10
-0.06856045403245975
20
0.73303573136237343
10
-0.32448989926870059
20
0.73317746607454315
10
-0.25908809312228942
20
0.61975422880201991
10
-0.21061386120223863
20
0.70360652931260292
0
LWPOLYLINE
5
103
100
AcDbEntity
8
0
100
AcDbPolyline
90
4
70
1
43
0.0
10
0.12818877909353532
20
0.74036317283053199
10
0.14323539496205251
20
0.76798115748971363
10
0.1282193782061879
20
0.79561579095059187
10
0.11317032233810731
20
0.76799780764269165
0
LWPOLYLINE
5
104
100
AcDbEntity
8
0
100
AcDbPolyline
90
8
70
1
43
0.0
10
0.1172431961632914
20
0.83686932087738652
10
0.084996786695571938
20
0.7761739172988098
10
0.084996599117257085
20
0.77583520835937581
10
0.1028700809212291
20
0.77582530995633536
10
0.12823500793793849
20
0.82237568371696845
10
0.15354430385997023
20
0.775797246376562
10
0.17159625963202849
20
0.77578724913395058
10
0.13924266822947845
20
0.83685713748505253
0
ARC
5
105
100
AcDbEntity
8
0
100
AcDbCircle
10
0.12382590416441239
20
0.91489543932716333
30
-3.0744400026694003e-09
40
0.0039282028999698031
210
8.4942814022467695e-18
220
8.4848782800888887e-18
230
1
100
AcDbArc
50
44.968269386184083
51
224.96826937994399
0
LINE
5
106
100
AcDbEntity
8
0
100
AcDbLine
10
0.1266051009245657
20
0.91767155953199686
30
-3.0744400027165629e-09
11
0.14256859354726301
21
0.90169037586622058
31
-3.0744400026693999e-09
0
LINE
5
107
100
AcDbEntity
8
0
100
AcDbLine
10
0.14256859354726301
20
0.90169037586622058
30
-3.0744400026693999e-09
11
0.15854977723354785
21
0.9176538684677813
31
-3.0744400026694069e-09
0
ARC
5
108
100
AcDbEntity
8
0
100
AcDbCircle
10
0.16132589745888973
20
0.91487467168649161
30
-3.0744400026694069e-09
40
0.0039282028999697172
210
8.484292387885865e-18
220
-8.4936948624866012e-18
230
1
100
AcDbArc
50
-45.031730619687998
51
134.96826937994467
0
LINE
5
109
100
AcDbEntity
8
0
100
AcDbLine
10
0.16410201766343829
20
0.91209547492605392
30
-3.0744400027165658e-09
11
0.14812083399794704
21
0.89613198230364077
31
-3.0744400026693999e-09
0
LINE
5
110
100
AcDbEntity
8
0
100
AcDbLine
10
0.14812083399794704
20
0.89613198230364077
30
-3.0744400026693999e-09
11
0.16408432659950786
21
0.88015079861735601
31
-3.0744400026693978e-09
0
ARC
5
111
100
AcDbEntity
8
0
100
AcDbCircle
10
0.16130512981821815
20
0.877374678392014
30
-3.074440002669397e-09
40
0.0039282028999697858
210
8.4942814039863604e-18
220
8.4848782783474459e-18
230
1
100
AcDbArc
50
-135.03173062556357
51
44.968269379945838
0
LINE
5
112
100
AcDbEntity
8
0
100
AcDbLine
10
0.15852593305749568
20
0.87459855818775034
30
-3.0744400026222349e-09
11
0.14256244043536737
21
0.89057974185295696
31
-3.074440002669397e-09
0
LINE
5
113
100
AcDbEntity
8
0
100
AcDbLine
10
0.14256244043536737
20
0.89057974185295696
30
-3.074440002669397e-09
11
0.12658125674908255
21
0.87461624925139592
31
-3.0744400026693904e-09
0
ARC
5
114
100
AcDbEntity
8
0
100
AcDbCircle
10
0.12380513652374059
20
0.87739544603268571
30
-3.0744400026693904e-09
40
0.0039282028999698387
210
8.4844095644101109e-18
220
-8.4938121723524234e-18
230
1
100
AcDbArc
50
134.96826936855993
51
314.96826937994439
0
LINE
5
115
100
AcDbEntity
8
0
100
AcDbLine
10
0.12102901631976194
20
0.88017464279369295
30
-3.0744400026222308e-09
11
0.13701019998468345
21
0.89613813541553666
31
-3.0744400026693978e-09
0
LINE
5
116
100
AcDbEntity
8
0
100
AcDbLine
10
0.13701019998468345
20
0.89613813541553666
30
-3.0744400026693978e-09
11
0.1210467074039568
21
0.91211931912263255
31
-3.0744400026222382e-09
0
LINE
5
117
100
AcDbEntity
8
0
100
AcDbLine
10
0.088634268588219281
20
0.89064844748713101
30
-3.0744400026693879e-09
11
0.088682369894594659
21
0.97750465604592596
31
-3.0744400026663894e-09
0
ARC
5
118
100
AcDbEntity
8
0
100
AcDbCircle
10
0.092626444344648826
20
1.0061627293776183
30
-3.0744400026694185e-09
40
0.028928202263354262
210
2.2632895015876826e-18
220
3.0893185782575891e-19
230
1
100
AcDbArc
50
187.77265838666858
51
262.16388058327317
0
LINE
5
119
100
AcDbEntity
8
0
100
AcDbLine
10
0.063964020191477025
20
1.0022503991444698
30
-3.0744400026033388e-09
11
-0.022892188452952315
21
1.0022985005388827
31
-3.0744400026693983e-09
0
LINE
5
120
100
AcDbEntity
8
0
100
AcDbLine
10
-0.022892188452952315
20
1.0022985005388827
30
-3.0744400026693983e-09
11
-0.011926459506576781
21
0.99132061926086534
31
-3.0744400026851176e-09
0
ARC
5
121
100
AcDbEntity
8
0
100
AcDbCircle
10
-0.014705656424582389
20
0.9885444980475786
30
-3.0744400026693958e-09
40
0.0039282038999697514
210
8.4941620534995951e-18
220
8.484758819996267e-18
230
1
100
AcDbArc
50
-135.03173143584507
51
44.968278165669595
0
LINE
5
122
100
AcDbEntity
8
0
100
AcDbLine
10
-0.017484853932063272
20
0.98576837717590349
30
-3.0744400026222341e-09
11
-0.035152730104127825
21
1.0034558346543214
31
-3.074440002653676e-09
0
ARC
5
123
100
AcDbEntity
8
0
100
AcDbCircle
10
-0.032373533303609384
20
1.0062319548465237
30
-3.0744400026693978e-09
40
0.0039282028999697016
210
8.4844096439276399e-18
220
-8.4938120929235119e-18
230
1
100
AcDbArc
50
134.96826990495069
51
224.96826883975501
0
LINE
5
124
100
AcDbEntity
8
0
100
AcDbLine
10
-0.035149653533606169
20
1.0090111515815414
30
-3.0744400026222382e-09
11
-0.017462197268543429
21
1.0266790284670904
31
-3.0744400026467273e-09
0
ARC
5
125
100
AcDbEntity
8
0
100
AcDbCircle
10
-0.01468607650466382
20
1.0238998317255508
30
-3.0744400026694057e-09
40
0.0039282028999697788
210
8.4842923878858665e-18
220
-8.4936948624863346e-18
230
1
100
AcDbArc
50
-45.031730619688403
51
134.96827534706867
0
LINE
5
126
100
AcDbEntity
8
0
100
AcDbLine
10
-0.011909956300115184
20
1.021120634965113
30
-3.0744400027165645e-09
11
-0.022887837545838195
21
1.0101549051340479
31
-3.0744400026694003e-09
0
LINE
5
127
100
AcDbEntity
8
0
100
AcDbLine
10
-0.022887837545838195
20
1.0101549051340479
30
-3.0744400026694003e-09
11
0.063968371012956521
21
1.0101068038276726
31
-3.0744400026473907e-09
0
ARC
5
128
100
AcDbEntity
8
0
100
AcDbCircle
10
0.092626444344648826
20
1.0061627293776183
30
-3.0744400026694185e-09
40
0.028928202263354224
210
4.2270879239342722e-20
220
-3.0968394717506014e-19
230
1
100
AcDbArc
50
-82.227341608060456
51
172.16388058327291
0
LINE
5
129
100
AcDbEntity
8
0
100
AcDbLine
10
0.096538774580434139
20
0.97750030522480646
30
-3.0744400026784604e-09
11
0.096490673183384418
21
0.89064409658001698
31
-3.0744400026693892e-09
0
LINE
5
130
100
AcDbEntity
8
0
100
AcDbLine
10
0.096490673183384418
20
0.89064409658001698
30
-3.0744400026693892e-09
11
0.10746855478961732
21
0.90160982538310119
31
-3.074440002653674e-09
0
ARC
5
131
100
AcDbEntity
8
0
100
AcDbCircle
10
0.11024467567468875
20
0.89883062860838681
30
-3.0744400026693937e-09
40
0.003928202899969699
210
8.4844094460322367e-18
220
-8.4938122905998551e-18
230
1
100
AcDbArc
50
-45.031731429971551
51
134.96827625572951
0
LINE
5
132
100
AcDbEntity
8
0
100
AcDbLine
10
0.11302079583993364
20
0.89605143180868885
30
-3.0744400027165538e-09
11
0.095333339067945527
21
0.87838355492884113
31
-3.0744400026851056e-09
0
ARC
5
133
100
AcDbEntity
8
0
100
AcDbCircle
10
0.092557218875743141
20
0.88116275172935987
30
-3.0744400026693859e-09
40
0.0039282028999698213
210
8.4942813242624826e-18
220
8.4848783581595189e-18
230
1
100
AcDbArc
50
224.96826991278704
51
314.96826883975274
0
LINE
5
134
100
AcDbEntity
8
0
100
AcDbLine
10
0.089778022141105043
20
0.87838663149898288
30
-3.0744400026222237e-09
11
0.072110145255176589
21
0.89607408776442588
31
-3.0744400026467166e-09
0
ARC
5
135
100
AcDbEntity
8
0
100
AcDbCircle
10
0.074889341996716235
20
0.89885020852830522
30
-3.0744400026693879e-09
40
0.0039282028999699046
210
8.4942824213988466e-18
220
8.4848772598068023e-18
230
1
100
AcDbArc
50
44.968262504160762
51
224.96827534706532
0
LINE
5
136
100
AcDbEntity
8
0
100
AcDbLine
10
0.077668539090320399
20
0.90162632839931844
30
-3.0744400027165505e-09
11
0.088634268588219281
21
0.89064844748713101
31
-3.0744400026693879e-09
0
LWPOLYLINE
5
137
100
AcDbEntity
8
0
100
AcDbPolyline
90
13
70
1
43
0.0
10
0.065726102879491974
20
0.8007668306213972
10
0.065719658940325595
20
0.78913105170203734
10
0.015875135853222342
20
0.78915865579083766
10
0.015867778478455635
20
0.77587349216641055
10
0.082390263583306408
20
0.77583665175802985
10
0.082853489504933445
20
0.77670855333326638
10
0.082886817306691729
20
0.83688834757227881
10
0.015159353417308169
20
0.83692585530254993
10
0.015152078544901566
20
0.82378966565148382
10
0.065738837499282499
20
0.82376165050960226
10
0.065732310327288809
20
0.81197557861711678
10
0.018854754709650434
20
0.81200153958790922
10
0.018848547261853577
20
0.80079279159218975
0
LINE
5
138
100
AcDbEntity
8
0
100
AcDbLine
10
0.13337944088171111
20
1.0413183677099802
30
-3.0744400026694351e-09
11
0.16139591387197433
21
1.0413028520793672
31
-3.0744400026694396e-09
0
ARC
5
139
100
AcDbEntity
8
0
100
AcDbCircle
10
0.16139373841841734
20
1.0373746497817846
30
-3.074440002669438e-09
40
0.0039282028999697823
210
2.7547342717390976e-25
220
4.97420754739517e-22
230
1
100
AcDbArc
50
-90.03173060830477
51
89.968269379946079
0
LINE
5
140
100
AcDbEntity
8
0
100
AcDbLine
10
0.16139156296566587
20
1.0334464474842016
30
-3.0744400026694363e-09
11
0.1238915696703827
21
1.0334672151248736
31
-3.0744400026694309e-09
0
ARC
5
141
100
AcDbEntity
8
0
100
AcDbCircle
10
0.12389374512393982
20
1.0373954174224564
30
-3.0744400026694322e-09
40
0.0039282028999697953
210
8.4844096333664209e-18
220
-8.493812103472636e-18
230
1
100
AcDbArc
50
134.96826983370954
51
269.96826937994427
0
LINE
5
142
100
AcDbEntity
8
0
100
AcDbLine
10
0.12111762489739857
20
1.040174614160926
30
-3.0744400026222725e-09
11
0.15192881030131775
21
1.0709516927887379
31
-3.0744400026694454e-09
0
LINE
5
143
100
AcDbEntity
8
0
100
AcDbLine
10
0.15192881030131775
20
1.0709516927887379
30
-3.0744400026694454e-09
11
0.1239123373110544
21
1.0709672084193511
31
-3.0744400026694409e-09
0
ARC
5
144
100
AcDbEntity
8
0
100
AcDbCircle
10
0.12391451276461143
20
1.0748954107169342
30
-3.0744400026694413e-09
40
0.0039282028999697034
210
3.6729803890480876e-25
220
6.6322767298596051e-22
230
1
100
AcDbArc
50
89.968269379945269
51
269.96826937994547
0
LINE
5
145
100
AcDbEntity
8
0
100
AcDbLine
10
0.12391668821816848
20
1.0788236130145166
30
-3.0744400026694442e-09
11
0.16141668151264593
21
1.0788028453738447
31
-3.0744400026694491e-09
0
ARC
5
146
100
AcDbEntity
8
0
100
AcDbCircle
10
0.16141450605908908
20
1.0748746430762621
30
-3.0744400026694479e-09
40
0.0039282028999697337
210
8.4844096350541395e-18
220
-8.4938121017870498e-18
230
1
100
AcDbArc
50
-45.031730154904942
51
89.968269379948111
0
LINE
5
147
100
AcDbEntity
8
0
100
AcDbLine
10
0.16419062628618247
20
1.0720954463383443
30
-3.0744400027166075e-09
11
0.13337944088171111
21
1.0413183677099802
31
-3.0744400026694351e-09
0
LWPOLYLINE
5
148
100
AcDbEntity
8
0
100
AcDbPolyline
90
9
70
1
43
0.0
10
0.0041729637893691473
20
1.0402393785862478
42
-0.99999999999999989
10
-0.0013854297320755873
20
1.0346871381777203
10
-0.017348922354203961
20
1.0506683218429267
10
-0.033330106061299596
20
1.0347048292622005
42
-0.99999999999999989
10
-0.038882346470361727
20
1.040263222783111
10
-0.021273146993447945
20
1.0578529290121648
10
-0.021263664275502425
20
1.0749758109511096
42
-0.99999999999999989
10
-0.013407259680338181
20
1.0749714600424847
10
-0.013416742398282958
20
1.0578485781050506
0
SPLINE
5
149
100
AcDbEntity
8
0
100
AcDbSpline
70
0
71
3
72
12
73
8
74
0
42
0.000000001
43
0.0000000001
44
0.0000000001
40
0
40
0
40
0
40
0
40
0.0022440644659170827
40
0.0022440644659170827
40
0.0039255138028904957
40
0.0039255138028904957
40
0.0087174317009871601
40
0.0087174317009871601
40
0.0087174317009871601
40
0.0087174317009871601
10
-0.011504964858370822
20
0.79135219427461334
30
-3.0744400026693457e-09
10
-0.01173137484872821
20
0.79116386799348648
30
-3.0744400026693457e-09
10
-0.012335013288800394
20
0.7906617656550774
30
-3.0744400026693449e-09
10
-0.014563919766410348
20
0.78980542074248361
30
-3.0744400026693449e-09
10
-0.01560617048184774
20
0.789558059452379
30
-3.0744400026693445e-09
10
-0.019192745335092885
20
0.78887417663148496
30
-3.0744400026693445e-09
10
-0.022255914293426077
20
0.78873416785623784
30
-3.0744400026693424e-09
10
-0.024954663623603966
20
0.78873566243400806
30
-3.0744400026693424e-09
0
SPLINE
5
150
100
AcDbEntity
8
0
100
AcDbSpline
70
0
71
3
72
12
73
8
74
0
42
0.000000001
43
0.0000000001
44
0.0000000001
40
0
40
0
40
0
40
0
40
0.021115809742984964
40
0.021115809742984964
40
0.031606399082794917
40
0.031606399082794917
40
0.046182676012407907
40
0.046182676012407907
40
0.046182676012407907
40
0.046182676012407907
10
-0.008298300013808612
20
0.80225936880636384
30
-3.074440002669349e-09
10
-0.0082998346613999876
20
0.79948826566106412
30
-3.074440002669349e-09
10
-0.0085576102668000666
20
0.79735356077909247
30
-3.074440002669347e-09
10
-0.0092600345262276312
20
0.79480343897179895
30
-3.074440002669347e-09
10
-0.0095737077985029121
20
0.79396059747661019
30
-3.0744400026693461e-09
10
-0.010608504612036372
20
0.79213119721355574
30
-3.0744400026693461e-09
10
-0.01122296523189565
20
0.79159054148046881
30
-3.0744400026693457e-09
10
-0.011504964858370822
20
0.79135219427461334
30
-3.0744400026693457e-09
0
LINE
5
151
100
AcDbEntity
8
0
100
AcDbLine
10
-0.008298300013808612
20
0.80225936880636384
30
-3.074440002669349e-09
11
-0.0082934527976999337
21
0.81101195531561232
31
-3.0744400026693515e-09
0
SPLINE
5
152
100
AcDbEntity
8
0
100
AcDbSpline
70
0
71
3
72
8
73
4
74
0
42
0.000000001
43
0.0000000001
44
0.0000000001
40
2.0783332554806927e-12
40
2.0783332554806927e-12
40
2.0783332554806927e-12
40
2.0783332554806927e-12
40
0.00028331209024903077
40
0.00028331209024903077
40
0.00028331209024903077
40
0.00028331209024903077
10
-0.011794772575226637
20
0.82118836663809547
30
-3.0744400026693536e-09
10
-0.0093250247190244748
20
0.81923196663054865
30
-3.0744400026693536e-09
10
-0.0082908461452555152
20
0.81571699449607027
30
-3.0744400026693524e-09
10
-0.008293452797679346
20
0.81101195535277881
30
-3.0744400026693515e-09
0
SPLINE
5
153
100
AcDbEntity
8
0
100
AcDbSpline
70
0
71
3
72
11
73
7
74
0
42
0.000000001
43
0.0000000001
44
0.0000000001
40
1.8802385277604447e-12
40
1.8802385277604447e-12
40
1.8802385277604447e-12
40
1.8802385277604447e-12
40
0.00017458193927988609
40
0.00017458193927988609
40
0.00017458193927988609
40
0.00034835665485259589
40
0.00034835665485259589
40
0.00034835665485259589
40
0.00034835665485259589
10
-0.024935074092151691
20
0.82410849710889555
30
-3.0744400026693515e-09
10
-0.021767387631729085
20
0.82410674283193741
30
-3.0744400026693524e-09
10
-0.019105895712456449
20
0.82388201286288221
30
-3.0744400026693528e-09
10
-0.016921978727690242
20
0.82341285801413555
30
-3.0744400026693528e-09
10
-0.014748159611492648
20
0.82294587241634221
30
-3.0744400026693536e-09
10
-0.013035204365166432
20
0.82224535070143456
30
-3.0744400026693536e-09
10
-0.011794772573308748
20
0.821188366640346
30
-3.0744400026693536e-09
0
LINE
5
154
100
AcDbEntity
8
0
100
AcDbLine
10
-0.024935074092151691
20
0.82410849710889555
30
-3.0744400026693515e-09
11
-0.036060707075480716
21
0.82411465852727839
31
-3.0744400026693503e-09
0
SPLINE
5
155
100
AcDbEntity
8
0
100
AcDbSpline
70
0
71
3
72
8
73
4
74
0
42
0.000000001
43
0.0000000001
44
0.0000000001
40
0
40
0
40
0
40
0
40
0.00032709398428537421
40
0.00032709398428537421
40
0.00032709398428537421
40
0.00032709398428537421
10
-0.04863963483690139
20
0.82203395857643013
30
-3.0744400026693478e-09
10
-0.046364029535400329
20
0.8234333714718044
30
-3.0744400026693482e-09
10
-0.042213582874253412
20
0.82411806500763118
30
-3.074440002669349e-09
10
-0.036060707102147441
20
0.82411465852729326
30
-3.0744400026693503e-09
0
SPLINE
5
156
100
AcDbEntity
8
0
100
AcDbSpline
70
0
71
3
72
14
73
10
74
0
42
0.000000001
43
0.0000000001
44
0.0000000001
40
0
40
0
40
0
40
0
40
0.0061448638417294981
40
0.0061448638417294981
40
0.01175878898650529
40
0.01175878898650529
40
0.016784056255732073
40
0.016784056255732073
40
0.023833730313703231
40
0.023833730313703231
40
0.023833730313703231
40
0.023833730313703231
10
-0.05211748069078629
20
0.81463004363308889
30
-3.0744400026693449e-09
10
-0.052100193956984744
20
0.81543627086778092
30
-3.0744400026693449e-09
10
-0.052019955595116373
20
0.81624820545722565
30
-3.0744400024986053e-09
10
-0.051705303146944472
20
0.81775797349515444
30
-3.0744400024986053e-09
10
-0.05148332278870895
20
0.81846645918653982
30
-3.0744400026693461e-09
10
-0.05089048504934926
20
0.81972887106532122
30
-3.0744400026693461e-09
10
-0.050540057576278226
20
0.82028603008506329
30
-3.0744400024986066e-09
10
-0.049504435063065878
20
0.8214826312614949
30
-3.0744400024986066e-09
10
-0.049100736561953594
20
0.82175064193452152
30
-3.0744400021572916e-09
10
-0.048639634562583287
20
0.82203395812995739
30
-3.0744400026693478e-09
0
LINE
5
157
100
AcDbEntity
8
0
100
AcDbLine
10
-0.05211748069078629
20
0.81463004363308889
30
-3.0744400026693449e-09
11
-0.06956320155272
21
0.81463970512363915
31
-3.0744400026693416e-09
0
SPLINE
5
158
100
AcDbEntity
8
0
100
AcDbSpline
70
0
71
3
72
8
73
4
74
0
42
0.000000001
43
0.0000000001
44
0.0000000001
40
1.7743094634915814e-12
40
1.7743094634915814e-12
40
1.7743094634915814e-12
40
1.7743094634915814e-12
40
8.9650270698700608e-05
40
8.9650270698700608e-05
40
8.9650270698700608e-05
40
8.9650270698700608e-05
10
-0.06970527047880308
20
0.81816642532234385
30
-3.0744400026693433e-09
10
-0.069705645688089124
20
0.81747085541805509
30
-3.0744400026693424e-09
10
-0.069588128090297421
20
0.81628737419354636
30
-3.0744400026693424e-09
10
-0.069563201571608835
20
0.81463970512364958
30
-3.0744400026693416e-09
0
SPLINE
5
159
100
AcDbEntity
8
0
100
AcDbSpline
70
0
71
3
72
10
73
6
74
0
42
0.000000001
43
0.0000000001
44
0.0000000001
40
2.9107340393796411e-12
40
2.9107340393796411e-12
40
2.9107340393796411e-12
40
2.9107340393796411e-12
40
5.2703361935956535e-07
40
5.2703361935956535e-07
40
0.00025152687832049963
40
0.00025152687832049963
40
0.00025152687832049963
40
0.00025152687832049963
10
-0.068135187065096622
20
0.82787956108392702
30
-3.0744400026693457e-09
10
-0.068137249036030328
20
0.82787427211824516
30
-3.0744400026693457e-09
10
-0.068139310123695479
20
0.82786898232044492
30
-3.0744400026693457e-09
10
-0.069123228334988948
20
0.82534452809191539
30
-3.0744400026693449e-09
10
-0.069703024665794255
20
0.82221986952759485
30
-3.0744400026693437e-09
10
-0.069705270478803136
20
0.81816642532234385
30
-3.0744400026693433e-09
0
SPLINE
5
160
100
AcDbEntity
8
0
100
AcDbSpline
70
0
71
3
72
10
73
6
74
0
42
0.000000001
43
0.0000000001
44
0.0000000001
40
9.9946547028190635e-07
40
9.9946547028190635e-07
40
9.9946547028190635e-07
40
9.9946547028190635e-07
40
0.003433608381623373
40
0.003433608381623373
40
0.0068690803649155783
40
0.0068690803649155783
40
0.0068690803649155783
40
0.0068690803649155783
10
-0.063760293192513764
20
0.83361321989935966
30
-3.0744400026693478e-09
10
-0.064135618336499958
20
0.83336315129960714
30
-3.0744400026693478e-09
10
-0.065266642182316412
20
0.83260937391933987
30
-3.074440002669347e-09
10
-0.0674867643935914
20
0.82969941478555054
30
-3.074440002669347e-09
10
-0.067977069823701219
20
0.82832692363386662
30
-3.0744400026693457e-09
10
-0.068135187081297399
20
0.82787956104910587
30
-3.0744400026693457e-09
0
SPLINE
5
161
100
AcDbEntity
8
0
100
AcDbSpline
70
0
71
3
72
12
73
8
74
0
42
0.000000001
43
0.0000000001
44
0.0000000001
40
5.8404343446531179e-13
40
5.8404343446531179e-13
40
5.8404343446531179e-13
40
5.8404343446531179e-13
40
5.4175236275788785e-07
40
5.4175236275788785e-07
40
0.00021635716949778444
40
0.00021635716949778444
40
0.00021759880209726697
40
0.00021759880209726697
40
0.00021759880209726697
40
0.00021759880209726697
10
-0.055877496669459778
20
0.83668746775107006
30
-3.0744400026693503e-09
10
-0.055886160485290326
20
0.83668602854599194
30
-3.0744400026693503e-09
10
-0.055894825307072446
20
0.83668459049012789
30
-3.0744400026693503e-09
10
-0.059354990529027429
20
0.83611013857151018
30
-3.074440002669349e-09
10
-0.061833557630715949
20
0.83512478792765921
30
-3.0744400026693482e-09
10
-0.06373849886206899
20
0.83363031694732981
30
-3.0744400026693478e-09
10
-0.06374939548948215
20
0.83362176884338401
30
-3.0744400026693478e-09
10
-0.063760293175398053
20
0.83361321991076309
30
-3.0744400026693478e-09
0
SPLINE
5
162
100
AcDbEntity
8
0
100
AcDbSpline
70
0
71
3
72
10
73
6
74
0
42
0.000000001
43
0.0000000001
44
0.0000000001
40
7.6816556217459138e-13
40
7.6816556217459138e-13
40
7.6816556217459138e-13
40
7.6816556217459138e-13
40
0.00037601727480249264
40
0.00037601727480249264
40
0.00037700642745589234
40
0.00037700642745589234
40
0.00037700642745589234
40
0.00037700642745589234
10
-0.041096568445557466
20
0.83769924614359903
30
-3.0744400026693528e-09
10
-0.047589380308633557
20
0.83770284288780783
30
-3.0744400026693515e-09
10
-0.052588995757939176
20
0.83740102795378213
30
-3.0744400026693507e-09
10
-0.055860330589943351
20
0.83669119209279996
30
-3.0744400026693503e-09
10
-0.055868913654729638
20
0.83668932999505463
30
-3.0744400026693503e-09
10
-0.055877496669459778
20
0.83668746775107006
30
-3.0744400026693503e-09
0
LINE
5
163
100
AcDbEntity
8
0
100
AcDbLine
10
-0.041096568445557466
20
0.83769924614359903
30
-3.0744400026693528e-09
11
-0.019438564296279749
21
0.83768725185751169
31
-3.0744400026693561e-09
0
SPLINE
5
164
100
AcDbEntity
8
0
100
AcDbSpline
70
0
71
3
72
10
73
6
74
0
42
0.000000001
43
0.0000000001
44
0.0000000001
40
0
40
0
40
0
40
0
40
0.0001823004619829476
40
0.0001823004619829476
40
0.00036460092396589519
40
0.00036460092396589519
40
0.00036460092396589519
40
0.00036460092396589519
10
-0.0051492770710490927
20
0.83666964326610438
30
-3.0744400026693586e-09
10
-0.0074791391936156878
20
0.83722611362371724
30
-3.0744400026693581e-09
10
-0.0098770070626788744
20
0.83739302759335166
30
-3.0744400026693581e-09
10
-0.014654086783920677
20
0.83764743119069018
30
-3.0744400026693573e-09
10
-0.017046757770634823
20
0.8376859272658489
30
-3.0744400026693569e-09
10
-0.01943856427294649
20
0.8376872518574987
30
-3.0744400026693561e-09
0
SPLINE
5
165
100
AcDbEntity
8
0
100
AcDbSpline
70
0
71
3
72
11
73
7
74
0
42
0.000000001
43
0.0000000001
44
0.0000000001
40
2.3195517291381491e-12
40
2.3195517291381491e-12
40
2.3195517291381491e-12
40
2.3195517291381491e-12
40
3.1330530990776767e-07
40
3.1330530990776767e-07
40
3.1330530990776767e-07
40
0.00021447502906505423
40
0.00021447502906505423
40
0.00021447502906505423
40
0.00021447502906505423
10
0.0024485006562600144
20
0.833155193081491
30
-3.0744400026693586e-09
10
0.0024454619316677641
20
0.83315762582180741
30
-3.0744400026693586e-09
10
0.0024424234059691715
20
0.83316005866411158
30
-3.0744400026693586e-09
10
0.0024393856253485504
20
0.83316249118751073
30
-3.0744400026693586e-09
10
0.00036257742526013282
20
0.83482550941472022
30
-3.0744400026693586e-09
10
-0.0021484655242238293
20
0.83595307731369028
30
-3.0744400026693586e-09
10
-0.0051492770710490927
20
0.83666964326610438
30
-3.0744400026693586e-09
0
ELLIPSE
5
166
100
AcDbEntity
8
0
100
AcDbEllipse
10
-0.062318074341623633
20
0.75615034512512214
30
-3.074440002669328e-09
11
0.065421711022493126
21
0.076474980666474512
31
0.0
40
0.38948542775973849
41
6.0902397211660535
42
6.3046746836257999
0
ELLIPSE
5
167
100
AcDbEntity
8
0
100
AcDbEllipse
10
-0.076396837337613641
20
0.71087964759211097
30
-3.0744400026693139e-09
11
0.079543847407048951
21
0.12122531974024024
31
0.0
40
0.26293005003170072
41
5.9016487660104771
42
6.1012548279417178
0
LINE
5
168
100
AcDbEntity
8
0
100
AcDbLine
10
0.0092954036897960474
20
0.81560065305403961
30
-3.0744400026693552e-09
11
0.0092858735329530984
21
0.79839211100753205
31
-3.0744400026693507e-09
0
SPLINE
5
169
100
AcDbEntity
8
0
100
AcDbSpline
70
0
71
3
72
11
73
7
74
0
42
0.000000001
43
0.0000000001
44
0.0000000001
40
0
40
0
40
0
40
0
40
0.00025322868557351482
40
0.00025322868557351482
40
0.00025322868557351482
40
0.00050645736548613775
40
0.00050645736548613775
40
0.00050645736548613775
40
0.00050645736548613775
10
0.0031369857909114953
20
0.78023413508517581
30
-3.0744400026693449e-09
10
0.0057124930167540364
20
0.78236286103177144
30
-3.0744400026693461e-09
10
0.007241590951144755
20
0.78542123460267521
30
-3.074440002669347e-09
10
0.0081223462443540499
20
0.78859867874341161
30
-3.0744400028400886e-09
10
0.0090031015178741944
20
0.79177612281311682
30
-3.074440002669349e-09
10
0.0092840526840586874
20
0.79510423856915047
30
-3.0744400026693503e-09
10
0.0092858735328988102
20
0.79839211090953222
30
-3.0744400026693507e-09
0
ELLIPSE
5
170
100
AcDbEntity
8
0
100
AcDbEllipse
10
-0.1936182808157656
20
0.86962438021293187
30
-3.0744400026693354e-09
11
-0.19948007571460802
21
0.085855177478185885
31
0.0
40
0.19761108211696937
41
2.7105500891352166
42
3.0406581355113733
0
LINE
5
171
100
AcDbEntity
8
0
100
AcDbLine
10
-0.019473196497325443
20
0.77515214603967297
30
-3.0744400026693399e-09
11
-0.041131200637016294
21
0.77516414032575442
31
-3.0744400026693366e-09
0
ELLIPSE
5
172
100
AcDbEntity
8
0
100
AcDbEllipse
10
-0.0025090641347663653
20
0.78289030728008824
30
-3.0744400026693449e-09
11
-0.057183863566571146
21
-0.0052527508506946281
31
0.0
40
0.099082731634095159
41
0.3414009384224615
42
0.82022239132937913
0
SPLINE
5
173
100
AcDbEntity
8
0
100
AcDbSpline
70
0
71
3
72
8
73
4
74
0
42
0.000000001
43
0.0000000001
44
0.0000000001
40
6.6391465386506897e-13
40
6.6391465386506897e-13
40
6.6391465386506897e-13
40
6.6391465386506897e-13
40
0.00020014904942499778
40
0.00020014904942499778
40
0.00020014904942499778
40
0.00020014904942499778
10
-0.063464773229936933
20
0.77895475721144292
30
-3.0744400026693337e-09
10
-0.061707556715177622
20
0.7776028539013915
30
-3.0744400026693337e-09
10
-0.059361419761466555
20
0.77661812547594777
30
-3.0744400026693337e-09
10
-0.056218396525045171
20
0.77604371379418713
30
-3.0744400026693337e-09
0
SPLINE
5
174
100
AcDbEntity
8
0
100
AcDbSpline
70
0
71
3
72
11
73
7
74
0
42
0.000000001
43
0.0000000001
44
0.0000000001
40
3.3480967977791441e-12
40
3.3480967977791441e-12
40
3.3480967977791441e-12
40
3.3480967977791441e-12
40
2.2185238359492405e-07
40
2.2185238359492405e-07
40
2.2185238359492405e-07
40
0.00018193150564823355
40
0.00018193150564823355
40
0.00018193150564823355
40
0.00018193150564823355
10
-0.067556380317281006
20
0.78469054003290029
30
-3.0744400026693346e-09
10
-0.067555377944090958
20
0.78468752735291136
30
-3.0744400026693346e-09
10
-0.06755437639164176
20
0.78468451387157723
30
-3.0744400026693346e-09
10
-0.067553374281117504
20
0.78468150124250458
30
-3.0744400026693346e-09
10
-0.066732451718759564
20
0.78221357468356811
30
-3.0744400026693337e-09
10
-0.06540728564623785
20
0.78048391419370022
30
-3.0744400026693337e-09
10
-0.063464773229936933
20
0.77895475721144292
30
-3.0744400026693337e-09
0
SPLINE
5
175
100
AcDbEntity
8
0
100
AcDbSpline
70
0
71
3
72
10
73
6
74
0
42
0.000000001
43
0.0000000001
44
0.0000000001
40
9.9359484668424978e-07
40
9.9359484668424978e-07
40
9.9359484668424978e-07
40
9.9359484668424978e-07
40
0.010479857222352668
40
0.010479857222352668
40
0.021553949332170221
40
0.021553949332170221
40
0.021553949332170221
40
0.021553949332170221
10
-0.068976424602364403
20
0.79398598945758381
30
-3.0744400026693366e-09
10
-0.068977181882826588
20
0.79261081904699893
30
-3.0744400026693366e-09
10
-0.068959128944479739
20
0.79127935880193712
30
-3.0744400026693354e-09
10
-0.068255144293429784
20
0.78667300979808485
30
-3.0744400026693354e-09
10
-0.067721120061708578
20
0.7851578410248804
30
-3.0744400026693346e-09
10
-0.067556380298364388
20
0.7846905399722427
30
-3.0744400026693346e-09
0
SPLINE
5
176
100
AcDbEntity
8
0
100
AcDbSpline
70
0
71
3
72
8
73
4
74
0
42
0.000000001
43
0.0000000001
44
0.0000000001
40
1.3042476624122404e-12
40
1.3042476624122404e-12
40
1.3042476624122404e-12
40
1.3042476624122404e-12
40
5.6614081391526152e-05
40
5.6614081391526152e-05
40
5.6614081391526152e-05
40
5.6614081391526152e-05
10
-0.068827536929395167
20
0.79620997930146442
30
-3.074440002669337e-09
10
-0.068828701703574635
20
0.7954664473322629
30
-3.0744400026693366e-09
10
-0.068975989603793739
20
0.79473107321161995
30
-3.0744400028400771e-09
10
-0.068976424603458847
20
0.79398598693468936
30
-3.0744400026693366e-09
0
LINE
5
177
100
AcDbEntity
8
0
100
AcDbLine
10
-0.068827536929395167
20
0.79620997930146442
30
-3.074440002669337e-09
11
-0.068827309117711122
21
0.79662133727935391
31
-3.074440002669337e-09
0
LINE
5
178
100
AcDbEntity
8
0
100
AcDbLine
10
-0.068827309117711122
20
0.79662133727935391
30
-3.074440002669337e-09
11
-0.051532217234131136
21
0.79661175919318639
31
-3.0744400024985999e-09
0
SPLINE
5
179
100
AcDbEntity
8
0
100
AcDbSpline
70
0
71
3
72
8
73
4
74
0
42
0.000000001
43
0.0000000001
44
0.0000000001
40
0
40
0
40
0
40
0
40
0.00017078941598885206
40
0.00017078941598885206
40
0.00017078941598885206
40
0.00017078941598885206
10
-0.048725614483995601
20
0.79073348629400197
30
-3.0744400026693391e-09
10
-0.050618956114155733
20
0.79211205702300025
30
-3.0744400026693391e-09
10
-0.051467478976964659
20
0.79432616514040322
30
-3.0744400023278587e-09
10
-0.051532217210511273
20
0.79661175919779004
30
-3.0744400021571191e-09
0
SPLINE
5
180
100
AcDbEntity
8
0
100
AcDbSpline
70
0
71
3
72
8
73
4
74
0
42
0.000000001
43
0.0000000001
44
0.0000000001
40
4.5693028678526972e-13
40
4.5693028678526972e-13
40
4.5693028678526972e-13
40
4.5693028678526972e-13
40
0.00022144754227122477
40
0.00022144754227122477
40
0.00022144754227122477
40
0.00022144754227122477
10
-0.040382102864962348
20
0.78874420620925967
30
-3.0744400026693399e-09
10
-0.043900565686560665
20
0.78874615374751722
30
-3.0744400026693399e-09
10
-0.0467916786103377
20
0.78932594775022757
30
-3.0744400026693391e-09
10
-0.048725614354069524
20
0.79073348647251851
30
-3.0744400026693391e-09
0
LINE
5
181
100
AcDbEntity
8
0
100
AcDbLine
10
-0.040382102864962348
20
0.78874420620925967
30
-3.0744400026693399e-09
11
-0.024954663623604007
21
0.78873566243400806
31
-3.0744400026693424e-09
0
LWPOLYLINE
5
182
100
AcDbEntity
8
0
100
AcDbPolyline
90
8
70
1
43
0.0
10
-0.071130022965122455
20
0.77592167188381511
10
-0.071122665590355766
20
0.78920683550824222
10
-0.097528080868698436
20
0.78922145892889162
10
-0.097501627437334856
20
0.83698824738752298
10
-0.11464365037210189
20
0.83699774070582589
10
-0.11467010380346551
20
0.78923095224719464
10
-0.14107617808169082
20
0.78924557603280032
10
-0.14108353545645755
20
0.77596041240837332
0
ELLIPSE
5
183
100
AcDbEntity
8
0
100
AcDbEllipse
10
-0.37031647495650405
20
0.65935595442323647
30
-3.074440002669251e-09
11
-0.22312247658888471
21
-0.17151831464294659
31
0.0
40
0.21886268577423881
41
3.0693718784516686
42
3.2022955172589773
0
ELLIPSE
5
184
100
AcDbEntity
8
0
100
AcDbEllipse
10
-0.16417912521888267
20
0.79313138038610564
30
-3.0744400026693201e-09
11
0.013620160791811445
21
0.040298234632283624
31
0.0
40
0.38606646539093642
41
5.430466985276337
42
5.8230589819957483
0
LINE
5
185
100
AcDbEntity
8
0
100
AcDbLine
10
-0.14350176098794076
20
0.81568527270505586
30
-3.07444000266933e-09
11
-0.14351129114478003
21
0.79847673066564151
31
-3.0744400026693255e-09
0
SPLINE
5
186
100
AcDbEntity
8
0
100
AcDbSpline
70
0
71
3
72
8
73
4
74
0
42
0.000000001
43
0.0000000001
44
0.0000000001
40
5.5786602475975114e-13
40
5.5786602475975114e-13
40
5.5786602475975114e-13
40
5.5786602475975114e-13
40
0.00031568563703307994
40
0.00031568563703307994
40
0.00031568563703307994
40
0.00031568563703307994
10
-0.14509457598468109
20
0.78620768406909936
30
-3.0744400026693217e-09
10
-0.14378642594241678
20
0.79012406103555033
30
-3.0744400028400634e-09
10
-0.14351356275778968
20
0.79437491137654181
30
-3.0744400026693242e-09
10
-0.14351129114483427
20
0.79847673056764168
30
-3.0744400026693255e-09
0
SPLINE
5
187
100
AcDbEntity
8
0
100
AcDbSpline
70
0
71
3
72
8
73
4
74
0
42
0.000000001
43
0.0000000001
44
0.0000000001
40
4.452878078891677e-13
40
4.452878078891677e-13
40
4.452878078891677e-13
40
4.452878078891677e-13
40
0.00021444800998673995
40
0.00021444800998673995
40
0.00021444800998673995
40
0.00021444800998673995
10
-0.14991238190619899
20
0.77946290129562312
30
-3.0744400026693197e-09
10
-0.14770308012873337
20
0.78111959399701103
30
-3.0744400026693201e-09
10
-0.14606756400635751
20
0.78329349252000957
30
-3.0744400026693209e-09
10
-0.14509457598468056
20
0.78620768406909924
30
-3.0744400026693217e-09
0
ELLIPSE
5
188
100
AcDbEntity
8
0
100
AcDbEllipse
10
-0.19106223146022747
20
0.81780536292636974
30
-3.0744400026693222e-09
11
-0.043784711785149574
21
0.035854690329355572
31
0.0
40
0.49782607363590903
41
2.7342125626431701
42
3.013670886895071
0
SPLINE
5
189
100
AcDbEntity
8
0
100
AcDbSpline
70
0
71
3
72
10
73
6
74
0
42
0.000000001
43
0.0000000001
44
0.0000000001
40
3.1378069066132991e-12
40
3.1378069066132991e-12
40
3.1378069066132991e-12
40
3.1378069066132991e-12
40
0.00040264195694666278
40
0.00040264195694666278
40
0.00040334616238600824
40
0.00040334616238600824
40
0.00040334616238600824
40
0.00040334616238600824
10
-0.17375285606304863
20
0.77523758670915888
30
-3.0744400026693143e-09
10
-0.1666641312055307
20
0.7752336609460394
30
-3.0744400026693155e-09
10
-0.16136466786559867
20
0.77553398539685192
30
-3.0744400026693164e-09
10
-0.15794473926570565
20
0.77624630916511095
30
-3.0744400026693172e-09
10
-0.15793876859247377
20
0.77624755293690806
30
-3.0744400026693172e-09
10
-0.15793279796342993
20
0.77624879662002499
30
-3.0744400026693172e-09
0
LINE
5
190
100
AcDbEntity
8
0
100
AcDbLine
10
-0.17375285606304863
20
0.77523758670915888
30
-3.0744400026693143e-09
11
-0.19645038684044336
21
0.77525015668909514
31
-3.0744400026693106e-09
0
SPLINE
5
191
100
AcDbEntity
8
0
100
AcDbSpline
70
0
71
3
72
10
73
6
74
0
42
0.000000001
43
0.0000000001
44
0.0000000001
40
8.2871059306052593e-13
40
8.2871059306052593e-13
40
8.2871059306052593e-13
40
8.2871059306052593e-13
40
8.4482265306545157e-07
40
8.4482265306545157e-07
40
0.00040337718964531492
40
0.00040337718964531492
40
0.00040337718964531492
40
0.00040337718964531492
10
-0.21227434579033813
20
0.77627966319569441
30
-3.0744400026693077e-09
10
-0.212267177588156
20
0.77627816321905629
30
-3.0744400026693077e-09
10
-0.21226000947646428
20
0.77627666296950182
30
-3.0744400026693077e-09
10
-0.20883754459820014
20
0.77556015955160673
30
-3.0744400026693085e-09
10
-0.20353912561176654
20
0.77525408245992034
30
-3.0744400026693093e-09
10
-0.19645038680933222
20
0.77525015668907793
30
-3.0744400026693106e-09
0
SPLINE
5
192
100
AcDbEntity
8
0
100
AcDbSpline
70
0
71
3
72
10
73
6
74
0
42
0.000000001
43
0.0000000001
44
0.0000000001
40
9.9964191930288188e-07
40
9.9964191930288188e-07
40
9.9964191930288188e-07
40
9.9964191930288188e-07
40
0.0087942134241361571
40
0.0087942134241361571
40
0.018324820345242018
40
0.018324820345242018
40
0.018324820345242018
40
0.018324820345242018
10
-0.22027320620223931
20
0.77949114736193059
30
-3.0744400026693073e-09
10
-0.2193661641742663
20
0.77877785938059452
30
-3.0744400026693073e-09
10
-0.21862888823692089
20
0.77825032737961186
30
-3.0744400026693077e-09
10
-0.21472312887467779
20
0.77668218349039941
30
-3.0744400026693077e-09
10
-0.21284925068392005
20
0.77637564874046083
30
-3.0744400026693077e-09
10
-0.21227434579055773
20
0.77627966319437947
30
-3.0744400026693077e-09
0
SPLINE
5
193
100
AcDbEntity
8
0
100
AcDbSpline
70
0
71
3
72
10
73
6
74
0
42
0.000000001
43
0.0000000001
44
0.0000000001
40
9.9973808858819263e-07
40
9.9973808858819263e-07
40
9.9973808858819263e-07
40
9.9973808858819263e-07
40
0.0049823390708544114
40
0.0049823390708544114
40
0.010041384935473402
40
0.010041384935473402
40
0.010041384935473402
40
0.010041384935473402
10
-0.22510420493877367
20
0.78627324174709923
30
-3.0744400026693085e-09
10
-0.22487112214565549
20
0.78566201460788132
30
-3.0744400026693085e-09
10
-0.22424595159944427
20
0.78402287422617289
30
-3.0744400026693077e-09
10
-0.22190327488389394
20
0.78071620197158398
30
-3.0744400026693077e-09
10
-0.22071874282260417
20
0.77982593384137178
30
-3.0744400026693073e-09
10
-0.22027320620143828
20
0.77949114736297209
30
-3.0744400026693073e-09
0
SPLINE
5
194
100
AcDbEntity
8
0
100
AcDbSpline
70
0
71
3
72
8
73
4
74
0
42
0.000000001
43
0.0000000001
44
0.0000000001
40
1.0153824544127917e-12
40
1.0153824544127917e-12
40
1.0153824544127917e-12
40
1.0153824544127917e-12
40
0.0002962879987468212
40
0.0002962879987468212
40
0.0002962879987468212
40
0.0002962879987468212
10
-0.22666792232885369
20
0.79778054615574623
30
-3.074440002669311e-09
10
-0.22667057920010975
20
0.79298305105913403
30
-3.0744400026693098e-09
10
-0.22608925335825344
20
0.78924847666643916
30
-3.0744400026693093e-09
10
-0.22510420494562627
20
0.7862732417762317
30
-3.0744400026693085e-09
0
LINE
5
195
100
AcDbEntity
8
0
100
AcDbLine
10
-0.22666792232885369
20
0.79778054615574623
30
-3.074440002669311e-09
11
-0.2266582278966873
21
0.81528571908224345
31
-3.0744400026693155e-09
0
ELLIPSE
5
196
100
AcDbEntity
8
0
100
AcDbEllipse
10
-0.21499711408722597
20
0.80373138837784275
30
-3.0744400026693143e-09
11
-0.0054424238157046089
21
0.028440995230466868
31
0.0
40
0.36261679189595142
41
0.55968087802788313
42
1.0842306823845318
0
SPLINE
5
197
100
AcDbEntity
8
0
100
AcDbSpline
70
0
71
3
72
10
73
6
74
0
42
0.000000001
43
0.0000000001
44
0.0000000001
40
9.9980112207012415e-07
40
9.9980112207012415e-07
40
9.9980112207012415e-07
40
9.9980112207012415e-07
40
0.0042449168368652477
40
0.0042449168368652477
40
0.0082621662937241627
40
0.0082621662937241627
40
0.0082621662937241627
40
0.0082621662937241627
10
-0.22024342481042464
20
0.83357053487113153
30
-3.0744400026693217e-09
10
-0.22068939311809807
20
0.83323619173487551
30
-3.0744400026693217e-09
10
-0.22187572299338962
20
0.83234661467650939
30
-3.0744400026693201e-09
10
-0.22417883030040522
20
0.82910078403033449
30
-3.0744400026693201e-09
10
-0.22465466954125005
20
0.82790999087302419
30
-3.0744400026693189e-09
10
-0.22508458924368485
20
0.82678521697341911
30
-3.0744400026693189e-09
0
ELLIPSE
5
198
100
AcDbEntity
8
0
100
AcDbEllipse
10
-0.18597227557618823
20
0.81078513978101863
30
-3.0744400026693217e-09
11
-0.03707271360827577
21
0.019470627538378991
31
0.0
40
0.48051868421815425
41
5.7168198521445426
42
6.0710122105954909
0
SPLINE
5
199
100
AcDbEntity
8
0
100
AcDbSpline
70
0
71
3
72
10
73
6
74
0
42
0.000000001
43
0.0000000001
44
0.0000000001
40
7.381814993867048e-13
40
7.381814993867048e-13
40
7.381814993867048e-13
40
7.381814993867048e-13
40
0.00040233007228438015
40
0.00040233007228438015
40
0.00040338923280073928
40
0.00040338923280073928
40
0.00040338923280073928
40
0.00040338923280073928
10
-0.19641575467054678
20
0.83778526250695162
30
-3.0744400026693267e-09
10
-0.20365192840247015
20
0.83778927092782562
30
-3.0744400026693255e-09
10
-0.20895685919522164
20
0.83748550930292798
30
-3.0744400026693242e-09
10
-0.21221906763940668
20
0.83677777919019836
30
-3.0744400026693234e-09
10
-0.21222763269616063
20
0.83677592105568299
30
-3.0744400026693234e-09
10
-0.21223619868334373
20
0.83677406280649191
30
-3.0744400026693234e-09
0
LINE
5
200
100
AcDbEntity
8
0
100
AcDbLine
10
-0.19641575467054678
20
0.83778526250695162
30
-3.0744400026693267e-09
11
-0.17386653973406788
21
0.8377727746648993
31
-3.0744400026693308e-09
0
SPLINE
5
201
100
AcDbEntity
8
0
100
AcDbSpline
70
0
71
3
72
10
73
6
74
0
42
0.000000001
43
0.0000000001
44
0.0000000001
40
5.645021445015319e-14
40
5.645021445015319e-14
40
5.645021445015319e-14
40
5.645021445015319e-14
40
9.1790683185500621e-07
40
9.1790683185500621e-07
40
0.00040690459135364453
40
0.00040690459135364453
40
0.00040690459135364453
40
0.00040690459135364453
10
-0.15790390399971396
20
0.83674477236547706
30
-3.0744400026693325e-09
10
-0.15791125611184847
20
0.83674637643726657
30
-3.0744400026693325e-09
10
-0.15791860831850826
20
0.83674798007783424
30
-3.0744400026693325e-09
10
-0.16117774347847402
20
0.83745880975069864
30
-3.0744400026693325e-09
10
-0.16648130904909614
20
0.83776868569571072
30
-3.0744400026693313e-09
10
-0.17386653973406788
20
0.8377727746648993
30
-3.0744400026693308e-09
0
ELLIPSE
5
202
100
AcDbEntity
8
0
100
AcDbEllipse
10
-0.19090661853845287
20
0.79545650349405794
30
-3.0744400026693164e-09
11
-0.043680055959659306
21
-0.035547657266979595
31
0.0
40
0.49905864443655024
41
3.2710498291380192
42
3.551167970888705
0
SPLINE
5
203
100
AcDbEntity
8
0
100
AcDbSpline
70
0
71
3
72
11
73
7
74
0
42
0.000000001
43
0.0000000001
44
0.0000000001
40
8.5748323704633712e-13
40
8.5748323704633712e-13
40
8.5748323704633712e-13
40
8.5748323704633712e-13
40
0.00010668056648456339
40
0.00010668056648456339
40
0.00010668056648456339
40
0.00035545720418599504
40
0.00035545720418599504
40
0.00035545720418599504
40
0.00035545720418599504
10
-0.29388704183830117
20
0.81327721633358674
30
-3.074440002669304e-09
10
-0.29544061100688856
20
0.8129197266624737
30
-3.0744400026693031e-09
10
-0.29699418017547558
20
0.8125622369913611
30
-3.0744400026693031e-09
10
-0.29854774825169961
20
0.81220474792070962
30
-3.0744400026693027e-09
10
-0.30217063345268691
20
0.81137109158894127
30
-3.0744400026693019e-09
10
-0.30457179600288065
20
0.80960827416344339
30
-3.0744400026693015e-09
10
-0.30604184342257446
20
0.80734352302446
30
-3.0744400026693002e-09
0
SPLINE
5
204
100
AcDbEntity
8
0
100
AcDbSpline
70
0
71
3
72
11
73
7
74
0
42
0.000000001
43
0.0000000001
44
0.0000000001
40
4.0736584973446683e-13
40
4.0736584973446683e-13
40
4.0736584973446683e-13
40
4.0736584973446683e-13
40
0.0002217403066775136
40
0.0002217403066775136
40
0.0002217403066775136
40
0.00032714639086709265
40
0.00032714639086709265
40
0.00032714639086709265
40
0.00032714639086709265
10
-0.30552212687881947
20
0.81808471049441789
30
-3.0744400026693031e-09
10
-0.30409079967212793
20
0.81626039716880971
30
-3.0744400026693031e-09
10
-0.30183625837776296
20
0.81501111905258272
30
-3.0744400026693031e-09
10
-0.29855968304394725
20
0.81429642384399314
30
-3.0744400026693031e-09
10
-0.29700213592362851
20
0.81395668757955997
30
-3.0744400026693031e-09
10
-0.29544458887967362
20
0.8136169519624924
30
-3.074440002669304e-09
10
-0.29388704183571895
20
0.81327721634542505
30
-3.074440002669304e-09
0
ELLIPSE
5
205
100
AcDbEntity
8
0
100
AcDbEllipse
10
-0.28331900448689518
20
0.84030480379968553
30
-3.0744400026693126e-09
11
0.021599646977734283
21
0.022856497877443541
31
0.0
40
0.50392497228002564
41
2.6511297052004572
42
3.0863047595742978
0
LINE
5
206
100
AcDbEntity
8
0
100
AcDbLine
10
-0.30779772906943642
20
0.82526976750576675
30
-3.0744400026693048e-09
11
-0.30779117483462709
21
0.83710470654854341
31
-3.0744400026693077e-09
0
LINE
5
207
100
AcDbEntity
8
0
100
AcDbLine
10
-0.30779117483462709
20
0.83710470654854341
30
-3.0744400026693077e-09
11
-0.29064981089974229
21
0.83709521359519745
31
-3.0744400026693106e-09
0
LINE
5
208
100
AcDbEntity
8
0
100
AcDbLine
10
-0.29064981089974229
20
0.83709521359519745
30
-3.0744400026693106e-09
11
-0.29065455737670703
21
0.82852453110108859
31
-3.0744400026693085e-09
0
SPLINE
5
209
100
AcDbEntity
8
0
100
AcDbSpline
70
0
71
3
72
10
73
6
74
0
42
0.000000001
43
0.0000000001
44
0.0000000001
40
3.9145204779134273e-13
40
3.9145204779134273e-13
40
3.9145204779134273e-13
40
3.9145204779134273e-13
40
1.1505540765807846e-06
40
1.1505540765807846e-06
40
0.00016723477446946392
40
0.00016723477446946392
40
0.00016723477446946392
40
0.00016723477446946392
10
-0.2884810914266317
20
0.82249655469350735
30
-3.0744400026693073e-09
10
-0.28849150636121557
20
0.82250568245220901
30
-3.0744400026693073e-09
10
-0.2885019201111369
20
0.82251481144410687
30
-3.0744400026693073e-09
10
-0.29001562643422385
20
0.82384165495709794
30
-3.0744400026693073e-09
10
-0.29065603942313917
20
0.82585382660697604
30
-3.0744400026693077e-09
10
-0.2906545573767142
20
0.82852453108775526
30
-3.0744400026693085e-09
0
SPLINE
5
210
100
AcDbEntity
8
0
100
AcDbSpline
70
0
71
3
72
12
73
8
74
0
42
0.000000001
43
0.0000000001
44
0.0000000001
40
3.6362008000943534e-12
40
3.6362008000943534e-12
40
3.6362008000943534e-12
40
3.6362008000943534e-12
40
0.00010012434728099506
40
0.00010012434728099506
40
0.00020024868553178033
40
0.00020024868553178033
40
0.00020163544932601035
40
0.00020163544932601035
40
0.00020163544932601035
40
0.00020163544932601035
10
-0.28083306434486766
20
0.82092009697530366
30
-3.0744400026693077e-09
10
-0.28258652017150537
20
0.82092106804589171
30
-3.0744400026693077e-09
10
-0.28409061275689962
20
0.8210341170325075
30
-3.0744400026693077e-09
10
-0.28661726484182287
20
0.82151666736369222
30
-3.0744400026693073e-09
10
-0.28764861154654814
20
0.8218738406999736
30
-3.0744400026693073e-09
10
-0.28845895168598523
20
0.82247999328327137
30
-3.0744400026693073e-09
10
-0.28847002199958272
20
0.82248827355186216
30
-3.0744400026693073e-09
10
-0.2884810914266317
20
0.82249655469350735
30
-3.0744400026693073e-09
0
LINE
5
211
100
AcDbEntity
8
0
100
AcDbLine
10
-0.28083306434486766
20
0.82092009697530366
30
-3.0744400026693077e-09
11
-0.25098412382245516
21
0.82090356651711582
31
-3.0744400026693131e-09
0
LINE
5
212
100
AcDbEntity
8
0
100
AcDbLine
10
-0.25098412382245516
20
0.82090356651711582
30
-3.0744400026693131e-09
11
-0.25097516899412237
21
0.83707324162575192
31
-3.0744400026693172e-09
0
LINE
5
213
100
AcDbEntity
8
0
100
AcDbLine
10
-0.25097516899412237
20
0.83707324162575192
30
-3.0744400026693172e-09
11
-0.23383116805970944
21
0.83706374721202559
31
-3.0744400026693201e-09
0
LINE
5
214
100
AcDbEntity
8
0
100
AcDbLine
10
-0.23383116805970944
20
0.83706374721202559
30
-3.0744400026693201e-09
11
-0.23386497886583971
21
0.77601179512896712
31
-3.0744400026693048e-09
0
LINE
5
215
100
AcDbEntity
8
0
100
AcDbLine
10
-0.23386497886583971
20
0.77601179512896712
30
-3.0744400026693048e-09
11
-0.28352891596597485
21
0.77603929920855308
31
-3.0744400026692961e-09
0
SPLINE
5
216
100
AcDbEntity
8
0
100
AcDbSpline
70
0
71
3
72
12
73
8
74
0
42
0.000000001
43
0.0000000001
44
0.0000000001
40
0
40
0
40
0
40
0
40
0.0092496837469158381
40
0.0092496837469158381
40
0.020877264592550529
40
0.020877264592550529
40
0.050930144971595287
40
0.050930144971595287
40
0.050930144971595287
40
0.050930144971595287
10
-0.30332007639396086
20
0.78025942616768729
30
-3.0744400026692936e-09
10
-0.30237201994897772
20
0.77950135791356712
30
-3.0744400026692936e-09
10
-0.30125975624186935
20
0.77890891818494024
30
-3.0744400026692936e-09
10
-0.29872959500105806
20
0.77785816838086863
30
-3.0744400026692936e-09
10
-0.29719982385013155
20
0.77742914969596899
30
-3.074440002669294e-09
10
-0.29185076157431195
20
0.77628843776582934
30
-3.074440002669294e-09
10
-0.28747651716930944
20
0.77604148540529871
30
-3.0744400026692961e-09
10
-0.28352891598523411
20
0.77603929920856374
30
-3.0744400026692961e-09
0
ELLIPSE
5
217
100
AcDbEntity
8
0
100
AcDbEllipse
10
-0.22806338884651775
20
0.90124551402042652
30
-3.0744400026693379e-09
11
0.074157745907221531
21
0.12177414727340057
31
0.0
40
0.25070934090111935
41
2.7505645090258266
42
3.1038590934135915
0
ELLIPSE
5
218
100
AcDbEntity
8
0
100
AcDbEllipse
10
-0.28762885921012626
20
0.76326798272529028
30
-3.0744400026692924e-09
11
-0.015723038367737682
21
0.046424439446537256
31
0.0
40
0.28772114490116008
41
0.23628276335669635
42
0.70334188637669315
0
LWPOLYLINE
5
219
100
AcDbEntity
8
0
100
AcDbPolyline
90
11
70
1
43
0.0
10
-0.31587002039001633
20
0.83710918064431772
10
-0.33300874832537286
20
0.83711867213783764
10
-0.33303527844581832
20
0.78921340670396767
10
-0.37241571127885725
20
0.8371404958656482
10
-0.39886737854892973
20
0.83715514490082876
10
-0.39902442237228325
20
0.83686839483562059
10
-0.3990580743270068
20
0.77610327970127191
10
-0.38206436636571928
20
0.77609386852037254
10
-0.38203765866588546
20
0.82431978789690474
10
-0.34280173438642592
20
0.77607212472361076
10
-0.31590383119614668
20
0.77605722856125969
0
LWPOLYLINE
5
220
100
AcDbEntity
8
0
100
AcDbPolyline
90
8
70
1
43
0.0
10
-0.43473676994715826
20
0.77612303870027954
10
-0.40131065511203801
20
0.83715649799679681
10
-0.41994884277927014
20
0.8371668198968889
10
-0.42603758455923768
20
0.82663781751860044
10
-0.46584489644113436
20
0.82665986296118976
10
-0.47192197248574874
20
0.83719560281623095
10
-0.49072267512392004
20
0.83720601471774014
10
-0.45793731979857555
20
0.77613588725411531
0
LWPOLYLINE
5
221
100
AcDbEntity
8
0
100
AcDbPolyline
90
7
70
1
43
0.0
10
-0.51017248564602236
20
0.83721678609769434
10
-0.53217325271197824
20
0.8372289702072041
10
-0.56459828572610538
20
0.77619495650771986
10
-0.54654570495415866
20
0.77618495891898087
10
-0.52117944996371546
20
0.82273528494417136
10
-0.49587017901565023
20
0.77615689461760151
10
-0.47782016924324433
20
0.77614689845269214
0
LINE
5
222
100
AcDbEntity
8
0
100
AcDbLine
10
-0.56459828572610538
20
0.77619495650771986
30
-3.0744400026692494e-09
11
-0.54654570495415866
21
0.77618495891898087
31
-3.0744400026692518e-09
0
LINE
5
223
100
AcDbEntity
8
0
100
AcDbLine
10
-0.52117944996371546
20
0.82273528494417136
30
-3.074440002669268e-09
11
-0.54654570495415866
21
0.77618495891898087
31
-3.0744400026692518e-09
0
LINE
5
224
100
AcDbEntity
8
0
100
AcDbLine
10
-0.56459828572610538
20
0.77619495650771986
30
-3.0744400026692494e-09
11
-0.53217325271197824
21
0.8372289702072041
31
-3.07444000266927e-09
0
LINE
5
225
100
AcDbEntity
8
0
100
AcDbLine
10
-0.53217325271197824
20
0.8372289702072041
30
-3.07444000266927e-09
11
-0.51017248564602236
21
0.83721678609769434
31
-3.0744400026692742e-09
0
LINE
5
226
100
AcDbEntity
8
0
100
AcDbLine
10
-0.51017248564602236
20
0.83721678609769434
30
-3.0744400026692742e-09
11
-0.47782016924324433
21
0.77614689845269214
31
-3.0744400026692634e-09
0
LINE
5
227
100
AcDbEntity
8
0
100
AcDbLine
10
-0.47782016924324433
20
0.77614689845269214
30
-3.0744400026692634e-09
11
-0.49587017901565023
21
0.77615689461760151
31
-3.0744400026692605e-09
0
LINE
5
228
100
AcDbEntity
8
0
100
AcDbLine
10
-0.52117944996371546
20
0.82273528494417136
30
-3.074440002669268e-09
11
-0.49587017901565023
21
0.77615689461760151
31
-3.0744400026692605e-09
0
LINE
5
229
100
AcDbEntity
8
0
100
AcDbLine
10
-0.45793731979857555
20
0.77613588725411531
30
-3.0744400026692667e-09
11
-0.43473676994715826
21
0.77612303870027954
31
-3.0744400026692709e-09
0
LINE
5
230
100
AcDbEntity
8
0
100
AcDbLine
10
-0.43473676994715826
20
0.77612303870027954
30
-3.0744400026692709e-09
11
-0.40131065511203801
21
0.83715649799679681
31
-3.0744400026692924e-09
0
LINE
5
231
100
AcDbEntity
8
0
100
AcDbLine
10
-0.41994884277927014
20
0.8371668198968889
30
-3.0744400026692891e-09
11
-0.42603758455923768
21
0.82663781751860044
31
-3.0744400026692849e-09
0
LINE
5
232
100
AcDbEntity
8
0
100
AcDbLine
10
-0.42603758455923768
20
0.82663781751860044
30
-3.0744400026692849e-09
11
-0.46584489644113436
21
0.82665986296118976
31
-3.0744400026692787e-09
0
LINE
5
233
100
AcDbEntity
8
0
100
AcDbLine
10
-0.47192197248574874
20
0.83719560281623095
30
-3.0744400026692804e-09
11
-0.46584489644113436
21
0.82665986296118976
31
-3.0744400026692787e-09
0
LINE
5
234
100
AcDbEntity
8
0
100
AcDbLine
10
-0.47192197248574874
20
0.83719560281623095
30
-3.0744400026692804e-09
11
-0.49072267512392004
21
0.83720601471774014
31
-3.0744400026692771e-09
0
LINE
5
235
100
AcDbEntity
8
0
100
AcDbLine
10
-0.49072267512392004
20
0.83720601471774014
30
-3.0744400026692771e-09
11
-0.45793731979857555
21
0.77613588725411531
31
-3.0744400026692667e-09
0
LINE
5
236
100
AcDbEntity
8
0
100
AcDbLine
10
-0.3990580743270068
20
0.77610327970127191
30
-3.0744400026692767e-09
11
-0.39886737854892973
21
0.83715514490082876
31
-3.0744400026692924e-09
0
LINE
5
237
100
AcDbEntity
8
0
100
AcDbLine
10
-0.40131065511203801
20
0.83715649799679681
30
-3.0744400026692924e-09
11
-0.41994884277927014
21
0.8371668198968889
31
-3.0744400026692891e-09
0
LINE
5
238
100
AcDbEntity
8
0
100
AcDbLine
10
-0.39902442237228325
20
0.83686839483562059
30
-3.0744400026692924e-09
11
-0.37241571127885725
21
0.8371404958656482
31
-3.0744400026692969e-09
0
LINE
5
239
100
AcDbEntity
8
0
100
AcDbLine
10
-0.3990580743270068
20
0.77610327970127191
30
-3.0744400026692767e-09
11
-0.38206436636571928
21
0.77609386852037254
31
-3.0744400026692791e-09
0
LINE
5
240
100
AcDbEntity
8
0
100
AcDbLine
10
-0.37241571127885725
20
0.8371404958656482
30
-3.0744400026692969e-09
11
-0.33303527844581832
21
0.78921340670396767
31
-3.0744400026692911e-09
0
LINE
5
241
100
AcDbEntity
8
0
100
AcDbLine
10
-0.33303527844581832
20
0.78921340670396767
30
-3.0744400026692911e-09
11
-0.33300874832537286
21
0.83711867213783764
31
-3.0744400026693031e-09
0
LINE
5
242
100
AcDbEntity
8
0
100
AcDbLine
10
-0.33300874832537286
20
0.83711867213783764
30
-3.0744400026693031e-09
11
-0.31587002039001633
21
0.83710918064431772
31
-3.0744400026693064e-09
0
LINE
5
243
100
AcDbEntity
8
0
100
AcDbLine
10
-0.31587002039001633
20
0.83710918064431772
30
-3.0744400026693064e-09
11
-0.31590383119614668
21
0.77605722856125969
31
-3.0744400026692903e-09
0
LINE
5
244
100
AcDbEntity
8
0
100
AcDbLine
10
-0.31590383119614668
20
0.77605722856125969
30
-3.0744400026692903e-09
11
-0.34280173438642592
21
0.77607212472361076
31
-3.0744400026692866e-09
0
LINE
5
245
100
AcDbEntity
8
0
100
AcDbLine
10
-0.34280173438642592
20
0.77607212472361076
30
-3.0744400026692866e-09
11
-0.38203765866588546
21
0.82431978789690474
31
-3.0744400026692924e-09
0
LINE
5
246
100
AcDbEntity
8
0
100
AcDbLine
10
-0.38203765866588546
20
0.82431978789690474
30
-3.0744400026692924e-09
11
-0.38206436636571928
21
0.77609386852037254
31
-3.0744400026692791e-09
0
LWPOLYLINE
5
247
100
AcDbEntity
8
0
100
AcDbPolyline
90
3
70
1
43
0.0
10
-0.4580000028615509
20
0.81200000507331738
10
-0.44600000278657576
20
0.79000000493586287
10
-0.43500000271784856
20
0.81200000507331738
0
LINE
5
248
100
AcDbEntity
8
0
100
AcDbLine
10
-0.30779117483462709
20
0.83710470654854341
30
-3.0744400026693077e-09
11
-0.29064981089974229
21
0.83709521359519745
31
-3.0744400026693106e-09
0
LINE
5
249
100
AcDbEntity
8
0
100
AcDbLine
10
-0.29064981089974229
20
0.83709521359519745
30
-3.0744400026693106e-09
11
-0.29065455737670703
21
0.82852453110108859
31
-3.0744400026693085e-09
0
LINE
5
250
100
AcDbEntity
8
0
100
AcDbLine
10
-0.28083306434486766
20
0.82092009697530366
30
-3.0744400026693077e-09
11
-0.25098412382245516
21
0.82090356651711582
31
-3.0744400026693131e-09
0
LINE
5
251
100
AcDbEntity
8
0
100
AcDbLine
10
-0.25097516899412237
20
0.83707324162575192
30
-3.0744400026693172e-09
11
-0.25098412382245516
21
0.82090356651711582
31
-3.0744400026693131e-09
0
LWPOLYLINE
5
252
100
AcDbEntity
8
0
100
AcDbPolyline
90
4
70
1
43
0.0
10
-0.25200000157447777
20
0.79100000494211087
10
-0.25200000157447777
20
0.8060000050358298
10
-0.28200000176191564
20
0.8060000050358298
42
0.99999999999999989
10
-0.28200000176191564
20
0.79100000494211087
0
LINE
5
253
100
AcDbEntity
8
0
100
AcDbLine
10
-0.25097516899412237
20
0.83707324162575192
30
-3.0744400026693172e-09
11
-0.23383116805970944
21
0.83706374721202559
31
-3.0744400026693201e-09
0
LINE
5
254
100
AcDbEntity
8
0
100
AcDbLine
10
-0.23383116805970944
20
0.83706374721202559
30
-3.0744400026693201e-09
11
-0.23386497886583971
21
0.77601179512896712
31
-3.0744400026693048e-09
0
LINE
5
255
100
AcDbEntity
8
0
100
AcDbLine
10
-0.23386497886583971
20
0.77601179512896712
30
-3.0744400026693048e-09
11
-0.28352891596597485
21
0.77603929920855308
31
-3.0744400026692961e-09
0
LINE
5
256
100
AcDbEntity
8
0
100
AcDbLine
10
-0.30779117483462709
20
0.83710470654854341
30
-3.0744400026693077e-09
11
-0.30779772906943642
21
0.82526976750576675
31
-3.0744400026693048e-09
0
ARC
5
257
100
AcDbEntity
8
0
100
AcDbCircle
10
-0.29569535045908307
20
0.82524376404544963
30
-3.074440002669306e-09
40
0.012102406546149564
210
1.080997142894713e-22
220
2.1601109975046744e-22
230
1
100
AcDbArc
50
179.87689310637714
51
278.5931583778808
0
ARC
5
258
100
AcDbEntity
8
0
100
AcDbCircle
10
-0.2834161396862559
20
0.82772861350018467
30
-3.0744400026693093e-09
40
0.0072820447326877842
210
1.1954728102250002e-22
220
2.6888441288979062e-22
230
1
100
AcDbArc
50
173.72511305086127
51
290.77618747467221
0
ARC
5
259
100
AcDbEntity
8
0
100
AcDbCircle
10
-0.28810689419574131
20
0.79364333855906433
30
-3.0744400026688271e-09
40
0.020262527569291162
210
-2.4082376358474647e-20
220
-7.4658568878912924e-21
230
1
100
AcDbArc
50
174.03421336094689
51
221.33994855923765
0
ARC
5
260
100
AcDbEntity
8
0
100
AcDbCircle
10
-0.28669809143060965
20
0.80969423249588246
30
-3.074440002669304e-09
40
0.033803819424737064
210
1.8930331387003553e-22
220
2.4714197721442849e-22
230
1
100
AcDbArc
50
240.54636168493005
51
275.37949372515374
0
ARC
5
261
100
AcDbEntity
8
0
100
AcDbCircle
10
-0.2842342042297149
20
0.79716274380509278
30
-3.0744400026695e-09
40
0.024067018774236164
210
8.5131556907496362e-21
220
-1.3410670246745779e-21
230
1
100
AcDbArc
50
154.97473408171723
51
183.36685164469114
0
ARC
5
262
100
AcDbEntity
8
0
100
AcDbCircle
10
-0.29051307040527424
20
0.79094982168452621
30
-3.0744400026692903e-09
40
0.022580882069701949
210
2.396655089074156e-23
220
6.162229104962328e-22
230
1
100
AcDbArc
50
98.593152068932653
51
133.44797053057874
0
LINE
5
263
100
AcDbEntity
8
0
100
AcDbLine
10
-0.185101621451746
20
0.77524387169912701
30
-3.0744400026693126e-09
11
-0.185101621451746
21
0.78500000490462329
31
-3.0744400026693126e-09
0
LINE
5
264
100
AcDbEntity
8
0
100
AcDbLine
10
-0.18514114720230732
20
0.83777901858592541
30
-3.0744400026693288e-09
11
-0.19641575467054678
21
0.83778526250695162
31
-3.0744400026693267e-09
0
ARC
5
265
100
AcDbEntity
8
0
100
AcDbCircle
10
-0.19648398074015447
20
0.71458989365246106
30
-3.0744400026686885e-09
40
0.12319538774642171
210
-1.2508250217298421e-22
220
5.181244964434311e-21
230
1
100
AcDbArc
50
89.968269379945056
51
97.346161020097867
0
ARC
5
266
100
AcDbEntity
8
0
100
AcDbCircle
10
-0.21001697482723125
20
0.81961830231591148
30
-3.074440002669349e-09
40
0.017298701469581609
210
7.9493308110276045e-22
220
-1.377815627424185e-21
230
1
100
AcDbArc
50
97.370700426831789
51
126.23998303055711
0
ARC
5
267
100
AcDbEntity
8
0
100
AcDbCircle
10
-0.21139099631070463
20
0.82213484841131568
30
-3.0744400026693217e-09
40
0.014461687838902625
210
2.5627983539038534e-22
220
1.9838764613610259e-22
230
1
100
AcDbArc
50
127.743653261104
51
161.24242129850705
0
ARC
5
268
100
AcDbEntity
8
0
100
AcDbCircle
10
-0.18368070190772215
20
0.81526191796287517
30
-3.0744400026693019e-09
40
0.042977532579540942
210
-3.1800171320971344e-22
220
3.2698093972757771e-22
230
1
100
AcDbArc
50
164.44734802235658
51
179.96826937994436
0
LINE
5
269
100
AcDbEntity
8
0
100
AcDbLine
10
-0.2266582278966873
20
0.81528571908224345
30
-3.0744400026693155e-09
11
-0.22666792232885369
21
0.79778054615574623
31
-3.074440002669311e-09
0
LINE
5
270
100
AcDbEntity
8
0
100
AcDbLine
10
-0.22666307511277048
20
0.80653313261899495
30
-3.0744400026693139e-09
11
-0.21600000134955238
21
0.80653313261899495
31
-3.0744400026693139e-09
0
LINE
5
271
100
AcDbEntity
8
0
100
AcDbLine
10
-0.18514114720230732
20
0.77528724665206439
30
-3.0744400026693288e-09
11
-0.19641575467054678
21
0.77528100273103817
31
-3.0744400026693267e-09
0
ARC
5
272
100
AcDbEntity
8
0
100
AcDbCircle
10
-0.19648398074015447
20
0.89847637158552873
30
-3.0744400026686885e-09
40
0.12319538774641911
210
-1.4391969131139812e-21
220
-5.0118578769079207e-21
230
1
100
AcDbArc
50
262.6538389799021
51
270.03173062005493
0
ARC
5
273
100
AcDbEntity
8
0
100
AcDbCircle
10
-0.21001697482723125
20
0.79344796292207831
30
-3.074440002669349e-09
40
0.017298701469581415
210
2.1089241921184781e-21
220
4.1489930165802657e-22
230
1
100
AcDbArc
50
233.76001696944289
51
262.62929957316823
0
ARC
5
274
100
AcDbEntity
8
0
100
AcDbCircle
10
-0.21139099631070463
20
0.79093141682667412
30
-3.0744400026693217e-09
40
0.014461687838902854
210
1.3667726044951921e-22
220
1.5777039873054811e-22
230
1
100
AcDbArc
50
198.75757870149292
51
232.25634673889601
0
ARC
5
275
100
AcDbEntity
8
0
100
AcDbCircle
10
-0.18368070190772215
20
0.79780434727511462
30
-3.0744400026693019e-09
40
0.042977532579540415
210
-3.1843555086352977e-22
220
3.2698069946661462e-22
230
1
100
AcDbArc
50
180.03173062005567
51
195.55265197764345
0
LINE
5
276
100
AcDbEntity
8
0
100
AcDbLine
10
-0.2266582278966873
20
0.79778054615574634
30
-3.0744400026693155e-09
11
-0.22666792232885369
21
0.81528571908224357
31
-3.074440002669311e-09
0
LINE
5
277
100
AcDbEntity
8
0
100
AcDbLine
10
-0.18506209570118468
20
0.83777901858592541
30
-3.0744400026693288e-09
11
-0.17378748823294524
21
0.83778526250695162
31
-3.0744400026693267e-09
0
ARC
5
278
100
AcDbEntity
8
0
100
AcDbCircle
10
-0.17371926216333752
20
0.71458989365246106
30
-3.0744400026686885e-09
40
0.12319538774641911
210
-1.2098858323892094e-22
220
5.212999990002553e-21
230
1
100
AcDbArc
50
82.653838979902162
51
90.031730620054972
0
ARC
5
279
100
AcDbEntity
8
0
100
AcDbCircle
10
-0.16018626807626074
20
0.81961830231591148
30
-3.074440002669349e-09
40
0.017298701469581415
210
2.392161215076033e-22
220
-2.1359958627838574e-21
230
1
100
AcDbArc
50
53.760016969442951
51
82.629299573168325
0
ARC
5
280
100
AcDbEntity
8
0
100
AcDbCircle
10
-0.15881224659278736
20
0.82213484841131568
30
-3.0744400026693217e-09
40
0.014461687838902854
210
-2.0448898873829521e-22
220
4.1909733050584228e-23
230
1
100
AcDbArc
50
18.75757870149295
51
52.256346738896077
0
ARC
5
281
100
AcDbEntity
8
0
100
AcDbCircle
10
-0.18652254099576984
20
0.81526191796287517
30
-3.0744400026693019e-09
40
0.042977532579540415
210
3.1807318930645829e-22
220
3.2733320045765929e-22
230
1
100
AcDbArc
50
0.031730620044157512
51
15.552651977643464
0
LINE
5
282
100
AcDbEntity
8
0
100
AcDbLine
10
-0.14354501500680472
20
0.79778054615574634
30
-3.0744400026693155e-09
11
-0.1435353205746383
21
0.81528571908224357
31
-3.074440002669311e-09
0
ARC
5
283
100
AcDbEntity
8
0
100
AcDbCircle
10
-0.18652254099576984
20
0.79780434727511462
30
-3.0744400026693019e-09
40
0.042977532579540415
210
4.4117041323326757e-22
220
1.155714042881699e-22
230
1
100
AcDbArc
50
344.44734802235655
51
359.96826937995587
0
ARC
5
284
100
AcDbEntity
8
0
100
AcDbCircle
10
-0.15881224659278736
20
0.79093141682667412
30
-3.0744400026693217e-09
40
0.014461687838902899
210
1.6183205601377429e-22
220
1.2527509475348823e-22
230
1
100
AcDbArc
50
307.74365326110387
51
341.242421298507
0
ARC
5
285
100
AcDbEntity
8
0
100
AcDbCircle
10
-0.16018626807626074
20
0.79344796292207831
30
-3.074440002669349e-09
40
0.017298701469581422
210
1.9386224045293121e-21
220
1.7314211437201769e-21
230
1
100
AcDbArc
50
277.37070042683166
51
306.23998303055703
0
ARC
5
286
100
AcDbEntity
8
0
100
AcDbCircle
10
-0.17371926216333752
20
0.89847637158552873
30
-3.0744400026686885e-09
40
0.12319538774641908
210
-1.4392902405441463e-21
220
-5.1803786087862388e-21
230
1
100
AcDbArc
50
269.96826937994507
51
277.34616102009784
0
LINE
5
287
100
AcDbEntity
8
0
100
AcDbLine
10
-0.18506209570118468
20
0.77528724665206439
30
-3.0744400026693288e-09
11
-0.17378748823294524
21
0.77528100273103817
31
-3.0744400026693267e-09
0
LINE
5
288
100
AcDbEntity
8
0
100
AcDbLine
10
-0.20800000129956897
20
0.80653313261899495
30
0
11
-0.20400000127457726
21
0.80653313261899495
31
0
0
LINE
5
289
100
AcDbEntity
8
0
100
AcDbLine
10
-0.20800000129956897
20
0.80653313261899495
30
0
11
-0.20800000129956897
21
0.81300000507956527
31
0
0
ARC
5
290
100
AcDbEntity
8
0
100
AcDbCircle
10
-0.19800000123709008
20
0.81300000507956538
30
0
40
0.010000000062478901
210
0
220
0
230
1
100
AcDbArc
50
126.8698976458429
51
180
0
ARC
5
291
100
AcDbEntity
8
0
100
AcDbCircle
10
-0.19500943576199953
20
0.80179246045571728
30
0
40
0.021207546784887253
210
0
220
-0
230
1
100
AcDbArc
50
89.974510981571896
51
115.08310443673109
0
LINE
5
292
100
AcDbEntity
8
0
100
AcDbLine
10
-0.18500000115586662
20
0.82300000514204452
30
0
11
-0.1950000012183459
21
0.82300000514204452
31
0
0
LINE
5
293
100
AcDbEntity
8
0
100
AcDbLine
10
-0.18500000115586662
20
0.82300000514204452
30
0
11
-0.18500000115586662
21
0.82150000513267263
31
0
0
LINE
5
294
100
AcDbEntity
8
0
100
AcDbLine
10
-0.18500000115586662
20
0.79006626009594527
30
0
11
-0.1950000012183459
21
0.79006626009594527
31
0
0
ARC
5
295
100
AcDbEntity
8
0
100
AcDbCircle
10
-0.19500943576199953
20
0.81127380478227251
30
0
40
0.021207546784887243
210
0
220
0
230
1
100
AcDbArc
50
244.91689556326892
51
270.02548901842812
0
ARC
5
296
100
AcDbEntity
8
0
100
AcDbCircle
10
-0.19800000123709008
20
0.80006626015842441
30
0
40
0.010000000062478883
210
0
220
0
230
1
100
AcDbArc
50
180
51
233.13010235415712
0
LINE
5
297
100
AcDbEntity
8
0
100
AcDbLine
10
-0.20800000129956897
20
0.80653313261899495
30
0
11
-0.20800000129956897
21
0.80006626015842452
31
0
0
LINE
5
298
100
AcDbEntity
8
0
100
AcDbLine
10
-0.18500000115586662
20
0.82300000514204452
30
0
11
-0.17500000109338734
21
0.82300000514204452
31
0
0
ARC
5
299
100
AcDbEntity
8
0
100
AcDbCircle
10
-0.17499056654973372
20
0.80179246045571728
30
0
40
0.021207546784887243
210
0
220
-0
230
1
100
AcDbArc
50
64.91689556326898
51
90.02548901842809
0
LINE
5
300
100
AcDbEntity
8
0
100
AcDbLine
10
-0.1620000010121643
20
0.80653313261899495
30
0
11
-0.1620000010121643
21
0.81300000507956527
31
0
0
LINE
5
301
100
AcDbEntity
8
0
100
AcDbLine
10
-0.1620000010121643
20
0.80653313261899495
30
0
11
-0.1620000010121643
21
0.80006626015842452
31
0
0
ARC
5
302
100
AcDbEntity
8
0
100
AcDbCircle
10
-0.17200000107464317
20
0.81300000507956538
30
0
40
0.010000000062478883
210
0
220
0
230
1
100
AcDbArc
50
0
51
53.130102354157238
0
ARC
5
303
100
AcDbEntity
8
0
100
AcDbCircle
10
-0.17200000107464317
20
0.80006626015842441
30
0
40
0.010000000062478901
210
0
220
0
230
1
100
AcDbArc
50
-53.130102354157259
51
0
0
ARC
5
304
100
AcDbEntity
8
0
100
AcDbCircle
10
-0.17499056654973372
20
0.81127380478227251
30
0
40
0.021207546784887253
210
0
220
0
230
1
100
AcDbArc
50
269.97451098157194
51
295.08310443673099
0
LINE
5
305
100
AcDbEntity
8
0
100
AcDbLine
10
-0.18500000115586662
20
0.79006626009594527
30
0
11
-0.17500000109338734
21
0.79006626009594527
31
0
0
LINE
5
306
100
AcDbEntity
8
0
100
AcDbLine
10
-0.14108353545645755
20
0.77596041240837332
30
-3.0744400026693197e-09
11
-0.071130022965122455
21
0.77592167188381511
31
-3.0744400026693313e-09
0
LINE
5
307
100
AcDbEntity
8
0
100
AcDbLine
10
-0.071122665590355766
20
0.78920683550824222
30
-3.0744400026693354e-09
11
-0.071130022965122455
21
0.77592167188381511
31
-3.0744400026693313e-09
0
LINE
5
308
100
AcDbEntity
8
0
100
AcDbLine
10
-0.071122665590355766
20
0.78920683550824222
30
-3.0744400026693354e-09
11
-0.097528080868698436
21
0.78922145892889162
31
-3.0744400026693308e-09
0
LINE
5
309
100
AcDbEntity
8
0
100
AcDbLine
10
-0.097528080868698436
20
0.78922145892889162
30
-3.0744400026693308e-09
11
-0.097501627437334856
21
0.83698824738752298
31
-3.0744400026693433e-09
0
LINE
5
310
100
AcDbEntity
8
0
100
AcDbLine
10
-0.097501627437334856
20
0.83698824738752298
30
-3.0744400026693433e-09
11
-0.11464365037210189
21
0.83699774070582589
31
-3.0744400026693404e-09
0
LINE
5
311
100
AcDbEntity
8
0
100
AcDbLine
10
-0.11464365037210189
20
0.83699774070582589
30
-3.0744400026693404e-09
11
-0.11467010380346551
21
0.78923095224719464
31
-3.074440002669328e-09
0
LINE
5
312
100
AcDbEntity
8
0
100
AcDbLine
10
-0.11467010380346551
20
0.78923095224719464
30
-3.074440002669328e-09
11
-0.14107617808169082
21
0.78924557603280032
31
-3.0744400026693234e-09
0
LINE
5
313
100
AcDbEntity
8
0
100
AcDbLine
10
-0.14107617808169082
20
0.78924557603280032
30
-3.0744400026693234e-09
11
-0.14108353545645755
21
0.77596041240837332
31
-3.0744400026693197e-09
0
LINE
5
314
100
AcDbEntity
8
0
100
AcDbLine
10
0.1282193782061879
20
0.79561579095059187
30
-3.0744400026693706e-09
11
0.11317032233810731
21
0.76799780764269165
31
-3.0744400026693606e-09
0
LINE
5
315
100
AcDbEntity
8
0
100
AcDbLine
10
0.11317032233810731
20
0.76799780764269165
30
-3.0744400026693606e-09
11
0.12818877909353532
21
0.74036317283053199
31
-3.0744400026693561e-09
0
LINE
5
316
100
AcDbEntity
8
0
100
AcDbLine
10
0.12818877909353532
20
0.74036317283053199
30
-3.0744400026693561e-09
11
0.14323539496205251
21
0.76798115748971363
31
-3.0744400026693652e-09
0
LINE
5
317
100
AcDbEntity
8
0
100
AcDbLine
10
0.14323539496205251
20
0.76798115748971363
30
-3.0744400026693652e-09
11
0.1282193782061879
21
0.79561579095059187
31
-3.0744400026693706e-09
0
LINE
5
318
100
AcDbEntity
8
0
100
AcDbLine
10
0.1028700809212291
20
0.77582530995633536
30
-3.0744400026693606e-09
11
0.084996599117257085
21
0.77583520835937581
31
-3.0744400026693581e-09
0
LINE
5
319
100
AcDbEntity
8
0
100
AcDbLine
10
0.084996599117257085
20
0.77583520835937581
30
-3.0744400026693581e-09
11
0.1172431961632914
21
0.83686932087738652
31
-3.0744400026693788e-09
0
LINE
5
320
100
AcDbEntity
8
0
100
AcDbLine
10
0.1172431961632914
20
0.83686932087738652
30
-3.0744400026693788e-09
11
0.13924266822947845
21
0.83685713748505253
31
-3.074440002669383e-09
0
LINE
5
321
100
AcDbEntity
8
0
100
AcDbLine
10
0.13924266822947845
20
0.83685713748505253
30
-3.074440002669383e-09
11
0.17159625963202849
21
0.77578724913395058
31
-3.0744400026693722e-09
0
LINE
5
322
100
AcDbEntity
8
0
100
AcDbLine
10
0.17159625963202849
20
0.77578724913395058
30
-3.0744400026693722e-09
11
0.15354430385997023
21
0.775797246376562
31
-3.0744400026693693e-09
0
LINE
5
323
100
AcDbEntity
8
0
100
AcDbLine
10
0.15354430385997023
20
0.775797246376562
30
-3.0744400026693693e-09
11
0.12823500793793849
21
0.82237568371696845
31
-3.0744400026693768e-09
0
LINE
5
324
100
AcDbEntity
8
0
100
AcDbLine
10
0.12823500793793849
20
0.82237568371696845
30
-3.0744400026693768e-09
11
0.1028700809212291
21
0.77582530995633536
31
-3.0744400026693606e-09
0
LINE
5
325
100
AcDbEntity
8
0
100
AcDbLine
10
0.015875135853222342
20
0.78915865579083766
30
-3.0744400026693495e-09
11
0.015867778478455635
21
0.77587349216641055
31
-3.0744400026693461e-09
0
LINE
5
326
100
AcDbEntity
8
0
100
AcDbLine
10
0.015875135853222342
20
0.78915865579083766
30
-3.0744400026693495e-09
11
0.065719658940325595
21
0.78913105170203734
31
-3.0744400026693581e-09
0
LINE
5
327
100
AcDbEntity
8
0
100
AcDbLine
10
0.065726102879491974
20
0.8007668306213972
30
-3.0744400026693615e-09
11
0.065719658940325595
21
0.78913105170203734
31
-3.0744400026693581e-09
0
LINE
5
328
100
AcDbEntity
8
0
100
AcDbLine
10
0.065726102879491974
20
0.8007668306213972
30
-3.0744400026693615e-09
11
0.018848547261853577
21
0.80079279159218975
31
-3.0744400026693528e-09
0
LINE
5
329
100
AcDbEntity
8
0
100
AcDbLine
10
0.018848547261853577
20
0.80079279159218975
30
-3.0744400026693528e-09
11
0.018854754709650434
21
0.81200153958790922
31
-3.0744400026693561e-09
0
LINE
5
330
100
AcDbEntity
8
0
100
AcDbLine
10
0.018854754709650434
20
0.81200153958790922
30
-3.0744400026693561e-09
11
0.065732310327288809
21
0.81197557861711678
31
-3.0744400026693639e-09
0
LINE
5
331
100
AcDbEntity
8
0
100
AcDbLine
10
0.065732310327288809
20
0.81197557861711678
30
-3.0744400026693639e-09
11
0.065738837499282499
21
0.82376165050960226
31
-3.0744400026693672e-09
0
LINE
5
332
100
AcDbEntity
8
0
100
AcDbLine
10
0.065738837499282499
20
0.82376165050960226
30
-3.0744400026693672e-09
11
0.015152078544901566
21
0.82378966565148382
31
-3.0744400026693586e-09
0
LINE
5
333
100
AcDbEntity
8
0
100
AcDbLine
10
0.015152078544901566
20
0.82378966565148382
30
-3.0744400026693586e-09
11
0.015159353417308169
21
0.83692585530254993
31
-3.0744400026693619e-09
0
LINE
5
334
100
AcDbEntity
8
0
100
AcDbLine
10
0.015159353417308169
20
0.83692585530254993
30
-3.0744400026693619e-09
11
0.082886817306691729
21
0.83688834757227881
31
-3.074440002669373e-09
0
LINE
5
335
100
AcDbEntity
8
0
100
AcDbLine
10
0.082886817306691729
20
0.83688834757227881
30
-3.074440002669373e-09
11
0.082853489504933445
21
0.77670855333326638
31
-3.0744400026693573e-09
0
LINE
5
336
100
AcDbEntity
8
0
100
AcDbLine
10
0.082853489504933445
20
0.77670855333326638
30
-3.0744400026693573e-09
11
0.082390263583306408
21
0.77583665175802985
31
-3.0744400026693573e-09
0
LINE
5
337
100
AcDbEntity
8
0
100
AcDbLine
10
0.082390263583306408
20
0.77583665175802985
30
-3.0744400026693573e-09
11
0.015867778478455635
21
0.77587349216641055
31
-3.0744400026693461e-09
0
LINE
5
338
100
AcDbEntity
8
0
100
AcDbLine
10
-0.32448989926870059
20
0.73317746607454315
30
-3.0744400026692779e-09
11
-0.06856045403245975
21
0.73303573136237343
31
-3.0744400026693209e-09
0
LINE
5
339
100
AcDbEntity
8
0
100
AcDbLine
10
-0.06856045403245975
20
0.73303573136237343
30
-3.0744400026693209e-09
11
-0.13408749851899965
21
0.61968492199143177
31
-3.0744400026692804e-09
0
LINE
5
340
100
AcDbEntity
8
0
100
AcDbLine
10
-0.13408749851899965
20
0.61968492199143177
30
-3.0744400026692804e-09
11
-0.18246857823500809
21
0.70359094234652853
31
-3.074440002669294e-09
0
LINE
5
341
100
AcDbEntity
8
0
100
AcDbLine
10
-0.18246857823500809
20
0.70359094234652853
30
-3.074440002669294e-09
11
-0.21061386120223863
21
0.70360652931260292
31
-3.0744400026692895e-09
0
LINE
5
342
100
AcDbEntity
8
0
100
AcDbLine
10
-0.21061386120223863
20
0.70360652931260292
30
-3.0744400026692895e-09
11
-0.25908809312228942
21
0.61975422880201991
31
-3.0744400026692597e-09
0
LINE
5
343
100
AcDbEntity
8
0
100
AcDbLine
10
-0.25908809312228942
20
0.61975422880201991
30
-3.0744400026692597e-09
11
-0.32448989926870059
21
0.73317746607454315
31
-3.0744400026692779e-09
0
LINE
5
344
100
AcDbEntity
8
0
100
AcDbLine
10
-0.19655581504164091
20
0.67708334952159877
30
-3.0744400026692849e-09
11
-0.24441141824411886
21
0.59430117254894621
31
-3.074440002669256e-09
0
LINE
5
345
100
AcDbEntity
8
0
100
AcDbLine
10
-0.24441141824411886
20
0.59430117254894621
30
-3.074440002669256e-09
11
-0.19664753426724085
21
0.51146654213619702
31
-3.0744400026692419e-09
0
LINE
5
346
100
AcDbEntity
8
0
100
AcDbLine
10
-0.19664753426724085
20
0.51146654213619702
30
-3.0744400026692419e-09
11
-0.14879222034216671
21
0.5942482182689881
31
-3.0744400026692713e-09
0
LINE
5
347
100
AcDbEntity
8
0
100
AcDbLine
10
-0.14879222034216671
20
0.5942482182689881
30
-3.0744400026692713e-09
11
-0.19655581504164091
21
0.67708334952159877
31
-3.0744400026692849e-09
0
LINE
5
348
100
AcDbEntity
8
0
100
AcDbLine
10
-0.051532217234131136
20
0.79661175919318639
30
-3.0744400024985999e-09
11
-0.068827309117711122
21
0.79662133727935391
31
-3.074440002669337e-09
0
LINE
5
349
100
AcDbEntity
8
0
100
AcDbLine
10
-0.040382102864962348
20
0.78874420620925967
30
-3.0744400026693399e-09
11
-0.024954663623604007
21
0.78873566243400806
31
-3.0744400026693424e-09
0
LINE
5
350
100
AcDbEntity
8
0
100
AcDbLine
10
-0.008298300013808612
20
0.80225936880636384
30
-3.074440002669349e-09
11
-0.0082934527976999337
21
0.81101195531561232
31
-3.0744400026693515e-09
0
ARC
5
351
100
AcDbEntity
8
0
100
AcDbCircle
10
-0.040192251036048593
20
0.79363859683688454
30
-3.0744400026692787e-09
40
0.028789985965389019
210
-2.0471395588679756e-21
220
-2.8887598133713164e-25
230
1
100
AcDbArc
50
174.05329155387736
51
198.10771926104573
0
ARC
5
352
100
AcDbEntity
8
0
100
AcDbCircle
10
-0.044154256742909459
20
0.79652524544317083
30
-3.074440001757521e-09
40
0.0073784677026444848
210
-1.0135307158297959e-16
220
-7.743716822578154e-17
230
1
100
AcDbArc
50
179.32818214694484
51
231.71644172378694
0
ARC
5
353
100
AcDbEntity
8
0
100
AcDbCircle
10
-0.04037183809708543
20
0.80727923060783302
30
-3.0744400026693222e-09
40
0.018535027240907151
210
-1.4513801388944306e-22
220
-9.5021145194586385e-22
230
1
100
AcDbArc
50
243.2112587405845
51
269.9682693799449
0
ARC
5
354
100
AcDbEntity
8
0
100
AcDbCircle
10
-0.056525533638268559
20
0.78823210785677189
30
-3.0744400026693412e-09
40
0.011585434005981778
210
4.5301862679253493e-22
220
4.2807429653187972e-22
230
1
100
AcDbArc
50
197.79976648309966
51
233.20437744463752
0
ARC
5
355
100
AcDbEntity
8
0
100
AcDbCircle
10
-0.054374831814792732
20
0.79110746676797394
30
-3.0744400026693143e-09
40
0.015176145244960984
210
-4.7583992517026467e-22
220
-1.1983351598775921e-21
230
1
100
AcDbArc
50
233.20437400567519
51
263.02260181276438
0
ARC
5
356
100
AcDbEntity
8
0
100
AcDbCircle
10
-0.041058608477557781
20
0.90624332915139572
30
-3.0744400026689698e-09
40
0.13107920892654845
210
9.5002897272337917e-24
220
-2.7975025545666139e-21
230
1
100
AcDbArc
50
263.35867239293418
51
269.96826937994683
0
LINE
5
357
100
AcDbEntity
8
0
100
AcDbLine
10
-0.041131200637016294
20
0.77516414032575442
30
-3.0744400026693366e-09
11
-0.019473196497325443
21
0.77515214603967297
31
-3.0744400026693399e-09
0
ARC
5
358
100
AcDbEntity
8
0
100
AcDbCircle
10
-0.013518557276261545
20
0.79599434541131664
30
-3.0744400014265776e-09
40
0.022930140522610033
210
5.6508996665365959e-17
220
-1.9135480486139993e-17
230
1
100
AcDbArc
50
-43.417875786720245
51
6.0022945087875001
0
LINE
5
359
100
AcDbEntity
8
0
100
AcDbLine
10
0.0092906386113745729
20
0.80699638203078583
30
-3.0744400026693528e-09
11
0.0030000000187437831
21
0.80699638203078583
31
-3.0744400026693528e-09
0
LINE
5
360
100
AcDbEntity
8
0
100
AcDbLine
10
0.0092858735329530984
20
0.79839211100753205
30
-3.0744400026693507e-09
11
0.0092906386113745729
21
0.80699638203078583
31
-3.0744400026693528e-09
0
LINE
5
361
100
AcDbEntity
8
0
100
AcDbLine
10
-0.051532217234131136
20
0.81738100486838527
30
-3.0744400024985999e-09
11
-0.068827309117711122
21
0.81737142678221775
31
-3.074440002669337e-09
0
ARC
5
362
100
AcDbEntity
8
0
100
AcDbCircle
10
-0.044154256742909466
20
0.81746751861840083
30
-3.074440001757521e-09
40
0.0073784677026445923
210
-1.7667173093448165e-16
220
1.7989083472154539e-17
230
1
100
AcDbArc
50
128.283558276213
51
180.67181785305462
0
ARC
5
363
100
AcDbEntity
8
0
100
AcDbCircle
10
-0.0401922510360486
20
0.82035416722468713
30
-3.0744400026692787e-09
40
0.02878998596538964
210
-2.0470800871245518e-21
220
-3.0832321215960183e-25
230
1
100
AcDbArc
50
161.89228073895404
51
185.94670844612273
0
ARC
5
364
100
AcDbEntity
8
0
100
AcDbCircle
10
-0.056525533638268559
20
0.82576065620479977
30
-3.0744400026693412e-09
40
0.011585434005981983
210
8.662198524153588e-22
220
-1.2435116832528247e-22
230
1
100
AcDbArc
50
126.7956225553625
51
162.20023351689986
0
ARC
5
365
100
AcDbEntity
8
0
100
AcDbCircle
10
-0.054374831814792732
20
0.82288529729359783
30
-3.0744400026693143e-09
40
0.015176145244960984
210
-7.6971703010647837e-22
220
1.2029323892309609e-21
230
1
100
AcDbArc
50
96.977398187235707
51
126.79562599432508
0
ARC
5
366
100
AcDbEntity
8
0
100
AcDbCircle
10
-0.04037183809708543
20
0.80671353345373864
30
-3.0744400026693222e-09
40
0.018535027240907144
210
-1.4618963989590401e-22
220
9.4870276819532389e-22
230
1
100
AcDbArc
50
90.031730620055086
51
116.78874125941547
0
LINE
5
367
100
AcDbEntity
8
0
100
AcDbLine
10
-0.040382102864962348
20
0.82524855785231199
30
-3.0744400026693399e-09
11
-0.024954663623604007
21
0.82525710162756361
31
-3.0744400026693424e-09
0
LINE
5
368
100
AcDbEntity
8
0
100
AcDbLine
10
-0.041131200637016294
20
0.83882862373581735
30
-3.0744400026693366e-09
11
-0.019473196497325443
21
0.83884061802189869
31
-3.0744400026693399e-09
0
ARC
5
369
100
AcDbEntity
8
0
100
AcDbCircle
10
-0.041058608477557781
20
0.70774943491017606
30
-3.0744400026689698e-09
40
0.13107920892654845
210
6.4017495959038774e-24
220
2.7975111492275692e-21
230
1
100
AcDbArc
50
90.031730620053182
51
96.641327607065861
0
ARC
5
370
100
AcDbEntity
8
0
100
AcDbCircle
10
-0.013518557276261545
20
0.81799841865025513
30
-3.0744400014265776e-09
40
0.022930140522610248
210
5.2529006526385812e-17
220
-1.8717005519219646e-17
230
1
100
AcDbArc
50
-6.0022945087877302
51
43.417875786720053
0
LINE
5
371
100
AcDbEntity
8
0
100
AcDbLine
10
0.0092858735329530984
20
0.81560065305403961
30
-3.0744400026693507e-09
11
0.0092906386113745729
21
0.80699638203078583
31
-3.0744400026693528e-09
0
ARC
5
372
100
AcDbEntity
8
0
100
AcDbCircle
10
-0.024934851835094359
20
0.8245096797167869
30
-3.0744400026692878e-09
40
0.035774022768700627
210
5.4218157402426461e-22
220
-1.5296548827513337e-21
230
1
100
AcDbArc
50
269.96826937994723
51
292.04958836468074
0
ARC
5
373
100
AcDbEntity
8
0
100
AcDbCircle
10
-0.028489540716001283
20
0.80227055079320653
30
-3.0744400026693308e-09
40
0.020191243798506144
210
9.0342090739489774e-22
220
3.3318626486323124e-23
230
1
100
AcDbArc
50
327.26548836379709
51
359.96826937995587
0
ARC
5
374
100
AcDbEntity
8
0
100
AcDbCircle
10
-0.01681706446101772
20
0.81617306255362942
30
-3.0744400026695066e-09
40
0.041106819738813034
210
-6.9615030901034519e-22
220
4.1098017940442124e-21
230
1
100
AcDbArc
50
266.29523142095877
51
299.03995795924914
0
ARC
5
375
100
AcDbEntity
8
0
100
AcDbCircle
10
-0.024934851835094359
20
0.78948308434478476
30
-3.0744400026692878e-09
40
0.0357740227687008
210
1.6063240983986372e-21
220
1.0976412606559268e-21
230
1
100
AcDbArc
50
67.950411635319213
51
90.03173062005277
0
ARC
5
376
100
AcDbEntity
8
0
100
AcDbCircle
10
-0.01681706446101772
20
0.79781970150794224
30
-3.0744400026695066e-09
40
0.041106819738813215
210
-4.1837301044448239e-21
220
-2.1716235670273159e-21
230
1
100
AcDbArc
50
60.960042040750857
51
93.704768579041243
0
ARC
5
377
100
AcDbEntity
8
0
100
AcDbCircle
10
-0.013518557276261545
20
0.81799841865025513
30
-3.0744400014265776e-09
40
0.022930140522610248
210
5.2529006526385812e-17
220
-1.8717005519219646e-17
230
1
100
AcDbArc
50
-6.0022945087877302
51
43.417875786720053
0
ARC
5
378
100
AcDbEntity
8
0
100
AcDbCircle
10
-0.028489540716001283
20
0.81172221326836513
30
-3.0744400026693308e-09
40
0.02019124379850612
210
9.0319760816601358e-22
220
3.331850282235041e-23
230
1
100
AcDbArc
50
0.031730620044157512
51
32.73451163620291
0
LINE
5
379
100
AcDbEntity
8
0
100
AcDbLine
10
-0.008298300013808612
20
0.81173339525520782
30
-3.074440002669349e-09
11
-0.0082934527976999337
21
0.81101195531561232
31
-3.0744400026693515e-09
0
ENDSEC
0
SECTION
2
OBJECTS
0
DICTIONARY
5
C
100
AcDbDictionary
3
ACAD_GROUP
350
D
3
ACAD_MLINESTYLE
350
17
0
DICTIONARY
5
D
100
AcDbDictionary
0
DICTIONARY
5
1A
330
C
100
AcDbDictionary
0
DICTIONARY
5
17
100
AcDbDictionary
0
ENDSEC
0
EOF
