%TF.GenerationSoftware,KiCad,Pcbnew,(5.1.9)-1*%
%TF.CreationDate,2021-12-11T15:05:51-08:00*%
%TF.ProjectId,VN-100Breakout,564e2d31-3030-4427-9265-616b6f75742e,rev?*%
%TF.SameCoordinates,Original*%
%TF.FileFunction,Legend,Bot*%
%TF.FilePolarity,Positive*%
%FSLAX46Y46*%
G04 Gerber Fmt 4.6, Leading zero omitted, Abs format (unit mm)*
G04 Created by KiCad (PCBNEW (5.1.9)-1) date 2021-12-11 15:05:51*
%MOMM*%
%LPD*%
G01*
G04 APERTURE LIST*
%ADD10C,0.152400*%
%ADD11C,4.000000*%
%ADD12C,1.524000*%
G04 APERTURE END LIST*
D10*
X157188504Y-83907085D02*
X157227209Y-83945790D01*
X157343323Y-83984495D01*
X157420733Y-83984495D01*
X157536847Y-83945790D01*
X157614257Y-83868380D01*
X157652961Y-83790971D01*
X157691666Y-83636152D01*
X157691666Y-83520038D01*
X157652961Y-83365219D01*
X157614257Y-83287809D01*
X157536847Y-83210400D01*
X157420733Y-83171695D01*
X157343323Y-83171695D01*
X157227209Y-83210400D01*
X157188504Y-83249104D01*
X156840161Y-83984495D02*
X156840161Y-83442628D01*
X156840161Y-83597447D02*
X156801457Y-83520038D01*
X156762752Y-83481333D01*
X156685342Y-83442628D01*
X156607933Y-83442628D01*
X156027361Y-83945790D02*
X156104771Y-83984495D01*
X156259590Y-83984495D01*
X156337000Y-83945790D01*
X156375704Y-83868380D01*
X156375704Y-83558742D01*
X156337000Y-83481333D01*
X156259590Y-83442628D01*
X156104771Y-83442628D01*
X156027361Y-83481333D01*
X155988657Y-83558742D01*
X155988657Y-83636152D01*
X156375704Y-83713561D01*
X155291971Y-83984495D02*
X155291971Y-83558742D01*
X155330676Y-83481333D01*
X155408085Y-83442628D01*
X155562904Y-83442628D01*
X155640314Y-83481333D01*
X155291971Y-83945790D02*
X155369380Y-83984495D01*
X155562904Y-83984495D01*
X155640314Y-83945790D01*
X155679019Y-83868380D01*
X155679019Y-83790971D01*
X155640314Y-83713561D01*
X155562904Y-83674857D01*
X155369380Y-83674857D01*
X155291971Y-83636152D01*
X155021038Y-83442628D02*
X154711400Y-83442628D01*
X154904923Y-83171695D02*
X154904923Y-83868380D01*
X154866219Y-83945790D01*
X154788809Y-83984495D01*
X154711400Y-83984495D01*
X154130828Y-83945790D02*
X154208238Y-83984495D01*
X154363057Y-83984495D01*
X154440466Y-83945790D01*
X154479171Y-83868380D01*
X154479171Y-83558742D01*
X154440466Y-83481333D01*
X154363057Y-83442628D01*
X154208238Y-83442628D01*
X154130828Y-83481333D01*
X154092123Y-83558742D01*
X154092123Y-83636152D01*
X154479171Y-83713561D01*
X153395438Y-83984495D02*
X153395438Y-83171695D01*
X153395438Y-83945790D02*
X153472847Y-83984495D01*
X153627666Y-83984495D01*
X153705076Y-83945790D01*
X153743780Y-83907085D01*
X153782485Y-83829676D01*
X153782485Y-83597447D01*
X153743780Y-83520038D01*
X153705076Y-83481333D01*
X153627666Y-83442628D01*
X153472847Y-83442628D01*
X153395438Y-83481333D01*
X152118180Y-83558742D02*
X152002066Y-83597447D01*
X151963361Y-83636152D01*
X151924657Y-83713561D01*
X151924657Y-83829676D01*
X151963361Y-83907085D01*
X152002066Y-83945790D01*
X152079476Y-83984495D01*
X152389114Y-83984495D01*
X152389114Y-83171695D01*
X152118180Y-83171695D01*
X152040771Y-83210400D01*
X152002066Y-83249104D01*
X151963361Y-83326514D01*
X151963361Y-83403923D01*
X152002066Y-83481333D01*
X152040771Y-83520038D01*
X152118180Y-83558742D01*
X152389114Y-83558742D01*
X151653723Y-83442628D02*
X151460200Y-83984495D01*
X151266676Y-83442628D02*
X151460200Y-83984495D01*
X151537609Y-84178019D01*
X151576314Y-84216723D01*
X151653723Y-84255428D01*
X150957038Y-83907085D02*
X150918333Y-83945790D01*
X150957038Y-83984495D01*
X150995742Y-83945790D01*
X150957038Y-83907085D01*
X150957038Y-83984495D01*
X150957038Y-83481333D02*
X150918333Y-83520038D01*
X150957038Y-83558742D01*
X150995742Y-83520038D01*
X150957038Y-83481333D01*
X150957038Y-83558742D01*
X158601228Y-84543295D02*
X158601228Y-85123866D01*
X158639933Y-85239980D01*
X158717342Y-85317390D01*
X158833457Y-85356095D01*
X158910866Y-85356095D01*
X158098066Y-85356095D02*
X158175476Y-85317390D01*
X158214180Y-85278685D01*
X158252885Y-85201276D01*
X158252885Y-84969047D01*
X158214180Y-84891638D01*
X158175476Y-84852933D01*
X158098066Y-84814228D01*
X157981952Y-84814228D01*
X157904542Y-84852933D01*
X157865838Y-84891638D01*
X157827133Y-84969047D01*
X157827133Y-85201276D01*
X157865838Y-85278685D01*
X157904542Y-85317390D01*
X157981952Y-85356095D01*
X158098066Y-85356095D01*
X157517495Y-85317390D02*
X157440085Y-85356095D01*
X157285266Y-85356095D01*
X157207857Y-85317390D01*
X157169152Y-85239980D01*
X157169152Y-85201276D01*
X157207857Y-85123866D01*
X157285266Y-85085161D01*
X157401380Y-85085161D01*
X157478790Y-85046457D01*
X157517495Y-84969047D01*
X157517495Y-84930342D01*
X157478790Y-84852933D01*
X157401380Y-84814228D01*
X157285266Y-84814228D01*
X157207857Y-84852933D01*
X156820809Y-85356095D02*
X156820809Y-84814228D01*
X156820809Y-84543295D02*
X156859514Y-84582000D01*
X156820809Y-84620704D01*
X156782104Y-84582000D01*
X156820809Y-84543295D01*
X156820809Y-84620704D01*
X156085419Y-85356095D02*
X156085419Y-84930342D01*
X156124123Y-84852933D01*
X156201533Y-84814228D01*
X156356352Y-84814228D01*
X156433761Y-84852933D01*
X156085419Y-85317390D02*
X156162828Y-85356095D01*
X156356352Y-85356095D01*
X156433761Y-85317390D01*
X156472466Y-85239980D01*
X156472466Y-85162571D01*
X156433761Y-85085161D01*
X156356352Y-85046457D01*
X156162828Y-85046457D01*
X156085419Y-85007752D01*
X155737076Y-85317390D02*
X155659666Y-85356095D01*
X155504847Y-85356095D01*
X155427438Y-85317390D01*
X155388733Y-85239980D01*
X155388733Y-85201276D01*
X155427438Y-85123866D01*
X155504847Y-85085161D01*
X155620961Y-85085161D01*
X155698371Y-85046457D01*
X155737076Y-84969047D01*
X155737076Y-84930342D01*
X155698371Y-84852933D01*
X155620961Y-84814228D01*
X155504847Y-84814228D01*
X155427438Y-84852933D01*
X154421114Y-85356095D02*
X154421114Y-84543295D01*
X153956657Y-85356095D01*
X153956657Y-84543295D01*
X153221266Y-85356095D02*
X153221266Y-84930342D01*
X153259971Y-84852933D01*
X153337380Y-84814228D01*
X153492200Y-84814228D01*
X153569609Y-84852933D01*
X153221266Y-85317390D02*
X153298676Y-85356095D01*
X153492200Y-85356095D01*
X153569609Y-85317390D01*
X153608314Y-85239980D01*
X153608314Y-85162571D01*
X153569609Y-85085161D01*
X153492200Y-85046457D01*
X153298676Y-85046457D01*
X153221266Y-85007752D01*
X152911628Y-84814228D02*
X152718104Y-85356095D01*
X152524580Y-84814228D01*
X151866600Y-85356095D02*
X151866600Y-84930342D01*
X151905304Y-84852933D01*
X151982714Y-84814228D01*
X152137533Y-84814228D01*
X152214942Y-84852933D01*
X151866600Y-85317390D02*
X151944009Y-85356095D01*
X152137533Y-85356095D01*
X152214942Y-85317390D01*
X152253647Y-85239980D01*
X152253647Y-85162571D01*
X152214942Y-85085161D01*
X152137533Y-85046457D01*
X151944009Y-85046457D01*
X151866600Y-85007752D01*
X151518257Y-85317390D02*
X151440847Y-85356095D01*
X151286028Y-85356095D01*
X151208619Y-85317390D01*
X151169914Y-85239980D01*
X151169914Y-85201276D01*
X151208619Y-85123866D01*
X151286028Y-85085161D01*
X151402142Y-85085161D01*
X151479552Y-85046457D01*
X151518257Y-84969047D01*
X151518257Y-84930342D01*
X151479552Y-84852933D01*
X151402142Y-84814228D01*
X151286028Y-84814228D01*
X151208619Y-84852933D01*
X150473228Y-85317390D02*
X150550638Y-85356095D01*
X150705457Y-85356095D01*
X150782866Y-85317390D01*
X150821571Y-85278685D01*
X150860276Y-85201276D01*
X150860276Y-84969047D01*
X150821571Y-84891638D01*
X150782866Y-84852933D01*
X150705457Y-84814228D01*
X150550638Y-84814228D01*
X150473228Y-84852933D01*
X149776542Y-85356095D02*
X149776542Y-84930342D01*
X149815247Y-84852933D01*
X149892657Y-84814228D01*
X150047476Y-84814228D01*
X150124885Y-84852933D01*
X149776542Y-85317390D02*
X149853952Y-85356095D01*
X150047476Y-85356095D01*
X150124885Y-85317390D01*
X150163590Y-85239980D01*
X150163590Y-85162571D01*
X150124885Y-85085161D01*
X150047476Y-85046457D01*
X149853952Y-85046457D01*
X149776542Y-85007752D01*
X157633609Y-86495466D02*
X157246561Y-86495466D01*
X157711019Y-86727695D02*
X157440085Y-85914895D01*
X157169152Y-86727695D01*
X156898219Y-86727695D02*
X156898219Y-86185828D01*
X156898219Y-85914895D02*
X156936923Y-85953600D01*
X156898219Y-85992304D01*
X156859514Y-85953600D01*
X156898219Y-85914895D01*
X156898219Y-85992304D01*
X156162828Y-86727695D02*
X156162828Y-85914895D01*
X156162828Y-86688990D02*
X156240238Y-86727695D01*
X156395057Y-86727695D01*
X156472466Y-86688990D01*
X156511171Y-86650285D01*
X156549876Y-86572876D01*
X156549876Y-86340647D01*
X156511171Y-86263238D01*
X156472466Y-86224533D01*
X156395057Y-86185828D01*
X156240238Y-86185828D01*
X156162828Y-86224533D01*
X155466142Y-86688990D02*
X155543552Y-86727695D01*
X155698371Y-86727695D01*
X155775780Y-86688990D01*
X155814485Y-86611580D01*
X155814485Y-86301942D01*
X155775780Y-86224533D01*
X155698371Y-86185828D01*
X155543552Y-86185828D01*
X155466142Y-86224533D01*
X155427438Y-86301942D01*
X155427438Y-86379352D01*
X155814485Y-86456761D01*
X155079095Y-86185828D02*
X155079095Y-86727695D01*
X155079095Y-86263238D02*
X155040390Y-86224533D01*
X154962980Y-86185828D01*
X154846866Y-86185828D01*
X154769457Y-86224533D01*
X154730752Y-86301942D01*
X154730752Y-86727695D01*
X153337380Y-86727695D02*
X153724428Y-86727695D01*
X153724428Y-85914895D01*
X153066447Y-86727695D02*
X153066447Y-86185828D01*
X153066447Y-85914895D02*
X153105152Y-85953600D01*
X153066447Y-85992304D01*
X153027742Y-85953600D01*
X153066447Y-85914895D01*
X153066447Y-85992304D01*
X152795514Y-86185828D02*
X152485876Y-86185828D01*
X152679400Y-85914895D02*
X152679400Y-86611580D01*
X152640695Y-86688990D01*
X152563285Y-86727695D01*
X152485876Y-86727695D01*
X152331057Y-86185828D02*
X152021419Y-86185828D01*
X152214942Y-85914895D02*
X152214942Y-86611580D01*
X152176238Y-86688990D01*
X152098828Y-86727695D01*
X152021419Y-86727695D01*
X151634371Y-86727695D02*
X151711780Y-86688990D01*
X151750485Y-86611580D01*
X151750485Y-85914895D01*
X151015095Y-86688990D02*
X151092504Y-86727695D01*
X151247323Y-86727695D01*
X151324733Y-86688990D01*
X151363438Y-86611580D01*
X151363438Y-86301942D01*
X151324733Y-86224533D01*
X151247323Y-86185828D01*
X151092504Y-86185828D01*
X151015095Y-86224533D01*
X150976390Y-86301942D01*
X150976390Y-86379352D01*
X151363438Y-86456761D01*
X157323971Y-88099295D02*
X157323971Y-87286495D01*
X157053038Y-87867066D01*
X156782104Y-87286495D01*
X156782104Y-88099295D01*
X156046714Y-88099295D02*
X156046714Y-87673542D01*
X156085419Y-87596133D01*
X156162828Y-87557428D01*
X156317647Y-87557428D01*
X156395057Y-87596133D01*
X156046714Y-88060590D02*
X156124123Y-88099295D01*
X156317647Y-88099295D01*
X156395057Y-88060590D01*
X156433761Y-87983180D01*
X156433761Y-87905771D01*
X156395057Y-87828361D01*
X156317647Y-87789657D01*
X156124123Y-87789657D01*
X156046714Y-87750952D01*
X155659666Y-88099295D02*
X155659666Y-87557428D01*
X155659666Y-87712247D02*
X155620961Y-87634838D01*
X155582257Y-87596133D01*
X155504847Y-87557428D01*
X155427438Y-87557428D01*
X155272619Y-87557428D02*
X154962980Y-87557428D01*
X155156504Y-87286495D02*
X155156504Y-87983180D01*
X155117800Y-88060590D01*
X155040390Y-88099295D01*
X154962980Y-88099295D01*
X154692047Y-88099295D02*
X154692047Y-87557428D01*
X154692047Y-87286495D02*
X154730752Y-87325200D01*
X154692047Y-87363904D01*
X154653342Y-87325200D01*
X154692047Y-87286495D01*
X154692047Y-87363904D01*
X154305000Y-87557428D02*
X154305000Y-88099295D01*
X154305000Y-87634838D02*
X154266295Y-87596133D01*
X154188885Y-87557428D01*
X154072771Y-87557428D01*
X153995361Y-87596133D01*
X153956657Y-87673542D01*
X153956657Y-88099295D01*
X152563285Y-88099295D02*
X152950333Y-88099295D01*
X152950333Y-87286495D01*
X151982714Y-88060590D02*
X152060123Y-88099295D01*
X152214942Y-88099295D01*
X152292352Y-88060590D01*
X152331057Y-87983180D01*
X152331057Y-87673542D01*
X152292352Y-87596133D01*
X152214942Y-87557428D01*
X152060123Y-87557428D01*
X151982714Y-87596133D01*
X151944009Y-87673542D01*
X151944009Y-87750952D01*
X152331057Y-87828361D01*
X151286028Y-88060590D02*
X151363438Y-88099295D01*
X151518257Y-88099295D01*
X151595666Y-88060590D01*
X151634371Y-87983180D01*
X151634371Y-87673542D01*
X151595666Y-87596133D01*
X151518257Y-87557428D01*
X151363438Y-87557428D01*
X151286028Y-87596133D01*
X151247323Y-87673542D01*
X151247323Y-87750952D01*
X151634371Y-87828361D01*
X157498142Y-89238666D02*
X157111095Y-89238666D01*
X157575552Y-89470895D02*
X157304619Y-88658095D01*
X157033685Y-89470895D01*
X156762752Y-88929028D02*
X156762752Y-89470895D01*
X156762752Y-89006438D02*
X156724047Y-88967733D01*
X156646638Y-88929028D01*
X156530523Y-88929028D01*
X156453114Y-88967733D01*
X156414409Y-89045142D01*
X156414409Y-89470895D01*
X156143476Y-88929028D02*
X155833838Y-88929028D01*
X156027361Y-88658095D02*
X156027361Y-89354780D01*
X155988657Y-89432190D01*
X155911247Y-89470895D01*
X155833838Y-89470895D01*
X155562904Y-89470895D02*
X155562904Y-88658095D01*
X155214561Y-89470895D02*
X155214561Y-89045142D01*
X155253266Y-88967733D01*
X155330676Y-88929028D01*
X155446790Y-88929028D01*
X155524200Y-88967733D01*
X155562904Y-89006438D01*
X154711400Y-89470895D02*
X154788809Y-89432190D01*
X154827514Y-89393485D01*
X154866219Y-89316076D01*
X154866219Y-89083847D01*
X154827514Y-89006438D01*
X154788809Y-88967733D01*
X154711400Y-88929028D01*
X154595285Y-88929028D01*
X154517876Y-88967733D01*
X154479171Y-89006438D01*
X154440466Y-89083847D01*
X154440466Y-89316076D01*
X154479171Y-89393485D01*
X154517876Y-89432190D01*
X154595285Y-89470895D01*
X154711400Y-89470895D01*
X154092123Y-88929028D02*
X154092123Y-89470895D01*
X154092123Y-89006438D02*
X154053419Y-88967733D01*
X153976009Y-88929028D01*
X153859895Y-88929028D01*
X153782485Y-88967733D01*
X153743780Y-89045142D01*
X153743780Y-89470895D01*
X153434142Y-88929028D02*
X153240619Y-89470895D01*
X153047095Y-88929028D02*
X153240619Y-89470895D01*
X153318028Y-89664419D01*
X153356733Y-89703123D01*
X153434142Y-89741828D01*
X151731133Y-89470895D02*
X152118180Y-89470895D01*
X152118180Y-88658095D01*
X151150561Y-89432190D02*
X151227971Y-89470895D01*
X151382790Y-89470895D01*
X151460200Y-89432190D01*
X151498904Y-89354780D01*
X151498904Y-89045142D01*
X151460200Y-88967733D01*
X151382790Y-88929028D01*
X151227971Y-88929028D01*
X151150561Y-88967733D01*
X151111857Y-89045142D01*
X151111857Y-89122552D01*
X151498904Y-89199961D01*
%LPC*%
D11*
%TO.C,U1*%
X138430000Y-111760000D03*
X168910000Y-111760000D03*
X168910000Y-83820000D03*
X138430000Y-83820000D03*
D12*
X168910000Y-99060000D03*
X168910000Y-101600000D03*
X168910000Y-104140000D03*
X168910000Y-106680000D03*
X168910000Y-96520000D03*
X168910000Y-93980000D03*
X168910000Y-91440000D03*
X168910000Y-88900000D03*
X138430000Y-88900000D03*
X138430000Y-106680000D03*
X138430000Y-99060000D03*
X138430000Y-91440000D03*
X138430000Y-93980000D03*
X138430000Y-104140000D03*
X138430000Y-101600000D03*
X138430000Y-96520000D03*
%TD*%
M02*
