M48
; DRILL file {KiCad (5.1.9)-1} date 12/11/21 15:05:56
; FORMAT={-:-/ absolute / metric / decimal}
; #@! TF.CreationDate,2021-12-11T15:05:56-08:00
; #@! TF.GenerationSoftware,Kicad,Pcbnew,(5.1.9)-1
; #@! TF.FileFunction,Plated,1,2,PTH
FMAT,2
METRIC
T1C0.330
T2C0.762
T3C3.000
%
G90
G05
T1
X156.215Y-107.645
X161.303Y-107.62
X162.433Y-101.6
X162.484Y-104.127
X162.484Y-106.655
X162.496Y-99.022
X165.405Y-91.427
T2
X138.43Y-88.9
X138.43Y-91.44
X138.43Y-93.98
X138.43Y-96.52
X138.43Y-99.06
X138.43Y-101.6
X138.43Y-104.14
X138.43Y-106.68
X168.91Y-88.9
X168.91Y-91.44
X168.91Y-93.98
X168.91Y-96.52
X168.91Y-99.06
X168.91Y-101.6
X168.91Y-104.14
X168.91Y-106.68
T3
X138.43Y-83.82
X138.43Y-111.76
X168.91Y-83.82
X168.91Y-111.76
T0
M30
