%TF.GenerationSoftware,KiCad,Pcbnew,(5.1.9)-1*%
%TF.CreationDate,2021-12-11T15:05:51-08:00*%
%TF.ProjectId,VN-100Breakout,564e2d31-3030-4427-9265-616b6f75742e,rev?*%
%TF.SameCoordinates,Original*%
%TF.FileFunction,Soldermask,Top*%
%TF.FilePolarity,Negative*%
%FSLAX46Y46*%
G04 Gerber Fmt 4.6, Leading zero omitted, Abs format (unit mm)*
G04 Created by KiCad (PCBNEW (5.1.9)-1) date 2021-12-11 15:05:51*
%MOMM*%
%LPD*%
G01*
G04 APERTURE LIST*
%ADD10R,2.540000X1.143000*%
%ADD11R,1.143000X2.540000*%
%ADD12C,4.000000*%
%ADD13C,1.524000*%
G04 APERTURE END LIST*
D10*
%TO.C,U2*%
X143383000Y-88900000D03*
X163957000Y-88900000D03*
X163957000Y-106680000D03*
X163957000Y-104140000D03*
X163957000Y-101600000D03*
X163957000Y-99060000D03*
X163957000Y-96520000D03*
X163957000Y-93980000D03*
X143383000Y-104140000D03*
X143383000Y-106680000D03*
X143383000Y-101600000D03*
X143383000Y-99060000D03*
X143383000Y-96520000D03*
X143383000Y-93980000D03*
X143383000Y-91440000D03*
X163957000Y-91440000D03*
D11*
X146050000Y-109093000D03*
X148590000Y-109093000D03*
X151130000Y-109093000D03*
X153670000Y-109093000D03*
X156210000Y-109093000D03*
X158750000Y-109093000D03*
X146050000Y-86487000D03*
X148590000Y-86487000D03*
X151130000Y-86487000D03*
X153670000Y-86487000D03*
X156210000Y-86487000D03*
X158750000Y-86487000D03*
X161290000Y-109093000D03*
X161290000Y-86487000D03*
%TD*%
D12*
%TO.C,U1*%
X138430000Y-111760000D03*
X168910000Y-111760000D03*
X168910000Y-83820000D03*
X138430000Y-83820000D03*
D13*
X168910000Y-99060000D03*
X168910000Y-101600000D03*
X168910000Y-104140000D03*
X168910000Y-106680000D03*
X168910000Y-96520000D03*
X168910000Y-93980000D03*
X168910000Y-91440000D03*
X168910000Y-88900000D03*
X138430000Y-88900000D03*
X138430000Y-106680000D03*
X138430000Y-99060000D03*
X138430000Y-91440000D03*
X138430000Y-93980000D03*
X138430000Y-104140000D03*
X138430000Y-101600000D03*
X138430000Y-96520000D03*
%TD*%
M02*
