%TF.GenerationSoftware,KiCad,Pcbnew,(5.1.9)-1*%
%TF.CreationDate,2021-12-11T15:05:51-08:00*%
%TF.ProjectId,VN-100Breakout,564e2d31-3030-4427-9265-616b6f75742e,rev?*%
%TF.SameCoordinates,Original*%
%TF.FileFunction,Copper,L2,Bot*%
%TF.FilePolarity,Positive*%
%FSLAX46Y46*%
G04 Gerber Fmt 4.6, Leading zero omitted, Abs format (unit mm)*
G04 Created by KiCad (PCBNEW (5.1.9)-1) date 2021-12-11 15:05:51*
%MOMM*%
%LPD*%
G01*
G04 APERTURE LIST*
%TA.AperFunction,ComponentPad*%
%ADD10C,4.000000*%
%TD*%
%TA.AperFunction,ComponentPad*%
%ADD11C,1.524000*%
%TD*%
%TA.AperFunction,ViaPad*%
%ADD12C,0.685800*%
%TD*%
%TA.AperFunction,Conductor*%
%ADD13C,0.650000*%
%TD*%
%TA.AperFunction,Conductor*%
%ADD14C,0.254000*%
%TD*%
%TA.AperFunction,Conductor*%
%ADD15C,0.100000*%
%TD*%
G04 APERTURE END LIST*
D10*
%TO.P,U1,*%
%TO.N,*%
X138430000Y-111760000D03*
X168910000Y-111760000D03*
X168910000Y-83820000D03*
X138430000Y-83820000D03*
D11*
%TO.P,U1,12*%
%TO.N,/TX2*%
X168910000Y-99060000D03*
%TO.P,U1,11*%
%TO.N,/RX2*%
X168910000Y-101600000D03*
%TO.P,U1,10*%
%TO.N,/GND*%
X168910000Y-104140000D03*
%TO.P,U1,9*%
X168910000Y-106680000D03*
%TO.P,U1,13*%
%TO.N,/Restore*%
X168910000Y-96520000D03*
%TO.P,U1,14*%
%TO.N,/SYNC_OUT*%
X168910000Y-93980000D03*
%TO.P,U1,15*%
%TO.N,/Vin*%
X168910000Y-91440000D03*
%TO.P,U1,16*%
%TO.N,/Enable*%
X168910000Y-88900000D03*
%TO.P,U1,1*%
%TO.N,/TX1*%
X138430000Y-88900000D03*
%TO.P,U1,8*%
%TO.N,/SPI_CS*%
X138430000Y-106680000D03*
%TO.P,U1,5*%
%TO.N,/SPI_MISO*%
X138430000Y-99060000D03*
%TO.P,U1,2*%
%TO.N,/RX1*%
X138430000Y-91440000D03*
%TO.P,U1,3*%
%TO.N,/SPI_SCK*%
X138430000Y-93980000D03*
%TO.P,U1,7*%
%TO.N,/SYNC_IN*%
X138430000Y-104140000D03*
%TO.P,U1,6*%
%TO.N,/NRST*%
X138430000Y-101600000D03*
%TO.P,U1,4*%
%TO.N,/SPI_MOSI*%
X138430000Y-96520000D03*
%TD*%
D12*
%TO.N,/Restore*%
X165404800Y-91427300D03*
%TO.N,/GND*%
X162483800Y-104127300D03*
X161302700Y-107619800D03*
X162496500Y-99021900D03*
X156215080Y-107645200D03*
X162433000Y-101600000D03*
X162483800Y-106654600D03*
%TD*%
D13*
%TO.N,/Restore*%
X166865300Y-92887800D02*
X165404800Y-91427300D01*
X166865300Y-95504000D02*
X166865300Y-92887800D01*
X167881300Y-96520000D02*
X166865300Y-95504000D01*
X168910000Y-96520000D02*
X167881300Y-96520000D01*
%TD*%
D14*
%TO.N,/GND*%
X167230285Y-81773262D02*
X166863262Y-82140285D01*
X166574893Y-82571859D01*
X166376261Y-83051399D01*
X166275000Y-83560475D01*
X166275000Y-84079525D01*
X166376261Y-84588601D01*
X166574893Y-85068141D01*
X166863262Y-85499715D01*
X167230285Y-85866738D01*
X167661859Y-86155107D01*
X168141399Y-86353739D01*
X168650475Y-86455000D01*
X169169525Y-86455000D01*
X169678601Y-86353739D01*
X170158141Y-86155107D01*
X170589715Y-85866738D01*
X170956738Y-85499715D01*
X171049951Y-85360212D01*
X171049950Y-110219786D01*
X170956738Y-110080285D01*
X170589715Y-109713262D01*
X170158141Y-109424893D01*
X169678601Y-109226261D01*
X169169525Y-109125000D01*
X168650475Y-109125000D01*
X168141399Y-109226261D01*
X167661859Y-109424893D01*
X167230285Y-109713262D01*
X166863262Y-110080285D01*
X166574893Y-110511859D01*
X166376261Y-110991399D01*
X166275000Y-111500475D01*
X166275000Y-112019525D01*
X166376261Y-112528601D01*
X166574893Y-113008141D01*
X166863262Y-113439715D01*
X167230285Y-113806738D01*
X167369786Y-113899950D01*
X139970214Y-113899950D01*
X140109715Y-113806738D01*
X140476738Y-113439715D01*
X140765107Y-113008141D01*
X140963739Y-112528601D01*
X141065000Y-112019525D01*
X141065000Y-111500475D01*
X140963739Y-110991399D01*
X140765107Y-110511859D01*
X140476738Y-110080285D01*
X140109715Y-109713262D01*
X139678141Y-109424893D01*
X139198601Y-109226261D01*
X138689525Y-109125000D01*
X138170475Y-109125000D01*
X137661399Y-109226261D01*
X137181859Y-109424893D01*
X136750285Y-109713262D01*
X136383262Y-110080285D01*
X136290050Y-110219786D01*
X136290050Y-88762408D01*
X137033000Y-88762408D01*
X137033000Y-89037592D01*
X137086686Y-89307490D01*
X137191995Y-89561727D01*
X137344880Y-89790535D01*
X137539465Y-89985120D01*
X137768273Y-90138005D01*
X137845515Y-90170000D01*
X137768273Y-90201995D01*
X137539465Y-90354880D01*
X137344880Y-90549465D01*
X137191995Y-90778273D01*
X137086686Y-91032510D01*
X137033000Y-91302408D01*
X137033000Y-91577592D01*
X137086686Y-91847490D01*
X137191995Y-92101727D01*
X137344880Y-92330535D01*
X137539465Y-92525120D01*
X137768273Y-92678005D01*
X137845515Y-92710000D01*
X137768273Y-92741995D01*
X137539465Y-92894880D01*
X137344880Y-93089465D01*
X137191995Y-93318273D01*
X137086686Y-93572510D01*
X137033000Y-93842408D01*
X137033000Y-94117592D01*
X137086686Y-94387490D01*
X137191995Y-94641727D01*
X137344880Y-94870535D01*
X137539465Y-95065120D01*
X137768273Y-95218005D01*
X137845515Y-95250000D01*
X137768273Y-95281995D01*
X137539465Y-95434880D01*
X137344880Y-95629465D01*
X137191995Y-95858273D01*
X137086686Y-96112510D01*
X137033000Y-96382408D01*
X137033000Y-96657592D01*
X137086686Y-96927490D01*
X137191995Y-97181727D01*
X137344880Y-97410535D01*
X137539465Y-97605120D01*
X137768273Y-97758005D01*
X137845515Y-97790000D01*
X137768273Y-97821995D01*
X137539465Y-97974880D01*
X137344880Y-98169465D01*
X137191995Y-98398273D01*
X137086686Y-98652510D01*
X137033000Y-98922408D01*
X137033000Y-99197592D01*
X137086686Y-99467490D01*
X137191995Y-99721727D01*
X137344880Y-99950535D01*
X137539465Y-100145120D01*
X137768273Y-100298005D01*
X137845515Y-100330000D01*
X137768273Y-100361995D01*
X137539465Y-100514880D01*
X137344880Y-100709465D01*
X137191995Y-100938273D01*
X137086686Y-101192510D01*
X137033000Y-101462408D01*
X137033000Y-101737592D01*
X137086686Y-102007490D01*
X137191995Y-102261727D01*
X137344880Y-102490535D01*
X137539465Y-102685120D01*
X137768273Y-102838005D01*
X137845515Y-102870000D01*
X137768273Y-102901995D01*
X137539465Y-103054880D01*
X137344880Y-103249465D01*
X137191995Y-103478273D01*
X137086686Y-103732510D01*
X137033000Y-104002408D01*
X137033000Y-104277592D01*
X137086686Y-104547490D01*
X137191995Y-104801727D01*
X137344880Y-105030535D01*
X137539465Y-105225120D01*
X137768273Y-105378005D01*
X137845515Y-105410000D01*
X137768273Y-105441995D01*
X137539465Y-105594880D01*
X137344880Y-105789465D01*
X137191995Y-106018273D01*
X137086686Y-106272510D01*
X137033000Y-106542408D01*
X137033000Y-106817592D01*
X137086686Y-107087490D01*
X137191995Y-107341727D01*
X137344880Y-107570535D01*
X137539465Y-107765120D01*
X137768273Y-107918005D01*
X138022510Y-108023314D01*
X138292408Y-108077000D01*
X138567592Y-108077000D01*
X138837490Y-108023314D01*
X139091727Y-107918005D01*
X139320535Y-107765120D01*
X139440090Y-107645565D01*
X168124040Y-107645565D01*
X168191020Y-107885656D01*
X168440048Y-108002756D01*
X168707135Y-108069023D01*
X168982017Y-108081910D01*
X169254133Y-108040922D01*
X169513023Y-107947636D01*
X169628980Y-107885656D01*
X169695960Y-107645565D01*
X168910000Y-106859605D01*
X168124040Y-107645565D01*
X139440090Y-107645565D01*
X139515120Y-107570535D01*
X139668005Y-107341727D01*
X139773314Y-107087490D01*
X139827000Y-106817592D01*
X139827000Y-106752017D01*
X167508090Y-106752017D01*
X167549078Y-107024133D01*
X167642364Y-107283023D01*
X167704344Y-107398980D01*
X167944435Y-107465960D01*
X168730395Y-106680000D01*
X169089605Y-106680000D01*
X169875565Y-107465960D01*
X170115656Y-107398980D01*
X170232756Y-107149952D01*
X170299023Y-106882865D01*
X170311910Y-106607983D01*
X170270922Y-106335867D01*
X170177636Y-106076977D01*
X170115656Y-105961020D01*
X169875565Y-105894040D01*
X169089605Y-106680000D01*
X168730395Y-106680000D01*
X167944435Y-105894040D01*
X167704344Y-105961020D01*
X167587244Y-106210048D01*
X167520977Y-106477135D01*
X167508090Y-106752017D01*
X139827000Y-106752017D01*
X139827000Y-106542408D01*
X139773314Y-106272510D01*
X139668005Y-106018273D01*
X139515120Y-105789465D01*
X139320535Y-105594880D01*
X139091727Y-105441995D01*
X139014485Y-105410000D01*
X139091727Y-105378005D01*
X139320535Y-105225120D01*
X139440090Y-105105565D01*
X168124040Y-105105565D01*
X168191020Y-105345656D01*
X168321644Y-105407079D01*
X168306977Y-105412364D01*
X168191020Y-105474344D01*
X168124040Y-105714435D01*
X168910000Y-106500395D01*
X169695960Y-105714435D01*
X169628980Y-105474344D01*
X169498356Y-105412921D01*
X169513023Y-105407636D01*
X169628980Y-105345656D01*
X169695960Y-105105565D01*
X168910000Y-104319605D01*
X168124040Y-105105565D01*
X139440090Y-105105565D01*
X139515120Y-105030535D01*
X139668005Y-104801727D01*
X139773314Y-104547490D01*
X139827000Y-104277592D01*
X139827000Y-104212017D01*
X167508090Y-104212017D01*
X167549078Y-104484133D01*
X167642364Y-104743023D01*
X167704344Y-104858980D01*
X167944435Y-104925960D01*
X168730395Y-104140000D01*
X169089605Y-104140000D01*
X169875565Y-104925960D01*
X170115656Y-104858980D01*
X170232756Y-104609952D01*
X170299023Y-104342865D01*
X170311910Y-104067983D01*
X170270922Y-103795867D01*
X170177636Y-103536977D01*
X170115656Y-103421020D01*
X169875565Y-103354040D01*
X169089605Y-104140000D01*
X168730395Y-104140000D01*
X167944435Y-103354040D01*
X167704344Y-103421020D01*
X167587244Y-103670048D01*
X167520977Y-103937135D01*
X167508090Y-104212017D01*
X139827000Y-104212017D01*
X139827000Y-104002408D01*
X139773314Y-103732510D01*
X139668005Y-103478273D01*
X139515120Y-103249465D01*
X139320535Y-103054880D01*
X139091727Y-102901995D01*
X139014485Y-102870000D01*
X139091727Y-102838005D01*
X139320535Y-102685120D01*
X139515120Y-102490535D01*
X139668005Y-102261727D01*
X139773314Y-102007490D01*
X139827000Y-101737592D01*
X139827000Y-101462408D01*
X139773314Y-101192510D01*
X139668005Y-100938273D01*
X139515120Y-100709465D01*
X139320535Y-100514880D01*
X139091727Y-100361995D01*
X139014485Y-100330000D01*
X139091727Y-100298005D01*
X139320535Y-100145120D01*
X139515120Y-99950535D01*
X139668005Y-99721727D01*
X139773314Y-99467490D01*
X139827000Y-99197592D01*
X139827000Y-98922408D01*
X139773314Y-98652510D01*
X139668005Y-98398273D01*
X139515120Y-98169465D01*
X139320535Y-97974880D01*
X139091727Y-97821995D01*
X139014485Y-97790000D01*
X139091727Y-97758005D01*
X139320535Y-97605120D01*
X139515120Y-97410535D01*
X139668005Y-97181727D01*
X139773314Y-96927490D01*
X139827000Y-96657592D01*
X139827000Y-96382408D01*
X139773314Y-96112510D01*
X139668005Y-95858273D01*
X139515120Y-95629465D01*
X139320535Y-95434880D01*
X139091727Y-95281995D01*
X139014485Y-95250000D01*
X139091727Y-95218005D01*
X139320535Y-95065120D01*
X139515120Y-94870535D01*
X139668005Y-94641727D01*
X139773314Y-94387490D01*
X139827000Y-94117592D01*
X139827000Y-93842408D01*
X139773314Y-93572510D01*
X139668005Y-93318273D01*
X139515120Y-93089465D01*
X139320535Y-92894880D01*
X139091727Y-92741995D01*
X139014485Y-92710000D01*
X139091727Y-92678005D01*
X139320535Y-92525120D01*
X139515120Y-92330535D01*
X139668005Y-92101727D01*
X139773314Y-91847490D01*
X139827000Y-91577592D01*
X139827000Y-91330985D01*
X164426900Y-91330985D01*
X164426900Y-91523615D01*
X164464480Y-91712543D01*
X164538196Y-91890510D01*
X164645215Y-92050675D01*
X164781425Y-92186885D01*
X164857719Y-92237863D01*
X165905301Y-93285446D01*
X165905300Y-95456848D01*
X165900656Y-95504000D01*
X165905300Y-95551152D01*
X165905300Y-95551161D01*
X165919190Y-95692192D01*
X165974084Y-95873153D01*
X166063227Y-96039928D01*
X166183193Y-96186107D01*
X166219831Y-96216175D01*
X167169129Y-97165474D01*
X167199193Y-97202107D01*
X167235826Y-97232171D01*
X167345371Y-97322073D01*
X167510872Y-97410535D01*
X167512146Y-97411216D01*
X167693107Y-97466110D01*
X167834138Y-97480000D01*
X167834148Y-97480000D01*
X167881300Y-97484644D01*
X167897403Y-97483058D01*
X168019465Y-97605120D01*
X168248273Y-97758005D01*
X168325515Y-97790000D01*
X168248273Y-97821995D01*
X168019465Y-97974880D01*
X167824880Y-98169465D01*
X167671995Y-98398273D01*
X167566686Y-98652510D01*
X167513000Y-98922408D01*
X167513000Y-99197592D01*
X167566686Y-99467490D01*
X167671995Y-99721727D01*
X167824880Y-99950535D01*
X168019465Y-100145120D01*
X168248273Y-100298005D01*
X168325515Y-100330000D01*
X168248273Y-100361995D01*
X168019465Y-100514880D01*
X167824880Y-100709465D01*
X167671995Y-100938273D01*
X167566686Y-101192510D01*
X167513000Y-101462408D01*
X167513000Y-101737592D01*
X167566686Y-102007490D01*
X167671995Y-102261727D01*
X167824880Y-102490535D01*
X168019465Y-102685120D01*
X168248273Y-102838005D01*
X168319943Y-102867692D01*
X168306977Y-102872364D01*
X168191020Y-102934344D01*
X168124040Y-103174435D01*
X168910000Y-103960395D01*
X169695960Y-103174435D01*
X169628980Y-102934344D01*
X169493240Y-102870515D01*
X169571727Y-102838005D01*
X169800535Y-102685120D01*
X169995120Y-102490535D01*
X170148005Y-102261727D01*
X170253314Y-102007490D01*
X170307000Y-101737592D01*
X170307000Y-101462408D01*
X170253314Y-101192510D01*
X170148005Y-100938273D01*
X169995120Y-100709465D01*
X169800535Y-100514880D01*
X169571727Y-100361995D01*
X169494485Y-100330000D01*
X169571727Y-100298005D01*
X169800535Y-100145120D01*
X169995120Y-99950535D01*
X170148005Y-99721727D01*
X170253314Y-99467490D01*
X170307000Y-99197592D01*
X170307000Y-98922408D01*
X170253314Y-98652510D01*
X170148005Y-98398273D01*
X169995120Y-98169465D01*
X169800535Y-97974880D01*
X169571727Y-97821995D01*
X169494485Y-97790000D01*
X169571727Y-97758005D01*
X169800535Y-97605120D01*
X169995120Y-97410535D01*
X170148005Y-97181727D01*
X170253314Y-96927490D01*
X170307000Y-96657592D01*
X170307000Y-96382408D01*
X170253314Y-96112510D01*
X170148005Y-95858273D01*
X169995120Y-95629465D01*
X169800535Y-95434880D01*
X169571727Y-95281995D01*
X169494485Y-95250000D01*
X169571727Y-95218005D01*
X169800535Y-95065120D01*
X169995120Y-94870535D01*
X170148005Y-94641727D01*
X170253314Y-94387490D01*
X170307000Y-94117592D01*
X170307000Y-93842408D01*
X170253314Y-93572510D01*
X170148005Y-93318273D01*
X169995120Y-93089465D01*
X169800535Y-92894880D01*
X169571727Y-92741995D01*
X169494485Y-92710000D01*
X169571727Y-92678005D01*
X169800535Y-92525120D01*
X169995120Y-92330535D01*
X170148005Y-92101727D01*
X170253314Y-91847490D01*
X170307000Y-91577592D01*
X170307000Y-91302408D01*
X170253314Y-91032510D01*
X170148005Y-90778273D01*
X169995120Y-90549465D01*
X169800535Y-90354880D01*
X169571727Y-90201995D01*
X169494485Y-90170000D01*
X169571727Y-90138005D01*
X169800535Y-89985120D01*
X169995120Y-89790535D01*
X170148005Y-89561727D01*
X170253314Y-89307490D01*
X170307000Y-89037592D01*
X170307000Y-88762408D01*
X170253314Y-88492510D01*
X170148005Y-88238273D01*
X169995120Y-88009465D01*
X169800535Y-87814880D01*
X169571727Y-87661995D01*
X169317490Y-87556686D01*
X169047592Y-87503000D01*
X168772408Y-87503000D01*
X168502510Y-87556686D01*
X168248273Y-87661995D01*
X168019465Y-87814880D01*
X167824880Y-88009465D01*
X167671995Y-88238273D01*
X167566686Y-88492510D01*
X167513000Y-88762408D01*
X167513000Y-89037592D01*
X167566686Y-89307490D01*
X167671995Y-89561727D01*
X167824880Y-89790535D01*
X168019465Y-89985120D01*
X168248273Y-90138005D01*
X168325515Y-90170000D01*
X168248273Y-90201995D01*
X168019465Y-90354880D01*
X167824880Y-90549465D01*
X167671995Y-90778273D01*
X167566686Y-91032510D01*
X167513000Y-91302408D01*
X167513000Y-91577592D01*
X167566686Y-91847490D01*
X167671995Y-92101727D01*
X167824880Y-92330535D01*
X168019465Y-92525120D01*
X168248273Y-92678005D01*
X168325515Y-92710000D01*
X168248273Y-92741995D01*
X168019465Y-92894880D01*
X167825300Y-93089045D01*
X167825300Y-92934960D01*
X167829945Y-92887800D01*
X167825300Y-92840638D01*
X167811410Y-92699607D01*
X167756516Y-92518646D01*
X167675791Y-92367620D01*
X167667373Y-92351871D01*
X167577471Y-92242326D01*
X167547407Y-92205693D01*
X167510774Y-92175629D01*
X166215363Y-90880219D01*
X166164385Y-90803925D01*
X166028175Y-90667715D01*
X165868010Y-90560696D01*
X165690043Y-90486980D01*
X165501115Y-90449400D01*
X165308485Y-90449400D01*
X165119557Y-90486980D01*
X164941590Y-90560696D01*
X164781425Y-90667715D01*
X164645215Y-90803925D01*
X164538196Y-90964090D01*
X164464480Y-91142057D01*
X164426900Y-91330985D01*
X139827000Y-91330985D01*
X139827000Y-91302408D01*
X139773314Y-91032510D01*
X139668005Y-90778273D01*
X139515120Y-90549465D01*
X139320535Y-90354880D01*
X139091727Y-90201995D01*
X139014485Y-90170000D01*
X139091727Y-90138005D01*
X139320535Y-89985120D01*
X139515120Y-89790535D01*
X139668005Y-89561727D01*
X139773314Y-89307490D01*
X139827000Y-89037592D01*
X139827000Y-88762408D01*
X139773314Y-88492510D01*
X139668005Y-88238273D01*
X139515120Y-88009465D01*
X139320535Y-87814880D01*
X139091727Y-87661995D01*
X138837490Y-87556686D01*
X138567592Y-87503000D01*
X138292408Y-87503000D01*
X138022510Y-87556686D01*
X137768273Y-87661995D01*
X137539465Y-87814880D01*
X137344880Y-88009465D01*
X137191995Y-88238273D01*
X137086686Y-88492510D01*
X137033000Y-88762408D01*
X136290050Y-88762408D01*
X136290050Y-85360214D01*
X136383262Y-85499715D01*
X136750285Y-85866738D01*
X137181859Y-86155107D01*
X137661399Y-86353739D01*
X138170475Y-86455000D01*
X138689525Y-86455000D01*
X139198601Y-86353739D01*
X139678141Y-86155107D01*
X140109715Y-85866738D01*
X140476738Y-85499715D01*
X140765107Y-85068141D01*
X140963739Y-84588601D01*
X141065000Y-84079525D01*
X141065000Y-83560475D01*
X140963739Y-83051399D01*
X140765107Y-82571859D01*
X140476738Y-82140285D01*
X140109715Y-81773262D01*
X139970214Y-81680050D01*
X167369786Y-81680050D01*
X167230285Y-81773262D01*
%TA.AperFunction,Conductor*%
D15*
G36*
X167230285Y-81773262D02*
G01*
X166863262Y-82140285D01*
X166574893Y-82571859D01*
X166376261Y-83051399D01*
X166275000Y-83560475D01*
X166275000Y-84079525D01*
X166376261Y-84588601D01*
X166574893Y-85068141D01*
X166863262Y-85499715D01*
X167230285Y-85866738D01*
X167661859Y-86155107D01*
X168141399Y-86353739D01*
X168650475Y-86455000D01*
X169169525Y-86455000D01*
X169678601Y-86353739D01*
X170158141Y-86155107D01*
X170589715Y-85866738D01*
X170956738Y-85499715D01*
X171049951Y-85360212D01*
X171049950Y-110219786D01*
X170956738Y-110080285D01*
X170589715Y-109713262D01*
X170158141Y-109424893D01*
X169678601Y-109226261D01*
X169169525Y-109125000D01*
X168650475Y-109125000D01*
X168141399Y-109226261D01*
X167661859Y-109424893D01*
X167230285Y-109713262D01*
X166863262Y-110080285D01*
X166574893Y-110511859D01*
X166376261Y-110991399D01*
X166275000Y-111500475D01*
X166275000Y-112019525D01*
X166376261Y-112528601D01*
X166574893Y-113008141D01*
X166863262Y-113439715D01*
X167230285Y-113806738D01*
X167369786Y-113899950D01*
X139970214Y-113899950D01*
X140109715Y-113806738D01*
X140476738Y-113439715D01*
X140765107Y-113008141D01*
X140963739Y-112528601D01*
X141065000Y-112019525D01*
X141065000Y-111500475D01*
X140963739Y-110991399D01*
X140765107Y-110511859D01*
X140476738Y-110080285D01*
X140109715Y-109713262D01*
X139678141Y-109424893D01*
X139198601Y-109226261D01*
X138689525Y-109125000D01*
X138170475Y-109125000D01*
X137661399Y-109226261D01*
X137181859Y-109424893D01*
X136750285Y-109713262D01*
X136383262Y-110080285D01*
X136290050Y-110219786D01*
X136290050Y-88762408D01*
X137033000Y-88762408D01*
X137033000Y-89037592D01*
X137086686Y-89307490D01*
X137191995Y-89561727D01*
X137344880Y-89790535D01*
X137539465Y-89985120D01*
X137768273Y-90138005D01*
X137845515Y-90170000D01*
X137768273Y-90201995D01*
X137539465Y-90354880D01*
X137344880Y-90549465D01*
X137191995Y-90778273D01*
X137086686Y-91032510D01*
X137033000Y-91302408D01*
X137033000Y-91577592D01*
X137086686Y-91847490D01*
X137191995Y-92101727D01*
X137344880Y-92330535D01*
X137539465Y-92525120D01*
X137768273Y-92678005D01*
X137845515Y-92710000D01*
X137768273Y-92741995D01*
X137539465Y-92894880D01*
X137344880Y-93089465D01*
X137191995Y-93318273D01*
X137086686Y-93572510D01*
X137033000Y-93842408D01*
X137033000Y-94117592D01*
X137086686Y-94387490D01*
X137191995Y-94641727D01*
X137344880Y-94870535D01*
X137539465Y-95065120D01*
X137768273Y-95218005D01*
X137845515Y-95250000D01*
X137768273Y-95281995D01*
X137539465Y-95434880D01*
X137344880Y-95629465D01*
X137191995Y-95858273D01*
X137086686Y-96112510D01*
X137033000Y-96382408D01*
X137033000Y-96657592D01*
X137086686Y-96927490D01*
X137191995Y-97181727D01*
X137344880Y-97410535D01*
X137539465Y-97605120D01*
X137768273Y-97758005D01*
X137845515Y-97790000D01*
X137768273Y-97821995D01*
X137539465Y-97974880D01*
X137344880Y-98169465D01*
X137191995Y-98398273D01*
X137086686Y-98652510D01*
X137033000Y-98922408D01*
X137033000Y-99197592D01*
X137086686Y-99467490D01*
X137191995Y-99721727D01*
X137344880Y-99950535D01*
X137539465Y-100145120D01*
X137768273Y-100298005D01*
X137845515Y-100330000D01*
X137768273Y-100361995D01*
X137539465Y-100514880D01*
X137344880Y-100709465D01*
X137191995Y-100938273D01*
X137086686Y-101192510D01*
X137033000Y-101462408D01*
X137033000Y-101737592D01*
X137086686Y-102007490D01*
X137191995Y-102261727D01*
X137344880Y-102490535D01*
X137539465Y-102685120D01*
X137768273Y-102838005D01*
X137845515Y-102870000D01*
X137768273Y-102901995D01*
X137539465Y-103054880D01*
X137344880Y-103249465D01*
X137191995Y-103478273D01*
X137086686Y-103732510D01*
X137033000Y-104002408D01*
X137033000Y-104277592D01*
X137086686Y-104547490D01*
X137191995Y-104801727D01*
X137344880Y-105030535D01*
X137539465Y-105225120D01*
X137768273Y-105378005D01*
X137845515Y-105410000D01*
X137768273Y-105441995D01*
X137539465Y-105594880D01*
X137344880Y-105789465D01*
X137191995Y-106018273D01*
X137086686Y-106272510D01*
X137033000Y-106542408D01*
X137033000Y-106817592D01*
X137086686Y-107087490D01*
X137191995Y-107341727D01*
X137344880Y-107570535D01*
X137539465Y-107765120D01*
X137768273Y-107918005D01*
X138022510Y-108023314D01*
X138292408Y-108077000D01*
X138567592Y-108077000D01*
X138837490Y-108023314D01*
X139091727Y-107918005D01*
X139320535Y-107765120D01*
X139440090Y-107645565D01*
X168124040Y-107645565D01*
X168191020Y-107885656D01*
X168440048Y-108002756D01*
X168707135Y-108069023D01*
X168982017Y-108081910D01*
X169254133Y-108040922D01*
X169513023Y-107947636D01*
X169628980Y-107885656D01*
X169695960Y-107645565D01*
X168910000Y-106859605D01*
X168124040Y-107645565D01*
X139440090Y-107645565D01*
X139515120Y-107570535D01*
X139668005Y-107341727D01*
X139773314Y-107087490D01*
X139827000Y-106817592D01*
X139827000Y-106752017D01*
X167508090Y-106752017D01*
X167549078Y-107024133D01*
X167642364Y-107283023D01*
X167704344Y-107398980D01*
X167944435Y-107465960D01*
X168730395Y-106680000D01*
X169089605Y-106680000D01*
X169875565Y-107465960D01*
X170115656Y-107398980D01*
X170232756Y-107149952D01*
X170299023Y-106882865D01*
X170311910Y-106607983D01*
X170270922Y-106335867D01*
X170177636Y-106076977D01*
X170115656Y-105961020D01*
X169875565Y-105894040D01*
X169089605Y-106680000D01*
X168730395Y-106680000D01*
X167944435Y-105894040D01*
X167704344Y-105961020D01*
X167587244Y-106210048D01*
X167520977Y-106477135D01*
X167508090Y-106752017D01*
X139827000Y-106752017D01*
X139827000Y-106542408D01*
X139773314Y-106272510D01*
X139668005Y-106018273D01*
X139515120Y-105789465D01*
X139320535Y-105594880D01*
X139091727Y-105441995D01*
X139014485Y-105410000D01*
X139091727Y-105378005D01*
X139320535Y-105225120D01*
X139440090Y-105105565D01*
X168124040Y-105105565D01*
X168191020Y-105345656D01*
X168321644Y-105407079D01*
X168306977Y-105412364D01*
X168191020Y-105474344D01*
X168124040Y-105714435D01*
X168910000Y-106500395D01*
X169695960Y-105714435D01*
X169628980Y-105474344D01*
X169498356Y-105412921D01*
X169513023Y-105407636D01*
X169628980Y-105345656D01*
X169695960Y-105105565D01*
X168910000Y-104319605D01*
X168124040Y-105105565D01*
X139440090Y-105105565D01*
X139515120Y-105030535D01*
X139668005Y-104801727D01*
X139773314Y-104547490D01*
X139827000Y-104277592D01*
X139827000Y-104212017D01*
X167508090Y-104212017D01*
X167549078Y-104484133D01*
X167642364Y-104743023D01*
X167704344Y-104858980D01*
X167944435Y-104925960D01*
X168730395Y-104140000D01*
X169089605Y-104140000D01*
X169875565Y-104925960D01*
X170115656Y-104858980D01*
X170232756Y-104609952D01*
X170299023Y-104342865D01*
X170311910Y-104067983D01*
X170270922Y-103795867D01*
X170177636Y-103536977D01*
X170115656Y-103421020D01*
X169875565Y-103354040D01*
X169089605Y-104140000D01*
X168730395Y-104140000D01*
X167944435Y-103354040D01*
X167704344Y-103421020D01*
X167587244Y-103670048D01*
X167520977Y-103937135D01*
X167508090Y-104212017D01*
X139827000Y-104212017D01*
X139827000Y-104002408D01*
X139773314Y-103732510D01*
X139668005Y-103478273D01*
X139515120Y-103249465D01*
X139320535Y-103054880D01*
X139091727Y-102901995D01*
X139014485Y-102870000D01*
X139091727Y-102838005D01*
X139320535Y-102685120D01*
X139515120Y-102490535D01*
X139668005Y-102261727D01*
X139773314Y-102007490D01*
X139827000Y-101737592D01*
X139827000Y-101462408D01*
X139773314Y-101192510D01*
X139668005Y-100938273D01*
X139515120Y-100709465D01*
X139320535Y-100514880D01*
X139091727Y-100361995D01*
X139014485Y-100330000D01*
X139091727Y-100298005D01*
X139320535Y-100145120D01*
X139515120Y-99950535D01*
X139668005Y-99721727D01*
X139773314Y-99467490D01*
X139827000Y-99197592D01*
X139827000Y-98922408D01*
X139773314Y-98652510D01*
X139668005Y-98398273D01*
X139515120Y-98169465D01*
X139320535Y-97974880D01*
X139091727Y-97821995D01*
X139014485Y-97790000D01*
X139091727Y-97758005D01*
X139320535Y-97605120D01*
X139515120Y-97410535D01*
X139668005Y-97181727D01*
X139773314Y-96927490D01*
X139827000Y-96657592D01*
X139827000Y-96382408D01*
X139773314Y-96112510D01*
X139668005Y-95858273D01*
X139515120Y-95629465D01*
X139320535Y-95434880D01*
X139091727Y-95281995D01*
X139014485Y-95250000D01*
X139091727Y-95218005D01*
X139320535Y-95065120D01*
X139515120Y-94870535D01*
X139668005Y-94641727D01*
X139773314Y-94387490D01*
X139827000Y-94117592D01*
X139827000Y-93842408D01*
X139773314Y-93572510D01*
X139668005Y-93318273D01*
X139515120Y-93089465D01*
X139320535Y-92894880D01*
X139091727Y-92741995D01*
X139014485Y-92710000D01*
X139091727Y-92678005D01*
X139320535Y-92525120D01*
X139515120Y-92330535D01*
X139668005Y-92101727D01*
X139773314Y-91847490D01*
X139827000Y-91577592D01*
X139827000Y-91330985D01*
X164426900Y-91330985D01*
X164426900Y-91523615D01*
X164464480Y-91712543D01*
X164538196Y-91890510D01*
X164645215Y-92050675D01*
X164781425Y-92186885D01*
X164857719Y-92237863D01*
X165905301Y-93285446D01*
X165905300Y-95456848D01*
X165900656Y-95504000D01*
X165905300Y-95551152D01*
X165905300Y-95551161D01*
X165919190Y-95692192D01*
X165974084Y-95873153D01*
X166063227Y-96039928D01*
X166183193Y-96186107D01*
X166219831Y-96216175D01*
X167169129Y-97165474D01*
X167199193Y-97202107D01*
X167235826Y-97232171D01*
X167345371Y-97322073D01*
X167510872Y-97410535D01*
X167512146Y-97411216D01*
X167693107Y-97466110D01*
X167834138Y-97480000D01*
X167834148Y-97480000D01*
X167881300Y-97484644D01*
X167897403Y-97483058D01*
X168019465Y-97605120D01*
X168248273Y-97758005D01*
X168325515Y-97790000D01*
X168248273Y-97821995D01*
X168019465Y-97974880D01*
X167824880Y-98169465D01*
X167671995Y-98398273D01*
X167566686Y-98652510D01*
X167513000Y-98922408D01*
X167513000Y-99197592D01*
X167566686Y-99467490D01*
X167671995Y-99721727D01*
X167824880Y-99950535D01*
X168019465Y-100145120D01*
X168248273Y-100298005D01*
X168325515Y-100330000D01*
X168248273Y-100361995D01*
X168019465Y-100514880D01*
X167824880Y-100709465D01*
X167671995Y-100938273D01*
X167566686Y-101192510D01*
X167513000Y-101462408D01*
X167513000Y-101737592D01*
X167566686Y-102007490D01*
X167671995Y-102261727D01*
X167824880Y-102490535D01*
X168019465Y-102685120D01*
X168248273Y-102838005D01*
X168319943Y-102867692D01*
X168306977Y-102872364D01*
X168191020Y-102934344D01*
X168124040Y-103174435D01*
X168910000Y-103960395D01*
X169695960Y-103174435D01*
X169628980Y-102934344D01*
X169493240Y-102870515D01*
X169571727Y-102838005D01*
X169800535Y-102685120D01*
X169995120Y-102490535D01*
X170148005Y-102261727D01*
X170253314Y-102007490D01*
X170307000Y-101737592D01*
X170307000Y-101462408D01*
X170253314Y-101192510D01*
X170148005Y-100938273D01*
X169995120Y-100709465D01*
X169800535Y-100514880D01*
X169571727Y-100361995D01*
X169494485Y-100330000D01*
X169571727Y-100298005D01*
X169800535Y-100145120D01*
X169995120Y-99950535D01*
X170148005Y-99721727D01*
X170253314Y-99467490D01*
X170307000Y-99197592D01*
X170307000Y-98922408D01*
X170253314Y-98652510D01*
X170148005Y-98398273D01*
X169995120Y-98169465D01*
X169800535Y-97974880D01*
X169571727Y-97821995D01*
X169494485Y-97790000D01*
X169571727Y-97758005D01*
X169800535Y-97605120D01*
X169995120Y-97410535D01*
X170148005Y-97181727D01*
X170253314Y-96927490D01*
X170307000Y-96657592D01*
X170307000Y-96382408D01*
X170253314Y-96112510D01*
X170148005Y-95858273D01*
X169995120Y-95629465D01*
X169800535Y-95434880D01*
X169571727Y-95281995D01*
X169494485Y-95250000D01*
X169571727Y-95218005D01*
X169800535Y-95065120D01*
X169995120Y-94870535D01*
X170148005Y-94641727D01*
X170253314Y-94387490D01*
X170307000Y-94117592D01*
X170307000Y-93842408D01*
X170253314Y-93572510D01*
X170148005Y-93318273D01*
X169995120Y-93089465D01*
X169800535Y-92894880D01*
X169571727Y-92741995D01*
X169494485Y-92710000D01*
X169571727Y-92678005D01*
X169800535Y-92525120D01*
X169995120Y-92330535D01*
X170148005Y-92101727D01*
X170253314Y-91847490D01*
X170307000Y-91577592D01*
X170307000Y-91302408D01*
X170253314Y-91032510D01*
X170148005Y-90778273D01*
X169995120Y-90549465D01*
X169800535Y-90354880D01*
X169571727Y-90201995D01*
X169494485Y-90170000D01*
X169571727Y-90138005D01*
X169800535Y-89985120D01*
X169995120Y-89790535D01*
X170148005Y-89561727D01*
X170253314Y-89307490D01*
X170307000Y-89037592D01*
X170307000Y-88762408D01*
X170253314Y-88492510D01*
X170148005Y-88238273D01*
X169995120Y-88009465D01*
X169800535Y-87814880D01*
X169571727Y-87661995D01*
X169317490Y-87556686D01*
X169047592Y-87503000D01*
X168772408Y-87503000D01*
X168502510Y-87556686D01*
X168248273Y-87661995D01*
X168019465Y-87814880D01*
X167824880Y-88009465D01*
X167671995Y-88238273D01*
X167566686Y-88492510D01*
X167513000Y-88762408D01*
X167513000Y-89037592D01*
X167566686Y-89307490D01*
X167671995Y-89561727D01*
X167824880Y-89790535D01*
X168019465Y-89985120D01*
X168248273Y-90138005D01*
X168325515Y-90170000D01*
X168248273Y-90201995D01*
X168019465Y-90354880D01*
X167824880Y-90549465D01*
X167671995Y-90778273D01*
X167566686Y-91032510D01*
X167513000Y-91302408D01*
X167513000Y-91577592D01*
X167566686Y-91847490D01*
X167671995Y-92101727D01*
X167824880Y-92330535D01*
X168019465Y-92525120D01*
X168248273Y-92678005D01*
X168325515Y-92710000D01*
X168248273Y-92741995D01*
X168019465Y-92894880D01*
X167825300Y-93089045D01*
X167825300Y-92934960D01*
X167829945Y-92887800D01*
X167825300Y-92840638D01*
X167811410Y-92699607D01*
X167756516Y-92518646D01*
X167675791Y-92367620D01*
X167667373Y-92351871D01*
X167577471Y-92242326D01*
X167547407Y-92205693D01*
X167510774Y-92175629D01*
X166215363Y-90880219D01*
X166164385Y-90803925D01*
X166028175Y-90667715D01*
X165868010Y-90560696D01*
X165690043Y-90486980D01*
X165501115Y-90449400D01*
X165308485Y-90449400D01*
X165119557Y-90486980D01*
X164941590Y-90560696D01*
X164781425Y-90667715D01*
X164645215Y-90803925D01*
X164538196Y-90964090D01*
X164464480Y-91142057D01*
X164426900Y-91330985D01*
X139827000Y-91330985D01*
X139827000Y-91302408D01*
X139773314Y-91032510D01*
X139668005Y-90778273D01*
X139515120Y-90549465D01*
X139320535Y-90354880D01*
X139091727Y-90201995D01*
X139014485Y-90170000D01*
X139091727Y-90138005D01*
X139320535Y-89985120D01*
X139515120Y-89790535D01*
X139668005Y-89561727D01*
X139773314Y-89307490D01*
X139827000Y-89037592D01*
X139827000Y-88762408D01*
X139773314Y-88492510D01*
X139668005Y-88238273D01*
X139515120Y-88009465D01*
X139320535Y-87814880D01*
X139091727Y-87661995D01*
X138837490Y-87556686D01*
X138567592Y-87503000D01*
X138292408Y-87503000D01*
X138022510Y-87556686D01*
X137768273Y-87661995D01*
X137539465Y-87814880D01*
X137344880Y-88009465D01*
X137191995Y-88238273D01*
X137086686Y-88492510D01*
X137033000Y-88762408D01*
X136290050Y-88762408D01*
X136290050Y-85360214D01*
X136383262Y-85499715D01*
X136750285Y-85866738D01*
X137181859Y-86155107D01*
X137661399Y-86353739D01*
X138170475Y-86455000D01*
X138689525Y-86455000D01*
X139198601Y-86353739D01*
X139678141Y-86155107D01*
X140109715Y-85866738D01*
X140476738Y-85499715D01*
X140765107Y-85068141D01*
X140963739Y-84588601D01*
X141065000Y-84079525D01*
X141065000Y-83560475D01*
X140963739Y-83051399D01*
X140765107Y-82571859D01*
X140476738Y-82140285D01*
X140109715Y-81773262D01*
X139970214Y-81680050D01*
X167369786Y-81680050D01*
X167230285Y-81773262D01*
G37*
%TD.AperFunction*%
%TD*%
M02*
