%TF.GenerationSoftware,KiCad,Pcbnew,(5.1.9)-1*%
%TF.CreationDate,2021-12-11T15:05:51-08:00*%
%TF.ProjectId,VN-100Breakout,564e2d31-3030-4427-9265-616b6f75742e,rev?*%
%TF.SameCoordinates,Original*%
%TF.FileFunction,Copper,L1,Top*%
%TF.FilePolarity,Positive*%
%FSLAX46Y46*%
G04 Gerber Fmt 4.6, Leading zero omitted, Abs format (unit mm)*
G04 Created by KiCad (PCBNEW (5.1.9)-1) date 2021-12-11 15:05:51*
%MOMM*%
%LPD*%
G01*
G04 APERTURE LIST*
%TA.AperFunction,SMDPad,CuDef*%
%ADD10R,2.540000X1.143000*%
%TD*%
%TA.AperFunction,SMDPad,CuDef*%
%ADD11R,1.143000X2.540000*%
%TD*%
%TA.AperFunction,ComponentPad*%
%ADD12C,4.000000*%
%TD*%
%TA.AperFunction,ComponentPad*%
%ADD13C,1.524000*%
%TD*%
%TA.AperFunction,ViaPad*%
%ADD14C,0.685800*%
%TD*%
%TA.AperFunction,Conductor*%
%ADD15C,0.650000*%
%TD*%
%TA.AperFunction,Conductor*%
%ADD16C,0.762000*%
%TD*%
%TA.AperFunction,Conductor*%
%ADD17C,0.508000*%
%TD*%
G04 APERTURE END LIST*
D10*
%TO.P,U2,16*%
%TO.N,/SPI_SCK*%
X143383000Y-88900000D03*
%TO.P,U2,8*%
%TO.N,Net-(U2-Pad8)*%
X163957000Y-88900000D03*
%TO.P,U2,1*%
%TO.N,/GND*%
X163957000Y-106680000D03*
%TO.P,U2,2*%
X163957000Y-104140000D03*
%TO.P,U2,3*%
X163957000Y-101600000D03*
%TO.P,U2,4*%
X163957000Y-99060000D03*
%TO.P,U2,5*%
%TO.N,/RX2*%
X163957000Y-96520000D03*
%TO.P,U2,6*%
%TO.N,/TX2*%
X163957000Y-93980000D03*
%TO.P,U2,22*%
%TO.N,/SYNC_IN*%
X143383000Y-104140000D03*
%TO.P,U2,23*%
%TO.N,/SPI_CS*%
X143383000Y-106680000D03*
%TO.P,U2,21*%
%TO.N,/NRST*%
X143383000Y-101600000D03*
%TO.P,U2,20*%
%TO.N,Net-(U2-Pad20)*%
X143383000Y-99060000D03*
%TO.P,U2,19*%
%TO.N,/SPI_MISO*%
X143383000Y-96520000D03*
%TO.P,U2,18*%
%TO.N,Net-(U2-Pad18)*%
X143383000Y-93980000D03*
%TO.P,U2,17*%
%TO.N,/SPI_MOSI*%
X143383000Y-91440000D03*
%TO.P,U2,7*%
%TO.N,/Restore*%
X163957000Y-91440000D03*
D11*
%TO.P,U2,24*%
%TO.N,Net-(U2-Pad24)*%
X146050000Y-109093000D03*
%TO.P,U2,25*%
%TO.N,Net-(U2-Pad25)*%
X148590000Y-109093000D03*
%TO.P,U2,26*%
%TO.N,Net-(U2-Pad26)*%
X151130000Y-109093000D03*
%TO.P,U2,27*%
%TO.N,Net-(U2-Pad27)*%
X153670000Y-109093000D03*
%TO.P,U2,28*%
%TO.N,/GND*%
X156210000Y-109093000D03*
%TO.P,U2,29*%
%TO.N,Net-(U2-Pad29)*%
X158750000Y-109093000D03*
%TO.P,U2,15*%
%TO.N,Net-(U2-Pad15)*%
X146050000Y-86487000D03*
%TO.P,U2,14*%
%TO.N,Net-(U2-Pad14)*%
X148590000Y-86487000D03*
%TO.P,U2,13*%
%TO.N,/RX1*%
X151130000Y-86487000D03*
%TO.P,U2,12*%
%TO.N,/TX1*%
X153670000Y-86487000D03*
%TO.P,U2,11*%
%TO.N,/Enable*%
X156210000Y-86487000D03*
%TO.P,U2,10*%
%TO.N,/Vin*%
X158750000Y-86487000D03*
%TO.P,U2,30*%
%TO.N,/GND*%
X161290000Y-109093000D03*
%TO.P,U2,9*%
%TO.N,/SYNC_OUT*%
X161290000Y-86487000D03*
%TD*%
D12*
%TO.P,U1,*%
%TO.N,*%
X138430000Y-111760000D03*
X168910000Y-111760000D03*
X168910000Y-83820000D03*
X138430000Y-83820000D03*
D13*
%TO.P,U1,12*%
%TO.N,/TX2*%
X168910000Y-99060000D03*
%TO.P,U1,11*%
%TO.N,/RX2*%
X168910000Y-101600000D03*
%TO.P,U1,10*%
%TO.N,/GND*%
X168910000Y-104140000D03*
%TO.P,U1,9*%
X168910000Y-106680000D03*
%TO.P,U1,13*%
%TO.N,/Restore*%
X168910000Y-96520000D03*
%TO.P,U1,14*%
%TO.N,/SYNC_OUT*%
X168910000Y-93980000D03*
%TO.P,U1,15*%
%TO.N,/Vin*%
X168910000Y-91440000D03*
%TO.P,U1,16*%
%TO.N,/Enable*%
X168910000Y-88900000D03*
%TO.P,U1,1*%
%TO.N,/TX1*%
X138430000Y-88900000D03*
%TO.P,U1,8*%
%TO.N,/SPI_CS*%
X138430000Y-106680000D03*
%TO.P,U1,5*%
%TO.N,/SPI_MISO*%
X138430000Y-99060000D03*
%TO.P,U1,2*%
%TO.N,/RX1*%
X138430000Y-91440000D03*
%TO.P,U1,3*%
%TO.N,/SPI_SCK*%
X138430000Y-93980000D03*
%TO.P,U1,7*%
%TO.N,/SYNC_IN*%
X138430000Y-104140000D03*
%TO.P,U1,6*%
%TO.N,/NRST*%
X138430000Y-101600000D03*
%TO.P,U1,4*%
%TO.N,/SPI_MOSI*%
X138430000Y-96520000D03*
%TD*%
D14*
%TO.N,/Restore*%
X165404800Y-91427300D03*
%TO.N,/GND*%
X162483800Y-104127300D03*
X161302700Y-107619800D03*
X162496500Y-99021900D03*
X156215080Y-107645200D03*
X162433000Y-101600000D03*
X162483800Y-106654600D03*
%TD*%
D15*
%TO.N,/SPI_MOSI*%
X141363700Y-94805500D02*
X139649200Y-96520000D01*
X142049500Y-91440000D02*
X141363700Y-92125800D01*
X139649200Y-96520000D02*
X138430000Y-96520000D01*
X141363700Y-92125800D02*
X141363700Y-94805500D01*
X143383000Y-91440000D02*
X142049500Y-91440000D01*
%TO.N,/NRST*%
X138430000Y-101600000D02*
X143383000Y-101600000D01*
%TO.N,/SYNC_IN*%
X138430000Y-104140000D02*
X143383000Y-104140000D01*
%TO.N,/SPI_SCK*%
X139623800Y-93980000D02*
X138430000Y-93980000D01*
X140258800Y-93345000D02*
X139623800Y-93980000D01*
X140258800Y-91122500D02*
X140258800Y-93345000D01*
X142481300Y-88900000D02*
X140258800Y-91122500D01*
X143383000Y-88900000D02*
X142481300Y-88900000D01*
%TO.N,/TX1*%
X151866600Y-82727800D02*
X153670000Y-84531200D01*
X143332200Y-82727800D02*
X151866600Y-82727800D01*
X138430000Y-87630000D02*
X143332200Y-82727800D01*
X153670000Y-84531200D02*
X153670000Y-86487000D01*
X138430000Y-88900000D02*
X138430000Y-87630000D01*
D16*
%TO.N,/SPI_MISO*%
X143383000Y-96520000D02*
X143167098Y-96520000D01*
D15*
X138430000Y-99060000D02*
X140004800Y-99060000D01*
X140716000Y-97078800D02*
X141274800Y-96520000D01*
X141274800Y-96520000D02*
X143383000Y-96520000D01*
X140716000Y-98348800D02*
X140716000Y-97078800D01*
X140004800Y-99060000D02*
X140716000Y-98348800D01*
%TO.N,/SPI_CS*%
X138430000Y-106680000D02*
X143383000Y-106680000D01*
%TO.N,/RX1*%
X151130000Y-84709000D02*
X151130000Y-86487000D01*
X138430000Y-91440000D02*
X139941300Y-89928700D01*
X139941300Y-89928700D02*
X139941300Y-87591900D01*
X139941300Y-87591900D02*
X143687800Y-83845400D01*
X143687800Y-83845400D02*
X150266400Y-83845400D01*
X150266400Y-83845400D02*
X151130000Y-84709000D01*
%TO.N,/Enable*%
X156210000Y-84442300D02*
X156210000Y-86487000D01*
X157975300Y-82677000D02*
X156210000Y-84442300D01*
X164138038Y-82677000D02*
X157975300Y-82677000D01*
X166878000Y-85416962D02*
X164138038Y-82677000D01*
X166878000Y-86868000D02*
X166878000Y-85416962D01*
X168910000Y-88900000D02*
X166878000Y-86868000D01*
%TO.N,/Vin*%
X158750000Y-84567000D02*
X158750000Y-86487000D01*
X159535100Y-83781900D02*
X158750000Y-84567000D01*
X163283900Y-83781900D02*
X159535100Y-83781900D01*
X165862000Y-86360000D02*
X163283900Y-83781900D01*
X165862000Y-88392000D02*
X165862000Y-86360000D01*
X168910000Y-91440000D02*
X165862000Y-88392000D01*
%TO.N,/SYNC_OUT*%
X168910000Y-93980000D02*
X167589200Y-92659200D01*
X167589200Y-92659200D02*
X162217100Y-92659200D01*
X161290000Y-91732100D02*
X161290000Y-86487000D01*
X162217100Y-92659200D02*
X161290000Y-91732100D01*
%TO.N,/Restore*%
X163969700Y-91427300D02*
X163957000Y-91440000D01*
X165404800Y-91427300D02*
X163969700Y-91427300D01*
D17*
%TO.N,/GND*%
X156215080Y-109087920D02*
X156210000Y-109093000D01*
X156215080Y-107645200D02*
X156215080Y-109087920D01*
X161302700Y-109080300D02*
X161290000Y-109093000D01*
X161302700Y-107619800D02*
X161302700Y-109080300D01*
X163931600Y-106654600D02*
X163957000Y-106680000D01*
X162483800Y-106654600D02*
X163931600Y-106654600D01*
X163944300Y-104127300D02*
X163957000Y-104140000D01*
X162483800Y-104127300D02*
X163944300Y-104127300D01*
D15*
X163957000Y-106680000D02*
X168910000Y-106680000D01*
X168910000Y-104140000D02*
X163957000Y-104140000D01*
D17*
X163918900Y-99021900D02*
X163957000Y-99060000D01*
X162496500Y-99021900D02*
X163918900Y-99021900D01*
X162433000Y-101600000D02*
X163957000Y-101600000D01*
D15*
%TO.N,/TX2*%
X168910000Y-99060000D02*
X168236900Y-99060000D01*
X168236900Y-99060000D02*
X167462200Y-98285300D01*
X167462200Y-98285300D02*
X167462200Y-94843600D01*
X166598600Y-93980000D02*
X163957000Y-93980000D01*
X167462200Y-94843600D02*
X166598600Y-93980000D01*
%TO.N,/RX2*%
X168910000Y-101600000D02*
X167309800Y-101600000D01*
X167309800Y-101600000D02*
X166382700Y-100672900D01*
X163957000Y-96520000D02*
X165582600Y-96520000D01*
X166382700Y-97320100D02*
X166382700Y-100672900D01*
X165582600Y-96520000D02*
X166382700Y-97320100D01*
%TD*%
M02*
