%TF.GenerationSoftware,KiCad,Pcbnew,(5.1.9)-1*%
%TF.CreationDate,2021-12-11T15:05:51-08:00*%
%TF.ProjectId,VN-100Breakout,564e2d31-3030-4427-9265-616b6f75742e,rev?*%
%TF.SameCoordinates,Original*%
%TF.FileFunction,Legend,Top*%
%TF.FilePolarity,Positive*%
%FSLAX46Y46*%
G04 Gerber Fmt 4.6, Leading zero omitted, Abs format (unit mm)*
G04 Created by KiCad (PCBNEW (5.1.9)-1) date 2021-12-11 15:05:51*
%MOMM*%
%LPD*%
G01*
G04 APERTURE LIST*
%ADD10C,0.281250*%
%ADD11C,0.120000*%
%ADD12R,2.540000X1.143000*%
%ADD13R,1.143000X2.540000*%
%ADD14C,4.000000*%
%ADD15C,1.524000*%
G04 APERTURE END LIST*
D10*
X148867813Y-98725037D02*
X151272876Y-94548325D01*
X155529258Y-93471553D02*
X153710764Y-96643825D01*
X153711275Y-98724442D02*
X158554737Y-98723846D01*
X156148648Y-94547726D02*
X153711275Y-98724442D01*
X158554737Y-98723846D02*
X156148648Y-94547726D01*
X153711275Y-98724442D02*
X148867813Y-98725037D01*
X153709219Y-90357326D02*
X155529258Y-93471553D01*
X151892000Y-93472000D02*
X153711275Y-96643824D01*
X151272876Y-94548325D02*
X153711275Y-98724442D01*
X153711275Y-90357326D02*
X151892000Y-93472000D01*
X156148648Y-94547726D02*
X156148991Y-97339324D01*
X151273219Y-97339923D02*
X148867813Y-98725037D01*
X153709219Y-90357326D02*
X153711275Y-96643824D01*
X151272876Y-94548325D02*
X151273219Y-97339923D01*
X156148991Y-97339324D02*
X153711275Y-98724442D01*
X156148991Y-97339324D02*
X158554737Y-98723846D01*
X151273219Y-97339923D02*
X153711275Y-98724442D01*
X151892000Y-93472000D02*
X155529258Y-93471553D01*
D11*
%TO.C,U2*%
X141605000Y-84455000D02*
X165735000Y-84455000D01*
X165735000Y-84455000D02*
X165735000Y-111125000D01*
X165735000Y-111125000D02*
X141605000Y-111125000D01*
X141605000Y-111125000D02*
X141605000Y-84455000D01*
%TD*%
%LPC*%
D12*
%TO.C,U2*%
X143383000Y-88900000D03*
X163957000Y-88900000D03*
X163957000Y-106680000D03*
X163957000Y-104140000D03*
X163957000Y-101600000D03*
X163957000Y-99060000D03*
X163957000Y-96520000D03*
X163957000Y-93980000D03*
X143383000Y-104140000D03*
X143383000Y-106680000D03*
X143383000Y-101600000D03*
X143383000Y-99060000D03*
X143383000Y-96520000D03*
X143383000Y-93980000D03*
X143383000Y-91440000D03*
X163957000Y-91440000D03*
D13*
X146050000Y-109093000D03*
X148590000Y-109093000D03*
X151130000Y-109093000D03*
X153670000Y-109093000D03*
X156210000Y-109093000D03*
X158750000Y-109093000D03*
X146050000Y-86487000D03*
X148590000Y-86487000D03*
X151130000Y-86487000D03*
X153670000Y-86487000D03*
X156210000Y-86487000D03*
X158750000Y-86487000D03*
X161290000Y-109093000D03*
X161290000Y-86487000D03*
%TD*%
D14*
%TO.C,U1*%
X138430000Y-111760000D03*
X168910000Y-111760000D03*
X168910000Y-83820000D03*
X138430000Y-83820000D03*
D15*
X168910000Y-99060000D03*
X168910000Y-101600000D03*
X168910000Y-104140000D03*
X168910000Y-106680000D03*
X168910000Y-96520000D03*
X168910000Y-93980000D03*
X168910000Y-91440000D03*
X168910000Y-88900000D03*
X138430000Y-88900000D03*
X138430000Y-106680000D03*
X138430000Y-99060000D03*
X138430000Y-91440000D03*
X138430000Y-93980000D03*
X138430000Y-104140000D03*
X138430000Y-101600000D03*
X138430000Y-96520000D03*
%TD*%
M02*
