0
SECTION
2
HEADER
9
$INSUNITS
70
1
9
$ACADVER
1
AC1014
9
$HANDSEED
5
FFFF
0
ENDSEC
0
SECTION
2
TABLES
0
TABLE
2
VPORT
5
8
100
AcDbSymbolTable
0
ENDTAB
0
TABLE
2
LTYPE
5
5
100
AcDbSymbolTable
0
LTYPE
5
14
100
AcDbSymbolTableRecord
100
AcDbLinetypeTableRecord
2
BYBLOCK
70
0
0
LTYPE
5
15
100
AcDbSymbolTableRecord
100
AcDbLinetypeTableRecord
2
BYLAYER
70
0
0
ENDTAB
0
TABLE
2
LAYER
5
2
100
AcDbSymbolTable
70
2
0
LAYER
5
50
100
AcDbSymbolTableRecord
100
AcDbLayerTableRecord
2
0
70
0
6
CONTINUOUS
0
ENDTAB
0
TABLE
2
STYLE
5
3
100
AcDbSymbolTable
70
1
0
STYLE
5
11
100
AcDbSymbolTableRecord
100
AcDbTextStyleTableRecord
2
STANDARD
70
0
0
ENDTAB
0
TABLE
2
VIEW
5
6
100
AcDbSymbolTable
70
0
0
ENDTAB
0
TABLE
2
UCS
5
7
100
AcDbSymbolTable
70
0
0
ENDTAB
0
TABLE
2
APPID
5
9
100
AcDbSymbolTable
70
2
0
APPID
5
12
100
AcDbSymbolTableRecord
100
AcDbRegAppTableRecord
2
ACAD
70
0
0
ENDTAB
0
TABLE
2
DIMSTYLE
5
A
100
AcDbSymbolTable
70
1
0
ENDTAB
0
TABLE
2
BLOCK_RECORD
5
1
100
AcDbSymbolTable
70
1
0
BLOCK_RECORD
5
1F
100
AcDbSymbolTableRecord
100
AcDbBlockTableRecord
2
*MODEL_SPACE
0
BLOCK_RECORD
5
1B
100
AcDbSymbolTableRecord
100
AcDbBlockTableRecord
2
*PAPER_SPACE
0
ENDTAB
0
ENDSEC
0
SECTION
2
BLOCKS
0
BLOCK
5
20
100
AcDbEntity
100
AcDbBlockBegin
2
*MODEL_SPACE
0
ENDBLK
5
21
100
AcDbEntity
100
AcDbBlockEnd
0
BLOCK
5
1C
100
AcDbEntity
100
AcDbBlockBegin
2
*PAPER_SPACE
0
ENDBLK
5
1D
100
AcDbEntity
100
AcDbBlockEnd
0
ENDSEC
0
SECTION
2
ENTITIES
0
SPLINE
5
100
100
AcDbEntity
8
0
100
AcDbSpline
70
4
71
5
72
26
73
20
74
0
42
0.000000001
43
0.0000000001
44
0.0000000001
40
0
40
0
40
0
40
0
40
0
40
0
40
0.066666666666666666
40
0.13333333333333333
40
0.20000000000000001
40
0.26666666666666666
40
0.33333333333333331
40
0.39999999999999997
40
0.46666666666666662
40
0.53333333333333333
40
0.59999999999999998
40
0.66666666666666663
40
0.73333333333333328
40
0.79999999999999993
40
0.86666666666666659
40
0.93333333333333324
40
1
40
1
40
1
40
1
40
1
40
1
41
1
41
1
41
1
41
1
41
1
41
1
41
1
41
1
41
1
41
1
41
1
41
1
41
1
41
1
41
1
41
1
41
1
41
1
41
1
41
1
10
-0.093661150260613835
20
-0.17438000279594479
30
0
10
-0.10110059370559905
20
-0.16901375908565303
30
0
10
-0.11534562790580517
20
-0.15800418288680107
30
0
10
-0.13481164345214644
20
-0.14065856528984988
30
0
10
-0.15694610123891162
20
-0.11588617515724807
30
0
10
-0.1781499606606623
20
-0.082317314196368049
30
0
10
-0.19278157495333512
20
-0.046390766057229915
30
0
10
-0.20078586159356673
20
-0.0084843515716261503
30
0
10
-0.20223177581085316
20
0.030863908728869033
30
0
10
-0.19742797415197519
20
0.070906414933535195
30
0
10
-0.18688798926735234
20
0.11071559200155404
30
0
10
-0.17127010667023101
20
0.14923020405720847
30
0
10
-0.15135378188073856
20
0.18529089092573497
30
0
10
-0.1280143623442907
20
0.21768245781915799
30
0
10
-0.10223934391956499
20
0.24517349327368684
30
0
10
-0.075054203187848959
20
0.26658904988051663
30
0
10
-0.052904389299239678
20
0.27805180913857991
30
0
10
-0.036363486041942533
20
0.28313166674045182
30
0
10
-0.025403897411556745
20
0.28491497849106567
30
0
10
-0.019941028934247464
20
0.28540581335172016
30
0
0
LINE
5
101
100
AcDbEntity
8
0
100
AcDbLine
10
-0.093661150260613835
20
-0.17438000279594479
30
0
11
-0.093661150260613835
21
-0.19999999758296125
31
0
0
SPLINE
5
102
100
AcDbEntity
8
0
100
AcDbSpline
70
4
71
5
72
36
73
30
74
0
42
0.000000001
43
0.0000000001
44
0.0000000001
40
0
40
0
40
0
40
0
40
0
40
0
40
0.040000000000000001
40
0.080000000000000002
40
0.12
40
0.16
40
0.20000000000000001
40
0.24000000000000002
40
0.28000000000000003
40
0.32000000000000001
40
0.35999999999999999
40
0.39999999999999997
40
0.43999999999999995
40
0.47999999999999993
40
0.51999999999999991
40
0.55999999999999994
40
0.59999999999999998
40
0.64000000000000001
40
0.68000000000000005
40
0.72000000000000008
40
0.76000000000000012
40
0.80000000000000016
40
0.84000000000000019
40
0.88000000000000023
40
0.92000000000000026
40
0.9600000000000003
40
1
40
1
40
1
40
1
40
1
40
1
41
1
41
1
41
1
41
1
41
1
41
1
41
1
41
1
41
1
41
1
41
1
41
1
41
1
41
1
41
1
41
1
41
1
41
1
41
1
41
1
41
1
41
1
41
1
41
1
41
1
41
1
41
1
41
1
41
1
41
1
10
-0.093661150260613835
20
-0.19999999758296125
30
0
10
-0.093663183971868486
20
-0.20126381358514367
30
0
10
-0.093794474071794837
20
-0.20376703546488786
30
0
10
-0.094373091074841903
20
-0.20744862539235312
30
0
10
-0.095909816588205007
20
-0.21221065214341667
30
0
10
-0.099081385161385399
20
-0.21793463560782347
30
0
10
-0.10340656330511018
20
-0.22348428802187859
30
0
10
-0.10867875546469656
20
-0.22896787909306102
30
0
10
-0.11452738887269454
20
-0.23457831912660257
30
0
10
-0.12044778973201847
20
-0.24054832727331571
30
0
10
-0.12586115570014755
20
-0.24707879425131915
30
0
10
-0.13016386337753461
20
-0.25427430939341944
30
0
10
-0.13278053093993775
20
-0.2620776305434741
30
0
10
-0.13321709151854791
20
-0.27019460281961083
30
0
10
-0.13110118513367178
20
-0.27817531285928898
30
0
10
-0.12622504114182798
20
-0.28550850643776982
30
0
10
-0.11858578805425597
20
-0.29170611030079691
30
0
10
-0.1084404186859671
20
-0.2964018709176115
30
0
10
-0.096326719512661349
20
-0.29941519694326785
30
0
10
-0.082961701092566245
20
-0.30069800863711887
30
0
10
-0.069163047844968045
20
-0.30030273097978732
30
0
10
-0.055762816005965027
20
-0.29834374124714624
30
0
10
-0.043526749593279859
20
-0.29496363389640617
30
0
10
-0.033066948418383639
20
-0.29029753060778624
30
0
10
-0.024766187467880747
20
-0.28444193083461122
30
0
10
-0.018837273342430263
20
-0.27746215152935444
30
0
10
-0.016063759725665046
20
-0.27101016557692043
30
0
10
-0.015099188701082537
20
-0.26569123948336154
30
0
10
-0.014950645028696681
20
-0.26193253637977149
30
0
10
-0.014999999818722094
20
-0.25999999685784964
30
0
0
LINE
5
103
100
AcDbEntity
8
0
100
AcDbLine
10
-0.014999999818722094
20
-0.25999999685784964
30
0
11
-0.014999999818722094
21
-0.19999999758296125
31
0
0
ARC
5
104
100
AcDbEntity
8
0
100
AcDbCircle
10
-1.0927391974657052e-17
20
-0.16400004639907828
30
0
40
0.038999954869251056
210
0
220
0
230
1
100
AcDbArc
50
247.38010771435424
51
292.61989228564579
0
LINE
5
105
100
AcDbEntity
8
0
100
AcDbLine
10
0.014999999818722094
20
-0.25999999685784964
30
0
11
0.014999999818722094
21
-0.19999999758296125
31
0
0
SPLINE
5
106
100
AcDbEntity
8
0
100
AcDbSpline
70
4
71
5
72
36
73
30
74
0
42
0.000000001
43
0.0000000001
44
0.0000000001
40
0
40
0
40
0
40
0
40
0
40
0
40
0.040000000000000001
40
0.080000000000000002
40
0.12
40
0.16
40
0.20000000000000001
40
0.24000000000000002
40
0.28000000000000003
40
0.32000000000000001
40
0.35999999999999999
40
0.39999999999999997
40
0.43999999999999995
40
0.47999999999999993
40
0.51999999999999991
40
0.55999999999999994
40
0.59999999999999998
40
0.64000000000000001
40
0.68000000000000005
40
0.72000000000000008
40
0.76000000000000012
40
0.80000000000000016
40
0.84000000000000019
40
0.88000000000000023
40
0.92000000000000026
40
0.9600000000000003
40
1
40
1
40
1
40
1
40
1
40
1
41
1
41
1
41
1
41
1
41
1
41
1
41
1
41
1
41
1
41
1
41
1
41
1
41
1
41
1
41
1
41
1
41
1
41
1
41
1
41
1
41
1
41
1
41
1
41
1
41
1
41
1
41
1
41
1
41
1
41
1
10
0.093661150260613835
20
-0.19999999758296125
30
0
10
0.093663183971868486
20
-0.20126381358514367
30
0
10
0.093794474071794837
20
-0.20376703546488786
30
0
10
0.094373091074841903
20
-0.20744862539235312
30
0
10
0.095909816588205007
20
-0.21221065214341667
30
0
10
0.099081385161385399
20
-0.21793463560782347
30
0
10
0.10340656330511018
20
-0.22348428802187859
30
0
10
0.10867875546469656
20
-0.22896787909306102
30
0
10
0.11452738887269454
20
-0.23457831912660257
30
0
10
0.12044778973201847
20
-0.24054832727331571
30
0
10
0.12586115570014755
20
-0.24707879425131915
30
0
10
0.13016386337753461
20
-0.25427430939341944
30
0
10
0.13278053093993775
20
-0.2620776305434741
30
0
10
0.13321709151854791
20
-0.27019460281961083
30
0
10
0.13110118513367178
20
-0.27817531285928898
30
0
10
0.12622504114182798
20
-0.28550850643776982
30
0
10
0.11858578805425597
20
-0.29170611030079691
30
0
10
0.1084404186859671
20
-0.2964018709176115
30
0
10
0.096326719512661349
20
-0.29941519694326785
30
0
10
0.082961701092566245
20
-0.30069800863711887
30
0
10
0.069163047844968045
20
-0.30030273097978732
30
0
10
0.055762816005965027
20
-0.29834374124714624
30
0
10
0.043526749593279859
20
-0.29496363389640617
30
0
10
0.033066948418383639
20
-0.29029753060778624
30
0
10
0.024766187467880747
20
-0.28444193083461122
30
0
10
0.018837273342430263
20
-0.27746215152935444
30
0
10
0.016063759725665046
20
-0.27101016557692043
30
0
10
0.015099188701082537
20
-0.26569123948336154
30
0
10
0.014950645028696681
20
-0.26193253637977149
30
0
10
0.014999999818722094
20
-0.25999999685784964
30
0
0
LINE
5
107
100
AcDbEntity
8
0
100
AcDbLine
10
0.093661150260613835
20
-0.17438000279594479
30
0
11
0.093661150260613835
21
-0.19999999758296125
31
0
0
SPLINE
5
108
100
AcDbEntity
8
0
100
AcDbSpline
70
4
71
5
72
26
73
20
74
0
42
0.000000001
43
0.0000000001
44
0.0000000001
40
0
40
0
40
0
40
0
40
0
40
0
40
0.066666666666666666
40
0.13333333333333333
40
0.20000000000000001
40
0.26666666666666666
40
0.33333333333333331
40
0.39999999999999997
40
0.46666666666666662
40
0.53333333333333333
40
0.59999999999999998
40
0.66666666666666663
40
0.73333333333333328
40
0.79999999999999993
40
0.86666666666666659
40
0.93333333333333324
40
1
40
1
40
1
40
1
40
1
40
1
41
1
41
1
41
1
41
1
41
1
41
1
41
1
41
1
41
1
41
1
41
1
41
1
41
1
41
1
41
1
41
1
41
1
41
1
41
1
41
1
10
0.093661150260613835
20
-0.17438000279594479
30
0
10
0.10110059370559905
20
-0.16901375908565303
30
0
10
0.1153456279058054
20
-0.15800418288680132
30
0
10
0.13481164345214763
20
-0.14065856528985102
30
0
10
0.15694610123891375
20
-0.11588617515724993
30
0
10
0.17814996066066446
20
-0.082317314196369978
30
0
10
0.19278157495333681
20
-0.046390766057230824
30
0
10
0.20078586159356707
20
-0.0084843515716263949
30
0
10
0.20223177581085203
20
0.030863908728869238
30
0
10
0.19742797415197336
20
0.070906414933535292
30
0
10
0.18688798926735051
20
0.11071559200155362
30
0
10
0.17127010667022985
20
0.14923020405720763
30
0
10
0.15135378188073856
20
0.1852908909257342
30
0
10
0.12801436234429128
20
0.21768245781915799
30
0
10
0.10223934391956586
20
0.24517349327368768
30
0
10
0.075054203187850041
20
0.26658904988051774
30
0
10
0.052904389299240781
20
0.2780518091385803
30
0
10
0.036363486041943685
20
0.2831316667404517
30
0
10
0.025403897411557953
20
0.28491497849106545
30
0
10
0.019941028934248699
20
0.28540581335171988
30
0
0
ARC
5
109
100
AcDbEntity
8
0
100
AcDbCircle
10
1.912293595564984e-16
20
0.21414323295328438
30
0
40
0.074000000000000121
210
0
220
-0
230
1
100
AcDbArc
50
74.367068648414048
51
105.63293135158527
0
ARC
5
110
100
AcDbEntity
8
0
100
AcDbCircle
10
-0.031000000193685772
20
0.099000000618544845
30
0
40
0.046010868568781949
210
0
220
0
230
1
100
AcDbArc
50
227.64254529406472
51
312.35745470593531
0
LWPOLYLINE
5
111
100
AcDbEntity
8
0
100
AcDbPolyline
90
7
70
1
43
0.0
10
0
20
0.065000000406115296
10
1.7074049960401643e-18
20
0.082000000512330071
42
-0.33378433222174186
10
-0.022000000137454411
20
0.10600000066228034
42
-0.28203646264827625
10
-0.0074794312759261933
20
0.11837762480994873
42
-0.080708896053490201
10
0.0075901789669006597
20
0.11835984593795829
42
-0.2803791815294468
10
0.022000000137454415
20
0.10600000066228034
42
-0.33378433222174186
10
0
20
0.082000000512330071
0
LWPOLYLINE
5
112
100
AcDbEntity
8
0
100
AcDbPolyline
90
2
70
1
43
0.0
10
-0.092000000574809351
20
0.12400000077474303
42
-0.60373213439915208
10
-0.042000000262412955
20
0.13600000084971817
42
-0.89771859815829136
0
LWPOLYLINE
5
113
100
AcDbEntity
8
0
100
AcDbPolyline
90
2
70
1
43
0.0
10
0.042000000262412962
20
0.13600000084971817
42
-0.60373213439915208
10
0.092000000574809324
20
0.12400000077474302
42
-0.89771859815829103
0
ARC
5
114
100
AcDbEntity
8
0
100
AcDbCircle
10
0.031000000193685772
20
0.099000000618544845
30
0
40
0.046010868568781949
210
0
220
0
230
1
100
AcDbArc
50
227.64254529406472
51
312.35745470593531
0
ENDSEC
0
SECTION
2
OBJECTS
0
DICTIONARY
5
C
100
AcDbDictionary
3
ACAD_GROUP
350
D
3
ACAD_MLINESTYLE
350
17
0
DICTIONARY
5
D
100
AcDbDictionary
0
DICTIONARY
5
1A
330
C
100
AcDbDictionary
0
DICTIONARY
5
17
100
AcDbDictionary
0
ENDSEC
0
EOF
