G04 #@! TF.GenerationSoftware,KiCad,Pcbnew,(5.1.10)-1*
G04 #@! TF.CreationDate,2022-04-17T04:02:28-07:00*
G04 #@! TF.ProjectId,GPS_Board,4750535f-426f-4617-9264-2e6b69636164,rev?*
G04 #@! TF.SameCoordinates,Original*
G04 #@! TF.FileFunction,Soldermask,Top*
G04 #@! TF.FilePolarity,Negative*
%FSLAX46Y46*%
G04 Gerber Fmt 4.6, Leading zero omitted, Abs format (unit mm)*
G04 Created by KiCad (PCBNEW (5.1.10)-1) date 2022-04-17 04:02:28*
%MOMM*%
%LPD*%
G01*
G04 APERTURE LIST*
%ADD10C,1.600000*%
%ADD11R,1.600000X1.600000*%
%ADD12R,0.900000X0.600000*%
%ADD13C,1.300000*%
%ADD14O,3.500000X3.500000*%
%ADD15R,2.000000X1.905000*%
%ADD16O,2.000000X1.905000*%
%ADD17R,8.000000X8.000000*%
%ADD18C,2.000000*%
%ADD19C,3.000000*%
%ADD20C,1.524000*%
%ADD21C,3.048000*%
%ADD22R,3.800000X3.800000*%
%ADD23C,3.800000*%
%ADD24R,0.600000X0.900000*%
%ADD25O,1.700000X1.700000*%
%ADD26R,1.700000X1.700000*%
G04 APERTURE END LIST*
D10*
X172593000Y-77914500D03*
X175133000Y-77914500D03*
X177673000Y-77914500D03*
X180213000Y-77914500D03*
X170053000Y-77914500D03*
X167513000Y-77914500D03*
X164973000Y-77914500D03*
X182753000Y-77914500D03*
X185293000Y-77914500D03*
X187833000Y-77914500D03*
X190373000Y-77914500D03*
X190373000Y-62674500D03*
X187833000Y-62674500D03*
X185293000Y-62674500D03*
X182753000Y-62674500D03*
X180213000Y-62674500D03*
X177673000Y-62674500D03*
X175133000Y-62674500D03*
X172593000Y-62674500D03*
X170053000Y-62674500D03*
X167513000Y-62674500D03*
X162433000Y-77914500D03*
X159893000Y-77914500D03*
X157353000Y-77914500D03*
X154813000Y-77914500D03*
X152273000Y-77914500D03*
X149733000Y-77914500D03*
X147193000Y-77914500D03*
X144653000Y-77914500D03*
X142113000Y-77914500D03*
X139573000Y-77914500D03*
X137033000Y-77914500D03*
X134493000Y-77914500D03*
D11*
X131953000Y-77914500D03*
D10*
X164973000Y-62674500D03*
X162433000Y-62674500D03*
X159893000Y-62674500D03*
X157353000Y-62674500D03*
X154813000Y-62674500D03*
X152273000Y-62674500D03*
X149733000Y-62674500D03*
X147193000Y-62674500D03*
X144653000Y-62674500D03*
X142113000Y-62674500D03*
X139573000Y-62674500D03*
X137033000Y-62674500D03*
X134493000Y-62674500D03*
X131953000Y-62674500D03*
D12*
X172641500Y-82103500D03*
X172641500Y-80603500D03*
D13*
X168387500Y-101203000D03*
X168387500Y-95203000D03*
X168387500Y-99203000D03*
X168387500Y-93203000D03*
X168387500Y-107203000D03*
X168387500Y-105203000D03*
X168387500Y-109203000D03*
X168387500Y-103203000D03*
X168387500Y-91203000D03*
X168387500Y-97203000D03*
X190387500Y-93203000D03*
X190387500Y-91203000D03*
X190387500Y-95203000D03*
X190387500Y-101203000D03*
X190387500Y-99203000D03*
X190387500Y-105203000D03*
X190387500Y-103203000D03*
X190387500Y-107203000D03*
X190387500Y-109203000D03*
D14*
X134326800Y-104740400D03*
D15*
X117666800Y-102200400D03*
D16*
X117666800Y-104740400D03*
X117666800Y-107280400D03*
D17*
X128066800Y-104800400D03*
D18*
X188991500Y-86703500D03*
X113157000Y-89535000D03*
D19*
X117606000Y-95627000D03*
D20*
X121666000Y-96647000D03*
X124206000Y-96647000D03*
X131836000Y-96657000D03*
X129286000Y-96647000D03*
X126746000Y-96647000D03*
D19*
X130806000Y-82427000D03*
D18*
X113474500Y-103378000D03*
X135616500Y-97628500D03*
X113066500Y-74328500D03*
D21*
X160337500Y-82359500D03*
X140017500Y-82359500D03*
D20*
X145097500Y-81089500D03*
X147637500Y-81089500D03*
X150177500Y-81089500D03*
X152717500Y-81089500D03*
X147637500Y-103949500D03*
X145097500Y-103949500D03*
X140017500Y-103949500D03*
X142557500Y-103949500D03*
X157797500Y-103949500D03*
X150177500Y-103949500D03*
X152717500Y-103949500D03*
X155257500Y-103949500D03*
D22*
X124587000Y-65976500D03*
D23*
X119587000Y-65976500D03*
X124396500Y-74358500D03*
D22*
X119396500Y-74358500D03*
D24*
X136291500Y-88678500D03*
X134791500Y-88678500D03*
X134791500Y-86128500D03*
X136291500Y-86128500D03*
D12*
X170041500Y-80603500D03*
X170041500Y-82103500D03*
D25*
X194564000Y-103886000D03*
X194564000Y-101346000D03*
X194564000Y-98806000D03*
X194564000Y-96266000D03*
X194564000Y-93726000D03*
X194564000Y-91186000D03*
X194564000Y-88646000D03*
X194564000Y-86106000D03*
X194564000Y-83566000D03*
D26*
X194564000Y-81026000D03*
X164973000Y-86042500D03*
D25*
X164973000Y-88582500D03*
X164973000Y-91122500D03*
X164973000Y-93662500D03*
X164973000Y-96202500D03*
X164973000Y-98742500D03*
X164973000Y-101282500D03*
X164973000Y-103822500D03*
X164973000Y-106362500D03*
X164973000Y-108902500D03*
D26*
X157831500Y-107378500D03*
D25*
X155291500Y-107378500D03*
X152751500Y-107378500D03*
X150211500Y-107378500D03*
X147671500Y-107378500D03*
X145131500Y-107378500D03*
X142591500Y-107378500D03*
X140051500Y-107378500D03*
D18*
X135141500Y-82353500D03*
X172641500Y-86678500D03*
D24*
X134716500Y-94728500D03*
X136216500Y-94728500D03*
X136266500Y-92178500D03*
X134766500Y-92178500D03*
M02*
