G04 #@! TF.GenerationSoftware,KiCad,Pcbnew,(5.1.10)-1*
G04 #@! TF.CreationDate,2022-04-17T04:02:28-07:00*
G04 #@! TF.ProjectId,GPS_Board,4750535f-426f-4617-9264-2e6b69636164,rev?*
G04 #@! TF.SameCoordinates,Original*
G04 #@! TF.FileFunction,Legend,Top*
G04 #@! TF.FilePolarity,Positive*
%FSLAX46Y46*%
G04 Gerber Fmt 4.6, Leading zero omitted, Abs format (unit mm)*
G04 Created by KiCad (PCBNEW (5.1.10)-1) date 2022-04-17 04:02:28*
%MOMM*%
%LPD*%
G01*
G04 APERTURE LIST*
%ADD10C,0.304800*%
%ADD11C,0.300000*%
%ADD12C,0.187500*%
%ADD13C,0.120000*%
%ADD14C,0.100000*%
%ADD15C,0.150000*%
%ADD16C,0.250000*%
%ADD17C,0.125000*%
%ADD18C,1.600000*%
%ADD19R,1.600000X1.600000*%
%ADD20R,0.900000X0.600000*%
%ADD21C,1.300000*%
%ADD22O,3.500000X3.500000*%
%ADD23R,2.000000X1.905000*%
%ADD24O,2.000000X1.905000*%
%ADD25R,8.000000X8.000000*%
%ADD26C,2.000000*%
%ADD27C,3.000000*%
%ADD28C,1.524000*%
%ADD29C,3.048000*%
%ADD30R,3.800000X3.800000*%
%ADD31C,3.800000*%
%ADD32R,0.600000X0.900000*%
%ADD33O,1.700000X1.700000*%
%ADD34R,1.700000X1.700000*%
G04 APERTURE END LIST*
D10*
X163875071Y-67233928D02*
X164745928Y-67233928D01*
X164310500Y-68757928D02*
X164310500Y-67233928D01*
X165253928Y-67959642D02*
X165761928Y-67959642D01*
X165979642Y-68757928D02*
X165253928Y-68757928D01*
X165253928Y-67233928D01*
X165979642Y-67233928D01*
X166632785Y-67959642D02*
X167140785Y-67959642D01*
X167358500Y-68757928D02*
X166632785Y-68757928D01*
X166632785Y-67233928D01*
X167358500Y-67233928D01*
X168011642Y-68757928D02*
X168011642Y-67233928D01*
X168882500Y-68757928D01*
X168882500Y-67233928D01*
X169535642Y-68685357D02*
X169753357Y-68757928D01*
X170116214Y-68757928D01*
X170261357Y-68685357D01*
X170333928Y-68612785D01*
X170406500Y-68467642D01*
X170406500Y-68322500D01*
X170333928Y-68177357D01*
X170261357Y-68104785D01*
X170116214Y-68032214D01*
X169825928Y-67959642D01*
X169680785Y-67887071D01*
X169608214Y-67814500D01*
X169535642Y-67669357D01*
X169535642Y-67524214D01*
X169608214Y-67379071D01*
X169680785Y-67306500D01*
X169825928Y-67233928D01*
X170188785Y-67233928D01*
X170406500Y-67306500D01*
X171349928Y-68032214D02*
X171349928Y-68757928D01*
X170841928Y-67233928D02*
X171349928Y-68032214D01*
X171857928Y-67233928D01*
X149797928Y-86236500D02*
X149652785Y-86163928D01*
X149435071Y-86163928D01*
X149217357Y-86236500D01*
X149072214Y-86381642D01*
X148999642Y-86526785D01*
X148927071Y-86817071D01*
X148927071Y-87034785D01*
X148999642Y-87325071D01*
X149072214Y-87470214D01*
X149217357Y-87615357D01*
X149435071Y-87687928D01*
X149580214Y-87687928D01*
X149797928Y-87615357D01*
X149870500Y-87542785D01*
X149870500Y-87034785D01*
X149580214Y-87034785D01*
X150523642Y-87687928D02*
X150523642Y-86163928D01*
X151104214Y-86163928D01*
X151249357Y-86236500D01*
X151321928Y-86309071D01*
X151394500Y-86454214D01*
X151394500Y-86671928D01*
X151321928Y-86817071D01*
X151249357Y-86889642D01*
X151104214Y-86962214D01*
X150523642Y-86962214D01*
X151975071Y-87615357D02*
X152192785Y-87687928D01*
X152555642Y-87687928D01*
X152700785Y-87615357D01*
X152773357Y-87542785D01*
X152845928Y-87397642D01*
X152845928Y-87252500D01*
X152773357Y-87107357D01*
X152700785Y-87034785D01*
X152555642Y-86962214D01*
X152265357Y-86889642D01*
X152120214Y-86817071D01*
X152047642Y-86744500D01*
X151975071Y-86599357D01*
X151975071Y-86454214D01*
X152047642Y-86309071D01*
X152120214Y-86236500D01*
X152265357Y-86163928D01*
X152628214Y-86163928D01*
X152845928Y-86236500D01*
X177107642Y-98203928D02*
X178123642Y-99727928D01*
X178123642Y-98203928D02*
X177107642Y-99727928D01*
X179212214Y-98929642D02*
X179429928Y-99002214D01*
X179502500Y-99074785D01*
X179575071Y-99219928D01*
X179575071Y-99437642D01*
X179502500Y-99582785D01*
X179429928Y-99655357D01*
X179284785Y-99727928D01*
X178704214Y-99727928D01*
X178704214Y-98203928D01*
X179212214Y-98203928D01*
X179357357Y-98276500D01*
X179429928Y-98349071D01*
X179502500Y-98494214D01*
X179502500Y-98639357D01*
X179429928Y-98784500D01*
X179357357Y-98857071D01*
X179212214Y-98929642D01*
X178704214Y-98929642D01*
X180228214Y-98929642D02*
X180736214Y-98929642D01*
X180953928Y-99727928D02*
X180228214Y-99727928D01*
X180228214Y-98203928D01*
X180953928Y-98203928D01*
X181607071Y-98929642D02*
X182115071Y-98929642D01*
X182332785Y-99727928D02*
X181607071Y-99727928D01*
X181607071Y-98203928D01*
X182332785Y-98203928D01*
X123057642Y-102357928D02*
X122549642Y-101632214D01*
X122186785Y-102357928D02*
X122186785Y-100833928D01*
X122767357Y-100833928D01*
X122912500Y-100906500D01*
X122985071Y-100979071D01*
X123057642Y-101124214D01*
X123057642Y-101341928D01*
X122985071Y-101487071D01*
X122912500Y-101559642D01*
X122767357Y-101632214D01*
X122186785Y-101632214D01*
X123710785Y-101559642D02*
X124218785Y-101559642D01*
X124436500Y-102357928D02*
X123710785Y-102357928D01*
X123710785Y-100833928D01*
X124436500Y-100833928D01*
X125887928Y-100906500D02*
X125742785Y-100833928D01*
X125525071Y-100833928D01*
X125307357Y-100906500D01*
X125162214Y-101051642D01*
X125089642Y-101196785D01*
X125017071Y-101487071D01*
X125017071Y-101704785D01*
X125089642Y-101995071D01*
X125162214Y-102140214D01*
X125307357Y-102285357D01*
X125525071Y-102357928D01*
X125670214Y-102357928D01*
X125887928Y-102285357D01*
X125960500Y-102212785D01*
X125960500Y-101704785D01*
X125670214Y-101704785D01*
X126613642Y-100833928D02*
X126613642Y-102067642D01*
X126686214Y-102212785D01*
X126758785Y-102285357D01*
X126903928Y-102357928D01*
X127194214Y-102357928D01*
X127339357Y-102285357D01*
X127411928Y-102212785D01*
X127484500Y-102067642D01*
X127484500Y-100833928D01*
X128935928Y-102357928D02*
X128210214Y-102357928D01*
X128210214Y-100833928D01*
X129371357Y-101922500D02*
X130097071Y-101922500D01*
X129226214Y-102357928D02*
X129734214Y-100833928D01*
X130242214Y-102357928D01*
X130532500Y-100833928D02*
X131403357Y-100833928D01*
X130967928Y-102357928D02*
X130967928Y-100833928D01*
X132201642Y-100833928D02*
X132491928Y-100833928D01*
X132637071Y-100906500D01*
X132782214Y-101051642D01*
X132854785Y-101341928D01*
X132854785Y-101849928D01*
X132782214Y-102140214D01*
X132637071Y-102285357D01*
X132491928Y-102357928D01*
X132201642Y-102357928D01*
X132056500Y-102285357D01*
X131911357Y-102140214D01*
X131838785Y-101849928D01*
X131838785Y-101341928D01*
X131911357Y-101051642D01*
X132056500Y-100906500D01*
X132201642Y-100833928D01*
X134378785Y-102357928D02*
X133870785Y-101632214D01*
X133507928Y-102357928D02*
X133507928Y-100833928D01*
X134088500Y-100833928D01*
X134233642Y-100906500D01*
X134306214Y-100979071D01*
X134378785Y-101124214D01*
X134378785Y-101341928D01*
X134306214Y-101487071D01*
X134233642Y-101559642D01*
X134088500Y-101632214D01*
X133507928Y-101632214D01*
D11*
X120170785Y-79413261D02*
X120170785Y-77413261D01*
X121313642Y-79413261D02*
X120456500Y-78270404D01*
X121313642Y-77413261D02*
X120170785Y-78556119D01*
X122170785Y-78365642D02*
X122837452Y-78365642D01*
X123123166Y-79413261D02*
X122170785Y-79413261D01*
X122170785Y-77413261D01*
X123123166Y-77413261D01*
X124361261Y-78460880D02*
X124361261Y-79413261D01*
X123694595Y-77413261D02*
X124361261Y-78460880D01*
X125027928Y-77413261D01*
D10*
X118797642Y-89147928D02*
X118289642Y-88422214D01*
X117926785Y-89147928D02*
X117926785Y-87623928D01*
X118507357Y-87623928D01*
X118652500Y-87696500D01*
X118725071Y-87769071D01*
X118797642Y-87914214D01*
X118797642Y-88131928D01*
X118725071Y-88277071D01*
X118652500Y-88349642D01*
X118507357Y-88422214D01*
X117926785Y-88422214D01*
X119450785Y-88349642D02*
X119958785Y-88349642D01*
X120176500Y-89147928D02*
X119450785Y-89147928D01*
X119450785Y-87623928D01*
X120176500Y-87623928D01*
X121627928Y-87696500D02*
X121482785Y-87623928D01*
X121265071Y-87623928D01*
X121047357Y-87696500D01*
X120902214Y-87841642D01*
X120829642Y-87986785D01*
X120757071Y-88277071D01*
X120757071Y-88494785D01*
X120829642Y-88785071D01*
X120902214Y-88930214D01*
X121047357Y-89075357D01*
X121265071Y-89147928D01*
X121410214Y-89147928D01*
X121627928Y-89075357D01*
X121700500Y-89002785D01*
X121700500Y-88494785D01*
X121410214Y-88494785D01*
X122353642Y-87623928D02*
X122353642Y-88857642D01*
X122426214Y-89002785D01*
X122498785Y-89075357D01*
X122643928Y-89147928D01*
X122934214Y-89147928D01*
X123079357Y-89075357D01*
X123151928Y-89002785D01*
X123224500Y-88857642D01*
X123224500Y-87623928D01*
X124675928Y-89147928D02*
X123950214Y-89147928D01*
X123950214Y-87623928D01*
X125111357Y-88712500D02*
X125837071Y-88712500D01*
X124966214Y-89147928D02*
X125474214Y-87623928D01*
X125982214Y-89147928D01*
X126272500Y-87623928D02*
X127143357Y-87623928D01*
X126707928Y-89147928D02*
X126707928Y-87623928D01*
X127941642Y-87623928D02*
X128231928Y-87623928D01*
X128377071Y-87696500D01*
X128522214Y-87841642D01*
X128594785Y-88131928D01*
X128594785Y-88639928D01*
X128522214Y-88930214D01*
X128377071Y-89075357D01*
X128231928Y-89147928D01*
X127941642Y-89147928D01*
X127796500Y-89075357D01*
X127651357Y-88930214D01*
X127578785Y-88639928D01*
X127578785Y-88131928D01*
X127651357Y-87841642D01*
X127796500Y-87696500D01*
X127941642Y-87623928D01*
X130118785Y-89147928D02*
X129610785Y-88422214D01*
X129247928Y-89147928D02*
X129247928Y-87623928D01*
X129828500Y-87623928D01*
X129973642Y-87696500D01*
X130046214Y-87769071D01*
X130118785Y-87914214D01*
X130118785Y-88131928D01*
X130046214Y-88277071D01*
X129973642Y-88349642D01*
X129828500Y-88422214D01*
X129247928Y-88422214D01*
D12*
X175076470Y-80475821D02*
X175035994Y-80516297D01*
X174914565Y-80556773D01*
X174833613Y-80556773D01*
X174712184Y-80516297D01*
X174631232Y-80435345D01*
X174590755Y-80354392D01*
X174550279Y-80192488D01*
X174550279Y-80071059D01*
X174590755Y-79909154D01*
X174631232Y-79828202D01*
X174712184Y-79747250D01*
X174833613Y-79706773D01*
X174914565Y-79706773D01*
X175035994Y-79747250D01*
X175076470Y-79787726D01*
X175440755Y-80556773D02*
X175440755Y-79990107D01*
X175440755Y-80152011D02*
X175481232Y-80071059D01*
X175521708Y-80030583D01*
X175602660Y-79990107D01*
X175683613Y-79990107D01*
X176290755Y-80516297D02*
X176209803Y-80556773D01*
X176047898Y-80556773D01*
X175966946Y-80516297D01*
X175926470Y-80435345D01*
X175926470Y-80111535D01*
X175966946Y-80030583D01*
X176047898Y-79990107D01*
X176209803Y-79990107D01*
X176290755Y-80030583D01*
X176331232Y-80111535D01*
X176331232Y-80192488D01*
X175926470Y-80273440D01*
X177059803Y-80556773D02*
X177059803Y-80111535D01*
X177019327Y-80030583D01*
X176938375Y-79990107D01*
X176776470Y-79990107D01*
X176695517Y-80030583D01*
X177059803Y-80516297D02*
X176978851Y-80556773D01*
X176776470Y-80556773D01*
X176695517Y-80516297D01*
X176655041Y-80435345D01*
X176655041Y-80354392D01*
X176695517Y-80273440D01*
X176776470Y-80232964D01*
X176978851Y-80232964D01*
X177059803Y-80192488D01*
X177343136Y-79990107D02*
X177666946Y-79990107D01*
X177464565Y-79706773D02*
X177464565Y-80435345D01*
X177505041Y-80516297D01*
X177585994Y-80556773D01*
X177666946Y-80556773D01*
X178274089Y-80516297D02*
X178193136Y-80556773D01*
X178031232Y-80556773D01*
X177950279Y-80516297D01*
X177909803Y-80435345D01*
X177909803Y-80111535D01*
X177950279Y-80030583D01*
X178031232Y-79990107D01*
X178193136Y-79990107D01*
X178274089Y-80030583D01*
X178314565Y-80111535D01*
X178314565Y-80192488D01*
X177909803Y-80273440D01*
X179043136Y-80556773D02*
X179043136Y-79706773D01*
X179043136Y-80516297D02*
X178962184Y-80556773D01*
X178800279Y-80556773D01*
X178719327Y-80516297D01*
X178678851Y-80475821D01*
X178638375Y-80394869D01*
X178638375Y-80152011D01*
X178678851Y-80071059D01*
X178719327Y-80030583D01*
X178800279Y-79990107D01*
X178962184Y-79990107D01*
X179043136Y-80030583D01*
X180378851Y-80111535D02*
X180500279Y-80152011D01*
X180540755Y-80192488D01*
X180581232Y-80273440D01*
X180581232Y-80394869D01*
X180540755Y-80475821D01*
X180500279Y-80516297D01*
X180419327Y-80556773D01*
X180095517Y-80556773D01*
X180095517Y-79706773D01*
X180378851Y-79706773D01*
X180459803Y-79747250D01*
X180500279Y-79787726D01*
X180540755Y-79868678D01*
X180540755Y-79949630D01*
X180500279Y-80030583D01*
X180459803Y-80071059D01*
X180378851Y-80111535D01*
X180095517Y-80111535D01*
X180864565Y-79990107D02*
X181066946Y-80556773D01*
X181269327Y-79990107D02*
X181066946Y-80556773D01*
X180985994Y-80759154D01*
X180945517Y-80799630D01*
X180864565Y-80840107D01*
X181593136Y-80475821D02*
X181633613Y-80516297D01*
X181593136Y-80556773D01*
X181552660Y-80516297D01*
X181593136Y-80475821D01*
X181593136Y-80556773D01*
X181593136Y-80030583D02*
X181633613Y-80071059D01*
X181593136Y-80111535D01*
X181552660Y-80071059D01*
X181593136Y-80030583D01*
X181593136Y-80111535D01*
X174590755Y-81695464D02*
X175238375Y-81695464D01*
X176250279Y-81776416D02*
X176655041Y-81776416D01*
X176169327Y-82019273D02*
X176452660Y-81169273D01*
X176735994Y-82019273D01*
X177140755Y-82019273D02*
X177059803Y-81978797D01*
X177019327Y-81897845D01*
X177019327Y-81169273D01*
X177788375Y-81978797D02*
X177707422Y-82019273D01*
X177545517Y-82019273D01*
X177464565Y-81978797D01*
X177424089Y-81897845D01*
X177424089Y-81574035D01*
X177464565Y-81493083D01*
X177545517Y-81452607D01*
X177707422Y-81452607D01*
X177788375Y-81493083D01*
X177828851Y-81574035D01*
X177828851Y-81654988D01*
X177424089Y-81735940D01*
X178193136Y-81452607D02*
X178193136Y-82181178D01*
X178152660Y-82262130D01*
X178071708Y-82302607D01*
X178031232Y-82302607D01*
X178193136Y-81169273D02*
X178152660Y-81209750D01*
X178193136Y-81250226D01*
X178233613Y-81209750D01*
X178193136Y-81169273D01*
X178193136Y-81250226D01*
X178962184Y-82019273D02*
X178962184Y-81574035D01*
X178921708Y-81493083D01*
X178840755Y-81452607D01*
X178678851Y-81452607D01*
X178597898Y-81493083D01*
X178962184Y-81978797D02*
X178881232Y-82019273D01*
X178678851Y-82019273D01*
X178597898Y-81978797D01*
X178557422Y-81897845D01*
X178557422Y-81816892D01*
X178597898Y-81735940D01*
X178678851Y-81695464D01*
X178881232Y-81695464D01*
X178962184Y-81654988D01*
X179366946Y-81452607D02*
X179366946Y-82019273D01*
X179366946Y-81533559D02*
X179407422Y-81493083D01*
X179488375Y-81452607D01*
X179609803Y-81452607D01*
X179690755Y-81493083D01*
X179731232Y-81574035D01*
X179731232Y-82019273D01*
X180500279Y-82019273D02*
X180500279Y-81169273D01*
X180500279Y-81978797D02*
X180419327Y-82019273D01*
X180257422Y-82019273D01*
X180176470Y-81978797D01*
X180135994Y-81938321D01*
X180095517Y-81857369D01*
X180095517Y-81614511D01*
X180135994Y-81533559D01*
X180176470Y-81493083D01*
X180257422Y-81452607D01*
X180419327Y-81452607D01*
X180500279Y-81493083D01*
X180905041Y-82019273D02*
X180905041Y-81452607D01*
X180905041Y-81614511D02*
X180945517Y-81533559D01*
X180985994Y-81493083D01*
X181066946Y-81452607D01*
X181147898Y-81452607D01*
X181552660Y-82019273D02*
X181471708Y-81978797D01*
X181431232Y-81938321D01*
X181390755Y-81857369D01*
X181390755Y-81614511D01*
X181431232Y-81533559D01*
X181471708Y-81493083D01*
X181552660Y-81452607D01*
X181674089Y-81452607D01*
X181755041Y-81493083D01*
X181795517Y-81533559D01*
X181835994Y-81614511D01*
X181835994Y-81857369D01*
X181795517Y-81938321D01*
X181755041Y-81978797D01*
X181674089Y-82019273D01*
X181552660Y-82019273D01*
X182847898Y-82019273D02*
X182847898Y-81169273D01*
X183131232Y-81776416D01*
X183414565Y-81169273D01*
X183414565Y-82019273D01*
X184183613Y-82019273D02*
X184183613Y-81574035D01*
X184143136Y-81493083D01*
X184062184Y-81452607D01*
X183900279Y-81452607D01*
X183819327Y-81493083D01*
X184183613Y-81978797D02*
X184102660Y-82019273D01*
X183900279Y-82019273D01*
X183819327Y-81978797D01*
X183778851Y-81897845D01*
X183778851Y-81816892D01*
X183819327Y-81735940D01*
X183900279Y-81695464D01*
X184102660Y-81695464D01*
X184183613Y-81654988D01*
X184588375Y-82019273D02*
X184588375Y-81452607D01*
X184588375Y-81614511D02*
X184628851Y-81533559D01*
X184669327Y-81493083D01*
X184750279Y-81452607D01*
X184831232Y-81452607D01*
X184993136Y-81452607D02*
X185316946Y-81452607D01*
X185114565Y-81169273D02*
X185114565Y-81897845D01*
X185155041Y-81978797D01*
X185235994Y-82019273D01*
X185316946Y-82019273D01*
X185600279Y-82019273D02*
X185600279Y-81452607D01*
X185600279Y-81169273D02*
X185559803Y-81209750D01*
X185600279Y-81250226D01*
X185640755Y-81209750D01*
X185600279Y-81169273D01*
X185600279Y-81250226D01*
X186005041Y-81452607D02*
X186005041Y-82019273D01*
X186005041Y-81533559D02*
X186045517Y-81493083D01*
X186126470Y-81452607D01*
X186247898Y-81452607D01*
X186328851Y-81493083D01*
X186369327Y-81574035D01*
X186369327Y-82019273D01*
X187097898Y-81978797D02*
X187016946Y-82019273D01*
X186855041Y-82019273D01*
X186774089Y-81978797D01*
X186733613Y-81897845D01*
X186733613Y-81574035D01*
X186774089Y-81493083D01*
X186855041Y-81452607D01*
X187016946Y-81452607D01*
X187097898Y-81493083D01*
X187138375Y-81574035D01*
X187138375Y-81654988D01*
X186733613Y-81735940D01*
X187421708Y-81452607D02*
X187866946Y-81452607D01*
X187421708Y-82019273D01*
X187866946Y-82019273D01*
X174590755Y-83157964D02*
X175238375Y-83157964D01*
X176250279Y-83238916D02*
X176655041Y-83238916D01*
X176169327Y-83481773D02*
X176452660Y-82631773D01*
X176735994Y-83481773D01*
X177140755Y-83481773D02*
X177059803Y-83441297D01*
X177019327Y-83360345D01*
X177019327Y-82631773D01*
X177585994Y-83481773D02*
X177505041Y-83441297D01*
X177464565Y-83360345D01*
X177464565Y-82631773D01*
X178274089Y-83481773D02*
X178274089Y-83036535D01*
X178233613Y-82955583D01*
X178152660Y-82915107D01*
X177990755Y-82915107D01*
X177909803Y-82955583D01*
X178274089Y-83441297D02*
X178193136Y-83481773D01*
X177990755Y-83481773D01*
X177909803Y-83441297D01*
X177869327Y-83360345D01*
X177869327Y-83279392D01*
X177909803Y-83198440D01*
X177990755Y-83157964D01*
X178193136Y-83157964D01*
X178274089Y-83117488D01*
X178678851Y-82915107D02*
X178678851Y-83481773D01*
X178678851Y-82996059D02*
X178719327Y-82955583D01*
X178800279Y-82915107D01*
X178921708Y-82915107D01*
X179002660Y-82955583D01*
X179043136Y-83036535D01*
X179043136Y-83481773D01*
X180378851Y-83036535D02*
X180095517Y-83036535D01*
X180095517Y-83481773D02*
X180095517Y-82631773D01*
X180500279Y-82631773D01*
X180945517Y-83481773D02*
X180864565Y-83441297D01*
X180824089Y-83360345D01*
X180824089Y-82631773D01*
X181390755Y-83481773D02*
X181309803Y-83441297D01*
X181269327Y-83400821D01*
X181228851Y-83319869D01*
X181228851Y-83077011D01*
X181269327Y-82996059D01*
X181309803Y-82955583D01*
X181390755Y-82915107D01*
X181512184Y-82915107D01*
X181593136Y-82955583D01*
X181633613Y-82996059D01*
X181674089Y-83077011D01*
X181674089Y-83319869D01*
X181633613Y-83400821D01*
X181593136Y-83441297D01*
X181512184Y-83481773D01*
X181390755Y-83481773D01*
X182038375Y-83481773D02*
X182038375Y-82915107D01*
X182038375Y-83077011D02*
X182078851Y-82996059D01*
X182119327Y-82955583D01*
X182200279Y-82915107D01*
X182281232Y-82915107D01*
X182888375Y-83441297D02*
X182807422Y-83481773D01*
X182645517Y-83481773D01*
X182564565Y-83441297D01*
X182524089Y-83360345D01*
X182524089Y-83036535D01*
X182564565Y-82955583D01*
X182645517Y-82915107D01*
X182807422Y-82915107D01*
X182888375Y-82955583D01*
X182928851Y-83036535D01*
X182928851Y-83117488D01*
X182524089Y-83198440D01*
X183252660Y-83441297D02*
X183333613Y-83481773D01*
X183495517Y-83481773D01*
X183576470Y-83441297D01*
X183616946Y-83360345D01*
X183616946Y-83319869D01*
X183576470Y-83238916D01*
X183495517Y-83198440D01*
X183374089Y-83198440D01*
X183293136Y-83157964D01*
X183252660Y-83077011D01*
X183252660Y-83036535D01*
X183293136Y-82955583D01*
X183374089Y-82915107D01*
X183495517Y-82915107D01*
X183576470Y-82955583D01*
X174590755Y-84620464D02*
X175238375Y-84620464D01*
X176574089Y-84499035D02*
X176695517Y-84539511D01*
X176735994Y-84579988D01*
X176776470Y-84660940D01*
X176776470Y-84782369D01*
X176735994Y-84863321D01*
X176695517Y-84903797D01*
X176614565Y-84944273D01*
X176290755Y-84944273D01*
X176290755Y-84094273D01*
X176574089Y-84094273D01*
X176655041Y-84134750D01*
X176695517Y-84175226D01*
X176735994Y-84256178D01*
X176735994Y-84337130D01*
X176695517Y-84418083D01*
X176655041Y-84458559D01*
X176574089Y-84499035D01*
X176290755Y-84499035D01*
X177140755Y-84944273D02*
X177140755Y-84377607D01*
X177140755Y-84539511D02*
X177181232Y-84458559D01*
X177221708Y-84418083D01*
X177302660Y-84377607D01*
X177383613Y-84377607D01*
X177666946Y-84944273D02*
X177666946Y-84377607D01*
X177666946Y-84094273D02*
X177626470Y-84134750D01*
X177666946Y-84175226D01*
X177707422Y-84134750D01*
X177666946Y-84094273D01*
X177666946Y-84175226D01*
X178435994Y-84944273D02*
X178435994Y-84499035D01*
X178395517Y-84418083D01*
X178314565Y-84377607D01*
X178152660Y-84377607D01*
X178071708Y-84418083D01*
X178435994Y-84903797D02*
X178355041Y-84944273D01*
X178152660Y-84944273D01*
X178071708Y-84903797D01*
X178031232Y-84822845D01*
X178031232Y-84741892D01*
X178071708Y-84660940D01*
X178152660Y-84620464D01*
X178355041Y-84620464D01*
X178435994Y-84579988D01*
X178840755Y-84377607D02*
X178840755Y-84944273D01*
X178840755Y-84458559D02*
X178881232Y-84418083D01*
X178962184Y-84377607D01*
X179083613Y-84377607D01*
X179164565Y-84418083D01*
X179205041Y-84499035D01*
X179205041Y-84944273D01*
X179609803Y-84377607D02*
X179609803Y-84944273D01*
X179609803Y-84458559D02*
X179650279Y-84418083D01*
X179731232Y-84377607D01*
X179852660Y-84377607D01*
X179933613Y-84418083D01*
X179974089Y-84499035D01*
X179974089Y-84944273D01*
X180743136Y-84944273D02*
X180743136Y-84499035D01*
X180702660Y-84418083D01*
X180621708Y-84377607D01*
X180459803Y-84377607D01*
X180378851Y-84418083D01*
X180743136Y-84903797D02*
X180662184Y-84944273D01*
X180459803Y-84944273D01*
X180378851Y-84903797D01*
X180338375Y-84822845D01*
X180338375Y-84741892D01*
X180378851Y-84660940D01*
X180459803Y-84620464D01*
X180662184Y-84620464D01*
X180743136Y-84579988D01*
X182281232Y-84863321D02*
X182240755Y-84903797D01*
X182119327Y-84944273D01*
X182038375Y-84944273D01*
X181916946Y-84903797D01*
X181835994Y-84822845D01*
X181795517Y-84741892D01*
X181755041Y-84579988D01*
X181755041Y-84458559D01*
X181795517Y-84296654D01*
X181835994Y-84215702D01*
X181916946Y-84134750D01*
X182038375Y-84094273D01*
X182119327Y-84094273D01*
X182240755Y-84134750D01*
X182281232Y-84175226D01*
X182766946Y-84944273D02*
X182685994Y-84903797D01*
X182645517Y-84822845D01*
X182645517Y-84094273D01*
X183455041Y-84944273D02*
X183455041Y-84499035D01*
X183414565Y-84418083D01*
X183333613Y-84377607D01*
X183171708Y-84377607D01*
X183090755Y-84418083D01*
X183455041Y-84903797D02*
X183374089Y-84944273D01*
X183171708Y-84944273D01*
X183090755Y-84903797D01*
X183050279Y-84822845D01*
X183050279Y-84741892D01*
X183090755Y-84660940D01*
X183171708Y-84620464D01*
X183374089Y-84620464D01*
X183455041Y-84579988D01*
X183859803Y-84944273D02*
X183859803Y-84377607D01*
X183859803Y-84539511D02*
X183900279Y-84458559D01*
X183940755Y-84418083D01*
X184021708Y-84377607D01*
X184102660Y-84377607D01*
X184385994Y-84944273D02*
X184385994Y-84094273D01*
X184466946Y-84620464D02*
X184709803Y-84944273D01*
X184709803Y-84377607D02*
X184385994Y-84701416D01*
X174590755Y-86082964D02*
X175238375Y-86082964D01*
X176533613Y-85556773D02*
X176533613Y-86163916D01*
X176493136Y-86285345D01*
X176412184Y-86366297D01*
X176290755Y-86406773D01*
X176209803Y-86406773D01*
X177059803Y-86406773D02*
X176978851Y-86366297D01*
X176938375Y-86325821D01*
X176897898Y-86244869D01*
X176897898Y-86002011D01*
X176938375Y-85921059D01*
X176978851Y-85880583D01*
X177059803Y-85840107D01*
X177181232Y-85840107D01*
X177262184Y-85880583D01*
X177302660Y-85921059D01*
X177343136Y-86002011D01*
X177343136Y-86244869D01*
X177302660Y-86325821D01*
X177262184Y-86366297D01*
X177181232Y-86406773D01*
X177059803Y-86406773D01*
X178031232Y-86366297D02*
X177950279Y-86406773D01*
X177788375Y-86406773D01*
X177707422Y-86366297D01*
X177666946Y-86285345D01*
X177666946Y-85961535D01*
X177707422Y-85880583D01*
X177788375Y-85840107D01*
X177950279Y-85840107D01*
X178031232Y-85880583D01*
X178071708Y-85961535D01*
X178071708Y-86042488D01*
X177666946Y-86123440D01*
X178355041Y-85840107D02*
X178557422Y-86406773D01*
X178759803Y-85840107D02*
X178557422Y-86406773D01*
X178476470Y-86609154D01*
X178435994Y-86649630D01*
X178355041Y-86690107D01*
X179893136Y-85556773D02*
X180055041Y-85556773D01*
X180135994Y-85597250D01*
X180216946Y-85678202D01*
X180257422Y-85840107D01*
X180257422Y-86123440D01*
X180216946Y-86285345D01*
X180135994Y-86366297D01*
X180055041Y-86406773D01*
X179893136Y-86406773D01*
X179812184Y-86366297D01*
X179731232Y-86285345D01*
X179690755Y-86123440D01*
X179690755Y-85840107D01*
X179731232Y-85678202D01*
X179812184Y-85597250D01*
X179893136Y-85556773D01*
X180500279Y-85840107D02*
X180824089Y-85840107D01*
X180621708Y-85556773D02*
X180621708Y-86285345D01*
X180662184Y-86366297D01*
X180743136Y-86406773D01*
X180824089Y-86406773D01*
X181471708Y-86406773D02*
X181471708Y-85961535D01*
X181431232Y-85880583D01*
X181350279Y-85840107D01*
X181188375Y-85840107D01*
X181107422Y-85880583D01*
X181471708Y-86366297D02*
X181390755Y-86406773D01*
X181188375Y-86406773D01*
X181107422Y-86366297D01*
X181066946Y-86285345D01*
X181066946Y-86204392D01*
X181107422Y-86123440D01*
X181188375Y-86082964D01*
X181390755Y-86082964D01*
X181471708Y-86042488D01*
X181876470Y-85840107D02*
X181876470Y-86406773D01*
X181876470Y-85921059D02*
X181916946Y-85880583D01*
X181997898Y-85840107D01*
X182119327Y-85840107D01*
X182200279Y-85880583D01*
X182240755Y-85961535D01*
X182240755Y-86406773D01*
X182969327Y-86366297D02*
X182888375Y-86406773D01*
X182726470Y-86406773D01*
X182645517Y-86366297D01*
X182605041Y-86285345D01*
X182605041Y-85961535D01*
X182645517Y-85880583D01*
X182726470Y-85840107D01*
X182888375Y-85840107D01*
X182969327Y-85880583D01*
X183009803Y-85961535D01*
X183009803Y-86042488D01*
X182605041Y-86123440D01*
X183293136Y-85840107D02*
X183738375Y-85840107D01*
X183293136Y-86406773D01*
X183738375Y-86406773D01*
X174590755Y-87545464D02*
X175238375Y-87545464D01*
X176533613Y-87019273D02*
X176533613Y-87626416D01*
X176493136Y-87747845D01*
X176412184Y-87828797D01*
X176290755Y-87869273D01*
X176209803Y-87869273D01*
X177059803Y-87869273D02*
X176978851Y-87828797D01*
X176938375Y-87788321D01*
X176897898Y-87707369D01*
X176897898Y-87464511D01*
X176938375Y-87383559D01*
X176978851Y-87343083D01*
X177059803Y-87302607D01*
X177181232Y-87302607D01*
X177262184Y-87343083D01*
X177302660Y-87383559D01*
X177343136Y-87464511D01*
X177343136Y-87707369D01*
X177302660Y-87788321D01*
X177262184Y-87828797D01*
X177181232Y-87869273D01*
X177059803Y-87869273D01*
X177707422Y-87302607D02*
X177707422Y-88031178D01*
X177666946Y-88112130D01*
X177585994Y-88152607D01*
X177545517Y-88152607D01*
X177707422Y-87019273D02*
X177666946Y-87059750D01*
X177707422Y-87100226D01*
X177747898Y-87059750D01*
X177707422Y-87019273D01*
X177707422Y-87100226D01*
X178233613Y-87869273D02*
X178152660Y-87828797D01*
X178112184Y-87788321D01*
X178071708Y-87707369D01*
X178071708Y-87464511D01*
X178112184Y-87383559D01*
X178152660Y-87343083D01*
X178233613Y-87302607D01*
X178355041Y-87302607D01*
X178435994Y-87343083D01*
X178476470Y-87383559D01*
X178516946Y-87464511D01*
X178516946Y-87707369D01*
X178476470Y-87788321D01*
X178435994Y-87828797D01*
X178355041Y-87869273D01*
X178233613Y-87869273D01*
X179528851Y-87869273D02*
X179528851Y-87019273D01*
X180014565Y-87869273D01*
X180014565Y-87019273D01*
X180783613Y-87869273D02*
X180783613Y-87424035D01*
X180743136Y-87343083D01*
X180662184Y-87302607D01*
X180500279Y-87302607D01*
X180419327Y-87343083D01*
X180783613Y-87828797D02*
X180702660Y-87869273D01*
X180500279Y-87869273D01*
X180419327Y-87828797D01*
X180378851Y-87747845D01*
X180378851Y-87666892D01*
X180419327Y-87585940D01*
X180500279Y-87545464D01*
X180702660Y-87545464D01*
X180783613Y-87504988D01*
X181107422Y-87302607D02*
X181309803Y-87869273D01*
X181512184Y-87302607D01*
X182200279Y-87869273D02*
X182200279Y-87424035D01*
X182159803Y-87343083D01*
X182078851Y-87302607D01*
X181916946Y-87302607D01*
X181835994Y-87343083D01*
X182200279Y-87828797D02*
X182119327Y-87869273D01*
X181916946Y-87869273D01*
X181835994Y-87828797D01*
X181795517Y-87747845D01*
X181795517Y-87666892D01*
X181835994Y-87585940D01*
X181916946Y-87545464D01*
X182119327Y-87545464D01*
X182200279Y-87504988D01*
X182564565Y-87828797D02*
X182645517Y-87869273D01*
X182807422Y-87869273D01*
X182888375Y-87828797D01*
X182928851Y-87747845D01*
X182928851Y-87707369D01*
X182888375Y-87626416D01*
X182807422Y-87585940D01*
X182685994Y-87585940D01*
X182605041Y-87545464D01*
X182564565Y-87464511D01*
X182564565Y-87424035D01*
X182605041Y-87343083D01*
X182685994Y-87302607D01*
X182807422Y-87302607D01*
X182888375Y-87343083D01*
X183657422Y-87828797D02*
X183576470Y-87869273D01*
X183414565Y-87869273D01*
X183333613Y-87828797D01*
X183293136Y-87788321D01*
X183252660Y-87707369D01*
X183252660Y-87464511D01*
X183293136Y-87383559D01*
X183333613Y-87343083D01*
X183414565Y-87302607D01*
X183576470Y-87302607D01*
X183657422Y-87343083D01*
X184385994Y-87869273D02*
X184385994Y-87424035D01*
X184345517Y-87343083D01*
X184264565Y-87302607D01*
X184102660Y-87302607D01*
X184021708Y-87343083D01*
X184385994Y-87828797D02*
X184305041Y-87869273D01*
X184102660Y-87869273D01*
X184021708Y-87828797D01*
X183981232Y-87747845D01*
X183981232Y-87666892D01*
X184021708Y-87585940D01*
X184102660Y-87545464D01*
X184305041Y-87545464D01*
X184385994Y-87504988D01*
D13*
X161096500Y-77458500D02*
X161096500Y-76128500D01*
X163696500Y-77458500D02*
X163696500Y-74798500D01*
X162426500Y-77458500D02*
X161096500Y-77458500D01*
X130616500Y-77458500D02*
X130616500Y-76128500D01*
X131946500Y-77458500D02*
X130616500Y-77458500D01*
X161236500Y-63248500D02*
X161236500Y-64578500D01*
X158636500Y-63248500D02*
X158636500Y-65908500D01*
X159906500Y-63248500D02*
X161236500Y-63248500D01*
X191716500Y-63248500D02*
X191716500Y-64578500D01*
X190386500Y-63248500D02*
X191716500Y-63248500D01*
D14*
G36*
X164360000Y-69987500D02*
G01*
X164106000Y-70241500D01*
X163852000Y-69860500D01*
X164106000Y-69606500D01*
X164360000Y-69987500D01*
G37*
X164360000Y-69987500D02*
X164106000Y-70241500D01*
X163852000Y-69860500D01*
X164106000Y-69606500D01*
X164360000Y-69987500D01*
G36*
X163979000Y-70368500D02*
G01*
X163725000Y-70622500D01*
X163471000Y-70241500D01*
X163725000Y-69987500D01*
X163979000Y-70368500D01*
G37*
X163979000Y-70368500D02*
X163725000Y-70622500D01*
X163471000Y-70241500D01*
X163725000Y-69987500D01*
X163979000Y-70368500D01*
G36*
X162074000Y-69606500D02*
G01*
X161820000Y-69860500D01*
X161566000Y-69479500D01*
X161820000Y-69225500D01*
X162074000Y-69606500D01*
G37*
X162074000Y-69606500D02*
X161820000Y-69860500D01*
X161566000Y-69479500D01*
X161820000Y-69225500D01*
X162074000Y-69606500D01*
G36*
X162455000Y-70114500D02*
G01*
X162201000Y-70368500D01*
X161947000Y-69987500D01*
X162201000Y-69733500D01*
X162455000Y-70114500D01*
G37*
X162455000Y-70114500D02*
X162201000Y-70368500D01*
X161947000Y-69987500D01*
X162201000Y-69733500D01*
X162455000Y-70114500D01*
G36*
X162836000Y-70622500D02*
G01*
X162582000Y-70876500D01*
X162328000Y-70495500D01*
X162582000Y-70241500D01*
X162836000Y-70622500D01*
G37*
X162836000Y-70622500D02*
X162582000Y-70876500D01*
X162328000Y-70495500D01*
X162582000Y-70241500D01*
X162836000Y-70622500D01*
G36*
X162836000Y-69733500D02*
G01*
X162582000Y-69987500D01*
X162328000Y-69606500D01*
X162582000Y-69352500D01*
X162836000Y-69733500D01*
G37*
X162836000Y-69733500D02*
X162582000Y-69987500D01*
X162328000Y-69606500D01*
X162582000Y-69352500D01*
X162836000Y-69733500D01*
G36*
X163217000Y-70241500D02*
G01*
X162963000Y-70495500D01*
X162709000Y-70114500D01*
X162963000Y-69860500D01*
X163217000Y-70241500D01*
G37*
X163217000Y-70241500D02*
X162963000Y-70495500D01*
X162709000Y-70114500D01*
X162963000Y-69860500D01*
X163217000Y-70241500D01*
G36*
X163598000Y-70749500D02*
G01*
X163344000Y-71003500D01*
X163090000Y-70622500D01*
X163344000Y-70368500D01*
X163598000Y-70749500D01*
G37*
X163598000Y-70749500D02*
X163344000Y-71003500D01*
X163090000Y-70622500D01*
X163344000Y-70368500D01*
X163598000Y-70749500D01*
D15*
X130683000Y-79184500D02*
X130683000Y-61404500D01*
X191643000Y-79184500D02*
X130683000Y-79184500D01*
X191643000Y-61404500D02*
X191643000Y-79184500D01*
X130683000Y-61404500D02*
X191643000Y-61404500D01*
X135763000Y-74104500D02*
X130683000Y-74104500D01*
X135763000Y-66484500D02*
X130683000Y-66484500D01*
X135763000Y-74104500D02*
X135763000Y-66484500D01*
X129413000Y-66484500D02*
X130683000Y-66484500D01*
X129413000Y-74104500D02*
X129413000Y-66484500D01*
X130683000Y-74104500D02*
X129413000Y-74104500D01*
X191643000Y-63944500D02*
X178943000Y-63944500D01*
X178943000Y-63944500D02*
X178943000Y-76644500D01*
X178943000Y-76644500D02*
X191643000Y-76644500D01*
X191643000Y-65214500D02*
X190373000Y-65214500D01*
X190373000Y-65214500D02*
X190373000Y-75374500D01*
X190373000Y-75374500D02*
X191643000Y-75374500D01*
X175133000Y-69024500D02*
X175133000Y-71564500D01*
X175133000Y-71564500D02*
X171323000Y-71564500D01*
X171323000Y-71564500D02*
X171323000Y-69024500D01*
X171323000Y-69024500D02*
X175133000Y-69024500D01*
X153543000Y-76644500D02*
X166243000Y-76644500D01*
X166243000Y-76644500D02*
X166243000Y-63944500D01*
X166243000Y-63944500D02*
X153543000Y-63944500D01*
X153543000Y-63944500D02*
X153543000Y-76644500D01*
X174126026Y-70294500D02*
G75*
G03*
X174126026Y-70294500I-898026J0D01*
G01*
D13*
X172041500Y-80153500D02*
X172041500Y-82553500D01*
X173241500Y-80153500D02*
X172041500Y-80153500D01*
X173241500Y-82553500D02*
X173241500Y-80153500D01*
X172041500Y-82553500D02*
X173241500Y-82553500D01*
D14*
X167037500Y-89503000D02*
X167537500Y-89503000D01*
X167037500Y-89503000D02*
X167037500Y-90003000D01*
X191737500Y-89503000D02*
X191237500Y-89503000D01*
X191737500Y-89503000D02*
X191737500Y-90003000D01*
X191787500Y-109703000D02*
X191787500Y-109203000D01*
X191787500Y-109703000D02*
X191387500Y-110103000D01*
X184187500Y-117303000D02*
X184587500Y-116903000D01*
X184187500Y-117303000D02*
X183687500Y-117303000D01*
X174587500Y-117303000D02*
X175087500Y-117303000D01*
X174587500Y-117303000D02*
X174187500Y-116903000D01*
X191787500Y-100203000D02*
X191787500Y-96403000D01*
D13*
X121356800Y-99620400D02*
X121356800Y-109860400D01*
X137246800Y-99620400D02*
X137246800Y-109860400D01*
X137246800Y-99620400D02*
X121356800Y-99620400D01*
X137246800Y-109860400D02*
X121356800Y-109860400D01*
X121356800Y-102200400D02*
X118816800Y-102200400D01*
X121356800Y-104740400D02*
X118816800Y-104740400D01*
X121356800Y-107280400D02*
X118816800Y-107280400D01*
X190191500Y-86703500D02*
G75*
G03*
X190191500Y-86703500I-1200000J0D01*
G01*
X114357000Y-89535000D02*
G75*
G03*
X114357000Y-89535000I-1200000J0D01*
G01*
X133106000Y-97927000D02*
X115306000Y-97927000D01*
X133106000Y-80127000D02*
X133106000Y-97927000D01*
X115306000Y-80127000D02*
X115306000Y-97927000D01*
X133106000Y-80127000D02*
X115306000Y-80127000D01*
X114674500Y-103378000D02*
G75*
G03*
X114674500Y-103378000I-1200000J0D01*
G01*
X136816500Y-97628500D02*
G75*
G03*
X136816500Y-97628500I-1200000J0D01*
G01*
X114266500Y-74328500D02*
G75*
G03*
X114266500Y-74328500I-1200000J0D01*
G01*
D15*
G36*
X153835000Y-90678300D02*
G01*
X153986800Y-90600100D01*
X154363800Y-90907500D01*
X154622300Y-90649000D01*
X154314900Y-90272000D01*
X154445200Y-89957500D01*
X154929100Y-89908300D01*
X154929100Y-89542700D01*
X154445200Y-89493500D01*
X154314900Y-89179000D01*
X154622300Y-88802000D01*
X154363800Y-88543500D01*
X153986800Y-88850900D01*
X153834964Y-88772683D01*
X153672300Y-88720600D01*
X153623100Y-88236700D01*
X153257500Y-88236700D01*
X153208300Y-88720600D01*
X152893800Y-88850900D01*
X152516800Y-88543500D01*
X152258300Y-88802000D01*
X152565700Y-89179000D01*
X152435400Y-89493500D01*
X151951500Y-89542700D01*
X151951500Y-89908300D01*
X152435400Y-89957500D01*
X152565700Y-90272000D01*
X152258300Y-90649000D01*
X152516800Y-90907500D01*
X152893800Y-90600100D01*
X152968079Y-90642347D01*
X153045600Y-90678300D01*
X153260900Y-90158600D01*
X153260901Y-90158600D01*
X153108800Y-90056993D01*
X152971500Y-89725500D01*
X152993661Y-89583179D01*
X153057991Y-89454307D01*
X153158415Y-89351053D01*
X153285451Y-89283167D01*
X153427101Y-89257061D01*
X153569991Y-89275198D01*
X153700626Y-89335867D01*
X153806672Y-89433339D01*
X153878114Y-89558409D01*
X153908206Y-89699266D01*
X153894106Y-89842611D01*
X153837146Y-89974906D01*
X153742705Y-90083659D01*
X153619700Y-90158600D01*
X153835000Y-90678300D01*
G37*
D13*
X137477500Y-79819500D02*
X137477500Y-92519500D01*
X137477500Y-92519500D02*
X137477500Y-105219500D01*
X137477500Y-105219500D02*
X162877500Y-105219500D01*
X162877500Y-105219500D02*
X162877500Y-79819500D01*
X162877500Y-79819500D02*
X137477500Y-79819500D01*
X125597000Y-68686500D02*
X116877000Y-68686500D01*
X116877000Y-68686500D02*
X116877000Y-63266500D01*
X125597000Y-63266500D02*
X116877000Y-63266500D01*
X127297000Y-67386500D02*
X125597000Y-68686500D01*
X127297000Y-64566500D02*
X125597000Y-63266500D01*
X127297000Y-67386500D02*
X127297000Y-64566500D01*
X116686500Y-72948500D02*
X116686500Y-75768500D01*
X116686500Y-75768500D02*
X118386500Y-77068500D01*
X116686500Y-72948500D02*
X118386500Y-71648500D01*
X118386500Y-77068500D02*
X127106500Y-77068500D01*
X127106500Y-71648500D02*
X127106500Y-77068500D01*
X118386500Y-71648500D02*
X127106500Y-71648500D01*
X134341500Y-89278500D02*
X136741500Y-89278500D01*
X134341500Y-88078500D02*
X134341500Y-89278500D01*
X136741500Y-88078500D02*
X134341500Y-88078500D01*
X136741500Y-89278500D02*
X136741500Y-88078500D01*
X136741500Y-86728500D02*
X136741500Y-85528500D01*
X136741500Y-85528500D02*
X134341500Y-85528500D01*
X134341500Y-85528500D02*
X134341500Y-86728500D01*
X134341500Y-86728500D02*
X136741500Y-86728500D01*
X169441500Y-82553500D02*
X170641500Y-82553500D01*
X170641500Y-82553500D02*
X170641500Y-80153500D01*
X170641500Y-80153500D02*
X169441500Y-80153500D01*
X169441500Y-80153500D02*
X169441500Y-82553500D01*
X193234000Y-105216000D02*
X195894000Y-105216000D01*
X193234000Y-82296000D02*
X193234000Y-105216000D01*
X195894000Y-82296000D02*
X195894000Y-105216000D01*
X193234000Y-82296000D02*
X195894000Y-82296000D01*
X193234000Y-81026000D02*
X193234000Y-79696000D01*
X193234000Y-79696000D02*
X194564000Y-79696000D01*
X163643000Y-84712500D02*
X164973000Y-84712500D01*
X163643000Y-86042500D02*
X163643000Y-84712500D01*
X163643000Y-87312500D02*
X166303000Y-87312500D01*
X166303000Y-87312500D02*
X166303000Y-110232500D01*
X163643000Y-87312500D02*
X163643000Y-110232500D01*
X163643000Y-110232500D02*
X166303000Y-110232500D01*
X159161500Y-106048500D02*
X159161500Y-107378500D01*
X157831500Y-106048500D02*
X159161500Y-106048500D01*
X156561500Y-106048500D02*
X156561500Y-108708500D01*
X156561500Y-108708500D02*
X138721500Y-108708500D01*
X156561500Y-106048500D02*
X138721500Y-106048500D01*
X138721500Y-106048500D02*
X138721500Y-108708500D01*
X136341500Y-82353500D02*
G75*
G03*
X136341500Y-82353500I-1200000J0D01*
G01*
X173841500Y-86678500D02*
G75*
G03*
X173841500Y-86678500I-1200000J0D01*
G01*
X134266500Y-94128500D02*
X134266500Y-95328500D01*
X134266500Y-95328500D02*
X136666500Y-95328500D01*
X136666500Y-95328500D02*
X136666500Y-94128500D01*
X136666500Y-94128500D02*
X134266500Y-94128500D01*
X136716500Y-91578500D02*
X134316500Y-91578500D01*
X136716500Y-92778500D02*
X136716500Y-91578500D01*
X134316500Y-92778500D02*
X136716500Y-92778500D01*
X134316500Y-91578500D02*
X134316500Y-92778500D01*
D15*
X160344595Y-60400880D02*
X160344595Y-61210404D01*
X160392214Y-61305642D01*
X160439833Y-61353261D01*
X160535071Y-61400880D01*
X160725547Y-61400880D01*
X160820785Y-61353261D01*
X160868404Y-61305642D01*
X160916023Y-61210404D01*
X160916023Y-60400880D01*
X161916023Y-61400880D02*
X161344595Y-61400880D01*
X161630309Y-61400880D02*
X161630309Y-60400880D01*
X161535071Y-60543738D01*
X161439833Y-60638976D01*
X161344595Y-60686595D01*
X139387676Y-72236080D02*
X139387676Y-73045604D01*
X139435295Y-73140842D01*
X139482914Y-73188461D01*
X139578152Y-73236080D01*
X139768628Y-73236080D01*
X139863866Y-73188461D01*
X139911485Y-73140842D01*
X139959104Y-73045604D01*
X139959104Y-72236080D01*
X140387676Y-73188461D02*
X140530533Y-73236080D01*
X140768628Y-73236080D01*
X140863866Y-73188461D01*
X140911485Y-73140842D01*
X140959104Y-73045604D01*
X140959104Y-72950366D01*
X140911485Y-72855128D01*
X140863866Y-72807509D01*
X140768628Y-72759890D01*
X140578152Y-72712271D01*
X140482914Y-72664652D01*
X140435295Y-72617033D01*
X140387676Y-72521795D01*
X140387676Y-72426557D01*
X140435295Y-72331319D01*
X140482914Y-72283700D01*
X140578152Y-72236080D01*
X140816247Y-72236080D01*
X140959104Y-72283700D01*
X141721009Y-72712271D02*
X141863866Y-72759890D01*
X141911485Y-72807509D01*
X141959104Y-72902747D01*
X141959104Y-73045604D01*
X141911485Y-73140842D01*
X141863866Y-73188461D01*
X141768628Y-73236080D01*
X141387676Y-73236080D01*
X141387676Y-72236080D01*
X141721009Y-72236080D01*
X141816247Y-72283700D01*
X141863866Y-72331319D01*
X141911485Y-72426557D01*
X141911485Y-72521795D01*
X141863866Y-72617033D01*
X141816247Y-72664652D01*
X141721009Y-72712271D01*
X141387676Y-72712271D01*
X143149580Y-73236080D02*
X143149580Y-72236080D01*
X143149580Y-72712271D02*
X143721009Y-72712271D01*
X143721009Y-73236080D02*
X143721009Y-72236080D01*
X144340057Y-73236080D02*
X144244819Y-73188461D01*
X144197200Y-73140842D01*
X144149580Y-73045604D01*
X144149580Y-72759890D01*
X144197200Y-72664652D01*
X144244819Y-72617033D01*
X144340057Y-72569414D01*
X144482914Y-72569414D01*
X144578152Y-72617033D01*
X144625771Y-72664652D01*
X144673390Y-72759890D01*
X144673390Y-73045604D01*
X144625771Y-73140842D01*
X144578152Y-73188461D01*
X144482914Y-73236080D01*
X144340057Y-73236080D01*
X145054342Y-73188461D02*
X145149580Y-73236080D01*
X145340057Y-73236080D01*
X145435295Y-73188461D01*
X145482914Y-73093223D01*
X145482914Y-73045604D01*
X145435295Y-72950366D01*
X145340057Y-72902747D01*
X145197200Y-72902747D01*
X145101961Y-72855128D01*
X145054342Y-72759890D01*
X145054342Y-72712271D01*
X145101961Y-72617033D01*
X145197200Y-72569414D01*
X145340057Y-72569414D01*
X145435295Y-72617033D01*
X145768628Y-72569414D02*
X146149580Y-72569414D01*
X145911485Y-72236080D02*
X145911485Y-73093223D01*
X145959104Y-73188461D01*
X146054342Y-73236080D01*
X146149580Y-73236080D01*
X149026571Y-69875042D02*
X149026571Y-69541709D01*
X149550380Y-69398852D02*
X149550380Y-69875042D01*
X148550380Y-69875042D01*
X148550380Y-69398852D01*
X148883714Y-69113138D02*
X148883714Y-68732185D01*
X148550380Y-68970280D02*
X149407523Y-68970280D01*
X149502761Y-68922661D01*
X149550380Y-68827423D01*
X149550380Y-68732185D01*
X149550380Y-68398852D02*
X148550380Y-68398852D01*
X149550380Y-67970280D02*
X149026571Y-67970280D01*
X148931333Y-68017900D01*
X148883714Y-68113138D01*
X148883714Y-68255995D01*
X148931333Y-68351233D01*
X148978952Y-68398852D01*
X149502761Y-67113138D02*
X149550380Y-67208376D01*
X149550380Y-67398852D01*
X149502761Y-67494090D01*
X149407523Y-67541709D01*
X149026571Y-67541709D01*
X148931333Y-67494090D01*
X148883714Y-67398852D01*
X148883714Y-67208376D01*
X148931333Y-67113138D01*
X149026571Y-67065519D01*
X149121809Y-67065519D01*
X149217047Y-67541709D01*
X149550380Y-66636947D02*
X148883714Y-66636947D01*
X149074190Y-66636947D02*
X148978952Y-66589328D01*
X148931333Y-66541709D01*
X148883714Y-66446471D01*
X148883714Y-66351233D01*
X148883714Y-66017900D02*
X149550380Y-66017900D01*
X148978952Y-66017900D02*
X148931333Y-65970280D01*
X148883714Y-65875042D01*
X148883714Y-65732185D01*
X148931333Y-65636947D01*
X149026571Y-65589328D01*
X149550380Y-65589328D01*
X149502761Y-64732185D02*
X149550380Y-64827423D01*
X149550380Y-65017900D01*
X149502761Y-65113138D01*
X149407523Y-65160757D01*
X149026571Y-65160757D01*
X148931333Y-65113138D01*
X148883714Y-65017900D01*
X148883714Y-64827423D01*
X148931333Y-64732185D01*
X149026571Y-64684566D01*
X149121809Y-64684566D01*
X149217047Y-65160757D01*
X148883714Y-64398852D02*
X148883714Y-64017900D01*
X148550380Y-64255995D02*
X149407523Y-64255995D01*
X149502761Y-64208376D01*
X149550380Y-64113138D01*
X149550380Y-64017900D01*
X133945380Y-71556404D02*
X134754904Y-71556404D01*
X134850142Y-71508785D01*
X134897761Y-71461166D01*
X134945380Y-71365928D01*
X134945380Y-71175452D01*
X134897761Y-71080214D01*
X134850142Y-71032595D01*
X134754904Y-70984976D01*
X133945380Y-70984976D01*
X134897761Y-70556404D02*
X134945380Y-70413547D01*
X134945380Y-70175452D01*
X134897761Y-70080214D01*
X134850142Y-70032595D01*
X134754904Y-69984976D01*
X134659666Y-69984976D01*
X134564428Y-70032595D01*
X134516809Y-70080214D01*
X134469190Y-70175452D01*
X134421571Y-70365928D01*
X134373952Y-70461166D01*
X134326333Y-70508785D01*
X134231095Y-70556404D01*
X134135857Y-70556404D01*
X134040619Y-70508785D01*
X133993000Y-70461166D01*
X133945380Y-70365928D01*
X133945380Y-70127833D01*
X133993000Y-69984976D01*
X134421571Y-69223071D02*
X134469190Y-69080214D01*
X134516809Y-69032595D01*
X134612047Y-68984976D01*
X134754904Y-68984976D01*
X134850142Y-69032595D01*
X134897761Y-69080214D01*
X134945380Y-69175452D01*
X134945380Y-69556404D01*
X133945380Y-69556404D01*
X133945380Y-69223071D01*
X133993000Y-69127833D01*
X134040619Y-69080214D01*
X134135857Y-69032595D01*
X134231095Y-69032595D01*
X134326333Y-69080214D01*
X134373952Y-69127833D01*
X134421571Y-69223071D01*
X134421571Y-69556404D01*
X182173952Y-70746880D02*
X182173952Y-69746880D01*
X182507285Y-70461166D01*
X182840619Y-69746880D01*
X182840619Y-70746880D01*
X183316809Y-70746880D02*
X183316809Y-70080214D01*
X183316809Y-69746880D02*
X183269190Y-69794500D01*
X183316809Y-69842119D01*
X183364428Y-69794500D01*
X183316809Y-69746880D01*
X183316809Y-69842119D01*
X184221571Y-70699261D02*
X184126333Y-70746880D01*
X183935857Y-70746880D01*
X183840619Y-70699261D01*
X183793000Y-70651642D01*
X183745380Y-70556404D01*
X183745380Y-70270690D01*
X183793000Y-70175452D01*
X183840619Y-70127833D01*
X183935857Y-70080214D01*
X184126333Y-70080214D01*
X184221571Y-70127833D01*
X184650142Y-70746880D02*
X184650142Y-70080214D01*
X184650142Y-70270690D02*
X184697761Y-70175452D01*
X184745380Y-70127833D01*
X184840619Y-70080214D01*
X184935857Y-70080214D01*
X185412047Y-70746880D02*
X185316809Y-70699261D01*
X185269190Y-70651642D01*
X185221571Y-70556404D01*
X185221571Y-70270690D01*
X185269190Y-70175452D01*
X185316809Y-70127833D01*
X185412047Y-70080214D01*
X185554904Y-70080214D01*
X185650142Y-70127833D01*
X185697761Y-70175452D01*
X185745380Y-70270690D01*
X185745380Y-70556404D01*
X185697761Y-70651642D01*
X185650142Y-70699261D01*
X185554904Y-70746880D01*
X185412047Y-70746880D01*
X186888238Y-70699261D02*
X187031095Y-70746880D01*
X187269190Y-70746880D01*
X187364428Y-70699261D01*
X187412047Y-70651642D01*
X187459666Y-70556404D01*
X187459666Y-70461166D01*
X187412047Y-70365928D01*
X187364428Y-70318309D01*
X187269190Y-70270690D01*
X187078714Y-70223071D01*
X186983476Y-70175452D01*
X186935857Y-70127833D01*
X186888238Y-70032595D01*
X186888238Y-69937357D01*
X186935857Y-69842119D01*
X186983476Y-69794500D01*
X187078714Y-69746880D01*
X187316809Y-69746880D01*
X187459666Y-69794500D01*
X187888238Y-70746880D02*
X187888238Y-69746880D01*
X188126333Y-69746880D01*
X188269190Y-69794500D01*
X188364428Y-69889738D01*
X188412047Y-69984976D01*
X188459666Y-70175452D01*
X188459666Y-70318309D01*
X188412047Y-70508785D01*
X188364428Y-70604023D01*
X188269190Y-70699261D01*
X188126333Y-70746880D01*
X187888238Y-70746880D01*
X159576333Y-67211166D02*
X160276333Y-67211166D01*
X159776333Y-67444500D01*
X160276333Y-67677833D01*
X159576333Y-67677833D01*
X159576333Y-68011166D02*
X160276333Y-68011166D01*
X159576333Y-68344500D02*
X160276333Y-68344500D01*
X159776333Y-68577833D01*
X160276333Y-68811166D01*
X159576333Y-68811166D01*
X160276333Y-69077833D02*
X159576333Y-69544500D01*
X160276333Y-69544500D02*
X159576333Y-69077833D01*
X159576333Y-70211166D02*
X159909666Y-69977833D01*
X159576333Y-69811166D02*
X160276333Y-69811166D01*
X160276333Y-70077833D01*
X160243000Y-70144500D01*
X160209666Y-70177833D01*
X160143000Y-70211166D01*
X160043000Y-70211166D01*
X159976333Y-70177833D01*
X159943000Y-70144500D01*
X159909666Y-70077833D01*
X159909666Y-69811166D01*
X160276333Y-70411166D02*
X160276333Y-70811166D01*
X159576333Y-70611166D02*
X160276333Y-70611166D01*
X159576333Y-71411166D02*
X159576333Y-71011166D01*
X159576333Y-71211166D02*
X160276333Y-71211166D01*
X160176333Y-71144500D01*
X160109666Y-71077833D01*
X160076333Y-71011166D01*
X160276333Y-71844500D02*
X160276333Y-71911166D01*
X160243000Y-71977833D01*
X160209666Y-72011166D01*
X160143000Y-72044500D01*
X160009666Y-72077833D01*
X159843000Y-72077833D01*
X159709666Y-72044500D01*
X159643000Y-72011166D01*
X159609666Y-71977833D01*
X159576333Y-71911166D01*
X159576333Y-71844500D01*
X159609666Y-71777833D01*
X159643000Y-71744500D01*
X159709666Y-71711166D01*
X159843000Y-71677833D01*
X160009666Y-71677833D01*
X160143000Y-71711166D01*
X160209666Y-71744500D01*
X160243000Y-71777833D01*
X160276333Y-71844500D01*
X160276333Y-72677833D02*
X160276333Y-72544500D01*
X160243000Y-72477833D01*
X160209666Y-72444500D01*
X160109666Y-72377833D01*
X159976333Y-72344500D01*
X159709666Y-72344500D01*
X159643000Y-72377833D01*
X159609666Y-72411166D01*
X159576333Y-72477833D01*
X159576333Y-72611166D01*
X159609666Y-72677833D01*
X159643000Y-72711166D01*
X159709666Y-72744500D01*
X159876333Y-72744500D01*
X159943000Y-72711166D01*
X159976333Y-72677833D01*
X160009666Y-72611166D01*
X160009666Y-72477833D01*
X159976333Y-72411166D01*
X159943000Y-72377833D01*
X159876333Y-72344500D01*
X160209666Y-73011166D02*
X160243000Y-73044500D01*
X160276333Y-73111166D01*
X160276333Y-73277833D01*
X160243000Y-73344500D01*
X160209666Y-73377833D01*
X160143000Y-73411166D01*
X160076333Y-73411166D01*
X159976333Y-73377833D01*
X159576333Y-72977833D01*
X159576333Y-73411166D01*
X158306333Y-68731166D02*
X159006333Y-68731166D01*
X159006333Y-68897833D01*
X158973000Y-68997833D01*
X158906333Y-69064500D01*
X158839666Y-69097833D01*
X158706333Y-69131166D01*
X158606333Y-69131166D01*
X158473000Y-69097833D01*
X158406333Y-69064500D01*
X158339666Y-68997833D01*
X158306333Y-68897833D01*
X158306333Y-68731166D01*
X159006333Y-69331166D02*
X158306333Y-69564500D01*
X159006333Y-69797833D01*
X159006333Y-70231166D02*
X158506333Y-70231166D01*
X158406333Y-70197833D01*
X158339666Y-70131166D01*
X158306333Y-70031166D01*
X158306333Y-69964500D01*
X159006333Y-70864500D02*
X159006333Y-70731166D01*
X158973000Y-70664500D01*
X158939666Y-70631166D01*
X158839666Y-70564500D01*
X158706333Y-70531166D01*
X158439666Y-70531166D01*
X158373000Y-70564500D01*
X158339666Y-70597833D01*
X158306333Y-70664500D01*
X158306333Y-70797833D01*
X158339666Y-70864500D01*
X158373000Y-70897833D01*
X158439666Y-70931166D01*
X158606333Y-70931166D01*
X158673000Y-70897833D01*
X158706333Y-70864500D01*
X158739666Y-70797833D01*
X158739666Y-70664500D01*
X158706333Y-70597833D01*
X158673000Y-70564500D01*
X158606333Y-70531166D01*
X158506333Y-71197833D02*
X158506333Y-71531166D01*
X158306333Y-71131166D02*
X159006333Y-71364500D01*
X158306333Y-71597833D01*
X172502214Y-82733261D02*
X173168880Y-82733261D01*
X172121261Y-82971357D02*
X172835547Y-83209452D01*
X172835547Y-82590404D01*
X173073642Y-82209452D02*
X173121261Y-82161833D01*
X173168880Y-82209452D01*
X173121261Y-82257071D01*
X173073642Y-82209452D01*
X173168880Y-82209452D01*
X172168880Y-81828500D02*
X172168880Y-81161833D01*
X173168880Y-81590404D01*
X173168880Y-80780880D02*
X172168880Y-80780880D01*
X172787928Y-80685642D02*
X173168880Y-80399928D01*
X172502214Y-80399928D02*
X172883166Y-80780880D01*
X172502214Y-79542785D02*
X173168880Y-79542785D01*
X172121261Y-79780880D02*
X172835547Y-80018976D01*
X172835547Y-79399928D01*
X178673214Y-118859666D02*
X179149404Y-118859666D01*
X178577976Y-119145380D02*
X178911309Y-118145380D01*
X179244642Y-119145380D01*
X180101785Y-119145380D02*
X179530357Y-119145380D01*
X179816071Y-119145380D02*
X179816071Y-118145380D01*
X179720833Y-118288238D01*
X179625595Y-118383476D01*
X179530357Y-118431095D01*
X137699180Y-105502304D02*
X138508704Y-105502304D01*
X138603942Y-105454685D01*
X138651561Y-105407066D01*
X138699180Y-105311828D01*
X138699180Y-105121352D01*
X138651561Y-105026114D01*
X138603942Y-104978495D01*
X138508704Y-104930876D01*
X137699180Y-104930876D01*
X137699180Y-104549923D02*
X137699180Y-103930876D01*
X138080133Y-104264209D01*
X138080133Y-104121352D01*
X138127752Y-104026114D01*
X138175371Y-103978495D01*
X138270609Y-103930876D01*
X138508704Y-103930876D01*
X138603942Y-103978495D01*
X138651561Y-104026114D01*
X138699180Y-104121352D01*
X138699180Y-104407066D01*
X138651561Y-104502304D01*
X138603942Y-104549923D01*
X190324595Y-86330880D02*
X190896023Y-86330880D01*
X190610309Y-87330880D02*
X190610309Y-86330880D01*
X191229357Y-87330880D02*
X191229357Y-86330880D01*
X191610309Y-86330880D01*
X191705547Y-86378500D01*
X191753166Y-86426119D01*
X191800785Y-86521357D01*
X191800785Y-86664214D01*
X191753166Y-86759452D01*
X191705547Y-86807071D01*
X191610309Y-86854690D01*
X191229357Y-86854690D01*
X192276976Y-87330880D02*
X192467452Y-87330880D01*
X192562690Y-87283261D01*
X192610309Y-87235642D01*
X192705547Y-87092785D01*
X192753166Y-86902309D01*
X192753166Y-86521357D01*
X192705547Y-86426119D01*
X192657928Y-86378500D01*
X192562690Y-86330880D01*
X192372214Y-86330880D01*
X192276976Y-86378500D01*
X192229357Y-86426119D01*
X192181738Y-86521357D01*
X192181738Y-86759452D01*
X192229357Y-86854690D01*
X192276976Y-86902309D01*
X192372214Y-86949928D01*
X192562690Y-86949928D01*
X192657928Y-86902309D01*
X192705547Y-86854690D01*
X192753166Y-86759452D01*
X111895095Y-86989380D02*
X112466523Y-86989380D01*
X112180809Y-87989380D02*
X112180809Y-86989380D01*
X112799857Y-87989380D02*
X112799857Y-86989380D01*
X113180809Y-86989380D01*
X113276047Y-87037000D01*
X113323666Y-87084619D01*
X113371285Y-87179857D01*
X113371285Y-87322714D01*
X113323666Y-87417952D01*
X113276047Y-87465571D01*
X113180809Y-87513190D01*
X112799857Y-87513190D01*
X114228428Y-87322714D02*
X114228428Y-87989380D01*
X113990333Y-86941761D02*
X113752238Y-87656047D01*
X114371285Y-87656047D01*
X115004595Y-78480880D02*
X115004595Y-79290404D01*
X115052214Y-79385642D01*
X115099833Y-79433261D01*
X115195071Y-79480880D01*
X115385547Y-79480880D01*
X115480785Y-79433261D01*
X115528404Y-79385642D01*
X115576023Y-79290404D01*
X115576023Y-78480880D01*
X116004595Y-78576119D02*
X116052214Y-78528500D01*
X116147452Y-78480880D01*
X116385547Y-78480880D01*
X116480785Y-78528500D01*
X116528404Y-78576119D01*
X116576023Y-78671357D01*
X116576023Y-78766595D01*
X116528404Y-78909452D01*
X115956976Y-79480880D01*
X116576023Y-79480880D01*
X112154595Y-100730880D02*
X112726023Y-100730880D01*
X112440309Y-101730880D02*
X112440309Y-100730880D01*
X113059357Y-101730880D02*
X113059357Y-100730880D01*
X113440309Y-100730880D01*
X113535547Y-100778500D01*
X113583166Y-100826119D01*
X113630785Y-100921357D01*
X113630785Y-101064214D01*
X113583166Y-101159452D01*
X113535547Y-101207071D01*
X113440309Y-101254690D01*
X113059357Y-101254690D01*
X113964119Y-100730880D02*
X114630785Y-100730880D01*
X114202214Y-101730880D01*
X132454595Y-98480880D02*
X133026023Y-98480880D01*
X132740309Y-99480880D02*
X132740309Y-98480880D01*
X133359357Y-99480880D02*
X133359357Y-98480880D01*
X133740309Y-98480880D01*
X133835547Y-98528500D01*
X133883166Y-98576119D01*
X133930785Y-98671357D01*
X133930785Y-98814214D01*
X133883166Y-98909452D01*
X133835547Y-98957071D01*
X133740309Y-99004690D01*
X133359357Y-99004690D01*
X134787928Y-98480880D02*
X134597452Y-98480880D01*
X134502214Y-98528500D01*
X134454595Y-98576119D01*
X134359357Y-98718976D01*
X134311738Y-98909452D01*
X134311738Y-99290404D01*
X134359357Y-99385642D01*
X134406976Y-99433261D01*
X134502214Y-99480880D01*
X134692690Y-99480880D01*
X134787928Y-99433261D01*
X134835547Y-99385642D01*
X134883166Y-99290404D01*
X134883166Y-99052309D01*
X134835547Y-98957071D01*
X134787928Y-98909452D01*
X134692690Y-98861833D01*
X134502214Y-98861833D01*
X134406976Y-98909452D01*
X134359357Y-98957071D01*
X134311738Y-99052309D01*
X111804595Y-71782880D02*
X112376023Y-71782880D01*
X112090309Y-72782880D02*
X112090309Y-71782880D01*
X112709357Y-72782880D02*
X112709357Y-71782880D01*
X113090309Y-71782880D01*
X113185547Y-71830500D01*
X113233166Y-71878119D01*
X113280785Y-71973357D01*
X113280785Y-72116214D01*
X113233166Y-72211452D01*
X113185547Y-72259071D01*
X113090309Y-72306690D01*
X112709357Y-72306690D01*
X114185547Y-71782880D02*
X113709357Y-71782880D01*
X113661738Y-72259071D01*
X113709357Y-72211452D01*
X113804595Y-72163833D01*
X114042690Y-72163833D01*
X114137928Y-72211452D01*
X114185547Y-72259071D01*
X114233166Y-72354309D01*
X114233166Y-72592404D01*
X114185547Y-72687642D01*
X114137928Y-72735261D01*
X114042690Y-72782880D01*
X113804595Y-72782880D01*
X113709357Y-72735261D01*
X113661738Y-72687642D01*
X149463214Y-90146166D02*
X149939404Y-90146166D01*
X149367976Y-90431880D02*
X149701309Y-89431880D01*
X150034642Y-90431880D01*
X150320357Y-89527119D02*
X150367976Y-89479500D01*
X150463214Y-89431880D01*
X150701309Y-89431880D01*
X150796547Y-89479500D01*
X150844166Y-89527119D01*
X150891785Y-89622357D01*
X150891785Y-89717595D01*
X150844166Y-89860452D01*
X150272738Y-90431880D01*
X150891785Y-90431880D01*
D16*
X147312500Y-93241880D02*
X147979166Y-93241880D01*
X147312500Y-94241880D01*
X147979166Y-94241880D01*
X148550595Y-93241880D02*
X148741071Y-93241880D01*
X148836309Y-93289500D01*
X148931547Y-93384738D01*
X148979166Y-93575214D01*
X148979166Y-93908547D01*
X148931547Y-94099023D01*
X148836309Y-94194261D01*
X148741071Y-94241880D01*
X148550595Y-94241880D01*
X148455357Y-94194261D01*
X148360119Y-94099023D01*
X148312500Y-93908547D01*
X148312500Y-93575214D01*
X148360119Y-93384738D01*
X148455357Y-93289500D01*
X148550595Y-93241880D01*
X149407738Y-93718071D02*
X149741071Y-93718071D01*
X149883928Y-94241880D02*
X149407738Y-94241880D01*
X149407738Y-93241880D01*
X149883928Y-93241880D01*
X150312500Y-93860928D02*
X151074404Y-93860928D01*
X151550595Y-94241880D02*
X151550595Y-93241880D01*
X151883928Y-93956166D01*
X152217261Y-93241880D01*
X152217261Y-94241880D01*
X152836309Y-93670452D02*
X152741071Y-93622833D01*
X152693452Y-93575214D01*
X152645833Y-93479976D01*
X152645833Y-93432357D01*
X152693452Y-93337119D01*
X152741071Y-93289500D01*
X152836309Y-93241880D01*
X153026785Y-93241880D01*
X153122023Y-93289500D01*
X153169642Y-93337119D01*
X153217261Y-93432357D01*
X153217261Y-93479976D01*
X153169642Y-93575214D01*
X153122023Y-93622833D01*
X153026785Y-93670452D01*
X152836309Y-93670452D01*
X152741071Y-93718071D01*
X152693452Y-93765690D01*
X152645833Y-93860928D01*
X152645833Y-94051404D01*
X152693452Y-94146642D01*
X152741071Y-94194261D01*
X152836309Y-94241880D01*
X153026785Y-94241880D01*
X153122023Y-94194261D01*
X153169642Y-94146642D01*
X153217261Y-94051404D01*
X153217261Y-93860928D01*
X153169642Y-93765690D01*
X153122023Y-93718071D01*
X153026785Y-93670452D01*
X154312500Y-94337119D02*
X154217261Y-94289500D01*
X154122023Y-94194261D01*
X153979166Y-94051404D01*
X153883928Y-94003785D01*
X153788690Y-94003785D01*
X153836309Y-94241880D02*
X153741071Y-94194261D01*
X153645833Y-94099023D01*
X153598214Y-93908547D01*
X153598214Y-93575214D01*
X153645833Y-93384738D01*
X153741071Y-93289500D01*
X153836309Y-93241880D01*
X154026785Y-93241880D01*
X154122023Y-93289500D01*
X154217261Y-93384738D01*
X154264880Y-93575214D01*
X154264880Y-93908547D01*
X154217261Y-94099023D01*
X154122023Y-94194261D01*
X154026785Y-94241880D01*
X153836309Y-94241880D01*
D17*
X146125595Y-92721880D02*
X146173214Y-92745690D01*
X146268452Y-92745690D01*
X146316071Y-92721880D01*
X146339880Y-92674261D01*
X146339880Y-92650452D01*
X146316071Y-92602833D01*
X146268452Y-92579023D01*
X146197023Y-92579023D01*
X146149404Y-92555214D01*
X146125595Y-92507595D01*
X146125595Y-92483785D01*
X146149404Y-92436166D01*
X146197023Y-92412357D01*
X146268452Y-92412357D01*
X146316071Y-92436166D01*
X146554166Y-92412357D02*
X146554166Y-92912357D01*
X146554166Y-92436166D02*
X146601785Y-92412357D01*
X146697023Y-92412357D01*
X146744642Y-92436166D01*
X146768452Y-92459976D01*
X146792261Y-92507595D01*
X146792261Y-92650452D01*
X146768452Y-92698071D01*
X146744642Y-92721880D01*
X146697023Y-92745690D01*
X146601785Y-92745690D01*
X146554166Y-92721880D01*
X147220833Y-92745690D02*
X147220833Y-92483785D01*
X147197023Y-92436166D01*
X147149404Y-92412357D01*
X147054166Y-92412357D01*
X147006547Y-92436166D01*
X147220833Y-92721880D02*
X147173214Y-92745690D01*
X147054166Y-92745690D01*
X147006547Y-92721880D01*
X146982738Y-92674261D01*
X146982738Y-92626642D01*
X147006547Y-92579023D01*
X147054166Y-92555214D01*
X147173214Y-92555214D01*
X147220833Y-92531404D01*
X147458928Y-92745690D02*
X147458928Y-92412357D01*
X147458928Y-92507595D02*
X147482738Y-92459976D01*
X147506547Y-92436166D01*
X147554166Y-92412357D01*
X147601785Y-92412357D01*
X147768452Y-92745690D02*
X147768452Y-92245690D01*
X147816071Y-92555214D02*
X147958928Y-92745690D01*
X147958928Y-92412357D02*
X147768452Y-92602833D01*
X148101785Y-92412357D02*
X148292261Y-92412357D01*
X148173214Y-92745690D02*
X148173214Y-92317119D01*
X148197023Y-92269500D01*
X148244642Y-92245690D01*
X148292261Y-92245690D01*
X148673214Y-92412357D02*
X148673214Y-92745690D01*
X148458928Y-92412357D02*
X148458928Y-92674261D01*
X148482738Y-92721880D01*
X148530357Y-92745690D01*
X148601785Y-92745690D01*
X148649404Y-92721880D01*
X148673214Y-92698071D01*
X148911309Y-92412357D02*
X148911309Y-92745690D01*
X148911309Y-92459976D02*
X148935119Y-92436166D01*
X148982738Y-92412357D01*
X149054166Y-92412357D01*
X149101785Y-92436166D01*
X149125595Y-92483785D01*
X149125595Y-92745690D01*
D15*
X117058166Y-61705880D02*
X117058166Y-62420166D01*
X117010547Y-62563023D01*
X116915309Y-62658261D01*
X116772452Y-62705880D01*
X116677214Y-62705880D01*
X118058166Y-62705880D02*
X117486738Y-62705880D01*
X117772452Y-62705880D02*
X117772452Y-61705880D01*
X117677214Y-61848738D01*
X117581976Y-61943976D01*
X117486738Y-61991595D01*
X115015571Y-66083642D02*
X116158428Y-66083642D01*
X115587000Y-66655071D02*
X115587000Y-65512214D01*
X128015571Y-66083642D02*
X129158428Y-66083642D01*
X126293166Y-69970880D02*
X126293166Y-70685166D01*
X126245547Y-70828023D01*
X126150309Y-70923261D01*
X126007452Y-70970880D01*
X125912214Y-70970880D01*
X126721738Y-70066119D02*
X126769357Y-70018500D01*
X126864595Y-69970880D01*
X127102690Y-69970880D01*
X127197928Y-70018500D01*
X127245547Y-70066119D01*
X127293166Y-70161357D01*
X127293166Y-70256595D01*
X127245547Y-70399452D01*
X126674119Y-70970880D01*
X127293166Y-70970880D01*
X114825071Y-74465642D02*
X115967928Y-74465642D01*
X127825071Y-74465642D02*
X128967928Y-74465642D01*
X128396500Y-75037071D02*
X128396500Y-73894214D01*
X134311738Y-88464214D02*
X134311738Y-89130880D01*
X134073642Y-88083261D02*
X133835547Y-88797547D01*
X134454595Y-88797547D01*
X134835547Y-89035642D02*
X134883166Y-89083261D01*
X134835547Y-89130880D01*
X134787928Y-89083261D01*
X134835547Y-89035642D01*
X134835547Y-89130880D01*
X135216500Y-88130880D02*
X135883166Y-88130880D01*
X135454595Y-89130880D01*
X136264119Y-89130880D02*
X136264119Y-88130880D01*
X136359357Y-88749928D02*
X136645071Y-89130880D01*
X136645071Y-88464214D02*
X136264119Y-88845166D01*
X137597452Y-89130880D02*
X137026023Y-89130880D01*
X137311738Y-89130880D02*
X137311738Y-88130880D01*
X137216500Y-88273738D01*
X137121261Y-88368976D01*
X137026023Y-88416595D01*
X134161738Y-85964214D02*
X134161738Y-86630880D01*
X133923642Y-85583261D02*
X133685547Y-86297547D01*
X134304595Y-86297547D01*
X134685547Y-86535642D02*
X134733166Y-86583261D01*
X134685547Y-86630880D01*
X134637928Y-86583261D01*
X134685547Y-86535642D01*
X134685547Y-86630880D01*
X135066500Y-85630880D02*
X135733166Y-85630880D01*
X135304595Y-86630880D01*
X136114119Y-86630880D02*
X136114119Y-85630880D01*
X136209357Y-86249928D02*
X136495071Y-86630880D01*
X136495071Y-85964214D02*
X136114119Y-86345166D01*
X136876023Y-85726119D02*
X136923642Y-85678500D01*
X137018880Y-85630880D01*
X137256976Y-85630880D01*
X137352214Y-85678500D01*
X137399833Y-85726119D01*
X137447452Y-85821357D01*
X137447452Y-85916595D01*
X137399833Y-86059452D01*
X136828404Y-86630880D01*
X137447452Y-86630880D01*
X169902214Y-82783261D02*
X170568880Y-82783261D01*
X169521261Y-83021357D02*
X170235547Y-83259452D01*
X170235547Y-82640404D01*
X170473642Y-82259452D02*
X170521261Y-82211833D01*
X170568880Y-82259452D01*
X170521261Y-82307071D01*
X170473642Y-82259452D01*
X170568880Y-82259452D01*
X169568880Y-81878500D02*
X169568880Y-81211833D01*
X170568880Y-81640404D01*
X170568880Y-80830880D02*
X169568880Y-80830880D01*
X170187928Y-80735642D02*
X170568880Y-80449928D01*
X169902214Y-80449928D02*
X170283166Y-80830880D01*
X169568880Y-80116595D02*
X169568880Y-79497547D01*
X169949833Y-79830880D01*
X169949833Y-79688023D01*
X169997452Y-79592785D01*
X170045071Y-79545166D01*
X170140309Y-79497547D01*
X170378404Y-79497547D01*
X170473642Y-79545166D01*
X170521261Y-79592785D01*
X170568880Y-79688023D01*
X170568880Y-79973738D01*
X170521261Y-80068976D01*
X170473642Y-80116595D01*
X193802095Y-78148380D02*
X193802095Y-78957904D01*
X193849714Y-79053142D01*
X193897333Y-79100761D01*
X193992571Y-79148380D01*
X194183047Y-79148380D01*
X194278285Y-79100761D01*
X194325904Y-79053142D01*
X194373523Y-78957904D01*
X194373523Y-78148380D01*
X195278285Y-78481714D02*
X195278285Y-79148380D01*
X195040190Y-78100761D02*
X194802095Y-78815047D01*
X195421142Y-78815047D01*
X164211095Y-83164880D02*
X164211095Y-83974404D01*
X164258714Y-84069642D01*
X164306333Y-84117261D01*
X164401571Y-84164880D01*
X164592047Y-84164880D01*
X164687285Y-84117261D01*
X164734904Y-84069642D01*
X164782523Y-83974404D01*
X164782523Y-83164880D01*
X165734904Y-83164880D02*
X165258714Y-83164880D01*
X165211095Y-83641071D01*
X165258714Y-83593452D01*
X165353952Y-83545833D01*
X165592047Y-83545833D01*
X165687285Y-83593452D01*
X165734904Y-83641071D01*
X165782523Y-83736309D01*
X165782523Y-83974404D01*
X165734904Y-84069642D01*
X165687285Y-84117261D01*
X165592047Y-84164880D01*
X165353952Y-84164880D01*
X165258714Y-84117261D01*
X165211095Y-84069642D01*
X159613880Y-108140404D02*
X160423404Y-108140404D01*
X160518642Y-108092785D01*
X160566261Y-108045166D01*
X160613880Y-107949928D01*
X160613880Y-107759452D01*
X160566261Y-107664214D01*
X160518642Y-107616595D01*
X160423404Y-107568976D01*
X159613880Y-107568976D01*
X159613880Y-106664214D02*
X159613880Y-106854690D01*
X159661500Y-106949928D01*
X159709119Y-106997547D01*
X159851976Y-107092785D01*
X160042452Y-107140404D01*
X160423404Y-107140404D01*
X160518642Y-107092785D01*
X160566261Y-107045166D01*
X160613880Y-106949928D01*
X160613880Y-106759452D01*
X160566261Y-106664214D01*
X160518642Y-106616595D01*
X160423404Y-106568976D01*
X160185309Y-106568976D01*
X160090071Y-106616595D01*
X160042452Y-106664214D01*
X159994833Y-106759452D01*
X159994833Y-106949928D01*
X160042452Y-107045166D01*
X160090071Y-107092785D01*
X160185309Y-107140404D01*
X133879595Y-79807880D02*
X134451023Y-79807880D01*
X134165309Y-80807880D02*
X134165309Y-79807880D01*
X134784357Y-80807880D02*
X134784357Y-79807880D01*
X135165309Y-79807880D01*
X135260547Y-79855500D01*
X135308166Y-79903119D01*
X135355785Y-79998357D01*
X135355785Y-80141214D01*
X135308166Y-80236452D01*
X135260547Y-80284071D01*
X135165309Y-80331690D01*
X134784357Y-80331690D01*
X135927214Y-80236452D02*
X135831976Y-80188833D01*
X135784357Y-80141214D01*
X135736738Y-80045976D01*
X135736738Y-79998357D01*
X135784357Y-79903119D01*
X135831976Y-79855500D01*
X135927214Y-79807880D01*
X136117690Y-79807880D01*
X136212928Y-79855500D01*
X136260547Y-79903119D01*
X136308166Y-79998357D01*
X136308166Y-80045976D01*
X136260547Y-80141214D01*
X136212928Y-80188833D01*
X136117690Y-80236452D01*
X135927214Y-80236452D01*
X135831976Y-80284071D01*
X135784357Y-80331690D01*
X135736738Y-80426928D01*
X135736738Y-80617404D01*
X135784357Y-80712642D01*
X135831976Y-80760261D01*
X135927214Y-80807880D01*
X136117690Y-80807880D01*
X136212928Y-80760261D01*
X136260547Y-80712642D01*
X136308166Y-80617404D01*
X136308166Y-80426928D01*
X136260547Y-80331690D01*
X136212928Y-80284071D01*
X136117690Y-80236452D01*
X168604595Y-86360880D02*
X169176023Y-86360880D01*
X168890309Y-87360880D02*
X168890309Y-86360880D01*
X169509357Y-87360880D02*
X169509357Y-86360880D01*
X169890309Y-86360880D01*
X169985547Y-86408500D01*
X170033166Y-86456119D01*
X170080785Y-86551357D01*
X170080785Y-86694214D01*
X170033166Y-86789452D01*
X169985547Y-86837071D01*
X169890309Y-86884690D01*
X169509357Y-86884690D01*
X170414119Y-86360880D02*
X171033166Y-86360880D01*
X170699833Y-86741833D01*
X170842690Y-86741833D01*
X170937928Y-86789452D01*
X170985547Y-86837071D01*
X171033166Y-86932309D01*
X171033166Y-87170404D01*
X170985547Y-87265642D01*
X170937928Y-87313261D01*
X170842690Y-87360880D01*
X170556976Y-87360880D01*
X170461738Y-87313261D01*
X170414119Y-87265642D01*
X135449833Y-95230880D02*
X135116500Y-94754690D01*
X134878404Y-95230880D02*
X134878404Y-94230880D01*
X135259357Y-94230880D01*
X135354595Y-94278500D01*
X135402214Y-94326119D01*
X135449833Y-94421357D01*
X135449833Y-94564214D01*
X135402214Y-94659452D01*
X135354595Y-94707071D01*
X135259357Y-94754690D01*
X134878404Y-94754690D01*
X136402214Y-95230880D02*
X135830785Y-95230880D01*
X136116500Y-95230880D02*
X136116500Y-94230880D01*
X136021261Y-94373738D01*
X135926023Y-94468976D01*
X135830785Y-94516595D01*
X135349833Y-92630880D02*
X135016500Y-92154690D01*
X134778404Y-92630880D02*
X134778404Y-91630880D01*
X135159357Y-91630880D01*
X135254595Y-91678500D01*
X135302214Y-91726119D01*
X135349833Y-91821357D01*
X135349833Y-91964214D01*
X135302214Y-92059452D01*
X135254595Y-92107071D01*
X135159357Y-92154690D01*
X134778404Y-92154690D01*
X135730785Y-91726119D02*
X135778404Y-91678500D01*
X135873642Y-91630880D01*
X136111738Y-91630880D01*
X136206976Y-91678500D01*
X136254595Y-91726119D01*
X136302214Y-91821357D01*
X136302214Y-91916595D01*
X136254595Y-92059452D01*
X135683166Y-92630880D01*
X136302214Y-92630880D01*
%LPC*%
D18*
X172593000Y-77914500D03*
X175133000Y-77914500D03*
X177673000Y-77914500D03*
X180213000Y-77914500D03*
X170053000Y-77914500D03*
X167513000Y-77914500D03*
X164973000Y-77914500D03*
X182753000Y-77914500D03*
X185293000Y-77914500D03*
X187833000Y-77914500D03*
X190373000Y-77914500D03*
X190373000Y-62674500D03*
X187833000Y-62674500D03*
X185293000Y-62674500D03*
X182753000Y-62674500D03*
X180213000Y-62674500D03*
X177673000Y-62674500D03*
X175133000Y-62674500D03*
X172593000Y-62674500D03*
X170053000Y-62674500D03*
X167513000Y-62674500D03*
X162433000Y-77914500D03*
X159893000Y-77914500D03*
X157353000Y-77914500D03*
X154813000Y-77914500D03*
X152273000Y-77914500D03*
X149733000Y-77914500D03*
X147193000Y-77914500D03*
X144653000Y-77914500D03*
X142113000Y-77914500D03*
X139573000Y-77914500D03*
X137033000Y-77914500D03*
X134493000Y-77914500D03*
D19*
X131953000Y-77914500D03*
D18*
X164973000Y-62674500D03*
X162433000Y-62674500D03*
X159893000Y-62674500D03*
X157353000Y-62674500D03*
X154813000Y-62674500D03*
X152273000Y-62674500D03*
X149733000Y-62674500D03*
X147193000Y-62674500D03*
X144653000Y-62674500D03*
X142113000Y-62674500D03*
X139573000Y-62674500D03*
X137033000Y-62674500D03*
X134493000Y-62674500D03*
X131953000Y-62674500D03*
D20*
X172641500Y-82103500D03*
X172641500Y-80603500D03*
D21*
X168387500Y-101203000D03*
X168387500Y-95203000D03*
X168387500Y-99203000D03*
X168387500Y-93203000D03*
X168387500Y-107203000D03*
X168387500Y-105203000D03*
X168387500Y-109203000D03*
X168387500Y-103203000D03*
X168387500Y-91203000D03*
X168387500Y-97203000D03*
X190387500Y-93203000D03*
X190387500Y-91203000D03*
X190387500Y-95203000D03*
X190387500Y-101203000D03*
X190387500Y-99203000D03*
X190387500Y-105203000D03*
X190387500Y-103203000D03*
X190387500Y-107203000D03*
X190387500Y-109203000D03*
D22*
X134326800Y-104740400D03*
D23*
X117666800Y-102200400D03*
D24*
X117666800Y-104740400D03*
X117666800Y-107280400D03*
D25*
X128066800Y-104800400D03*
D26*
X188991500Y-86703500D03*
X113157000Y-89535000D03*
D27*
X117606000Y-95627000D03*
D28*
X121666000Y-96647000D03*
X124206000Y-96647000D03*
X131836000Y-96657000D03*
X129286000Y-96647000D03*
X126746000Y-96647000D03*
D27*
X130806000Y-82427000D03*
D26*
X113474500Y-103378000D03*
X135616500Y-97628500D03*
X113066500Y-74328500D03*
D29*
X160337500Y-82359500D03*
X140017500Y-82359500D03*
D28*
X145097500Y-81089500D03*
X147637500Y-81089500D03*
X150177500Y-81089500D03*
X152717500Y-81089500D03*
X147637500Y-103949500D03*
X145097500Y-103949500D03*
X140017500Y-103949500D03*
X142557500Y-103949500D03*
X157797500Y-103949500D03*
X150177500Y-103949500D03*
X152717500Y-103949500D03*
X155257500Y-103949500D03*
D30*
X124587000Y-65976500D03*
D31*
X119587000Y-65976500D03*
X124396500Y-74358500D03*
D30*
X119396500Y-74358500D03*
D32*
X136291500Y-88678500D03*
X134791500Y-88678500D03*
X134791500Y-86128500D03*
X136291500Y-86128500D03*
D20*
X170041500Y-80603500D03*
X170041500Y-82103500D03*
D33*
X194564000Y-103886000D03*
X194564000Y-101346000D03*
X194564000Y-98806000D03*
X194564000Y-96266000D03*
X194564000Y-93726000D03*
X194564000Y-91186000D03*
X194564000Y-88646000D03*
X194564000Y-86106000D03*
X194564000Y-83566000D03*
D34*
X194564000Y-81026000D03*
X164973000Y-86042500D03*
D33*
X164973000Y-88582500D03*
X164973000Y-91122500D03*
X164973000Y-93662500D03*
X164973000Y-96202500D03*
X164973000Y-98742500D03*
X164973000Y-101282500D03*
X164973000Y-103822500D03*
X164973000Y-106362500D03*
X164973000Y-108902500D03*
D34*
X157831500Y-107378500D03*
D33*
X155291500Y-107378500D03*
X152751500Y-107378500D03*
X150211500Y-107378500D03*
X147671500Y-107378500D03*
X145131500Y-107378500D03*
X142591500Y-107378500D03*
X140051500Y-107378500D03*
D26*
X135141500Y-82353500D03*
X172641500Y-86678500D03*
D32*
X134716500Y-94728500D03*
X136216500Y-94728500D03*
X136266500Y-92178500D03*
X134766500Y-92178500D03*
M02*
