%TF.GenerationSoftware,KiCad,Pcbnew,(5.1.9)-1*%
%TF.CreationDate,2021-12-11T14:55:59-08:00*%
%TF.ProjectId,GPS_Board,4750535f-426f-4617-9264-2e6b69636164,rev?*%
%TF.SameCoordinates,Original*%
%TF.FileFunction,Legend,Top*%
%TF.FilePolarity,Positive*%
%FSLAX46Y46*%
G04 Gerber Fmt 4.6, Leading zero omitted, Abs format (unit mm)*
G04 Created by KiCad (PCBNEW (5.1.9)-1) date 2021-12-11 14:55:59*
%MOMM*%
%LPD*%
G01*
G04 APERTURE LIST*
%ADD10C,0.300000*%
%ADD11C,0.120000*%
%ADD12C,0.100000*%
%ADD13C,0.150000*%
%ADD14C,0.125000*%
%ADD15C,0.250000*%
%ADD16C,1.524000*%
%ADD17C,3.048000*%
%ADD18C,1.700000*%
%ADD19C,1.300000*%
%ADD20C,1.600000*%
%ADD21R,1.300000X1.300000*%
%ADD22R,1.600000X1.600000*%
%ADD23C,1.000000*%
%ADD24C,1.500000*%
%ADD25C,3.800000*%
%ADD26R,3.800000X3.800000*%
G04 APERTURE END LIST*
D10*
X175502571Y-90872571D02*
X176502571Y-92372571D01*
X176502571Y-90872571D02*
X175502571Y-92372571D01*
X177574000Y-91586857D02*
X177788285Y-91658285D01*
X177859714Y-91729714D01*
X177931142Y-91872571D01*
X177931142Y-92086857D01*
X177859714Y-92229714D01*
X177788285Y-92301142D01*
X177645428Y-92372571D01*
X177074000Y-92372571D01*
X177074000Y-90872571D01*
X177574000Y-90872571D01*
X177716857Y-90944000D01*
X177788285Y-91015428D01*
X177859714Y-91158285D01*
X177859714Y-91301142D01*
X177788285Y-91444000D01*
X177716857Y-91515428D01*
X177574000Y-91586857D01*
X177074000Y-91586857D01*
X179145428Y-92301142D02*
X179002571Y-92372571D01*
X178716857Y-92372571D01*
X178574000Y-92301142D01*
X178502571Y-92158285D01*
X178502571Y-91586857D01*
X178574000Y-91444000D01*
X178716857Y-91372571D01*
X179002571Y-91372571D01*
X179145428Y-91444000D01*
X179216857Y-91586857D01*
X179216857Y-91729714D01*
X178502571Y-91872571D01*
X180431142Y-92301142D02*
X180288285Y-92372571D01*
X180002571Y-92372571D01*
X179859714Y-92301142D01*
X179788285Y-92158285D01*
X179788285Y-91586857D01*
X179859714Y-91444000D01*
X180002571Y-91372571D01*
X180288285Y-91372571D01*
X180431142Y-91444000D01*
X180502571Y-91586857D01*
X180502571Y-91729714D01*
X179788285Y-91872571D01*
X182145428Y-90872571D02*
X183074000Y-90872571D01*
X182574000Y-91444000D01*
X182788285Y-91444000D01*
X182931142Y-91515428D01*
X183002571Y-91586857D01*
X183074000Y-91729714D01*
X183074000Y-92086857D01*
X183002571Y-92229714D01*
X182931142Y-92301142D01*
X182788285Y-92372571D01*
X182359714Y-92372571D01*
X182216857Y-92301142D01*
X182145428Y-92229714D01*
X124035428Y-94805714D02*
X125535428Y-94805714D01*
X124035428Y-95662857D02*
X124892571Y-95020000D01*
X125535428Y-95662857D02*
X124678285Y-94805714D01*
X124821142Y-96305714D02*
X124821142Y-96805714D01*
X124035428Y-97020000D02*
X124035428Y-96305714D01*
X125535428Y-96305714D01*
X125535428Y-97020000D01*
X124749714Y-97948571D02*
X124035428Y-97948571D01*
X125535428Y-97448571D02*
X124749714Y-97948571D01*
X125535428Y-98448571D01*
D11*
%TO.C,A2*%
X160528000Y-110236000D02*
X160528000Y-84836000D01*
X135128000Y-110236000D02*
X160528000Y-110236000D01*
X135128000Y-84836000D02*
X135128000Y-110236000D01*
X147828000Y-84836000D02*
X135128000Y-84836000D01*
X160528000Y-84836000D02*
X147828000Y-84836000D01*
D12*
G36*
X149669200Y-101193500D02*
G01*
X149747400Y-101345300D01*
X149440000Y-101722300D01*
X149698500Y-101980800D01*
X150075500Y-101673400D01*
X150390000Y-101803700D01*
X150439200Y-102287600D01*
X150804800Y-102287600D01*
X150854000Y-101803700D01*
X151168500Y-101673400D01*
X151545500Y-101980800D01*
X151804000Y-101722300D01*
X151496600Y-101345300D01*
X151574817Y-101193464D01*
X151626900Y-101030800D01*
X152110800Y-100981600D01*
X152110800Y-100616000D01*
X151626900Y-100566800D01*
X151496600Y-100252300D01*
X151804000Y-99875300D01*
X151545500Y-99616800D01*
X151168500Y-99924200D01*
X150854000Y-99793900D01*
X150804800Y-99310000D01*
X150439200Y-99310000D01*
X150390000Y-99793900D01*
X150075500Y-99924200D01*
X149698500Y-99616800D01*
X149440000Y-99875300D01*
X149747400Y-100252300D01*
X149705153Y-100326579D01*
X149669200Y-100404100D01*
X150188900Y-100619400D01*
X150188900Y-100619401D01*
X150290507Y-100467300D01*
X150622000Y-100330000D01*
X150764321Y-100352161D01*
X150893193Y-100416491D01*
X150996447Y-100516915D01*
X151064333Y-100643951D01*
X151090439Y-100785601D01*
X151072302Y-100928491D01*
X151011633Y-101059126D01*
X150914161Y-101165172D01*
X150789091Y-101236614D01*
X150648234Y-101266706D01*
X150504889Y-101252606D01*
X150372594Y-101195646D01*
X150263841Y-101101205D01*
X150188900Y-100978200D01*
X149669200Y-101193500D01*
G37*
%TO.C,A1*%
X191547000Y-110268000D02*
X191047000Y-110268000D01*
X191547000Y-110268000D02*
X191547000Y-109768000D01*
X166847000Y-110268000D02*
X167347000Y-110268000D01*
X166847000Y-110268000D02*
X166847000Y-109768000D01*
X166797000Y-90068000D02*
X166797000Y-90568000D01*
X166797000Y-90068000D02*
X167197000Y-89668000D01*
X191597000Y-90068000D02*
X191197000Y-89668000D01*
X191597000Y-90068000D02*
X191597000Y-90568000D01*
X174397000Y-82468000D02*
X173997000Y-82868000D01*
X174397000Y-82468000D02*
X174897000Y-82468000D01*
X183997000Y-82468000D02*
X183497000Y-82468000D01*
X183997000Y-82468000D02*
X184397000Y-82868000D01*
X166797000Y-99568000D02*
X166797000Y-103368000D01*
X191597000Y-99568000D02*
X191597000Y-103368000D01*
D13*
%TO.C,U1*%
X174253026Y-69977000D02*
G75*
G03*
X174253026Y-69977000I-898026J0D01*
G01*
X153670000Y-63627000D02*
X153670000Y-76327000D01*
X166370000Y-63627000D02*
X153670000Y-63627000D01*
X166370000Y-76327000D02*
X166370000Y-63627000D01*
X153670000Y-76327000D02*
X166370000Y-76327000D01*
X144040000Y-63625400D02*
X144040000Y-63875400D01*
X148040000Y-63625400D02*
X144040000Y-63625400D01*
X148040000Y-69875400D02*
X148040000Y-63625400D01*
X144040000Y-69875400D02*
X148040000Y-69875400D01*
X144040000Y-63875400D02*
X144040000Y-69875400D01*
X139649200Y-73276200D02*
X139649200Y-75816200D01*
X137109200Y-73276200D02*
X139649200Y-73276200D01*
X137109200Y-75816200D02*
X137109200Y-73276200D01*
X149809200Y-75816200D02*
X137109200Y-75816200D01*
X149809200Y-73276200D02*
X149809200Y-75816200D01*
X137109200Y-73276200D02*
X149809200Y-73276200D01*
X171450000Y-68707000D02*
X175260000Y-68707000D01*
X171450000Y-71247000D02*
X171450000Y-68707000D01*
X175260000Y-71247000D02*
X171450000Y-71247000D01*
X175260000Y-68707000D02*
X175260000Y-71247000D01*
X190500000Y-75057000D02*
X191770000Y-75057000D01*
X190500000Y-64897000D02*
X190500000Y-75057000D01*
X191770000Y-64897000D02*
X190500000Y-64897000D01*
X179070000Y-76327000D02*
X191770000Y-76327000D01*
X179070000Y-63627000D02*
X179070000Y-76327000D01*
X191770000Y-63627000D02*
X179070000Y-63627000D01*
X130810000Y-73787000D02*
X129540000Y-73787000D01*
X129540000Y-73787000D02*
X129540000Y-66167000D01*
X129540000Y-66167000D02*
X130810000Y-66167000D01*
X135890000Y-73787000D02*
X135890000Y-66167000D01*
X135890000Y-66167000D02*
X130810000Y-66167000D01*
X135890000Y-73787000D02*
X130810000Y-73787000D01*
X130810000Y-61087000D02*
X191770000Y-61087000D01*
X191770000Y-61087000D02*
X191770000Y-78867000D01*
X191770000Y-78867000D02*
X130810000Y-78867000D01*
X130810000Y-78867000D02*
X130810000Y-61087000D01*
D12*
G36*
X163725000Y-70432000D02*
G01*
X163471000Y-70686000D01*
X163217000Y-70305000D01*
X163471000Y-70051000D01*
X163725000Y-70432000D01*
G37*
X163725000Y-70432000D02*
X163471000Y-70686000D01*
X163217000Y-70305000D01*
X163471000Y-70051000D01*
X163725000Y-70432000D01*
G36*
X163344000Y-69924000D02*
G01*
X163090000Y-70178000D01*
X162836000Y-69797000D01*
X163090000Y-69543000D01*
X163344000Y-69924000D01*
G37*
X163344000Y-69924000D02*
X163090000Y-70178000D01*
X162836000Y-69797000D01*
X163090000Y-69543000D01*
X163344000Y-69924000D01*
G36*
X162963000Y-69416000D02*
G01*
X162709000Y-69670000D01*
X162455000Y-69289000D01*
X162709000Y-69035000D01*
X162963000Y-69416000D01*
G37*
X162963000Y-69416000D02*
X162709000Y-69670000D01*
X162455000Y-69289000D01*
X162709000Y-69035000D01*
X162963000Y-69416000D01*
G36*
X162963000Y-70305000D02*
G01*
X162709000Y-70559000D01*
X162455000Y-70178000D01*
X162709000Y-69924000D01*
X162963000Y-70305000D01*
G37*
X162963000Y-70305000D02*
X162709000Y-70559000D01*
X162455000Y-70178000D01*
X162709000Y-69924000D01*
X162963000Y-70305000D01*
G36*
X162582000Y-69797000D02*
G01*
X162328000Y-70051000D01*
X162074000Y-69670000D01*
X162328000Y-69416000D01*
X162582000Y-69797000D01*
G37*
X162582000Y-69797000D02*
X162328000Y-70051000D01*
X162074000Y-69670000D01*
X162328000Y-69416000D01*
X162582000Y-69797000D01*
G36*
X162201000Y-69289000D02*
G01*
X161947000Y-69543000D01*
X161693000Y-69162000D01*
X161947000Y-68908000D01*
X162201000Y-69289000D01*
G37*
X162201000Y-69289000D02*
X161947000Y-69543000D01*
X161693000Y-69162000D01*
X161947000Y-68908000D01*
X162201000Y-69289000D01*
G36*
X164106000Y-70051000D02*
G01*
X163852000Y-70305000D01*
X163598000Y-69924000D01*
X163852000Y-69670000D01*
X164106000Y-70051000D01*
G37*
X164106000Y-70051000D02*
X163852000Y-70305000D01*
X163598000Y-69924000D01*
X163852000Y-69670000D01*
X164106000Y-70051000D01*
G36*
X164487000Y-69670000D02*
G01*
X164233000Y-69924000D01*
X163979000Y-69543000D01*
X164233000Y-69289000D01*
X164487000Y-69670000D01*
G37*
X164487000Y-69670000D02*
X164233000Y-69924000D01*
X163979000Y-69543000D01*
X164233000Y-69289000D01*
X164487000Y-69670000D01*
D11*
%TO.C,TP5*%
X193994000Y-92583000D02*
G75*
G03*
X193994000Y-92583000I-700000J0D01*
G01*
%TO.C,TP4*%
X135062000Y-92456000D02*
G75*
G03*
X135062000Y-92456000I-950000J0D01*
G01*
%TO.C,TP3*%
X135062000Y-89916000D02*
G75*
G03*
X135062000Y-89916000I-950000J0D01*
G01*
%TO.C,TP2*%
X187386000Y-68707000D02*
G75*
G03*
X187386000Y-68707000I-950000J0D01*
G01*
%TO.C,TP1*%
X187386000Y-73787000D02*
G75*
G03*
X187386000Y-73787000I-950000J0D01*
G01*
%TO.C,J2*%
X130569000Y-91270000D02*
X127749000Y-91270000D01*
X127749000Y-91270000D02*
X126449000Y-92970000D01*
X130569000Y-91270000D02*
X131869000Y-92970000D01*
X126449000Y-92970000D02*
X126449000Y-101690000D01*
X131869000Y-101690000D02*
X126449000Y-101690000D01*
X131869000Y-92970000D02*
X131869000Y-101690000D01*
%TO.C,J1*%
X118829000Y-105270000D02*
X118829000Y-108090000D01*
X118829000Y-108090000D02*
X120529000Y-109390000D01*
X118829000Y-105270000D02*
X120529000Y-103970000D01*
X120529000Y-109390000D02*
X129249000Y-109390000D01*
X129249000Y-103970000D02*
X129249000Y-109390000D01*
X120529000Y-103970000D02*
X129249000Y-103970000D01*
%TO.C,A3*%
X111891000Y-88388000D02*
X111891000Y-65888000D01*
X111891000Y-65888000D02*
X129391000Y-65888000D01*
X129391000Y-65888000D02*
X129391000Y-88388000D01*
X129391000Y-88388000D02*
X111891000Y-88388000D01*
%TO.C,A2*%
D13*
X150534666Y-98250285D02*
X150534666Y-97774095D01*
X150820380Y-98345523D02*
X149820380Y-98012190D01*
X150820380Y-97678857D01*
X149915619Y-97393142D02*
X149868000Y-97345523D01*
X149820380Y-97250285D01*
X149820380Y-97012190D01*
X149868000Y-96916952D01*
X149915619Y-96869333D01*
X150010857Y-96821714D01*
X150106095Y-96821714D01*
X150248952Y-96869333D01*
X150820380Y-97440761D01*
X150820380Y-96821714D01*
D14*
X148030380Y-96507904D02*
X148054190Y-96460285D01*
X148054190Y-96365047D01*
X148030380Y-96317428D01*
X147982761Y-96293619D01*
X147958952Y-96293619D01*
X147911333Y-96317428D01*
X147887523Y-96365047D01*
X147887523Y-96436476D01*
X147863714Y-96484095D01*
X147816095Y-96507904D01*
X147792285Y-96507904D01*
X147744666Y-96484095D01*
X147720857Y-96436476D01*
X147720857Y-96365047D01*
X147744666Y-96317428D01*
X147720857Y-96079333D02*
X148220857Y-96079333D01*
X147744666Y-96079333D02*
X147720857Y-96031714D01*
X147720857Y-95936476D01*
X147744666Y-95888857D01*
X147768476Y-95865047D01*
X147816095Y-95841238D01*
X147958952Y-95841238D01*
X148006571Y-95865047D01*
X148030380Y-95888857D01*
X148054190Y-95936476D01*
X148054190Y-96031714D01*
X148030380Y-96079333D01*
X148054190Y-95412666D02*
X147792285Y-95412666D01*
X147744666Y-95436476D01*
X147720857Y-95484095D01*
X147720857Y-95579333D01*
X147744666Y-95626952D01*
X148030380Y-95412666D02*
X148054190Y-95460285D01*
X148054190Y-95579333D01*
X148030380Y-95626952D01*
X147982761Y-95650761D01*
X147935142Y-95650761D01*
X147887523Y-95626952D01*
X147863714Y-95579333D01*
X147863714Y-95460285D01*
X147839904Y-95412666D01*
X148054190Y-95174571D02*
X147720857Y-95174571D01*
X147816095Y-95174571D02*
X147768476Y-95150761D01*
X147744666Y-95126952D01*
X147720857Y-95079333D01*
X147720857Y-95031714D01*
X148054190Y-94865047D02*
X147554190Y-94865047D01*
X147863714Y-94817428D02*
X148054190Y-94674571D01*
X147720857Y-94674571D02*
X147911333Y-94865047D01*
X147720857Y-94531714D02*
X147720857Y-94341238D01*
X148054190Y-94460285D02*
X147625619Y-94460285D01*
X147578000Y-94436476D01*
X147554190Y-94388857D01*
X147554190Y-94341238D01*
X147720857Y-93960285D02*
X148054190Y-93960285D01*
X147720857Y-94174571D02*
X147982761Y-94174571D01*
X148030380Y-94150761D01*
X148054190Y-94103142D01*
X148054190Y-94031714D01*
X148030380Y-93984095D01*
X148006571Y-93960285D01*
X147720857Y-93722190D02*
X148054190Y-93722190D01*
X147768476Y-93722190D02*
X147744666Y-93698380D01*
X147720857Y-93650761D01*
X147720857Y-93579333D01*
X147744666Y-93531714D01*
X147792285Y-93507904D01*
X148054190Y-93507904D01*
D15*
X146010380Y-101671000D02*
X146010380Y-101004333D01*
X147010380Y-101671000D01*
X147010380Y-101004333D01*
X146010380Y-100432904D02*
X146010380Y-100242428D01*
X146058000Y-100147190D01*
X146153238Y-100051952D01*
X146343714Y-100004333D01*
X146677047Y-100004333D01*
X146867523Y-100051952D01*
X146962761Y-100147190D01*
X147010380Y-100242428D01*
X147010380Y-100432904D01*
X146962761Y-100528142D01*
X146867523Y-100623380D01*
X146677047Y-100671000D01*
X146343714Y-100671000D01*
X146153238Y-100623380D01*
X146058000Y-100528142D01*
X146010380Y-100432904D01*
X146486571Y-99575761D02*
X146486571Y-99242428D01*
X147010380Y-99099571D02*
X147010380Y-99575761D01*
X146010380Y-99575761D01*
X146010380Y-99099571D01*
X146629428Y-98671000D02*
X146629428Y-97909095D01*
X147010380Y-97432904D02*
X146010380Y-97432904D01*
X146724666Y-97099571D01*
X146010380Y-96766238D01*
X147010380Y-96766238D01*
X146438952Y-96147190D02*
X146391333Y-96242428D01*
X146343714Y-96290047D01*
X146248476Y-96337666D01*
X146200857Y-96337666D01*
X146105619Y-96290047D01*
X146058000Y-96242428D01*
X146010380Y-96147190D01*
X146010380Y-95956714D01*
X146058000Y-95861476D01*
X146105619Y-95813857D01*
X146200857Y-95766238D01*
X146248476Y-95766238D01*
X146343714Y-95813857D01*
X146391333Y-95861476D01*
X146438952Y-95956714D01*
X146438952Y-96147190D01*
X146486571Y-96242428D01*
X146534190Y-96290047D01*
X146629428Y-96337666D01*
X146819904Y-96337666D01*
X146915142Y-96290047D01*
X146962761Y-96242428D01*
X147010380Y-96147190D01*
X147010380Y-95956714D01*
X146962761Y-95861476D01*
X146915142Y-95813857D01*
X146819904Y-95766238D01*
X146629428Y-95766238D01*
X146534190Y-95813857D01*
X146486571Y-95861476D01*
X146438952Y-95956714D01*
X147105619Y-94671000D02*
X147058000Y-94766238D01*
X146962761Y-94861476D01*
X146819904Y-95004333D01*
X146772285Y-95099571D01*
X146772285Y-95194809D01*
X147010380Y-95147190D02*
X146962761Y-95242428D01*
X146867523Y-95337666D01*
X146677047Y-95385285D01*
X146343714Y-95385285D01*
X146153238Y-95337666D01*
X146058000Y-95242428D01*
X146010380Y-95147190D01*
X146010380Y-94956714D01*
X146058000Y-94861476D01*
X146153238Y-94766238D01*
X146343714Y-94718619D01*
X146677047Y-94718619D01*
X146867523Y-94766238D01*
X146962761Y-94861476D01*
X147010380Y-94956714D01*
X147010380Y-95147190D01*
%TO.C,A1*%
D13*
X178482714Y-81244666D02*
X178958904Y-81244666D01*
X178387476Y-81530380D02*
X178720809Y-80530380D01*
X179054142Y-81530380D01*
X179911285Y-81530380D02*
X179339857Y-81530380D01*
X179625571Y-81530380D02*
X179625571Y-80530380D01*
X179530333Y-80673238D01*
X179435095Y-80768476D01*
X179339857Y-80816095D01*
%TO.C,U1*%
X160528095Y-59269380D02*
X160528095Y-60078904D01*
X160575714Y-60174142D01*
X160623333Y-60221761D01*
X160718571Y-60269380D01*
X160909047Y-60269380D01*
X161004285Y-60221761D01*
X161051904Y-60174142D01*
X161099523Y-60078904D01*
X161099523Y-59269380D01*
X162099523Y-60269380D02*
X161528095Y-60269380D01*
X161813809Y-60269380D02*
X161813809Y-59269380D01*
X161718571Y-59412238D01*
X161623333Y-59507476D01*
X161528095Y-59555095D01*
X139514676Y-71918580D02*
X139514676Y-72728104D01*
X139562295Y-72823342D01*
X139609914Y-72870961D01*
X139705152Y-72918580D01*
X139895628Y-72918580D01*
X139990866Y-72870961D01*
X140038485Y-72823342D01*
X140086104Y-72728104D01*
X140086104Y-71918580D01*
X140514676Y-72870961D02*
X140657533Y-72918580D01*
X140895628Y-72918580D01*
X140990866Y-72870961D01*
X141038485Y-72823342D01*
X141086104Y-72728104D01*
X141086104Y-72632866D01*
X141038485Y-72537628D01*
X140990866Y-72490009D01*
X140895628Y-72442390D01*
X140705152Y-72394771D01*
X140609914Y-72347152D01*
X140562295Y-72299533D01*
X140514676Y-72204295D01*
X140514676Y-72109057D01*
X140562295Y-72013819D01*
X140609914Y-71966200D01*
X140705152Y-71918580D01*
X140943247Y-71918580D01*
X141086104Y-71966200D01*
X141848009Y-72394771D02*
X141990866Y-72442390D01*
X142038485Y-72490009D01*
X142086104Y-72585247D01*
X142086104Y-72728104D01*
X142038485Y-72823342D01*
X141990866Y-72870961D01*
X141895628Y-72918580D01*
X141514676Y-72918580D01*
X141514676Y-71918580D01*
X141848009Y-71918580D01*
X141943247Y-71966200D01*
X141990866Y-72013819D01*
X142038485Y-72109057D01*
X142038485Y-72204295D01*
X141990866Y-72299533D01*
X141943247Y-72347152D01*
X141848009Y-72394771D01*
X141514676Y-72394771D01*
X143276580Y-72918580D02*
X143276580Y-71918580D01*
X143276580Y-72394771D02*
X143848009Y-72394771D01*
X143848009Y-72918580D02*
X143848009Y-71918580D01*
X144467057Y-72918580D02*
X144371819Y-72870961D01*
X144324200Y-72823342D01*
X144276580Y-72728104D01*
X144276580Y-72442390D01*
X144324200Y-72347152D01*
X144371819Y-72299533D01*
X144467057Y-72251914D01*
X144609914Y-72251914D01*
X144705152Y-72299533D01*
X144752771Y-72347152D01*
X144800390Y-72442390D01*
X144800390Y-72728104D01*
X144752771Y-72823342D01*
X144705152Y-72870961D01*
X144609914Y-72918580D01*
X144467057Y-72918580D01*
X145181342Y-72870961D02*
X145276580Y-72918580D01*
X145467057Y-72918580D01*
X145562295Y-72870961D01*
X145609914Y-72775723D01*
X145609914Y-72728104D01*
X145562295Y-72632866D01*
X145467057Y-72585247D01*
X145324200Y-72585247D01*
X145228961Y-72537628D01*
X145181342Y-72442390D01*
X145181342Y-72394771D01*
X145228961Y-72299533D01*
X145324200Y-72251914D01*
X145467057Y-72251914D01*
X145562295Y-72299533D01*
X145895628Y-72251914D02*
X146276580Y-72251914D01*
X146038485Y-71918580D02*
X146038485Y-72775723D01*
X146086104Y-72870961D01*
X146181342Y-72918580D01*
X146276580Y-72918580D01*
X149153571Y-69557542D02*
X149153571Y-69224209D01*
X149677380Y-69081352D02*
X149677380Y-69557542D01*
X148677380Y-69557542D01*
X148677380Y-69081352D01*
X149010714Y-68795638D02*
X149010714Y-68414685D01*
X148677380Y-68652780D02*
X149534523Y-68652780D01*
X149629761Y-68605161D01*
X149677380Y-68509923D01*
X149677380Y-68414685D01*
X149677380Y-68081352D02*
X148677380Y-68081352D01*
X149677380Y-67652780D02*
X149153571Y-67652780D01*
X149058333Y-67700400D01*
X149010714Y-67795638D01*
X149010714Y-67938495D01*
X149058333Y-68033733D01*
X149105952Y-68081352D01*
X149629761Y-66795638D02*
X149677380Y-66890876D01*
X149677380Y-67081352D01*
X149629761Y-67176590D01*
X149534523Y-67224209D01*
X149153571Y-67224209D01*
X149058333Y-67176590D01*
X149010714Y-67081352D01*
X149010714Y-66890876D01*
X149058333Y-66795638D01*
X149153571Y-66748019D01*
X149248809Y-66748019D01*
X149344047Y-67224209D01*
X149677380Y-66319447D02*
X149010714Y-66319447D01*
X149201190Y-66319447D02*
X149105952Y-66271828D01*
X149058333Y-66224209D01*
X149010714Y-66128971D01*
X149010714Y-66033733D01*
X149010714Y-65700400D02*
X149677380Y-65700400D01*
X149105952Y-65700400D02*
X149058333Y-65652780D01*
X149010714Y-65557542D01*
X149010714Y-65414685D01*
X149058333Y-65319447D01*
X149153571Y-65271828D01*
X149677380Y-65271828D01*
X149629761Y-64414685D02*
X149677380Y-64509923D01*
X149677380Y-64700400D01*
X149629761Y-64795638D01*
X149534523Y-64843257D01*
X149153571Y-64843257D01*
X149058333Y-64795638D01*
X149010714Y-64700400D01*
X149010714Y-64509923D01*
X149058333Y-64414685D01*
X149153571Y-64367066D01*
X149248809Y-64367066D01*
X149344047Y-64843257D01*
X149010714Y-64081352D02*
X149010714Y-63700400D01*
X148677380Y-63938495D02*
X149534523Y-63938495D01*
X149629761Y-63890876D01*
X149677380Y-63795638D01*
X149677380Y-63700400D01*
X134072380Y-71238904D02*
X134881904Y-71238904D01*
X134977142Y-71191285D01*
X135024761Y-71143666D01*
X135072380Y-71048428D01*
X135072380Y-70857952D01*
X135024761Y-70762714D01*
X134977142Y-70715095D01*
X134881904Y-70667476D01*
X134072380Y-70667476D01*
X135024761Y-70238904D02*
X135072380Y-70096047D01*
X135072380Y-69857952D01*
X135024761Y-69762714D01*
X134977142Y-69715095D01*
X134881904Y-69667476D01*
X134786666Y-69667476D01*
X134691428Y-69715095D01*
X134643809Y-69762714D01*
X134596190Y-69857952D01*
X134548571Y-70048428D01*
X134500952Y-70143666D01*
X134453333Y-70191285D01*
X134358095Y-70238904D01*
X134262857Y-70238904D01*
X134167619Y-70191285D01*
X134120000Y-70143666D01*
X134072380Y-70048428D01*
X134072380Y-69810333D01*
X134120000Y-69667476D01*
X134548571Y-68905571D02*
X134596190Y-68762714D01*
X134643809Y-68715095D01*
X134739047Y-68667476D01*
X134881904Y-68667476D01*
X134977142Y-68715095D01*
X135024761Y-68762714D01*
X135072380Y-68857952D01*
X135072380Y-69238904D01*
X134072380Y-69238904D01*
X134072380Y-68905571D01*
X134120000Y-68810333D01*
X134167619Y-68762714D01*
X134262857Y-68715095D01*
X134358095Y-68715095D01*
X134453333Y-68762714D01*
X134500952Y-68810333D01*
X134548571Y-68905571D01*
X134548571Y-69238904D01*
X183586380Y-72969047D02*
X182586380Y-72969047D01*
X183300666Y-72635714D01*
X182586380Y-72302380D01*
X183586380Y-72302380D01*
X183586380Y-71826190D02*
X182919714Y-71826190D01*
X182586380Y-71826190D02*
X182634000Y-71873809D01*
X182681619Y-71826190D01*
X182634000Y-71778571D01*
X182586380Y-71826190D01*
X182681619Y-71826190D01*
X183538761Y-70921428D02*
X183586380Y-71016666D01*
X183586380Y-71207142D01*
X183538761Y-71302380D01*
X183491142Y-71350000D01*
X183395904Y-71397619D01*
X183110190Y-71397619D01*
X183014952Y-71350000D01*
X182967333Y-71302380D01*
X182919714Y-71207142D01*
X182919714Y-71016666D01*
X182967333Y-70921428D01*
X183586380Y-70492857D02*
X182919714Y-70492857D01*
X183110190Y-70492857D02*
X183014952Y-70445238D01*
X182967333Y-70397619D01*
X182919714Y-70302380D01*
X182919714Y-70207142D01*
X183586380Y-69730952D02*
X183538761Y-69826190D01*
X183491142Y-69873809D01*
X183395904Y-69921428D01*
X183110190Y-69921428D01*
X183014952Y-69873809D01*
X182967333Y-69826190D01*
X182919714Y-69730952D01*
X182919714Y-69588095D01*
X182967333Y-69492857D01*
X183014952Y-69445238D01*
X183110190Y-69397619D01*
X183395904Y-69397619D01*
X183491142Y-69445238D01*
X183538761Y-69492857D01*
X183586380Y-69588095D01*
X183586380Y-69730952D01*
X183538761Y-68254761D02*
X183586380Y-68111904D01*
X183586380Y-67873809D01*
X183538761Y-67778571D01*
X183491142Y-67730952D01*
X183395904Y-67683333D01*
X183300666Y-67683333D01*
X183205428Y-67730952D01*
X183157809Y-67778571D01*
X183110190Y-67873809D01*
X183062571Y-68064285D01*
X183014952Y-68159523D01*
X182967333Y-68207142D01*
X182872095Y-68254761D01*
X182776857Y-68254761D01*
X182681619Y-68207142D01*
X182634000Y-68159523D01*
X182586380Y-68064285D01*
X182586380Y-67826190D01*
X182634000Y-67683333D01*
X183586380Y-67254761D02*
X182586380Y-67254761D01*
X182586380Y-67016666D01*
X182634000Y-66873809D01*
X182729238Y-66778571D01*
X182824476Y-66730952D01*
X183014952Y-66683333D01*
X183157809Y-66683333D01*
X183348285Y-66730952D01*
X183443523Y-66778571D01*
X183538761Y-66873809D01*
X183586380Y-67016666D01*
X183586380Y-67254761D01*
X159703333Y-66893666D02*
X160403333Y-66893666D01*
X159903333Y-67127000D01*
X160403333Y-67360333D01*
X159703333Y-67360333D01*
X159703333Y-67693666D02*
X160403333Y-67693666D01*
X159703333Y-68027000D02*
X160403333Y-68027000D01*
X159903333Y-68260333D01*
X160403333Y-68493666D01*
X159703333Y-68493666D01*
X160403333Y-68760333D02*
X159703333Y-69227000D01*
X160403333Y-69227000D02*
X159703333Y-68760333D01*
X159703333Y-69893666D02*
X160036666Y-69660333D01*
X159703333Y-69493666D02*
X160403333Y-69493666D01*
X160403333Y-69760333D01*
X160370000Y-69827000D01*
X160336666Y-69860333D01*
X160270000Y-69893666D01*
X160170000Y-69893666D01*
X160103333Y-69860333D01*
X160070000Y-69827000D01*
X160036666Y-69760333D01*
X160036666Y-69493666D01*
X160403333Y-70093666D02*
X160403333Y-70493666D01*
X159703333Y-70293666D02*
X160403333Y-70293666D01*
X159703333Y-71093666D02*
X159703333Y-70693666D01*
X159703333Y-70893666D02*
X160403333Y-70893666D01*
X160303333Y-70827000D01*
X160236666Y-70760333D01*
X160203333Y-70693666D01*
X160403333Y-71527000D02*
X160403333Y-71593666D01*
X160370000Y-71660333D01*
X160336666Y-71693666D01*
X160270000Y-71727000D01*
X160136666Y-71760333D01*
X159970000Y-71760333D01*
X159836666Y-71727000D01*
X159770000Y-71693666D01*
X159736666Y-71660333D01*
X159703333Y-71593666D01*
X159703333Y-71527000D01*
X159736666Y-71460333D01*
X159770000Y-71427000D01*
X159836666Y-71393666D01*
X159970000Y-71360333D01*
X160136666Y-71360333D01*
X160270000Y-71393666D01*
X160336666Y-71427000D01*
X160370000Y-71460333D01*
X160403333Y-71527000D01*
X160403333Y-72360333D02*
X160403333Y-72227000D01*
X160370000Y-72160333D01*
X160336666Y-72127000D01*
X160236666Y-72060333D01*
X160103333Y-72027000D01*
X159836666Y-72027000D01*
X159770000Y-72060333D01*
X159736666Y-72093666D01*
X159703333Y-72160333D01*
X159703333Y-72293666D01*
X159736666Y-72360333D01*
X159770000Y-72393666D01*
X159836666Y-72427000D01*
X160003333Y-72427000D01*
X160070000Y-72393666D01*
X160103333Y-72360333D01*
X160136666Y-72293666D01*
X160136666Y-72160333D01*
X160103333Y-72093666D01*
X160070000Y-72060333D01*
X160003333Y-72027000D01*
X160336666Y-72693666D02*
X160370000Y-72727000D01*
X160403333Y-72793666D01*
X160403333Y-72960333D01*
X160370000Y-73027000D01*
X160336666Y-73060333D01*
X160270000Y-73093666D01*
X160203333Y-73093666D01*
X160103333Y-73060333D01*
X159703333Y-72660333D01*
X159703333Y-73093666D01*
X158433333Y-68413666D02*
X159133333Y-68413666D01*
X159133333Y-68580333D01*
X159100000Y-68680333D01*
X159033333Y-68747000D01*
X158966666Y-68780333D01*
X158833333Y-68813666D01*
X158733333Y-68813666D01*
X158600000Y-68780333D01*
X158533333Y-68747000D01*
X158466666Y-68680333D01*
X158433333Y-68580333D01*
X158433333Y-68413666D01*
X159133333Y-69013666D02*
X158433333Y-69247000D01*
X159133333Y-69480333D01*
X159133333Y-69913666D02*
X158633333Y-69913666D01*
X158533333Y-69880333D01*
X158466666Y-69813666D01*
X158433333Y-69713666D01*
X158433333Y-69647000D01*
X159133333Y-70547000D02*
X159133333Y-70413666D01*
X159100000Y-70347000D01*
X159066666Y-70313666D01*
X158966666Y-70247000D01*
X158833333Y-70213666D01*
X158566666Y-70213666D01*
X158500000Y-70247000D01*
X158466666Y-70280333D01*
X158433333Y-70347000D01*
X158433333Y-70480333D01*
X158466666Y-70547000D01*
X158500000Y-70580333D01*
X158566666Y-70613666D01*
X158733333Y-70613666D01*
X158800000Y-70580333D01*
X158833333Y-70547000D01*
X158866666Y-70480333D01*
X158866666Y-70347000D01*
X158833333Y-70280333D01*
X158800000Y-70247000D01*
X158733333Y-70213666D01*
X158633333Y-70880333D02*
X158633333Y-71213666D01*
X158433333Y-70813666D02*
X159133333Y-71047000D01*
X158433333Y-71280333D01*
%TO.C,TP5*%
X192032095Y-90587380D02*
X192603523Y-90587380D01*
X192317809Y-91587380D02*
X192317809Y-90587380D01*
X192936857Y-91587380D02*
X192936857Y-90587380D01*
X193317809Y-90587380D01*
X193413047Y-90635000D01*
X193460666Y-90682619D01*
X193508285Y-90777857D01*
X193508285Y-90920714D01*
X193460666Y-91015952D01*
X193413047Y-91063571D01*
X193317809Y-91111190D01*
X192936857Y-91111190D01*
X194413047Y-90587380D02*
X193936857Y-90587380D01*
X193889238Y-91063571D01*
X193936857Y-91015952D01*
X194032095Y-90968333D01*
X194270190Y-90968333D01*
X194365428Y-91015952D01*
X194413047Y-91063571D01*
X194460666Y-91158809D01*
X194460666Y-91396904D01*
X194413047Y-91492142D01*
X194365428Y-91539761D01*
X194270190Y-91587380D01*
X194032095Y-91587380D01*
X193936857Y-91539761D01*
X193889238Y-91492142D01*
%TO.C,TP4*%
X132342095Y-94194380D02*
X132913523Y-94194380D01*
X132627809Y-95194380D02*
X132627809Y-94194380D01*
X133246857Y-95194380D02*
X133246857Y-94194380D01*
X133627809Y-94194380D01*
X133723047Y-94242000D01*
X133770666Y-94289619D01*
X133818285Y-94384857D01*
X133818285Y-94527714D01*
X133770666Y-94622952D01*
X133723047Y-94670571D01*
X133627809Y-94718190D01*
X133246857Y-94718190D01*
X134675428Y-94527714D02*
X134675428Y-95194380D01*
X134437333Y-94146761D02*
X134199238Y-94861047D01*
X134818285Y-94861047D01*
%TO.C,TP3*%
X132088095Y-87590380D02*
X132659523Y-87590380D01*
X132373809Y-88590380D02*
X132373809Y-87590380D01*
X132992857Y-88590380D02*
X132992857Y-87590380D01*
X133373809Y-87590380D01*
X133469047Y-87638000D01*
X133516666Y-87685619D01*
X133564285Y-87780857D01*
X133564285Y-87923714D01*
X133516666Y-88018952D01*
X133469047Y-88066571D01*
X133373809Y-88114190D01*
X132992857Y-88114190D01*
X133897619Y-87590380D02*
X134516666Y-87590380D01*
X134183333Y-87971333D01*
X134326190Y-87971333D01*
X134421428Y-88018952D01*
X134469047Y-88066571D01*
X134516666Y-88161809D01*
X134516666Y-88399904D01*
X134469047Y-88495142D01*
X134421428Y-88542761D01*
X134326190Y-88590380D01*
X134040476Y-88590380D01*
X133945238Y-88542761D01*
X133897619Y-88495142D01*
%TO.C,TP2*%
X185174095Y-66511380D02*
X185745523Y-66511380D01*
X185459809Y-67511380D02*
X185459809Y-66511380D01*
X186078857Y-67511380D02*
X186078857Y-66511380D01*
X186459809Y-66511380D01*
X186555047Y-66559000D01*
X186602666Y-66606619D01*
X186650285Y-66701857D01*
X186650285Y-66844714D01*
X186602666Y-66939952D01*
X186555047Y-66987571D01*
X186459809Y-67035190D01*
X186078857Y-67035190D01*
X187031238Y-66606619D02*
X187078857Y-66559000D01*
X187174095Y-66511380D01*
X187412190Y-66511380D01*
X187507428Y-66559000D01*
X187555047Y-66606619D01*
X187602666Y-66701857D01*
X187602666Y-66797095D01*
X187555047Y-66939952D01*
X186983619Y-67511380D01*
X187602666Y-67511380D01*
%TO.C,TP1*%
X185174095Y-71591380D02*
X185745523Y-71591380D01*
X185459809Y-72591380D02*
X185459809Y-71591380D01*
X186078857Y-72591380D02*
X186078857Y-71591380D01*
X186459809Y-71591380D01*
X186555047Y-71639000D01*
X186602666Y-71686619D01*
X186650285Y-71781857D01*
X186650285Y-71924714D01*
X186602666Y-72019952D01*
X186555047Y-72067571D01*
X186459809Y-72115190D01*
X186078857Y-72115190D01*
X187602666Y-72591380D02*
X187031238Y-72591380D01*
X187316952Y-72591380D02*
X187316952Y-71591380D01*
X187221714Y-71734238D01*
X187126476Y-71829476D01*
X187031238Y-71877095D01*
%TO.C,J2*%
X131111666Y-102449380D02*
X131111666Y-103163666D01*
X131064047Y-103306523D01*
X130968809Y-103401761D01*
X130825952Y-103449380D01*
X130730714Y-103449380D01*
X131540238Y-102544619D02*
X131587857Y-102497000D01*
X131683095Y-102449380D01*
X131921190Y-102449380D01*
X132016428Y-102497000D01*
X132064047Y-102544619D01*
X132111666Y-102639857D01*
X132111666Y-102735095D01*
X132064047Y-102877952D01*
X131492619Y-103449380D01*
X132111666Y-103449380D01*
%TO.C,J1*%
X120951666Y-102195380D02*
X120951666Y-102909666D01*
X120904047Y-103052523D01*
X120808809Y-103147761D01*
X120665952Y-103195380D01*
X120570714Y-103195380D01*
X121951666Y-103195380D02*
X121380238Y-103195380D01*
X121665952Y-103195380D02*
X121665952Y-102195380D01*
X121570714Y-102338238D01*
X121475476Y-102433476D01*
X121380238Y-102481095D01*
X116967571Y-106787142D02*
X118110428Y-106787142D01*
X129967571Y-106787142D02*
X131110428Y-106787142D01*
X130539000Y-107358571D02*
X130539000Y-106215714D01*
%TO.C,A3*%
X120426714Y-63304666D02*
X120902904Y-63304666D01*
X120331476Y-63590380D02*
X120664809Y-62590380D01*
X120998142Y-63590380D01*
X121236238Y-62590380D02*
X121855285Y-62590380D01*
X121521952Y-62971333D01*
X121664809Y-62971333D01*
X121760047Y-63018952D01*
X121807666Y-63066571D01*
X121855285Y-63161809D01*
X121855285Y-63399904D01*
X121807666Y-63495142D01*
X121760047Y-63542761D01*
X121664809Y-63590380D01*
X121379095Y-63590380D01*
X121283857Y-63542761D01*
X121236238Y-63495142D01*
X116474333Y-76090380D02*
X115998142Y-76090380D01*
X115950523Y-76566571D01*
X115998142Y-76518952D01*
X116093380Y-76471333D01*
X116331476Y-76471333D01*
X116426714Y-76518952D01*
X116474333Y-76566571D01*
X116521952Y-76661809D01*
X116521952Y-76899904D01*
X116474333Y-76995142D01*
X116426714Y-77042761D01*
X116331476Y-77090380D01*
X116093380Y-77090380D01*
X115998142Y-77042761D01*
X115950523Y-76995142D01*
X116807666Y-76090380D02*
X117141000Y-77090380D01*
X117474333Y-76090380D01*
X119141000Y-77090380D02*
X118807666Y-76614190D01*
X118569571Y-77090380D02*
X118569571Y-76090380D01*
X118950523Y-76090380D01*
X119045761Y-76138000D01*
X119093380Y-76185619D01*
X119141000Y-76280857D01*
X119141000Y-76423714D01*
X119093380Y-76518952D01*
X119045761Y-76566571D01*
X118950523Y-76614190D01*
X118569571Y-76614190D01*
X119950523Y-77042761D02*
X119855285Y-77090380D01*
X119664809Y-77090380D01*
X119569571Y-77042761D01*
X119521952Y-76947523D01*
X119521952Y-76566571D01*
X119569571Y-76471333D01*
X119664809Y-76423714D01*
X119855285Y-76423714D01*
X119950523Y-76471333D01*
X119998142Y-76566571D01*
X119998142Y-76661809D01*
X119521952Y-76757047D01*
X120855285Y-76423714D02*
X120855285Y-77233238D01*
X120807666Y-77328476D01*
X120760047Y-77376095D01*
X120664809Y-77423714D01*
X120521952Y-77423714D01*
X120426714Y-77376095D01*
X120855285Y-77042761D02*
X120760047Y-77090380D01*
X120569571Y-77090380D01*
X120474333Y-77042761D01*
X120426714Y-76995142D01*
X120379095Y-76899904D01*
X120379095Y-76614190D01*
X120426714Y-76518952D01*
X120474333Y-76471333D01*
X120569571Y-76423714D01*
X120760047Y-76423714D01*
X120855285Y-76471333D01*
X121760047Y-76423714D02*
X121760047Y-77090380D01*
X121331476Y-76423714D02*
X121331476Y-76947523D01*
X121379095Y-77042761D01*
X121474333Y-77090380D01*
X121617190Y-77090380D01*
X121712428Y-77042761D01*
X121760047Y-76995142D01*
X122379095Y-77090380D02*
X122283857Y-77042761D01*
X122236238Y-76947523D01*
X122236238Y-76090380D01*
X123188619Y-77090380D02*
X123188619Y-76566571D01*
X123141000Y-76471333D01*
X123045761Y-76423714D01*
X122855285Y-76423714D01*
X122760047Y-76471333D01*
X123188619Y-77042761D02*
X123093380Y-77090380D01*
X122855285Y-77090380D01*
X122760047Y-77042761D01*
X122712428Y-76947523D01*
X122712428Y-76852285D01*
X122760047Y-76757047D01*
X122855285Y-76709428D01*
X123093380Y-76709428D01*
X123188619Y-76661809D01*
X123521952Y-76423714D02*
X123902904Y-76423714D01*
X123664809Y-76090380D02*
X123664809Y-76947523D01*
X123712428Y-77042761D01*
X123807666Y-77090380D01*
X123902904Y-77090380D01*
X124379095Y-77090380D02*
X124283857Y-77042761D01*
X124236238Y-76995142D01*
X124188619Y-76899904D01*
X124188619Y-76614190D01*
X124236238Y-76518952D01*
X124283857Y-76471333D01*
X124379095Y-76423714D01*
X124521952Y-76423714D01*
X124617190Y-76471333D01*
X124664809Y-76518952D01*
X124712428Y-76614190D01*
X124712428Y-76899904D01*
X124664809Y-76995142D01*
X124617190Y-77042761D01*
X124521952Y-77090380D01*
X124379095Y-77090380D01*
X125141000Y-77090380D02*
X125141000Y-76423714D01*
X125141000Y-76614190D02*
X125188619Y-76518952D01*
X125236238Y-76471333D01*
X125331476Y-76423714D01*
X125426714Y-76423714D01*
%TD*%
%LPC*%
D16*
%TO.C,A2*%
X136398000Y-102616000D03*
X136398000Y-100076000D03*
X136398000Y-97536000D03*
X136398000Y-105156000D03*
X136398000Y-89916000D03*
X136398000Y-87376000D03*
X136398000Y-92456000D03*
X136398000Y-94996000D03*
X159258000Y-100076000D03*
X159258000Y-97536000D03*
X159258000Y-94996000D03*
X159258000Y-92456000D03*
D17*
X157988000Y-87376000D03*
X157988000Y-107696000D03*
%TD*%
D18*
%TO.C,A1*%
X190197000Y-90568000D03*
X190197000Y-92568000D03*
X190197000Y-94568000D03*
X190197000Y-96568000D03*
X190197000Y-98568000D03*
X190197000Y-100568000D03*
X190197000Y-102568000D03*
X190197000Y-104568000D03*
X190197000Y-106568000D03*
X190197000Y-108568000D03*
X168197000Y-108568000D03*
X168197000Y-106568000D03*
X168197000Y-104568000D03*
X168197000Y-102568000D03*
X168197000Y-100568000D03*
X168197000Y-98568000D03*
X168197000Y-96568000D03*
X168197000Y-94568000D03*
X168197000Y-92568000D03*
X168197000Y-90568000D03*
%TD*%
D19*
%TO.C,U1*%
X132810000Y-68707000D03*
X132810000Y-71247000D03*
D20*
X177800000Y-64897000D03*
X177800000Y-67437000D03*
X177800000Y-69977000D03*
X177800000Y-72517000D03*
X177800000Y-75057000D03*
D19*
X145050000Y-68795400D03*
X147050000Y-68795400D03*
X147050000Y-66795400D03*
X145050000Y-66795400D03*
X147050000Y-64795400D03*
D21*
X145050000Y-64795400D03*
D20*
X172720000Y-77597000D03*
X175260000Y-77597000D03*
X177800000Y-77597000D03*
X180340000Y-77597000D03*
X170180000Y-77597000D03*
X167640000Y-77597000D03*
X165100000Y-77597000D03*
X182880000Y-77597000D03*
X185420000Y-77597000D03*
X187960000Y-77597000D03*
X190500000Y-77597000D03*
X190500000Y-62357000D03*
X187960000Y-62357000D03*
X185420000Y-62357000D03*
X182880000Y-62357000D03*
X180340000Y-62357000D03*
X177800000Y-62357000D03*
X175260000Y-62357000D03*
X172720000Y-62357000D03*
X170180000Y-62357000D03*
X167640000Y-62357000D03*
X162560000Y-77597000D03*
X160020000Y-77597000D03*
X157480000Y-77597000D03*
X154940000Y-77597000D03*
X152400000Y-77597000D03*
X149860000Y-77597000D03*
X147320000Y-77597000D03*
X144780000Y-77597000D03*
X142240000Y-77597000D03*
X139700000Y-77597000D03*
X137160000Y-77597000D03*
X134620000Y-77597000D03*
D22*
X132080000Y-77597000D03*
D20*
X165100000Y-62357000D03*
X162560000Y-62357000D03*
X160020000Y-62357000D03*
X157480000Y-62357000D03*
X154940000Y-62357000D03*
X152400000Y-62357000D03*
X149860000Y-62357000D03*
X147320000Y-62357000D03*
X144780000Y-62357000D03*
X142240000Y-62357000D03*
X139700000Y-62357000D03*
X137160000Y-62357000D03*
X134620000Y-62357000D03*
X132080000Y-62357000D03*
D22*
X138379200Y-74546200D03*
D20*
X140919200Y-74546200D03*
X143459200Y-74546200D03*
X145999200Y-74546200D03*
X148539200Y-74546200D03*
X134620000Y-64897000D03*
%TD*%
D23*
%TO.C,TP5*%
X193294000Y-92583000D03*
%TD*%
D24*
%TO.C,TP4*%
X134112000Y-92456000D03*
%TD*%
%TO.C,TP3*%
X134112000Y-89916000D03*
%TD*%
%TO.C,TP2*%
X186436000Y-68707000D03*
%TD*%
%TO.C,TP1*%
X186436000Y-73787000D03*
%TD*%
D25*
%TO.C,J2*%
X129159000Y-98980000D03*
D26*
X129159000Y-93980000D03*
%TD*%
D25*
%TO.C,J1*%
X126539000Y-106680000D03*
D26*
X121539000Y-106680000D03*
%TD*%
D16*
%TO.C,A3*%
X113141000Y-67138000D03*
X115681000Y-67138000D03*
X115681000Y-87138000D03*
X113141000Y-87138000D03*
X125601000Y-87138000D03*
X128141000Y-87138000D03*
X125601000Y-67138000D03*
X128141000Y-67138000D03*
%TD*%
M02*
