M48
; DRILL file {KiCad (5.1.9)-1} date 12/11/21 14:56:38
; FORMAT={-:-/ absolute / metric / decimal}
; #@! TF.CreationDate,2021-12-11T14:56:38-08:00
; #@! TF.GenerationSoftware,Kicad,Pcbnew,(5.1.9)-1
; #@! TF.FileFunction,Plated,1,2,PTH
FMAT,2
METRIC
T1C0.400
T2C0.700
T3C0.762
T4C0.800
T5C1.100
T6C2.700
T7C3.000
%
G90
G05
T1
X116.84Y-84.455
X129.286Y-81.026
X139.065Y-84.555
X142.875Y-69.977
X152.908Y-82.296
X161.544Y-87.376
X161.787Y-83.555
X162.56Y-82.55
X163.83Y-81.28
X166.116Y-108.458
X166.624Y-87.884
X170.18Y-87.884
X170.18Y-108.712
X171.704Y-80.264
X182.372Y-105.283
X185.42Y-96.52
X185.42Y-97.536
X188.214Y-83.566
X188.468Y-97.536
X192.6Y-83.634
X193.548Y-80.264
X193.783Y-68.564
T2
X168.197Y-90.568
X168.197Y-92.568
X168.197Y-94.568
X168.197Y-96.568
X168.197Y-98.568
X168.197Y-100.568
X168.197Y-102.568
X168.197Y-104.568
X168.197Y-106.568
X168.197Y-108.568
X190.197Y-90.568
X190.197Y-92.568
X190.197Y-94.568
X190.197Y-96.568
X190.197Y-98.568
X190.197Y-100.568
X190.197Y-102.568
X190.197Y-104.568
X190.197Y-106.568
X190.197Y-108.568
T3
X113.141Y-67.138
X113.141Y-87.138
X115.681Y-67.138
X115.681Y-87.138
X125.601Y-67.138
X125.601Y-87.138
X128.141Y-67.138
X128.141Y-87.138
X136.398Y-87.376
X136.398Y-89.916
X136.398Y-92.456
X136.398Y-94.996
X136.398Y-97.536
X136.398Y-100.076
X136.398Y-102.616
X136.398Y-105.156
X159.258Y-92.456
X159.258Y-94.996
X159.258Y-97.536
X159.258Y-100.076
T4
X132.81Y-68.707
X132.81Y-71.247
X145.05Y-64.795
X145.05Y-66.795
X145.05Y-68.795
X147.05Y-64.795
X147.05Y-66.795
X147.05Y-68.795
T5
X132.08Y-62.357
X132.08Y-77.597
X134.62Y-62.357
X134.62Y-64.897
X134.62Y-77.597
X137.16Y-62.357
X137.16Y-77.597
X138.379Y-74.546
X139.7Y-62.357
X139.7Y-77.597
X140.919Y-74.546
X142.24Y-62.357
X142.24Y-77.597
X143.459Y-74.546
X144.78Y-62.357
X144.78Y-77.597
X145.999Y-74.546
X147.32Y-62.357
X147.32Y-77.597
X148.539Y-74.546
X149.86Y-62.357
X149.86Y-77.597
X152.4Y-62.357
X152.4Y-77.597
X154.94Y-62.357
X154.94Y-77.597
X157.48Y-62.357
X157.48Y-77.597
X160.02Y-62.357
X160.02Y-77.597
X162.56Y-62.357
X162.56Y-77.597
X165.1Y-62.357
X165.1Y-77.597
X167.64Y-62.357
X167.64Y-77.597
X170.18Y-62.357
X170.18Y-77.597
X172.72Y-62.357
X172.72Y-77.597
X175.26Y-62.357
X175.26Y-77.597
X177.8Y-62.357
X177.8Y-64.897
X177.8Y-67.437
X177.8Y-69.977
X177.8Y-72.517
X177.8Y-75.057
X177.8Y-77.597
X180.34Y-62.357
X180.34Y-77.597
X182.88Y-62.357
X182.88Y-77.597
X185.42Y-62.357
X185.42Y-77.597
X187.96Y-62.357
X187.96Y-77.597
X190.5Y-62.357
X190.5Y-77.597
T6
X121.539Y-106.68
X126.539Y-106.68
X129.159Y-93.98
X129.159Y-98.98
T7
X114.3Y-63.5
X114.3Y-107.95
X193.675Y-63.5
X193.675Y-107.95
T0
M30
