M48
; DRILL file {KiCad (5.1.9)-1} date 12/11/21 15:02:30
; FORMAT={-:-/ absolute / metric / decimal}
; #@! TF.CreationDate,2021-12-11T15:02:30-08:00
; #@! TF.GenerationSoftware,Kicad,Pcbnew,(5.1.9)-1
; #@! TF.FileFunction,Plated,1,2,PTH
FMAT,2
METRIC
T1C0.250
T2C0.330
T3C0.450
T4C0.500
T5C0.550
T6C0.762
T7C0.800
T8C0.900
T9C0.920
T10C1.000
T11C1.700
T12C2.000
T13C2.300
T14C2.700
T15C3.000
T16C3.000
%
G90
G05
T1
X111.816Y-107.036
X113.806Y-107.046
X115.136Y-96.286
X122.54Y-90.168
X122.54Y-91.368
X122.54Y-92.568
X122.54Y-94.968
X122.54Y-96.168
X122.54Y-97.368
X122.54Y-98.568
X122.54Y-100.968
X122.54Y-102.168
X122.54Y-103.368
X122.54Y-104.568
X122.54Y-105.768
X122.541Y-108.167
X122.542Y-106.969
X124.457Y-106.973
X124.46Y-104.565
X124.46Y-105.771
X124.464Y-91.368
X124.464Y-90.168
X124.464Y-92.568
X124.464Y-93.768
X124.464Y-94.968
X124.464Y-96.168
X124.464Y-97.368
X124.464Y-98.568
X124.464Y-102.168
X124.464Y-103.368
X152.534Y-96.415
X153.159Y-96.467
X153.786Y-96.456
X154.236Y-106.756
X154.292Y-107.381
X154.336Y-105.176
X154.452Y-96.426
X154.489Y-100.633
X154.606Y-93.946
X154.668Y-93.288
X154.93Y-104.845
X155.106Y-96.396
X155.509Y-109.444
X156.46Y-98.168
X156.46Y-100.968
X156.46Y-102.168
X156.56Y-105.081
X156.693Y-96.573
X156.78Y-108.064
X157.219Y-104.909
X157.386Y-106.696
X157.476Y-107.346
X157.819Y-104.725
X157.856Y-102.909
X158.306Y-108.091
X158.336Y-90.566
X158.384Y-96.568
X158.384Y-97.768
X158.956Y-109.656
X159.686Y-99.356
X159.696Y-98.446
X159.786Y-96.936
X160.346Y-96.386
X160.816Y-95.796
X161.126Y-102.909
X161.356Y-95.186
X161.846Y-94.596
X162.056Y-99.286
X163.046Y-107.446
X163.146Y-106.681
X164.486Y-80.646
X164.906Y-110.386
X166.738Y-110.458
X167.516Y-110.096
X168.146Y-112.536
X168.286Y-108.146
X168.846Y-107.606
X168.976Y-112.436
X169.363Y-80.646
X169.406Y-107.086
X169.956Y-106.546
X170.586Y-106.036
X172.006Y-80.646
X173.026Y-100.306
X174.366Y-79.606
X175.986Y-111.206
X179.208Y-86.906
X182.976Y-83.196
X183.044Y-86.678
X186.766Y-82.946
X195.976Y-83.406
X196.996Y-83.376
X197.886Y-83.346
T2
X111.776Y-83.186
X111.796Y-92.366
X111.846Y-96.306
X111.986Y-98.556
X112.006Y-103.716
X112.066Y-101.046
X113.986Y-97.886
X116.187Y-88.666
X119.336Y-84.236
X119.336Y-85.386
X128.556Y-75.776
X130.066Y-75.796
X130.776Y-72.146
X133.816Y-71.386
X136.736Y-70.196
X136.926Y-66.696
X140.216Y-68.216
X140.386Y-70.586
X141.426Y-68.326
X159.828Y-75.654
X161.166Y-80.216
X161.256Y-78.556
X161.606Y-77.178
X162.114Y-79.464
X162.368Y-76.67
X169.636Y-91.746
X201.946Y-67.226
X206.986Y-67.196
T4
X166.586Y-78.036
X166.586Y-79.664
T5
X161.746Y-107.226
X161.746Y-109.226
X161.746Y-111.226
X161.746Y-113.226
X161.746Y-115.226
X161.746Y-117.226
X161.746Y-119.226
X161.746Y-121.226
T6
X168.148Y-82.55
X170.688Y-82.55
X173.228Y-82.55
X175.768Y-82.55
X178.318Y-82.54
X178.318Y-93.23
X188.775Y-71.262
X188.775Y-101.742
X191.315Y-71.262
X191.315Y-101.742
X193.855Y-71.262
X193.855Y-101.742
X196.395Y-71.262
X196.395Y-101.742
X198.935Y-71.262
X198.935Y-101.742
X201.475Y-71.262
X201.475Y-101.742
X204.015Y-71.262
X204.015Y-101.742
X206.555Y-71.262
X206.555Y-101.742
T7
X111.726Y-78.702
X116.606Y-78.702
X163.656Y-126.256
X166.196Y-126.256
X168.736Y-126.256
X171.276Y-126.256
X173.816Y-126.256
X176.356Y-126.256
X218.186Y-97.33
X218.186Y-99.33
X218.186Y-101.33
X218.186Y-103.33
T8
X106.851Y-110.617
X106.851Y-113.157
X106.851Y-115.697
X106.851Y-118.237
X106.851Y-120.777
X109.391Y-109.347
X109.391Y-111.887
X109.391Y-114.427
X109.391Y-116.967
X109.391Y-119.507
T9
X103.001Y-93.241
X103.001Y-95.741
X103.001Y-97.741
X103.001Y-100.241
X103.026Y-75.341
X103.026Y-77.841
X103.026Y-79.841
X103.026Y-82.341
X105.621Y-93.241
X105.621Y-95.741
X105.621Y-97.741
X105.621Y-100.241
X105.646Y-75.341
X105.646Y-77.841
X105.646Y-79.841
X105.646Y-82.341
T10
X96.441Y-108.432
X96.441Y-110.972
X96.441Y-119.152
X96.441Y-121.692
X101.976Y-126.281
X101.976Y-128.821
X104.516Y-126.281
X104.516Y-128.821
X107.056Y-126.281
X107.056Y-128.821
X109.596Y-126.281
X109.596Y-128.821
X112.136Y-126.281
X112.136Y-128.821
X114.676Y-126.281
X114.676Y-128.821
X117.216Y-126.281
X117.216Y-128.821
X146.874Y-70.066
X149.414Y-70.066
X151.954Y-70.066
X154.494Y-70.066
X217.17Y-82.042
X217.17Y-84.582
X217.17Y-87.122
X217.17Y-89.662
T11
X103.551Y-107.212
X103.551Y-122.912
T12
X180.756Y-117.696
X210.756Y-107.696
X210.756Y-127.696
T13
X100.291Y-90.171
X100.291Y-103.311
X100.316Y-72.271
X100.316Y-85.411
X105.971Y-90.171
X105.971Y-103.311
X105.996Y-72.271
X105.996Y-85.411
T14
X163.384Y-70.066
X168.384Y-70.066
X175.83Y-69.946
X175.83Y-74.946
T15
X96.266Y-69.596
X96.266Y-126.746
X216.916Y-69.596
X216.916Y-126.746
T16
X183.695Y-71.262
X183.695Y-101.742
X211.635Y-71.262
X211.635Y-101.742
T3
X135.516Y-67.436G85X135.516Y-66.636
G05
X142.666Y-67.436G85X142.666Y-66.636
G05
T0
M30
