0
SECTION
2
HEADER
9
$INSUNITS
70
1
9
$ACADVER
1
AC1014
9
$HANDSEED
5
FFFF
0
ENDSEC
0
SECTION
2
TABLES
0
TABLE
2
VPORT
5
8
100
AcDbSymbolTable
0
ENDTAB
0
TABLE
2
LTYPE
5
5
100
AcDbSymbolTable
0
LTYPE
5
14
100
AcDbSymbolTableRecord
100
AcDbLinetypeTableRecord
2
BYBLOCK
70
0
0
LTYPE
5
15
100
AcDbSymbolTableRecord
100
AcDbLinetypeTableRecord
2
BYLAYER
70
0
0
ENDTAB
0
TABLE
2
LAYER
5
2
100
AcDbSymbolTable
70
2
0
LAYER
5
50
100
AcDbSymbolTableRecord
100
AcDbLayerTableRecord
2
0
70
0
6
CONTINUOUS
0
ENDTAB
0
TABLE
2
STYLE
5
3
100
AcDbSymbolTable
70
1
0
STYLE
5
11
100
AcDbSymbolTableRecord
100
AcDbTextStyleTableRecord
2
STANDARD
70
0
0
ENDTAB
0
TABLE
2
VIEW
5
6
100
AcDbSymbolTable
70
0
0
ENDTAB
0
TABLE
2
UCS
5
7
100
AcDbSymbolTable
70
0
0
ENDTAB
0
TABLE
2
APPID
5
9
100
AcDbSymbolTable
70
2
0
APPID
5
12
100
AcDbSymbolTableRecord
100
AcDbRegAppTableRecord
2
ACAD
70
0
0
ENDTAB
0
TABLE
2
DIMSTYLE
5
A
100
AcDbSymbolTable
70
1
0
ENDTAB
0
TABLE
2
BLOCK_RECORD
5
1
100
AcDbSymbolTable
70
1
0
BLOCK_RECORD
5
1F
100
AcDbSymbolTableRecord
100
AcDbBlockTableRecord
2
*MODEL_SPACE
0
BLOCK_RECORD
5
1B
100
AcDbSymbolTableRecord
100
AcDbBlockTableRecord
2
*PAPER_SPACE
0
ENDTAB
0
ENDSEC
0
SECTION
2
BLOCKS
0
BLOCK
5
20
100
AcDbEntity
100
AcDbBlockBegin
2
*MODEL_SPACE
0
ENDBLK
5
21
100
AcDbEntity
100
AcDbBlockEnd
0
BLOCK
5
1C
100
AcDbEntity
100
AcDbBlockBegin
2
*PAPER_SPACE
0
ENDBLK
5
1D
100
AcDbEntity
100
AcDbBlockEnd
0
ENDSEC
0
SECTION
2
ENTITIES
0
ARC
5
100
100
AcDbEntity
8
0
100
AcDbCircle
10
-0.42800835211766758
20
-0.28902862671463248
30
0
40
0.095039322474520335
210
0
220
0
230
1
100
AcDbArc
50
155.48552120486795
51
261.2871643128957
0
LINE
5
101
100
AcDbEntity
8
0
100
AcDbLine
10
-0.44240512383559261
20
-0.38297119310771022
30
0
11
-0.21651943247582553
21
-0.38297119310771022
31
0
0
ARC
5
102
100
AcDbEntity
8
0
100
AcDbCircle
10
1.7215577178264425
20
-1.2692984148754498
30
0
40
2.457572527878376
210
0
220
0
230
1
100
AcDbArc
50
145.89394257983059
51
155.48552120486801
0
ARC
5
103
100
AcDbEntity
8
0
100
AcDbCircle
10
-0.21651943247582517
20
-0.71240210861283104
30
0
40
0.32943091550512177
210
0
220
-0
230
1
100
AcDbArc
50
60.603054939172544
51
90.000000000000057
0
ARC
5
104
100
AcDbEntity
8
0
100
AcDbCircle
10
0.034029615778425781
20
-0.28347662580697891
30
0
40
0.52390121406827905
210
0
220
0
230
1
100
AcDbArc
50
97.285352063143307
51
131.52878781295692
0
ARC
5
105
100
AcDbEntity
8
0
100
AcDbCircle
10
0.014711570056531675
20
0.17067642044670106
30
0
40
0.080702158843174346
210
0
220
-0
230
1
100
AcDbArc
50
79.288220291383567
51
125.72218033434015
0
ARC
5
106
100
AcDbEntity
8
0
100
AcDbCircle
10
0.032011601886830346
20
0.26213118496351084
30
0
40
0.012374503399057327
210
0
220
0
230
1
100
AcDbArc
50
259.28822029138303
51
325.57554805707809
0
ARC
5
107
100
AcDbEntity
8
0
100
AcDbCircle
10
0.066535856631866758
20
0.25557272482181542
30
0
40
0.024320797340376597
210
0
220
0
230
1
100
AcDbArc
50
140.71441579079743
51
181.02975022289127
0
LINE
5
108
100
AcDbEntity
8
0
100
AcDbLine
10
0.047711570537710045
20
0.27097231690462747
30
0
11
0.18521378324228449
21
0.36949805553303705
31
0
0
ARC
5
109
100
AcDbEntity
8
0
100
AcDbCircle
10
0.25111587318988488
20
0.37761498691728079
30
0
40
0.066400075561388799
210
0
220
-0
230
1
100
AcDbArc
50
13.838881056925628
51
187.0215588743327
0
ARC
5
110
100
AcDbEntity
8
0
100
AcDbCircle
10
0.34425901097538453
20
0.25452831172952661
30
0
40
0.14189573832507124
210
0
220
-0
230
1
100
AcDbArc
50
77.110822964437602
51
101.65705989073999
0
ARC
5
111
100
AcDbEntity
8
0
100
AcDbCircle
10
0.28746457318759533
20
0.0063353451931490497
30
0
40
0.39650398014327798
210
0
220
-0
230
1
100
AcDbArc
50
57.293206088830843
51
77.110822964437503
0
ARC
5
112
100
AcDbEntity
8
0
100
AcDbCircle
10
0.33585401476811572
20
0.29044947195085569
30
0
40
0.18796643454895537
210
0
220
0
230
1
100
AcDbArc
50
327.68670901177524
51
358.91458382896127
0
LINE
5
113
100
AcDbEntity
8
0
100
AcDbLine
10
0.49471156425563856
20
0.18997231291525224
30
0
11
0.20466998775313777
21
-0.22704214343717694
31
0
0
CIRCLE
5
114
100
AcDbEntity
8
0
100
AcDbCircle
10
0.24957183808724748
20
0.31546587511278251
30
0
40
0.053499375142100937
210
0
220
0
230
1
0
CIRCLE
5
115
100
AcDbEntity
8
0
100
AcDbCircle
10
0.24957183808724748
20
0.31546587511278251
30
0
40
0.069997621412148589
210
0
220
0
230
1
0
SPLINE
5
116
100
AcDbEntity
8
0
100
AcDbSpline
70
4
71
5
72
21
73
15
74
0
42
0.000000001
43
0.0000000001
44
0.0000000001
40
0
40
0
40
0
40
0
40
0
40
0
40
0.10000000000000001
40
0.20000000000000001
40
0.30000000000000004
40
0.40000000000000002
40
0.5
40
0.59999999999999998
40
0.69999999999999996
40
0.79999999999999993
40
0.89999999999999991
40
1
40
1
40
1
40
1
40
1
40
1
41
1
41
1
41
1
41
1
41
1
41
1
41
1
41
1
41
1
41
1
41
1
41
1
41
1
41
1
41
1
10
0.18158397687854261
20
0.29881301554980155
30
0
10
0.18026601129872435
20
0.29783963943840536
30
0
10
0.1777641690784463
20
0.29593726773460899
30
0
10
0.17441366307428333
20
0.29321684859431668
30
0
10
0.17076415418564092
20
0.28986030780577182
30
0
10
0.1676573473336915
20
0.28614623136884448
30
0
10
0.16613376862834409
20
0.28295616897192577
30
0
10
0.16631967573587347
20
0.28033190915314526
30
0
10
0.16827857637801247
20
0.27829447158543691
30
0
10
0.17193391775604633
20
0.27681851895943638
30
0
10
0.17715502521369866
20
0.27586080080948888
30
0
10
0.18248041562551914
20
0.27547475625108303
30
0
10
0.1870792337606319
20
0.27538539029559933
30
0
10
0.19040950912389551
20
0.27541332251116613
30
0
10
0.19214074842061268
20
0.27544916681410514
30
0
0
LWPOLYLINE
5
117
100
AcDbEntity
8
0
100
AcDbPolyline
90
4
70
1
43
0.0
10
0.16279974040827172
20
0.32464506822871192
42
-0.47774415599320735
10
0.13802215810559237
20
0.30335962839822228
10
0.14999999818722093
20
0.31499999619316393
42
0.84158501999482349
10
0.15764467294932499
20
0.3202628710073932
0
ARC
5
118
100
AcDbEntity
8
0
100
AcDbCircle
10
0.16653845952581195
20
0.15807692116653285
30
0
40
0.07666302102615434
210
0
220
-0
230
1
100
AcDbArc
50
16.61664585847014
51
209.78053516882622
0
LWPOLYLINE
5
119
100
AcDbEntity
8
0
100
AcDbPolyline
90
2
70
1
43
0.0
10
0.4580000028615509
20
0.33900000211804748
42
-0.77463170710758544
10
0.48200000301150114
20
0.31900000199308892
0
SPLINE
5
120
100
AcDbEntity
8
0
100
AcDbSpline
70
6
71
5
72
26
73
20
74
0
42
0.000000001
43
0.0000000001
44
0.0000000001
40
0
40
0
40
0
40
0
40
0
40
0
40
0.066666666666666666
40
0.13333333333333333
40
0.20000000000000001
40
0.26666666666666666
40
0.33333333333333331
40
0.39999999999999997
40
0.46666666666666662
40
0.53333333333333333
40
0.59999999999999998
40
0.66666666666666663
40
0.73333333333333328
40
0.79999999999999993
40
0.86666666666666659
40
0.93333333333333324
40
1
40
1
40
1
40
1
40
1
40
1
41
1
41
1
41
1
41
1
41
1
41
1
41
1
41
1
41
1
41
1
41
1
41
1
41
1
41
1
41
1
41
1
41
1
41
1
41
1
41
1
10
0.39500000246793143
20
0.36700000229298946
30
0
10
0.39511392331552447
20
0.36677494302668895
30
0
10
0.39544555009367455
20
0.36629382770716556
30
0
10
0.3962455220841043
20
0.36549679788845346
30
0
10
0.39783072205291869
20
0.36436863579510292
30
0
10
0.40029678141178832
20
0.36309351834303255
30
0
10
0.40278972583798772
20
0.3621881666581902
30
0
10
0.40485966800066747
20
0.36183420490520224
30
0
10
0.40614319535561416
20
0.36212038822302545
30
0
10
0.40646321219654535
20
0.36298467037684817
30
0
10
0.40581407124899349
20
0.36424875958721381
30
0
10
0.40432173183704245
20
0.36567338999911908
30
0
10
0.40221998331384134
20
0.36700336674138762
30
0
10
0.39982576660653196
20
0.36801422859909483
30
0
10
0.39752202283326904
20
0.36856141427397865
30
0
10
0.39569936219574003
20
0.3685759290987024
30
0
10
0.39489611876434955
20
0.36816224204137088
30
0
10
0.39476202500811602
20
0.36764418330496884
30
0
10
0.3948860816203385
20
0.36722506155929013
30
0
10
0.39500000246793143
20
0.36700000229298946
30
0
0
SPLINE
5
121
100
AcDbEntity
8
0
100
AcDbSpline
70
4
71
5
72
31
73
25
74
0
42
0.000000001
43
0.0000000001
44
0.0000000001
40
0
40
0
40
0
40
0
40
0
40
0
40
0.050000000000000003
40
0.10000000000000001
40
0.15000000000000002
40
0.20000000000000001
40
0.25
40
0.29999999999999999
40
0.34999999999999998
40
0.39999999999999997
40
0.44999999999999996
40
0.49999999999999994
40
0.54999999999999993
40
0.59999999999999998
40
0.65000000000000002
40
0.70000000000000007
40
0.75000000000000011
40
0.80000000000000016
40
0.8500000000000002
40
0.90000000000000024
40
0.95000000000000029
40
1
40
1
40
1
40
1
40
1
40
1
41
1
41
1
41
1
41
1
41
1
41
1
41
1
41
1
41
1
41
1
41
1
41
1
41
1
41
1
41
1
41
1
41
1
41
1
41
1
41
1
41
1
41
1
41
1
41
1
41
1
10
0.50811842674869756
20
0.30907232847906568
30
0
10
0.50704625472991849
20
0.30521576389821448
30
0
10
0.50479029198033998
20
0.29765707764218785
30
0
10
0.50107149405503204
20
0.28678239463327393
30
0
10
0.4954406367632575
20
0.27321313953318149
30
0
10
0.4872576728196103
20
0.25778351670917488
30
0
10
0.47788720489119663
20
0.24378764668557951
30
0
10
0.4672653567529903
20
0.23100238346848526
30
0
10
0.45530491852688665
20
0.21901015165524965
30
0
10
0.44190810577079992
20
0.20728061613538201
30
0
10
0.42698484183561308
20
0.19529235881573426
30
0
10
0.41046845680964261
20
0.18262861662485869
30
0
10
0.39233980964991555
20
0.16911292010945159
30
0
10
0.37262625926006582
20
0.15480817219444676
30
0
10
0.35138431294554645
20
0.13992702543252544
30
0
10
0.32868915671176024
20
0.12477045329999085
30
0
10
0.30462360227639518
20
0.10966045817472388
30
0
10
0.27926869621078571
20
0.094868650457566303
30
0
10
0.25269656581224192
20
0.080571180566966938
30
0
10
0.22496844065273836
20
0.066877844765421052
30
0
10
0.1961326383819284
20
0.053845415031302434
30
0
10
0.17220544149001582
20
0.043965614891783189
30
0
10
0.1537862302352058
20
0.036863582136487695
30
0
10
0.14129703007323388
20
0.032265151115643514
30
0
10
0.13499999836849882
20
0.029999999637444187
30
0
0
SPLINE
5
122
100
AcDbEntity
8
0
100
AcDbSpline
70
4
71
5
72
31
73
25
74
0
42
0.000000001
43
0.0000000001
44
0.0000000001
40
0
40
0
40
0
40
0
40
0
40
0
40
0.050000000000000003
40
0.10000000000000001
40
0.15000000000000002
40
0.20000000000000001
40
0.25
40
0.29999999999999999
40
0.34999999999999998
40
0.39999999999999997
40
0.44999999999999996
40
0.49999999999999994
40
0.54999999999999993
40
0.59999999999999998
40
0.65000000000000002
40
0.70000000000000007
40
0.75000000000000011
40
0.80000000000000016
40
0.8500000000000002
40
0.90000000000000024
40
0.95000000000000029
40
1
40
1
40
1
40
1
40
1
40
1
41
1
41
1
41
1
41
1
41
1
41
1
41
1
41
1
41
1
41
1
41
1
41
1
41
1
41
1
41
1
41
1
41
1
41
1
41
1
41
1
41
1
41
1
41
1
41
1
41
1
10
0.50171157337426919
20
0.33997231733573452
30
0
10
0.50232469910831923
20
0.33970053400088646
30
0
10
0.50347671690933815
20
0.33910777470012965
30
0
10
0.50498204033328775
20
0.33807105654657299
30
0
10
0.50654193335149189
20
0.33639241388924684
30
0
10
0.50775437919915256
20
0.33380427958860787
30
0
10
0.50827253839024489
20
0.33075137045802
30
0
10
0.50819729874747488
20
0.32729350206140284
30
0
10
0.50771393557637623
20
0.3235415041783643
30
0
10
0.50711232035104636
20
0.31966975129012198
30
0
10
0.5067221427872306
20
0.31587877401321829
30
0
10
0.5068560085316145
20
0.31236254911834438
30
0
10
0.50774772902770215
20
0.30927309998530705
30
0
10
0.50949494919773242
20
0.30668758156726911
30
0
10
0.51198694647048437
20
0.30456710208778598
30
0
10
0.51496074800471647
20
0.30278702836797067
30
0
10
0.51806968984221091
20
0.30117420373367665
30
0
10
0.5209470912683607
20
0.29954129329118445
30
0
10
0.52326700449266372
20
0.29771956042303249
30
0
10
0.52481729562968249
20
0.29559794447172655
30
0
10
0.52548478709147572
20
0.29311607136065038
30
0
10
0.52527422144546587
20
0.29082107387386497
30
0
10
0.52469403302992734
20
0.2889233224336904
30
0
10
0.52412031282829141
20
0.28758001829200286
30
0
10
0.5237867217798664
20
0.28688883264277798
30
0
0
SPLINE
5
123
100
AcDbEntity
8
0
100
AcDbSpline
70
6
71
5
72
26
73
20
74
0
42
0.000000001
43
0.0000000001
44
0.0000000001
40
0
40
0
40
0
40
0
40
0
40
0
40
0.066666666666666666
40
0.13333333333333333
40
0.20000000000000001
40
0.26666666666666666
40
0.33333333333333331
40
0.39999999999999997
40
0.46666666666666662
40
0.53333333333333333
40
0.59999999999999998
40
0.66666666666666663
40
0.73333333333333328
40
0.79999999999999993
40
0.86666666666666659
40
0.93333333333333324
40
1
40
1
40
1
40
1
40
1
40
1
41
1
41
1
41
1
41
1
41
1
41
1
41
1
41
1
41
1
41
1
41
1
41
1
41
1
41
1
41
1
41
1
41
1
41
1
41
1
41
1
10
0.12693832137865044
20
0.20687620671711512
30
0
10
0.1274481840503193
20
0.20682795579137991
30
0
10
0.12873336126024446
20
0.20690109498004897
30
0
10
0.13141816002467016
20
0.20752381560518748
30
0
10
0.13622783499045427
20
0.20931334271964191
30
0
10
0.14318771735370284
20
0.21269521297956084
30
0
10
0.14982488264184557
20
0.21659863427507797
30
0
10
0.15493038540068665
20
0.22034520151326395
30
0
10
0.1575599287567053
20
0.22330445257042422
30
0
10
0.15731724476341921
20
0.22502086352177175
30
0
10
0.15439203106199745
20
0.22526229409233359
30
0
10
0.14936164039760988
20
0.2239939567242247
30
0
10
0.14307761309593883
20
0.22138340365679099
30
0
10
0.13653463187929959
20
0.21780262978009837
30
0
10
0.13075793468999014
20
0.21384648728569822
30
0
10
0.12668595906078484
20
0.21021021587235572
30
0
10
0.12537845326508892
20
0.20809464927057125
30
0
10
0.12567418523023122
20
0.20719060053446003
30
0
10
0.12642845870698158
20
0.20692445764285031
30
0
10
0.12693832137865044
20
0.20687620671711512
30
0
0
SPLINE
5
124
100
AcDbEntity
8
0
100
AcDbSpline
70
4
71
5
72
31
73
25
74
0
42
0.000000001
43
0.0000000001
44
0.0000000001
40
0
40
0
40
0
40
0
40
0
40
0
40
0.050000000000000003
40
0.10000000000000001
40
0.15000000000000002
40
0.20000000000000001
40
0.25
40
0.29999999999999999
40
0.34999999999999998
40
0.39999999999999997
40
0.44999999999999996
40
0.49999999999999994
40
0.54999999999999993
40
0.59999999999999998
40
0.65000000000000002
40
0.70000000000000007
40
0.75000000000000011
40
0.80000000000000016
40
0.8500000000000002
40
0.90000000000000024
40
0.95000000000000029
40
1
40
1
40
1
40
1
40
1
40
1
41
1
41
1
41
1
41
1
41
1
41
1
41
1
41
1
41
1
41
1
41
1
41
1
41
1
41
1
41
1
41
1
41
1
41
1
41
1
41
1
41
1
41
1
41
1
41
1
41
1
10
-0.31499999619316393
20
-0.17999999782466511
30
0
10
-0.31245661296177535
20
-0.17821235845007752
30
0
10
-0.30693801586771835
20
-0.1746802127159732
30
0
10
-0.29736457685009049
20
-0.16951133058582488
30
0
10
-0.28199877379475202
20
-0.16287975461546303
30
0
10
-0.25853161556637066
20
-0.15513736078361753
30
0
10
-0.2311501534270459
20
-0.14828244413355657
30
0
10
-0.20062083799180239
20
-0.14297342166416721
30
0
10
-0.16834767968617895
20
-0.14034757586222882
30
0
10
-0.13641933221265473
20
-0.14197962764616218
30
0
10
-0.10726224840473787
20
-0.14938768397866117
30
0
10
-0.083381247354483157
20
-0.16362049099509743
30
0
10
-0.067061752183544848
20
-0.18481540030007582
30
0
10
-0.060089718175695771
20
-0.21171354548187005
30
0
10
-0.06343040924473102
20
-0.24125568175143736
30
0
10
-0.077140011183394586
20
-0.26960515388289802
30
0
10
-0.10007797728056389
20
-0.29327492729563731
30
0
10
-0.12999856663002718
20
-0.30985815049069254
30
0
10
-0.16268837072296274
20
-0.3197642153836654
30
0
10
-0.19340122358860407
20
-0.32550892532109793
30
0
10
-0.21993388631508878
20
-0.32801129442440013
30
0
10
-0.23681744077551989
20
-0.32798543864208285
30
0
10
-0.24690836888413523
20
-0.32690122040057246
30
0
10
-0.25249305645983139
20
-0.32571170064614069
30
0
10
-0.25499999691827557
20
-0.324999996072312
30
0
0
SPLINE
5
125
100
AcDbEntity
8
0
100
AcDbSpline
70
4
71
5
72
96
73
90
74
0
42
0.000000001
43
0.0000000001
44
0.0000000001
40
0
40
0
40
0
40
0
40
0
40
0
40
0.011764705882352941
40
0.023529411764705882
40
0.035294117647058823
40
0.047058823529411764
40
0.058823529411764705
40
0.070588235294117646
40
0.082352941176470587
40
0.094117647058823528
40
0.10588235294117647
40
0.11764705882352941
40
0.12941176470588234
40
0.14117647058823529
40
0.15294117647058825
40
0.1647058823529412
40
0.17647058823529416
40
0.18823529411764711
40
0.20000000000000007
40
0.21176470588235302
40
0.22352941176470598
40
0.23529411764705893
40
0.24705882352941189
40
0.25882352941176484
40
0.2705882352941178
40
0.28235294117647075
40
0.29411764705882371
40
0.30588235294117666
40
0.31764705882352962
40
0.32941176470588257
40
0.34117647058823553
40
0.35294117647058848
40
0.36470588235294144
40
0.37647058823529439
40
0.38823529411764734
40
0.4000000000000003
40
0.41176470588235325
40
0.42352941176470621
40
0.43529411764705916
40
0.44705882352941212
40
0.45882352941176507
40
0.47058823529411803
40
0.48235294117647098
40
0.49411764705882394
40
0.50588235294117689
40
0.51764705882352979
40
0.52941176470588269
40
0.54117647058823559
40
0.55294117647058849
40
0.56470588235294139
40
0.57647058823529429
40
0.58823529411764719
40
0.60000000000000009
40
0.61176470588235299
40
0.62352941176470589
40
0.63529411764705879
40
0.64705882352941169
40
0.65882352941176459
40
0.67058823529411749
40
0.68235294117647038
40
0.69411764705882328
40
0.70588235294117618
40
0.71764705882352908
40
0.72941176470588198
40
0.74117647058823488
40
0.75294117647058778
40
0.76470588235294068
40
0.77647058823529358
40
0.78823529411764648
40
0.79999999999999938
40
0.81176470588235228
40
0.82352941176470518
40
0.83529411764705808
40
0.84705882352941098
40
0.85882352941176388
40
0.87058823529411677
40
0.88235294117646967
40
0.89411764705882257
40
0.90588235294117547
40
0.91764705882352837
40
0.92941176470588127
40
0.94117647058823417
40
0.95294117647058707
40
0.96470588235293997
40
0.97647058823529287
40
0.98823529411764577
40
1
40
1
40
1
40
1
40
1
40
1
41
1
41
1
41
1
41
1
41
1
41
1
41
1
41
1
41
1
41
1
41
1
41
1
41
1
41
1
41
1
41
1
41
1
41
1
41
1
41
1
41
1
41
1
41
1
41
1
41
1
41
1
41
1
41
1
41
1
41
1
41
1
41
1
41
1
41
1
41
1
41
1
41
1
41
1
41
1
41
1
41
1
41
1
41
1
41
1
41
1
41
1
41
1
41
1
41
1
41
1
41
1
41
1
41
1
41
1
41
1
41
1
41
1
41
1
41
1
41
1
41
1
41
1
41
1
41
1
41
1
41
1
41
1
41
1
41
1
41
1
41
1
41
1
41
1
41
1
41
1
41
1
41
1
41
1
41
1
41
1
41
1
41
1
41
1
41
1
41
1
41
1
41
1
41
1
41
1
41
1
10
-0.25499999691827557
20
-0.324999996072312
30
0
10
-0.25391319296743059
20
-0.32578378825961701
30
0
10
-0.25148399670647775
20
-0.32724087087449361
30
0
10
-0.24707343840612969
20
-0.32909499010502941
30
0
10
-0.23965881048117732
20
-0.33090398519773656
30
0
10
-0.22785694855931576
20
-0.33206943022574087
30
0
10
-0.21359348576351844
20
-0.33216890799003046
30
0
10
-0.19701535751608268
20
-0.33126339375777175
30
0
10
-0.17836919184264449
20
-0.32945521221665175
30
0
10
-0.15802888266819828
20
-0.32689966479949945
30
0
10
-0.13651681105183611
20
-0.32381345546983237
30
0
10
-0.11454076697417623
20
-0.32049100205560199
30
0
10
-0.092978903252933287
20
-0.31729459100699842
30
0
10
-0.072784220359016175
20
-0.3146039041721666
30
0
10
-0.05490858769892773
20
-0.31277555583706795
30
0
10
-0.040217931563277937
20
-0.31209774239494575
30
0
10
-0.02941335571354187
20
-0.31274884614608334
30
0
10
-0.022944411243939998
20
-0.31474978619712773
30
0
10
-0.020937540044806996
20
-0.31792931503038691
30
0
10
-0.023088334505476947
20
-0.32185816422299934
30
0
10
-0.028672165299308387
20
-0.32588625054149545
30
0
10
-0.036766413906923048
20
-0.32936982726746539
30
0
10
-0.046408261235289926
20
-0.33183442742607511
30
0
10
-0.056815288536328265
20
-0.33321219149925418
30
0
10
-0.067382362566121817
20
-0.33378792542927577
30
0
10
-0.077592374100185546
20
-0.33402563900446419
30
0
10
-0.086944248672782651
20
-0.33442763738825954
30
0
10
-0.094895898463910486
20
-0.33539231785814294
30
0
10
-0.10074808680034936
20
-0.33704328934852923
30
0
10
-0.10371774484767481
20
-0.33916570127876622
30
0
10
-0.10333028712963412
20
-0.34138599982410828
30
0
10
-0.099880767172726787
20
-0.34331275401357719
30
0
10
-0.094461615043826455
20
-0.34465925041347706
30
0
10
-0.088245854059327389
20
-0.34527842038461803
30
0
10
-0.081837826772161157
20
-0.34523436275107444
30
0
10
-0.074898310782709712
20
-0.3448150911446094
30
0
10
-0.06667006381136982
20
-0.34442260768482252
30
0
10
-0.056343581554014199
20
-0.34448184143898503
30
0
10
-0.043445640265666281
20
-0.34535010971723668
30
0
10
-0.02831830097851696
20
-0.34720698111774317
30
0
10
-0.01214775925146727
20
-0.35003206776020573
30
0
10
0.0034179088140975015
20
-0.35366190370788403
30
0
10
0.016534537403463917
20
-0.35782440682172378
30
0
10
0.025474805898767605
20
-0.36218239721688306
30
0
10
0.028921943101952265
20
-0.36637321979544507
30
0
10
0.026269802999899252
20
-0.37004986068862578
30
0
10
0.01792704831212984
20
-0.37292180382086243
30
0
10
0.0050431318659427023
20
-0.37477294106389847
30
0
10
-0.010777342464063274
20
-0.37547983487535203
30
0
10
-0.027749280603469907
20
-0.3750284540737025
30
0
10
-0.044200017912953762
20
-0.37353502445327591
30
0
10
-0.058822102745329279
20
-0.37125739984238398
30
0
10
-0.071023213936337842
20
-0.36862993025034863
30
0
10
-0.080929035010174497
20
-0.36621477194930319
30
0
10
-0.089019086090930635
20
-0.36456781724821974
30
0
10
-0.095846926889311457
20
-0.36411975760750714
30
0
10
-0.10175473457208295
20
-0.36506714335025209
30
0
10
-0.10652213731469874
20
-0.36722035940796155
30
0
10
-0.1092546037920641
20
-0.36998909777385935
30
0
10
-0.10890497980760669
20
-0.37270919423092025
30
0
10
-0.1047571331549985
20
-0.37496610257654606
30
0
10
-0.096667679231505821
20
-0.37672480969753774
30
0
10
-0.084924735741901042
20
-0.37817173621928357
30
0
10
-0.070206740003703083
20
-0.37963349614262987
30
0
10
-0.053502975066833713
20
-0.38146088103856257
30
0
10
-0.036045841574679882
20
-0.38393614111420921
30
0
10
-0.019250807785383531
20
-0.38714934801848311
30
0
10
-0.0045975811137873449
20
-0.39097997430146308
30
0
10
0.0065363218879482239
20
-0.39514961776306207
30
0
10
0.013025223810320225
20
-0.39925594282146304
30
0
10
0.014157918150603769
20
-0.40280958414895429
30
0
10
0.0097814690653473708
20
-0.40528047046978111
30
0
10
0.00048924887444481123
20
-0.40611273221914351
30
0
10
-0.012474115715312831
20
-0.40492105083409496
30
0
10
-0.027396941819433342
20
-0.40169358354162188
30
0
10
-0.042230422070092623
20
-0.39706942400221207
30
0
10
-0.054793608183135056
20
-0.39241523767405451
30
0
10
-0.062825987498212305
20
-0.39037644896149604
30
0
10
-0.064344642871014782
20
-0.3944498686149851
30
0
10
-0.060067013120133399
20
-0.40212793636710648
30
0
10
-0.052009089963846941
20
-0.40978996706981974
30
0
10
-0.042942984728633872
20
-0.41547860938134257
30
0
10
-0.035634720138877377
20
-0.41955107409451636
30
0
10
-0.032173871465878794
20
-0.42274916067120799
30
0
10
-0.033483624526812104
20
-0.42562733813649983
30
0
10
-0.038199564970167278
20
-0.42615956028305629
30
0
10
-0.043388194772424622
20
-0.4255652320031193
30
0
10
-0.047474065286205472
20
-0.42547592736643891
30
0
10
-0.050201845973852494
20
-0.42574918295048003
30
0
10
-0.051566770090478373
20
-0.42596894722867223
30
0
0
ARC
5
126
100
AcDbEntity
8
0
100
AcDbCircle
10
-0.017901658514160566
20
-0.20036619106208345
30
0
40
0.11402688235958783
210
0
220
0
230
1
100
AcDbArc
50
265.85094477038757
51
307.19484073265471
0
ARC
5
127
100
AcDbEntity
8
0
100
AcDbCircle
10
0.037499999546805232
20
-0.21749999737147035
30
0
40
0.028504385282997424
210
0
220
0
230
1
100
AcDbArc
50
142.12501634890182
51
254.7448812969422
0
LWPOLYLINE
5
128
100
AcDbEntity
8
0
100
AcDbPolyline
90
5
70
1
43
0.0
10
0.060782323879913988
20
-0.25186400274434734
42
-0.66782864239520257
10
0.037688107122352522
20
-0.22485076738550269
42
0.20085367696191003
10
0.057843059928951598
20
-0.23702771803948969
42
-0.34753100085436572
10
0.072539379683763408
20
-0.26292123379796767
42
-1.1541832946242618
10
0.067640606432159495
20
-0.26418091834838014
42
0.5602887997788446
0
ARC
5
129
100
AcDbEntity
8
0
100
AcDbCircle
10
0.1346186449088842
20
-0.31234745957864296
30
0
40
0.023692845163190979
210
0
220
0
230
1
100
AcDbArc
50
218.20211749971369
51
273.34239186437793
0
LINE
5
130
100
AcDbEntity
8
0
100
AcDbLine
10
0.11600000072475962
20
-0.32700000204307239
30
0
11
0.11600000072475962
21
-0.3339534746017408
31
0
0
SPLINE
5
131
100
AcDbEntity
8
0
100
AcDbSpline
70
4
71
5
72
56
73
50
74
0
42
0.000000001
43
0.0000000001
44
0.0000000001
40
0
40
0
40
0
40
0
40
0
40
0
40
0.022222222222222223
40
0.044444444444444446
40
0.066666666666666666
40
0.088888888888888892
40
0.11111111111111112
40
0.13333333333333333
40
0.15555555555555556
40
0.17777777777777778
40
0.20000000000000001
40
0.22222222222222224
40
0.24444444444444446
40
0.26666666666666666
40
0.28888888888888886
40
0.31111111111111106
40
0.33333333333333326
40
0.35555555555555546
40
0.37777777777777766
40
0.39999999999999986
40
0.42222222222222205
40
0.44444444444444425
40
0.46666666666666645
40
0.48888888888888865
40
0.51111111111111085
40
0.5333333333333331
40
0.55555555555555536
40
0.57777777777777761
40
0.59999999999999987
40
0.62222222222222212
40
0.64444444444444438
40
0.66666666666666663
40
0.68888888888888888
40
0.71111111111111114
40
0.73333333333333339
40
0.75555555555555565
40
0.7777777777777779
40
0.80000000000000016
40
0.82222222222222241
40
0.84444444444444466
40
0.86666666666666692
40
0.88888888888888917
40
0.91111111111111143
40
0.93333333333333368
40
0.95555555555555594
40
0.97777777777777819
40
1
40
1
40
1
40
1
40
1
40
1
41
1
41
1
41
1
41
1
41
1
41
1
41
1
41
1
41
1
41
1
41
1
41
1
41
1
41
1
41
1
41
1
41
1
41
1
41
1
41
1
41
1
41
1
41
1
41
1
41
1
41
1
41
1
41
1
41
1
41
1
41
1
41
1
41
1
41
1
41
1
41
1
41
1
41
1
41
1
41
1
41
1
41
1
41
1
41
1
41
1
41
1
41
1
41
1
41
1
41
1
10
0.11600000072475962
20
-0.3339534746017408
30
0
10
0.11677034639325669
20
-0.33407608824418777
30
0
10
0.11824746583304094
20
-0.33435212453445318
30
0
10
0.12027243150137661
20
-0.33485860399774298
30
0
10
0.12259063285220229
20
-0.33571892595527775
30
0
10
0.12485937790619486
20
-0.33709655253819509
30
0
10
0.12652361466886186
20
-0.33875680362714677
30
0
10
0.12763536070423742
20
-0.34065873590908669
30
0
10
0.12828224075298492
20
-0.3427341759214339
30
0
10
0.12860108890568334
20
-0.34487685742566759
30
0
10
0.12877431470433873
20
-0.3469471646628558
30
0
10
0.12899577625689518
20
-0.34880410743106971
30
0
10
0.12944211821358814
20
-0.3503328897233966
30
0
10
0.13024473377307969
20
-0.35147083239298377
30
0
10
0.13145449817418897
20
-0.35224251606543883
30
0
10
0.13303273505558605
20
-0.35276270324004427
30
0
10
0.13488822480826396
20
-0.35318369741646899
30
0
10
0.13690486584969763
20
-0.35365311634012947
30
0
10
0.13897029286888796
20
-0.35427239537063293
30
0
10
0.1410105614017888
20
-0.35504299968341968
30
0
10
0.14299765836972894
20
-0.35586266085335855
30
0
10
0.1449257126795736
20
-0.35657873805784873
30
0
10
0.14679455030688832
20
-0.35702786167548595
30
0
10
0.14859242006008444
20
-0.35707788928051187
30
0
10
0.15027396884746258
20
-0.35667661768791203
30
0
10
0.15175678357115652
20
-0.35587257961678403
30
0
10
0.15295797614963794
20
-0.35477259451852911
30
0
10
0.15382510154088039
20
-0.35351134961585079
30
0
10
0.15436389491516508
20
-0.35221891963262475
30
0
10
0.15468125145999284
20
-0.35098274473308211
30
0
10
0.15495815266148097
20
-0.34984170736535908
30
0
10
0.15537520775056127
20
-0.34880182029846019
30
0
10
0.15605550654626682
20
-0.34784513787110577
30
0
10
0.15699345090689618
20
-0.34694162919514321
30
0
10
0.15800885325846209
20
-0.34605896738561676
30
0
10
0.15883433677043904
20
-0.34516704038053159
30
0
10
0.1591904798926472
20
-0.34424316659166415
30
0
10
0.15885953738906988
20
-0.34327654221294629
30
0
10
0.15777517723018014
20
-0.34227438281818662
30
0
10
0.15600508660779769
20
-0.34125863411804552
30
0
10
0.15370082761502907
20
-0.34025993022932161
30
0
10
0.15105764097655763
20
-0.3393123167999923
30
0
10
0.14827335978014222
20
-0.33844808811826887
30
0
10
0.14550010929930488
20
-0.33769152732193941
30
0
10
0.14283580084962635
20
-0.33705811229842852
30
0
10
0.1403397692493569
20
-0.33655698871829615
30
0
10
0.13850062558180587
20
-0.3362653280910331
30
0
10
0.13721420674794088
20
-0.33610857667593763
30
0
10
0.13639785843912325
20
-0.3360316053153955
30
0
10
0.13600000084971819
20
-0.33600000209930375
30
0
0
SPLINE
5
132
100
AcDbEntity
8
0
100
AcDbSpline
70
6
71
5
72
31
73
25
74
0
42
0.000000001
43
0.0000000001
44
0.0000000001
40
0
40
0
40
0
40
0
40
0
40
0
40
0.050000000000000003
40
0.10000000000000001
40
0.15000000000000002
40
0.20000000000000001
40
0.25
40
0.29999999999999999
40
0.34999999999999998
40
0.39999999999999997
40
0.44999999999999996
40
0.49999999999999994
40
0.54999999999999993
40
0.59999999999999998
40
0.65000000000000002
40
0.70000000000000007
40
0.75000000000000011
40
0.80000000000000016
40
0.8500000000000002
40
0.90000000000000024
40
0.95000000000000029
40
1
40
1
40
1
40
1
40
1
40
1
41
1
41
1
41
1
41
1
41
1
41
1
41
1
41
1
41
1
41
1
41
1
41
1
41
1
41
1
41
1
41
1
41
1
41
1
41
1
41
1
41
1
41
1
41
1
41
1
41
1
10
0.16850563863217544
20
-0.3583884512821755
30
0
10
0.16932907973546138
20
-0.35789775717041111
30
0
10
0.17100464530459894
20
-0.35690405580094298
30
0
10
0.1735641116462375
20
-0.35539904772776792
30
0
10
0.17691724100458767
20
-0.35348654623808318
30
0
10
0.18067423837406271
20
-0.35163693338655622
30
0
10
0.1837098544570995
20
-0.35070130216281969
30
0
10
0.18579071929344479
20
-0.35095007486793867
30
0
10
0.18674361048006038
20
-0.35246618234267862
30
0
10
0.18646320922845999
20
-0.35503481142439453
30
0
10
0.18492392551039163
20
-0.35823347441961872
30
0
10
0.18219364504582555
20
-0.36154912120984484
30
0
10
0.17845028522363859
20
-0.36448418159357088
30
0
10
0.17399874350555608
20
-0.3666639478246585
30
0
10
0.16929520196250625
20
-0.367952611753254
30
0
10
0.16487193102204553
20
-0.36838947998500898
30
0
10
0.16125949958781063
20
-0.36811918331559718
30
0
10
0.15890679960118104
20
-0.36732446483372083
30
0
10
0.15810778178374535
20
-0.3661656225581873
30
0
10
0.15890238624963532
20
-0.36470242152252969
30
0
10
0.16111395393479572
20
-0.36292570482564196
30
0
10
0.1637626826063171
20
-0.3612424102312134
30
0
10
0.16606399868488289
20
-0.35984822047152909
30
0
10
0.16768219752888938
20
-0.35887914539393984
30
0
10
0.16850563863217544
20
-0.3583884512821755
30
0
0
SPLINE
5
133
100
AcDbEntity
8
0
100
AcDbSpline
70
6
71
5
72
61
73
55
74
0
42
0.000000001
43
0.0000000001
44
0.0000000001
40
0
40
0
40
0
40
0
40
0
40
0
40
0.02
40
0.040000000000000001
40
0.059999999999999998
40
0.080000000000000002
40
0.10000000000000001
40
0.12000000000000001
40
0.14000000000000001
40
0.16
40
0.17999999999999999
40
0.19999999999999998
40
0.21999999999999997
40
0.23999999999999996
40
0.25999999999999995
40
0.27999999999999997
40
0.29999999999999999
40
0.32000000000000001
40
0.34000000000000002
40
0.36000000000000004
40
0.38000000000000006
40
0.40000000000000008
40
0.4200000000000001
40
0.44000000000000011
40
0.46000000000000013
40
0.48000000000000015
40
0.50000000000000011
40
0.52000000000000013
40
0.54000000000000015
40
0.56000000000000016
40
0.58000000000000018
40
0.6000000000000002
40
0.62000000000000022
40
0.64000000000000024
40
0.66000000000000025
40
0.68000000000000027
40
0.70000000000000029
40
0.72000000000000031
40
0.74000000000000032
40
0.76000000000000034
40
0.78000000000000036
40
0.80000000000000038
40
0.8200000000000004
40
0.84000000000000041
40
0.86000000000000043
40
0.88000000000000045
40
0.90000000000000047
40
0.92000000000000048
40
0.9400000000000005
40
0.96000000000000052
40
0.98000000000000054
40
1
40
1
40
1
40
1
40
1
40
1
41
1
41
1
41
1
41
1
41
1
41
1
41
1
41
1
41
1
41
1
41
1
41
1
41
1
41
1
41
1
41
1
41
1
41
1
41
1
41
1
41
1
41
1
41
1
41
1
41
1
41
1
41
1
41
1
41
1
41
1
41
1
41
1
41
1
41
1
41
1
41
1
41
1
41
1
41
1
41
1
41
1
41
1
41
1
41
1
41
1
41
1
41
1
41
1
41
1
41
1
41
1
41
1
41
1
41
1
41
1
10
0.085000000531073858
20
-0.21000000131206484
30
0
10
0.08500692922355893
20
-0.2098275814115739
30
0
10
0.085075640389267376
20
-0.20951512790515522
30
0
10
0.085335233709167721
20
-0.2091473593157602
30
0
10
0.085955851835231328
20
-0.20886018006802148
30
0
10
0.08706843346939884
20
-0.20878835367040519
30
0
10
0.088380334168740596
20
-0.208910238701777
30
0
10
0.089745590348997373
20
-0.20910401576511389
30
0
10
0.091015752535646491
20
-0.20923123601299509
30
0
10
0.092055132331432407
20
-0.20915545529980015
30
0
10
0.092764254965656393
20
-0.20876707550409249
30
0
10
0.093100293993872013
20
-0.20800573510668269
30
0
10
0.093100601587885232
20
-0.20688548917197613
30
0
10
0.092900295741063968
20
-0.20551430435721621
30
0
10
0.092690210924641692
20
-0.20405574108204991
30
0
10
0.092678261415373622
20
-0.20269392895665056
30
0
10
0.093051645912931732
20
-0.20159943913522277
30
0
10
0.093933792991517384
20
-0.2008898879425981
30
0
10
0.09535946772308973
20
-0.2006087453981239
30
0
10
0.097290924824235472
20
-0.20074512819679494
30
0
10
0.099625372741308019
20
-0.2012450874471344
30
0
10
0.10220591117866683
20
-0.20202608897810032
30
0
10
0.10483033023282635
20
-0.20299017194771274
30
0
10
0.1072621021928292
20
-0.20403720960974511
30
0
10
0.10926333700322063
20
-0.20507294431555112
30
0
10
0.11062543289922523
20
-0.20601720614129831
30
0
10
0.11120245452393199
20
-0.20681264751079842
30
0
10
0.11093941293447263
20
-0.20743203472528957
30
0
10
0.10991336120948114
20
-0.20788948169797561
30
0
10
0.10831604421855517
20
-0.20823350757110318
30
0
10
0.10640777905867173
20
-0.20853127745419101
30
0
10
0.10448000701446432
20
-0.20885523025839256
30
0
10
0.10281563861062978
20
-0.20926972121218512
30
0
10
0.10164718327376568
20
-0.2098151701291403
30
0
10
0.10113211244452243
20
-0.21050675741030089
30
0
10
0.1013340504180497
20
-0.21133979371020561
30
0
10
0.10220574278379328
20
-0.21229278712442851
30
0
10
0.10356195440608974
20
-0.21333165203249471
30
0
10
0.10508573936427106
20
-0.21441262375272246
30
0
10
0.10640702900369949
20
-0.21548354557136906
30
0
10
0.10716884361210492
20
-0.21648524734706984
30
0
10
0.10709287299230041
20
-0.21735325678101136
30
0
10
0.10605883946421617
20
-0.21801842303440924
30
0
10
0.10413203503540058
20
-0.2184112564171708
30
0
10
0.10150091584482894
20
-0.21847287098826873
30
0
10
0.098436375583120211
20
-0.21816406311022865
30
0
10
0.095241162767493684
20
-0.21747600215328772
30
0
10
0.092206908230978671
20
-0.21643845481612389
30
0
10
0.089559768761407005
20
-0.21513383684588264
30
0
10
0.087446910803707395
20
-0.21368822078364211
30
0
10
0.085951190833146285
20
-0.21224603163461508
30
0
10
0.085268158941060865
20
-0.21120889254846473
30
0
10
0.085034068234357024
20
-0.21054964730810111
30
0
10
0.084993071838588827
20
-0.21017242121255578
30
0
10
0.085000000531073858
20
-0.21000000131206484
30
0
0
SPLINE
5
134
100
AcDbEntity
8
0
100
AcDbSpline
70
6
71
5
72
86
73
80
74
0
42
0.000000001
43
0.0000000001
44
0.0000000001
40
0
40
0
40
0
40
0
40
0
40
0
40
0.013333333333333334
40
0.026666666666666668
40
0.040000000000000001
40
0.053333333333333337
40
0.066666666666666666
40
0.080000000000000002
40
0.093333333333333338
40
0.10666666666666667
40
0.12000000000000001
40
0.13333333333333333
40
0.14666666666666667
40
0.16
40
0.17333333333333334
40
0.18666666666666668
40
0.20000000000000001
40
0.21333333333333335
40
0.22666666666666668
40
0.24000000000000002
40
0.25333333333333335
40
0.26666666666666666
40
0.27999999999999997
40
0.29333333333333328
40
0.30666666666666659
40
0.3199999999999999
40
0.3333333333333332
40
0.34666666666666651
40
0.35999999999999982
40
0.37333333333333313
40
0.38666666666666644
40
0.39999999999999974
40
0.41333333333333305
40
0.42666666666666636
40
0.43999999999999967
40
0.45333333333333298
40
0.46666666666666629
40
0.47999999999999959
40
0.4933333333333329
40
0.50666666666666627
40
0.51999999999999957
40
0.53333333333333288
40
0.54666666666666619
40
0.5599999999999995
40
0.57333333333333281
40
0.58666666666666611
40
0.59999999999999942
40
0.61333333333333273
40
0.62666666666666604
40
0.63999999999999935
40
0.65333333333333266
40
0.66666666666666596
40
0.67999999999999927
40
0.69333333333333258
40
0.70666666666666589
40
0.7199999999999992
40
0.7333333333333325
40
0.74666666666666581
40
0.75999999999999912
40
0.77333333333333243
40
0.78666666666666574
40
0.79999999999999905
40
0.81333333333333235
40
0.82666666666666566
40
0.83999999999999897
40
0.85333333333333228
40
0.86666666666666559
40
0.87999999999999889
40
0.8933333333333322
40
0.90666666666666551
40
0.91999999999999882
40
0.93333333333333213
40
0.94666666666666544
40
0.95999999999999874
40
0.97333333333333205
40
0.98666666666666536
40
1
40
1
40
1
40
1
40
1
40
1
41
1
41
1
41
1
41
1
41
1
41
1
41
1
41
1
41
1
41
1
41
1
41
1
41
1
41
1
41
1
41
1
41
1
41
1
41
1
41
1
41
1
41
1
41
1
41
1
41
1
41
1
41
1
41
1
41
1
41
1
41
1
41
1
41
1
41
1
41
1
41
1
41
1
41
1
41
1
41
1
41
1
41
1
41
1
41
1
41
1
41
1
41
1
41
1
41
1
41
1
41
1
41
1
41
1
41
1
41
1
41
1
41
1
41
1
41
1
41
1
41
1
41
1
41
1
41
1
41
1
41
1
41
1
41
1
41
1
41
1
41
1
41
1
41
1
41
1
41
1
41
1
41
1
41
1
41
1
41
1
10
-0.11802058011102233
20
-0.2111740969030822
30
0
10
-0.11809634250258157
20
-0.21079850244618051
30
0
10
-0.11822437859854924
20
-0.21010797613046892
30
0
10
-0.11833726981324744
20
-0.20926850014768691
30
0
10
-0.11829780602003548
20
-0.20857905495482965
30
0
10
-0.11788359751687098
20
-0.20842746886488606
30
0
10
-0.11710266407133917
20
-0.20888154258297953
30
0
10
-0.1160146387827774
20
-0.20973959329526354
30
0
10
-0.11475697611262066
20
-0.21070273260312117
30
0
10
-0.11350271348622099
20
-0.21144112115510982
30
0
10
-0.11241521673879039
20
-0.2116642838287324
30
0
10
-0.11160692153230435
20
-0.21118546466628552
30
0
10
-0.11108961065757642
20
-0.20999908538693604
30
0
10
-0.11074882998094279
20
-0.20832066749902126
30
0
10
-0.11040926849548709
20
-0.20648496279266329
30
0
10
-0.10988639564339901
20
-0.20486561319610599
30
0
10
-0.10904278801182124
20
-0.20378732938461849
30
0
10
-0.10784403407266561
20
-0.20343920275545821
30
0
10
-0.10641061453867023
20
-0.20379308046999178
30
0
10
-0.10495041801456446
20
-0.20468026247671803
30
0
10
-0.10369549072209466
20
-0.20586234023186856
30
0
10
-0.10283828819735572
20
-0.20710310197875437
30
0
10
-0.10246567672432935
20
-0.20824236656290207
30
0
10
-0.10250064386542035
20
-0.20926227995765764
30
0
10
-0.10276246256907902
20
-0.21023606235739556
30
0
10
-0.10302199198510865
20
-0.21128169724349058
30
0
10
-0.10305503023869889
20
-0.21251727999844869
30
0
10
-0.10270536908853384
20
-0.21400738540052028
30
0
10
-0.10191098601070046
20
-0.21574383415865048
30
0
10
-0.10068245124305933
20
-0.21767130464554987
30
0
10
-0.099093401736219014
20
-0.21970136937752502
30
0
10
-0.097266399680087587
20
-0.22173157910951727
30
0
10
-0.095360372273091021
20
-0.22366145062012979
30
0
10
-0.093558541075663748
20
-0.22541198832500151
30
0
10
-0.092052444496144456
20
-0.22693635666552656
30
0
10
-0.091016727194894356
20
-0.22821297109178193
30
0
10
-0.090585937573180883
20
-0.22924225659159059
30
0
10
-0.090830359252252094
20
-0.23004197249025715
30
0
10
-0.091732457359307115
20
-0.23064317493373171
30
0
10
-0.093162227599486738
20
-0.23108592211964177
30
0
10
-0.094922490498113771
20
-0.23141560662219712
30
0
10
-0.096793670623913808
20
-0.2316792608997901
30
0
10
-0.098580898215636148
20
-0.23192185521859915
30
0
10
-0.10015518068127903
20
-0.23218265356556111
30
0
10
-0.10150983970991273
20
-0.23249139347843251
30
0
10
-0.10273680996304026
20
-0.23286550438917641
30
0
10
-0.10397350460448215
20
-0.23330797398385048
30
0
10
-0.10535708566271816
20
-0.2338045488076077
30
0
10
-0.10698067828807251
20
-0.23432217183139226
30
0
10
-0.1088361548809585
20
-0.23480441297144203
30
0
10
-0.11082268464945205
20
-0.23517989776945841
30
0
10
-0.11279472003639464
20
-0.23537834320532502
30
0
10
-0.11459797145499184
20
-0.23534433756061912
30
0
10
-0.11611005473257627
20
-0.23505192088919899
30
0
10
-0.11727980796968425
20
-0.23451919832152027
30
0
10
-0.11816553063214967
20
-0.23382208332619725
30
0
10
-0.11888432254051562
20
-0.23306470466824655
30
0
10
-0.1195604122486227
20
-0.23234887040850388
30
0
10
-0.12027922365805982
20
-0.2317472872081367
30
0
10
-0.12102626649456846
20
-0.23126707483683562
30
0
10
-0.12167739638318827
20
-0.23084607718673544
30
0
10
-0.12207281737391454
20
-0.23040354538850388
30
0
10
-0.12206778031338004
20
-0.22987455151936478
30
0
10
-0.12160063878638284
20
-0.2292586640767412
30
0
10
-0.12072873965890511
20
-0.2286387035122654
30
0
10
-0.1195814140878145
20
-0.22812121543632705
30
0
10
-0.11832636417761125
20
-0.22778772853094229
30
0
10
-0.11713291278401192
20
-0.22764778205689365
30
0
10
-0.11613137329092968
20
-0.22757582344008306
30
0
10
-0.11540640325984863
20
-0.22735148315630918
30
0
10
-0.1150027763936083
20
-0.22673995428929836
30
0
10
-0.11492723822192814
20
-0.22555298934317008
30
0
10
-0.11515132034168943
20
-0.22373230862443716
30
0
10
-0.11561601082334461
20
-0.22137108756271809
30
0
10
-0.11624009813851505
20
-0.21865999541418046
30
0
10
-0.1169275059838024
20
-0.21585218248127558
30
0
10
-0.11744551484992986
20
-0.21374698223711561
30
0
10
-0.11776980424919355
20
-0.21236154287187903
30
0
10
-0.11794481771946308
20
-0.21154969135998392
30
0
10
-0.11802058011102233
20
-0.2111740969030822
30
0
0
SPLINE
5
135
100
AcDbEntity
8
0
100
AcDbSpline
70
6
71
5
72
51
73
45
74
0
42
0.000000001
43
0.0000000001
44
0.0000000001
40
0
40
0
40
0
40
0
40
0
40
0
40
0.025000000000000001
40
0.050000000000000003
40
0.075000000000000011
40
0.10000000000000001
40
0.125
40
0.14999999999999999
40
0.17499999999999999
40
0.19999999999999998
40
0.22499999999999998
40
0.24999999999999997
40
0.27499999999999997
40
0.29999999999999999
40
0.32500000000000001
40
0.35000000000000003
40
0.37500000000000006
40
0.40000000000000008
40
0.4250000000000001
40
0.45000000000000012
40
0.47500000000000014
40
0.50000000000000011
40
0.52500000000000013
40
0.55000000000000016
40
0.57500000000000018
40
0.6000000000000002
40
0.62500000000000022
40
0.65000000000000024
40
0.67500000000000027
40
0.70000000000000029
40
0.72500000000000031
40
0.75000000000000033
40
0.77500000000000036
40
0.80000000000000038
40
0.8250000000000004
40
0.85000000000000042
40
0.87500000000000044
40
0.90000000000000047
40
0.92500000000000049
40
0.95000000000000051
40
0.97500000000000053
40
1
40
1
40
1
40
1
40
1
40
1
41
1
41
1
41
1
41
1
41
1
41
1
41
1
41
1
41
1
41
1
41
1
41
1
41
1
41
1
41
1
41
1
41
1
41
1
41
1
41
1
41
1
41
1
41
1
41
1
41
1
41
1
41
1
41
1
41
1
41
1
41
1
41
1
41
1
41
1
41
1
41
1
41
1
41
1
41
1
41
1
41
1
41
1
41
1
41
1
41
1
10
-0.17900000111837908
20
-0.23500000146826303
30
0
10
-0.17921246276213865
20
-0.2345733273109292
30
0
10
-0.17953329036770005
20
-0.23376056428700107
30
0
10
-0.17970418550826847
20
-0.23267596712505625
30
0
10
-0.17935868941482133
20
-0.23153083828533763
30
0
10
-0.17822272793962621
20
-0.23059641679056583
30
0
10
-0.17670095862354976
20
-0.23008049708275385
30
0
10
-0.17511708894951503
20
-0.22984355428381734
30
0
10
-0.17372723710092272
20
-0.22969160242950243
30
0
10
-0.17269254842154458
20
-0.22940692686927613
30
0
10
-0.17208686660196706
20
-0.22880092034103403
30
0
10
-0.17189570072374885
20
-0.22775640091993568
30
0
10
-0.17201446327611228
20
-0.22628415404853877
30
0
10
-0.17225900622126794
20
-0.22454312953853384
30
0
10
-0.17241133875325554
20
-0.22277345766200565
30
0
10
-0.172259882674063
20
-0.22124466339609947
30
0
10
-0.1716384209755808
20
-0.22020181879964565
30
0
10
-0.17047447895552703
20
-0.21980305359170704
30
0
10
-0.1687855108122242
20
-0.22011325608942056
30
0
10
-0.16665272170831075
20
-0.2211225096585234
30
0
10
-0.1642023320616533
20
-0.22275608191007981
30
0
10
-0.16158418263052857
20
-0.22488776847040873
30
0
10
-0.15895112239005363
20
-0.22735103883064847
30
0
10
-0.15644938035809744
20
-0.22996134757958034
30
0
10
-0.15420986318408397
20
-0.23253879498603452
30
0
10
-0.15233906078553849
20
-0.23493060776236802
30
0
10
-0.15090996263931372
20
-0.23703390051339876
30
0
10
-0.14995292311926053
20
-0.23881823126941401
30
0
10
-0.14944599210205228
20
-0.2403493977369861
30
0
10
-0.14934031512041257
20
-0.24174223036792855
30
0
10
-0.14958793921214805
20
-0.24310941976695416
30
0
10
-0.15016527805286745
20
-0.2445169197899025
30
0
10
-0.15110649423248129
20
-0.24592447926428709
30
0
10
-0.15250547519177624
20
-0.24717293849017782
30
0
10
-0.15446445537519859
20
-0.24805199415173559
30
0
10
-0.15705230236444884
20
-0.24835193045830178
30
0
10
-0.16026380681859437
20
-0.24791695075262071
30
0
10
-0.16396613612309224
20
-0.24670960708607753
30
0
10
-0.16789368651969044
20
-0.24482937703855839
30
0
10
-0.17171418318856788
20
-0.24246287239974629
30
0
10
-0.17507711023740502
20
-0.23985112973579109
30
0
10
-0.1771507642268868
20
-0.23777047400951487
30
0
10
-0.17825852050514263
20
-0.23632060923100381
30
0
10
-0.17878753947461945
20
-0.23542667562559674
30
0
10
-0.17900000111837908
20
-0.23500000146826303
30
0
0
SPLINE
5
136
100
AcDbEntity
8
0
100
AcDbSpline
70
4
71
5
72
51
73
45
74
0
42
0.000000001
43
0.0000000001
44
0.0000000001
40
0
40
0
40
0
40
0
40
0
40
0
40
0.025000000000000001
40
0.050000000000000003
40
0.075000000000000011
40
0.10000000000000001
40
0.125
40
0.14999999999999999
40
0.17499999999999999
40
0.19999999999999998
40
0.22499999999999998
40
0.24999999999999997
40
0.27499999999999997
40
0.29999999999999999
40
0.32500000000000001
40
0.35000000000000003
40
0.37500000000000006
40
0.40000000000000008
40
0.4250000000000001
40
0.45000000000000012
40
0.47500000000000014
40
0.50000000000000011
40
0.52500000000000013
40
0.55000000000000016
40
0.57500000000000018
40
0.6000000000000002
40
0.62500000000000022
40
0.65000000000000024
40
0.67500000000000027
40
0.70000000000000029
40
0.72500000000000031
40
0.75000000000000033
40
0.77500000000000036
40
0.80000000000000038
40
0.8250000000000004
40
0.85000000000000042
40
0.87500000000000044
40
0.90000000000000047
40
0.92500000000000049
40
0.95000000000000051
40
0.97500000000000053
40
1
40
1
40
1
40
1
40
1
40
1
41
1
41
1
41
1
41
1
41
1
41
1
41
1
41
1
41
1
41
1
41
1
41
1
41
1
41
1
41
1
41
1
41
1
41
1
41
1
41
1
41
1
41
1
41
1
41
1
41
1
41
1
41
1
41
1
41
1
41
1
41
1
41
1
41
1
41
1
41
1
41
1
41
1
41
1
41
1
41
1
41
1
41
1
41
1
41
1
41
1
10
-0.30999999625358993
20
0.0099999998791480624
30
0
10
-0.31151943725267006
20
0.0092048011789057863
30
0
10
-0.31452847425392733
20
0.0073705352932799994
30
0
10
-0.31895251812519493
20
0.0038874935219277164
30
0
10
-0.32467183557688301
20
-0.0022210133375147804
30
0
10
-0.33148485370261416
20
-0.012225199902280394
30
0
10
-0.33784834700763072
20
-0.02436001678268283
30
0
10
-0.34354326797701806
20
-0.03814823939648132
30
0
10
-0.34818937683718343
20
-0.052757256372570886
30
0
10
-0.35129747091364172
20
-0.067057289809587847
30
0
10
-0.35238814936023027
20
-0.079791017961371211
30
0
10
-0.35109468932470095
20
-0.0897093151185204
30
0
10
-0.34726394717471754
20
-0.0957204408521551
30
0
10
-0.34108250815116248
20
-0.097035848359182789
30
0
10
-0.33298628869663316
20
-0.093281330663428252
30
0
10
-0.32353609125880189
20
-0.084578235949279726
30
0
10
-0.31329194314993292
20
-0.071683941859194383
30
0
10
-0.30276449080513873
20
-0.055852994721534412
30
0
10
-0.29240226657951074
20
-0.038583987251307225
30
0
10
-0.28256732561367964
20
-0.0214101608725921
30
0
10
-0.27351438605235828
20
-0.0056603456758573933
30
0
10
-0.26537035192664249
20
0.0077400493667788258
30
0
10
-0.25810723609539149
20
0.018556300672755505
30
0
10
-0.2515419277284297
20
0.02719911253215225
30
0
10
-0.24535641945604741
20
0.034411897770385204
30
0
10
-0.23911344722640007
20
0.04104420695388182
30
0
10
-0.23226919266211879
20
0.047773281262744778
30
0
10
-0.22419908922677009
20
0.054898408481126718
30
0
10
-0.21429874488199049
20
0.062464555137948269
30
0
10
-0.20208094899461398
20
0.070350739456807865
30
0
10
-0.18726425401806274
20
0.078364763592134928
30
0
10
-0.16989145935236252
20
0.086350175896782788
30
0
10
-0.15033287156031325
20
0.094225035003020846
30
0
10
-0.12918621623868734
20
0.10195647255366266
30
0
10
-0.10720620038472103
20
0.10955352573864413
30
0
10
-0.085223580331678622
20
0.1170527670274859
30
0
10
-0.064067442783531645
20
0.12450694164732075
30
0
10
-0.044490391270758829
20
0.13197293134022905
30
0
10
-0.027082147254906798
20
0.13949877474372468
30
0
10
-0.012219365177377249
20
0.14711510726442534
30
0
10
-0.00012294465626913896
20
0.15484031637800433
30
0
10
0.0072591339228467566
20
0.16111459566264993
30
0
10
0.01149186286875779
20
0.16587446834898956
30
0
10
0.013734813306446651
20
0.16907176209322972
30
0
10
0.014711570056531675
20
0.17067642044670106
30
0
0
SPLINE
5
137
100
AcDbEntity
8
0
100
AcDbSpline
70
4
71
5
72
21
73
15
74
0
42
0.000000001
43
0.0000000001
44
0.0000000001
40
0
40
0
40
0
40
0
40
0
40
0
40
0.10000000000000001
40
0.20000000000000001
40
0.30000000000000004
40
0.40000000000000002
40
0.5
40
0.59999999999999998
40
0.69999999999999996
40
0.79999999999999993
40
0.89999999999999991
40
1
40
1
40
1
40
1
40
1
40
1
41
1
41
1
41
1
41
1
41
1
41
1
41
1
41
1
41
1
41
1
41
1
41
1
41
1
41
1
41
1
10
0.13271867237322027
20
0.10861147463162989
30
0
10
0.13301283696686023
20
0.10829211082552005
30
0
10
0.1336442979585262
20
0.10767393487570763
30
0
10
0.13472088662109882
20
0.10680832677773679
30
0
10
0.13641937485713049
20
0.10577951571042772
30
0
10
0.1390096707511648
20
0.10471610885621148
30
0
10
0.14210512224958666
20
0.10389340112399593
30
0
10
0.14574107862269867
20
0.10332823591462197
30
0
10
0.14992590474027584
20
0.10302459896396458
30
0
10
0.15462694587343592
20
0.10296693078005385
30
0
10
0.15980038147012621
20
0.10313435152247311
30
0
10
0.16428371503628683
20
0.10343247777919434
30
0
10
0.16782735849018696
20
0.10374238454647859
30
0
10
0.17026897192730378
20
0.1039867192776085
30
0
10
0.17150957597267391
20
0.10411831977455034
30
0
0
SPLINE
5
138
100
AcDbEntity
8
0
100
AcDbSpline
70
6
71
5
72
66
73
60
74
0
42
0.000000001
43
0.0000000001
44
0.0000000001
40
0
40
0
40
0
40
0
40
0
40
0
40
0.018181818181818181
40
0.036363636363636362
40
0.054545454545454543
40
0.072727272727272724
40
0.090909090909090912
40
0.1090909090909091
40
0.12727272727272729
40
0.14545454545454548
40
0.16363636363636366
40
0.18181818181818185
40
0.20000000000000004
40
0.21818181818181823
40
0.23636363636363641
40
0.25454545454545457
40
0.27272727272727276
40
0.29090909090909095
40
0.30909090909090914
40
0.32727272727272733
40
0.34545454545454551
40
0.3636363636363637
40
0.38181818181818189
40
0.40000000000000008
40
0.41818181818181827
40
0.43636363636363645
40
0.45454545454545464
40
0.47272727272727283
40
0.49090909090909102
40
0.50909090909090915
40
0.52727272727272734
40
0.54545454545454553
40
0.56363636363636371
40
0.5818181818181819
40
0.60000000000000009
40
0.61818181818181828
40
0.63636363636363646
40
0.65454545454545465
40
0.67272727272727284
40
0.69090909090909103
40
0.70909090909090922
40
0.7272727272727274
40
0.74545454545454559
40
0.76363636363636378
40
0.78181818181818197
40
0.80000000000000016
40
0.81818181818181834
40
0.83636363636363653
40
0.85454545454545472
40
0.87272727272727291
40
0.89090909090909109
40
0.90909090909090928
40
0.92727272727272747
40
0.94545454545454566
40
0.96363636363636385
40
0.98181818181818203
40
1
40
1
40
1
40
1
40
1
40
1
41
1
41
1
41
1
41
1
41
1
41
1
41
1
41
1
41
1
41
1
41
1
41
1
41
1
41
1
41
1
41
1
41
1
41
1
41
1
41
1
41
1
41
1
41
1
41
1
41
1
41
1
41
1
41
1
41
1
41
1
41
1
41
1
41
1
41
1
41
1
41
1
41
1
41
1
41
1
41
1
41
1
41
1
41
1
41
1
41
1
41
1
41
1
41
1
41
1
41
1
41
1
41
1
41
1
41
1
41
1
41
1
41
1
41
1
41
1
41
1
10
0.25105075679520511
20
0.12911220963150707
30
0
10
0.25103479671515189
20
0.12925339090297897
30
0
10
0.25112165712450413
20
0.12956457978929434
30
0
10
0.25160269477984099
20
0.13011451600779791
30
0
10
0.2528711447453369
20
0.13101800297771565
30
0
10
0.25514848456968797
20
0.13249236285329041
30
0
10
0.25768748203386838
20
0.1343907996913925
30
0
10
0.26007622912174794
20
0.13677471855995002
30
0
10
0.26200537523623674
20
0.13965648144617956
30
0
10
0.26337937007979445
20
0.14295766382813613
30
0
10
0.26429436160961006
20
0.14651844706710926
30
0
10
0.26495729226109332
20
0.15012933627055772
30
0
10
0.26562555368832891
20
0.15355540463634373
30
0
10
0.26653504006284628
20
0.15656401398055061
30
0
10
0.26784061564248723
20
0.15895000626003872
30
0
10
0.26953298056833047
20
0.16056454158556283
30
0
10
0.27142868761013611
20
0.16133356800576185
30
0
10
0.27327205476859534
20
0.1612592216371537
30
0
10
0.27481445254788484
20
0.16042671219680787
30
0
10
0.2758947700157009
20
0.1590062798846329
30
0
10
0.27653977374088018
20
0.15726496642103116
30
0
10
0.2769172683636496
20
0.15552222387979023
30
0
10
0.27724085099805373
20
0.15408666913115895
30
0
10
0.27769696135380512
20
0.15320337693120714
30
0
10
0.27834905676973082
20
0.15298687816559023
30
0
10
0.27909476091528129
20
0.15339137702369215
30
0
10
0.27977438776026464
20
0.1542911077006642
30
0
10
0.28024299232260874
20
0.15553362763944747
30
0
10
0.28047738294179159
20
0.15701940416074825
30
0
10
0.28059245966126678
20
0.15871239268916909
30
0
10
0.28075832174335069
20
0.16057588668962688
30
0
10
0.28114057412721399
20
0.16252438339026082
30
0
10
0.28183600887418908
20
0.16437545123131558
30
0
10
0.2827977506306168
20
0.16578418986915042
30
0
10
0.28387315223648002
20
0.16633881467825676
30
0
10
0.2848677469926218
20
0.16569650234875721
30
0
10
0.28559633389672806
20
0.16369331173510698
30
0
10
0.28594858213495228
20
0.16049537220292037
30
0
10
0.28588769356595539
20
0.15653196797716712
30
0
10
0.28542989563357601
20
0.15236253119689214
30
0
10
0.28463049851882499
20
0.14856899038979249
30
0
10
0.2835671162486878
20
0.14563098734622515
30
0
10
0.28232464074100277
20
0.1438238008304272
30
0
10
0.2809783329584909
20
0.14306718419843317
30
0
10
0.27958284969539798
20
0.14297268430039345
30
0
10
0.2781643619741247
20
0.1430255223344469
30
0
10
0.27671266586100451
20
0.14272086155675018
30
0
10
0.27517105934420077
20
0.14173049898006282
30
0
10
0.27343351882398748
20
0.14002219255887033
30
0
10
0.27138407086182281
20
0.13776199750686585
30
0
10
0.26892989610778761
20
0.13524400931793171
30
0
10
0.26603894416173984
20
0.13280764696809863
30
0
10
0.2627710720744999
20
0.13076553773112914
30
0
10
0.25932346786380406
20
0.12931443129495432
30
0
10
0.25603280913538007
20
0.12849425252973137
30
0
10
0.25328359079709006
20
0.12824981323278967
30
0
10
0.25180540507456167
20
0.12842699303227587
30
0
10
0.25121741760482347
20
0.12871749216046274
30
0
10
0.25106671687525844
20
0.1289710283600351
30
0
10
0.25105075679520511
20
0.12911220963150707
30
0
0
LWPOLYLINE
5
139
100
AcDbEntity
8
0
100
AcDbPolyline
90
2
70
1
43
0.0
10
0.29503361015415941
20
0.17254496195877767
42
-0.42875149642179766
10
0.29356618963020831
20
0.15026685036788334
0
SPLINE
5
140
100
AcDbEntity
8
0
100
AcDbSpline
70
6
71
5
72
76
73
70
74
0
42
0.000000001
43
0.0000000001
44
0.0000000001
40
0
40
0
40
0
40
0
40
0
40
0
40
0.015384615384615385
40
0.030769230769230771
40
0.046153846153846156
40
0.061538461538461542
40
0.076923076923076927
40
0.092307692307692313
40
0.1076923076923077
40
0.12307692307692308
40
0.13846153846153847
40
0.15384615384615385
40
0.16923076923076924
40
0.18461538461538463
40
0.20000000000000001
40
0.2153846153846154
40
0.23076923076923078
40
0.24615384615384617
40
0.26153846153846155
40
0.27692307692307694
40
0.29230769230769232
40
0.30769230769230771
40
0.32307692307692309
40
0.33846153846153848
40
0.35384615384615387
40
0.36923076923076925
40
0.38461538461538464
40
0.40000000000000002
40
0.41538461538461541
40
0.43076923076923079
40
0.44615384615384618
40
0.46153846153846156
40
0.47692307692307695
40
0.49230769230769234
40
0.50769230769230766
40
0.52307692307692299
40
0.53846153846153832
40
0.55384615384615365
40
0.56923076923076898
40
0.58461538461538431
40
0.59999999999999964
40
0.61538461538461497
40
0.6307692307692303
40
0.64615384615384563
40
0.66153846153846096
40
0.67692307692307629
40
0.69230769230769162
40
0.70769230769230695
40
0.72307692307692228
40
0.73846153846153761
40
0.75384615384615294
40
0.76923076923076827
40
0.7846153846153836
40
0.79999999999999893
40
0.81538461538461426
40
0.83076923076922959
40
0.84615384615384492
40
0.86153846153846025
40
0.87692307692307558
40
0.89230769230769091
40
0.90769230769230624
40
0.92307692307692157
40
0.9384615384615369
40
0.95384615384615223
40
0.96923076923076756
40
0.98461538461538289
40
1
40
1
40
1
40
1
40
1
40
1
41
1
41
1
41
1
41
1
41
1
41
1
41
1
41
1
41
1
41
1
41
1
41
1
41
1
41
1
41
1
41
1
41
1
41
1
41
1
41
1
41
1
41
1
41
1
41
1
41
1
41
1
41
1
41
1
41
1
41
1
41
1
41
1
41
1
41
1
41
1
41
1
41
1
41
1
41
1
41
1
41
1
41
1
41
1
41
1
41
1
41
1
41
1
41
1
41
1
41
1
41
1
41
1
41
1
41
1
41
1
41
1
41
1
41
1
41
1
41
1
41
1
41
1
41
1
41
1
41
1
41
1
41
1
41
1
41
1
41
1
10
0.25142200571510237
20
0.33122184133613813
30
0
10
0.25163903311663333
20
0.33092235170305029
30
0
10
0.25217488484762812
20
0.33046456871023694
30
0
10
0.25325648496250985
20
0.33020185378986894
30
0
10
0.25507955870984511
20
0.33053638583652839
30
0
10
0.2573829337368686
20
0.33126157914196142
30
0
10
0.25906771212617929
20
0.33140061752445438
30
0
10
0.25961807323963154
20
0.33044268218121531
30
0
10
0.25874348332407721
20
0.32846011084462068
30
0
10
0.25636361060555357
20
0.32584332629939899
30
0
10
0.25261257779165042
20
0.32314855324305253
30
0
10
0.24784888860779059
20
0.3208757680764463
30
0
10
0.24259315738376772
20
0.31941097729043122
30
0
10
0.23743093675059956
20
0.31902637607152806
30
0
10
0.23292582227351913
20
0.31986206493781733
30
0
10
0.22953097952806903
20
0.32191649617340801
30
0
10
0.22749481131270199
20
0.32502981531176534
30
0
10
0.2267873591863668
20
0.32887900042013157
30
0
10
0.22720479997294624
20
0.33305733434726559
30
0
10
0.22845948299375893
20
0.33714805881186999
30
0
10
0.23027117741810171
20
0.34079665624619032
30
0
10
0.23246746716955427
20
0.34379205428649517
30
0
10
0.2350511781264874
20
0.34611933161462993
30
0
10
0.23811354626292403
20
0.34788089995447929
30
0
10
0.24176643128311423
20
0.34923411332373094
30
0
10
0.2460720633923158
20
0.35032639944286198
30
0
10
0.25096221619548342
20
0.35122249097825264
30
0
10
0.25619861544946121
20
0.35186352541453236
30
0
10
0.26145742416495371
20
0.35212186172485882
30
0
10
0.26638912312388513
20
0.35183738188133495
30
0
10
0.27069199233368163
20
0.35086309506010327
30
0
10
0.27417078565057029
20
0.34910208306411827
30
0
10
0.27682422817243341
20
0.3465598112209643
30
0
10
0.27883290883678302
20
0.3433445300819587
30
0
10
0.28045104443208546
20
0.3396174857238578
30
0
10
0.28191981686789008
20
0.33555491934389642
30
0
10
0.28338177914972296
20
0.33130932431051513
30
0
10
0.28477085897306775
20
0.32696127616910842
30
0
10
0.28579708135097998
20
0.32250973985599241
30
0
10
0.28608215285256311
20
0.31792415723406958
30
0
10
0.28525652708822635
20
0.3131806769103514
30
0
10
0.28307727720205661
20
0.30830710675471684
30
0
10
0.27952498500920353
20
0.30341881077679583
30
0
10
0.27494158808804858
20
0.29877253827885875
30
0
10
0.26994392808983736
20
0.29472148251753888
30
0
10
0.26526705980002702
20
0.29163927076515822
30
0
10
0.26163203170609056
20
0.28985487748858924
30
0
10
0.25960148863413834
20
0.28958170609666645
30
0
10
0.25944497361135554
20
0.29085186008766251
30
0
10
0.26098695777754244
20
0.29344015772698329
30
0
10
0.26373775588627879
20
0.29696109307612562
30
0
10
0.26704165668638818
20
0.30097647543350353
30
0
10
0.27021811079484898
20
0.30509872716402109
30
0
10
0.27270662196700923
20
0.30909683111764269
30
0
10
0.2742076736871174
20
0.31299902988987044
30
0
10
0.27462595470563322
20
0.3169767349059312
30
0
10
0.27401757120034409
20
0.32123568444390393
30
0
10
0.27253422283030537
20
0.32589689844029851
30
0
10
0.27037304817639402
20
0.3308992379419351
30
0
10
0.26771358887822549
20
0.33584868011732971
30
0
10
0.2647130399283501
20
0.34010828199602056
30
0
10
0.26153053565981971
20
0.34300725051868103
30
0
10
0.25834472616296494
20
0.34402408077052443
30
0
10
0.25536900914406158
20
0.34295568153090261
30
0
10
0.25288028653368
20
0.34015330776235159
30
0
10
0.25119848176516857
20
0.33651999934665366
30
0
10
0.25070729267445108
20
0.33379498788872758
30
0
10
0.25087272043844211
20
0.33226150650876396
30
0
10
0.2512049783135713
20
0.33152133096922598
30
0
10
0.25142200571510237
20
0.33122184133613813
30
0
0
SPLINE
5
141
100
AcDbEntity
8
0
100
AcDbSpline
70
6
71
5
72
26
73
20
74
0
42
0.000000001
43
0.0000000001
44
0.0000000001
40
0
40
0
40
0
40
0
40
0
40
0
40
0.066666666666666666
40
0.13333333333333333
40
0.20000000000000001
40
0.26666666666666666
40
0.33333333333333331
40
0.39999999999999997
40
0.46666666666666662
40
0.53333333333333333
40
0.59999999999999998
40
0.66666666666666663
40
0.73333333333333328
40
0.79999999999999993
40
0.86666666666666659
40
0.93333333333333324
40
1
40
1
40
1
40
1
40
1
40
1
41
1
41
1
41
1
41
1
41
1
41
1
41
1
41
1
41
1
41
1
41
1
41
1
41
1
41
1
41
1
41
1
41
1
41
1
41
1
41
1
10
0.22175351981896138
20
0.39612761859977896
30
0
10
0.22153827772791182
20
0.39599235204364641
30
0
10
0.22113681740651672
20
0.39585452789996955
30
0
10
0.22063853027946445
20
0.39605636809806738
30
0
10
0.22023557777712335
20
0.39711924926994319
30
0
10
0.22023633248424701
20
0.39948067547238308
30
0
10
0.2207453201720693
20
0.40243891162852519
30
0
10
0.22169947079655453
20
0.40549220085199689
30
0
10
0.22296367748776821
20
0.40815042077935343
30
0
10
0.22432439944051366
20
0.41001196211517094
30
0
10
0.22553637323812561
20
0.41078546209791078
30
0
10
0.22636914579014764
20
0.41031981186968808
30
0
10
0.2266505275929552
20
0.40863272672155215
30
0
10
0.22632199865228056
20
0.40596223206105309
30
0
10
0.22546794145026541
20
0.40277719872484302
30
0
10
0.22425989004926439
20
0.39965042192836575
30
0
10
0.22318777182619762
20
0.39765866775595121
30
0
10
0.22242826995281417
20
0.3966661272367652
30
0
10
0.221968761910011
20
0.39626288515591168
30
0
10
0.22175351981896138
20
0.39612761859977896
30
0
0
LINE
5
142
100
AcDbEntity
8
0
100
AcDbLine
10
0.50171157337426919
20
0.33997231733573452
30
0
11
0.6797115620198777
21
0.33997231733573452
31
0
0
LINE
5
143
100
AcDbEntity
8
0
100
AcDbLine
10
0.5237867217798664
20
0.28688883264277798
30
0
11
0.6797115620198777
21
0.28688883264277798
31
0
0
ARC
5
144
100
AcDbEntity
8
0
100
AcDbCircle
10
0.13597222057897157
20
0.031805555171179251
30
0
40
0.030254195343805454
210
0
220
0
230
1
100
AcDbArc
50
111.26412466055233
51
297.62378490028073
0
SPLINE
5
145
100
AcDbEntity
8
0
100
AcDbSpline
70
6
71
5
72
101
73
95
74
0
42
0.000000001
43
0.0000000001
44
0.0000000001
40
0
40
0
40
0
40
0
40
0
40
0
40
0.011111111111111112
40
0.022222222222222223
40
0.033333333333333333
40
0.044444444444444446
40
0.055555555555555559
40
0.066666666666666666
40
0.077777777777777779
40
0.088888888888888892
40
0.10000000000000001
40
0.11111111111111112
40
0.12222222222222223
40
0.13333333333333333
40
0.14444444444444443
40
0.15555555555555553
40
0.16666666666666663
40
0.17777777777777773
40
0.18888888888888883
40
0.19999999999999993
40
0.21111111111111103
40
0.22222222222222213
40
0.23333333333333323
40
0.24444444444444433
40
0.25555555555555542
40
0.26666666666666655
40
0.27777777777777768
40
0.28888888888888881
40
0.29999999999999993
40
0.31111111111111106
40
0.32222222222222219
40
0.33333333333333331
40
0.34444444444444444
40
0.35555555555555557
40
0.3666666666666667
40
0.37777777777777782
40
0.38888888888888895
40
0.40000000000000008
40
0.4111111111111112
40
0.42222222222222233
40
0.43333333333333346
40
0.44444444444444459
40
0.45555555555555571
40
0.46666666666666684
40
0.47777777777777797
40
0.48888888888888909
40
0.50000000000000022
40
0.51111111111111129
40
0.52222222222222237
40
0.53333333333333344
40
0.54444444444444451
40
0.55555555555555558
40
0.56666666666666665
40
0.57777777777777772
40
0.5888888888888888
40
0.59999999999999987
40
0.61111111111111094
40
0.62222222222222201
40
0.63333333333333308
40
0.64444444444444415
40
0.65555555555555522
40
0.6666666666666663
40
0.67777777777777737
40
0.68888888888888844
40
0.69999999999999951
40
0.71111111111111058
40
0.72222222222222165
40
0.73333333333333273
40
0.7444444444444438
40
0.75555555555555487
40
0.76666666666666594
40
0.77777777777777701
40
0.78888888888888808
40
0.79999999999999916
40
0.81111111111111023
40
0.8222222222222213
40
0.83333333333333237
40
0.84444444444444344
40
0.85555555555555451
40
0.86666666666666559
40
0.87777777777777666
40
0.88888888888888773
40
0.8999999999999988
40
0.91111111111110987
40
0.92222222222222094
40
0.93333333333333202
40
0.94444444444444309
40
0.95555555555555416
40
0.96666666666666523
40
0.9777777777777763
40
0.98888888888888737
40
1
40
1
40
1
40
1
40
1
40
1
41
1
41
1
41
1
41
1
41
1
41
1
41
1
41
1
41
1
41
1
41
1
41
1
41
1
41
1
41
1
41
1
41
1
41
1
41
1
41
1
41
1
41
1
41
1
41
1
41
1
41
1
41
1
41
1
41
1
41
1
41
1
41
1
41
1
41
1
41
1
41
1
41
1
41
1
41
1
41
1
41
1
41
1
41
1
41
1
41
1
41
1
41
1
41
1
41
1
41
1
41
1
41
1
41
1
41
1
41
1
41
1
41
1
41
1
41
1
41
1
41
1
41
1
41
1
41
1
41
1
41
1
41
1
41
1
41
1
41
1
41
1
41
1
41
1
41
1
41
1
41
1
41
1
41
1
41
1
41
1
41
1
41
1
41
1
41
1
41
1
41
1
41
1
41
1
41
1
41
1
41
1
41
1
41
1
41
1
41
1
10
-0.21499999740168332
20
-0.26499999679742364
30
0
10
-0.21513466535521686
20
-0.2652750199172193
30
0
10
-0.21528611638129413
20
-0.26586062905274355
30
0
10
-0.21518105464653176
20
-0.26683698847739401
30
0
10
-0.21452422918600644
20
-0.268288546492993
30
0
10
-0.21337477850999886
20
-0.27021079152793404
30
0
10
-0.21244016680631397
20
-0.27210327901316689
30
0
10
-0.21213570953552507
20
-0.2738605312434273
30
0
10
-0.21257514942914149
20
-0.27544370293076309
30
0
10
-0.21350540325295037
20
-0.27689453365752326
30
0
10
-0.21450451873182433
20
-0.27829896169462121
30
0
10
-0.21513256806795603
20
-0.27976005674823684
30
0
10
-0.21509249078763351
20
-0.28136827518962759
30
0
10
-0.21440950595081451
20
-0.28317022645377377
30
0
10
-0.21334801357809238
20
-0.28516788697543355
30
0
10
-0.21229066340276445
20
-0.28732265135059326
30
0
10
-0.2116292239509778
20
-0.28955727040424462
30
0
10
-0.21165462664626378
20
-0.29175943669600463
30
0
10
-0.21243629120238919
20
-0.29378250884268697
30
0
10
-0.21387218431131347
20
-0.29548002164093062
30
0
10
-0.21575610177693513
20
-0.29674373923559655
30
0
10
-0.21783825627708941
20
-0.29753983076959761
30
0
10
-0.21988952225953326
20
-0.29794734494004527
30
0
10
-0.22176168514280706
20
-0.29819189944061547
30
0
10
-0.22336191157406277
20
-0.29855994771813027
30
0
10
-0.22462786846379079
20
-0.29931097205595747
30
0
10
-0.22550574027016212
20
-0.30060112008627143
30
0
10
-0.22591955172729333
20
-0.30237616363931752
30
0
10
-0.22577430052575176
20
-0.30438111033983706
30
0
10
-0.22499083878278356
20
-0.30627909366062639
30
0
10
-0.22353216249585003
20
-0.30774041157726217
30
0
10
-0.22143288565864738
20
-0.30854292878015166
30
0
10
-0.2188283839164421
20
-0.30866994960113397
30
0
10
-0.21591823852741296
20
-0.30825221907769951
30
0
10
-0.21292888244801286
20
-0.3075073054900459
30
0
10
-0.21007549771913409
20
-0.30667829175036659
30
0
10
-0.20752670332711026
20
-0.30597688149201702
30
0
10
-0.20536206817901034
20
-0.30551478168237695
30
0
10
-0.20355162608148369
20
-0.30527128567383405
30
0
10
-0.20199498037969818
20
-0.30515711612641377
30
0
10
-0.20054992442725905
20
-0.30506321480222265
30
0
10
-0.19906398276973525
20
-0.30490963252727493
30
0
10
-0.19740764708863587
20
-0.30470886158606292
30
0
10
-0.19549207351952358
20
-0.30455244455079006
30
0
10
-0.19327645671028779
20
-0.30455528305255064
30
0
10
-0.19078018445079076
20
-0.30481061784465185
30
0
10
-0.18808968446810764
20
-0.30534606800769792
30
0
10
-0.18537616768828422
20
-0.30606520758788985
30
0
10
-0.18285870114978212
20
-0.30677760540401544
30
0
10
-0.18074903816593013
20
-0.30726100227298414
30
0
10
-0.17919895710001091
20
-0.30731589901325984
30
0
10
-0.17825421057620985
20
-0.30681663786515784
30
0
10
-0.17778635711953264
20
-0.30578070410377556
30
0
10
-0.17752157735669169
20
-0.30435441874885705
30
0
10
-0.17714066972027448
20
-0.30273739480157241
30
0
10
-0.17635113705438926
20
-0.30113012416115031
30
0
10
-0.17498638349384846
20
-0.29966074048505931
30
0
10
-0.17303491164499504
20
-0.29836301503727009
30
0
10
-0.17059329080366109
20
-0.29720936425203337
30
0
10
-0.16783869636000281
20
-0.2961297830850721
30
0
10
-0.16499356451807778
20
-0.29503646541147743
30
0
10
-0.16229370575553309
20
-0.29384593084665622
30
0
10
-0.1599548437449626
20
-0.29250233487008903
30
0
10
-0.15815881649809044
20
-0.29098137668259177
30
0
10
-0.15703999512563824
20
-0.28929395715419476
30
0
10
-0.15667097508603359
20
-0.28749048519653586
30
0
10
-0.15704995923698079
20
-0.28566370648838818
30
0
10
-0.15808353059540731
20
-0.28395550669882191
30
0
10
-0.15961567419999659
20
-0.28252297581689628
30
0
10
-0.16146381441473312
20
-0.2814977180710172
30
0
10
-0.16345113318887233
20
-0.2809496323671995
30
0
10
-0.16544323863611654
20
-0.28084393230674548
30
0
10
-0.16737478214329854
20
-0.28101520662197782
30
0
10
-0.16922413675210266
20
-0.28123114422827367
30
0
10
-0.1709930170501581
20
-0.28124797582331001
30
0
10
-0.1726868571627127
20
-0.2808639380665135
30
0
10
-0.17428852626673277
20
-0.27998600383617395
30
0
10
-0.17575827652756917
20
-0.27864502001702002
30
0
10
-0.17706531734097669
20
-0.27694669179155063
30
0
10
-0.17821344874804101
20
-0.27503767466927925
30
0
10
-0.1792644912662483
20
-0.27306848242044768
30
0
10
-0.1803742653182783
20
-0.27115052018213404
30
0
10
-0.18176804667608826
20
-0.26935022720351631
30
0
10
-0.18367938905233377
20
-0.26770650920533051
30
0
10
-0.18630031173875328
20
-0.26624095382345797
30
0
10
-0.18972642592985398
20
-0.26497107942211851
30
0
10
-0.19390494080227416
20
-0.26392213293733452
30
0
10
-0.19857917002162923
20
-0.26313990727291264
30
0
10
-0.20336039845980819
20
-0.26268009005652038
30
0
10
-0.20780222936802006
20
-0.26259722210251796
30
0
10
-0.21147393062612291
20
-0.26293380019893664
30
0
10
-0.21352220646542419
20
-0.26355419697206911
30
0
10
-0.21447810866009326
20
-0.26421049033396965
30
0
10
-0.21486532944814984
20
-0.26472497367762793
30
0
10
-0.21499999740168332
20
-0.26499999679742364
30
0
0
ARC
5
146
100
AcDbEntity
8
0
100
AcDbCircle
10
-0.41212039078713847
20
-0.29365509539304457
30
0
40
0.068175496535264543
210
0
220
0
230
1
100
AcDbArc
50
131.10219469715318
51
202.73240264174655
0
SPLINE
5
147
100
AcDbEntity
8
0
100
AcDbSpline
70
6
71
5
72
31
73
25
74
0
42
0.000000001
43
0.0000000001
44
0.0000000001
40
0
40
0
40
0
40
0
40
0
40
0
40
0.050000000000000003
40
0.10000000000000001
40
0.15000000000000002
40
0.20000000000000001
40
0.25
40
0.29999999999999999
40
0.34999999999999998
40
0.39999999999999997
40
0.44999999999999996
40
0.49999999999999994
40
0.54999999999999993
40
0.59999999999999998
40
0.65000000000000002
40
0.70000000000000007
40
0.75000000000000011
40
0.80000000000000016
40
0.8500000000000002
40
0.90000000000000024
40
0.95000000000000029
40
1
40
1
40
1
40
1
40
1
40
1
41
1
41
1
41
1
41
1
41
1
41
1
41
1
41
1
41
1
41
1
41
1
41
1
41
1
41
1
41
1
41
1
41
1
41
1
41
1
41
1
41
1
41
1
41
1
41
1
41
1
10
-0.39300000245543559
20
-0.27900000174317185
30
0
10
-0.3931438376427287
20
-0.2786773132561236
30
0
10
-0.39321067377919905
20
-0.2781270812438561
30
0
10
-0.39264857581020085
20
-0.27759772956927131
30
0
10
-0.39071003240510499
20
-0.27745107655619489
30
0
10
-0.38705993513122211
20
-0.27788787839742402
30
0
10
-0.38310045965523803
20
-0.27854580672695473
30
0
10
-0.37966395023115362
20
-0.27907815544609632
30
0
10
-0.37724272950517251
20
-0.27933430787430036
30
0
10
-0.37574642884412596
20
-0.27949560877145047
30
0
10
-0.37475462129594506
20
-0.27991001248671543
30
0
10
-0.373765790947231
20
-0.28092677580993697
30
0
10
-0.37241648999023663
20
-0.28275154631851779
30
0
10
-0.37078137406102069
20
-0.28524307447634445
30
0
10
-0.3693930502008882
20
-0.28790710333519387
30
0
10
-0.3689385615519995
20
-0.29011813270654851
30
0
10
-0.3700321777064049
20
-0.2912864972218715
30
0
10
-0.37297938960842364
20
-0.29103185844262058
30
0
10
-0.37747955619177154
20
-0.28939849295867054
30
0
10
-0.38275985571998083
20
-0.28677465080871289
30
0
10
-0.3878308196481644
20
-0.28372882199143429
30
0
10
-0.39092225248135409
20
-0.28144886849716383
30
0
10
-0.39234766265543991
20
-0.28006321216614555
30
0
10
-0.39285616726814238
20
-0.27932269023022005
30
0
10
-0.39300000245543559
20
-0.27900000174317185
30
0
0
ARC
5
148
100
AcDbEntity
8
0
100
AcDbCircle
10
-0.29486140167539598
20
-0.17918273514370212
30
0
40
0.12171254374619281
210
0
220
0
230
1
100
AcDbArc
50
240.38934843213414
51
288.0821069555119
0
ARC
5
149
100
AcDbEntity
8
0
100
AcDbCircle
10
-0.29684242517569631
20
-0.24687747111707603
30
0
40
0.076465868789017288
210
0
220
0
230
1
100
AcDbArc
50
235.63915065631153
51
283.59186939709343
0
SPLINE
5
150
100
AcDbEntity
8
0
100
AcDbSpline
70
4
71
5
72
121
73
115
74
0
42
0.000000001
43
0.0000000001
44
0.0000000001
40
0
40
0
40
0
40
0
40
0
40
0
40
0.0090909090909090905
40
0.018181818181818181
40
0.027272727272727271
40
0.036363636363636362
40
0.045454545454545456
40
0.05454545454545455
40
0.063636363636363644
40
0.072727272727272738
40
0.081818181818181832
40
0.090909090909090925
40
0.10000000000000002
40
0.10909090909090911
40
0.11818181818181821
40
0.12727272727272729
40
0.13636363636363638
40
0.14545454545454548
40
0.15454545454545457
40
0.16363636363636366
40
0.17272727272727276
40
0.18181818181818185
40
0.19090909090909094
40
0.20000000000000004
40
0.20909090909090913
40
0.21818181818181823
40
0.22727272727272732
40
0.23636363636363641
40
0.24545454545454551
40
0.25454545454545457
40
0.26363636363636367
40
0.27272727272727276
40
0.28181818181818186
40
0.29090909090909095
40
0.30000000000000004
40
0.30909090909090914
40
0.31818181818181823
40
0.32727272727272733
40
0.33636363636363642
40
0.34545454545454551
40
0.35454545454545461
40
0.3636363636363637
40
0.3727272727272728
40
0.38181818181818189
40
0.39090909090909098
40
0.40000000000000008
40
0.40909090909090917
40
0.41818181818181827
40
0.42727272727272736
40
0.43636363636363645
40
0.44545454545454555
40
0.45454545454545464
40
0.46363636363636374
40
0.47272727272727283
40
0.48181818181818192
40
0.49090909090909102
40
0.50000000000000011
40
0.50909090909090915
40
0.51818181818181819
40
0.52727272727272723
40
0.53636363636363626
40
0.5454545454545453
40
0.55454545454545434
40
0.56363636363636338
40
0.57272727272727242
40
0.58181818181818146
40
0.5909090909090905
40
0.59999999999999953
40
0.60909090909090857
40
0.61818181818181761
40
0.62727272727272665
40
0.63636363636363569
40
0.64545454545454473
40
0.65454545454545376
40
0.6636363636363628
40
0.67272727272727184
40
0.68181818181818088
40
0.69090909090908992
40
0.69999999999999896
40
0.70909090909090799
40
0.71818181818181703
40
0.72727272727272607
40
0.73636363636363511
40
0.74545454545454415
40
0.75454545454545319
40
0.76363636363636223
40
0.77272727272727126
40
0.7818181818181803
40
0.79090909090908934
40
0.79999999999999838
40
0.80909090909090742
40
0.81818181818181646
40
0.82727272727272549
40
0.83636363636363453
40
0.84545454545454357
40
0.85454545454545261
40
0.86363636363636165
40
0.87272727272727069
40
0.88181818181817972
40
0.89090909090908876
40
0.8999999999999978
40
0.90909090909090684
40
0.91818181818181588
40
0.92727272727272492
40
0.93636363636363396
40
0.94545454545454299
40
0.95454545454545203
40
0.96363636363636107
40
0.97272727272727011
40
0.98181818181817915
40
0.99090909090908819
40
1
40
1
40
1
40
1
40
1
40
1
41
1
41
1
41
1
41
1
41
1
41
1
41
1
41
1
41
1
41
1
41
1
41
1
41
1
41
1
41
1
41
1
41
1
41
1
41
1
41
1
41
1
41
1
41
1
41
1
41
1
41
1
41
1
41
1
41
1
41
1
41
1
41
1
41
1
41
1
41
1
41
1
41
1
41
1
41
1
41
1
41
1
41
1
41
1
41
1
41
1
41
1
41
1
41
1
41
1
41
1
41
1
41
1
41
1
41
1
41
1
41
1
41
1
41
1
41
1
41
1
41
1
41
1
41
1
41
1
41
1
41
1
41
1
41
1
41
1
41
1
41
1
41
1
41
1
41
1
41
1
41
1
41
1
41
1
41
1
41
1
41
1
41
1
41
1
41
1
41
1
41
1
41
1
41
1
41
1
41
1
41
1
41
1
41
1
41
1
41
1
41
1
41
1
41
1
41
1
41
1
41
1
41
1
41
1
41
1
41
1
41
1
41
1
41
1
41
1
41
1
41
1
41
1
41
1
41
1
41
1
10
0.051030714831034413
20
-0.29119822178718563
30
0
10
0.051563180773945186
20
-0.29177220739274584
30
0
10
0.05266984600070547
20
-0.29299535889653167
30
0
10
0.0544550439637305
20
-0.29505562459125928
30
0
10
0.057085740979529044
20
-0.29825380425288622
30
0
10
0.06079025739305207
20
-0.30298215282242391
30
0
10
0.064906835093170523
20
-0.30837698140279363
30
0
10
0.069427079807334549
20
-0.31430882712132641
30
0
10
0.074336709785926533
20
-0.32056295257373779
30
0
10
0.079614251953757362
20
-0.32681269648921885
30
0
10
0.085226095426232024
20
-0.33267721930866068
30
0
10
0.091121045517944699
20
-0.33778892102350744
30
0
10
0.097225273106731749
20
-0.34185549382775332
30
0
10
0.10343657653881523
20
-0.34472855350727838
30
0
10
0.10962011190858439
20
-0.3464595006546089
30
0
10
0.11560040668652874
20
-0.3473868228990965
30
0
10
0.12117473121388576
20
-0.34804336031498856
30
0
10
0.12613340241358886
20
-0.34900520538179636
30
0
10
0.13027775437141259
20
-0.35076019397450542
30
0
10
0.13343914714249375
20
-0.35356776229526798
30
0
10
0.13549740763277676
20
-0.35732371248119127
30
0
10
0.13639923173484328
20
-0.36173386973707272
30
0
10
0.13617566077732918
20
-0.36648063366687456
30
0
10
0.13496171618012739
20
-0.37140255953195195
30
0
10
0.13301019123557467
20
-0.37663871678333194
30
0
10
0.13065351236542769
20
-0.38245313761631561
30
0
10
0.12827018182289376
20
-0.38909200276087402
30
0
10
0.12624940577006552
20
-0.39661824429825493
30
0
10
0.12495672539615284
20
-0.40477881964077256
30
0
10
0.12469864576449725
20
-0.41279856428717021
30
0
10
0.1256910755460332
20
-0.41955592067390024
30
0
10
0.12802922316423945
20
-0.42390149463898358
30
0
10
0.13165669628643434
20
-0.42493121465065459
30
0
10
0.13633545392463306
20
-0.42227580333769849
30
0
10
0.1416135615640097
20
-0.4163909954719125
30
0
10
0.14693801746825375
20
-0.40832462427391125
30
0
10
0.15177299273262354
20
-0.39947090297735788
30
0
10
0.15571063051283188
20
-0.3913332753413955
30
0
10
0.15859733980923521
20
-0.38527577163132037
30
0
10
0.1606248234925039
20
-0.38229791487382697
30
0
10
0.1625098290222648
20
-0.38275121524535266
30
0
10
0.16519206228345026
20
-0.38638994126657156
30
0
10
0.16942606479647962
20
-0.39253122835411669
30
0
10
0.17531162221639043
20
-0.4001775459684932
30
0
10
0.18229245495713842
20
-0.40816047466254485
30
0
10
0.18945614822814402
20
-0.41528382781664536
30
0
10
0.19573645465302469
20
-0.42046428013265202
30
0
10
0.20016570421862145
20
-0.42288066145620895
30
0
10
0.20208312733652675
20
-0.42210197418569534
30
0
10
0.20141738845976745
20
-0.41826787635735374
30
0
10
0.19874437113832741
20
-0.41209583870316568
30
0
10
0.19499352767570774
20
-0.40461264981056744
30
0
10
0.19123409962651788
20
-0.39694846452947219
30
0
10
0.18843347712924616
20
-0.3901097435647965
30
0
10
0.18721759972311675
20
-0.38475176799944694
30
0
10
0.18765896507943058
20
-0.38097892355090768
30
0
10
0.18948852530300528
20
-0.37858104565863254
30
0
10
0.19226633060941015
20
-0.37721815414416987
30
0
10
0.19559032736669793
20
-0.37666796224825189
30
0
10
0.19920287664023548
20
-0.37688195732264251
30
0
10
0.20299721766339748
20
-0.37784896655901301
30
0
10
0.20705088443130262
20
-0.37950924891169868
30
0
10
0.21164697698231863
20
-0.38164975999836176
30
0
10
0.21715833125332959
20
-0.38396505977760476
30
0
10
0.22393508502387169
20
-0.38611087841983449
30
0
10
0.23218459309579895
20
-0.38776298571664947
30
0
10
0.24186935047481745
20
-0.38866838643595769
30
0
10
0.25255978496027837
20
-0.388713454753433
30
0
10
0.26348485669512683
20
-0.38791963558764908
30
0
10
0.27369876640349533
20
-0.38639683259360702
30
0
10
0.28221238540919136
20
-0.3843096642699112
30
0
10
0.28813863939338319
20
-0.38183862856481915
30
0
10
0.29083333174408027
20
-0.37914301497058744
30
0
10
0.29003477116797149
20
-0.3763241262520301
30
0
10
0.28601302009882251
20
-0.3733854710307376
30
0
10
0.27942316458311783
20
-0.37028283587914923
30
0
10
0.27114921447151441
20
-0.3669760369506011
30
0
10
0.26214766355693764
20
-0.36348356739378734
30
0
10
0.25330016697355623
20
-0.35992807610676147
30
0
10
0.24524085693031233
20
-0.3566050157554127
30
0
10
0.23826382886142747
20
-0.35397935055425755
30
0
10
0.23243204409500151
20
-0.35250247689583225
30
0
10
0.227647473318149
20
-0.35246322886400894
30
0
10
0.22373623988472804
20
-0.35382636383454869
30
0
10
0.22052795949754991
20
-0.35607366068846608
30
0
10
0.21793580818856192
20
-0.35805200591550601
30
0
10
0.21596712556897474
20
-0.35857936387885475
30
0
10
0.2147331713575566
20
-0.35699588078935179
30
0
10
0.21446568223314588
20
-0.353821894051218
30
0
10
0.21544204734402586
20
-0.35018770190934367
30
0
10
0.21790344047663743
20
-0.34717122841106918
30
0
10
0.22197056607420992
20
-0.34510569354267084
30
0
10
0.2276284787162772
20
-0.34374396944303293
30
0
10
0.23472051896063764
20
-0.34251990699173024
30
0
10
0.24293688333747829
20
-0.34078147469864051
30
0
10
0.2518098896579582
20
-0.33801928319399399
30
0
10
0.26069456359822185
20
-0.3341397102126446
30
0
10
0.26884033285975045
20
-0.32941211453293417
30
0
10
0.27548808525782242
20
-0.32432532871536746
30
0
10
0.27995687757187848
20
-0.31947681574928949
30
0
10
0.28173895667568272
20
-0.31544431427810221
30
0
10
0.28058207764712617
20
-0.3126741364143607
30
0
10
0.2766012833303495
20
-0.31133862600889256
30
0
10
0.27021507792642352
20
-0.31136855279054249
30
0
10
0.26203253066350379
20
-0.31253442888872895
30
0
10
0.25275408634790658
20
-0.31451321785359337
30
0
10
0.24307313661577978
20
-0.31695690593981324
30
0
10
0.23356166843832377
20
-0.31957040911152412
30
0
10
0.22461828828785507
20
-0.32214930100562206
30
0
10
0.2165117643879747
20
-0.32455516078166469
30
0
10
0.20940155628947077
20
-0.32670597572468174
30
0
10
0.20457438608295131
20
-0.32818958024480938
30
0
10
0.2014500789326846
20
-0.32916285479669227
30
0
10
0.19958766483991985
20
-0.32974973711379535
30
0
10
0.19871157148114713
20
-0.33002768685037709
30
0
0
SPLINE
5
151
100
AcDbEntity
8
0
100
AcDbSpline
70
4
71
5
72
26
73
20
74
0
42
0.000000001
43
0.0000000001
44
0.0000000001
40
0
40
0
40
0
40
0
40
0
40
0
40
0.066666666666666666
40
0.13333333333333333
40
0.20000000000000001
40
0.26666666666666666
40
0.33333333333333331
40
0.39999999999999997
40
0.46666666666666662
40
0.53333333333333333
40
0.59999999999999998
40
0.66666666666666663
40
0.73333333333333328
40
0.79999999999999993
40
0.86666666666666659
40
0.93333333333333324
40
1
40
1
40
1
40
1
40
1
40
1
41
1
41
1
41
1
41
1
41
1
41
1
41
1
41
1
41
1
41
1
41
1
41
1
41
1
41
1
41
1
41
1
41
1
41
1
41
1
41
1
10
0.045265207580416827
20
-0.065608579919576068
30
0
10
0.044581234279607952
20
-0.067095552446617968
30
0
10
0.043214335029413228
20
-0.070095781710215688
30
0
10
0.041167127391426896
20
-0.074674978414889237
30
0
10
0.038443852065537194
20
-0.080939424548722896
30
0
10
0.035055802926222096
20
-0.089039821898229191
30
0
10
0.031700019226732594
20
-0.097413117846741379
30
0
10
0.02840864997544211
20
-0.10605567736812696
30
0
10
0.02523606878908196
20
-0.11495099279912736
30
0
10
0.022263134043954389
20
-0.12406452024819536
30
0
10
0.019584566463988366
20
-0.13335190104250955
30
0
10
0.01729772100544099
20
-0.14276503582113464
30
0
10
0.015490302301854353
20
-0.15225812040319228
30
0
10
0.014226541287952445
20
-0.16179337078427028
30
0
10
0.013533335806536118
20
-0.17134631222525676
30
0
10
0.013414473720353759
20
-0.1809025182970227
30
0
10
0.013771998677473019
20
-0.1885444914578121
30
0
10
0.014289666323783657
20
-0.19427328224430274
30
0
10
0.014744872708514923
20
-0.19809129014881927
30
0
10
0.014999999818722094
20
-0.19999999758296125
30
0
0
SPLINE
5
152
100
AcDbEntity
8
0
100
AcDbSpline
70
4
71
5
72
31
73
25
74
0
42
0.000000001
43
0.0000000001
44
0.0000000001
40
0
40
0
40
0
40
0
40
0
40
0
40
0.050000000000000003
40
0.10000000000000001
40
0.15000000000000002
40
0.20000000000000001
40
0.25
40
0.29999999999999999
40
0.34999999999999998
40
0.39999999999999997
40
0.44999999999999996
40
0.49999999999999994
40
0.54999999999999993
40
0.59999999999999998
40
0.65000000000000002
40
0.70000000000000007
40
0.75000000000000011
40
0.80000000000000016
40
0.8500000000000002
40
0.90000000000000024
40
0.95000000000000029
40
1
40
1
40
1
40
1
40
1
40
1
41
1
41
1
41
1
41
1
41
1
41
1
41
1
41
1
41
1
41
1
41
1
41
1
41
1
41
1
41
1
41
1
41
1
41
1
41
1
41
1
41
1
41
1
41
1
41
1
41
1
10
0.045265207580416827
20
-0.065608579919576068
30
0
10
0.044821333532124294
20
-0.065788438343333783
30
0
10
0.043947932529034173
20
-0.066182636191987401
30
0
10
0.04268087191797193
20
-0.066877373822379751
30
0
10
0.041077894223143924
20
-0.068011435655577615
30
0
10
0.039218217929213067
20
-0.069766433458063229
30
0
10
0.037498950977324294
20
-0.071823846902570057
30
0
10
0.035909815294181427
20
-0.074105785938396312
30
0
10
0.034431000347652688
20
-0.076476063930268234
30
0
10
0.03302922749227407
20
-0.078718600320240389
30
0
10
0.031663688059210437
20
-0.080579654833052586
30
0
10
0.03029287625750212
20
-0.081816396207604419
30
0
10
0.028881025777878933
20
-0.082243627610884218
30
0
10
0.027404738294581499
20
-0.081782384361332977
30
0
10
0.025859834472150497
20
-0.080510903200526229
30
0
10
0.024255903865234782
20
-0.078615178152811244
30
0
10
0.02261094875052853
20
-0.076340434285489076
30
0
10
0.020946233166385622
20
-0.073944284965314785
30
0
10
0.019281156297890855
20
-0.0716499068686412
30
0
10
0.017628202442464311
20
-0.069599702736505883
30
0
10
0.01599454878588424
20
-0.067874373849907021
30
0
10
0.014705730161122478
20
-0.06678313284901706
30
0
10
0.013749709135910299
20
-0.066131323711260653
30
0
10
0.013117050498941544
20
-0.065770535867632818
30
0
10
0.012801893365338303
20
-0.065608579919576068
30
0
0
SPLINE
5
153
100
AcDbEntity
8
0
100
AcDbSpline
70
4
71
5
72
21
73
15
74
0
42
0.000000001
43
0.0000000001
44
0.0000000001
40
0
40
0
40
0
40
0
40
0
40
0
40
0.10000000000000001
40
0.20000000000000001
40
0.30000000000000004
40
0.40000000000000002
40
0.5
40
0.59999999999999998
40
0.69999999999999996
40
0.79999999999999993
40
0.89999999999999991
40
1
40
1
40
1
40
1
40
1
40
1
41
1
41
1
41
1
41
1
41
1
41
1
41
1
41
1
41
1
41
1
41
1
41
1
41
1
41
1
41
1
10
0.029999999637444187
20
-0.2449999970391275
30
0
10
0.03037290533817532
20
-0.24604838219782055
30
0
10
0.031122861793812791
20
-0.24813434250699892
30
0
10
0.032260231157298647
20
-0.25123085420445918
30
0
10
0.033802006322353736
20
-0.25529360102487764
30
0
10
0.035774241390166432
20
-0.26025463571453528
30
0
10
0.037795586978502618
20
-0.26508759363907225
30
0
10
0.039870163755553648
20
-0.26978172838719366
30
0
10
0.042000423882081278
20
-0.27433064489699649
30
0
10
0.04418442448200257
20
-0.27873941005189745
30
0
10
0.046418217407629622
20
-0.28301832034186336
30
0
10
0.048241872126905429
20
-0.28634594521514817
30
0
10
0.049628910924811878
20
-0.28879133668045548
30
0
10
0.050562040635188835
20
-0.29039959409247595
30
0
10
0.051030714831034413
20
-0.29119822178718563
30
0
0
SPLINE
5
154
100
AcDbEntity
8
0
100
AcDbSpline
70
4
71
5
72
51
73
45
74
0
42
0.000000001
43
0.0000000001
44
0.0000000001
40
0
40
0
40
0
40
0
40
0
40
0
40
0.025000000000000001
40
0.050000000000000003
40
0.075000000000000011
40
0.10000000000000001
40
0.125
40
0.14999999999999999
40
0.17499999999999999
40
0.19999999999999998
40
0.22499999999999998
40
0.24999999999999997
40
0.27499999999999997
40
0.29999999999999999
40
0.32500000000000001
40
0.35000000000000003
40
0.37500000000000006
40
0.40000000000000008
40
0.4250000000000001
40
0.45000000000000012
40
0.47500000000000014
40
0.50000000000000011
40
0.52500000000000013
40
0.55000000000000016
40
0.57500000000000018
40
0.6000000000000002
40
0.62500000000000022
40
0.65000000000000024
40
0.67500000000000027
40
0.70000000000000029
40
0.72500000000000031
40
0.75000000000000033
40
0.77500000000000036
40
0.80000000000000038
40
0.8250000000000004
40
0.85000000000000042
40
0.87500000000000044
40
0.90000000000000047
40
0.92500000000000049
40
0.95000000000000051
40
0.97500000000000053
40
1
40
1
40
1
40
1
40
1
40
1
41
1
41
1
41
1
41
1
41
1
41
1
41
1
41
1
41
1
41
1
41
1
41
1
41
1
41
1
41
1
41
1
41
1
41
1
41
1
41
1
41
1
41
1
41
1
41
1
41
1
41
1
41
1
41
1
41
1
41
1
41
1
41
1
41
1
41
1
41
1
41
1
41
1
41
1
41
1
41
1
41
1
41
1
41
1
41
1
41
1
10
0.26999999673699765
20
-0.03999999951659225
30
0
10
0.26895919724342499
20
-0.043146000654575759
30
0
10
0.26685313196162325
20
-0.049116085617165142
30
0
10
0.26362064731359036
20
-0.057105478122689186
30
0
10
0.25916363924407226
20
-0.065824417415665235
30
0
10
0.25337091977237147
20
-0.073548767632305889
30
0
10
0.24742712224139571
20
-0.078261002676752803
30
0
10
0.24147781807052132
20
-0.080305908584400593
30
0
10
0.23575974750352724
20
-0.08026263996286076
30
0
10
0.23064858812638411
20
-0.079041320453982378
30
0
10
0.22653965630716347
20
-0.07774165064770551
30
0
10
0.22368648218791218
20
-0.077441101750087962
30
0
10
0.22202439553170372
20
-0.078985449550400266
30
0
10
0.22108546061842718
20
-0.082841318294136809
30
0
10
0.22020480031361711
20
-0.089164638503100704
30
0
10
0.21867144667599894
20
-0.097828185290728689
30
0
10
0.21590446823808168
20
-0.10846321574017183
30
0
10
0.211474615489818
20
-0.12052512594327054
30
0
10
0.20512636599154868
20
-0.13336271870086
30
0
10
0.19679921283850069
20
-0.14628472682773994
30
0
10
0.18665285796363365
20
-0.15862855094927034
30
0
10
0.17508568645736705
20
-0.16982487561791135
30
0
10
0.16277201065684857
20
-0.17947208533969808
30
0
10
0.15064486125232698
20
-0.18738252802384178
30
0
10
0.13973116226950527
20
-0.19355564533731465
30
0
10
0.13101877085583505
20
-0.19816456130642143
30
0
10
0.12530316077384596
20
-0.20154049687208223
30
0
10
0.12305961871377839
20
-0.20415367704832024
30
0
10
0.12426014435951174
20
-0.20660929870029041
30
0
10
0.12836443600598926
20
-0.20959176723978293
30
0
10
0.13458175869574904
20
-0.21372406189865578
30
0
10
0.14206066421349142
20
-0.2194527089312675
30
0
10
0.15012384443925109
20
-0.22690786006787
30
0
10
0.15825864650335084
20
-0.23596104829080092
30
0
10
0.16608714907373784
20
-0.24630249961993655
30
0
10
0.17334393950874621
20
-0.25750962316016746
30
0
10
0.17985078630966753
20
-0.26912081066373145
30
0
10
0.18549403544477694
20
-0.28070132758340632
30
0
10
0.19019879930196382
20
-0.29192602773595155
30
0
10
0.19391725126676007
20
-0.3025852918539641
30
0
10
0.1966236541182258
20
-0.31255382293121592
30
0
10
0.19797067721687162
20
-0.31992799821719581
30
0
10
0.19852014419359232
20
-0.32511235583925252
30
0
10
0.1986818613270929
20
-0.32841486521968688
30
0
10
0.19871157148114713
20
-0.33002768685037709
30
0
0
ARC
5
155
100
AcDbEntity
8
0
100
AcDbCircle
10
-0.052361575957282851
20
-0.42103252305381722
30
0
40
0.0049999999999999324
210
0
220
0
230
1
100
AcDbArc
50
240.6030549391723
51
279.14660416216373
0
SPLINE
5
156
100
AcDbEntity
8
0
100
AcDbSpline
70
6
71
5
72
56
73
50
74
0
42
0.000000001
43
0.0000000001
44
0.0000000001
40
0
40
0
40
0
40
0
40
0
40
0
40
0.022222222222222223
40
0.044444444444444446
40
0.066666666666666666
40
0.088888888888888892
40
0.11111111111111112
40
0.13333333333333333
40
0.15555555555555556
40
0.17777777777777778
40
0.20000000000000001
40
0.22222222222222224
40
0.24444444444444446
40
0.26666666666666666
40
0.28888888888888886
40
0.31111111111111106
40
0.33333333333333326
40
0.35555555555555546
40
0.37777777777777766
40
0.39999999999999986
40
0.42222222222222205
40
0.44444444444444425
40
0.46666666666666645
40
0.48888888888888865
40
0.51111111111111085
40
0.5333333333333331
40
0.55555555555555536
40
0.57777777777777761
40
0.59999999999999987
40
0.62222222222222212
40
0.64444444444444438
40
0.66666666666666663
40
0.68888888888888888
40
0.71111111111111114
40
0.73333333333333339
40
0.75555555555555565
40
0.7777777777777779
40
0.80000000000000016
40
0.82222222222222241
40
0.84444444444444466
40
0.86666666666666692
40
0.88888888888888917
40
0.91111111111111143
40
0.93333333333333368
40
0.95555555555555594
40
0.97777777777777819
40
1
40
1
40
1
40
1
40
1
40
1
41
1
41
1
41
1
41
1
41
1
41
1
41
1
41
1
41
1
41
1
41
1
41
1
41
1
41
1
41
1
41
1
41
1
41
1
41
1
41
1
41
1
41
1
41
1
41
1
41
1
41
1
41
1
41
1
41
1
41
1
41
1
41
1
41
1
41
1
41
1
41
1
41
1
41
1
41
1
41
1
41
1
41
1
41
1
41
1
41
1
41
1
41
1
41
1
41
1
41
1
10
-0.088293572303426646
20
-0.083536553701727786
30
0
10
-0.088513810951916766
20
-0.082802230884566924
30
0
10
-0.088954608217952563
20
-0.081359419335685815
30
0
10
-0.089605059506658896
20
-0.079294125282511341
30
0
10
-0.090385842515176951
20
-0.076796589337892365
30
0
10
-0.091007921343556286
20
-0.074146410743580332
30
0
10
-0.091061988370988306
20
-0.071946110627707019
30
0
10
-0.09037391710197451
20
-0.070142546822498111
30
0
10
-0.088850655301858983
20
-0.068684538474411846
30
0
10
-0.08653025621167644
20
-0.067561112368777806
30
0
10
-0.083553076368167334
20
-0.06679432704993285
30
0
10
-0.080121783304223565
20
-0.066425264533079079
30
0
10
-0.0764641433380433
20
-0.066502267955470554
30
0
10
-0.072797980117866798
20
-0.067068735273388885
30
0
10
-0.06928735765853275
20
-0.068149900100989785
30
0
10
-0.066033236380126037
20
-0.069744527740016146
30
0
10
-0.063100879205930938
20
-0.071821554050346958
30
0
10
-0.060536441431301644
20
-0.074315862830366231
30
0
10
-0.058389607420979886
20
-0.0771230118053816
30
0
10
-0.056729612939913618
20
-0.080097209392083049
30
0
10
-0.055674282717759975
20
-0.083040264924669094
30
0
10
-0.055360109822813579
20
-0.085733528893309971
30
0
10
-0.055887687216754266
20
-0.087987669266580346
30
0
10
-0.057271139926824845
20
-0.089690189091175404
30
0
10
-0.059393905524551364
20
-0.090846642282282217
30
0
10
-0.061940150527202226
20
-0.09164404548932617
30
0
10
-0.064469896664853754
20
-0.092384706189175478
30
0
10
-0.06654059155476047
20
-0.09337833503878458
30
0
10
-0.06781601108022664
20
-0.09484540666941034
30
0
10
-0.068174303161151112
20
-0.096821697425608602
30
0
10
-0.067834302923802423
20
-0.09904534061349847
30
0
10
-0.067232632808396031
20
-0.10108552476466395
30
0
10
-0.066865228598352422
20
-0.10250825063411238
30
0
10
-0.067155863293934706
20
-0.1030104525186742
30
0
10
-0.068279973607563091
20
-0.10261125079726761
30
0
10
-0.070134092061141032
20
-0.10165327266819613
30
0
10
-0.07246212455823188
20
-0.10059869630842699
30
0
10
-0.074940395438213653
20
-0.099878544622084453
30
0
10
-0.07727787500893056
20
-0.099723177107618854
30
0
10
-0.079313372036111982
20
-0.099992442887614844
30
0
10
-0.080992680351527499
20
-0.10031053304539893
30
0
10
-0.082339829956687885
20
-0.10022017775552614
30
0
10
-0.08343134463409746
20
-0.09931629897151896
30
0
10
-0.084368325921859194
20
-0.097419486538988229
30
0
10
-0.08525401681886155
20
-0.094610143785036502
30
0
10
-0.086176144837036256
20
-0.091126028783797122
30
0
10
-0.086985604759776264
20
-0.088063157060763869
30
0
10
-0.08763317632701173
20
-0.085765356238650961
30
0
10
-0.088073333654936511
20
-0.084270876518888635
30
0
10
-0.088293572303426646
20
-0.083536553701727786
30
0
0
SPLINE
5
157
100
AcDbEntity
8
0
100
AcDbSpline
70
6
71
5
72
136
73
130
74
0
42
0.000000001
43
0.0000000001
44
0.0000000001
40
0
40
0
40
0
40
0
40
0
40
0
40
0.0080000000000000002
40
0.016
40
0.024
40
0.032000000000000001
40
0.040000000000000001
40
0.048000000000000001
40
0.056000000000000001
40
0.064000000000000001
40
0.072000000000000008
40
0.080000000000000016
40
0.088000000000000023
40
0.09600000000000003
40
0.10400000000000004
40
0.11200000000000004
40
0.12000000000000005
40
0.12800000000000006
40
0.13600000000000007
40
0.14400000000000007
40
0.15200000000000008
40
0.16000000000000009
40
0.16800000000000009
40
0.1760000000000001
40
0.18400000000000011
40
0.19200000000000012
40
0.20000000000000012
40
0.20800000000000013
40
0.21600000000000014
40
0.22400000000000014
40
0.23200000000000015
40
0.24000000000000016
40
0.24800000000000016
40
0.25600000000000017
40
0.26400000000000018
40
0.27200000000000019
40
0.28000000000000019
40
0.2880000000000002
40
0.29600000000000021
40
0.30400000000000021
40
0.31200000000000022
40
0.32000000000000023
40
0.32800000000000024
40
0.33600000000000024
40
0.34400000000000025
40
0.35200000000000026
40
0.36000000000000026
40
0.36800000000000027
40
0.37600000000000028
40
0.38400000000000029
40
0.39200000000000029
40
0.4000000000000003
40
0.40800000000000031
40
0.41600000000000031
40
0.42400000000000032
40
0.43200000000000033
40
0.44000000000000034
40
0.44800000000000034
40
0.45600000000000035
40
0.46400000000000036
40
0.47200000000000036
40
0.48000000000000037
40
0.48800000000000038
40
0.49600000000000039
40
0.50400000000000034
40
0.51200000000000034
40
0.52000000000000035
40
0.52800000000000036
40
0.53600000000000037
40
0.54400000000000037
40
0.55200000000000038
40
0.56000000000000039
40
0.56800000000000039
40
0.5760000000000004
40
0.58400000000000041
40
0.59200000000000041
40
0.60000000000000042
40
0.60800000000000043
40
0.61600000000000044
40
0.62400000000000044
40
0.63200000000000045
40
0.64000000000000046
40
0.64800000000000046
40
0.65600000000000047
40
0.66400000000000048
40
0.67200000000000049
40
0.68000000000000049
40
0.6880000000000005
40
0.69600000000000051
40
0.70400000000000051
40
0.71200000000000052
40
0.72000000000000053
40
0.72800000000000054
40
0.73600000000000054
40
0.74400000000000055
40
0.75200000000000056
40
0.76000000000000056
40
0.76800000000000057
40
0.77600000000000058
40
0.78400000000000059
40
0.79200000000000059
40
0.8000000000000006
40
0.80800000000000061
40
0.81600000000000061
40
0.82400000000000062
40
0.83200000000000063
40
0.84000000000000064
40
0.84800000000000064
40
0.85600000000000065
40
0.86400000000000066
40
0.87200000000000066
40
0.88000000000000067
40
0.88800000000000068
40
0.89600000000000068
40
0.90400000000000069
40
0.9120000000000007
40
0.92000000000000071
40
0.92800000000000071
40
0.93600000000000072
40
0.94400000000000073
40
0.95200000000000073
40
0.96000000000000074
40
0.96800000000000075
40
0.97600000000000076
40
0.98400000000000076
40
0.99200000000000077
40
1
40
1
40
1
40
1
40
1
40
1
41
1
41
1
41
1
41
1
41
1
41
1
41
1
41
1
41
1
41
1
41
1
41
1
41
1
41
1
41
1
41
1
41
1
41
1
41
1
41
1
41
1
41
1
41
1
41
1
41
1
41
1
41
1
41
1
41
1
41
1
41
1
41
1
41
1
41
1
41
1
41
1
41
1
41
1
41
1
41
1
41
1
41
1
41
1
41
1
41
1
41
1
41
1
41
1
41
1
41
1
41
1
41
1
41
1
41
1
41
1
41
1
41
1
41
1
41
1
41
1
41
1
41
1
41
1
41
1
41
1
41
1
41
1
41
1
41
1
41
1
41
1
41
1
41
1
41
1
41
1
41
1
41
1
41
1
41
1
41
1
41
1
41
1
41
1
41
1
41
1
41
1
41
1
41
1
41
1
41
1
41
1
41
1
41
1
41
1
41
1
41
1
41
1
41
1
41
1
41
1
41
1
41
1
41
1
41
1
41
1
41
1
41
1
41
1
41
1
41
1
41
1
41
1
41
1
41
1
41
1
41
1
41
1
41
1
41
1
41
1
41
1
41
1
41
1
41
1
41
1
41
1
41
1
41
1
41
1
41
1
10
-0.19776689825943647
20
-0.095158721868290469
30
0
10
-0.19795633462142501
20
-0.095060566520894368
30
0
10
-0.19824456382219569
20
-0.094766223308027642
30
0
10
-0.19839142676908461
20
-0.094028106598132322
30
0
10
-0.19800121818609984
20
-0.092519081574070225
30
0
10
-0.19664859699691609
20
-0.09016617067450497
30
0
10
-0.19464557933379287
20
-0.087831689227971549
30
0
10
-0.19226353191626011
20
-0.085930168822893477
30
0
10
-0.18978255278774186
20
-0.084627641256063715
30
0
10
-0.18745080179778331
20
-0.083756015011012513
30
0
10
-0.18546635265839995
20
-0.082978942364241623
30
0
10
-0.18395318667540894
20
-0.081916688986116371
30
0
10
-0.18294311317255543
20
-0.080276742200692364
30
0
10
-0.18234645748622941
20
-0.078006867904731728
30
0
10
-0.18195601291089034
20
-0.075356460846658646
30
0
10
-0.1815188801558027
20
-0.072735806407483616
30
0
10
-0.18079729551161175
20
-0.070613903928960539
30
0
10
-0.17962747358740236
20
-0.069408510377607785
30
0
10
-0.17799460512008417
20
-0.069361303460084928
30
0
10
-0.17604862412520711
20
-0.070481940453317016
30
0
10
-0.17401687240433056
20
-0.072618531495307392
30
0
10
-0.17213719202734851
20
-0.07549984929810459
30
0
10
-0.1705890801761587
20
-0.078787650833149633
30
0
10
-0.16941068197594139
20
-0.082127512111241835
30
0
10
-0.16847157780414471
20
-0.085190749067399207
30
0
10
-0.16756815076140197
20
-0.087692188812722713
30
0
10
-0.16649300393616054
20
-0.089413084764725648
30
0
10
-0.16511528982815857
20
-0.090222198741105777
30
0
10
-0.16345510790688264
20
-0.090097219679745655
30
0
10
-0.16176417965511422
20
-0.089147468785848311
30
0
10
-0.16041348670206282
20
-0.087561322873054542
30
0
10
-0.15977108813801111
20
-0.08554918999938245
30
0
10
-0.16009264020021582
20
-0.083292484238120107
30
0
10
-0.16138352214955234
20
-0.080879083342176167
30
0
10
-0.16343576156600309
20
-0.078322456161352527
30
0
10
-0.16591394087142533
20
-0.07560460038907342
30
0
10
-0.16842300180033357
20
-0.072709585007204827
30
0
10
-0.17058702584933466
20
-0.069664046644623029
30
0
10
-0.17211532764811541
20
-0.066567691205236146
30
0
10
-0.1728936126089623
20
-0.063645366892622124
30
0
10
-0.1729913238477529
20
-0.061225567338362513
30
0
10
-0.1725678106595071
20
-0.059630063257559436
30
0
10
-0.17180372197939733
20
-0.059085258306275049
30
0
10
-0.17082353738713643
20
-0.059626800618831244
30
0
10
-0.16961803528567843
20
-0.061001179441663562
30
0
10
-0.16811389083567974
20
-0.062773536300780156
30
0
10
-0.16625613525909094
20
-0.064449492261806893
30
0
10
-0.16407444631675208
20
-0.065582551588639112
30
0
10
-0.16178351124350207
20
-0.06590954842363804
30
0
10
-0.15976835059734806
20
-0.065393782102415254
30
0
10
-0.15841187030630807
20
-0.064147213692456018
30
0
10
-0.15797175805901495
20
-0.062383948662933217
30
0
10
-0.15841518530241799
20
-0.060358691584886499
30
0
10
-0.15933879783920574
20
-0.05831900831323112
30
0
10
-0.16017077709724203
20
-0.056487757245389937
30
0
10
-0.1603339424383563
20
-0.055040771436416773
30
0
10
-0.1594146449556568
20
-0.054087676523503131
30
0
10
-0.15735370898695228
20
-0.053647878019755756
30
0
10
-0.15437117227533789
20
-0.053665444838276725
30
0
10
-0.15085043751183808
20
-0.054029864837913347
30
0
10
-0.14723374521316646
20
-0.054594470246101687
30
0
10
-0.14391997923638397
20
-0.055196385242087552
30
0
10
-0.14114447475844441
20
-0.055674471880968954
30
0
10
-0.13892175250781094
20
-0.055892235654222272
30
0
10
-0.13713806284414443
20
-0.055768301461594769
30
0
10
-0.13561722176962696
20
-0.055309393393133253
30
0
10
-0.13419067600891194
20
-0.054633955002123667
30
0
10
-0.13278139507670142
20
-0.054020493872556259
30
0
10
-0.13141430820925235
20
-0.053854969859374019
30
0
10
-0.13016655865400664
20
-0.054494168946379429
30
0
10
-0.12913675342189715
20
-0.056162668204922023
30
0
10
-0.12840286455815417
20
-0.058813083528684786
30
0
10
-0.12801245751343618
20
-0.06218089424784775
30
0
10
-0.12797822563609629
20
-0.065882752735120342
30
0
10
-0.12827218902009008
20
-0.06949866957254297
30
0
10
-0.12881958730118853
20
-0.072663931888832689
30
0
10
-0.12949485712417921
20
-0.075149822083820331
30
0
10
-0.13011148932451508
20
-0.076967637587487647
30
0
10
-0.13045772272046621
20
-0.078314185943526501
30
0
10
-0.13034541565223781
20
-0.079477948310703206
30
0
10
-0.12964976910207601
20
-0.080764323734120111
30
0
10
-0.12836413130939153
20
-0.082399385640926984
30
0
10
-0.12659573827614665
20
-0.084506020599521975
30
0
10
-0.12452559432270509
20
-0.087121961292118855
30
0
10
-0.12237965783379655
20
-0.090205555903310766
30
0
10
-0.12039438803308813
20
-0.093645833111935153
30
0
10
-0.1187870181638494
20
-0.097272393028786083
30
0
10
-0.11771803629499891
20
-0.10086109185383349
30
0
10
-0.11728281897572868
20
-0.10416054847440485
30
0
10
-0.11752305735100045
20
-0.10693334991542298
30
0
10
-0.11843231952445149
20
-0.10899318721150977
30
0
10
-0.11996402461908022
20
-0.11024303216731236
30
0
10
-0.12203832340852361
20
-0.11071445248212292
30
0
10
-0.12454955397206458
20
-0.110602048411861
30
0
10
-0.12737693682021939
20
-0.11019415971800078
30
0
10
-0.1303949799415611
20
-0.10981011916598904
30
0
10
-0.13348439370347762
20
-0.10973192502445285
30
0
10
-0.13654185922699624
20
-0.11014541679639107
30
0
10
-0.13949259266567438
20
-0.11105971630241189
30
0
10
-0.14229260525556242
20
-0.11230583284576265
30
0
10
-0.14492067143363227
20
-0.11361423513369587
30
0
10
-0.14737317857217128
20
-0.1146702366315528
30
0
10
-0.14965763726466433
20
-0.11517997564800847
30
0
10
-0.15178716757079025
20
-0.1149282375745338
30
0
10
-0.15377353212313077
20
-0.1138493262956595
30
0
10
-0.15562972344199311
20
-0.11200841038348255
30
0
10
-0.15737411741438262
20
-0.10956583307246109
30
0
10
-0.15903455530384714
20
-0.10674717200859751
30
0
10
-0.16065141252352422
20
-0.10381130039591359
30
0
10
-0.16228365261565225
20
-0.10101839748322938
30
0
10
-0.16400456179200482
20
-0.098601256527772421
30
0
10
-0.16588164382244083
20
-0.096742258776860282
30
0
10
-0.16796043456260357
20
-0.095549209565535351
30
0
10
-0.17024640124241064
20
-0.095031038631456524
30
0
10
-0.17268840544478073
20
-0.095074843001908896
30
0
10
-0.17515937751112676
20
-0.095418649428649208
30
0
10
-0.1775013583535317
20
-0.095736345011718155
30
0
10
-0.1795743099791019
20
-0.095729327131788541
30
0
10
-0.18130188917969331
20
-0.095212731658660843
30
0
10
-0.18272237255680607
20
-0.094210842352020457
30
0
10
-0.18402650941713355
20
-0.093029212457111238
30
0
10
-0.18546046628796328
20
-0.092086379839386362
30
0
10
-0.18723544447497206
20
-0.091757510455159633
30
0
10
-0.1894410762336465
20
-0.0922247025527375
30
0
10
-0.19194083842155452
20
-0.093295456783864097
30
0
10
-0.19443832902094726
20
-0.094523927460151536
30
0
10
-0.19614529099417671
20
-0.095210979439464563
30
0
10
-0.19710794565026468
20
-0.095355155392404231
30
0
10
-0.19757746189744793
20
-0.09525687721568657
30
0
10
-0.19776689825943647
20
-0.095158721868290469
30
0
0
ARC
5
158
100
AcDbEntity
8
0
100
AcDbCircle
10
-0.081249999018078001
20
-0.072499999123823447
30
0
40
0.13558322925672001
210
0
220
0
230
1
100
AcDbArc
50
102.24233119887445
51
161.73209379275889
0
SPLINE
5
159
100
AcDbEntity
8
0
100
AcDbSpline
70
6
71
5
72
76
73
70
74
0
42
0.000000001
43
0.0000000001
44
0.0000000001
40
0
40
0
40
0
40
0
40
0
40
0
40
0.015384615384615385
40
0.030769230769230771
40
0.046153846153846156
40
0.061538461538461542
40
0.076923076923076927
40
0.092307692307692313
40
0.1076923076923077
40
0.12307692307692308
40
0.13846153846153847
40
0.15384615384615385
40
0.16923076923076924
40
0.18461538461538463
40
0.20000000000000001
40
0.2153846153846154
40
0.23076923076923078
40
0.24615384615384617
40
0.26153846153846155
40
0.27692307692307694
40
0.29230769230769232
40
0.30769230769230771
40
0.32307692307692309
40
0.33846153846153848
40
0.35384615384615387
40
0.36923076923076925
40
0.38461538461538464
40
0.40000000000000002
40
0.41538461538461541
40
0.43076923076923079
40
0.44615384615384618
40
0.46153846153846156
40
0.47692307692307695
40
0.49230769230769234
40
0.50769230769230766
40
0.52307692307692299
40
0.53846153846153832
40
0.55384615384615365
40
0.56923076923076898
40
0.58461538461538431
40
0.59999999999999964
40
0.61538461538461497
40
0.6307692307692303
40
0.64615384615384563
40
0.66153846153846096
40
0.67692307692307629
40
0.69230769230769162
40
0.70769230769230695
40
0.72307692307692228
40
0.73846153846153761
40
0.75384615384615294
40
0.76923076923076827
40
0.7846153846153836
40
0.79999999999999893
40
0.81538461538461426
40
0.83076923076922959
40
0.84615384615384492
40
0.86153846153846025
40
0.87692307692307558
40
0.89230769230769091
40
0.90769230769230624
40
0.92307692307692157
40
0.9384615384615369
40
0.95384615384615223
40
0.96923076923076756
40
0.98461538461538289
40
1
40
1
40
1
40
1
40
1
40
1
41
1
41
1
41
1
41
1
41
1
41
1
41
1
41
1
41
1
41
1
41
1
41
1
41
1
41
1
41
1
41
1
41
1
41
1
41
1
41
1
41
1
41
1
41
1
41
1
41
1
41
1
41
1
41
1
41
1
41
1
41
1
41
1
41
1
41
1
41
1
41
1
41
1
41
1
41
1
41
1
41
1
41
1
41
1
41
1
41
1
41
1
41
1
41
1
41
1
41
1
41
1
41
1
41
1
41
1
41
1
41
1
41
1
41
1
41
1
41
1
41
1
41
1
41
1
41
1
41
1
41
1
41
1
41
1
41
1
41
1
10
-0.029125980812464522
20
0.013260962628270543
30
0
10
-0.029402279878880184
20
0.013511459054290536
30
0
10
-0.029993303858049693
20
0.013943491685987843
30
0
10
-0.03099669146968163
20
0.014385242617360006
30
0
10
-0.032541238847182255
20
0.014585657081523798
30
0
10
-0.034640950806206987
20
0.014312982059519839
30
0
10
-0.036686600832557238
20
0.01365964435317207
30
0
10
-0.038462708772963226
20
0.012745691045213442
30
0
10
-0.039829416605597433
20
0.011613799857782331
30
0
10
-0.040736619770573426
20
0.010235162456706645
30
0
10
-0.041203101511795619
20
0.0085573105218476608
30
0
10
-0.041305657760268989
20
0.006536099143012457
30
0
10
-0.041165543810641206
20
0.0041816915515153512
30
0
10
-0.040931699573980553
20
0.0015735504009459476
30
0
10
-0.04075438361063035
20
-0.0011767923487024752
30
0
10
-0.040760135204863247
20
-0.003952715346060987
30
0
10
-0.041028194965155584
20
-0.006661334314553841
30
0
10
-0.041561407405483308
20
-0.0092668672204156508
30
0
10
-0.042274909766751217
20
-0.011805073886968031
30
0
10
-0.043031049145032009
20
-0.014346702074249198
30
0
10
-0.043665710081656546
20
-0.016970359361549055
30
0
10
-0.044017419847283967
20
-0.019732472934990048
30
0
10
-0.043956605616926311
20
-0.022636579560780391
30
0
10
-0.043410899920381246
20
-0.025608352476734337
30
0
10
-0.042353839848955285
20
-0.02852247886101027
30
0
10
-0.040797242817296749
20
-0.03122414374768993
30
0
10
-0.038782140376069113
20
-0.033553144238259162
30
0
10
-0.036370605099823781
20
-0.035365456975459807
30
0
10
-0.033636665386590374
20
-0.036559538267135906
30
0
10
-0.030661253682004553
20
-0.037078071065960262
30
0
10
-0.027528554690319108
20
-0.036901404328515422
30
0
10
-0.024321744808813009
20
-0.036043827829816383
30
0
10
-0.021119345811921691
20
-0.034548647124374089
30
0
10
-0.017990449812187014
20
-0.032484023296009627
30
0
10
-0.014993219796402973
20
-0.029937906516216969
30
0
10
-0.012181020029707255
20
-0.027011387485488272
30
0
10
-0.0096070935926558416
20
-0.023812337782309241
30
0
10
-0.0073296909011739417
20
-0.020449008785081817
30
0
10
-0.0054172899312374088
20
-0.017023530664631574
30
0
10
-0.0039531277231118385
20
-0.01362574230630887
30
0
10
-0.003041808710025714
20
-0.010326079162951047
30
0
10
-0.0027855936617911348
20
-0.0071821829158711945
30
0
10
-0.003259237450106547
20
-0.0042462643273993954
30
0
10
-0.0044835146477658671
20
-0.0015727736195034197
30
0
10
-0.0064032822482178401
20
0.00077540061456087851
30
0
10
-0.0088535464873561471
20
0.0027168222513003532
30
0
10
-0.011566814755349148
20
0.00415500707763004
30
0
10
-0.014233280952207465
20
0.0049992793556120603
30
0
10
-0.016549385497828549
20
0.0051819317423554565
30
0
10
-0.018267462194347831
20
0.0046755375742148142
30
0
10
-0.019253700861955166
20
0.003513590777203163
30
0
10
-0.019512203350396155
20
0.0017981818095752747
30
0
10
-0.019153876622158613
20
-0.00031311208019392116
30
0
10
-0.018377602230746169
20
-0.0026159604104706207
30
0
10
-0.01744850826789817
20
-0.0048683859052029346
30
0
10
-0.016671994711173931
20
-0.006803502353270951
30
0
10
-0.01632978976905965
20
-0.0081678071195068896
30
0
10
-0.016621443612788677
20
-0.0087560761606219669
30
0
10
-0.017602486144557356
20
-0.0084480287660616011
30
0
10
-0.019126739984208916
20
-0.0072433218107565197
30
0
10
-0.02093094756131678
20
-0.0052378112312755128
30
0
10
-0.022719172516259337
20
-0.0026010095999044825
30
0
10
-0.024242047740183507
20
0.00044676711921922985
30
0
10
-0.025390288404991294
20
0.0036570093180481947
30
0
10
-0.026244447063725904
20
0.0067756965792769071
30
0
10
-0.026989022454002119
20
0.0095660178133356536
30
0
10
-0.02767795446490973
20
0.011378120215385441
30
0
10
-0.028335509459555694
20
0.012440513129867832
30
0
10
-0.028849681746048818
20
0.013010466202250525
30
0
10
-0.029125980812464522
20
0.013260962628270543
30
0
0
SPLINE
5
160
100
AcDbEntity
8
0
100
AcDbSpline
70
6
71
5
72
46
73
40
74
0
42
0.000000001
43
0.0000000001
44
0.0000000001
40
0
40
0
40
0
40
0
40
0
40
0
40
0.028571428571428571
40
0.057142857142857141
40
0.085714285714285715
40
0.11428571428571428
40
0.14285714285714285
40
0.17142857142857143
40
0.20000000000000001
40
0.22857142857142859
40
0.25714285714285717
40
0.28571428571428575
40
0.31428571428571433
40
0.34285714285714292
40
0.3714285714285715
40
0.40000000000000008
40
0.42857142857142866
40
0.45714285714285724
40
0.48571428571428582
40
0.51428571428571435
40
0.54285714285714293
40
0.57142857142857151
40
0.60000000000000009
40
0.62857142857142867
40
0.65714285714285725
40
0.68571428571428583
40
0.71428571428571441
40
0.74285714285714299
40
0.77142857142857157
40
0.80000000000000016
40
0.82857142857142874
40
0.85714285714285732
40
0.8857142857142859
40
0.91428571428571448
40
0.94285714285714306
40
0.97142857142857164
40
1
40
1
40
1
40
1
40
1
40
1
41
1
41
1
41
1
41
1
41
1
41
1
41
1
41
1
41
1
41
1
41
1
41
1
41
1
41
1
41
1
41
1
41
1
41
1
41
1
41
1
41
1
41
1
41
1
41
1
41
1
41
1
41
1
41
1
41
1
41
1
41
1
41
1
41
1
41
1
41
1
41
1
41
1
41
1
41
1
41
1
10
-0.42693119896795989
20
-0.1322283735479225
30
0
10
-0.42613371002399503
20
-0.12983396200036856
30
0
10
-0.42446354101620359
20
-0.12511613439774599
30
0
10
-0.42176187339579957
20
-0.11832231083387065
30
0
10
-0.41789438627606151
20
-0.11004864401862112
30
0
10
-0.41295958154301604
20
-0.10131747981332768
30
0
10
-0.40825643923432886
20
-0.094315318071636914
30
0
10
-0.40407659741688629
20
-0.089032460670629143
30
0
10
-0.40063677478810222
20
-0.085391036831733061
30
0
10
-0.39805185243969138
20
-0.083296944602124806
30
0
10
-0.39628777862552517
20
-0.082709738126902438
30
0
10
-0.39521175996988117
20
-0.083620680408970138
30
0
10
-0.39467115402811198
20
-0.085999268584798297
30
0
10
-0.39458089452436035
20
-0.089740302453632209
30
0
10
-0.39493974480683974
20
-0.094645667216101639
30
0
10
-0.39576675091825475
20
-0.10044882743666754
30
0
10
-0.3970591023572716
20
-0.10682674324367934
30
0
10
-0.39874234408553377
20
-0.11341702718893294
30
0
10
-0.40062016896419256
20
-0.11983106805599791
30
0
10
-0.40244326603462327
20
-0.12572253845432788
30
0
10
-0.40398322957843147
20
-0.13085804469863352
30
0
10
-0.40510417103309848
20
-0.13518683870576029
30
0
10
-0.40583665200884989
20
-0.13891360142538262
30
0
10
-0.40644912312835346
20
-0.14256709138081128
30
0
10
-0.40732920959941732
20
-0.14678666075707691
30
0
10
-0.40886085547367607
20
-0.15209767799174592
30
0
10
-0.41131540064229044
20
-0.15871828548801367
30
0
10
-0.41470640311440904
20
-0.16628426919246253
30
0
10
-0.41879147841458497
20
-0.17390429643708954
30
0
10
-0.42317587730745321
20
-0.18044249394055592
30
0
10
-0.42738633671003612
20
-0.18473746151564457
30
0
10
-0.43095372325184628
20
-0.18583571741889005
30
0
10
-0.43349859130924456
20
-0.1832470199307534
30
0
10
-0.43479495200262502
20
-0.17710940039380105
30
0
10
-0.43474318971932718
20
-0.16799434567334376
30
0
10
-0.43335817764040196
20
-0.15677135225951183
30
0
10
-0.43127342222158249
20
-0.14691538667929574
30
0
10
-0.42924847467999278
20
-0.13948260368306975
30
0
10
-0.42772868791192487
20
-0.13462278509547643
30
0
10
-0.42693119896795989
20
-0.1322283735479225
30
0
0
SPLINE
5
161
100
AcDbEntity
8
0
100
AcDbSpline
70
6
71
5
72
61
73
55
74
0
42
0.000000001
43
0.0000000001
44
0.0000000001
40
0
40
0
40
0
40
0
40
0
40
0
40
0.02
40
0.040000000000000001
40
0.059999999999999998
40
0.080000000000000002
40
0.10000000000000001
40
0.12000000000000001
40
0.14000000000000001
40
0.16
40
0.17999999999999999
40
0.19999999999999998
40
0.21999999999999997
40
0.23999999999999996
40
0.25999999999999995
40
0.27999999999999997
40
0.29999999999999999
40
0.32000000000000001
40
0.34000000000000002
40
0.36000000000000004
40
0.38000000000000006
40
0.40000000000000008
40
0.4200000000000001
40
0.44000000000000011
40
0.46000000000000013
40
0.48000000000000015
40
0.50000000000000011
40
0.52000000000000013
40
0.54000000000000015
40
0.56000000000000016
40
0.58000000000000018
40
0.6000000000000002
40
0.62000000000000022
40
0.64000000000000024
40
0.66000000000000025
40
0.68000000000000027
40
0.70000000000000029
40
0.72000000000000031
40
0.74000000000000032
40
0.76000000000000034
40
0.78000000000000036
40
0.80000000000000038
40
0.8200000000000004
40
0.84000000000000041
40
0.86000000000000043
40
0.88000000000000045
40
0.90000000000000047
40
0.92000000000000048
40
0.9400000000000005
40
0.96000000000000052
40
0.98000000000000054
40
1
40
1
40
1
40
1
40
1
40
1
41
1
41
1
41
1
41
1
41
1
41
1
41
1
41
1
41
1
41
1
41
1
41
1
41
1
41
1
41
1
41
1
41
1
41
1
41
1
41
1
41
1
41
1
41
1
41
1
41
1
41
1
41
1
41
1
41
1
41
1
41
1
41
1
41
1
41
1
41
1
41
1
41
1
41
1
41
1
41
1
41
1
41
1
41
1
41
1
41
1
41
1
41
1
41
1
41
1
41
1
41
1
41
1
41
1
41
1
41
1
10
-0.36659590640046824
20
-0.096996606274197192
30
0
10
-0.36634688348270628
20
-0.096853834037247899
30
0
10
-0.36583378982700726
20
-0.096645633154881963
30
0
10
-0.3650165751939845
20
-0.09657343627916759
30
0
10
-0.36381205793149324
20
-0.096990645176654539
30
0
10
-0.36205419469137917
20
-0.098421945442939043
30
0
10
-0.36001238006687369
20
-0.10075211362226685
30
0
10
-0.35772063407918525
20
-0.10387335086246777
30
0
10
-0.35532428044826009
20
-0.10753936163688582
30
0
10
-0.35310013368814386
20
-0.11135145726757266
30
0
10
-0.35137470388368108
20
-0.11485664456210261
30
0
10
-0.3504601484645517
20
-0.11762593092637155
30
0
10
-0.35057883607514023
20
-0.11934585014826336
30
0
10
-0.35180277643142216
20
-0.11989203442439822
30
0
10
-0.3539606213018559
20
-0.11944256334060901
30
0
10
-0.35667825402445041
20
-0.11842697640388407
30
0
10
-0.35949756876132
20
-0.11737920679590462
30
0
10
-0.36197556446193957
20
-0.11681442349875208
30
0
10
-0.36378200208987332
20
-0.11710838394768334
30
0
10
-0.36482216776437337
20
-0.11834399803240811
30
0
10
-0.36520682506172092
20
-0.12035628604211729
30
0
10
-0.36516022457355896
20
-0.12285833071625619
30
0
10
-0.3649514222133029
20
-0.12553573539610136
30
0
10
-0.36480987520156671
20
-0.12816463652765345
30
0
10
-0.36486644529218137
20
-0.13068783007220716
30
0
10
-0.36518605512388908
20
-0.13313452275629023
30
0
10
-0.36578799716364269
20
-0.13556065377556162
30
0
10
-0.36666989540703854
20
-0.13798431926479396
30
0
10
-0.36783233601947563
20
-0.14031628726019352
30
0
10
-0.3692964763379441
20
-0.14231262876546422
30
0
10
-0.37107441764207627
20
-0.14367232185576539
30
0
10
-0.37314259667457944
20
-0.14412348041902479
30
0
10
-0.37541856991082706
20
-0.14350399246379988
30
0
10
-0.37772505160723374
20
-0.14186883111084778
30
0
10
-0.37979976970624935
20
-0.13949878194260032
30
0
10
-0.38136435442777705
20
-0.13678011315662711
30
0
10
-0.38218090214877093
20
-0.13411349077575901
30
0
10
-0.38210820111219729
20
-0.13181848825756887
30
0
10
-0.38117126634247989
20
-0.13002233597112131
30
0
10
-0.37958380622759652
20
-0.12861164097239663
30
0
10
-0.37765606763439269
20
-0.12734095892692013
30
0
10
-0.37572210715978155
20
-0.1259136090749326
30
0
10
-0.37406653330169742
20
-0.12406598964699268
30
0
10
-0.37283411139103406
20
-0.12166837814922125
30
0
10
-0.37201828954061328
20
-0.11874430276339858
30
0
10
-0.37151912462177517
20
-0.11541761411246147
30
0
10
-0.37118116128425543
20
-0.1118804585196421
30
0
10
-0.37083950285468253
20
-0.1083527851329182
30
0
10
-0.37036194679806778
20
-0.10504584731182183
30
0
10
-0.36969384421414053
20
-0.10212331152726498
30
0
10
-0.36883302776774313
20
-0.099711528694648471
30
0
10
-0.36800971158484835
20
-0.098270555776039936
30
0
10
-0.36732792733357889
20
-0.097502266576577762
30
0
10
-0.36684492931823015
20
-0.097139378511146471
30
0
10
-0.36659590640046824
20
-0.096996606274197192
30
0
0
SPLINE
5
162
100
AcDbEntity
8
0
100
AcDbSpline
70
6
71
5
72
31
73
25
74
0
42
0.000000001
43
0.0000000001
44
0.0000000001
40
0
40
0
40
0
40
0
40
0
40
0
40
0.050000000000000003
40
0.10000000000000001
40
0.15000000000000002
40
0.20000000000000001
40
0.25
40
0.29999999999999999
40
0.34999999999999998
40
0.39999999999999997
40
0.44999999999999996
40
0.49999999999999994
40
0.54999999999999993
40
0.59999999999999998
40
0.65000000000000002
40
0.70000000000000007
40
0.75000000000000011
40
0.80000000000000016
40
0.8500000000000002
40
0.90000000000000024
40
0.95000000000000029
40
1
40
1
40
1
40
1
40
1
40
1
41
1
41
1
41
1
41
1
41
1
41
1
41
1
41
1
41
1
41
1
41
1
41
1
41
1
41
1
41
1
41
1
41
1
41
1
41
1
41
1
41
1
41
1
41
1
41
1
41
1
10
-0.059999999274888374
20
0.064999999214462409
30
0
10
-0.059999999274883781
20
0.065624383003438355
30
0
10
-0.059949876711781258
20
0.066873150581390803
30
0
10
-0.059724325177845622
20
0.068716487064652942
30
0
10
-0.05913527354030107
20
0.070995379740349959
30
0
10
-0.057997689598246423
20
0.073270547624469606
30
0
10
-0.056573381675944945
20
0.074743176718328586
30
0
10
-0.054999999335315207
20
0.075254751615610294
30
0
10
-0.053426616994681937
20
0.074743176718362919
30
0
10
-0.052002309072372487
20
0.073270547624526866
30
0
10
-0.050864725130313045
20
0.070995379740409245
30
0
10
-0.050128410583383624
20
0.068146763895768847
30
0
10
-0.049872623134740869
20
0.064999999214462409
30
0
10
-0.050128410583360684
20
0.061853234533155985
30
0
10
-0.05086472513027445
20
0.059004618688515836
30
0
10
-0.052002309072330902
20
0.056729450804398153
30
0
10
-0.053426616994653002
20
0.055256821710562051
30
0
10
-0.054999999335313382
20
0.054745246813314385
30
0
10
-0.05657338167597771
20
0.05525682171059635
30
0
10
-0.057997689598307804
20
0.056729450804455288
30
0
10
-0.059135273540370042
20
0.059004618688576052
30
0
10
-0.059724325177898031
20
0.061283511364271077
30
0
10
-0.059949876711808708
20
0.063126847847535042
30
0
10
-0.05999999927489294
20
0.064375615425486449
30
0
10
-0.059999999274888374
20
0.064999999214462409
30
0
0
LINE
5
163
100
AcDbEntity
8
0
100
AcDbLine
10
0.6797115620198777
20
0.33997231733573452
30
0
11
1.5801951410226895
21
0.33997231733573452
31
0
0
LINE
5
164
100
AcDbEntity
8
0
100
AcDbLine
10
0.6797115620198777
20
0.28688883264277798
30
0
11
1.5801951410226895
21
0.28688883264277798
31
0
0
LINE
5
165
100
AcDbEntity
8
0
100
AcDbLine
10
1.5801951410226895
20
0.28688883264277798
30
0
11
1.5801951410226895
21
0.33997231733573452
31
0
0
LINE
5
166
100
AcDbEntity
8
0
100
AcDbLine
10
1.5801951410226895
20
0.31343057498925625
30
0
11
0.50692278996594031
21
0.31343057498925636
31
0
0
SPLINE
5
167
100
AcDbEntity
8
0
100
AcDbSpline
70
6
71
5
72
36
73
30
74
0
42
0.000000001
43
0.0000000001
44
0.0000000001
40
0
40
0
40
0
40
0
40
0
40
0
40
0.040000000000000001
40
0.080000000000000002
40
0.12
40
0.16
40
0.20000000000000001
40
0.24000000000000002
40
0.28000000000000003
40
0.32000000000000001
40
0.35999999999999999
40
0.39999999999999997
40
0.43999999999999995
40
0.47999999999999993
40
0.51999999999999991
40
0.55999999999999994
40
0.59999999999999998
40
0.64000000000000001
40
0.68000000000000005
40
0.72000000000000008
40
0.76000000000000012
40
0.80000000000000016
40
0.84000000000000019
40
0.88000000000000023
40
0.92000000000000026
40
0.9600000000000003
40
1
40
1
40
1
40
1
40
1
40
1
41
1
41
1
41
1
41
1
41
1
41
1
41
1
41
1
41
1
41
1
41
1
41
1
41
1
41
1
41
1
41
1
41
1
41
1
41
1
41
1
41
1
41
1
41
1
41
1
41
1
41
1
41
1
41
1
41
1
41
1
10
-0.37499999546805235
20
-0.29999999637444186
30
0
10
-0.37459025295908643
20
-0.29979748902782832
30
0
10
-0.37374250399430914
20
-0.29943280195267369
30
0
10
-0.37240755355233218
20
-0.29901060211783004
30
0
10
-0.37060092976160469
20
-0.29870419153953714
30
0
10
-0.36857203766521007
20
-0.29873434969943874
30
0
10
-0.36702429355805444
20
-0.2991424933922095
30
0
10
-0.36614026137959083
20
-0.29988315800073906
30
0
10
-0.36598738588165919
20
-0.30091061557798809
30
0
10
-0.3664660190251614
20
-0.30218964566974071
30
0
10
-0.36737022312397066
20
-0.30368637359515616
30
0
10
-0.36845297299423757
20
-0.30535810459538903
30
0
10
-0.3694891666028261
20
-0.30714329566590126
30
0
10
-0.37033892712296712
20
-0.30895135686538922
30
0
10
-0.37101304232213395
20
-0.31065176470711664
30
0
10
-0.37161787210911079
20
-0.31209614602201408
30
0
10
-0.37229861179599133
20
-0.31314097195978141
30
0
10
-0.37318459201535492
20
-0.3136697825369979
30
0
10
-0.37433184011411419
20
-0.31361674903961212
30
0
10
-0.37567139851907227
20
-0.31298823901070061
30
0
10
-0.37705299703248862
20
-0.31184597810682302
30
0
10
-0.37828311866742353
20
-0.31029291899338701
30
0
10
-0.37916388412149393
20
-0.30845889465945847
30
0
10
-0.37953305530942566
20
-0.30648669890557506
30
0
10
-0.37929927576733508
20
-0.30451893487528892
30
0
10
-0.37843803251178099
20
-0.30269020641031069
30
0
10
-0.37728153396842584
20
-0.30143299442981303
30
0
10
-0.37620095904810452
20
-0.30064784603235506
30
0
10
-0.37540973797701821
20
-0.30020250372105539
30
0
10
-0.37499999546805235
20
-0.29999999637444186
30
0
0
ARC
5
168
100
AcDbEntity
8
0
100
AcDbCircle
10
0.17303109554420981
20
-0.20503668526832453
30
0
40
0.038539067054474428
210
0
220
0
230
1
100
AcDbArc
50
254.63486950577067
51
325.18064396147156
0
ENDSEC
0
SECTION
2
OBJECTS
0
DICTIONARY
5
C
100
AcDbDictionary
3
ACAD_GROUP
350
D
3
ACAD_MLINESTYLE
350
17
0
DICTIONARY
5
D
100
AcDbDictionary
0
DICTIONARY
5
1A
330
C
100
AcDbDictionary
0
DICTIONARY
5
17
100
AcDbDictionary
0
ENDSEC
0
EOF
