0
SECTION
2
HEADER
9
$INSUNITS
70
1
9
$ACADVER
1
AC1014
9
$HANDSEED
5
FFFF
0
ENDSEC
0
SECTION
2
TABLES
0
TABLE
2
VPORT
5
8
100
AcDbSymbolTable
0
ENDTAB
0
TABLE
2
LTYPE
5
5
100
AcDbSymbolTable
0
LTYPE
5
14
100
AcDbSymbolTableRecord
100
AcDbLinetypeTableRecord
2
BYBLOCK
70
0
0
LTYPE
5
15
100
AcDbSymbolTableRecord
100
AcDbLinetypeTableRecord
2
BYLAYER
70
0
0
ENDTAB
0
TABLE
2
LAYER
5
2
100
AcDbSymbolTable
70
2
0
LAYER
5
50
100
AcDbSymbolTableRecord
100
AcDbLayerTableRecord
2
0
70
0
6
CONTINUOUS
0
ENDTAB
0
TABLE
2
STYLE
5
3
100
AcDbSymbolTable
70
1
0
STYLE
5
11
100
AcDbSymbolTableRecord
100
AcDbTextStyleTableRecord
2
STANDARD
70
0
0
ENDTAB
0
TABLE
2
VIEW
5
6
100
AcDbSymbolTable
70
0
0
ENDTAB
0
TABLE
2
UCS
5
7
100
AcDbSymbolTable
70
0
0
ENDTAB
0
TABLE
2
APPID
5
9
100
AcDbSymbolTable
70
2
0
APPID
5
12
100
AcDbSymbolTableRecord
100
AcDbRegAppTableRecord
2
ACAD
70
0
0
ENDTAB
0
TABLE
2
DIMSTYLE
5
A
100
AcDbSymbolTable
70
1
0
ENDTAB
0
TABLE
2
BLOCK_RECORD
5
1
100
AcDbSymbolTable
70
1
0
BLOCK_RECORD
5
1F
100
AcDbSymbolTableRecord
100
AcDbBlockTableRecord
2
*MODEL_SPACE
0
BLOCK_RECORD
5
1B
100
AcDbSymbolTableRecord
100
AcDbBlockTableRecord
2
*PAPER_SPACE
0
ENDTAB
0
ENDSEC
0
SECTION
2
BLOCKS
0
BLOCK
5
20
100
AcDbEntity
100
AcDbBlockBegin
2
*MODEL_SPACE
0
ENDBLK
5
21
100
AcDbEntity
100
AcDbBlockEnd
0
BLOCK
5
1C
100
AcDbEntity
100
AcDbBlockBegin
2
*PAPER_SPACE
0
ENDBLK
5
1D
100
AcDbEntity
100
AcDbBlockEnd
0
ENDSEC
0
SECTION
2
ENTITIES
0
SPLINE
5
100
100
AcDbEntity
8
0
100
AcDbSpline
70
4
71
5
72
71
73
65
74
0
42
0.000000001
43
0.0000000001
44
0.0000000001
40
0
40
0
40
0
40
0
40
0
40
0
40
0.016666666666666666
40
0.033333333333333333
40
0.050000000000000003
40
0.066666666666666666
40
0.083333333333333329
40
0.099999999999999992
40
0.11666666666666665
40
0.13333333333333333
40
0.14999999999999999
40
0.16666666666666666
40
0.18333333333333332
40
0.19999999999999998
40
0.21666666666666665
40
0.23333333333333331
40
0.24999999999999997
40
0.26666666666666666
40
0.28333333333333333
40
0.29999999999999999
40
0.31666666666666665
40
0.33333333333333331
40
0.34999999999999998
40
0.36666666666666664
40
0.3833333333333333
40
0.39999999999999997
40
0.41666666666666663
40
0.43333333333333329
40
0.44999999999999996
40
0.46666666666666662
40
0.48333333333333328
40
0.49999999999999994
40
0.51666666666666661
40
0.53333333333333333
40
0.55000000000000004
40
0.56666666666666676
40
0.58333333333333348
40
0.6000000000000002
40
0.61666666666666692
40
0.63333333333333364
40
0.65000000000000036
40
0.66666666666666707
40
0.68333333333333379
40
0.70000000000000051
40
0.71666666666666723
40
0.73333333333333395
40
0.75000000000000067
40
0.76666666666666738
40
0.7833333333333341
40
0.80000000000000082
40
0.81666666666666754
40
0.83333333333333426
40
0.85000000000000098
40
0.8666666666666677
40
0.88333333333333441
40
0.90000000000000113
40
0.91666666666666785
40
0.93333333333333457
40
0.95000000000000129
40
0.96666666666666801
40
0.98333333333333472
40
1
40
1
40
1
40
1
40
1
40
1
41
1
41
1
41
1
41
1
41
1
41
1
41
1
41
1
41
1
41
1
41
1
41
1
41
1
41
1
41
1
41
1
41
1
41
1
41
1
41
1
41
1
41
1
41
1
41
1
41
1
41
1
41
1
41
1
41
1
41
1
41
1
41
1
41
1
41
1
41
1
41
1
41
1
41
1
41
1
41
1
41
1
41
1
41
1
41
1
41
1
41
1
41
1
41
1
41
1
41
1
41
1
41
1
41
1
41
1
41
1
41
1
41
1
41
1
41
1
41
1
41
1
41
1
41
1
41
1
41
1
10
-0.52999999359484729
20
-0.34999999577018215
30
0
10
-0.53025376403381308
20
-0.35981000957089682
30
0
10
-0.53014847981812996
20
-0.37847964810161216
30
0
10
-0.52815204092246237
20
-0.4036329838160978
30
0
10
-0.52181175695933801
20
-0.43146555095832662
30
0
10
-0.5079103459942762
20
-0.45660969510909066
30
0
10
-0.48851948460762112
20
-0.47171206446689162
30
0
10
-0.46461482603786602
20
-0.47601430540253648
30
0
10
-0.43786303004919791
20
-0.46823506124773251
30
0
10
-0.41030270445025857
20
-0.44705812066438011
30
0
10
-0.38395456550896612
20
-0.41171856751414854
30
0
10
-0.36047949724256373
20
-0.36250926021734053
30
0
10
-0.34075890051428204
20
-0.30143847829903669
30
0
10
-0.32497198069894478
20
-0.2318822657586927
30
0
10
-0.31277970598681742
20
-0.15801821446878034
30
0
10
-0.3034704245776722
20
-0.084338851590548131
30
0
10
-0.29612240547718821
20
-0.015126224709311391
30
0
10
-0.28975466616654194
20
0.046042244368950311
30
0
10
-0.28349167418765864
20
0.096836624968276774
30
0
10
-0.27670087004550004
20
0.13661838397580761
30
0
10
-0.26919738122650666
20
0.16713720864635495
30
0
10
-0.26106609101893896
20
0.19180192825633827
30
0
10
-0.25233476003637628
20
0.21441773123422883
30
0
10
-0.24272886147687001
20
0.23818500381076374
30
0
10
-0.23131074688868183
20
0.26437906417123519
30
0
10
-0.21675428704663732
20
0.29265376835975482
30
0
10
-0.19781315703274563
20
0.321795211298601
30
0
10
-0.17368121923441063
20
0.35028043742519116
30
0
10
-0.14450390834221888
20
0.37702096417108411
30
0
10
-0.11122646807044491
20
0.4014297906303394
30
0
10
-0.075198156277802325
20
0.42324427257737363
30
0
10
-0.037839624588149288
20
0.4424239907519778
30
0
10
-0.00032096060500314509
20
0.45902609155395013
30
0
10
0.03685525906173219
20
0.47307051619313556
30
0
10
0.073864966238304519
20
0.48449152274050683
30
0
10
0.11120830712809121
20
0.49317490835703093
30
0
10
0.1494441035165518
20
0.49897123784446196
30
0
10
0.18891885687667581
20
0.50171818301053539
30
0
10
0.22942293699987684
20
0.50126068655926614
30
0
10
0.27016568262379731
20
0.49746539881734725
30
0
10
0.31009737844631674
20
0.49022604945900089
30
0
10
0.34814893585849827
20
0.47947165936941499
30
0
10
0.3834812321110761
20
0.46517322420690377
30
0
10
0.41578784300294169
20
0.44735231337262571
30
0
10
0.44537968338328204
20
0.42608507365174053
30
0
10
0.47288246834230069
20
0.4014985001655168
30
0
10
0.49901183005687511
20
0.37376863484867356
30
0
10
0.52434075419898141
20
0.34311796819921209
30
0
10
0.54901299369832157
20
0.30981371807906072
30
0
10
0.57272544974769202
20
0.27416411984357303
30
0
10
0.59492421340858614
20
0.23651330770854587
30
0
10
0.61493901549015195
20
0.19723676380383903
30
0
10
0.63214032148168864
20
0.15673646483749751
30
0
10
0.64609249099563903
20
0.11543661519857813
30
0
10
0.65669240565909792
20
0.073778087893481697
30
0
10
0.66407303989090793
20
0.032196279803756375
30
0
10
0.6685256301780732
20
-0.0088994079403848618
30
0
10
0.67041266446869574
20
-0.049147716415624085
30
0
10
0.67009062193964219
20
-0.088254839997199061
30
0
10
0.66781421309618627
20
-0.12602079043689901
30
0
10
0.66373393238784273
20
-0.16232900010534074
30
0
10
0.65908937944926693
20
-0.19016355206182212
30
0
10
0.65484172835747378
20
-0.21034984842462315
30
0
10
0.651670484770143
20
-0.22350100888902508
30
0
10
0.64999999214462401
20
-0.22999999722040543
30
0
0
ARC
5
101
100
AcDbEntity
8
0
100
AcDbCircle
10
-1.0819057239669954
20
3.5913127105500626
30
0
40
4.1954651970989003
210
0
220
0
230
1
100
AcDbArc
50
279.2156302222013
51
294.381113340409
0
SPLINE
5
102
100
AcDbEntity
8
0
100
AcDbSpline
70
4
71
5
72
21
73
15
74
0
42
0.000000001
43
0.0000000001
44
0.0000000001
40
0
40
0
40
0
40
0
40
0
40
0
40
0.10000000000000001
40
0.20000000000000001
40
0.30000000000000004
40
0.40000000000000002
40
0.5
40
0.59999999999999998
40
0.69999999999999996
40
0.79999999999999993
40
0.89999999999999991
40
1
40
1
40
1
40
1
40
1
40
1
41
1
41
1
41
1
41
1
41
1
41
1
41
1
41
1
41
1
41
1
41
1
41
1
41
1
41
1
41
1
10
-0.40999999504507056
20
-0.54999999335314342
30
0
10
-0.41751057727546725
20
-0.55072427265768398
30
0
10
-0.43220236992489619
20
-0.55175347810325082
30
0
10
-0.45325194511386779
20
-0.55203922888044799
30
0
10
-0.47930929132299444
20
-0.54986270272853799
30
0
10
-0.50831054300832257
20
-0.54259620500261851
30
0
10
-0.53344088936892453
20
-0.53040130618852432
30
0
10
-0.55441322750031863
20
-0.51291246950662739
30
0
10
-0.57112457286360696
20
-0.48999857598842306
30
0
10
-0.58380100563546666
20
-0.46194746883735882
30
0
10
-0.59277181839498749
20
-0.42917840033916999
30
0
10
-0.59723933832825471
20
-0.39951390577075396
30
0
10
-0.59916480821566054
20
-0.37545102141736708
30
0
10
-0.59982543935150556
20
-0.35861588096202052
30
0
10
-0.59999999274888371
20
-0.34999999577018215
30
0
0
LINE
5
103
100
AcDbEntity
8
0
100
AcDbLine
10
-0.66999999190292014
20
-0.34999999577018215
30
0
11
-0.52999999359484729
21
-0.34999999577018215
31
0
0
ARC
5
104
100
AcDbEntity
8
0
100
AcDbCircle
10
-0.66999999190292026
20
-0.33749999592124708
30
0
40
0.012499999848935078
210
0
220
0
230
1
100
AcDbArc
50
143.13010235415567
51
270.00000000000051
0
LINE
5
105
100
AcDbEntity
8
0
100
AcDbLine
10
-0.67999999178206816
20
-0.32999999601188607
30
0
11
-0.60499999268845772
21
-0.26499999679742364
31
0
0
LINE
5
106
100
AcDbEntity
8
0
100
AcDbLine
10
-0.60499999268845772
20
-0.26499999679742364
30
0
11
-0.60499999268845772
21
-0.22999999722040543
31
0
0
SPLINE
5
107
100
AcDbEntity
8
0
100
AcDbSpline
70
4
71
5
72
31
73
25
74
0
42
0.000000001
43
0.0000000001
44
0.0000000001
40
0
40
0
40
0
40
0
40
0
40
0
40
0.050000000000000003
40
0.10000000000000001
40
0.15000000000000002
40
0.20000000000000001
40
0.25
40
0.29999999999999999
40
0.34999999999999998
40
0.39999999999999997
40
0.44999999999999996
40
0.49999999999999994
40
0.54999999999999993
40
0.59999999999999998
40
0.65000000000000002
40
0.70000000000000007
40
0.75000000000000011
40
0.80000000000000016
40
0.8500000000000002
40
0.90000000000000024
40
0.95000000000000029
40
1
40
1
40
1
40
1
40
1
40
1
41
1
41
1
41
1
41
1
41
1
41
1
41
1
41
1
41
1
41
1
41
1
41
1
41
1
41
1
41
1
41
1
41
1
41
1
41
1
41
1
41
1
41
1
41
1
41
1
41
1
10
-0.60499999268845772
20
-0.22999999722040543
30
0
10
-0.60761073674149013
20
-0.22896377121322017
30
0
10
-0.61264814996002337
20
-0.22682832107480674
30
0
10
-0.6196520472024909
20
-0.22343615195063835
30
0
10
-0.62788160690925121
20
-0.21853372566354382
30
0
10
-0.63630532422146402
20
-0.21176634900100211
30
0
10
-0.64286732792963741
20
-0.20435515722370368
30
0
10
-0.64760785408065336
20
-0.19630380663270086
30
0
10
-0.65062896061242359
20
-0.18763039876140011
30
0
10
-0.65212263536683523
20
-0.17837471068020361
30
0
10
-0.65232756997545238
20
-0.16860210487995952
30
0
10
-0.65148325426634957
20
-0.15840844699786907
30
0
10
-0.64978880993823385
20
-0.14792488459837086
30
0
10
-0.64735569773341306
20
-0.13732568004719053
30
0
10
-0.64417758908030642
20
-0.12683002868779195
30
0
10
-0.64017226405001693
20
-0.11667633353873147
30
0
10
-0.63521329510311464
20
-0.10710019791587924
30
0
10
-0.62916448902840394
20
-0.098311740006357562
30
0
10
-0.62191666142290269
20
-0.09046992692941648
30
0
10
-0.61341638464476211
20
-0.083663752575716982
30
0
10
-0.60364513503245021
20
-0.077934739960010019
30
0
10
-0.59481424170044772
20
-0.074220955290017654
30
0
10
-0.58762597587831755
20
-0.071922074614887435
30
0
10
-0.58258367493379892
20
-0.070604804506000568
30
0
10
-0.57999999299058758
20
-0.06999999915403643
30
0
0
ARC
5
108
100
AcDbEntity
8
0
100
AcDbCircle
10
0.31486964986476706
20
-0.21393113911725742
30
0
40
0.90637070272334008
210
0
220
0
230
1
100
AcDbArc
50
159.21657807800747
51
170.86278298189913
0
SPLINE
5
109
100
AcDbEntity
8
0
100
AcDbSpline
70
4
71
5
72
51
73
45
74
0
42
0.000000001
43
0.0000000001
44
0.0000000001
40
0
40
0
40
0
40
0
40
0
40
0
40
0.025000000000000001
40
0.050000000000000003
40
0.075000000000000011
40
0.10000000000000001
40
0.125
40
0.14999999999999999
40
0.17499999999999999
40
0.19999999999999998
40
0.22499999999999998
40
0.24999999999999997
40
0.27499999999999997
40
0.29999999999999999
40
0.32500000000000001
40
0.35000000000000003
40
0.37500000000000006
40
0.40000000000000008
40
0.4250000000000001
40
0.45000000000000012
40
0.47500000000000014
40
0.50000000000000011
40
0.52500000000000013
40
0.55000000000000016
40
0.57500000000000018
40
0.6000000000000002
40
0.62500000000000022
40
0.65000000000000024
40
0.67500000000000027
40
0.70000000000000029
40
0.72500000000000031
40
0.75000000000000033
40
0.77500000000000036
40
0.80000000000000038
40
0.8250000000000004
40
0.85000000000000042
40
0.87500000000000044
40
0.90000000000000047
40
0.92500000000000049
40
0.95000000000000051
40
0.97500000000000053
40
1
40
1
40
1
40
1
40
1
40
1
41
1
41
1
41
1
41
1
41
1
41
1
41
1
41
1
41
1
41
1
41
1
41
1
41
1
41
1
41
1
41
1
41
1
41
1
41
1
41
1
41
1
41
1
41
1
41
1
41
1
41
1
41
1
41
1
41
1
41
1
41
1
41
1
41
1
41
1
41
1
41
1
41
1
41
1
41
1
41
1
41
1
41
1
41
1
41
1
41
1
10
-0.53252204711556117
20
0.10768223536210239
30
0
10
-0.53380831556865527
20
0.10864068424072555
30
0
10
-0.53636252363493075
20
0.11064773830561013
30
0
10
-0.54013885125735661
20
0.11392879262483083
30
0
10
-0.54506385624160147
20
0.11884499167800387
30
0
10
-0.55102618627149524
20
0.12588193325029004
30
0
10
-0.55676407300326347
20
0.13377205662509375
30
0
10
-0.56221782812119481
20
0.14243523253686821
30
0
10
-0.56728726122612561
20
0.15173108141957889
30
0
10
-0.57182672477884322
20
0.16145387109850223
30
0
10
-0.57566030900834408
20
0.17136938384752537
30
0
10
-0.578593301199536
20
0.18124474712945271
30
0
10
-0.58042543576300898
20
0.19088027196319146
30
0
10
-0.58096254467682373
20
0.20014221081165881
30
0
10
-0.58003128039784546
20
0.20899063517438482
30
0
10
-0.57751627288303031
20
0.21744393834939599
30
0
10
-0.57339992403797146
20
0.22554647931303776
30
0
10
-0.56779388705706968
20
0.2333381626130297
30
0
10
-0.56099328993814168
20
0.24081616618836155
30
0
10
-0.55345544441491712
20
0.24792543436622991
30
0
10
-0.54567824124593467
20
0.254589011158113
30
0
10
-0.5380973500604147
20
0.26072919160642916
30
0
10
-0.53098886130073053
20
0.26629088024522546
30
0
10
-0.52433725398895092
20
0.27126775511507861
30
0
10
-0.51782991440067827
20
0.27571447168738522
30
0
10
-0.51104410785302812
20
0.27973637412933761
30
0
10
-0.50358887226304638
20
0.28348499587691128
30
0
10
-0.49526169798380271
20
0.28715117020077235
30
0
10
-0.48620867149849323
20
0.29096012051925285
30
0
10
-0.47680699613886335
20
0.29514377168785838
30
0
10
-0.46753577389842738
20
0.29991257758863016
30
0
10
-0.4588499428333927
20
0.30542689847505622
30
0
10
-0.45105711755999539
20
0.31176958216068157
30
0
10
-0.44418143544027866
20
0.31891437872208794
30
0
10
-0.43803014290102033
20
0.3267536571551708
30
0
10
-0.43227490733972923
20
0.33513021451276109
30
0
10
-0.42652874559751147
20
0.34386798052357359
30
0
10
-0.42042067531847721
20
0.35280152167079987
30
0
10
-0.41368111177752886
20
0.36180998406600562
30
0
10
-0.40613580491060675
20
0.3708141844627415
30
0
10
-0.39768194375670063
20
0.3797665435004472
30
0
10
-0.39015305892702273
20
0.38686822732078924
30
0
10
-0.38406917264629292
20
0.39215716878132734
30
0
10
-0.37981913252404909
20
0.39566656236328596
30
0
10
-0.37764558304171314
20
0.39741711713290612
30
0
0
ARC
5
110
100
AcDbEntity
8
0
100
AcDbCircle
10
-0.058876880720980837
20
0.038785846968505712
30
0
40
0.47982275218977954
210
0
220
0
230
1
100
AcDbArc
50
98.234036503670538
51
131.63223194283336
0
SPLINE
5
111
100
AcDbEntity
8
0
100
AcDbSpline
70
4
71
5
72
21
73
15
74
0
42
0.000000001
43
0.0000000001
44
0.0000000001
40
0
40
0
40
0
40
0
40
0
40
0
40
0.10000000000000001
40
0.20000000000000001
40
0.30000000000000004
40
0.40000000000000002
40
0.5
40
0.59999999999999998
40
0.69999999999999996
40
0.79999999999999993
40
0.89999999999999991
40
1
40
1
40
1
40
1
40
1
40
1
41
1
41
1
41
1
41
1
41
1
41
1
41
1
41
1
41
1
41
1
41
1
41
1
41
1
41
1
41
1
10
-0.1275956002286073
20
0.51366226363731349
30
0
10
-0.12572763528120648
20
0.51683619057634056
30
0
10
-0.12194428207699383
20
0.52293794111304004
30
0
10
-0.11612698589444072
20
0.53135227532712959
30
0
10
-0.10808134643646242
20
0.5410703525605558
30
0
10
-0.09750964360238501
20
0.55054715386637398
30
0
10
-0.086377833540416143
20
0.55711727780154019
30
0
10
-0.074641050235370598
20
0.56054789210718536
30
0
10
-0.062276348556503269
20
0.56071992298992379
30
0
10
-0.049310413633301277
20
0.55777185297262544
30
0
10
-0.035789377454282234
20
0.55194308408475379
30
0
10
-0.024565286139039653
20
0.545166580231915
30
0
10
-0.015932749378435484
20
0.53897121888436583
30
0
10
-0.010083962813232475
20
0.53435439963269205
30
0
10
-0.0071361281711701087
20
0.53192434103377595
30
0
0
ARC
5
112
100
AcDbEntity
8
0
100
AcDbCircle
10
0.041278052260203806
20
0.29316346154023304
30
0
40
0.2436199713557404
210
0
220
-0
230
1
100
AcDbArc
50
58.104483870800976
51
101.46260277152699
0
SPLINE
5
113
100
AcDbEntity
8
0
100
AcDbSpline
70
6
71
5
72
66
73
60
74
0
42
0.000000001
43
0.0000000001
44
0.0000000001
40
0
40
0
40
0
40
0
40
0
40
0
40
0.018181818181818181
40
0.036363636363636362
40
0.054545454545454543
40
0.072727272727272724
40
0.090909090909090912
40
0.1090909090909091
40
0.12727272727272729
40
0.14545454545454548
40
0.16363636363636366
40
0.18181818181818185
40
0.20000000000000004
40
0.21818181818181823
40
0.23636363636363641
40
0.25454545454545457
40
0.27272727272727276
40
0.29090909090909095
40
0.30909090909090914
40
0.32727272727272733
40
0.34545454545454551
40
0.3636363636363637
40
0.38181818181818189
40
0.40000000000000008
40
0.41818181818181827
40
0.43636363636363645
40
0.45454545454545464
40
0.47272727272727283
40
0.49090909090909102
40
0.50909090909090915
40
0.52727272727272734
40
0.54545454545454553
40
0.56363636363636371
40
0.5818181818181819
40
0.60000000000000009
40
0.61818181818181828
40
0.63636363636363646
40
0.65454545454545465
40
0.67272727272727284
40
0.69090909090909103
40
0.70909090909090922
40
0.7272727272727274
40
0.74545454545454559
40
0.76363636363636378
40
0.78181818181818197
40
0.80000000000000016
40
0.81818181818181834
40
0.83636363636363653
40
0.85454545454545472
40
0.87272727272727291
40
0.89090909090909109
40
0.90909090909090928
40
0.92727272727272747
40
0.94545454545454566
40
0.96363636363636385
40
0.98181818181818203
40
1
40
1
40
1
40
1
40
1
40
1
41
1
41
1
41
1
41
1
41
1
41
1
41
1
41
1
41
1
41
1
41
1
41
1
41
1
41
1
41
1
41
1
41
1
41
1
41
1
41
1
41
1
41
1
41
1
41
1
41
1
41
1
41
1
41
1
41
1
41
1
41
1
41
1
41
1
41
1
41
1
41
1
41
1
41
1
41
1
41
1
41
1
41
1
41
1
41
1
41
1
41
1
41
1
41
1
41
1
41
1
41
1
41
1
41
1
41
1
41
1
41
1
41
1
41
1
41
1
41
1
10
-0.43999999468251472
20
-0.34999999577018215
30
0
10
-0.44026407917447691
20
-0.34939560270443581
30
0
10
-0.4410576228441373
20
-0.34845814848549111
30
0
10
-0.44305721323482539
20
-0.34785339963299294
30
0
10
-0.44711821331672869
20
-0.34845343197786577
30
0
10
-0.45320161650363089
20
-0.35062663072102213
30
0
10
-0.45885366900330532
20
-0.35318715116827426
30
0
10
-0.46307635509997436
20
-0.35526370414331432
30
0
10
-0.4660832050949445
20
-0.35651786713144051
30
0
10
-0.46904149655624322
20
-0.35708239688158655
30
0
10
-0.47327350579242089
20
-0.35727335367410368
30
0
10
-0.47970440012167043
20
-0.35740668486151661
30
0
10
-0.48802563313787961
20
-0.35749388475587274
30
0
10
-0.49697069461941812
20
-0.35738275809325548
30
0
10
-0.50492911219324699
20
-0.35695996876904912
30
0
10
-0.51059949175420405
20
-0.35651847672242448
30
0
10
-0.51329649514048803
20
-0.35664629186911939
30
0
10
-0.51421395285378191
20
-0.35932686619724497
30
0
10
-0.51430799219644374
20
-0.364764638202766
30
0
10
-0.5139491980386075
20
-0.37170016060038236
30
0
10
-0.51334133067016241
20
-0.37857226111541398
30
0
10
-0.51266146001273249
20
-0.38439628900558126
30
0
10
-0.512203829097718
20
-0.38957976289225188
30
0
10
-0.51187570352043266
20
-0.39447496223573003
30
0
10
-0.51146098673702312
20
-0.39958066527894054
30
0
10
-0.51066367666841816
20
-0.40529020858024656
30
0
10
-0.50924254625361254
20
-0.41182296320147238
30
0
10
-0.5071035222367436
20
-0.41908125314894595
30
0
10
-0.50425596874455447
20
-0.42674230685676584
30
0
10
-0.50076617640056376
20
-0.43432995586267226
30
0
10
-0.49671155048101434
20
-0.44129491356710865
30
0
10
-0.49213663612153385
20
-0.44708986635991449
30
0
10
-0.48700335844154286
20
-0.45124980962496075
30
0
10
-0.48115833105565653
20
-0.4534613531461158
30
0
10
-0.47442106265781298
20
-0.45356426474773098
30
0
10
-0.46665643393239886
20
-0.4515591545696882
30
0
10
-0.45785899217566756
20
-0.44761578949944081
30
0
10
-0.44821944406711811
20
-0.44207562181334675
30
0
10
-0.43823159283839092
20
-0.43547199262302699
30
0
10
-0.42864607498876056
20
-0.42848097752956876
30
0
10
-0.42029834971144076
20
-0.42181471898939132
30
0
10
-0.41397315689462755
20
-0.41613157098508841
30
0
10
-0.41025301325631663
20
-0.41193864812242986
30
0
10
-0.40937531971534008
20
-0.40949877220707637
30
0
10
-0.41107980071215799
20
-0.40873157417960049
30
0
10
-0.41447551981657343
20
-0.40912637286254544
30
0
10
-0.41851264841695229
20
-0.40993151072980893
30
0
10
-0.42237499374926124
20
-0.41032160576877169
30
0
10
-0.42601840879922925
20
-0.4095936527592805
30
0
10
-0.43003511216717499
20
-0.40724943682881665
30
0
10
-0.43478774265315512
20
-0.40298400090678704
30
0
10
-0.44025832611084276
20
-0.39674204793520607
30
0
10
-0.44449446090222766
20
-0.3886590353414594
30
0
10
-0.4456742400825478
20
-0.37929191904379994
30
0
10
-0.44430022271071257
20
-0.36962060397152474
30
0
10
-0.44161734299356464
20
-0.36075068098762009
30
0
10
-0.43986189767320705
20
-0.35513124294532683
30
0
10
-0.43947311589236404
20
-0.35208450687996912
30
0
10
-0.43973591019055269
20
-0.35060438883592865
30
0
10
-0.43999999468251472
20
-0.34999999577018215
30
0
0
LINE
5
114
100
AcDbEntity
8
0
100
AcDbLine
10
-0.61999999250717985
20
-0.319999996132738
30
0
11
-0.47999999419910699
21
-0.319999996132738
31
0
0
LINE
5
115
100
AcDbEntity
8
0
100
AcDbLine
10
-0.61999999250717985
20
-0.319999996132738
30
0
11
-0.54999999335314342
21
-0.25363369442883865
31
0
0
SPLINE
5
116
100
AcDbEntity
8
0
100
AcDbSpline
70
4
71
5
72
81
73
75
74
0
42
0.000000001
43
0.0000000001
44
0.0000000001
40
0
40
0
40
0
40
0
40
0
40
0
40
0.014285714285714285
40
0.028571428571428571
40
0.042857142857142858
40
0.057142857142857141
40
0.071428571428571425
40
0.085714285714285715
40
0.10000000000000001
40
0.1142857142857143
40
0.12857142857142859
40
0.14285714285714288
40
0.15714285714285717
40
0.17142857142857146
40
0.18571428571428575
40
0.20000000000000004
40
0.21428571428571433
40
0.22857142857142862
40
0.24285714285714291
40
0.25714285714285717
40
0.27142857142857146
40
0.28571428571428575
40
0.30000000000000004
40
0.31428571428571433
40
0.32857142857142863
40
0.34285714285714292
40
0.35714285714285721
40
0.3714285714285715
40
0.38571428571428579
40
0.40000000000000008
40
0.41428571428571437
40
0.42857142857142866
40
0.44285714285714295
40
0.45714285714285724
40
0.47142857142857153
40
0.48571428571428582
40
0.50000000000000011
40
0.51428571428571435
40
0.52857142857142858
40
0.54285714285714282
40
0.55714285714285705
40
0.57142857142857129
40
0.58571428571428552
40
0.59999999999999976
40
0.61428571428571399
40
0.62857142857142823
40
0.64285714285714246
40
0.6571428571428567
40
0.67142857142857093
40
0.68571428571428517
40
0.6999999999999994
40
0.71428571428571364
40
0.72857142857142787
40
0.74285714285714211
40
0.75714285714285634
40
0.77142857142857058
40
0.78571428571428481
40
0.79999999999999905
40
0.81428571428571328
40
0.82857142857142752
40
0.84285714285714175
40
0.85714285714285599
40
0.87142857142857022
40
0.88571428571428445
40
0.89999999999999869
40
0.91428571428571292
40
0.92857142857142716
40
0.94285714285714139
40
0.95714285714285563
40
0.97142857142856986
40
0.9857142857142841
40
1
40
1
40
1
40
1
40
1
40
1
41
1
41
1
41
1
41
1
41
1
41
1
41
1
41
1
41
1
41
1
41
1
41
1
41
1
41
1
41
1
41
1
41
1
41
1
41
1
41
1
41
1
41
1
41
1
41
1
41
1
41
1
41
1
41
1
41
1
41
1
41
1
41
1
41
1
41
1
41
1
41
1
41
1
41
1
41
1
41
1
41
1
41
1
41
1
41
1
41
1
41
1
41
1
41
1
41
1
41
1
41
1
41
1
41
1
41
1
41
1
41
1
41
1
41
1
41
1
41
1
41
1
41
1
41
1
41
1
41
1
41
1
41
1
41
1
41
1
41
1
41
1
41
1
41
1
41
1
41
1
10
-0.54999999335314342
20
-0.25363369442883865
30
0
10
-0.54938127171907247
20
-0.25310702731509888
30
0
10
-0.54812647853810526
20
-0.25211062911083271
30
0
10
-0.54619225203231625
20
-0.25078687112866688
30
0
10
-0.54350906248817343
20
-0.24936338149771245
30
0
10
-0.53999291473307276
20
-0.24817926500272625
30
0
10
-0.53634747500014046
20
-0.24766233801553439
30
0
10
-0.53264270318997153
20
-0.24796514324542668
30
0
10
-0.52898194715402824
20
-0.24930875358893184
30
0
10
-0.52545101040601605
20
-0.25185763732333
30
0
10
-0.52208390516849124
20
-0.25563407043789621
30
0
10
-0.51880621624205392
20
-0.26037991556928447
30
0
10
-0.51545452806966441
20
-0.26559677377162666
30
0
10
-0.51184857598770606
20
-0.27071092436039751
30
0
10
-0.5078520949712263
20
-0.2752094523187032
30
0
10
-0.50342958215753697
20
-0.27877194562824387
30
0
10
-0.49872736444110632
20
-0.28144597385845183
30
0
10
-0.49400506023132273
20
-0.28354673586586693
30
0
10
-0.48950560947158728
20
-0.2854457858206963
30
0
10
-0.48535688298307705
20
-0.287412544892233
30
0
10
-0.48143374877405415
20
-0.28939642736769949
30
0
10
-0.47732210524800806
20
-0.29095523233287596
30
0
10
-0.47251876770843765
20
-0.29151746075956592
30
0
10
-0.46658225736267583
20
-0.29057573181812363
30
0
10
-0.4593091265161548
20
-0.28791507016243051
30
0
10
-0.45088274408468471
20
-0.28380552723945818
30
0
10
-0.44174828893346696
20
-0.278853047305547
30
0
10
-0.43250416973490052
20
-0.27387081833710308
30
0
10
-0.42378604747671789
20
-0.26974107698415628
30
0
10
-0.41615754258477511
20
-0.26728621036899458
30
0
10
-0.40998958627296445
20
-0.26712356618135646
30
0
10
-0.40537442959127334
20
-0.26956646552412272
30
0
10
-0.40160118919415189
20
-0.27404563322173819
30
0
10
-0.39764682017600367
20
-0.27952082109455229
30
0
10
-0.39255147839339527
20
-0.28476777701614253
30
0
10
-0.38578534099469464
20
-0.28869527414573359
30
0
10
-0.37774235993834848
20
-0.29068683186107575
30
0
10
-0.36973947410635105
20
-0.29079774674079512
30
0
10
-0.36333266059484498
20
-0.28973775638090438
30
0
10
-0.35977511297583709
20
-0.28890482244241034
30
0
10
-0.35947678302778818
20
-0.29040183543496351
30
0
10
-0.36127657715594758
20
-0.2971399472165247
30
0
10
-0.36432326741464444
20
-0.30890296665049072
30
0
10
-0.36786434496492249
20
-0.32391924778180975
30
0
10
-0.37139850962932247
20
-0.3394545904370232
30
0
10
-0.37464322345491424
20
-0.35264494377108335
30
0
10
-0.377690244913229
20
-0.36154175347825918
30
0
10
-0.38082744487493264
20
-0.36533440584985333
30
0
10
-0.38510629664069512
20
-0.36666753290866122
30
0
10
-0.39088081992317059
20
-0.36812424508492358
30
0
10
-0.39711483234020234
20
-0.36938856725365832
30
0
10
-0.40246262349284501
20
-0.36949356310487497
30
0
10
-0.40562710654458645
20
-0.36707754641691787
30
0
10
-0.40615239696145961
20
-0.36165661594439996
30
0
10
-0.40443874906062044
20
-0.35366773149660358
30
0
10
-0.40138709975332343
20
-0.34409663825486592
30
0
10
-0.39815461798334828
20
-0.33421759376418569
30
0
10
-0.39585292157395152
20
-0.32527619487588022
30
0
10
-0.39529961089224247
20
-0.31822539573273106
30
0
10
-0.39667329596019774
20
-0.3133649470452009
30
0
10
-0.3996181940573057
20
-0.31043057317079198
30
0
10
-0.40355195432582358
20
-0.30888497597138936
30
0
10
-0.40788868279960167
20
-0.30812695764651243
30
0
10
-0.41234471012734314
20
-0.30777579306202657
30
0
10
-0.41692691923695463
20
-0.30767843391386912
30
0
10
-0.4218067717006746
20
-0.30781889256913542
30
0
10
-0.42723797309323525
20
-0.30826351331293528
30
0
10
-0.43344048001926394
20
-0.30908132580981079
30
0
10
-0.44056363696030171
20
-0.31031697808276876
30
0
10
-0.44870848784206147
20
-0.31200138985015297
30
0
10
-0.45793370774604325
20
-0.31415207922710825
30
0
10
-0.46620128145049478
20
-0.31625256922891848
30
0
10
-0.47290505038836622
20
-0.31804276268969639
30
0
10
-0.4775977584453458
20
-0.31933167658331174
30
0
10
-0.47999999419910705
20
-0.31999999613273805
30
0
0
SPLINE
5
117
100
AcDbEntity
8
0
100
AcDbSpline
70
4
71
5
72
71
73
65
74
0
42
0.000000001
43
0.0000000001
44
0.0000000001
40
0
40
0
40
0
40
0
40
0
40
0
40
0.016666666666666666
40
0.033333333333333333
40
0.050000000000000003
40
0.066666666666666666
40
0.083333333333333329
40
0.099999999999999992
40
0.11666666666666665
40
0.13333333333333333
40
0.14999999999999999
40
0.16666666666666666
40
0.18333333333333332
40
0.19999999999999998
40
0.21666666666666665
40
0.23333333333333331
40
0.24999999999999997
40
0.26666666666666666
40
0.28333333333333333
40
0.29999999999999999
40
0.31666666666666665
40
0.33333333333333331
40
0.34999999999999998
40
0.36666666666666664
40
0.3833333333333333
40
0.39999999999999997
40
0.41666666666666663
40
0.43333333333333329
40
0.44999999999999996
40
0.46666666666666662
40
0.48333333333333328
40
0.49999999999999994
40
0.51666666666666661
40
0.53333333333333333
40
0.55000000000000004
40
0.56666666666666676
40
0.58333333333333348
40
0.6000000000000002
40
0.61666666666666692
40
0.63333333333333364
40
0.65000000000000036
40
0.66666666666666707
40
0.68333333333333379
40
0.70000000000000051
40
0.71666666666666723
40
0.73333333333333395
40
0.75000000000000067
40
0.76666666666666738
40
0.7833333333333341
40
0.80000000000000082
40
0.81666666666666754
40
0.83333333333333426
40
0.85000000000000098
40
0.8666666666666677
40
0.88333333333333441
40
0.90000000000000113
40
0.91666666666666785
40
0.93333333333333457
40
0.95000000000000129
40
0.96666666666666801
40
0.98333333333333472
40
1
40
1
40
1
40
1
40
1
40
1
41
1
41
1
41
1
41
1
41
1
41
1
41
1
41
1
41
1
41
1
41
1
41
1
41
1
41
1
41
1
41
1
41
1
41
1
41
1
41
1
41
1
41
1
41
1
41
1
41
1
41
1
41
1
41
1
41
1
41
1
41
1
41
1
41
1
41
1
41
1
41
1
41
1
41
1
41
1
41
1
41
1
41
1
41
1
41
1
41
1
41
1
41
1
41
1
41
1
41
1
41
1
41
1
41
1
41
1
41
1
41
1
41
1
41
1
41
1
41
1
41
1
41
1
41
1
41
1
41
1
10
-0.54999999335314342
20
-0.20499999752253528
30
0
10
-0.55085287126757676
20
-0.20511919914855212
30
0
10
-0.55257205058812076
20
-0.20536531731098623
30
0
10
-0.55519109943731715
20
-0.20575761786566865
30
0
10
-0.55876367923814274
20
-0.20632713871852315
30
0
10
-0.56337230026915119
20
-0.20708433501971937
30
0
10
-0.56814805627747278
20
-0.20779366354754994
30
0
10
-0.57314196420208752
20
-0.20826216923547816
30
0
10
-0.57843047015539617
20
-0.20818699549107456
30
0
10
-0.58406381188827938
20
-0.20725954516522682
30
0
10
-0.59002213715603624
20
-0.20525212998674922
30
0
10
-0.59616786788321563
20
-0.20211252172662636
30
0
10
-0.60220104118813855
20
-0.19805298067081983
30
0
10
-0.60774505270437695
20
-0.19343025186580257
30
0
10
-0.61243412235639405
20
-0.18862323289757385
30
0
10
-0.61599438014679775
20
-0.18391972868242493
30
0
10
-0.61834114794690287
20
-0.17938034678515202
30
0
10
-0.61962817315390128
20
-0.17477052082297329
30
0
10
-0.62011365279744235
20
-0.16975296521877625
30
0
10
-0.62006085408792877
20
-0.16403035525660692
30
0
10
-0.61961337036717423
20
-0.15752586631210411
30
0
10
-0.61871622418183991
20
-0.15049357080393683
30
0
10
-0.61721383375730454
20
-0.14335574704473505
30
0
10
-0.61492746200640058
20
-0.13657179516002005
30
0
10
-0.61173283943990675
20
-0.13050731013534103
30
0
10
-0.60765609411915433
20
-0.12527380444575345
30
0
10
-0.60290131401617975
20
-0.12067749446870873
30
0
10
-0.5977393651233941
20
-0.11639002924481649
30
0
10
-0.5924207491532002
20
-0.11207980016438047
30
0
10
-0.58709075712024583
20
-0.10754189492139214
30
0
10
-0.58167432163951016
20
-0.10287058123349209
30
0
10
-0.5758956944582706
20
-0.098438994471975988
30
0
10
-0.56940832435345057
20
-0.094720721107332415
30
0
10
-0.5618978703462495
20
-0.09215007003335203
30
0
10
-0.55318567289328913
20
-0.090981366359513066
30
0
10
-0.54335786580084888
20
-0.091112282070670805
30
0
10
-0.53279370765058687
20
-0.092049141128647205
30
0
10
-0.52203060533751067
20
-0.093102506180485531
30
0
10
-0.51166835331074567
20
-0.093527382864881756
30
0
10
-0.50225694094718132
20
-0.092686958743057282
30
0
10
-0.4941931544710006
20
-0.090203240146778163
30
0
10
-0.48760888043038642
20
-0.086121229609752381
30
0
10
-0.4822745066205541
20
-0.081047087768475148
30
0
10
-0.47773401522151937
20
-0.075889196280297611
30
0
10
-0.47343185803372473
20
-0.07161099589178252
30
0
10
-0.46883561526704987
20
-0.068996169844149732
30
0
10
-0.46357696922323927
20
-0.068369492533056325
30
0
10
-0.45753251886089291
20
-0.069459151262047283
30
0
10
-0.45073613681865771
20
-0.071651128241477194
30
0
10
-0.44332020133391259
20
-0.074179202132568553
30
0
10
-0.43545022140728457
20
-0.076323546787814417
30
0
10
-0.42725108599197148
20
-0.077646191460274308
30
0
10
-0.41878740341453036
20
-0.078029753078428965
30
0
10
-0.4100841645395778
20
-0.077572639512517874
30
0
10
-0.40113518430700318
20
-0.076528084669078358
30
0
10
-0.39191676888473576
20
-0.075223873195674335
30
0
10
-0.38239854613767971
20
-0.073994181608105669
30
0
10
-0.37255695866669969
20
-0.073096757166426968
30
0
10
-0.36237599451091818
20
-0.072712130121574459
30
0
10
-0.35184526651861392
20
-0.072960603984427691
30
0
10
-0.34095900081434172
20
-0.073913082856730344
30
0
10
-0.33196352671341045
20
-0.075266117973897026
30
0
10
-0.32505555605854153
20
-0.076618248170536876
30
0
10
-0.32037855644741836
20
-0.077669538634824536
30
0
10
-0.31802213520748923
20
-0.078232651272566095
30
0
0
ARC
5
118
100
AcDbEntity
8
0
100
AcDbCircle
10
-1.2096856609520852
20
-0.0082035810080142921
30
0
40
0.89440925410317385
210
0
220
0
230
1
100
AcDbArc
50
343.98241826159006
51
355.50934761695868
0
SPLINE
5
119
100
AcDbEntity
8
0
100
AcDbSpline
70
4
71
5
72
46
73
40
74
0
42
0.000000001
43
0.0000000001
44
0.0000000001
40
0
40
0
40
0
40
0
40
0
40
0
40
0.028571428571428571
40
0.057142857142857141
40
0.085714285714285715
40
0.11428571428571428
40
0.14285714285714285
40
0.17142857142857143
40
0.20000000000000001
40
0.22857142857142859
40
0.25714285714285717
40
0.28571428571428575
40
0.31428571428571433
40
0.34285714285714292
40
0.3714285714285715
40
0.40000000000000008
40
0.42857142857142866
40
0.45714285714285724
40
0.48571428571428582
40
0.51428571428571435
40
0.54285714285714293
40
0.57142857142857151
40
0.60000000000000009
40
0.62857142857142867
40
0.65714285714285725
40
0.68571428571428583
40
0.71428571428571441
40
0.74285714285714299
40
0.77142857142857157
40
0.80000000000000016
40
0.82857142857142874
40
0.85714285714285732
40
0.8857142857142859
40
0.91428571428571448
40
0.94285714285714306
40
0.97142857142857164
40
1
40
1
40
1
40
1
40
1
40
1
41
1
41
1
41
1
41
1
41
1
41
1
41
1
41
1
41
1
41
1
41
1
41
1
41
1
41
1
41
1
41
1
41
1
41
1
41
1
41
1
41
1
41
1
41
1
41
1
41
1
41
1
41
1
41
1
41
1
41
1
41
1
41
1
41
1
41
1
41
1
41
1
41
1
41
1
41
1
41
1
10
-0.34999999577018215
20
-0.25499999691827557
30
0
10
-0.35053586736009107
20
-0.2549513180234827
30
0
10
-0.35163662401428203
20
-0.25483931477055666
30
0
10
-0.35337480386043252
20
-0.25462734965656175
30
0
10
-0.35586665963595315
20
-0.2542568992503374
30
0
10
-0.35927817727374206
20
-0.25362209805774033
30
0
10
-0.36300203002376774
20
-0.25274444499685517
30
0
10
-0.36706913578705008
20
-0.25147527332796787
30
0
10
-0.37152442193045854
20
-0.24958819045568792
30
0
10
-0.37638108703290962
20
-0.24687800887729139
30
0
10
-0.38159900933103397
20
-0.24325271772611559
30
0
10
-0.38701821227855637
20
-0.23881003756914035
30
0
10
-0.39238374295670492
20
-0.23396665021671803
30
0
10
-0.39785885742115568
20
-0.22943074787137721
30
0
10
-0.40374343275044411
20
-0.22599121084307874
30
0
10
-0.41038754912033942
20
-0.22435200308034153
30
0
10
-0.4180391960520039
20
-0.2249651383204965
30
0
10
-0.426689698803355
20
-0.22782066116785477
30
0
10
-0.43602654402874014
20
-0.23240413847696006
30
0
10
-0.44556892076607468
20
-0.23790350306711028
30
0
10
-0.45475700575185191
20
-0.24335368048739883
30
0
10
-0.46305895086212817
20
-0.24780450287946013
30
0
10
-0.47007132152368103
20
-0.25047996241669945
30
0
10
-0.47562056483693232
20
-0.2509383697333723
30
0
10
-0.47987207213066729
20
-0.24924398292668093
30
0
10
-0.48321878857302009
20
-0.24581519426821707
30
0
10
-0.48615573513501947
20
-0.24125312427227602
30
0
10
-0.48917007559660314
20
-0.23619101603406253
30
0
10
-0.49260152172060023
20
-0.23110567529693721
30
0
10
-0.49662516327550887
20
-0.22628562003322447
30
0
10
-0.501305854504142
20
-0.2218909452527954
30
0
10
-0.50663122351904144
20
-0.21798557667141097
30
0
10
-0.51255062052082145
20
-0.2145780879034356
30
0
10
-0.51901700670385598
20
-0.21166395220978607
30
0
10
-0.52599968382412754
20
-0.2092406333801772
30
0
10
-0.53347780650768561
20
-0.20730415989802273
30
0
10
-0.53984743542150115
20
-0.20614195244129491
30
0
10
-0.54484005426522109
20
-0.20548686160427251
30
0
10
-0.54826407862181148
20
-0.20514626417238299
30
0
10
-0.54999999335314342
20
-0.20499999752253528
30
0
0
ARC
5
120
100
AcDbEntity
8
0
100
AcDbCircle
10
15.714413170962333
20
-1.7421187811510386
30
0
40
16.116584842971008
210
0
220
0
230
1
100
AcDbArc
50
173.70509157475789
51
173.93322116084894
0
ARC
5
121
100
AcDbEntity
8
0
100
AcDbCircle
10
0.17515231051492139
20
0.04644714000254458
30
0
40
0.47777189428869143
210
0
220
0
230
1
100
AcDbArc
50
145.79924369974694
51
177.78799760204004
0
ARC
5
122
100
AcDbEntity
8
0
100
AcDbCircle
10
0.1501842864867623
20
0.056921463855340554
30
0
40
0.45468214464696816
210
0
220
0
230
1
100
AcDbArc
50
109.72795890570858
51
139.08543863195735
0
LWPOLYLINE
5
123
100
AcDbEntity
8
0
100
AcDbPolyline
90
4
70
1
43
0.0
10
-0.29657690595571151
20
0.32269873554718115
42
-0.1192820495932099
10
-0.19665724342549903
20
0.46198068937717401
42
0.11446827039842682
10
-0.39499999522634843
20
0.33499999595146013
42
-0.0569574769042685
10
-0.31499999619316393
20
0.30999999625358993
0
ARC
5
124
100
AcDbEntity
8
0
100
AcDbCircle
10
-0.21625155678816982
20
0.2544941474138262
30
0
40
0.10278307797444831
210
0
220
-0
230
1
100
AcDbArc
50
77.161696672798385
51
101.41872729350919
0
ARC
5
125
100
AcDbEntity
8
0
100
AcDbCircle
10
-0.10726507745804033
20
0.39845979772193257
30
0
40
0.13521971354097415
210
0
220
-0
230
1
100
AcDbArc
50
39.74554182479428
51
74.882561841157084
0
LWPOLYLINE
5
126
100
AcDbEntity
8
0
100
AcDbPolyline
90
4
70
1
43
0.0
10
-0.50657577049669344
20
-0.051818525213436939
10
-0.54377770452840413
20
-0.051818525213436994
42
-0.091535833281006854
10
-0.50984627019178885
20
0.087995336751893624
10
-0.48777039724989457
20
0.074913337971511826
42
0.41401646955791938
0
SPLINE
5
127
100
AcDbEntity
8
0
100
AcDbSpline
70
4
71
5
72
51
73
45
74
0
42
0.000000001
43
0.0000000001
44
0.0000000001
40
0
40
0
40
0
40
0
40
0
40
0
40
0.025000000000000001
40
0.050000000000000003
40
0.075000000000000011
40
0.10000000000000001
40
0.125
40
0.14999999999999999
40
0.17499999999999999
40
0.19999999999999998
40
0.22499999999999998
40
0.24999999999999997
40
0.27499999999999997
40
0.29999999999999999
40
0.32500000000000001
40
0.35000000000000003
40
0.37500000000000006
40
0.40000000000000008
40
0.4250000000000001
40
0.45000000000000012
40
0.47500000000000014
40
0.50000000000000011
40
0.52500000000000013
40
0.55000000000000016
40
0.57500000000000018
40
0.6000000000000002
40
0.62500000000000022
40
0.65000000000000024
40
0.67500000000000027
40
0.70000000000000029
40
0.72500000000000031
40
0.75000000000000033
40
0.77500000000000036
40
0.80000000000000038
40
0.8250000000000004
40
0.85000000000000042
40
0.87500000000000044
40
0.90000000000000047
40
0.92500000000000049
40
0.95000000000000051
40
0.97500000000000053
40
1
40
1
40
1
40
1
40
1
40
1
41
1
41
1
41
1
41
1
41
1
41
1
41
1
41
1
41
1
41
1
41
1
41
1
41
1
41
1
41
1
41
1
41
1
41
1
41
1
41
1
41
1
41
1
41
1
41
1
41
1
41
1
41
1
41
1
41
1
41
1
41
1
41
1
41
1
41
1
41
1
41
1
41
1
41
1
41
1
41
1
41
1
41
1
41
1
41
1
41
1
10
-0.30499999631401586
20
0.024999999697870156
30
0
10
-0.30860970105543878
20
0.025771069767411385
30
0
10
-0.31573515845274897
20
0.02722850223562839
30
0
10
-0.32614148298712059
20
0.029160532163970757
30
0
10
-0.33942669157803562
20
0.031264529582248228
30
0
10
-0.35490986504554972
20
0.03331729108900508
30
0
10
-0.36911187782491078
20
0.035058852103051638
30
0
10
-0.38191207779716135
20
0.03675122060721582
30
0
10
-0.39328710035220255
20
0.038588020143975298
30
0
10
-0.40335950105159013
20
0.040638700801916332
30
0
10
-0.41247529984706421
20
0.042771325781441362
30
0
10
-0.42119401815005619
20
0.044640346949885737
30
0
10
-0.43009534300032137
20
0.04581356564092804
30
0
10
-0.43961108103613605
20
0.045876248517091739
30
0
10
-0.4498726437371387
20
0.044531857036417349
30
0
10
-0.46048757678200364
20
0.041734964789633913
30
0
10
-0.470586395654707
20
0.03769518588224903
30
0
10
-0.4791536947135363
20
0.032743000146033055
30
0
10
-0.48530060657816732
20
0.027226452057826544
30
0
10
-0.48852283030954191
20
0.02140979344591451
30
0
10
-0.48906290044916595
20
0.015335441484460123
30
0
10
-0.48776175537814043
20
0.0088743897976529384
30
0
10
-0.48558309879626754
20
0.0018990849763170139
30
0
10
-0.48327378505532859
20
-0.0055957591922846123
30
0
10
-0.48088216618481833
20
-0.013315051629434813
30
0
10
-0.47790821745836154
20
-0.020746845004677276
30
0
10
-0.47364719009437778
20
-0.027327792042479118
30
0
10
-0.46744320499162595
20
-0.032568620918884926
30
0
10
-0.45903921132414144
20
-0.036225965315746081
30
0
10
-0.44866818395634067
20
-0.038345622034306935
30
0
10
-0.43684980981603888
20
-0.039157997889200477
30
0
10
-0.42426175066053762
20
-0.039011317199934767
30
0
10
-0.4115847462077647
20
-0.03829160931962515
30
0
10
-0.39935175487808477
20
-0.0373453371754328
30
0
10
-0.38781662152410912
20
-0.036410652507521624
30
0
10
-0.37703296269525172
20
-0.035643345879773601
30
0
10
-0.36691122355384082
20
-0.035133145864458044
30
0
10
-0.35728504702051933
20
-0.0349238007730533
30
0
10
-0.34796948716331871
20
-0.035030465843818442
30
0
10
-0.33883213460464251
20
-0.035460254423938978
30
0
10
-0.32979610227566691
20
-0.036217156047525713
30
0
10
-0.32261677531221916
20
-0.037085179737313241
30
0
10
-0.3172543283655801
20
-0.037883740568252555
30
0
10
-0.31368913380896768
20
-0.038481618151424132
30
0
10
-0.31190898015959401
20
-0.038796933115869799
30
0
0
SPLINE
5
128
100
AcDbEntity
8
0
100
AcDbSpline
70
4
71
5
72
81
73
75
74
0
42
0.000000001
43
0.0000000001
44
0.0000000001
40
0
40
0
40
0
40
0
40
0
40
0
40
0.014285714285714285
40
0.028571428571428571
40
0.042857142857142858
40
0.057142857142857141
40
0.071428571428571425
40
0.085714285714285715
40
0.10000000000000001
40
0.1142857142857143
40
0.12857142857142859
40
0.14285714285714288
40
0.15714285714285717
40
0.17142857142857146
40
0.18571428571428575
40
0.20000000000000004
40
0.21428571428571433
40
0.22857142857142862
40
0.24285714285714291
40
0.25714285714285717
40
0.27142857142857146
40
0.28571428571428575
40
0.30000000000000004
40
0.31428571428571433
40
0.32857142857142863
40
0.34285714285714292
40
0.35714285714285721
40
0.3714285714285715
40
0.38571428571428579
40
0.40000000000000008
40
0.41428571428571437
40
0.42857142857142866
40
0.44285714285714295
40
0.45714285714285724
40
0.47142857142857153
40
0.48571428571428582
40
0.50000000000000011
40
0.51428571428571435
40
0.52857142857142858
40
0.54285714285714282
40
0.55714285714285705
40
0.57142857142857129
40
0.58571428571428552
40
0.59999999999999976
40
0.61428571428571399
40
0.62857142857142823
40
0.64285714285714246
40
0.6571428571428567
40
0.67142857142857093
40
0.68571428571428517
40
0.6999999999999994
40
0.71428571428571364
40
0.72857142857142787
40
0.74285714285714211
40
0.75714285714285634
40
0.77142857142857058
40
0.78571428571428481
40
0.79999999999999905
40
0.81428571428571328
40
0.82857142857142752
40
0.84285714285714175
40
0.85714285714285599
40
0.87142857142857022
40
0.88571428571428445
40
0.89999999999999869
40
0.91428571428571292
40
0.92857142857142716
40
0.94285714285714139
40
0.95714285714285563
40
0.97142857142856986
40
0.9857142857142841
40
1
40
1
40
1
40
1
40
1
40
1
41
1
41
1
41
1
41
1
41
1
41
1
41
1
41
1
41
1
41
1
41
1
41
1
41
1
41
1
41
1
41
1
41
1
41
1
41
1
41
1
41
1
41
1
41
1
41
1
41
1
41
1
41
1
41
1
41
1
41
1
41
1
41
1
41
1
41
1
41
1
41
1
41
1
41
1
41
1
41
1
41
1
41
1
41
1
41
1
41
1
41
1
41
1
41
1
41
1
41
1
41
1
41
1
41
1
41
1
41
1
41
1
41
1
41
1
41
1
41
1
41
1
41
1
41
1
41
1
41
1
41
1
41
1
41
1
41
1
41
1
41
1
41
1
41
1
41
1
41
1
10
-0.21999999734125736
20
0.31499999619316393
30
0
10
-0.22128646726192516
20
0.31445311650892449
30
0
10
-0.2238506723951133
20
0.31342288267715879
30
0
10
-0.22767076789279508
20
0.31206805771474011
30
0
10
-0.2327118568185991
20
0.31064324361913814
30
0
10
-0.23891665261488687
20
0.30942687835515748
30
0
10
-0.24499852110042214
20
0.3085679275278328
30
0
10
-0.25090243782639826
20
0.3076356151584852
30
0
10
-0.25654429064275436
20
0.30595808808825431
30
0
10
-0.26185914891970086
20
0.30291143513291774
30
0
10
-0.26683717184870442
20
0.29813063810247059
30
0
10
-0.27157551578936634
20
0.29182165596111581
30
0
10
-0.27627226726194964
20
0.28470420313156336
30
0
10
-0.28118626893732662
20
0.27773010386210067
30
0
10
-0.28660696919098588
20
0.27187870653399188
30
0
10
-0.29282093391280706
20
0.26789989049107166
30
0
10
-0.30007760201538841
20
0.26614308626044497
30
0
10
-0.30854761566471173
20
0.2666405867675215
30
0
10
-0.31828039875606579
20
0.26915025336630327
30
0
10
-0.3291662240153132
20
0.27321458426042572
30
0
10
-0.3408847298265526
20
0.27821003948560974
30
0
10
-0.35298359845375549
20
0.28342803876519879
30
0
10
-0.36497806795023524
20
0.28816035741778123
30
0
10
-0.37644025753375282
20
0.29178044959356336
30
0
10
-0.38709903066404883
20
0.29383237152610819
30
0
10
-0.39692101192651968
20
0.29410308799359419
30
0
10
-0.40623726764555468
20
0.29273695609739225
30
0
10
-0.41560150346261332
20
0.29010568940016385
30
0
10
-0.42560199605576349
20
0.28664495503391019
30
0
10
-0.43664226769737502
20
0.28264382413681505
30
0
10
-0.44884010886092895
20
0.27818529549330462
30
0
10
-0.46161395502854352
20
0.27269523186904554
30
0
10
-0.47446734928984358
20
0.26600072492130589
30
0
10
-0.48707131395380937
20
0.25833059420197285
30
0
10
-0.49916859446466078
20
0.25010976941552371
30
0
10
-0.51055950460271726
20
0.24185174416193203
30
0
10
-0.52104983248574388
20
0.2340009394417889
30
0
10
-0.53042152264596254
20
0.22681482881040321
30
0
10
-0.53837785460530541
20
0.22018407556042918
30
0
10
-0.54455701693444436
20
0.21364295980791959
30
0
10
-0.54862448645568407
20
0.20660897859416408
30
0
10
-0.55035069483656318
20
0.19857530424235606
30
0
10
-0.54968409650359196
20
0.18929938144679262
30
0
10
-0.54685346088094433
20
0.17905166383011928
30
0
10
-0.54230198950305164
20
0.16850248715612914
30
0
10
-0.53655822029788469
20
0.15847040004913984
30
0
10
-0.5301220275364058
20
0.14970642451414654
30
0
10
-0.52335698093492244
20
0.14268461198025087
30
0
10
-0.51634947703598288
20
0.13733841063516822
30
0
10
-0.50888085462204091
20
0.132987353173697
30
0
10
-0.50064813414116038
20
0.12869492755867087
30
0
10
-0.49144603177402618
20
0.12354760229156252
30
0
10
-0.48133960176563872
20
0.11694627414979475
30
0
10
-0.47089920302223237
20
0.10893712366791224
30
0
10
-0.46124934382779958
20
0.10039804384884796
30
0
10
-0.4535473047482525
20
0.092567777550414412
30
0
10
-0.4482443715618884
20
0.086564857432360726
30
0
10
-0.44502433364808724
20
0.083103503770487294
30
0
10
-0.44107552158359409
20
0.081677518090731357
30
0
10
-0.43385432247090422
20
0.081199463053626339
30
0
10
-0.42377895802484772
20
0.081115177116024006
30
0
10
-0.41212119931136287
20
0.080965722114818187
30
0
10
-0.40071582113150128
20
0.080520766570734717
30
0
10
-0.39078523515349789
20
0.079670306954888997
30
0
10
-0.38252968713683599
20
0.078420795427271706
30
0
10
-0.37551336377314098
20
0.076848103692256364
30
0
10
-0.36892130052388439
20
0.075068717913038999
30
0
10
-0.36185106021139984
20
0.073204837053064728
30
0
10
-0.35362627963147064
20
0.07134770839012379
30
0
10
-0.34380819755755709
20
0.069556776000717205
30
0
10
-0.33213145512119646
20
0.067868060832575322
30
0
10
-0.32119949230049538
20
0.066613037524887272
30
0
10
-0.31208674523460739
20
0.065728392632657062
30
0
10
-0.30560562457923751
20
0.065163782765420522
30
0
10
-0.30226357345859417
20
0.064887766401631172
30
0
0
SPLINE
5
129
100
AcDbEntity
8
0
100
AcDbSpline
70
4
71
5
72
31
73
25
74
0
42
0.000000001
43
0.0000000001
44
0.0000000001
40
0
40
0
40
0
40
0
40
0
40
0
40
0.050000000000000003
40
0.10000000000000001
40
0.15000000000000002
40
0.20000000000000001
40
0.25
40
0.29999999999999999
40
0.34999999999999998
40
0.39999999999999997
40
0.44999999999999996
40
0.49999999999999994
40
0.54999999999999993
40
0.59999999999999998
40
0.65000000000000002
40
0.70000000000000007
40
0.75000000000000011
40
0.80000000000000016
40
0.8500000000000002
40
0.90000000000000024
40
0.95000000000000029
40
1
40
1
40
1
40
1
40
1
40
1
41
1
41
1
41
1
41
1
41
1
41
1
41
1
41
1
41
1
41
1
41
1
41
1
41
1
41
1
41
1
41
1
41
1
41
1
41
1
41
1
41
1
41
1
41
1
41
1
41
1
10
-0.23660031769225229
20
0.35524279032066591
30
0
10
-0.23616721949223249
20
0.35688030974988744
30
0
10
-0.23518576885370815
20
0.36017617679291164
30
0
10
-0.23336781327251244
20
0.36518248240661338
30
0
10
-0.23024963728517583
20
0.37198289997282796
30
0
10
-0.22520256960175969
20
0.38066921032590723
30
0
10
-0.21906147084937563
20
0.38946305658479624
30
0
10
-0.21195570646244508
20
0.39820872318893141
30
0
10
-0.20413594262028867
20
0.40662733313439903
30
0
10
-0.19595865372728113
20
0.41434572147698584
30
0
10
-0.18779213125360056
20
0.42101730257406961
30
0
10
-0.17993877312408404
20
0.42642703884398608
30
0
10
-0.17255952907679972
20
0.43059135861370051
30
0
10
-0.1655713024971868
20
0.43390122834146377
30
0
10
-0.15869119063535903
20
0.4370416912268601
30
0
10
-0.15154274449262503
20
0.44081636196051482
30
0
10
-0.14373290418398452
20
0.44601818757642808
30
0
10
-0.13495731246500731
20
0.45325157049956166
30
0
10
-0.12502724441703431
20
0.46289133234165208
30
0
10
-0.11383208249601375
20
0.47515522170745494
30
0
10
-0.10132201795940611
20
0.49014004813887463
30
0
10
-0.090252358124768367
20
0.50432214136785081
30
0
10
-0.081356209153089651
20
0.51618580056166652
30
0
10
-0.075162551668893754
20
0.52463807481662916
30
0
10
-0.072000000449850804
20
0.52900000330515373
30
0
0
ENDSEC
0
SECTION
2
OBJECTS
0
DICTIONARY
5
C
100
AcDbDictionary
3
ACAD_GROUP
350
D
3
ACAD_MLINESTYLE
350
17
0
DICTIONARY
5
D
100
AcDbDictionary
0
DICTIONARY
5
1A
330
C
100
AcDbDictionary
0
DICTIONARY
5
17
100
AcDbDictionary
0
ENDSEC
0
EOF
