%FSLAX45Y45*%
G04 Gerber Fmt 4.5, Leading zero omitted, Abs format (unit mm)*
G04 Created by KiCad (PCBNEW (5.1.10)-1) date 2022-04-17 04:03:42*
%MOMM*%
%LPD*%
G01*
G04 APERTURE LIST*
%TA.AperFunction,Profile*%
%ADD10C,0.100000*%
%TD*%
%ADD11C,0.200000*%
%ADD12C,0.300000*%
G04 APERTURE END LIST*
D10*
X11430000Y-11112500D02*
G75*
G02*
X11112500Y-10795000I0J317500D01*
G01*
X11430000Y-6032500D02*
X19367500Y-6032500D01*
X19367500Y-11112500D02*
X11430000Y-11112500D01*
X11112500Y-10795000D02*
X11112500Y-6350000D01*
X19367500Y-6032500D02*
G75*
G02*
X19685000Y-6350000I0J-317500D01*
G01*
X11112500Y-6350000D02*
G75*
G02*
X11430000Y-6032500I317500J0D01*
G01*
X19685000Y-10795000D02*
G75*
G02*
X19367500Y-11112500I-317500J0D01*
G01*
X19685000Y-6350000D02*
X19685000Y-10795000D01*
D11*
X11610600Y-9412700D02*
X11910600Y-9712700D01*
X11910600Y-9412700D02*
X11610600Y-9712700D01*
X12930600Y-8092700D02*
X13230600Y-8392700D01*
X13230600Y-8092700D02*
X12930600Y-8392700D01*
X14154150Y-8235950D02*
G75*
G03*
X14154150Y-8235950I-152400J0D01*
G01*
X16186150Y-8235950D02*
G75*
G03*
X16186150Y-8235950I-152400J0D01*
G01*
X13432680Y-10299040D02*
X13432680Y-10649040D01*
X13257680Y-10474040D02*
X13607680Y-10474040D01*
D12*
X11393928Y-11583214D02*
X11393928Y-11283214D01*
X11465357Y-11283214D01*
X11508214Y-11297500D01*
X11536786Y-11326071D01*
X11551071Y-11354643D01*
X11565357Y-11411786D01*
X11565357Y-11454643D01*
X11551071Y-11511786D01*
X11536786Y-11540357D01*
X11508214Y-11568928D01*
X11465357Y-11583214D01*
X11393928Y-11583214D01*
X11693928Y-11583214D02*
X11693928Y-11383214D01*
X11693928Y-11440357D02*
X11708214Y-11411786D01*
X11722500Y-11397500D01*
X11751071Y-11383214D01*
X11779643Y-11383214D01*
X11879643Y-11583214D02*
X11879643Y-11383214D01*
X11879643Y-11283214D02*
X11865357Y-11297500D01*
X11879643Y-11311786D01*
X11893928Y-11297500D01*
X11879643Y-11283214D01*
X11879643Y-11311786D01*
X12065357Y-11583214D02*
X12036786Y-11568928D01*
X12022500Y-11540357D01*
X12022500Y-11283214D01*
X12222500Y-11583214D02*
X12193928Y-11568928D01*
X12179643Y-11540357D01*
X12179643Y-11283214D01*
X12565357Y-11583214D02*
X12565357Y-11283214D01*
X12665357Y-11497500D01*
X12765357Y-11283214D01*
X12765357Y-11583214D01*
X13036786Y-11583214D02*
X13036786Y-11426071D01*
X13022500Y-11397500D01*
X12993928Y-11383214D01*
X12936786Y-11383214D01*
X12908214Y-11397500D01*
X13036786Y-11568928D02*
X13008214Y-11583214D01*
X12936786Y-11583214D01*
X12908214Y-11568928D01*
X12893928Y-11540357D01*
X12893928Y-11511786D01*
X12908214Y-11483214D01*
X12936786Y-11468928D01*
X13008214Y-11468928D01*
X13036786Y-11454643D01*
X13179643Y-11383214D02*
X13179643Y-11683214D01*
X13179643Y-11397500D02*
X13208214Y-11383214D01*
X13265357Y-11383214D01*
X13293928Y-11397500D01*
X13308214Y-11411786D01*
X13322500Y-11440357D01*
X13322500Y-11526071D01*
X13308214Y-11554643D01*
X13293928Y-11568928D01*
X13265357Y-11583214D01*
X13208214Y-11583214D01*
X13179643Y-11568928D01*
X13451071Y-11554643D02*
X13465357Y-11568928D01*
X13451071Y-11583214D01*
X13436786Y-11568928D01*
X13451071Y-11554643D01*
X13451071Y-11583214D01*
X13451071Y-11397500D02*
X13465357Y-11411786D01*
X13451071Y-11426071D01*
X13436786Y-11411786D01*
X13451071Y-11397500D01*
X13451071Y-11426071D01*
X10807500Y-11927500D02*
X11107500Y-12227500D01*
X11107500Y-11927500D02*
X10807500Y-12227500D01*
X11365357Y-11913214D02*
X11551071Y-11913214D01*
X11451071Y-12027500D01*
X11493928Y-12027500D01*
X11522500Y-12041786D01*
X11536786Y-12056071D01*
X11551071Y-12084643D01*
X11551071Y-12156071D01*
X11536786Y-12184643D01*
X11522500Y-12198928D01*
X11493928Y-12213214D01*
X11408214Y-12213214D01*
X11379643Y-12198928D01*
X11365357Y-12184643D01*
X11679643Y-12184643D02*
X11693928Y-12198928D01*
X11679643Y-12213214D01*
X11665357Y-12198928D01*
X11679643Y-12184643D01*
X11679643Y-12213214D01*
X11879643Y-11913214D02*
X11908214Y-11913214D01*
X11936786Y-11927500D01*
X11951071Y-11941786D01*
X11965357Y-11970357D01*
X11979643Y-12027500D01*
X11979643Y-12098928D01*
X11965357Y-12156071D01*
X11951071Y-12184643D01*
X11936786Y-12198928D01*
X11908214Y-12213214D01*
X11879643Y-12213214D01*
X11851071Y-12198928D01*
X11836786Y-12184643D01*
X11822500Y-12156071D01*
X11808214Y-12098928D01*
X11808214Y-12027500D01*
X11822500Y-11970357D01*
X11836786Y-11941786D01*
X11851071Y-11927500D01*
X11879643Y-11913214D01*
X12165357Y-11913214D02*
X12193928Y-11913214D01*
X12222500Y-11927500D01*
X12236786Y-11941786D01*
X12251071Y-11970357D01*
X12265357Y-12027500D01*
X12265357Y-12098928D01*
X12251071Y-12156071D01*
X12236786Y-12184643D01*
X12222500Y-12198928D01*
X12193928Y-12213214D01*
X12165357Y-12213214D01*
X12136786Y-12198928D01*
X12122500Y-12184643D01*
X12108214Y-12156071D01*
X12093928Y-12098928D01*
X12093928Y-12027500D01*
X12108214Y-11970357D01*
X12122500Y-11941786D01*
X12136786Y-11927500D01*
X12165357Y-11913214D01*
X12451071Y-11913214D02*
X12479643Y-11913214D01*
X12508214Y-11927500D01*
X12522500Y-11941786D01*
X12536786Y-11970357D01*
X12551071Y-12027500D01*
X12551071Y-12098928D01*
X12536786Y-12156071D01*
X12522500Y-12184643D01*
X12508214Y-12198928D01*
X12479643Y-12213214D01*
X12451071Y-12213214D01*
X12422500Y-12198928D01*
X12408214Y-12184643D01*
X12393928Y-12156071D01*
X12379643Y-12098928D01*
X12379643Y-12027500D01*
X12393928Y-11970357D01*
X12408214Y-11941786D01*
X12422500Y-11927500D01*
X12451071Y-11913214D01*
X12679643Y-12213214D02*
X12679643Y-12013214D01*
X12679643Y-12041786D02*
X12693928Y-12027500D01*
X12722500Y-12013214D01*
X12765357Y-12013214D01*
X12793928Y-12027500D01*
X12808214Y-12056071D01*
X12808214Y-12213214D01*
X12808214Y-12056071D02*
X12822500Y-12027500D01*
X12851071Y-12013214D01*
X12893928Y-12013214D01*
X12922500Y-12027500D01*
X12936786Y-12056071D01*
X12936786Y-12213214D01*
X13079643Y-12213214D02*
X13079643Y-12013214D01*
X13079643Y-12041786D02*
X13093928Y-12027500D01*
X13122500Y-12013214D01*
X13165357Y-12013214D01*
X13193928Y-12027500D01*
X13208214Y-12056071D01*
X13208214Y-12213214D01*
X13208214Y-12056071D02*
X13222500Y-12027500D01*
X13251071Y-12013214D01*
X13293928Y-12013214D01*
X13322500Y-12027500D01*
X13336786Y-12056071D01*
X13336786Y-12213214D01*
X13922500Y-11898928D02*
X13665357Y-12284643D01*
X14308214Y-11913214D02*
X14336786Y-11913214D01*
X14365357Y-11927500D01*
X14379643Y-11941786D01*
X14393928Y-11970357D01*
X14408214Y-12027500D01*
X14408214Y-12098928D01*
X14393928Y-12156071D01*
X14379643Y-12184643D01*
X14365357Y-12198928D01*
X14336786Y-12213214D01*
X14308214Y-12213214D01*
X14279643Y-12198928D01*
X14265357Y-12184643D01*
X14251071Y-12156071D01*
X14236786Y-12098928D01*
X14236786Y-12027500D01*
X14251071Y-11970357D01*
X14265357Y-11941786D01*
X14279643Y-11927500D01*
X14308214Y-11913214D01*
X14536786Y-12184643D02*
X14551071Y-12198928D01*
X14536786Y-12213214D01*
X14522500Y-12198928D01*
X14536786Y-12184643D01*
X14536786Y-12213214D01*
X14836786Y-12213214D02*
X14665357Y-12213214D01*
X14751071Y-12213214D02*
X14751071Y-11913214D01*
X14722500Y-11956071D01*
X14693928Y-11984643D01*
X14665357Y-11998928D01*
X15122500Y-12213214D02*
X14951071Y-12213214D01*
X15036786Y-12213214D02*
X15036786Y-11913214D01*
X15008214Y-11956071D01*
X14979643Y-11984643D01*
X14951071Y-11998928D01*
X15293928Y-12041786D02*
X15265357Y-12027500D01*
X15251071Y-12013214D01*
X15236786Y-11984643D01*
X15236786Y-11970357D01*
X15251071Y-11941786D01*
X15265357Y-11927500D01*
X15293928Y-11913214D01*
X15351071Y-11913214D01*
X15379643Y-11927500D01*
X15393928Y-11941786D01*
X15408214Y-11970357D01*
X15408214Y-11984643D01*
X15393928Y-12013214D01*
X15379643Y-12027500D01*
X15351071Y-12041786D01*
X15293928Y-12041786D01*
X15265357Y-12056071D01*
X15251071Y-12070357D01*
X15236786Y-12098928D01*
X15236786Y-12156071D01*
X15251071Y-12184643D01*
X15265357Y-12198928D01*
X15293928Y-12213214D01*
X15351071Y-12213214D01*
X15379643Y-12198928D01*
X15393928Y-12184643D01*
X15408214Y-12156071D01*
X15408214Y-12098928D01*
X15393928Y-12070357D01*
X15379643Y-12056071D01*
X15351071Y-12041786D01*
X15693928Y-12213214D02*
X15522500Y-12213214D01*
X15608214Y-12213214D02*
X15608214Y-11913214D01*
X15579643Y-11956071D01*
X15551071Y-11984643D01*
X15522500Y-11998928D01*
X15808214Y-11913214D02*
X15808214Y-11970357D01*
X15922500Y-11913214D02*
X15922500Y-11970357D01*
X16365357Y-12327500D02*
X16351071Y-12313214D01*
X16322500Y-12270357D01*
X16308214Y-12241786D01*
X16293928Y-12198928D01*
X16279643Y-12127500D01*
X16279643Y-12070357D01*
X16293928Y-11998928D01*
X16308214Y-11956071D01*
X16322500Y-11927500D01*
X16351071Y-11884643D01*
X16365357Y-11870357D01*
X16465357Y-11941786D02*
X16479643Y-11927500D01*
X16508214Y-11913214D01*
X16579643Y-11913214D01*
X16608214Y-11927500D01*
X16622500Y-11941786D01*
X16636786Y-11970357D01*
X16636786Y-11998928D01*
X16622500Y-12041786D01*
X16451071Y-12213214D01*
X16636786Y-12213214D01*
X16993928Y-12213214D02*
X16993928Y-11913214D01*
X17122500Y-12213214D02*
X17122500Y-12056071D01*
X17108214Y-12027500D01*
X17079643Y-12013214D01*
X17036786Y-12013214D01*
X17008214Y-12027500D01*
X16993928Y-12041786D01*
X17308214Y-12213214D02*
X17279643Y-12198928D01*
X17265357Y-12184643D01*
X17251071Y-12156071D01*
X17251071Y-12070357D01*
X17265357Y-12041786D01*
X17279643Y-12027500D01*
X17308214Y-12013214D01*
X17351071Y-12013214D01*
X17379643Y-12027500D01*
X17393928Y-12041786D01*
X17408214Y-12070357D01*
X17408214Y-12156071D01*
X17393928Y-12184643D01*
X17379643Y-12198928D01*
X17351071Y-12213214D01*
X17308214Y-12213214D01*
X17579643Y-12213214D02*
X17551071Y-12198928D01*
X17536786Y-12170357D01*
X17536786Y-11913214D01*
X17808214Y-12198928D02*
X17779643Y-12213214D01*
X17722500Y-12213214D01*
X17693928Y-12198928D01*
X17679643Y-12170357D01*
X17679643Y-12056071D01*
X17693928Y-12027500D01*
X17722500Y-12013214D01*
X17779643Y-12013214D01*
X17808214Y-12027500D01*
X17822500Y-12056071D01*
X17822500Y-12084643D01*
X17679643Y-12113214D01*
X17936786Y-12198928D02*
X17965357Y-12213214D01*
X18022500Y-12213214D01*
X18051071Y-12198928D01*
X18065357Y-12170357D01*
X18065357Y-12156071D01*
X18051071Y-12127500D01*
X18022500Y-12113214D01*
X17979643Y-12113214D01*
X17951071Y-12098928D01*
X17936786Y-12070357D01*
X17936786Y-12056071D01*
X17951071Y-12027500D01*
X17979643Y-12013214D01*
X18022500Y-12013214D01*
X18051071Y-12027500D01*
X18165357Y-12327500D02*
X18179643Y-12313214D01*
X18208214Y-12270357D01*
X18222500Y-12241786D01*
X18236786Y-12198928D01*
X18251071Y-12127500D01*
X18251071Y-12070357D01*
X18236786Y-11998928D01*
X18222500Y-11956071D01*
X18208214Y-11927500D01*
X18179643Y-11884643D01*
X18165357Y-11870357D01*
X18708214Y-12327500D02*
X18693928Y-12313214D01*
X18665357Y-12270357D01*
X18651071Y-12241786D01*
X18636786Y-12198928D01*
X18622500Y-12127500D01*
X18622500Y-12070357D01*
X18636786Y-11998928D01*
X18651071Y-11956071D01*
X18665357Y-11927500D01*
X18693928Y-11884643D01*
X18708214Y-11870357D01*
X18822500Y-12013214D02*
X18822500Y-12213214D01*
X18822500Y-12041786D02*
X18836786Y-12027500D01*
X18865357Y-12013214D01*
X18908214Y-12013214D01*
X18936786Y-12027500D01*
X18951071Y-12056071D01*
X18951071Y-12213214D01*
X19136786Y-12213214D02*
X19108214Y-12198928D01*
X19093928Y-12184643D01*
X19079643Y-12156071D01*
X19079643Y-12070357D01*
X19093928Y-12041786D01*
X19108214Y-12027500D01*
X19136786Y-12013214D01*
X19179643Y-12013214D01*
X19208214Y-12027500D01*
X19222500Y-12041786D01*
X19236786Y-12070357D01*
X19236786Y-12156071D01*
X19222500Y-12184643D01*
X19208214Y-12198928D01*
X19179643Y-12213214D01*
X19136786Y-12213214D01*
X19322500Y-12013214D02*
X19436786Y-12013214D01*
X19365357Y-11913214D02*
X19365357Y-12170357D01*
X19379643Y-12198928D01*
X19408214Y-12213214D01*
X19436786Y-12213214D01*
X19765357Y-12013214D02*
X19765357Y-12313214D01*
X19765357Y-12027500D02*
X19793928Y-12013214D01*
X19851071Y-12013214D01*
X19879643Y-12027500D01*
X19893928Y-12041786D01*
X19908214Y-12070357D01*
X19908214Y-12156071D01*
X19893928Y-12184643D01*
X19879643Y-12198928D01*
X19851071Y-12213214D01*
X19793928Y-12213214D01*
X19765357Y-12198928D01*
X20079643Y-12213214D02*
X20051071Y-12198928D01*
X20036786Y-12170357D01*
X20036786Y-11913214D01*
X20322500Y-12213214D02*
X20322500Y-12056071D01*
X20308214Y-12027500D01*
X20279643Y-12013214D01*
X20222500Y-12013214D01*
X20193928Y-12027500D01*
X20322500Y-12198928D02*
X20293928Y-12213214D01*
X20222500Y-12213214D01*
X20193928Y-12198928D01*
X20179643Y-12170357D01*
X20179643Y-12141786D01*
X20193928Y-12113214D01*
X20222500Y-12098928D01*
X20293928Y-12098928D01*
X20322500Y-12084643D01*
X20422500Y-12013214D02*
X20536786Y-12013214D01*
X20465357Y-11913214D02*
X20465357Y-12170357D01*
X20479643Y-12198928D01*
X20508214Y-12213214D01*
X20536786Y-12213214D01*
X20751071Y-12198928D02*
X20722500Y-12213214D01*
X20665357Y-12213214D01*
X20636786Y-12198928D01*
X20622500Y-12170357D01*
X20622500Y-12056071D01*
X20636786Y-12027500D01*
X20665357Y-12013214D01*
X20722500Y-12013214D01*
X20751071Y-12027500D01*
X20765357Y-12056071D01*
X20765357Y-12084643D01*
X20622500Y-12113214D01*
X21022500Y-12213214D02*
X21022500Y-11913214D01*
X21022500Y-12198928D02*
X20993928Y-12213214D01*
X20936786Y-12213214D01*
X20908214Y-12198928D01*
X20893928Y-12184643D01*
X20879643Y-12156071D01*
X20879643Y-12070357D01*
X20893928Y-12041786D01*
X20908214Y-12027500D01*
X20936786Y-12013214D01*
X20993928Y-12013214D01*
X21022500Y-12027500D01*
X21136786Y-12327500D02*
X21151071Y-12313214D01*
X21179643Y-12270357D01*
X21193928Y-12241786D01*
X21208214Y-12198928D01*
X21222500Y-12127500D01*
X21222500Y-12070357D01*
X21208214Y-11998928D01*
X21193928Y-11956071D01*
X21179643Y-11927500D01*
X21151071Y-11884643D01*
X21136786Y-11870357D01*
X11107500Y-12507500D02*
G75*
G03*
X11107500Y-12507500I-152400J0D01*
G01*
X11365357Y-12343214D02*
X11551071Y-12343214D01*
X11451071Y-12457500D01*
X11493928Y-12457500D01*
X11522500Y-12471786D01*
X11536786Y-12486071D01*
X11551071Y-12514643D01*
X11551071Y-12586071D01*
X11536786Y-12614643D01*
X11522500Y-12628928D01*
X11493928Y-12643214D01*
X11408214Y-12643214D01*
X11379643Y-12628928D01*
X11365357Y-12614643D01*
X11679643Y-12614643D02*
X11693928Y-12628928D01*
X11679643Y-12643214D01*
X11665357Y-12628928D01*
X11679643Y-12614643D01*
X11679643Y-12643214D01*
X11879643Y-12343214D02*
X11908214Y-12343214D01*
X11936786Y-12357500D01*
X11951071Y-12371786D01*
X11965357Y-12400357D01*
X11979643Y-12457500D01*
X11979643Y-12528928D01*
X11965357Y-12586071D01*
X11951071Y-12614643D01*
X11936786Y-12628928D01*
X11908214Y-12643214D01*
X11879643Y-12643214D01*
X11851071Y-12628928D01*
X11836786Y-12614643D01*
X11822500Y-12586071D01*
X11808214Y-12528928D01*
X11808214Y-12457500D01*
X11822500Y-12400357D01*
X11836786Y-12371786D01*
X11851071Y-12357500D01*
X11879643Y-12343214D01*
X12236786Y-12443214D02*
X12236786Y-12643214D01*
X12165357Y-12328928D02*
X12093928Y-12543214D01*
X12279643Y-12543214D01*
X12436786Y-12471786D02*
X12408214Y-12457500D01*
X12393928Y-12443214D01*
X12379643Y-12414643D01*
X12379643Y-12400357D01*
X12393928Y-12371786D01*
X12408214Y-12357500D01*
X12436786Y-12343214D01*
X12493928Y-12343214D01*
X12522500Y-12357500D01*
X12536786Y-12371786D01*
X12551071Y-12400357D01*
X12551071Y-12414643D01*
X12536786Y-12443214D01*
X12522500Y-12457500D01*
X12493928Y-12471786D01*
X12436786Y-12471786D01*
X12408214Y-12486071D01*
X12393928Y-12500357D01*
X12379643Y-12528928D01*
X12379643Y-12586071D01*
X12393928Y-12614643D01*
X12408214Y-12628928D01*
X12436786Y-12643214D01*
X12493928Y-12643214D01*
X12522500Y-12628928D01*
X12536786Y-12614643D01*
X12551071Y-12586071D01*
X12551071Y-12528928D01*
X12536786Y-12500357D01*
X12522500Y-12486071D01*
X12493928Y-12471786D01*
X12679643Y-12643214D02*
X12679643Y-12443214D01*
X12679643Y-12471786D02*
X12693928Y-12457500D01*
X12722500Y-12443214D01*
X12765357Y-12443214D01*
X12793928Y-12457500D01*
X12808214Y-12486071D01*
X12808214Y-12643214D01*
X12808214Y-12486071D02*
X12822500Y-12457500D01*
X12851071Y-12443214D01*
X12893928Y-12443214D01*
X12922500Y-12457500D01*
X12936786Y-12486071D01*
X12936786Y-12643214D01*
X13079643Y-12643214D02*
X13079643Y-12443214D01*
X13079643Y-12471786D02*
X13093928Y-12457500D01*
X13122500Y-12443214D01*
X13165357Y-12443214D01*
X13193928Y-12457500D01*
X13208214Y-12486071D01*
X13208214Y-12643214D01*
X13208214Y-12486071D02*
X13222500Y-12457500D01*
X13251071Y-12443214D01*
X13293928Y-12443214D01*
X13322500Y-12457500D01*
X13336786Y-12486071D01*
X13336786Y-12643214D01*
X13922500Y-12328928D02*
X13665357Y-12714643D01*
X14308214Y-12343214D02*
X14336786Y-12343214D01*
X14365357Y-12357500D01*
X14379643Y-12371786D01*
X14393928Y-12400357D01*
X14408214Y-12457500D01*
X14408214Y-12528928D01*
X14393928Y-12586071D01*
X14379643Y-12614643D01*
X14365357Y-12628928D01*
X14336786Y-12643214D01*
X14308214Y-12643214D01*
X14279643Y-12628928D01*
X14265357Y-12614643D01*
X14251071Y-12586071D01*
X14236786Y-12528928D01*
X14236786Y-12457500D01*
X14251071Y-12400357D01*
X14265357Y-12371786D01*
X14279643Y-12357500D01*
X14308214Y-12343214D01*
X14536786Y-12614643D02*
X14551071Y-12628928D01*
X14536786Y-12643214D01*
X14522500Y-12628928D01*
X14536786Y-12614643D01*
X14536786Y-12643214D01*
X14836786Y-12643214D02*
X14665357Y-12643214D01*
X14751071Y-12643214D02*
X14751071Y-12343214D01*
X14722500Y-12386071D01*
X14693928Y-12414643D01*
X14665357Y-12428928D01*
X14951071Y-12371786D02*
X14965357Y-12357500D01*
X14993928Y-12343214D01*
X15065357Y-12343214D01*
X15093928Y-12357500D01*
X15108214Y-12371786D01*
X15122500Y-12400357D01*
X15122500Y-12428928D01*
X15108214Y-12471786D01*
X14936786Y-12643214D01*
X15122500Y-12643214D01*
X15308214Y-12343214D02*
X15336786Y-12343214D01*
X15365357Y-12357500D01*
X15379643Y-12371786D01*
X15393928Y-12400357D01*
X15408214Y-12457500D01*
X15408214Y-12528928D01*
X15393928Y-12586071D01*
X15379643Y-12614643D01*
X15365357Y-12628928D01*
X15336786Y-12643214D01*
X15308214Y-12643214D01*
X15279643Y-12628928D01*
X15265357Y-12614643D01*
X15251071Y-12586071D01*
X15236786Y-12528928D01*
X15236786Y-12457500D01*
X15251071Y-12400357D01*
X15265357Y-12371786D01*
X15279643Y-12357500D01*
X15308214Y-12343214D01*
X15593928Y-12343214D02*
X15622500Y-12343214D01*
X15651071Y-12357500D01*
X15665357Y-12371786D01*
X15679643Y-12400357D01*
X15693928Y-12457500D01*
X15693928Y-12528928D01*
X15679643Y-12586071D01*
X15665357Y-12614643D01*
X15651071Y-12628928D01*
X15622500Y-12643214D01*
X15593928Y-12643214D01*
X15565357Y-12628928D01*
X15551071Y-12614643D01*
X15536786Y-12586071D01*
X15522500Y-12528928D01*
X15522500Y-12457500D01*
X15536786Y-12400357D01*
X15551071Y-12371786D01*
X15565357Y-12357500D01*
X15593928Y-12343214D01*
X15808214Y-12343214D02*
X15808214Y-12400357D01*
X15922500Y-12343214D02*
X15922500Y-12400357D01*
X16365357Y-12757500D02*
X16351071Y-12743214D01*
X16322500Y-12700357D01*
X16308214Y-12671786D01*
X16293928Y-12628928D01*
X16279643Y-12557500D01*
X16279643Y-12500357D01*
X16293928Y-12428928D01*
X16308214Y-12386071D01*
X16322500Y-12357500D01*
X16351071Y-12314643D01*
X16365357Y-12300357D01*
X16465357Y-12371786D02*
X16479643Y-12357500D01*
X16508214Y-12343214D01*
X16579643Y-12343214D01*
X16608214Y-12357500D01*
X16622500Y-12371786D01*
X16636786Y-12400357D01*
X16636786Y-12428928D01*
X16622500Y-12471786D01*
X16451071Y-12643214D01*
X16636786Y-12643214D01*
X16993928Y-12643214D02*
X16993928Y-12343214D01*
X17122500Y-12643214D02*
X17122500Y-12486071D01*
X17108214Y-12457500D01*
X17079643Y-12443214D01*
X17036786Y-12443214D01*
X17008214Y-12457500D01*
X16993928Y-12471786D01*
X17308214Y-12643214D02*
X17279643Y-12628928D01*
X17265357Y-12614643D01*
X17251071Y-12586071D01*
X17251071Y-12500357D01*
X17265357Y-12471786D01*
X17279643Y-12457500D01*
X17308214Y-12443214D01*
X17351071Y-12443214D01*
X17379643Y-12457500D01*
X17393928Y-12471786D01*
X17408214Y-12500357D01*
X17408214Y-12586071D01*
X17393928Y-12614643D01*
X17379643Y-12628928D01*
X17351071Y-12643214D01*
X17308214Y-12643214D01*
X17579643Y-12643214D02*
X17551071Y-12628928D01*
X17536786Y-12600357D01*
X17536786Y-12343214D01*
X17808214Y-12628928D02*
X17779643Y-12643214D01*
X17722500Y-12643214D01*
X17693928Y-12628928D01*
X17679643Y-12600357D01*
X17679643Y-12486071D01*
X17693928Y-12457500D01*
X17722500Y-12443214D01*
X17779643Y-12443214D01*
X17808214Y-12457500D01*
X17822500Y-12486071D01*
X17822500Y-12514643D01*
X17679643Y-12543214D01*
X17936786Y-12628928D02*
X17965357Y-12643214D01*
X18022500Y-12643214D01*
X18051071Y-12628928D01*
X18065357Y-12600357D01*
X18065357Y-12586071D01*
X18051071Y-12557500D01*
X18022500Y-12543214D01*
X17979643Y-12543214D01*
X17951071Y-12528928D01*
X17936786Y-12500357D01*
X17936786Y-12486071D01*
X17951071Y-12457500D01*
X17979643Y-12443214D01*
X18022500Y-12443214D01*
X18051071Y-12457500D01*
X18165357Y-12757500D02*
X18179643Y-12743214D01*
X18208214Y-12700357D01*
X18222500Y-12671786D01*
X18236786Y-12628928D01*
X18251071Y-12557500D01*
X18251071Y-12500357D01*
X18236786Y-12428928D01*
X18222500Y-12386071D01*
X18208214Y-12357500D01*
X18179643Y-12314643D01*
X18165357Y-12300357D01*
X18708214Y-12757500D02*
X18693928Y-12743214D01*
X18665357Y-12700357D01*
X18651071Y-12671786D01*
X18636786Y-12628928D01*
X18622500Y-12557500D01*
X18622500Y-12500357D01*
X18636786Y-12428928D01*
X18651071Y-12386071D01*
X18665357Y-12357500D01*
X18693928Y-12314643D01*
X18708214Y-12300357D01*
X18822500Y-12443214D02*
X18822500Y-12643214D01*
X18822500Y-12471786D02*
X18836786Y-12457500D01*
X18865357Y-12443214D01*
X18908214Y-12443214D01*
X18936786Y-12457500D01*
X18951071Y-12486071D01*
X18951071Y-12643214D01*
X19136786Y-12643214D02*
X19108214Y-12628928D01*
X19093928Y-12614643D01*
X19079643Y-12586071D01*
X19079643Y-12500357D01*
X19093928Y-12471786D01*
X19108214Y-12457500D01*
X19136786Y-12443214D01*
X19179643Y-12443214D01*
X19208214Y-12457500D01*
X19222500Y-12471786D01*
X19236786Y-12500357D01*
X19236786Y-12586071D01*
X19222500Y-12614643D01*
X19208214Y-12628928D01*
X19179643Y-12643214D01*
X19136786Y-12643214D01*
X19322500Y-12443214D02*
X19436786Y-12443214D01*
X19365357Y-12343214D02*
X19365357Y-12600357D01*
X19379643Y-12628928D01*
X19408214Y-12643214D01*
X19436786Y-12643214D01*
X19765357Y-12443214D02*
X19765357Y-12743214D01*
X19765357Y-12457500D02*
X19793928Y-12443214D01*
X19851071Y-12443214D01*
X19879643Y-12457500D01*
X19893928Y-12471786D01*
X19908214Y-12500357D01*
X19908214Y-12586071D01*
X19893928Y-12614643D01*
X19879643Y-12628928D01*
X19851071Y-12643214D01*
X19793928Y-12643214D01*
X19765357Y-12628928D01*
X20079643Y-12643214D02*
X20051071Y-12628928D01*
X20036786Y-12600357D01*
X20036786Y-12343214D01*
X20322500Y-12643214D02*
X20322500Y-12486071D01*
X20308214Y-12457500D01*
X20279643Y-12443214D01*
X20222500Y-12443214D01*
X20193928Y-12457500D01*
X20322500Y-12628928D02*
X20293928Y-12643214D01*
X20222500Y-12643214D01*
X20193928Y-12628928D01*
X20179643Y-12600357D01*
X20179643Y-12571786D01*
X20193928Y-12543214D01*
X20222500Y-12528928D01*
X20293928Y-12528928D01*
X20322500Y-12514643D01*
X20422500Y-12443214D02*
X20536786Y-12443214D01*
X20465357Y-12343214D02*
X20465357Y-12600357D01*
X20479643Y-12628928D01*
X20508214Y-12643214D01*
X20536786Y-12643214D01*
X20751071Y-12628928D02*
X20722500Y-12643214D01*
X20665357Y-12643214D01*
X20636786Y-12628928D01*
X20622500Y-12600357D01*
X20622500Y-12486071D01*
X20636786Y-12457500D01*
X20665357Y-12443214D01*
X20722500Y-12443214D01*
X20751071Y-12457500D01*
X20765357Y-12486071D01*
X20765357Y-12514643D01*
X20622500Y-12543214D01*
X21022500Y-12643214D02*
X21022500Y-12343214D01*
X21022500Y-12628928D02*
X20993928Y-12643214D01*
X20936786Y-12643214D01*
X20908214Y-12628928D01*
X20893928Y-12614643D01*
X20879643Y-12586071D01*
X20879643Y-12500357D01*
X20893928Y-12471786D01*
X20908214Y-12457500D01*
X20936786Y-12443214D01*
X20993928Y-12443214D01*
X21022500Y-12457500D01*
X21136786Y-12757500D02*
X21151071Y-12743214D01*
X21179643Y-12700357D01*
X21193928Y-12671786D01*
X21208214Y-12628928D01*
X21222500Y-12557500D01*
X21222500Y-12500357D01*
X21208214Y-12428928D01*
X21193928Y-12386071D01*
X21179643Y-12357500D01*
X21151071Y-12314643D01*
X21136786Y-12300357D01*
X10932500Y-12767300D02*
X10932500Y-13117300D01*
X10757500Y-12942300D02*
X11107500Y-12942300D01*
X11365357Y-12778014D02*
X11551071Y-12778014D01*
X11451071Y-12892300D01*
X11493928Y-12892300D01*
X11522500Y-12906586D01*
X11536786Y-12920871D01*
X11551071Y-12949443D01*
X11551071Y-13020871D01*
X11536786Y-13049443D01*
X11522500Y-13063728D01*
X11493928Y-13078014D01*
X11408214Y-13078014D01*
X11379643Y-13063728D01*
X11365357Y-13049443D01*
X11679643Y-13049443D02*
X11693928Y-13063728D01*
X11679643Y-13078014D01*
X11665357Y-13063728D01*
X11679643Y-13049443D01*
X11679643Y-13078014D01*
X11965357Y-12778014D02*
X11822500Y-12778014D01*
X11808214Y-12920871D01*
X11822500Y-12906586D01*
X11851071Y-12892300D01*
X11922500Y-12892300D01*
X11951071Y-12906586D01*
X11965357Y-12920871D01*
X11979643Y-12949443D01*
X11979643Y-13020871D01*
X11965357Y-13049443D01*
X11951071Y-13063728D01*
X11922500Y-13078014D01*
X11851071Y-13078014D01*
X11822500Y-13063728D01*
X11808214Y-13049443D01*
X12165357Y-12778014D02*
X12193928Y-12778014D01*
X12222500Y-12792300D01*
X12236786Y-12806586D01*
X12251071Y-12835157D01*
X12265357Y-12892300D01*
X12265357Y-12963728D01*
X12251071Y-13020871D01*
X12236786Y-13049443D01*
X12222500Y-13063728D01*
X12193928Y-13078014D01*
X12165357Y-13078014D01*
X12136786Y-13063728D01*
X12122500Y-13049443D01*
X12108214Y-13020871D01*
X12093928Y-12963728D01*
X12093928Y-12892300D01*
X12108214Y-12835157D01*
X12122500Y-12806586D01*
X12136786Y-12792300D01*
X12165357Y-12778014D01*
X12451071Y-12778014D02*
X12479643Y-12778014D01*
X12508214Y-12792300D01*
X12522500Y-12806586D01*
X12536786Y-12835157D01*
X12551071Y-12892300D01*
X12551071Y-12963728D01*
X12536786Y-13020871D01*
X12522500Y-13049443D01*
X12508214Y-13063728D01*
X12479643Y-13078014D01*
X12451071Y-13078014D01*
X12422500Y-13063728D01*
X12408214Y-13049443D01*
X12393928Y-13020871D01*
X12379643Y-12963728D01*
X12379643Y-12892300D01*
X12393928Y-12835157D01*
X12408214Y-12806586D01*
X12422500Y-12792300D01*
X12451071Y-12778014D01*
X12679643Y-13078014D02*
X12679643Y-12878014D01*
X12679643Y-12906586D02*
X12693928Y-12892300D01*
X12722500Y-12878014D01*
X12765357Y-12878014D01*
X12793928Y-12892300D01*
X12808214Y-12920871D01*
X12808214Y-13078014D01*
X12808214Y-12920871D02*
X12822500Y-12892300D01*
X12851071Y-12878014D01*
X12893928Y-12878014D01*
X12922500Y-12892300D01*
X12936786Y-12920871D01*
X12936786Y-13078014D01*
X13079643Y-13078014D02*
X13079643Y-12878014D01*
X13079643Y-12906586D02*
X13093928Y-12892300D01*
X13122500Y-12878014D01*
X13165357Y-12878014D01*
X13193928Y-12892300D01*
X13208214Y-12920871D01*
X13208214Y-13078014D01*
X13208214Y-12920871D02*
X13222500Y-12892300D01*
X13251071Y-12878014D01*
X13293928Y-12878014D01*
X13322500Y-12892300D01*
X13336786Y-12920871D01*
X13336786Y-13078014D01*
X13922500Y-12763728D02*
X13665357Y-13149443D01*
X14308214Y-12778014D02*
X14336786Y-12778014D01*
X14365357Y-12792300D01*
X14379643Y-12806586D01*
X14393928Y-12835157D01*
X14408214Y-12892300D01*
X14408214Y-12963728D01*
X14393928Y-13020871D01*
X14379643Y-13049443D01*
X14365357Y-13063728D01*
X14336786Y-13078014D01*
X14308214Y-13078014D01*
X14279643Y-13063728D01*
X14265357Y-13049443D01*
X14251071Y-13020871D01*
X14236786Y-12963728D01*
X14236786Y-12892300D01*
X14251071Y-12835157D01*
X14265357Y-12806586D01*
X14279643Y-12792300D01*
X14308214Y-12778014D01*
X14536786Y-13049443D02*
X14551071Y-13063728D01*
X14536786Y-13078014D01*
X14522500Y-13063728D01*
X14536786Y-13049443D01*
X14536786Y-13078014D01*
X14836786Y-13078014D02*
X14665357Y-13078014D01*
X14751071Y-13078014D02*
X14751071Y-12778014D01*
X14722500Y-12820871D01*
X14693928Y-12849443D01*
X14665357Y-12863728D01*
X14936786Y-12778014D02*
X15122500Y-12778014D01*
X15022500Y-12892300D01*
X15065357Y-12892300D01*
X15093928Y-12906586D01*
X15108214Y-12920871D01*
X15122500Y-12949443D01*
X15122500Y-13020871D01*
X15108214Y-13049443D01*
X15093928Y-13063728D01*
X15065357Y-13078014D01*
X14979643Y-13078014D01*
X14951071Y-13063728D01*
X14936786Y-13049443D01*
X15222500Y-12778014D02*
X15422500Y-12778014D01*
X15293928Y-13078014D01*
X15579643Y-12906586D02*
X15551071Y-12892300D01*
X15536786Y-12878014D01*
X15522500Y-12849443D01*
X15522500Y-12835157D01*
X15536786Y-12806586D01*
X15551071Y-12792300D01*
X15579643Y-12778014D01*
X15636786Y-12778014D01*
X15665357Y-12792300D01*
X15679643Y-12806586D01*
X15693928Y-12835157D01*
X15693928Y-12849443D01*
X15679643Y-12878014D01*
X15665357Y-12892300D01*
X15636786Y-12906586D01*
X15579643Y-12906586D01*
X15551071Y-12920871D01*
X15536786Y-12935157D01*
X15522500Y-12963728D01*
X15522500Y-13020871D01*
X15536786Y-13049443D01*
X15551071Y-13063728D01*
X15579643Y-13078014D01*
X15636786Y-13078014D01*
X15665357Y-13063728D01*
X15679643Y-13049443D01*
X15693928Y-13020871D01*
X15693928Y-12963728D01*
X15679643Y-12935157D01*
X15665357Y-12920871D01*
X15636786Y-12906586D01*
X15808214Y-12778014D02*
X15808214Y-12835157D01*
X15922500Y-12778014D02*
X15922500Y-12835157D01*
X16365357Y-13192300D02*
X16351071Y-13178014D01*
X16322500Y-13135157D01*
X16308214Y-13106586D01*
X16293928Y-13063728D01*
X16279643Y-12992300D01*
X16279643Y-12935157D01*
X16293928Y-12863728D01*
X16308214Y-12820871D01*
X16322500Y-12792300D01*
X16351071Y-12749443D01*
X16365357Y-12735157D01*
X16636786Y-13078014D02*
X16465357Y-13078014D01*
X16551071Y-13078014D02*
X16551071Y-12778014D01*
X16522500Y-12820871D01*
X16493928Y-12849443D01*
X16465357Y-12863728D01*
X16993928Y-13078014D02*
X16993928Y-12778014D01*
X17122500Y-13078014D02*
X17122500Y-12920871D01*
X17108214Y-12892300D01*
X17079643Y-12878014D01*
X17036786Y-12878014D01*
X17008214Y-12892300D01*
X16993928Y-12906586D01*
X17308214Y-13078014D02*
X17279643Y-13063728D01*
X17265357Y-13049443D01*
X17251071Y-13020871D01*
X17251071Y-12935157D01*
X17265357Y-12906586D01*
X17279643Y-12892300D01*
X17308214Y-12878014D01*
X17351071Y-12878014D01*
X17379643Y-12892300D01*
X17393928Y-12906586D01*
X17408214Y-12935157D01*
X17408214Y-13020871D01*
X17393928Y-13049443D01*
X17379643Y-13063728D01*
X17351071Y-13078014D01*
X17308214Y-13078014D01*
X17579643Y-13078014D02*
X17551071Y-13063728D01*
X17536786Y-13035157D01*
X17536786Y-12778014D01*
X17808214Y-13063728D02*
X17779643Y-13078014D01*
X17722500Y-13078014D01*
X17693928Y-13063728D01*
X17679643Y-13035157D01*
X17679643Y-12920871D01*
X17693928Y-12892300D01*
X17722500Y-12878014D01*
X17779643Y-12878014D01*
X17808214Y-12892300D01*
X17822500Y-12920871D01*
X17822500Y-12949443D01*
X17679643Y-12978014D01*
X17922500Y-13192300D02*
X17936786Y-13178014D01*
X17965357Y-13135157D01*
X17979643Y-13106586D01*
X17993928Y-13063728D01*
X18008214Y-12992300D01*
X18008214Y-12935157D01*
X17993928Y-12863728D01*
X17979643Y-12820871D01*
X17965357Y-12792300D01*
X17936786Y-12749443D01*
X17922500Y-12735157D01*
X18465357Y-13192300D02*
X18451071Y-13178014D01*
X18422500Y-13135157D01*
X18408214Y-13106586D01*
X18393928Y-13063728D01*
X18379643Y-12992300D01*
X18379643Y-12935157D01*
X18393928Y-12863728D01*
X18408214Y-12820871D01*
X18422500Y-12792300D01*
X18451071Y-12749443D01*
X18465357Y-12735157D01*
X18579643Y-12878014D02*
X18579643Y-13078014D01*
X18579643Y-12906586D02*
X18593928Y-12892300D01*
X18622500Y-12878014D01*
X18665357Y-12878014D01*
X18693928Y-12892300D01*
X18708214Y-12920871D01*
X18708214Y-13078014D01*
X18893928Y-13078014D02*
X18865357Y-13063728D01*
X18851071Y-13049443D01*
X18836786Y-13020871D01*
X18836786Y-12935157D01*
X18851071Y-12906586D01*
X18865357Y-12892300D01*
X18893928Y-12878014D01*
X18936786Y-12878014D01*
X18965357Y-12892300D01*
X18979643Y-12906586D01*
X18993928Y-12935157D01*
X18993928Y-13020871D01*
X18979643Y-13049443D01*
X18965357Y-13063728D01*
X18936786Y-13078014D01*
X18893928Y-13078014D01*
X19079643Y-12878014D02*
X19193928Y-12878014D01*
X19122500Y-12778014D02*
X19122500Y-13035157D01*
X19136786Y-13063728D01*
X19165357Y-13078014D01*
X19193928Y-13078014D01*
X19522500Y-12878014D02*
X19522500Y-13178014D01*
X19522500Y-12892300D02*
X19551071Y-12878014D01*
X19608214Y-12878014D01*
X19636786Y-12892300D01*
X19651071Y-12906586D01*
X19665357Y-12935157D01*
X19665357Y-13020871D01*
X19651071Y-13049443D01*
X19636786Y-13063728D01*
X19608214Y-13078014D01*
X19551071Y-13078014D01*
X19522500Y-13063728D01*
X19836786Y-13078014D02*
X19808214Y-13063728D01*
X19793928Y-13035157D01*
X19793928Y-12778014D01*
X20079643Y-13078014D02*
X20079643Y-12920871D01*
X20065357Y-12892300D01*
X20036786Y-12878014D01*
X19979643Y-12878014D01*
X19951071Y-12892300D01*
X20079643Y-13063728D02*
X20051071Y-13078014D01*
X19979643Y-13078014D01*
X19951071Y-13063728D01*
X19936786Y-13035157D01*
X19936786Y-13006586D01*
X19951071Y-12978014D01*
X19979643Y-12963728D01*
X20051071Y-12963728D01*
X20079643Y-12949443D01*
X20179643Y-12878014D02*
X20293928Y-12878014D01*
X20222500Y-12778014D02*
X20222500Y-13035157D01*
X20236786Y-13063728D01*
X20265357Y-13078014D01*
X20293928Y-13078014D01*
X20508214Y-13063728D02*
X20479643Y-13078014D01*
X20422500Y-13078014D01*
X20393928Y-13063728D01*
X20379643Y-13035157D01*
X20379643Y-12920871D01*
X20393928Y-12892300D01*
X20422500Y-12878014D01*
X20479643Y-12878014D01*
X20508214Y-12892300D01*
X20522500Y-12920871D01*
X20522500Y-12949443D01*
X20379643Y-12978014D01*
X20779643Y-13078014D02*
X20779643Y-12778014D01*
X20779643Y-13063728D02*
X20751071Y-13078014D01*
X20693928Y-13078014D01*
X20665357Y-13063728D01*
X20651071Y-13049443D01*
X20636786Y-13020871D01*
X20636786Y-12935157D01*
X20651071Y-12906586D01*
X20665357Y-12892300D01*
X20693928Y-12878014D01*
X20751071Y-12878014D01*
X20779643Y-12892300D01*
X20893928Y-13192300D02*
X20908214Y-13178014D01*
X20936786Y-13135157D01*
X20951071Y-13106586D01*
X20965357Y-13063728D01*
X20979643Y-12992300D01*
X20979643Y-12935157D01*
X20965357Y-12863728D01*
X20951071Y-12820871D01*
X20936786Y-12792300D01*
X20908214Y-12749443D01*
X20893928Y-12735157D01*
M02*
