%FSLAX45Y45*%
G04 Gerber Fmt 4.5, Leading zero omitted, Abs format (unit mm)*
G04 Created by KiCad (PCBNEW (5.1.10)-1) date 2022-04-17 04:03:42*
%MOMM*%
%LPD*%
G01*
G04 APERTURE LIST*
%TA.AperFunction,Profile*%
%ADD10C,0.100000*%
%TD*%
%ADD11C,0.200000*%
%ADD12C,0.300000*%
G04 APERTURE END LIST*
D10*
X11430000Y-11112500D02*
G75*
G02*
X11112500Y-10795000I0J317500D01*
G01*
X11430000Y-6032500D02*
X19367500Y-6032500D01*
X19367500Y-11112500D02*
X11430000Y-11112500D01*
X11112500Y-10795000D02*
X11112500Y-6350000D01*
X19367500Y-6032500D02*
G75*
G02*
X19685000Y-6350000I0J-317500D01*
G01*
X11112500Y-6350000D02*
G75*
G02*
X11430000Y-6032500I317500J0D01*
G01*
X19685000Y-10795000D02*
G75*
G02*
X19367500Y-11112500I-317500J0D01*
G01*
X19685000Y-6350000D02*
X19685000Y-10795000D01*
D11*
X18001301Y-9577501D02*
X18041301Y-9617501D01*
X18041301Y-9577501D02*
X18001301Y-9617501D01*
X18001650Y-9317850D02*
X18041650Y-9357850D01*
X18041650Y-9317850D02*
X18001650Y-9357850D01*
X18256650Y-9572850D02*
X18296650Y-9612850D01*
X18296650Y-9572850D02*
X18256650Y-9612850D01*
X18256650Y-9317850D02*
X18296650Y-9357850D01*
X18296650Y-9317850D02*
X18256650Y-9357850D01*
X16873750Y-9120300D02*
G75*
G03*
X16873750Y-9120300I-35000J0D01*
G01*
X16873750Y-9320300D02*
G75*
G03*
X16873750Y-9320300I-35000J0D01*
G01*
X16873750Y-9520300D02*
G75*
G03*
X16873750Y-9520300I-35000J0D01*
G01*
X16873750Y-9720300D02*
G75*
G03*
X16873750Y-9720300I-35000J0D01*
G01*
X16873750Y-9920300D02*
G75*
G03*
X16873750Y-9920300I-35000J0D01*
G01*
X16873750Y-10120300D02*
G75*
G03*
X16873750Y-10120300I-35000J0D01*
G01*
X16873750Y-10320300D02*
G75*
G03*
X16873750Y-10320300I-35000J0D01*
G01*
X16873750Y-10520300D02*
G75*
G03*
X16873750Y-10520300I-35000J0D01*
G01*
X16873750Y-10720300D02*
G75*
G03*
X16873750Y-10720300I-35000J0D01*
G01*
X16873750Y-10920300D02*
G75*
G03*
X16873750Y-10920300I-35000J0D01*
G01*
X19073750Y-9120300D02*
G75*
G03*
X19073750Y-9120300I-35000J0D01*
G01*
X19073750Y-9320300D02*
G75*
G03*
X19073750Y-9320300I-35000J0D01*
G01*
X19073750Y-9520300D02*
G75*
G03*
X19073750Y-9520300I-35000J0D01*
G01*
X19073750Y-9720300D02*
G75*
G03*
X19073750Y-9720300I-35000J0D01*
G01*
X19073750Y-9920300D02*
G75*
G03*
X19073750Y-9920300I-35000J0D01*
G01*
X19073750Y-10120300D02*
G75*
G03*
X19073750Y-10120300I-35000J0D01*
G01*
X19073750Y-10320300D02*
G75*
G03*
X19073750Y-10320300I-35000J0D01*
G01*
X19073750Y-10520300D02*
G75*
G03*
X19073750Y-10520300I-35000J0D01*
G01*
X19073750Y-10720300D02*
G75*
G03*
X19073750Y-10720300I-35000J0D01*
G01*
X19073750Y-10920300D02*
G75*
G03*
X19073750Y-10920300I-35000J0D01*
G01*
X12506680Y-10142540D02*
X12506680Y-10217540D01*
X12469180Y-10180040D02*
X12544180Y-10180040D01*
X12506680Y-10342540D02*
X12506680Y-10417540D01*
X12469180Y-10380040D02*
X12544180Y-10380040D01*
X12506680Y-10542540D02*
X12506680Y-10617540D01*
X12469180Y-10580040D02*
X12544180Y-10580040D01*
X12506680Y-10742540D02*
X12506680Y-10817540D01*
X12469180Y-10780040D02*
X12544180Y-10780040D01*
X12706680Y-10142540D02*
X12706680Y-10217540D01*
X12669180Y-10180040D02*
X12744180Y-10180040D01*
X12706680Y-10342540D02*
X12706680Y-10417540D01*
X12669180Y-10380040D02*
X12744180Y-10380040D01*
X12706680Y-10542540D02*
X12706680Y-10617540D01*
X12669180Y-10580040D02*
X12744180Y-10580040D01*
X12706680Y-10742540D02*
X12706680Y-10817540D01*
X12669180Y-10780040D02*
X12744180Y-10780040D01*
X12906680Y-10142540D02*
X12906680Y-10217540D01*
X12869180Y-10180040D02*
X12944180Y-10180040D01*
X12906680Y-10342540D02*
X12906680Y-10417540D01*
X12869180Y-10380040D02*
X12944180Y-10380040D01*
X12906680Y-10542540D02*
X12906680Y-10617540D01*
X12869180Y-10580040D02*
X12944180Y-10580040D01*
X12906680Y-10742540D02*
X12906680Y-10817540D01*
X12869180Y-10780040D02*
X12944180Y-10780040D01*
X13106680Y-10142540D02*
X13106680Y-10217540D01*
X13069180Y-10180040D02*
X13144180Y-10180040D01*
X13106680Y-10342540D02*
X13106680Y-10417540D01*
X13069180Y-10380040D02*
X13144180Y-10380040D01*
X13106680Y-10542540D02*
X13106680Y-10617540D01*
X13069180Y-10580040D02*
X13144180Y-10580040D01*
X13106680Y-10742540D02*
X13106680Y-10817540D01*
X13069180Y-10780040D02*
X13144180Y-10780040D01*
X12193541Y-9691641D02*
X12193541Y-9637759D01*
X12139659Y-9637759D01*
X12139659Y-9691641D01*
X12193541Y-9691641D01*
X12447541Y-9691641D02*
X12447541Y-9637759D01*
X12393659Y-9637759D01*
X12393659Y-9691641D01*
X12447541Y-9691641D01*
X12701541Y-9691641D02*
X12701541Y-9637759D01*
X12647659Y-9637759D01*
X12647659Y-9691641D01*
X12701541Y-9691641D01*
X12955541Y-9691641D02*
X12955541Y-9637759D01*
X12901659Y-9637759D01*
X12901659Y-9691641D01*
X12955541Y-9691641D01*
X13210541Y-9692641D02*
X13210541Y-9638759D01*
X13156659Y-9638759D01*
X13156659Y-9692641D01*
X13210541Y-9692641D01*
X14028691Y-10421891D02*
X14028691Y-10368009D01*
X13974809Y-10368009D01*
X13974809Y-10421891D01*
X14028691Y-10421891D01*
X14282691Y-10421891D02*
X14282691Y-10368009D01*
X14228809Y-10368009D01*
X14228809Y-10421891D01*
X14282691Y-10421891D01*
X14536691Y-8135891D02*
X14536691Y-8082009D01*
X14482809Y-8082009D01*
X14482809Y-8135891D01*
X14536691Y-8135891D01*
X14536691Y-10421891D02*
X14536691Y-10368009D01*
X14482809Y-10368009D01*
X14482809Y-10421891D01*
X14536691Y-10421891D01*
X14790691Y-8135891D02*
X14790691Y-8082009D01*
X14736809Y-8082009D01*
X14736809Y-8135891D01*
X14790691Y-8135891D01*
X14790691Y-10421891D02*
X14790691Y-10368009D01*
X14736809Y-10368009D01*
X14736809Y-10421891D01*
X14790691Y-10421891D01*
X15044691Y-8135891D02*
X15044691Y-8082009D01*
X14990809Y-8082009D01*
X14990809Y-8135891D01*
X15044691Y-8135891D01*
X15044691Y-10421891D02*
X15044691Y-10368009D01*
X14990809Y-10368009D01*
X14990809Y-10421891D01*
X15044691Y-10421891D01*
X15298691Y-8135891D02*
X15298691Y-8082009D01*
X15244809Y-8082009D01*
X15244809Y-8135891D01*
X15298691Y-8135891D01*
X15298691Y-10421891D02*
X15298691Y-10368009D01*
X15244809Y-10368009D01*
X15244809Y-10421891D01*
X15298691Y-10421891D01*
X15552691Y-10421891D02*
X15552691Y-10368009D01*
X15498809Y-10368009D01*
X15498809Y-10421891D01*
X15552691Y-10421891D01*
X15806691Y-10421891D02*
X15806691Y-10368009D01*
X15752809Y-10368009D01*
X15752809Y-10421891D01*
X15806691Y-10421891D01*
X14005150Y-10787850D02*
X14055150Y-10737850D01*
X14005150Y-10687850D01*
X13955150Y-10737850D01*
X14005150Y-10787850D01*
X14259150Y-10787850D02*
X14309150Y-10737850D01*
X14259150Y-10687850D01*
X14209150Y-10737850D01*
X14259150Y-10787850D01*
X14513150Y-10787850D02*
X14563150Y-10737850D01*
X14513150Y-10687850D01*
X14463150Y-10737850D01*
X14513150Y-10787850D01*
X14767150Y-10787850D02*
X14817150Y-10737850D01*
X14767150Y-10687850D01*
X14717150Y-10737850D01*
X14767150Y-10787850D01*
X15021150Y-10787850D02*
X15071150Y-10737850D01*
X15021150Y-10687850D01*
X14971150Y-10737850D01*
X15021150Y-10787850D01*
X15275150Y-10787850D02*
X15325150Y-10737850D01*
X15275150Y-10687850D01*
X15225150Y-10737850D01*
X15275150Y-10787850D01*
X15529150Y-10787850D02*
X15579150Y-10737850D01*
X15529150Y-10687850D01*
X15479150Y-10737850D01*
X15529150Y-10787850D01*
X15783150Y-10787850D02*
X15833150Y-10737850D01*
X15783150Y-10687850D01*
X15733150Y-10737850D01*
X15783150Y-10787850D01*
X16497300Y-8654250D02*
X16547300Y-8604250D01*
X16497300Y-8554250D01*
X16447300Y-8604250D01*
X16497300Y-8654250D01*
X16497300Y-8908250D02*
X16547300Y-8858250D01*
X16497300Y-8808250D01*
X16447300Y-8858250D01*
X16497300Y-8908250D01*
X16497300Y-9162250D02*
X16547300Y-9112250D01*
X16497300Y-9062250D01*
X16447300Y-9112250D01*
X16497300Y-9162250D01*
X16497300Y-9416250D02*
X16547300Y-9366250D01*
X16497300Y-9316250D01*
X16447300Y-9366250D01*
X16497300Y-9416250D01*
X16497300Y-9670250D02*
X16547300Y-9620250D01*
X16497300Y-9570250D01*
X16447300Y-9620250D01*
X16497300Y-9670250D01*
X16497300Y-9924250D02*
X16547300Y-9874250D01*
X16497300Y-9824250D01*
X16447300Y-9874250D01*
X16497300Y-9924250D01*
X16497300Y-10178250D02*
X16547300Y-10128250D01*
X16497300Y-10078250D01*
X16447300Y-10128250D01*
X16497300Y-10178250D01*
X16497300Y-10432250D02*
X16547300Y-10382250D01*
X16497300Y-10332250D01*
X16447300Y-10382250D01*
X16497300Y-10432250D01*
X16497300Y-10686250D02*
X16547300Y-10636250D01*
X16497300Y-10586250D01*
X16447300Y-10636250D01*
X16497300Y-10686250D01*
X16497300Y-10940250D02*
X16547300Y-10890250D01*
X16497300Y-10840250D01*
X16447300Y-10890250D01*
X16497300Y-10940250D01*
X19456400Y-8152600D02*
X19506400Y-8102600D01*
X19456400Y-8052600D01*
X19406400Y-8102600D01*
X19456400Y-8152600D01*
X19456400Y-8406600D02*
X19506400Y-8356600D01*
X19456400Y-8306600D01*
X19406400Y-8356600D01*
X19456400Y-8406600D01*
X19456400Y-8660600D02*
X19506400Y-8610600D01*
X19456400Y-8560600D01*
X19406400Y-8610600D01*
X19456400Y-8660600D01*
X19456400Y-8914600D02*
X19506400Y-8864600D01*
X19456400Y-8814600D01*
X19406400Y-8864600D01*
X19456400Y-8914600D01*
X19456400Y-9168600D02*
X19506400Y-9118600D01*
X19456400Y-9068600D01*
X19406400Y-9118600D01*
X19456400Y-9168600D01*
X19456400Y-9422600D02*
X19506400Y-9372600D01*
X19456400Y-9322600D01*
X19406400Y-9372600D01*
X19456400Y-9422600D01*
X19456400Y-9676600D02*
X19506400Y-9626600D01*
X19456400Y-9576600D01*
X19406400Y-9626600D01*
X19456400Y-9676600D01*
X19456400Y-9930600D02*
X19506400Y-9880600D01*
X19456400Y-9830600D01*
X19406400Y-9880600D01*
X19456400Y-9930600D01*
X19456400Y-10184600D02*
X19506400Y-10134600D01*
X19456400Y-10084600D01*
X19406400Y-10134600D01*
X19456400Y-10184600D01*
X19456400Y-10438600D02*
X19506400Y-10388600D01*
X19456400Y-10338600D01*
X19406400Y-10388600D01*
X19456400Y-10438600D01*
X11711680Y-10165040D02*
X11821680Y-10275040D01*
X11821680Y-10165040D02*
X11711680Y-10275040D01*
X11821680Y-10220040D02*
G75*
G03*
X11821680Y-10220040I-55000J0D01*
G01*
X11711680Y-10419040D02*
X11821680Y-10529040D01*
X11821680Y-10419040D02*
X11711680Y-10529040D01*
X11821680Y-10474040D02*
G75*
G03*
X11821680Y-10474040I-55000J0D01*
G01*
X11711680Y-10673040D02*
X11821680Y-10783040D01*
X11821680Y-10673040D02*
X11711680Y-10783040D01*
X11821680Y-10728040D02*
G75*
G03*
X11821680Y-10728040I-55000J0D01*
G01*
X13140300Y-6212450D02*
X13250300Y-6322450D01*
X13250300Y-6212450D02*
X13140300Y-6322450D01*
X13250300Y-6267450D02*
G75*
G03*
X13250300Y-6267450I-55000J0D01*
G01*
X13140300Y-7736450D02*
X13250300Y-7846450D01*
X13250300Y-7736450D02*
X13140300Y-7846450D01*
X13250300Y-7791450D02*
G75*
G03*
X13250300Y-7791450I-55000J0D01*
G01*
X13394300Y-6212450D02*
X13504300Y-6322450D01*
X13504300Y-6212450D02*
X13394300Y-6322450D01*
X13504300Y-6267450D02*
G75*
G03*
X13504300Y-6267450I-55000J0D01*
G01*
X13394300Y-7736450D02*
X13504300Y-7846450D01*
X13504300Y-7736450D02*
X13394300Y-7846450D01*
X13504300Y-7791450D02*
G75*
G03*
X13504300Y-7791450I-55000J0D01*
G01*
X13648300Y-6212450D02*
X13758300Y-6322450D01*
X13758300Y-6212450D02*
X13648300Y-6322450D01*
X13758300Y-6267450D02*
G75*
G03*
X13758300Y-6267450I-55000J0D01*
G01*
X13648300Y-7736450D02*
X13758300Y-7846450D01*
X13758300Y-7736450D02*
X13648300Y-7846450D01*
X13758300Y-7791450D02*
G75*
G03*
X13758300Y-7791450I-55000J0D01*
G01*
X13902300Y-6212450D02*
X14012300Y-6322450D01*
X14012300Y-6212450D02*
X13902300Y-6322450D01*
X14012300Y-6267450D02*
G75*
G03*
X14012300Y-6267450I-55000J0D01*
G01*
X13902300Y-7736450D02*
X14012300Y-7846450D01*
X14012300Y-7736450D02*
X13902300Y-7846450D01*
X14012300Y-7791450D02*
G75*
G03*
X14012300Y-7791450I-55000J0D01*
G01*
X14156300Y-6212450D02*
X14266300Y-6322450D01*
X14266300Y-6212450D02*
X14156300Y-6322450D01*
X14266300Y-6267450D02*
G75*
G03*
X14266300Y-6267450I-55000J0D01*
G01*
X14156300Y-7736450D02*
X14266300Y-7846450D01*
X14266300Y-7736450D02*
X14156300Y-7846450D01*
X14266300Y-7791450D02*
G75*
G03*
X14266300Y-7791450I-55000J0D01*
G01*
X14410300Y-6212450D02*
X14520300Y-6322450D01*
X14520300Y-6212450D02*
X14410300Y-6322450D01*
X14520300Y-6267450D02*
G75*
G03*
X14520300Y-6267450I-55000J0D01*
G01*
X14410300Y-7736450D02*
X14520300Y-7846450D01*
X14520300Y-7736450D02*
X14410300Y-7846450D01*
X14520300Y-7791450D02*
G75*
G03*
X14520300Y-7791450I-55000J0D01*
G01*
X14664300Y-6212450D02*
X14774300Y-6322450D01*
X14774300Y-6212450D02*
X14664300Y-6322450D01*
X14774300Y-6267450D02*
G75*
G03*
X14774300Y-6267450I-55000J0D01*
G01*
X14664300Y-7736450D02*
X14774300Y-7846450D01*
X14774300Y-7736450D02*
X14664300Y-7846450D01*
X14774300Y-7791450D02*
G75*
G03*
X14774300Y-7791450I-55000J0D01*
G01*
X14918300Y-6212450D02*
X15028300Y-6322450D01*
X15028300Y-6212450D02*
X14918300Y-6322450D01*
X15028300Y-6267450D02*
G75*
G03*
X15028300Y-6267450I-55000J0D01*
G01*
X14918300Y-7736450D02*
X15028300Y-7846450D01*
X15028300Y-7736450D02*
X14918300Y-7846450D01*
X15028300Y-7791450D02*
G75*
G03*
X15028300Y-7791450I-55000J0D01*
G01*
X15172300Y-6212450D02*
X15282300Y-6322450D01*
X15282300Y-6212450D02*
X15172300Y-6322450D01*
X15282300Y-6267450D02*
G75*
G03*
X15282300Y-6267450I-55000J0D01*
G01*
X15172300Y-7736450D02*
X15282300Y-7846450D01*
X15282300Y-7736450D02*
X15172300Y-7846450D01*
X15282300Y-7791450D02*
G75*
G03*
X15282300Y-7791450I-55000J0D01*
G01*
X15426300Y-6212450D02*
X15536300Y-6322450D01*
X15536300Y-6212450D02*
X15426300Y-6322450D01*
X15536300Y-6267450D02*
G75*
G03*
X15536300Y-6267450I-55000J0D01*
G01*
X15426300Y-7736450D02*
X15536300Y-7846450D01*
X15536300Y-7736450D02*
X15426300Y-7846450D01*
X15536300Y-7791450D02*
G75*
G03*
X15536300Y-7791450I-55000J0D01*
G01*
X15680300Y-6212450D02*
X15790300Y-6322450D01*
X15790300Y-6212450D02*
X15680300Y-6322450D01*
X15790300Y-6267450D02*
G75*
G03*
X15790300Y-6267450I-55000J0D01*
G01*
X15680300Y-7736450D02*
X15790300Y-7846450D01*
X15790300Y-7736450D02*
X15680300Y-7846450D01*
X15790300Y-7791450D02*
G75*
G03*
X15790300Y-7791450I-55000J0D01*
G01*
X15934300Y-6212450D02*
X16044300Y-6322450D01*
X16044300Y-6212450D02*
X15934300Y-6322450D01*
X16044300Y-6267450D02*
G75*
G03*
X16044300Y-6267450I-55000J0D01*
G01*
X15934300Y-7736450D02*
X16044300Y-7846450D01*
X16044300Y-7736450D02*
X15934300Y-7846450D01*
X16044300Y-7791450D02*
G75*
G03*
X16044300Y-7791450I-55000J0D01*
G01*
X16188300Y-6212450D02*
X16298300Y-6322450D01*
X16298300Y-6212450D02*
X16188300Y-6322450D01*
X16298300Y-6267450D02*
G75*
G03*
X16298300Y-6267450I-55000J0D01*
G01*
X16188300Y-7736450D02*
X16298300Y-7846450D01*
X16298300Y-7736450D02*
X16188300Y-7846450D01*
X16298300Y-7791450D02*
G75*
G03*
X16298300Y-7791450I-55000J0D01*
G01*
X16442300Y-6212450D02*
X16552300Y-6322450D01*
X16552300Y-6212450D02*
X16442300Y-6322450D01*
X16552300Y-6267450D02*
G75*
G03*
X16552300Y-6267450I-55000J0D01*
G01*
X16442300Y-7736450D02*
X16552300Y-7846450D01*
X16552300Y-7736450D02*
X16442300Y-7846450D01*
X16552300Y-7791450D02*
G75*
G03*
X16552300Y-7791450I-55000J0D01*
G01*
X16696300Y-6212450D02*
X16806300Y-6322450D01*
X16806300Y-6212450D02*
X16696300Y-6322450D01*
X16806300Y-6267450D02*
G75*
G03*
X16806300Y-6267450I-55000J0D01*
G01*
X16696300Y-7736450D02*
X16806300Y-7846450D01*
X16806300Y-7736450D02*
X16696300Y-7846450D01*
X16806300Y-7791450D02*
G75*
G03*
X16806300Y-7791450I-55000J0D01*
G01*
X16950300Y-6212450D02*
X17060300Y-6322450D01*
X17060300Y-6212450D02*
X16950300Y-6322450D01*
X17060300Y-6267450D02*
G75*
G03*
X17060300Y-6267450I-55000J0D01*
G01*
X16950300Y-7736450D02*
X17060300Y-7846450D01*
X17060300Y-7736450D02*
X16950300Y-7846450D01*
X17060300Y-7791450D02*
G75*
G03*
X17060300Y-7791450I-55000J0D01*
G01*
X17204300Y-6212450D02*
X17314300Y-6322450D01*
X17314300Y-6212450D02*
X17204300Y-6322450D01*
X17314300Y-6267450D02*
G75*
G03*
X17314300Y-6267450I-55000J0D01*
G01*
X17204300Y-7736450D02*
X17314300Y-7846450D01*
X17314300Y-7736450D02*
X17204300Y-7846450D01*
X17314300Y-7791450D02*
G75*
G03*
X17314300Y-7791450I-55000J0D01*
G01*
X17458300Y-6212450D02*
X17568300Y-6322450D01*
X17568300Y-6212450D02*
X17458300Y-6322450D01*
X17568300Y-6267450D02*
G75*
G03*
X17568300Y-6267450I-55000J0D01*
G01*
X17458300Y-7736450D02*
X17568300Y-7846450D01*
X17568300Y-7736450D02*
X17458300Y-7846450D01*
X17568300Y-7791450D02*
G75*
G03*
X17568300Y-7791450I-55000J0D01*
G01*
X17712300Y-6212450D02*
X17822300Y-6322450D01*
X17822300Y-6212450D02*
X17712300Y-6322450D01*
X17822300Y-6267450D02*
G75*
G03*
X17822300Y-6267450I-55000J0D01*
G01*
X17712300Y-7736450D02*
X17822300Y-7846450D01*
X17822300Y-7736450D02*
X17712300Y-7846450D01*
X17822300Y-7791450D02*
G75*
G03*
X17822300Y-7791450I-55000J0D01*
G01*
X17966300Y-6212450D02*
X18076300Y-6322450D01*
X18076300Y-6212450D02*
X17966300Y-6322450D01*
X18076300Y-6267450D02*
G75*
G03*
X18076300Y-6267450I-55000J0D01*
G01*
X17966300Y-7736450D02*
X18076300Y-7846450D01*
X18076300Y-7736450D02*
X17966300Y-7846450D01*
X18076300Y-7791450D02*
G75*
G03*
X18076300Y-7791450I-55000J0D01*
G01*
X18220300Y-6212450D02*
X18330300Y-6322450D01*
X18330300Y-6212450D02*
X18220300Y-6322450D01*
X18330300Y-6267450D02*
G75*
G03*
X18330300Y-6267450I-55000J0D01*
G01*
X18220300Y-7736450D02*
X18330300Y-7846450D01*
X18330300Y-7736450D02*
X18220300Y-7846450D01*
X18330300Y-7791450D02*
G75*
G03*
X18330300Y-7791450I-55000J0D01*
G01*
X18474300Y-6212450D02*
X18584300Y-6322450D01*
X18584300Y-6212450D02*
X18474300Y-6322450D01*
X18584300Y-6267450D02*
G75*
G03*
X18584300Y-6267450I-55000J0D01*
G01*
X18474300Y-7736450D02*
X18584300Y-7846450D01*
X18584300Y-7736450D02*
X18474300Y-7846450D01*
X18584300Y-7791450D02*
G75*
G03*
X18584300Y-7791450I-55000J0D01*
G01*
X18728300Y-6212450D02*
X18838300Y-6322450D01*
X18838300Y-6212450D02*
X18728300Y-6322450D01*
X18838300Y-6267450D02*
G75*
G03*
X18838300Y-6267450I-55000J0D01*
G01*
X18728300Y-7736450D02*
X18838300Y-7846450D01*
X18838300Y-7736450D02*
X18728300Y-7846450D01*
X18838300Y-7791450D02*
G75*
G03*
X18838300Y-7791450I-55000J0D01*
G01*
X18982300Y-6212450D02*
X19092300Y-6322450D01*
X19092300Y-6212450D02*
X18982300Y-6322450D01*
X19092300Y-6267450D02*
G75*
G03*
X19092300Y-6267450I-55000J0D01*
G01*
X18982300Y-7736450D02*
X19092300Y-7846450D01*
X19092300Y-7736450D02*
X18982300Y-7846450D01*
X19092300Y-7791450D02*
G75*
G03*
X19092300Y-7791450I-55000J0D01*
G01*
X11804650Y-7300850D02*
X12074650Y-7570850D01*
X12074650Y-7300850D02*
X11804650Y-7570850D01*
X11939650Y-7300850D02*
X11939650Y-7570850D01*
X11804650Y-7435850D02*
X12074650Y-7435850D01*
X11823700Y-6462650D02*
X12093700Y-6732650D01*
X12093700Y-6462650D02*
X11823700Y-6732650D01*
X11958700Y-6462650D02*
X11958700Y-6732650D01*
X11823700Y-6597650D02*
X12093700Y-6597650D01*
X12304650Y-7300850D02*
X12574650Y-7570850D01*
X12574650Y-7300850D02*
X12304650Y-7570850D01*
X12439650Y-7300850D02*
X12439650Y-7570850D01*
X12304650Y-7435850D02*
X12574650Y-7435850D01*
X12323700Y-6462650D02*
X12593700Y-6732650D01*
X12593700Y-6462650D02*
X12323700Y-6732650D01*
X12458700Y-6462650D02*
X12458700Y-6732650D01*
X12323700Y-6597650D02*
X12593700Y-6597650D01*
X11280000Y-6200000D02*
X11580000Y-6500000D01*
X11580000Y-6200000D02*
X11280000Y-6500000D01*
X11536067Y-6456067D02*
X11536067Y-6243933D01*
X11323933Y-6243933D01*
X11323933Y-6456067D01*
X11536067Y-6456067D01*
X11280000Y-10645000D02*
X11580000Y-10945000D01*
X11580000Y-10645000D02*
X11280000Y-10945000D01*
X11536067Y-10901067D02*
X11536067Y-10688933D01*
X11323933Y-10688933D01*
X11323933Y-10901067D01*
X11536067Y-10901067D01*
X19217500Y-6200000D02*
X19517500Y-6500000D01*
X19517500Y-6200000D02*
X19217500Y-6500000D01*
X19473567Y-6456067D02*
X19473567Y-6243933D01*
X19261433Y-6243933D01*
X19261433Y-6456067D01*
X19473567Y-6456067D01*
X19217500Y-10645000D02*
X19517500Y-10945000D01*
X19517500Y-10645000D02*
X19217500Y-10945000D01*
X19473567Y-10901067D02*
X19473567Y-10688933D01*
X19261433Y-10688933D01*
X19261433Y-10901067D01*
X19473567Y-10901067D01*
D12*
X11393928Y-11583214D02*
X11393928Y-11283214D01*
X11465357Y-11283214D01*
X11508214Y-11297500D01*
X11536786Y-11326071D01*
X11551071Y-11354643D01*
X11565357Y-11411786D01*
X11565357Y-11454643D01*
X11551071Y-11511786D01*
X11536786Y-11540357D01*
X11508214Y-11568928D01*
X11465357Y-11583214D01*
X11393928Y-11583214D01*
X11693928Y-11583214D02*
X11693928Y-11383214D01*
X11693928Y-11440357D02*
X11708214Y-11411786D01*
X11722500Y-11397500D01*
X11751071Y-11383214D01*
X11779643Y-11383214D01*
X11879643Y-11583214D02*
X11879643Y-11383214D01*
X11879643Y-11283214D02*
X11865357Y-11297500D01*
X11879643Y-11311786D01*
X11893928Y-11297500D01*
X11879643Y-11283214D01*
X11879643Y-11311786D01*
X12065357Y-11583214D02*
X12036786Y-11568928D01*
X12022500Y-11540357D01*
X12022500Y-11283214D01*
X12222500Y-11583214D02*
X12193928Y-11568928D01*
X12179643Y-11540357D01*
X12179643Y-11283214D01*
X12565357Y-11583214D02*
X12565357Y-11283214D01*
X12665357Y-11497500D01*
X12765357Y-11283214D01*
X12765357Y-11583214D01*
X13036786Y-11583214D02*
X13036786Y-11426071D01*
X13022500Y-11397500D01*
X12993928Y-11383214D01*
X12936786Y-11383214D01*
X12908214Y-11397500D01*
X13036786Y-11568928D02*
X13008214Y-11583214D01*
X12936786Y-11583214D01*
X12908214Y-11568928D01*
X12893928Y-11540357D01*
X12893928Y-11511786D01*
X12908214Y-11483214D01*
X12936786Y-11468928D01*
X13008214Y-11468928D01*
X13036786Y-11454643D01*
X13179643Y-11383214D02*
X13179643Y-11683214D01*
X13179643Y-11397500D02*
X13208214Y-11383214D01*
X13265357Y-11383214D01*
X13293928Y-11397500D01*
X13308214Y-11411786D01*
X13322500Y-11440357D01*
X13322500Y-11526071D01*
X13308214Y-11554643D01*
X13293928Y-11568928D01*
X13265357Y-11583214D01*
X13208214Y-11583214D01*
X13179643Y-11568928D01*
X13451071Y-11554643D02*
X13465357Y-11568928D01*
X13451071Y-11583214D01*
X13436786Y-11568928D01*
X13451071Y-11554643D01*
X13451071Y-11583214D01*
X13451071Y-11397500D02*
X13465357Y-11411786D01*
X13451071Y-11426071D01*
X13436786Y-11411786D01*
X13451071Y-11397500D01*
X13451071Y-11426071D01*
X11067500Y-12057500D02*
X11107500Y-12097500D01*
X11107500Y-12057500D02*
X11067500Y-12097500D01*
X11451071Y-11913214D02*
X11479643Y-11913214D01*
X11508214Y-11927500D01*
X11522500Y-11941786D01*
X11536786Y-11970357D01*
X11551071Y-12027500D01*
X11551071Y-12098928D01*
X11536786Y-12156071D01*
X11522500Y-12184643D01*
X11508214Y-12198928D01*
X11479643Y-12213214D01*
X11451071Y-12213214D01*
X11422500Y-12198928D01*
X11408214Y-12184643D01*
X11393928Y-12156071D01*
X11379643Y-12098928D01*
X11379643Y-12027500D01*
X11393928Y-11970357D01*
X11408214Y-11941786D01*
X11422500Y-11927500D01*
X11451071Y-11913214D01*
X11679643Y-12184643D02*
X11693928Y-12198928D01*
X11679643Y-12213214D01*
X11665357Y-12198928D01*
X11679643Y-12184643D01*
X11679643Y-12213214D01*
X11951071Y-12013214D02*
X11951071Y-12213214D01*
X11879643Y-11898928D02*
X11808214Y-12113214D01*
X11993928Y-12113214D01*
X12165357Y-11913214D02*
X12193928Y-11913214D01*
X12222500Y-11927500D01*
X12236786Y-11941786D01*
X12251071Y-11970357D01*
X12265357Y-12027500D01*
X12265357Y-12098928D01*
X12251071Y-12156071D01*
X12236786Y-12184643D01*
X12222500Y-12198928D01*
X12193928Y-12213214D01*
X12165357Y-12213214D01*
X12136786Y-12198928D01*
X12122500Y-12184643D01*
X12108214Y-12156071D01*
X12093928Y-12098928D01*
X12093928Y-12027500D01*
X12108214Y-11970357D01*
X12122500Y-11941786D01*
X12136786Y-11927500D01*
X12165357Y-11913214D01*
X12451071Y-11913214D02*
X12479643Y-11913214D01*
X12508214Y-11927500D01*
X12522500Y-11941786D01*
X12536786Y-11970357D01*
X12551071Y-12027500D01*
X12551071Y-12098928D01*
X12536786Y-12156071D01*
X12522500Y-12184643D01*
X12508214Y-12198928D01*
X12479643Y-12213214D01*
X12451071Y-12213214D01*
X12422500Y-12198928D01*
X12408214Y-12184643D01*
X12393928Y-12156071D01*
X12379643Y-12098928D01*
X12379643Y-12027500D01*
X12393928Y-11970357D01*
X12408214Y-11941786D01*
X12422500Y-11927500D01*
X12451071Y-11913214D01*
X12679643Y-12213214D02*
X12679643Y-12013214D01*
X12679643Y-12041786D02*
X12693928Y-12027500D01*
X12722500Y-12013214D01*
X12765357Y-12013214D01*
X12793928Y-12027500D01*
X12808214Y-12056071D01*
X12808214Y-12213214D01*
X12808214Y-12056071D02*
X12822500Y-12027500D01*
X12851071Y-12013214D01*
X12893928Y-12013214D01*
X12922500Y-12027500D01*
X12936786Y-12056071D01*
X12936786Y-12213214D01*
X13079643Y-12213214D02*
X13079643Y-12013214D01*
X13079643Y-12041786D02*
X13093928Y-12027500D01*
X13122500Y-12013214D01*
X13165357Y-12013214D01*
X13193928Y-12027500D01*
X13208214Y-12056071D01*
X13208214Y-12213214D01*
X13208214Y-12056071D02*
X13222500Y-12027500D01*
X13251071Y-12013214D01*
X13293928Y-12013214D01*
X13322500Y-12027500D01*
X13336786Y-12056071D01*
X13336786Y-12213214D01*
X13922500Y-11898928D02*
X13665357Y-12284643D01*
X14308214Y-11913214D02*
X14336786Y-11913214D01*
X14365357Y-11927500D01*
X14379643Y-11941786D01*
X14393928Y-11970357D01*
X14408214Y-12027500D01*
X14408214Y-12098928D01*
X14393928Y-12156071D01*
X14379643Y-12184643D01*
X14365357Y-12198928D01*
X14336786Y-12213214D01*
X14308214Y-12213214D01*
X14279643Y-12198928D01*
X14265357Y-12184643D01*
X14251071Y-12156071D01*
X14236786Y-12098928D01*
X14236786Y-12027500D01*
X14251071Y-11970357D01*
X14265357Y-11941786D01*
X14279643Y-11927500D01*
X14308214Y-11913214D01*
X14536786Y-12184643D02*
X14551071Y-12198928D01*
X14536786Y-12213214D01*
X14522500Y-12198928D01*
X14536786Y-12184643D01*
X14536786Y-12213214D01*
X14736786Y-11913214D02*
X14765357Y-11913214D01*
X14793928Y-11927500D01*
X14808214Y-11941786D01*
X14822500Y-11970357D01*
X14836786Y-12027500D01*
X14836786Y-12098928D01*
X14822500Y-12156071D01*
X14808214Y-12184643D01*
X14793928Y-12198928D01*
X14765357Y-12213214D01*
X14736786Y-12213214D01*
X14708214Y-12198928D01*
X14693928Y-12184643D01*
X14679643Y-12156071D01*
X14665357Y-12098928D01*
X14665357Y-12027500D01*
X14679643Y-11970357D01*
X14693928Y-11941786D01*
X14708214Y-11927500D01*
X14736786Y-11913214D01*
X15122500Y-12213214D02*
X14951071Y-12213214D01*
X15036786Y-12213214D02*
X15036786Y-11913214D01*
X15008214Y-11956071D01*
X14979643Y-11984643D01*
X14951071Y-11998928D01*
X15393928Y-11913214D02*
X15251071Y-11913214D01*
X15236786Y-12056071D01*
X15251071Y-12041786D01*
X15279643Y-12027500D01*
X15351071Y-12027500D01*
X15379643Y-12041786D01*
X15393928Y-12056071D01*
X15408214Y-12084643D01*
X15408214Y-12156071D01*
X15393928Y-12184643D01*
X15379643Y-12198928D01*
X15351071Y-12213214D01*
X15279643Y-12213214D01*
X15251071Y-12198928D01*
X15236786Y-12184643D01*
X15508214Y-11913214D02*
X15708214Y-11913214D01*
X15579643Y-12213214D01*
X15808214Y-11913214D02*
X15808214Y-11970357D01*
X15922500Y-11913214D02*
X15922500Y-11970357D01*
X16365357Y-12327500D02*
X16351071Y-12313214D01*
X16322500Y-12270357D01*
X16308214Y-12241786D01*
X16293928Y-12198928D01*
X16279643Y-12127500D01*
X16279643Y-12070357D01*
X16293928Y-11998928D01*
X16308214Y-11956071D01*
X16322500Y-11927500D01*
X16351071Y-11884643D01*
X16365357Y-11870357D01*
X16608214Y-12013214D02*
X16608214Y-12213214D01*
X16536786Y-11898928D02*
X16465357Y-12113214D01*
X16651071Y-12113214D01*
X16993928Y-12213214D02*
X16993928Y-11913214D01*
X17122500Y-12213214D02*
X17122500Y-12056071D01*
X17108214Y-12027500D01*
X17079643Y-12013214D01*
X17036786Y-12013214D01*
X17008214Y-12027500D01*
X16993928Y-12041786D01*
X17308214Y-12213214D02*
X17279643Y-12198928D01*
X17265357Y-12184643D01*
X17251071Y-12156071D01*
X17251071Y-12070357D01*
X17265357Y-12041786D01*
X17279643Y-12027500D01*
X17308214Y-12013214D01*
X17351071Y-12013214D01*
X17379643Y-12027500D01*
X17393928Y-12041786D01*
X17408214Y-12070357D01*
X17408214Y-12156071D01*
X17393928Y-12184643D01*
X17379643Y-12198928D01*
X17351071Y-12213214D01*
X17308214Y-12213214D01*
X17579643Y-12213214D02*
X17551071Y-12198928D01*
X17536786Y-12170357D01*
X17536786Y-11913214D01*
X17808214Y-12198928D02*
X17779643Y-12213214D01*
X17722500Y-12213214D01*
X17693928Y-12198928D01*
X17679643Y-12170357D01*
X17679643Y-12056071D01*
X17693928Y-12027500D01*
X17722500Y-12013214D01*
X17779643Y-12013214D01*
X17808214Y-12027500D01*
X17822500Y-12056071D01*
X17822500Y-12084643D01*
X17679643Y-12113214D01*
X17936786Y-12198928D02*
X17965357Y-12213214D01*
X18022500Y-12213214D01*
X18051071Y-12198928D01*
X18065357Y-12170357D01*
X18065357Y-12156071D01*
X18051071Y-12127500D01*
X18022500Y-12113214D01*
X17979643Y-12113214D01*
X17951071Y-12098928D01*
X17936786Y-12070357D01*
X17936786Y-12056071D01*
X17951071Y-12027500D01*
X17979643Y-12013214D01*
X18022500Y-12013214D01*
X18051071Y-12027500D01*
X18165357Y-12327500D02*
X18179643Y-12313214D01*
X18208214Y-12270357D01*
X18222500Y-12241786D01*
X18236786Y-12198928D01*
X18251071Y-12127500D01*
X18251071Y-12070357D01*
X18236786Y-11998928D01*
X18222500Y-11956071D01*
X18208214Y-11927500D01*
X18179643Y-11884643D01*
X18165357Y-11870357D01*
X11107500Y-12473500D02*
G75*
G03*
X11107500Y-12473500I-35000J0D01*
G01*
X11451071Y-12309214D02*
X11479643Y-12309214D01*
X11508214Y-12323500D01*
X11522500Y-12337786D01*
X11536786Y-12366357D01*
X11551071Y-12423500D01*
X11551071Y-12494928D01*
X11536786Y-12552071D01*
X11522500Y-12580643D01*
X11508214Y-12594928D01*
X11479643Y-12609214D01*
X11451071Y-12609214D01*
X11422500Y-12594928D01*
X11408214Y-12580643D01*
X11393928Y-12552071D01*
X11379643Y-12494928D01*
X11379643Y-12423500D01*
X11393928Y-12366357D01*
X11408214Y-12337786D01*
X11422500Y-12323500D01*
X11451071Y-12309214D01*
X11679643Y-12580643D02*
X11693928Y-12594928D01*
X11679643Y-12609214D01*
X11665357Y-12594928D01*
X11679643Y-12580643D01*
X11679643Y-12609214D01*
X11793928Y-12309214D02*
X11993928Y-12309214D01*
X11865357Y-12609214D01*
X12165357Y-12309214D02*
X12193928Y-12309214D01*
X12222500Y-12323500D01*
X12236786Y-12337786D01*
X12251071Y-12366357D01*
X12265357Y-12423500D01*
X12265357Y-12494928D01*
X12251071Y-12552071D01*
X12236786Y-12580643D01*
X12222500Y-12594928D01*
X12193928Y-12609214D01*
X12165357Y-12609214D01*
X12136786Y-12594928D01*
X12122500Y-12580643D01*
X12108214Y-12552071D01*
X12093928Y-12494928D01*
X12093928Y-12423500D01*
X12108214Y-12366357D01*
X12122500Y-12337786D01*
X12136786Y-12323500D01*
X12165357Y-12309214D01*
X12451071Y-12309214D02*
X12479643Y-12309214D01*
X12508214Y-12323500D01*
X12522500Y-12337786D01*
X12536786Y-12366357D01*
X12551071Y-12423500D01*
X12551071Y-12494928D01*
X12536786Y-12552071D01*
X12522500Y-12580643D01*
X12508214Y-12594928D01*
X12479643Y-12609214D01*
X12451071Y-12609214D01*
X12422500Y-12594928D01*
X12408214Y-12580643D01*
X12393928Y-12552071D01*
X12379643Y-12494928D01*
X12379643Y-12423500D01*
X12393928Y-12366357D01*
X12408214Y-12337786D01*
X12422500Y-12323500D01*
X12451071Y-12309214D01*
X12679643Y-12609214D02*
X12679643Y-12409214D01*
X12679643Y-12437786D02*
X12693928Y-12423500D01*
X12722500Y-12409214D01*
X12765357Y-12409214D01*
X12793928Y-12423500D01*
X12808214Y-12452071D01*
X12808214Y-12609214D01*
X12808214Y-12452071D02*
X12822500Y-12423500D01*
X12851071Y-12409214D01*
X12893928Y-12409214D01*
X12922500Y-12423500D01*
X12936786Y-12452071D01*
X12936786Y-12609214D01*
X13079643Y-12609214D02*
X13079643Y-12409214D01*
X13079643Y-12437786D02*
X13093928Y-12423500D01*
X13122500Y-12409214D01*
X13165357Y-12409214D01*
X13193928Y-12423500D01*
X13208214Y-12452071D01*
X13208214Y-12609214D01*
X13208214Y-12452071D02*
X13222500Y-12423500D01*
X13251071Y-12409214D01*
X13293928Y-12409214D01*
X13322500Y-12423500D01*
X13336786Y-12452071D01*
X13336786Y-12609214D01*
X13922500Y-12294928D02*
X13665357Y-12680643D01*
X14308214Y-12309214D02*
X14336786Y-12309214D01*
X14365357Y-12323500D01*
X14379643Y-12337786D01*
X14393928Y-12366357D01*
X14408214Y-12423500D01*
X14408214Y-12494928D01*
X14393928Y-12552071D01*
X14379643Y-12580643D01*
X14365357Y-12594928D01*
X14336786Y-12609214D01*
X14308214Y-12609214D01*
X14279643Y-12594928D01*
X14265357Y-12580643D01*
X14251071Y-12552071D01*
X14236786Y-12494928D01*
X14236786Y-12423500D01*
X14251071Y-12366357D01*
X14265357Y-12337786D01*
X14279643Y-12323500D01*
X14308214Y-12309214D01*
X14536786Y-12580643D02*
X14551071Y-12594928D01*
X14536786Y-12609214D01*
X14522500Y-12594928D01*
X14536786Y-12580643D01*
X14536786Y-12609214D01*
X14736786Y-12309214D02*
X14765357Y-12309214D01*
X14793928Y-12323500D01*
X14808214Y-12337786D01*
X14822500Y-12366357D01*
X14836786Y-12423500D01*
X14836786Y-12494928D01*
X14822500Y-12552071D01*
X14808214Y-12580643D01*
X14793928Y-12594928D01*
X14765357Y-12609214D01*
X14736786Y-12609214D01*
X14708214Y-12594928D01*
X14693928Y-12580643D01*
X14679643Y-12552071D01*
X14665357Y-12494928D01*
X14665357Y-12423500D01*
X14679643Y-12366357D01*
X14693928Y-12337786D01*
X14708214Y-12323500D01*
X14736786Y-12309214D01*
X14951071Y-12337786D02*
X14965357Y-12323500D01*
X14993928Y-12309214D01*
X15065357Y-12309214D01*
X15093928Y-12323500D01*
X15108214Y-12337786D01*
X15122500Y-12366357D01*
X15122500Y-12394928D01*
X15108214Y-12437786D01*
X14936786Y-12609214D01*
X15122500Y-12609214D01*
X15222500Y-12309214D02*
X15422500Y-12309214D01*
X15293928Y-12609214D01*
X15665357Y-12309214D02*
X15608214Y-12309214D01*
X15579643Y-12323500D01*
X15565357Y-12337786D01*
X15536786Y-12380643D01*
X15522500Y-12437786D01*
X15522500Y-12552071D01*
X15536786Y-12580643D01*
X15551071Y-12594928D01*
X15579643Y-12609214D01*
X15636786Y-12609214D01*
X15665357Y-12594928D01*
X15679643Y-12580643D01*
X15693928Y-12552071D01*
X15693928Y-12480643D01*
X15679643Y-12452071D01*
X15665357Y-12437786D01*
X15636786Y-12423500D01*
X15579643Y-12423500D01*
X15551071Y-12437786D01*
X15536786Y-12452071D01*
X15522500Y-12480643D01*
X15808214Y-12309214D02*
X15808214Y-12366357D01*
X15922500Y-12309214D02*
X15922500Y-12366357D01*
X16365357Y-12723500D02*
X16351071Y-12709214D01*
X16322500Y-12666357D01*
X16308214Y-12637786D01*
X16293928Y-12594928D01*
X16279643Y-12523500D01*
X16279643Y-12466357D01*
X16293928Y-12394928D01*
X16308214Y-12352071D01*
X16322500Y-12323500D01*
X16351071Y-12280643D01*
X16365357Y-12266357D01*
X16465357Y-12337786D02*
X16479643Y-12323500D01*
X16508214Y-12309214D01*
X16579643Y-12309214D01*
X16608214Y-12323500D01*
X16622500Y-12337786D01*
X16636786Y-12366357D01*
X16636786Y-12394928D01*
X16622500Y-12437786D01*
X16451071Y-12609214D01*
X16636786Y-12609214D01*
X16822500Y-12309214D02*
X16851071Y-12309214D01*
X16879643Y-12323500D01*
X16893928Y-12337786D01*
X16908214Y-12366357D01*
X16922500Y-12423500D01*
X16922500Y-12494928D01*
X16908214Y-12552071D01*
X16893928Y-12580643D01*
X16879643Y-12594928D01*
X16851071Y-12609214D01*
X16822500Y-12609214D01*
X16793928Y-12594928D01*
X16779643Y-12580643D01*
X16765357Y-12552071D01*
X16751071Y-12494928D01*
X16751071Y-12423500D01*
X16765357Y-12366357D01*
X16779643Y-12337786D01*
X16793928Y-12323500D01*
X16822500Y-12309214D01*
X17279643Y-12609214D02*
X17279643Y-12309214D01*
X17408214Y-12609214D02*
X17408214Y-12452071D01*
X17393928Y-12423500D01*
X17365357Y-12409214D01*
X17322500Y-12409214D01*
X17293928Y-12423500D01*
X17279643Y-12437786D01*
X17593928Y-12609214D02*
X17565357Y-12594928D01*
X17551071Y-12580643D01*
X17536786Y-12552071D01*
X17536786Y-12466357D01*
X17551071Y-12437786D01*
X17565357Y-12423500D01*
X17593928Y-12409214D01*
X17636786Y-12409214D01*
X17665357Y-12423500D01*
X17679643Y-12437786D01*
X17693928Y-12466357D01*
X17693928Y-12552071D01*
X17679643Y-12580643D01*
X17665357Y-12594928D01*
X17636786Y-12609214D01*
X17593928Y-12609214D01*
X17865357Y-12609214D02*
X17836786Y-12594928D01*
X17822500Y-12566357D01*
X17822500Y-12309214D01*
X18093928Y-12594928D02*
X18065357Y-12609214D01*
X18008214Y-12609214D01*
X17979643Y-12594928D01*
X17965357Y-12566357D01*
X17965357Y-12452071D01*
X17979643Y-12423500D01*
X18008214Y-12409214D01*
X18065357Y-12409214D01*
X18093928Y-12423500D01*
X18108214Y-12452071D01*
X18108214Y-12480643D01*
X17965357Y-12509214D01*
X18222500Y-12594928D02*
X18251071Y-12609214D01*
X18308214Y-12609214D01*
X18336786Y-12594928D01*
X18351071Y-12566357D01*
X18351071Y-12552071D01*
X18336786Y-12523500D01*
X18308214Y-12509214D01*
X18265357Y-12509214D01*
X18236786Y-12494928D01*
X18222500Y-12466357D01*
X18222500Y-12452071D01*
X18236786Y-12423500D01*
X18265357Y-12409214D01*
X18308214Y-12409214D01*
X18336786Y-12423500D01*
X18451071Y-12723500D02*
X18465357Y-12709214D01*
X18493928Y-12666357D01*
X18508214Y-12637786D01*
X18522500Y-12594928D01*
X18536786Y-12523500D01*
X18536786Y-12466357D01*
X18522500Y-12394928D01*
X18508214Y-12352071D01*
X18493928Y-12323500D01*
X18465357Y-12280643D01*
X18451071Y-12266357D01*
X11070000Y-12832000D02*
X11070000Y-12907000D01*
X11032500Y-12869500D02*
X11107500Y-12869500D01*
X11451071Y-12705214D02*
X11479643Y-12705214D01*
X11508214Y-12719500D01*
X11522500Y-12733786D01*
X11536786Y-12762357D01*
X11551071Y-12819500D01*
X11551071Y-12890928D01*
X11536786Y-12948071D01*
X11522500Y-12976643D01*
X11508214Y-12990928D01*
X11479643Y-13005214D01*
X11451071Y-13005214D01*
X11422500Y-12990928D01*
X11408214Y-12976643D01*
X11393928Y-12948071D01*
X11379643Y-12890928D01*
X11379643Y-12819500D01*
X11393928Y-12762357D01*
X11408214Y-12733786D01*
X11422500Y-12719500D01*
X11451071Y-12705214D01*
X11679643Y-12976643D02*
X11693928Y-12990928D01*
X11679643Y-13005214D01*
X11665357Y-12990928D01*
X11679643Y-12976643D01*
X11679643Y-13005214D01*
X11793928Y-12705214D02*
X11993928Y-12705214D01*
X11865357Y-13005214D01*
X12251071Y-12705214D02*
X12108214Y-12705214D01*
X12093928Y-12848071D01*
X12108214Y-12833786D01*
X12136786Y-12819500D01*
X12208214Y-12819500D01*
X12236786Y-12833786D01*
X12251071Y-12848071D01*
X12265357Y-12876643D01*
X12265357Y-12948071D01*
X12251071Y-12976643D01*
X12236786Y-12990928D01*
X12208214Y-13005214D01*
X12136786Y-13005214D01*
X12108214Y-12990928D01*
X12093928Y-12976643D01*
X12451071Y-12705214D02*
X12479643Y-12705214D01*
X12508214Y-12719500D01*
X12522500Y-12733786D01*
X12536786Y-12762357D01*
X12551071Y-12819500D01*
X12551071Y-12890928D01*
X12536786Y-12948071D01*
X12522500Y-12976643D01*
X12508214Y-12990928D01*
X12479643Y-13005214D01*
X12451071Y-13005214D01*
X12422500Y-12990928D01*
X12408214Y-12976643D01*
X12393928Y-12948071D01*
X12379643Y-12890928D01*
X12379643Y-12819500D01*
X12393928Y-12762357D01*
X12408214Y-12733786D01*
X12422500Y-12719500D01*
X12451071Y-12705214D01*
X12679643Y-13005214D02*
X12679643Y-12805214D01*
X12679643Y-12833786D02*
X12693928Y-12819500D01*
X12722500Y-12805214D01*
X12765357Y-12805214D01*
X12793928Y-12819500D01*
X12808214Y-12848071D01*
X12808214Y-13005214D01*
X12808214Y-12848071D02*
X12822500Y-12819500D01*
X12851071Y-12805214D01*
X12893928Y-12805214D01*
X12922500Y-12819500D01*
X12936786Y-12848071D01*
X12936786Y-13005214D01*
X13079643Y-13005214D02*
X13079643Y-12805214D01*
X13079643Y-12833786D02*
X13093928Y-12819500D01*
X13122500Y-12805214D01*
X13165357Y-12805214D01*
X13193928Y-12819500D01*
X13208214Y-12848071D01*
X13208214Y-13005214D01*
X13208214Y-12848071D02*
X13222500Y-12819500D01*
X13251071Y-12805214D01*
X13293928Y-12805214D01*
X13322500Y-12819500D01*
X13336786Y-12848071D01*
X13336786Y-13005214D01*
X13922500Y-12690928D02*
X13665357Y-13076643D01*
X14308214Y-12705214D02*
X14336786Y-12705214D01*
X14365357Y-12719500D01*
X14379643Y-12733786D01*
X14393928Y-12762357D01*
X14408214Y-12819500D01*
X14408214Y-12890928D01*
X14393928Y-12948071D01*
X14379643Y-12976643D01*
X14365357Y-12990928D01*
X14336786Y-13005214D01*
X14308214Y-13005214D01*
X14279643Y-12990928D01*
X14265357Y-12976643D01*
X14251071Y-12948071D01*
X14236786Y-12890928D01*
X14236786Y-12819500D01*
X14251071Y-12762357D01*
X14265357Y-12733786D01*
X14279643Y-12719500D01*
X14308214Y-12705214D01*
X14536786Y-12976643D02*
X14551071Y-12990928D01*
X14536786Y-13005214D01*
X14522500Y-12990928D01*
X14536786Y-12976643D01*
X14536786Y-13005214D01*
X14736786Y-12705214D02*
X14765357Y-12705214D01*
X14793928Y-12719500D01*
X14808214Y-12733786D01*
X14822500Y-12762357D01*
X14836786Y-12819500D01*
X14836786Y-12890928D01*
X14822500Y-12948071D01*
X14808214Y-12976643D01*
X14793928Y-12990928D01*
X14765357Y-13005214D01*
X14736786Y-13005214D01*
X14708214Y-12990928D01*
X14693928Y-12976643D01*
X14679643Y-12948071D01*
X14665357Y-12890928D01*
X14665357Y-12819500D01*
X14679643Y-12762357D01*
X14693928Y-12733786D01*
X14708214Y-12719500D01*
X14736786Y-12705214D01*
X14951071Y-12733786D02*
X14965357Y-12719500D01*
X14993928Y-12705214D01*
X15065357Y-12705214D01*
X15093928Y-12719500D01*
X15108214Y-12733786D01*
X15122500Y-12762357D01*
X15122500Y-12790928D01*
X15108214Y-12833786D01*
X14936786Y-13005214D01*
X15122500Y-13005214D01*
X15265357Y-13005214D02*
X15322500Y-13005214D01*
X15351071Y-12990928D01*
X15365357Y-12976643D01*
X15393928Y-12933786D01*
X15408214Y-12876643D01*
X15408214Y-12762357D01*
X15393928Y-12733786D01*
X15379643Y-12719500D01*
X15351071Y-12705214D01*
X15293928Y-12705214D01*
X15265357Y-12719500D01*
X15251071Y-12733786D01*
X15236786Y-12762357D01*
X15236786Y-12833786D01*
X15251071Y-12862357D01*
X15265357Y-12876643D01*
X15293928Y-12890928D01*
X15351071Y-12890928D01*
X15379643Y-12876643D01*
X15393928Y-12862357D01*
X15408214Y-12833786D01*
X15679643Y-12705214D02*
X15536786Y-12705214D01*
X15522500Y-12848071D01*
X15536786Y-12833786D01*
X15565357Y-12819500D01*
X15636786Y-12819500D01*
X15665357Y-12833786D01*
X15679643Y-12848071D01*
X15693928Y-12876643D01*
X15693928Y-12948071D01*
X15679643Y-12976643D01*
X15665357Y-12990928D01*
X15636786Y-13005214D01*
X15565357Y-13005214D01*
X15536786Y-12990928D01*
X15522500Y-12976643D01*
X15808214Y-12705214D02*
X15808214Y-12762357D01*
X15922500Y-12705214D02*
X15922500Y-12762357D01*
X16365357Y-13119500D02*
X16351071Y-13105214D01*
X16322500Y-13062357D01*
X16308214Y-13033786D01*
X16293928Y-12990928D01*
X16279643Y-12919500D01*
X16279643Y-12862357D01*
X16293928Y-12790928D01*
X16308214Y-12748071D01*
X16322500Y-12719500D01*
X16351071Y-12676643D01*
X16365357Y-12662357D01*
X16636786Y-13005214D02*
X16465357Y-13005214D01*
X16551071Y-13005214D02*
X16551071Y-12705214D01*
X16522500Y-12748071D01*
X16493928Y-12776643D01*
X16465357Y-12790928D01*
X16893928Y-12705214D02*
X16836786Y-12705214D01*
X16808214Y-12719500D01*
X16793928Y-12733786D01*
X16765357Y-12776643D01*
X16751071Y-12833786D01*
X16751071Y-12948071D01*
X16765357Y-12976643D01*
X16779643Y-12990928D01*
X16808214Y-13005214D01*
X16865357Y-13005214D01*
X16893928Y-12990928D01*
X16908214Y-12976643D01*
X16922500Y-12948071D01*
X16922500Y-12876643D01*
X16908214Y-12848071D01*
X16893928Y-12833786D01*
X16865357Y-12819500D01*
X16808214Y-12819500D01*
X16779643Y-12833786D01*
X16765357Y-12848071D01*
X16751071Y-12876643D01*
X17279643Y-13005214D02*
X17279643Y-12705214D01*
X17408214Y-13005214D02*
X17408214Y-12848071D01*
X17393928Y-12819500D01*
X17365357Y-12805214D01*
X17322500Y-12805214D01*
X17293928Y-12819500D01*
X17279643Y-12833786D01*
X17593928Y-13005214D02*
X17565357Y-12990928D01*
X17551071Y-12976643D01*
X17536786Y-12948071D01*
X17536786Y-12862357D01*
X17551071Y-12833786D01*
X17565357Y-12819500D01*
X17593928Y-12805214D01*
X17636786Y-12805214D01*
X17665357Y-12819500D01*
X17679643Y-12833786D01*
X17693928Y-12862357D01*
X17693928Y-12948071D01*
X17679643Y-12976643D01*
X17665357Y-12990928D01*
X17636786Y-13005214D01*
X17593928Y-13005214D01*
X17865357Y-13005214D02*
X17836786Y-12990928D01*
X17822500Y-12962357D01*
X17822500Y-12705214D01*
X18093928Y-12990928D02*
X18065357Y-13005214D01*
X18008214Y-13005214D01*
X17979643Y-12990928D01*
X17965357Y-12962357D01*
X17965357Y-12848071D01*
X17979643Y-12819500D01*
X18008214Y-12805214D01*
X18065357Y-12805214D01*
X18093928Y-12819500D01*
X18108214Y-12848071D01*
X18108214Y-12876643D01*
X17965357Y-12905214D01*
X18222500Y-12990928D02*
X18251071Y-13005214D01*
X18308214Y-13005214D01*
X18336786Y-12990928D01*
X18351071Y-12962357D01*
X18351071Y-12948071D01*
X18336786Y-12919500D01*
X18308214Y-12905214D01*
X18265357Y-12905214D01*
X18236786Y-12890928D01*
X18222500Y-12862357D01*
X18222500Y-12848071D01*
X18236786Y-12819500D01*
X18265357Y-12805214D01*
X18308214Y-12805214D01*
X18336786Y-12819500D01*
X18451071Y-13119500D02*
X18465357Y-13105214D01*
X18493928Y-13062357D01*
X18508214Y-13033786D01*
X18522500Y-12990928D01*
X18536786Y-12919500D01*
X18536786Y-12862357D01*
X18522500Y-12790928D01*
X18508214Y-12748071D01*
X18493928Y-12719500D01*
X18465357Y-12676643D01*
X18451071Y-12662357D01*
X11096341Y-13292441D02*
X11096341Y-13238559D01*
X11042459Y-13238559D01*
X11042459Y-13292441D01*
X11096341Y-13292441D01*
X11451071Y-13101214D02*
X11479643Y-13101214D01*
X11508214Y-13115500D01*
X11522500Y-13129786D01*
X11536786Y-13158357D01*
X11551071Y-13215500D01*
X11551071Y-13286928D01*
X11536786Y-13344071D01*
X11522500Y-13372643D01*
X11508214Y-13386928D01*
X11479643Y-13401214D01*
X11451071Y-13401214D01*
X11422500Y-13386928D01*
X11408214Y-13372643D01*
X11393928Y-13344071D01*
X11379643Y-13286928D01*
X11379643Y-13215500D01*
X11393928Y-13158357D01*
X11408214Y-13129786D01*
X11422500Y-13115500D01*
X11451071Y-13101214D01*
X11679643Y-13372643D02*
X11693928Y-13386928D01*
X11679643Y-13401214D01*
X11665357Y-13386928D01*
X11679643Y-13372643D01*
X11679643Y-13401214D01*
X11793928Y-13101214D02*
X11993928Y-13101214D01*
X11865357Y-13401214D01*
X12236786Y-13101214D02*
X12179643Y-13101214D01*
X12151071Y-13115500D01*
X12136786Y-13129786D01*
X12108214Y-13172643D01*
X12093928Y-13229786D01*
X12093928Y-13344071D01*
X12108214Y-13372643D01*
X12122500Y-13386928D01*
X12151071Y-13401214D01*
X12208214Y-13401214D01*
X12236786Y-13386928D01*
X12251071Y-13372643D01*
X12265357Y-13344071D01*
X12265357Y-13272643D01*
X12251071Y-13244071D01*
X12236786Y-13229786D01*
X12208214Y-13215500D01*
X12151071Y-13215500D01*
X12122500Y-13229786D01*
X12108214Y-13244071D01*
X12093928Y-13272643D01*
X12379643Y-13129786D02*
X12393928Y-13115500D01*
X12422500Y-13101214D01*
X12493928Y-13101214D01*
X12522500Y-13115500D01*
X12536786Y-13129786D01*
X12551071Y-13158357D01*
X12551071Y-13186928D01*
X12536786Y-13229786D01*
X12365357Y-13401214D01*
X12551071Y-13401214D01*
X12679643Y-13401214D02*
X12679643Y-13201214D01*
X12679643Y-13229786D02*
X12693928Y-13215500D01*
X12722500Y-13201214D01*
X12765357Y-13201214D01*
X12793928Y-13215500D01*
X12808214Y-13244071D01*
X12808214Y-13401214D01*
X12808214Y-13244071D02*
X12822500Y-13215500D01*
X12851071Y-13201214D01*
X12893928Y-13201214D01*
X12922500Y-13215500D01*
X12936786Y-13244071D01*
X12936786Y-13401214D01*
X13079643Y-13401214D02*
X13079643Y-13201214D01*
X13079643Y-13229786D02*
X13093928Y-13215500D01*
X13122500Y-13201214D01*
X13165357Y-13201214D01*
X13193928Y-13215500D01*
X13208214Y-13244071D01*
X13208214Y-13401214D01*
X13208214Y-13244071D02*
X13222500Y-13215500D01*
X13251071Y-13201214D01*
X13293928Y-13201214D01*
X13322500Y-13215500D01*
X13336786Y-13244071D01*
X13336786Y-13401214D01*
X13922500Y-13086928D02*
X13665357Y-13472643D01*
X14308214Y-13101214D02*
X14336786Y-13101214D01*
X14365357Y-13115500D01*
X14379643Y-13129786D01*
X14393928Y-13158357D01*
X14408214Y-13215500D01*
X14408214Y-13286928D01*
X14393928Y-13344071D01*
X14379643Y-13372643D01*
X14365357Y-13386928D01*
X14336786Y-13401214D01*
X14308214Y-13401214D01*
X14279643Y-13386928D01*
X14265357Y-13372643D01*
X14251071Y-13344071D01*
X14236786Y-13286928D01*
X14236786Y-13215500D01*
X14251071Y-13158357D01*
X14265357Y-13129786D01*
X14279643Y-13115500D01*
X14308214Y-13101214D01*
X14536786Y-13372643D02*
X14551071Y-13386928D01*
X14536786Y-13401214D01*
X14522500Y-13386928D01*
X14536786Y-13372643D01*
X14536786Y-13401214D01*
X14736786Y-13101214D02*
X14765357Y-13101214D01*
X14793928Y-13115500D01*
X14808214Y-13129786D01*
X14822500Y-13158357D01*
X14836786Y-13215500D01*
X14836786Y-13286928D01*
X14822500Y-13344071D01*
X14808214Y-13372643D01*
X14793928Y-13386928D01*
X14765357Y-13401214D01*
X14736786Y-13401214D01*
X14708214Y-13386928D01*
X14693928Y-13372643D01*
X14679643Y-13344071D01*
X14665357Y-13286928D01*
X14665357Y-13215500D01*
X14679643Y-13158357D01*
X14693928Y-13129786D01*
X14708214Y-13115500D01*
X14736786Y-13101214D01*
X14936786Y-13101214D02*
X15122500Y-13101214D01*
X15022500Y-13215500D01*
X15065357Y-13215500D01*
X15093928Y-13229786D01*
X15108214Y-13244071D01*
X15122500Y-13272643D01*
X15122500Y-13344071D01*
X15108214Y-13372643D01*
X15093928Y-13386928D01*
X15065357Y-13401214D01*
X14979643Y-13401214D01*
X14951071Y-13386928D01*
X14936786Y-13372643D01*
X15308214Y-13101214D02*
X15336786Y-13101214D01*
X15365357Y-13115500D01*
X15379643Y-13129786D01*
X15393928Y-13158357D01*
X15408214Y-13215500D01*
X15408214Y-13286928D01*
X15393928Y-13344071D01*
X15379643Y-13372643D01*
X15365357Y-13386928D01*
X15336786Y-13401214D01*
X15308214Y-13401214D01*
X15279643Y-13386928D01*
X15265357Y-13372643D01*
X15251071Y-13344071D01*
X15236786Y-13286928D01*
X15236786Y-13215500D01*
X15251071Y-13158357D01*
X15265357Y-13129786D01*
X15279643Y-13115500D01*
X15308214Y-13101214D01*
X15593928Y-13101214D02*
X15622500Y-13101214D01*
X15651071Y-13115500D01*
X15665357Y-13129786D01*
X15679643Y-13158357D01*
X15693928Y-13215500D01*
X15693928Y-13286928D01*
X15679643Y-13344071D01*
X15665357Y-13372643D01*
X15651071Y-13386928D01*
X15622500Y-13401214D01*
X15593928Y-13401214D01*
X15565357Y-13386928D01*
X15551071Y-13372643D01*
X15536786Y-13344071D01*
X15522500Y-13286928D01*
X15522500Y-13215500D01*
X15536786Y-13158357D01*
X15551071Y-13129786D01*
X15565357Y-13115500D01*
X15593928Y-13101214D01*
X15808214Y-13101214D02*
X15808214Y-13158357D01*
X15922500Y-13101214D02*
X15922500Y-13158357D01*
X16365357Y-13515500D02*
X16351071Y-13501214D01*
X16322500Y-13458357D01*
X16308214Y-13429786D01*
X16293928Y-13386928D01*
X16279643Y-13315500D01*
X16279643Y-13258357D01*
X16293928Y-13186928D01*
X16308214Y-13144071D01*
X16322500Y-13115500D01*
X16351071Y-13072643D01*
X16365357Y-13058357D01*
X16636786Y-13401214D02*
X16465357Y-13401214D01*
X16551071Y-13401214D02*
X16551071Y-13101214D01*
X16522500Y-13144071D01*
X16493928Y-13172643D01*
X16465357Y-13186928D01*
X16736786Y-13101214D02*
X16936786Y-13101214D01*
X16808214Y-13401214D01*
X17279643Y-13401214D02*
X17279643Y-13101214D01*
X17408214Y-13401214D02*
X17408214Y-13244071D01*
X17393928Y-13215500D01*
X17365357Y-13201214D01*
X17322500Y-13201214D01*
X17293928Y-13215500D01*
X17279643Y-13229786D01*
X17593928Y-13401214D02*
X17565357Y-13386928D01*
X17551071Y-13372643D01*
X17536786Y-13344071D01*
X17536786Y-13258357D01*
X17551071Y-13229786D01*
X17565357Y-13215500D01*
X17593928Y-13201214D01*
X17636786Y-13201214D01*
X17665357Y-13215500D01*
X17679643Y-13229786D01*
X17693928Y-13258357D01*
X17693928Y-13344071D01*
X17679643Y-13372643D01*
X17665357Y-13386928D01*
X17636786Y-13401214D01*
X17593928Y-13401214D01*
X17865357Y-13401214D02*
X17836786Y-13386928D01*
X17822500Y-13358357D01*
X17822500Y-13101214D01*
X18093928Y-13386928D02*
X18065357Y-13401214D01*
X18008214Y-13401214D01*
X17979643Y-13386928D01*
X17965357Y-13358357D01*
X17965357Y-13244071D01*
X17979643Y-13215500D01*
X18008214Y-13201214D01*
X18065357Y-13201214D01*
X18093928Y-13215500D01*
X18108214Y-13244071D01*
X18108214Y-13272643D01*
X17965357Y-13301214D01*
X18222500Y-13386928D02*
X18251071Y-13401214D01*
X18308214Y-13401214D01*
X18336786Y-13386928D01*
X18351071Y-13358357D01*
X18351071Y-13344071D01*
X18336786Y-13315500D01*
X18308214Y-13301214D01*
X18265357Y-13301214D01*
X18236786Y-13286928D01*
X18222500Y-13258357D01*
X18222500Y-13244071D01*
X18236786Y-13215500D01*
X18265357Y-13201214D01*
X18308214Y-13201214D01*
X18336786Y-13215500D01*
X18451071Y-13515500D02*
X18465357Y-13501214D01*
X18493928Y-13458357D01*
X18508214Y-13429786D01*
X18522500Y-13386928D01*
X18536786Y-13315500D01*
X18536786Y-13258357D01*
X18522500Y-13186928D01*
X18508214Y-13144071D01*
X18493928Y-13115500D01*
X18465357Y-13072643D01*
X18451071Y-13058357D01*
X11057500Y-13711500D02*
X11107500Y-13661500D01*
X11057500Y-13611500D01*
X11007500Y-13661500D01*
X11057500Y-13711500D01*
X11551071Y-13797214D02*
X11379643Y-13797214D01*
X11465357Y-13797214D02*
X11465357Y-13497214D01*
X11436786Y-13540071D01*
X11408214Y-13568643D01*
X11379643Y-13582928D01*
X11679643Y-13768643D02*
X11693928Y-13782928D01*
X11679643Y-13797214D01*
X11665357Y-13782928D01*
X11679643Y-13768643D01*
X11679643Y-13797214D01*
X11879643Y-13497214D02*
X11908214Y-13497214D01*
X11936786Y-13511500D01*
X11951071Y-13525786D01*
X11965357Y-13554357D01*
X11979643Y-13611500D01*
X11979643Y-13682928D01*
X11965357Y-13740071D01*
X11951071Y-13768643D01*
X11936786Y-13782928D01*
X11908214Y-13797214D01*
X11879643Y-13797214D01*
X11851071Y-13782928D01*
X11836786Y-13768643D01*
X11822500Y-13740071D01*
X11808214Y-13682928D01*
X11808214Y-13611500D01*
X11822500Y-13554357D01*
X11836786Y-13525786D01*
X11851071Y-13511500D01*
X11879643Y-13497214D01*
X12165357Y-13497214D02*
X12193928Y-13497214D01*
X12222500Y-13511500D01*
X12236786Y-13525786D01*
X12251071Y-13554357D01*
X12265357Y-13611500D01*
X12265357Y-13682928D01*
X12251071Y-13740071D01*
X12236786Y-13768643D01*
X12222500Y-13782928D01*
X12193928Y-13797214D01*
X12165357Y-13797214D01*
X12136786Y-13782928D01*
X12122500Y-13768643D01*
X12108214Y-13740071D01*
X12093928Y-13682928D01*
X12093928Y-13611500D01*
X12108214Y-13554357D01*
X12122500Y-13525786D01*
X12136786Y-13511500D01*
X12165357Y-13497214D01*
X12451071Y-13497214D02*
X12479643Y-13497214D01*
X12508214Y-13511500D01*
X12522500Y-13525786D01*
X12536786Y-13554357D01*
X12551071Y-13611500D01*
X12551071Y-13682928D01*
X12536786Y-13740071D01*
X12522500Y-13768643D01*
X12508214Y-13782928D01*
X12479643Y-13797214D01*
X12451071Y-13797214D01*
X12422500Y-13782928D01*
X12408214Y-13768643D01*
X12393928Y-13740071D01*
X12379643Y-13682928D01*
X12379643Y-13611500D01*
X12393928Y-13554357D01*
X12408214Y-13525786D01*
X12422500Y-13511500D01*
X12451071Y-13497214D01*
X12679643Y-13797214D02*
X12679643Y-13597214D01*
X12679643Y-13625786D02*
X12693928Y-13611500D01*
X12722500Y-13597214D01*
X12765357Y-13597214D01*
X12793928Y-13611500D01*
X12808214Y-13640071D01*
X12808214Y-13797214D01*
X12808214Y-13640071D02*
X12822500Y-13611500D01*
X12851071Y-13597214D01*
X12893928Y-13597214D01*
X12922500Y-13611500D01*
X12936786Y-13640071D01*
X12936786Y-13797214D01*
X13079643Y-13797214D02*
X13079643Y-13597214D01*
X13079643Y-13625786D02*
X13093928Y-13611500D01*
X13122500Y-13597214D01*
X13165357Y-13597214D01*
X13193928Y-13611500D01*
X13208214Y-13640071D01*
X13208214Y-13797214D01*
X13208214Y-13640071D02*
X13222500Y-13611500D01*
X13251071Y-13597214D01*
X13293928Y-13597214D01*
X13322500Y-13611500D01*
X13336786Y-13640071D01*
X13336786Y-13797214D01*
X13922500Y-13482928D02*
X13665357Y-13868643D01*
X14308214Y-13497214D02*
X14336786Y-13497214D01*
X14365357Y-13511500D01*
X14379643Y-13525786D01*
X14393928Y-13554357D01*
X14408214Y-13611500D01*
X14408214Y-13682928D01*
X14393928Y-13740071D01*
X14379643Y-13768643D01*
X14365357Y-13782928D01*
X14336786Y-13797214D01*
X14308214Y-13797214D01*
X14279643Y-13782928D01*
X14265357Y-13768643D01*
X14251071Y-13740071D01*
X14236786Y-13682928D01*
X14236786Y-13611500D01*
X14251071Y-13554357D01*
X14265357Y-13525786D01*
X14279643Y-13511500D01*
X14308214Y-13497214D01*
X14536786Y-13768643D02*
X14551071Y-13782928D01*
X14536786Y-13797214D01*
X14522500Y-13782928D01*
X14536786Y-13768643D01*
X14536786Y-13797214D01*
X14736786Y-13497214D02*
X14765357Y-13497214D01*
X14793928Y-13511500D01*
X14808214Y-13525786D01*
X14822500Y-13554357D01*
X14836786Y-13611500D01*
X14836786Y-13682928D01*
X14822500Y-13740071D01*
X14808214Y-13768643D01*
X14793928Y-13782928D01*
X14765357Y-13797214D01*
X14736786Y-13797214D01*
X14708214Y-13782928D01*
X14693928Y-13768643D01*
X14679643Y-13740071D01*
X14665357Y-13682928D01*
X14665357Y-13611500D01*
X14679643Y-13554357D01*
X14693928Y-13525786D01*
X14708214Y-13511500D01*
X14736786Y-13497214D01*
X14936786Y-13497214D02*
X15122500Y-13497214D01*
X15022500Y-13611500D01*
X15065357Y-13611500D01*
X15093928Y-13625786D01*
X15108214Y-13640071D01*
X15122500Y-13668643D01*
X15122500Y-13740071D01*
X15108214Y-13768643D01*
X15093928Y-13782928D01*
X15065357Y-13797214D01*
X14979643Y-13797214D01*
X14951071Y-13782928D01*
X14936786Y-13768643D01*
X15265357Y-13797214D02*
X15322500Y-13797214D01*
X15351071Y-13782928D01*
X15365357Y-13768643D01*
X15393928Y-13725786D01*
X15408214Y-13668643D01*
X15408214Y-13554357D01*
X15393928Y-13525786D01*
X15379643Y-13511500D01*
X15351071Y-13497214D01*
X15293928Y-13497214D01*
X15265357Y-13511500D01*
X15251071Y-13525786D01*
X15236786Y-13554357D01*
X15236786Y-13625786D01*
X15251071Y-13654357D01*
X15265357Y-13668643D01*
X15293928Y-13682928D01*
X15351071Y-13682928D01*
X15379643Y-13668643D01*
X15393928Y-13654357D01*
X15408214Y-13625786D01*
X15665357Y-13597214D02*
X15665357Y-13797214D01*
X15593928Y-13482928D02*
X15522500Y-13697214D01*
X15708214Y-13697214D01*
X15808214Y-13497214D02*
X15808214Y-13554357D01*
X15922500Y-13497214D02*
X15922500Y-13554357D01*
X16365357Y-13911500D02*
X16351071Y-13897214D01*
X16322500Y-13854357D01*
X16308214Y-13825786D01*
X16293928Y-13782928D01*
X16279643Y-13711500D01*
X16279643Y-13654357D01*
X16293928Y-13582928D01*
X16308214Y-13540071D01*
X16322500Y-13511500D01*
X16351071Y-13468643D01*
X16365357Y-13454357D01*
X16465357Y-13525786D02*
X16479643Y-13511500D01*
X16508214Y-13497214D01*
X16579643Y-13497214D01*
X16608214Y-13511500D01*
X16622500Y-13525786D01*
X16636786Y-13554357D01*
X16636786Y-13582928D01*
X16622500Y-13625786D01*
X16451071Y-13797214D01*
X16636786Y-13797214D01*
X16808214Y-13625786D02*
X16779643Y-13611500D01*
X16765357Y-13597214D01*
X16751071Y-13568643D01*
X16751071Y-13554357D01*
X16765357Y-13525786D01*
X16779643Y-13511500D01*
X16808214Y-13497214D01*
X16865357Y-13497214D01*
X16893928Y-13511500D01*
X16908214Y-13525786D01*
X16922500Y-13554357D01*
X16922500Y-13568643D01*
X16908214Y-13597214D01*
X16893928Y-13611500D01*
X16865357Y-13625786D01*
X16808214Y-13625786D01*
X16779643Y-13640071D01*
X16765357Y-13654357D01*
X16751071Y-13682928D01*
X16751071Y-13740071D01*
X16765357Y-13768643D01*
X16779643Y-13782928D01*
X16808214Y-13797214D01*
X16865357Y-13797214D01*
X16893928Y-13782928D01*
X16908214Y-13768643D01*
X16922500Y-13740071D01*
X16922500Y-13682928D01*
X16908214Y-13654357D01*
X16893928Y-13640071D01*
X16865357Y-13625786D01*
X17279643Y-13797214D02*
X17279643Y-13497214D01*
X17408214Y-13797214D02*
X17408214Y-13640071D01*
X17393928Y-13611500D01*
X17365357Y-13597214D01*
X17322500Y-13597214D01*
X17293928Y-13611500D01*
X17279643Y-13625786D01*
X17593928Y-13797214D02*
X17565357Y-13782928D01*
X17551071Y-13768643D01*
X17536786Y-13740071D01*
X17536786Y-13654357D01*
X17551071Y-13625786D01*
X17565357Y-13611500D01*
X17593928Y-13597214D01*
X17636786Y-13597214D01*
X17665357Y-13611500D01*
X17679643Y-13625786D01*
X17693928Y-13654357D01*
X17693928Y-13740071D01*
X17679643Y-13768643D01*
X17665357Y-13782928D01*
X17636786Y-13797214D01*
X17593928Y-13797214D01*
X17865357Y-13797214D02*
X17836786Y-13782928D01*
X17822500Y-13754357D01*
X17822500Y-13497214D01*
X18093928Y-13782928D02*
X18065357Y-13797214D01*
X18008214Y-13797214D01*
X17979643Y-13782928D01*
X17965357Y-13754357D01*
X17965357Y-13640071D01*
X17979643Y-13611500D01*
X18008214Y-13597214D01*
X18065357Y-13597214D01*
X18093928Y-13611500D01*
X18108214Y-13640071D01*
X18108214Y-13668643D01*
X17965357Y-13697214D01*
X18222500Y-13782928D02*
X18251071Y-13797214D01*
X18308214Y-13797214D01*
X18336786Y-13782928D01*
X18351071Y-13754357D01*
X18351071Y-13740071D01*
X18336786Y-13711500D01*
X18308214Y-13697214D01*
X18265357Y-13697214D01*
X18236786Y-13682928D01*
X18222500Y-13654357D01*
X18222500Y-13640071D01*
X18236786Y-13611500D01*
X18265357Y-13597214D01*
X18308214Y-13597214D01*
X18336786Y-13611500D01*
X18451071Y-13911500D02*
X18465357Y-13897214D01*
X18493928Y-13854357D01*
X18508214Y-13825786D01*
X18522500Y-13782928D01*
X18536786Y-13711500D01*
X18536786Y-13654357D01*
X18522500Y-13582928D01*
X18508214Y-13540071D01*
X18493928Y-13511500D01*
X18465357Y-13468643D01*
X18451071Y-13454357D01*
X10997500Y-14002500D02*
X11107500Y-14112500D01*
X11107500Y-14002500D02*
X10997500Y-14112500D01*
X11107500Y-14057500D02*
G75*
G03*
X11107500Y-14057500I-55000J0D01*
G01*
X11551071Y-14193214D02*
X11379643Y-14193214D01*
X11465357Y-14193214D02*
X11465357Y-13893214D01*
X11436786Y-13936071D01*
X11408214Y-13964643D01*
X11379643Y-13978928D01*
X11679643Y-14164643D02*
X11693928Y-14178928D01*
X11679643Y-14193214D01*
X11665357Y-14178928D01*
X11679643Y-14164643D01*
X11679643Y-14193214D01*
X11979643Y-14193214D02*
X11808214Y-14193214D01*
X11893928Y-14193214D02*
X11893928Y-13893214D01*
X11865357Y-13936071D01*
X11836786Y-13964643D01*
X11808214Y-13978928D01*
X12165357Y-13893214D02*
X12193928Y-13893214D01*
X12222500Y-13907500D01*
X12236786Y-13921786D01*
X12251071Y-13950357D01*
X12265357Y-14007500D01*
X12265357Y-14078928D01*
X12251071Y-14136071D01*
X12236786Y-14164643D01*
X12222500Y-14178928D01*
X12193928Y-14193214D01*
X12165357Y-14193214D01*
X12136786Y-14178928D01*
X12122500Y-14164643D01*
X12108214Y-14136071D01*
X12093928Y-14078928D01*
X12093928Y-14007500D01*
X12108214Y-13950357D01*
X12122500Y-13921786D01*
X12136786Y-13907500D01*
X12165357Y-13893214D01*
X12451071Y-13893214D02*
X12479643Y-13893214D01*
X12508214Y-13907500D01*
X12522500Y-13921786D01*
X12536786Y-13950357D01*
X12551071Y-14007500D01*
X12551071Y-14078928D01*
X12536786Y-14136071D01*
X12522500Y-14164643D01*
X12508214Y-14178928D01*
X12479643Y-14193214D01*
X12451071Y-14193214D01*
X12422500Y-14178928D01*
X12408214Y-14164643D01*
X12393928Y-14136071D01*
X12379643Y-14078928D01*
X12379643Y-14007500D01*
X12393928Y-13950357D01*
X12408214Y-13921786D01*
X12422500Y-13907500D01*
X12451071Y-13893214D01*
X12679643Y-14193214D02*
X12679643Y-13993214D01*
X12679643Y-14021786D02*
X12693928Y-14007500D01*
X12722500Y-13993214D01*
X12765357Y-13993214D01*
X12793928Y-14007500D01*
X12808214Y-14036071D01*
X12808214Y-14193214D01*
X12808214Y-14036071D02*
X12822500Y-14007500D01*
X12851071Y-13993214D01*
X12893928Y-13993214D01*
X12922500Y-14007500D01*
X12936786Y-14036071D01*
X12936786Y-14193214D01*
X13079643Y-14193214D02*
X13079643Y-13993214D01*
X13079643Y-14021786D02*
X13093928Y-14007500D01*
X13122500Y-13993214D01*
X13165357Y-13993214D01*
X13193928Y-14007500D01*
X13208214Y-14036071D01*
X13208214Y-14193214D01*
X13208214Y-14036071D02*
X13222500Y-14007500D01*
X13251071Y-13993214D01*
X13293928Y-13993214D01*
X13322500Y-14007500D01*
X13336786Y-14036071D01*
X13336786Y-14193214D01*
X13922500Y-13878928D02*
X13665357Y-14264643D01*
X14308214Y-13893214D02*
X14336786Y-13893214D01*
X14365357Y-13907500D01*
X14379643Y-13921786D01*
X14393928Y-13950357D01*
X14408214Y-14007500D01*
X14408214Y-14078928D01*
X14393928Y-14136071D01*
X14379643Y-14164643D01*
X14365357Y-14178928D01*
X14336786Y-14193214D01*
X14308214Y-14193214D01*
X14279643Y-14178928D01*
X14265357Y-14164643D01*
X14251071Y-14136071D01*
X14236786Y-14078928D01*
X14236786Y-14007500D01*
X14251071Y-13950357D01*
X14265357Y-13921786D01*
X14279643Y-13907500D01*
X14308214Y-13893214D01*
X14536786Y-14164643D02*
X14551071Y-14178928D01*
X14536786Y-14193214D01*
X14522500Y-14178928D01*
X14536786Y-14164643D01*
X14536786Y-14193214D01*
X14736786Y-13893214D02*
X14765357Y-13893214D01*
X14793928Y-13907500D01*
X14808214Y-13921786D01*
X14822500Y-13950357D01*
X14836786Y-14007500D01*
X14836786Y-14078928D01*
X14822500Y-14136071D01*
X14808214Y-14164643D01*
X14793928Y-14178928D01*
X14765357Y-14193214D01*
X14736786Y-14193214D01*
X14708214Y-14178928D01*
X14693928Y-14164643D01*
X14679643Y-14136071D01*
X14665357Y-14078928D01*
X14665357Y-14007500D01*
X14679643Y-13950357D01*
X14693928Y-13921786D01*
X14708214Y-13907500D01*
X14736786Y-13893214D01*
X15093928Y-13993214D02*
X15093928Y-14193214D01*
X15022500Y-13878928D02*
X14951071Y-14093214D01*
X15136786Y-14093214D01*
X15222500Y-13893214D02*
X15408214Y-13893214D01*
X15308214Y-14007500D01*
X15351071Y-14007500D01*
X15379643Y-14021786D01*
X15393928Y-14036071D01*
X15408214Y-14064643D01*
X15408214Y-14136071D01*
X15393928Y-14164643D01*
X15379643Y-14178928D01*
X15351071Y-14193214D01*
X15265357Y-14193214D01*
X15236786Y-14178928D01*
X15222500Y-14164643D01*
X15508214Y-13893214D02*
X15693928Y-13893214D01*
X15593928Y-14007500D01*
X15636786Y-14007500D01*
X15665357Y-14021786D01*
X15679643Y-14036071D01*
X15693928Y-14064643D01*
X15693928Y-14136071D01*
X15679643Y-14164643D01*
X15665357Y-14178928D01*
X15636786Y-14193214D01*
X15551071Y-14193214D01*
X15522500Y-14178928D01*
X15508214Y-14164643D01*
X15808214Y-13893214D02*
X15808214Y-13950357D01*
X15922500Y-13893214D02*
X15922500Y-13950357D01*
X16365357Y-14307500D02*
X16351071Y-14293214D01*
X16322500Y-14250357D01*
X16308214Y-14221786D01*
X16293928Y-14178928D01*
X16279643Y-14107500D01*
X16279643Y-14050357D01*
X16293928Y-13978928D01*
X16308214Y-13936071D01*
X16322500Y-13907500D01*
X16351071Y-13864643D01*
X16365357Y-13850357D01*
X16622500Y-13893214D02*
X16479643Y-13893214D01*
X16465357Y-14036071D01*
X16479643Y-14021786D01*
X16508214Y-14007500D01*
X16579643Y-14007500D01*
X16608214Y-14021786D01*
X16622500Y-14036071D01*
X16636786Y-14064643D01*
X16636786Y-14136071D01*
X16622500Y-14164643D01*
X16608214Y-14178928D01*
X16579643Y-14193214D01*
X16508214Y-14193214D01*
X16479643Y-14178928D01*
X16465357Y-14164643D01*
X16922500Y-14193214D02*
X16751071Y-14193214D01*
X16836786Y-14193214D02*
X16836786Y-13893214D01*
X16808214Y-13936071D01*
X16779643Y-13964643D01*
X16751071Y-13978928D01*
X17279643Y-14193214D02*
X17279643Y-13893214D01*
X17408214Y-14193214D02*
X17408214Y-14036071D01*
X17393928Y-14007500D01*
X17365357Y-13993214D01*
X17322500Y-13993214D01*
X17293928Y-14007500D01*
X17279643Y-14021786D01*
X17593928Y-14193214D02*
X17565357Y-14178928D01*
X17551071Y-14164643D01*
X17536786Y-14136071D01*
X17536786Y-14050357D01*
X17551071Y-14021786D01*
X17565357Y-14007500D01*
X17593928Y-13993214D01*
X17636786Y-13993214D01*
X17665357Y-14007500D01*
X17679643Y-14021786D01*
X17693928Y-14050357D01*
X17693928Y-14136071D01*
X17679643Y-14164643D01*
X17665357Y-14178928D01*
X17636786Y-14193214D01*
X17593928Y-14193214D01*
X17865357Y-14193214D02*
X17836786Y-14178928D01*
X17822500Y-14150357D01*
X17822500Y-13893214D01*
X18093928Y-14178928D02*
X18065357Y-14193214D01*
X18008214Y-14193214D01*
X17979643Y-14178928D01*
X17965357Y-14150357D01*
X17965357Y-14036071D01*
X17979643Y-14007500D01*
X18008214Y-13993214D01*
X18065357Y-13993214D01*
X18093928Y-14007500D01*
X18108214Y-14036071D01*
X18108214Y-14064643D01*
X17965357Y-14093214D01*
X18222500Y-14178928D02*
X18251071Y-14193214D01*
X18308214Y-14193214D01*
X18336786Y-14178928D01*
X18351071Y-14150357D01*
X18351071Y-14136071D01*
X18336786Y-14107500D01*
X18308214Y-14093214D01*
X18265357Y-14093214D01*
X18236786Y-14078928D01*
X18222500Y-14050357D01*
X18222500Y-14036071D01*
X18236786Y-14007500D01*
X18265357Y-13993214D01*
X18308214Y-13993214D01*
X18336786Y-14007500D01*
X18451071Y-14307500D02*
X18465357Y-14293214D01*
X18493928Y-14250357D01*
X18508214Y-14221786D01*
X18522500Y-14178928D01*
X18536786Y-14107500D01*
X18536786Y-14050357D01*
X18522500Y-13978928D01*
X18508214Y-13936071D01*
X18493928Y-13907500D01*
X18465357Y-13864643D01*
X18451071Y-13850357D01*
X10837500Y-14318500D02*
X11107500Y-14588500D01*
X11107500Y-14318500D02*
X10837500Y-14588500D01*
X10972500Y-14318500D02*
X10972500Y-14588500D01*
X10837500Y-14453500D02*
X11107500Y-14453500D01*
X11379643Y-14317786D02*
X11393928Y-14303500D01*
X11422500Y-14289214D01*
X11493928Y-14289214D01*
X11522500Y-14303500D01*
X11536786Y-14317786D01*
X11551071Y-14346357D01*
X11551071Y-14374928D01*
X11536786Y-14417786D01*
X11365357Y-14589214D01*
X11551071Y-14589214D01*
X11679643Y-14560643D02*
X11693928Y-14574928D01*
X11679643Y-14589214D01*
X11665357Y-14574928D01*
X11679643Y-14560643D01*
X11679643Y-14589214D01*
X11793928Y-14289214D02*
X11993928Y-14289214D01*
X11865357Y-14589214D01*
X12165357Y-14289214D02*
X12193928Y-14289214D01*
X12222500Y-14303500D01*
X12236786Y-14317786D01*
X12251071Y-14346357D01*
X12265357Y-14403500D01*
X12265357Y-14474928D01*
X12251071Y-14532071D01*
X12236786Y-14560643D01*
X12222500Y-14574928D01*
X12193928Y-14589214D01*
X12165357Y-14589214D01*
X12136786Y-14574928D01*
X12122500Y-14560643D01*
X12108214Y-14532071D01*
X12093928Y-14474928D01*
X12093928Y-14403500D01*
X12108214Y-14346357D01*
X12122500Y-14317786D01*
X12136786Y-14303500D01*
X12165357Y-14289214D01*
X12451071Y-14289214D02*
X12479643Y-14289214D01*
X12508214Y-14303500D01*
X12522500Y-14317786D01*
X12536786Y-14346357D01*
X12551071Y-14403500D01*
X12551071Y-14474928D01*
X12536786Y-14532071D01*
X12522500Y-14560643D01*
X12508214Y-14574928D01*
X12479643Y-14589214D01*
X12451071Y-14589214D01*
X12422500Y-14574928D01*
X12408214Y-14560643D01*
X12393928Y-14532071D01*
X12379643Y-14474928D01*
X12379643Y-14403500D01*
X12393928Y-14346357D01*
X12408214Y-14317786D01*
X12422500Y-14303500D01*
X12451071Y-14289214D01*
X12679643Y-14589214D02*
X12679643Y-14389214D01*
X12679643Y-14417786D02*
X12693928Y-14403500D01*
X12722500Y-14389214D01*
X12765357Y-14389214D01*
X12793928Y-14403500D01*
X12808214Y-14432071D01*
X12808214Y-14589214D01*
X12808214Y-14432071D02*
X12822500Y-14403500D01*
X12851071Y-14389214D01*
X12893928Y-14389214D01*
X12922500Y-14403500D01*
X12936786Y-14432071D01*
X12936786Y-14589214D01*
X13079643Y-14589214D02*
X13079643Y-14389214D01*
X13079643Y-14417786D02*
X13093928Y-14403500D01*
X13122500Y-14389214D01*
X13165357Y-14389214D01*
X13193928Y-14403500D01*
X13208214Y-14432071D01*
X13208214Y-14589214D01*
X13208214Y-14432071D02*
X13222500Y-14403500D01*
X13251071Y-14389214D01*
X13293928Y-14389214D01*
X13322500Y-14403500D01*
X13336786Y-14432071D01*
X13336786Y-14589214D01*
X13922500Y-14274928D02*
X13665357Y-14660643D01*
X14308214Y-14289214D02*
X14336786Y-14289214D01*
X14365357Y-14303500D01*
X14379643Y-14317786D01*
X14393928Y-14346357D01*
X14408214Y-14403500D01*
X14408214Y-14474928D01*
X14393928Y-14532071D01*
X14379643Y-14560643D01*
X14365357Y-14574928D01*
X14336786Y-14589214D01*
X14308214Y-14589214D01*
X14279643Y-14574928D01*
X14265357Y-14560643D01*
X14251071Y-14532071D01*
X14236786Y-14474928D01*
X14236786Y-14403500D01*
X14251071Y-14346357D01*
X14265357Y-14317786D01*
X14279643Y-14303500D01*
X14308214Y-14289214D01*
X14536786Y-14560643D02*
X14551071Y-14574928D01*
X14536786Y-14589214D01*
X14522500Y-14574928D01*
X14536786Y-14560643D01*
X14536786Y-14589214D01*
X14836786Y-14589214D02*
X14665357Y-14589214D01*
X14751071Y-14589214D02*
X14751071Y-14289214D01*
X14722500Y-14332071D01*
X14693928Y-14360643D01*
X14665357Y-14374928D01*
X15022500Y-14289214D02*
X15051071Y-14289214D01*
X15079643Y-14303500D01*
X15093928Y-14317786D01*
X15108214Y-14346357D01*
X15122500Y-14403500D01*
X15122500Y-14474928D01*
X15108214Y-14532071D01*
X15093928Y-14560643D01*
X15079643Y-14574928D01*
X15051071Y-14589214D01*
X15022500Y-14589214D01*
X14993928Y-14574928D01*
X14979643Y-14560643D01*
X14965357Y-14532071D01*
X14951071Y-14474928D01*
X14951071Y-14403500D01*
X14965357Y-14346357D01*
X14979643Y-14317786D01*
X14993928Y-14303500D01*
X15022500Y-14289214D01*
X15379643Y-14289214D02*
X15322500Y-14289214D01*
X15293928Y-14303500D01*
X15279643Y-14317786D01*
X15251071Y-14360643D01*
X15236786Y-14417786D01*
X15236786Y-14532071D01*
X15251071Y-14560643D01*
X15265357Y-14574928D01*
X15293928Y-14589214D01*
X15351071Y-14589214D01*
X15379643Y-14574928D01*
X15393928Y-14560643D01*
X15408214Y-14532071D01*
X15408214Y-14460643D01*
X15393928Y-14432071D01*
X15379643Y-14417786D01*
X15351071Y-14403500D01*
X15293928Y-14403500D01*
X15265357Y-14417786D01*
X15251071Y-14432071D01*
X15236786Y-14460643D01*
X15508214Y-14289214D02*
X15693928Y-14289214D01*
X15593928Y-14403500D01*
X15636786Y-14403500D01*
X15665357Y-14417786D01*
X15679643Y-14432071D01*
X15693928Y-14460643D01*
X15693928Y-14532071D01*
X15679643Y-14560643D01*
X15665357Y-14574928D01*
X15636786Y-14589214D01*
X15551071Y-14589214D01*
X15522500Y-14574928D01*
X15508214Y-14560643D01*
X15808214Y-14289214D02*
X15808214Y-14346357D01*
X15922500Y-14289214D02*
X15922500Y-14346357D01*
X16365357Y-14703500D02*
X16351071Y-14689214D01*
X16322500Y-14646357D01*
X16308214Y-14617786D01*
X16293928Y-14574928D01*
X16279643Y-14503500D01*
X16279643Y-14446357D01*
X16293928Y-14374928D01*
X16308214Y-14332071D01*
X16322500Y-14303500D01*
X16351071Y-14260643D01*
X16365357Y-14246357D01*
X16608214Y-14389214D02*
X16608214Y-14589214D01*
X16536786Y-14274928D02*
X16465357Y-14489214D01*
X16651071Y-14489214D01*
X16993928Y-14589214D02*
X16993928Y-14289214D01*
X17122500Y-14589214D02*
X17122500Y-14432071D01*
X17108214Y-14403500D01*
X17079643Y-14389214D01*
X17036786Y-14389214D01*
X17008214Y-14403500D01*
X16993928Y-14417786D01*
X17308214Y-14589214D02*
X17279643Y-14574928D01*
X17265357Y-14560643D01*
X17251071Y-14532071D01*
X17251071Y-14446357D01*
X17265357Y-14417786D01*
X17279643Y-14403500D01*
X17308214Y-14389214D01*
X17351071Y-14389214D01*
X17379643Y-14403500D01*
X17393928Y-14417786D01*
X17408214Y-14446357D01*
X17408214Y-14532071D01*
X17393928Y-14560643D01*
X17379643Y-14574928D01*
X17351071Y-14589214D01*
X17308214Y-14589214D01*
X17579643Y-14589214D02*
X17551071Y-14574928D01*
X17536786Y-14546357D01*
X17536786Y-14289214D01*
X17808214Y-14574928D02*
X17779643Y-14589214D01*
X17722500Y-14589214D01*
X17693928Y-14574928D01*
X17679643Y-14546357D01*
X17679643Y-14432071D01*
X17693928Y-14403500D01*
X17722500Y-14389214D01*
X17779643Y-14389214D01*
X17808214Y-14403500D01*
X17822500Y-14432071D01*
X17822500Y-14460643D01*
X17679643Y-14489214D01*
X17936786Y-14574928D02*
X17965357Y-14589214D01*
X18022500Y-14589214D01*
X18051071Y-14574928D01*
X18065357Y-14546357D01*
X18065357Y-14532071D01*
X18051071Y-14503500D01*
X18022500Y-14489214D01*
X17979643Y-14489214D01*
X17951071Y-14474928D01*
X17936786Y-14446357D01*
X17936786Y-14432071D01*
X17951071Y-14403500D01*
X17979643Y-14389214D01*
X18022500Y-14389214D01*
X18051071Y-14403500D01*
X18165357Y-14703500D02*
X18179643Y-14689214D01*
X18208214Y-14646357D01*
X18222500Y-14617786D01*
X18236786Y-14574928D01*
X18251071Y-14503500D01*
X18251071Y-14446357D01*
X18236786Y-14374928D01*
X18222500Y-14332071D01*
X18208214Y-14303500D01*
X18179643Y-14260643D01*
X18165357Y-14246357D01*
X10807500Y-14703500D02*
X11107500Y-15003500D01*
X11107500Y-14703500D02*
X10807500Y-15003500D01*
X11063567Y-14959567D02*
X11063567Y-14747433D01*
X10851433Y-14747433D01*
X10851433Y-14959567D01*
X11063567Y-14959567D01*
X11365357Y-14689214D02*
X11551071Y-14689214D01*
X11451071Y-14803500D01*
X11493928Y-14803500D01*
X11522500Y-14817786D01*
X11536786Y-14832071D01*
X11551071Y-14860643D01*
X11551071Y-14932071D01*
X11536786Y-14960643D01*
X11522500Y-14974928D01*
X11493928Y-14989214D01*
X11408214Y-14989214D01*
X11379643Y-14974928D01*
X11365357Y-14960643D01*
X11679643Y-14960643D02*
X11693928Y-14974928D01*
X11679643Y-14989214D01*
X11665357Y-14974928D01*
X11679643Y-14960643D01*
X11679643Y-14989214D01*
X11879643Y-14689214D02*
X11908214Y-14689214D01*
X11936786Y-14703500D01*
X11951071Y-14717786D01*
X11965357Y-14746357D01*
X11979643Y-14803500D01*
X11979643Y-14874928D01*
X11965357Y-14932071D01*
X11951071Y-14960643D01*
X11936786Y-14974928D01*
X11908214Y-14989214D01*
X11879643Y-14989214D01*
X11851071Y-14974928D01*
X11836786Y-14960643D01*
X11822500Y-14932071D01*
X11808214Y-14874928D01*
X11808214Y-14803500D01*
X11822500Y-14746357D01*
X11836786Y-14717786D01*
X11851071Y-14703500D01*
X11879643Y-14689214D01*
X12165357Y-14689214D02*
X12193928Y-14689214D01*
X12222500Y-14703500D01*
X12236786Y-14717786D01*
X12251071Y-14746357D01*
X12265357Y-14803500D01*
X12265357Y-14874928D01*
X12251071Y-14932071D01*
X12236786Y-14960643D01*
X12222500Y-14974928D01*
X12193928Y-14989214D01*
X12165357Y-14989214D01*
X12136786Y-14974928D01*
X12122500Y-14960643D01*
X12108214Y-14932071D01*
X12093928Y-14874928D01*
X12093928Y-14803500D01*
X12108214Y-14746357D01*
X12122500Y-14717786D01*
X12136786Y-14703500D01*
X12165357Y-14689214D01*
X12451071Y-14689214D02*
X12479643Y-14689214D01*
X12508214Y-14703500D01*
X12522500Y-14717786D01*
X12536786Y-14746357D01*
X12551071Y-14803500D01*
X12551071Y-14874928D01*
X12536786Y-14932071D01*
X12522500Y-14960643D01*
X12508214Y-14974928D01*
X12479643Y-14989214D01*
X12451071Y-14989214D01*
X12422500Y-14974928D01*
X12408214Y-14960643D01*
X12393928Y-14932071D01*
X12379643Y-14874928D01*
X12379643Y-14803500D01*
X12393928Y-14746357D01*
X12408214Y-14717786D01*
X12422500Y-14703500D01*
X12451071Y-14689214D01*
X12679643Y-14989214D02*
X12679643Y-14789214D01*
X12679643Y-14817786D02*
X12693928Y-14803500D01*
X12722500Y-14789214D01*
X12765357Y-14789214D01*
X12793928Y-14803500D01*
X12808214Y-14832071D01*
X12808214Y-14989214D01*
X12808214Y-14832071D02*
X12822500Y-14803500D01*
X12851071Y-14789214D01*
X12893928Y-14789214D01*
X12922500Y-14803500D01*
X12936786Y-14832071D01*
X12936786Y-14989214D01*
X13079643Y-14989214D02*
X13079643Y-14789214D01*
X13079643Y-14817786D02*
X13093928Y-14803500D01*
X13122500Y-14789214D01*
X13165357Y-14789214D01*
X13193928Y-14803500D01*
X13208214Y-14832071D01*
X13208214Y-14989214D01*
X13208214Y-14832071D02*
X13222500Y-14803500D01*
X13251071Y-14789214D01*
X13293928Y-14789214D01*
X13322500Y-14803500D01*
X13336786Y-14832071D01*
X13336786Y-14989214D01*
X13922500Y-14674928D02*
X13665357Y-15060643D01*
X14308214Y-14689214D02*
X14336786Y-14689214D01*
X14365357Y-14703500D01*
X14379643Y-14717786D01*
X14393928Y-14746357D01*
X14408214Y-14803500D01*
X14408214Y-14874928D01*
X14393928Y-14932071D01*
X14379643Y-14960643D01*
X14365357Y-14974928D01*
X14336786Y-14989214D01*
X14308214Y-14989214D01*
X14279643Y-14974928D01*
X14265357Y-14960643D01*
X14251071Y-14932071D01*
X14236786Y-14874928D01*
X14236786Y-14803500D01*
X14251071Y-14746357D01*
X14265357Y-14717786D01*
X14279643Y-14703500D01*
X14308214Y-14689214D01*
X14536786Y-14960643D02*
X14551071Y-14974928D01*
X14536786Y-14989214D01*
X14522500Y-14974928D01*
X14536786Y-14960643D01*
X14536786Y-14989214D01*
X14836786Y-14989214D02*
X14665357Y-14989214D01*
X14751071Y-14989214D02*
X14751071Y-14689214D01*
X14722500Y-14732071D01*
X14693928Y-14760643D01*
X14665357Y-14774928D01*
X15122500Y-14989214D02*
X14951071Y-14989214D01*
X15036786Y-14989214D02*
X15036786Y-14689214D01*
X15008214Y-14732071D01*
X14979643Y-14760643D01*
X14951071Y-14774928D01*
X15293928Y-14817786D02*
X15265357Y-14803500D01*
X15251071Y-14789214D01*
X15236786Y-14760643D01*
X15236786Y-14746357D01*
X15251071Y-14717786D01*
X15265357Y-14703500D01*
X15293928Y-14689214D01*
X15351071Y-14689214D01*
X15379643Y-14703500D01*
X15393928Y-14717786D01*
X15408214Y-14746357D01*
X15408214Y-14760643D01*
X15393928Y-14789214D01*
X15379643Y-14803500D01*
X15351071Y-14817786D01*
X15293928Y-14817786D01*
X15265357Y-14832071D01*
X15251071Y-14846357D01*
X15236786Y-14874928D01*
X15236786Y-14932071D01*
X15251071Y-14960643D01*
X15265357Y-14974928D01*
X15293928Y-14989214D01*
X15351071Y-14989214D01*
X15379643Y-14974928D01*
X15393928Y-14960643D01*
X15408214Y-14932071D01*
X15408214Y-14874928D01*
X15393928Y-14846357D01*
X15379643Y-14832071D01*
X15351071Y-14817786D01*
X15693928Y-14989214D02*
X15522500Y-14989214D01*
X15608214Y-14989214D02*
X15608214Y-14689214D01*
X15579643Y-14732071D01*
X15551071Y-14760643D01*
X15522500Y-14774928D01*
X15808214Y-14689214D02*
X15808214Y-14746357D01*
X15922500Y-14689214D02*
X15922500Y-14746357D01*
X16365357Y-15103500D02*
X16351071Y-15089214D01*
X16322500Y-15046357D01*
X16308214Y-15017786D01*
X16293928Y-14974928D01*
X16279643Y-14903500D01*
X16279643Y-14846357D01*
X16293928Y-14774928D01*
X16308214Y-14732071D01*
X16322500Y-14703500D01*
X16351071Y-14660643D01*
X16365357Y-14646357D01*
X16608214Y-14789214D02*
X16608214Y-14989214D01*
X16536786Y-14674928D02*
X16465357Y-14889214D01*
X16651071Y-14889214D01*
X16993928Y-14989214D02*
X16993928Y-14689214D01*
X17122500Y-14989214D02*
X17122500Y-14832071D01*
X17108214Y-14803500D01*
X17079643Y-14789214D01*
X17036786Y-14789214D01*
X17008214Y-14803500D01*
X16993928Y-14817786D01*
X17308214Y-14989214D02*
X17279643Y-14974928D01*
X17265357Y-14960643D01*
X17251071Y-14932071D01*
X17251071Y-14846357D01*
X17265357Y-14817786D01*
X17279643Y-14803500D01*
X17308214Y-14789214D01*
X17351071Y-14789214D01*
X17379643Y-14803500D01*
X17393928Y-14817786D01*
X17408214Y-14846357D01*
X17408214Y-14932071D01*
X17393928Y-14960643D01*
X17379643Y-14974928D01*
X17351071Y-14989214D01*
X17308214Y-14989214D01*
X17579643Y-14989214D02*
X17551071Y-14974928D01*
X17536786Y-14946357D01*
X17536786Y-14689214D01*
X17808214Y-14974928D02*
X17779643Y-14989214D01*
X17722500Y-14989214D01*
X17693928Y-14974928D01*
X17679643Y-14946357D01*
X17679643Y-14832071D01*
X17693928Y-14803500D01*
X17722500Y-14789214D01*
X17779643Y-14789214D01*
X17808214Y-14803500D01*
X17822500Y-14832071D01*
X17822500Y-14860643D01*
X17679643Y-14889214D01*
X17936786Y-14974928D02*
X17965357Y-14989214D01*
X18022500Y-14989214D01*
X18051071Y-14974928D01*
X18065357Y-14946357D01*
X18065357Y-14932071D01*
X18051071Y-14903500D01*
X18022500Y-14889214D01*
X17979643Y-14889214D01*
X17951071Y-14874928D01*
X17936786Y-14846357D01*
X17936786Y-14832071D01*
X17951071Y-14803500D01*
X17979643Y-14789214D01*
X18022500Y-14789214D01*
X18051071Y-14803500D01*
X18165357Y-15103500D02*
X18179643Y-15089214D01*
X18208214Y-15046357D01*
X18222500Y-15017786D01*
X18236786Y-14974928D01*
X18251071Y-14903500D01*
X18251071Y-14846357D01*
X18236786Y-14774928D01*
X18222500Y-14732071D01*
X18208214Y-14703500D01*
X18179643Y-14660643D01*
X18165357Y-14646357D01*
M02*
