M48
; DRILL file {KiCad (5.1.10)-1} date 04/17/22 04:03:37
; FORMAT={-:-/ absolute / metric / decimal}
; #@! TF.CreationDate,2022-04-17T04:03:37-07:00
; #@! TF.GenerationSoftware,Kicad,Pcbnew,(5.1.10)-1
; #@! TF.FileFunction,Plated,1,2,PTH
FMAT,2
METRIC
T1C0.400
T2C0.700
T3C0.750
T4C0.762
T5C1.000
T6C1.100
T7C2.700
T8C3.000
%
G90
G05
T1
X180.213Y-95.975
X180.216Y-93.379
X182.766Y-95.928
X182.766Y-93.379
T2
X168.387Y-91.203
X168.387Y-93.203
X168.387Y-95.203
X168.387Y-97.203
X168.387Y-99.203
X168.387Y-101.203
X168.387Y-103.203
X168.387Y-105.203
X168.387Y-107.203
X168.387Y-109.203
X190.387Y-91.203
X190.387Y-93.203
X190.387Y-95.203
X190.387Y-97.203
X190.387Y-99.203
X190.387Y-101.203
X190.387Y-103.203
X190.387Y-105.203
X190.387Y-107.203
X190.387Y-109.203
T3
X125.067Y-101.8
X125.067Y-103.8
X125.067Y-105.8
X125.067Y-107.8
X127.067Y-101.8
X127.067Y-103.8
X127.067Y-105.8
X127.067Y-107.8
X129.067Y-101.8
X129.067Y-103.8
X129.067Y-105.8
X129.067Y-107.8
X131.067Y-101.8
X131.067Y-103.8
X131.067Y-105.8
X131.067Y-107.8
T4
X121.666Y-96.647
X124.206Y-96.647
X126.746Y-96.647
X129.286Y-96.647
X131.836Y-96.657
X140.017Y-103.95
X142.558Y-103.95
X145.097Y-81.09
X145.097Y-103.95
X147.637Y-81.09
X147.637Y-103.95
X150.177Y-81.09
X150.177Y-103.95
X152.718Y-81.09
X152.718Y-103.95
X155.257Y-103.95
X157.797Y-103.95
T5
X140.052Y-107.378
X142.591Y-107.378
X145.131Y-107.378
X147.671Y-107.378
X150.212Y-107.378
X152.751Y-107.378
X155.291Y-107.378
X157.832Y-107.378
X164.973Y-86.042
X164.973Y-88.582
X164.973Y-91.123
X164.973Y-93.662
X164.973Y-96.203
X164.973Y-98.742
X164.973Y-101.282
X164.973Y-103.822
X164.973Y-106.362
X164.973Y-108.902
X194.564Y-81.026
X194.564Y-83.566
X194.564Y-86.106
X194.564Y-88.646
X194.564Y-91.186
X194.564Y-93.726
X194.564Y-96.266
X194.564Y-98.806
X194.564Y-101.346
X194.564Y-103.886
T6
X117.667Y-102.2
X117.667Y-104.74
X117.667Y-107.28
X131.953Y-62.674
X131.953Y-77.914
X134.493Y-62.674
X134.493Y-77.914
X137.033Y-62.674
X137.033Y-77.914
X139.573Y-62.674
X139.573Y-77.914
X142.113Y-62.674
X142.113Y-77.914
X144.653Y-62.674
X144.653Y-77.914
X147.193Y-62.674
X147.193Y-77.914
X149.733Y-62.674
X149.733Y-77.914
X152.273Y-62.674
X152.273Y-77.914
X154.813Y-62.674
X154.813Y-77.914
X157.353Y-62.674
X157.353Y-77.914
X159.893Y-62.674
X159.893Y-77.914
X162.433Y-62.674
X162.433Y-77.914
X164.973Y-62.674
X164.973Y-77.914
X167.513Y-62.674
X167.513Y-77.914
X170.053Y-62.674
X170.053Y-77.914
X172.593Y-62.674
X172.593Y-77.914
X175.133Y-62.674
X175.133Y-77.914
X177.673Y-62.674
X177.673Y-77.914
X180.213Y-62.674
X180.213Y-77.914
X182.753Y-62.674
X182.753Y-77.914
X185.293Y-62.674
X185.293Y-77.914
X187.833Y-62.674
X187.833Y-77.914
X190.373Y-62.674
X190.373Y-77.914
T7
X119.396Y-74.358
X119.587Y-65.977
X124.396Y-74.358
X124.587Y-65.977
T8
X114.3Y-63.5
X114.3Y-107.95
X193.675Y-63.5
X193.675Y-107.95
T0
M30
