G04 #@! TF.GenerationSoftware,KiCad,Pcbnew,(5.1.10)-1*
G04 #@! TF.CreationDate,2022-04-17T04:02:28-07:00*
G04 #@! TF.ProjectId,GPS_Board,4750535f-426f-4617-9264-2e6b69636164,rev?*
G04 #@! TF.SameCoordinates,Original*
G04 #@! TF.FileFunction,Copper,L1,Top*
G04 #@! TF.FilePolarity,Positive*
%FSLAX46Y46*%
G04 Gerber Fmt 4.6, Leading zero omitted, Abs format (unit mm)*
G04 Created by KiCad (PCBNEW (5.1.10)-1) date 2022-04-17 04:02:28*
%MOMM*%
%LPD*%
G01*
G04 APERTURE LIST*
G04 #@! TA.AperFunction,ComponentPad*
%ADD10C,1.600000*%
G04 #@! TD*
G04 #@! TA.AperFunction,ComponentPad*
%ADD11R,1.600000X1.600000*%
G04 #@! TD*
G04 #@! TA.AperFunction,SMDPad,CuDef*
%ADD12R,0.900000X0.600000*%
G04 #@! TD*
G04 #@! TA.AperFunction,ComponentPad*
%ADD13C,1.300000*%
G04 #@! TD*
G04 #@! TA.AperFunction,ComponentPad*
%ADD14R,2.000000X1.905000*%
G04 #@! TD*
G04 #@! TA.AperFunction,ComponentPad*
%ADD15O,2.000000X1.905000*%
G04 #@! TD*
G04 #@! TA.AperFunction,SMDPad,CuDef*
%ADD16R,8.000000X8.000000*%
G04 #@! TD*
G04 #@! TA.AperFunction,SMDPad,CuDef*
%ADD17C,2.000000*%
G04 #@! TD*
G04 #@! TA.AperFunction,ComponentPad*
%ADD18C,1.524000*%
G04 #@! TD*
G04 #@! TA.AperFunction,ComponentPad*
%ADD19R,3.800000X3.800000*%
G04 #@! TD*
G04 #@! TA.AperFunction,ComponentPad*
%ADD20C,3.800000*%
G04 #@! TD*
G04 #@! TA.AperFunction,SMDPad,CuDef*
%ADD21R,0.600000X0.900000*%
G04 #@! TD*
G04 #@! TA.AperFunction,ComponentPad*
%ADD22O,1.700000X1.700000*%
G04 #@! TD*
G04 #@! TA.AperFunction,ComponentPad*
%ADD23R,1.700000X1.700000*%
G04 #@! TD*
G04 #@! TA.AperFunction,ViaPad*
%ADD24C,3.150000*%
G04 #@! TD*
G04 #@! TA.AperFunction,ViaPad*
%ADD25C,1.000000*%
G04 #@! TD*
G04 #@! TA.AperFunction,ViaPad*
%ADD26C,0.800000*%
G04 #@! TD*
G04 #@! TA.AperFunction,Conductor*
%ADD27C,0.150000*%
G04 #@! TD*
G04 #@! TA.AperFunction,Conductor*
%ADD28C,2.000000*%
G04 #@! TD*
G04 #@! TA.AperFunction,Conductor*
%ADD29C,1.000000*%
G04 #@! TD*
G04 #@! TA.AperFunction,Conductor*
%ADD30C,0.250000*%
G04 #@! TD*
G04 #@! TA.AperFunction,Conductor*
%ADD31C,0.800000*%
G04 #@! TD*
G04 APERTURE END LIST*
D10*
X172593000Y-77914500D03*
X175133000Y-77914500D03*
X177673000Y-77914500D03*
X180213000Y-77914500D03*
X170053000Y-77914500D03*
X167513000Y-77914500D03*
X164973000Y-77914500D03*
X182753000Y-77914500D03*
X185293000Y-77914500D03*
X187833000Y-77914500D03*
X190373000Y-77914500D03*
X190373000Y-62674500D03*
X187833000Y-62674500D03*
X185293000Y-62674500D03*
X182753000Y-62674500D03*
X180213000Y-62674500D03*
X177673000Y-62674500D03*
X175133000Y-62674500D03*
X172593000Y-62674500D03*
X170053000Y-62674500D03*
X167513000Y-62674500D03*
X162433000Y-77914500D03*
X159893000Y-77914500D03*
X157353000Y-77914500D03*
X154813000Y-77914500D03*
X152273000Y-77914500D03*
X149733000Y-77914500D03*
X147193000Y-77914500D03*
X144653000Y-77914500D03*
X142113000Y-77914500D03*
X139573000Y-77914500D03*
X137033000Y-77914500D03*
X134493000Y-77914500D03*
D11*
X131953000Y-77914500D03*
D10*
X164973000Y-62674500D03*
X162433000Y-62674500D03*
X159893000Y-62674500D03*
X157353000Y-62674500D03*
X154813000Y-62674500D03*
X152273000Y-62674500D03*
X149733000Y-62674500D03*
X147193000Y-62674500D03*
X144653000Y-62674500D03*
X142113000Y-62674500D03*
X139573000Y-62674500D03*
X137033000Y-62674500D03*
X134493000Y-62674500D03*
X131953000Y-62674500D03*
D12*
X172641500Y-82103500D03*
X172641500Y-80603500D03*
D13*
X168387500Y-101203000D03*
X168387500Y-95203000D03*
X168387500Y-99203000D03*
X168387500Y-93203000D03*
X168387500Y-107203000D03*
X168387500Y-105203000D03*
X168387500Y-109203000D03*
X168387500Y-103203000D03*
X168387500Y-91203000D03*
X168387500Y-97203000D03*
X190387500Y-93203000D03*
X190387500Y-91203000D03*
X190387500Y-97203000D03*
X190387500Y-95203000D03*
X190387500Y-101203000D03*
X190387500Y-99203000D03*
X190387500Y-105203000D03*
X190387500Y-103203000D03*
X190387500Y-107203000D03*
X190387500Y-109203000D03*
D14*
X117666800Y-102200400D03*
D15*
X117666800Y-104740400D03*
X117666800Y-107280400D03*
D16*
X128066800Y-104800400D03*
D17*
X188991500Y-86703500D03*
X113157000Y-89535000D03*
D18*
X121666000Y-96647000D03*
X124206000Y-96647000D03*
X131836000Y-96657000D03*
X129286000Y-96647000D03*
X126746000Y-96647000D03*
D17*
X113474500Y-103378000D03*
X135616500Y-97628500D03*
X113066500Y-74328500D03*
D18*
X145097500Y-81089500D03*
X147637500Y-81089500D03*
X150177500Y-81089500D03*
X152717500Y-81089500D03*
X147637500Y-103949500D03*
X145097500Y-103949500D03*
X140017500Y-103949500D03*
X142557500Y-103949500D03*
X157797500Y-103949500D03*
X150177500Y-103949500D03*
X152717500Y-103949500D03*
X155257500Y-103949500D03*
D19*
X124587000Y-65976500D03*
D20*
X119587000Y-65976500D03*
X124396500Y-74358500D03*
D19*
X119396500Y-74358500D03*
D21*
X136291500Y-88678500D03*
X134791500Y-88678500D03*
X134791500Y-86128500D03*
X136291500Y-86128500D03*
D12*
X170041500Y-80603500D03*
X170041500Y-82103500D03*
D22*
X194564000Y-103886000D03*
X194564000Y-101346000D03*
X194564000Y-98806000D03*
X194564000Y-96266000D03*
X194564000Y-93726000D03*
X194564000Y-91186000D03*
X194564000Y-88646000D03*
X194564000Y-86106000D03*
X194564000Y-83566000D03*
D23*
X194564000Y-81026000D03*
X164973000Y-86042500D03*
D22*
X164973000Y-88582500D03*
X164973000Y-91122500D03*
X164973000Y-93662500D03*
X164973000Y-96202500D03*
X164973000Y-98742500D03*
X164973000Y-101282500D03*
X164973000Y-103822500D03*
X164973000Y-106362500D03*
X164973000Y-108902500D03*
D23*
X157831500Y-107378500D03*
D22*
X155291500Y-107378500D03*
X152751500Y-107378500D03*
X150211500Y-107378500D03*
X147671500Y-107378500D03*
X145131500Y-107378500D03*
X142591500Y-107378500D03*
X140051500Y-107378500D03*
D17*
X135141500Y-82353500D03*
X172641500Y-86678500D03*
D21*
X134716500Y-94728500D03*
X136216500Y-94728500D03*
X136266500Y-92178500D03*
X134766500Y-92178500D03*
D24*
X193675000Y-63500000D03*
X193675000Y-107950000D03*
X114300000Y-107950000D03*
X114300000Y-63500000D03*
D25*
X125066800Y-101800400D03*
X127066800Y-101800400D03*
X125066800Y-103800400D03*
X125066800Y-105800400D03*
X127066800Y-103800400D03*
X127066800Y-105800400D03*
X129066800Y-101800400D03*
X129066800Y-103800400D03*
X131066800Y-101800400D03*
X131066800Y-103800400D03*
X129066800Y-105800400D03*
X131066800Y-105800400D03*
X131066800Y-107800400D03*
X129066800Y-107800400D03*
X127066800Y-107800400D03*
X125066800Y-107800400D03*
D26*
X180213005Y-95975005D03*
X180216500Y-93378500D03*
X182766496Y-95928500D03*
X182766500Y-93378500D03*
D27*
X113157000Y-100457000D02*
X113157000Y-89535000D01*
X117665500Y-104711500D02*
X117411500Y-104711500D01*
X117411500Y-104711500D02*
X113157000Y-100457000D01*
D28*
X126746000Y-103479600D02*
X128066800Y-104800400D01*
X126746000Y-96647000D02*
X126746000Y-103479600D01*
X129286000Y-103581200D02*
X128066800Y-104800400D01*
X129286000Y-96647000D02*
X129286000Y-103581200D01*
X128006800Y-104740400D02*
X128066800Y-104800400D01*
X117666800Y-104740400D02*
X128006800Y-104740400D01*
D27*
X190387500Y-88099500D02*
X188991500Y-86703500D01*
X190387500Y-91203000D02*
X190387500Y-88099500D01*
X152717500Y-107344500D02*
X152751500Y-107378500D01*
X152717500Y-103949500D02*
X152717500Y-107344500D01*
D29*
X130556000Y-62674500D02*
X131953000Y-62674500D01*
X127766500Y-65464000D02*
X130556000Y-62674500D01*
X127766500Y-91153500D02*
X127766500Y-65464000D01*
X131836000Y-95223000D02*
X127766500Y-91153500D01*
X131836000Y-96657000D02*
X131836000Y-95223000D01*
D30*
X135616500Y-97628500D02*
X135616500Y-97326000D01*
X134645000Y-96657000D02*
X135616500Y-97628500D01*
X131836000Y-96657000D02*
X134645000Y-96657000D01*
D28*
X119587000Y-65976500D02*
X119587000Y-68660000D01*
X119587000Y-68660000D02*
X121158000Y-70231000D01*
X121158000Y-70231000D02*
X123507500Y-70231000D01*
X124396500Y-71120000D02*
X124396500Y-74358500D01*
X123507500Y-70231000D02*
X124396500Y-71120000D01*
D27*
X117614700Y-107251500D02*
X117665500Y-107251500D01*
X114236500Y-103822500D02*
X114236500Y-103873300D01*
X114236500Y-103873300D02*
X117614700Y-107251500D01*
X170066500Y-82128500D02*
X170041500Y-82103500D01*
X172641500Y-82128500D02*
X170066500Y-82128500D01*
X136291500Y-88678500D02*
X136291500Y-86128500D01*
X135141500Y-82353500D02*
X135141500Y-83853500D01*
X135141500Y-83853500D02*
X136291500Y-85003500D01*
X136291500Y-85003500D02*
X136291500Y-86128500D01*
D31*
X189115511Y-110474989D02*
X190387500Y-109203000D01*
X117666800Y-107280400D02*
X120861389Y-110474989D01*
X147262989Y-110474989D02*
X189115511Y-110474989D01*
D27*
X147671500Y-108898500D02*
X146095011Y-110474989D01*
X147671500Y-107378500D02*
X147671500Y-108898500D01*
D31*
X146095011Y-110474989D02*
X147262989Y-110474989D01*
X120861389Y-110474989D02*
X146095011Y-110474989D01*
D27*
X147637500Y-107344500D02*
X147671500Y-107378500D01*
X147637500Y-103949500D02*
X147637500Y-107344500D01*
X136291500Y-89278500D02*
X136291500Y-88678500D01*
X135691500Y-89878500D02*
X136291500Y-89278500D01*
X134066500Y-89878500D02*
X135691500Y-89878500D01*
X128866500Y-84678500D02*
X134066500Y-89878500D01*
X128866500Y-74128500D02*
X128866500Y-84678500D01*
X137033000Y-65962000D02*
X128866500Y-74128500D01*
X137033000Y-62674500D02*
X137033000Y-65962000D01*
X172641500Y-82103500D02*
X172641500Y-86678500D01*
X168941500Y-82103500D02*
X170041500Y-82103500D01*
X167513000Y-80675000D02*
X168941500Y-82103500D01*
X167513000Y-77914500D02*
X167513000Y-80675000D01*
X194564000Y-101346000D02*
X193220531Y-101346000D01*
X192712530Y-102246380D02*
X191812511Y-103146399D01*
X191812511Y-103146399D02*
X191812511Y-105777989D01*
X191812511Y-105777989D02*
X190387500Y-107203000D01*
X193220531Y-101346000D02*
X192712531Y-101854000D01*
X192712531Y-101854000D02*
X192712530Y-102246380D01*
X190387500Y-107203000D02*
X180213005Y-97028505D01*
X180213005Y-97028505D02*
X180213005Y-95975005D01*
X180216500Y-77918000D02*
X180213000Y-77914500D01*
X180216500Y-93378500D02*
X180216500Y-77918000D01*
X194564000Y-98806000D02*
X193231910Y-98806000D01*
X191362501Y-102959999D02*
X191362501Y-104227999D01*
X191362501Y-104227999D02*
X190387500Y-105203000D01*
X193231910Y-98806000D02*
X192262521Y-99775389D01*
X192262521Y-99775389D02*
X192262521Y-102059979D01*
X192262521Y-102059979D02*
X191362501Y-102959999D01*
X182766496Y-97581996D02*
X182766496Y-95928500D01*
X190387500Y-105203000D02*
X182766496Y-97581996D01*
X182766500Y-77928000D02*
X182753000Y-77914500D01*
X182766500Y-93378500D02*
X182766500Y-77928000D01*
X190387500Y-96759500D02*
X190387500Y-97203000D01*
X194564000Y-88646000D02*
X192786000Y-88646000D01*
X192786000Y-88646000D02*
X192151000Y-89281000D01*
X192151000Y-89281000D02*
X192151000Y-94996000D01*
X192151000Y-94996000D02*
X190387500Y-96759500D01*
X188325500Y-97203000D02*
X190387500Y-97203000D01*
X172593000Y-80580000D02*
X172641500Y-80628500D01*
X172593000Y-77914500D02*
X172593000Y-80580000D01*
X173718001Y-79039501D02*
X172593000Y-77914500D01*
X175793000Y-79039501D02*
X173718001Y-79039501D01*
X176403000Y-78429501D02*
X175793000Y-79039501D01*
X176403000Y-75092000D02*
X176403000Y-78429501D01*
X177191500Y-74303500D02*
X176403000Y-75092000D01*
X183116500Y-74303500D02*
X177191500Y-74303500D01*
X184086500Y-75273500D02*
X183116500Y-74303500D01*
X184086500Y-92964000D02*
X184086500Y-75273500D01*
X188325500Y-97203000D02*
X184086500Y-92964000D01*
X164973000Y-91122500D02*
X166433500Y-92583000D01*
X167068500Y-94869000D02*
X168053500Y-94869000D01*
X168053500Y-94869000D02*
X168387500Y-95203000D01*
X166433500Y-94234000D02*
X167068500Y-94869000D01*
X166433500Y-92583000D02*
X166433500Y-94234000D01*
X175133000Y-76783130D02*
X175133000Y-77914500D01*
X161307999Y-79320655D02*
X161307999Y-75262001D01*
X172366500Y-73728500D02*
X175133000Y-76495000D01*
X162841500Y-73728500D02*
X172366500Y-73728500D01*
X161307999Y-75262001D02*
X162841500Y-73728500D01*
X163002978Y-81015634D02*
X161307999Y-79320655D01*
X175133000Y-76495000D02*
X175133000Y-76783130D01*
X164973000Y-91122500D02*
X163002978Y-89152478D01*
X163002978Y-89152478D02*
X163002978Y-81015634D01*
X170053000Y-77914500D02*
X170053000Y-78486000D01*
X167547000Y-106362500D02*
X168387500Y-107203000D01*
X164973000Y-106362500D02*
X167547000Y-106362500D01*
X170053000Y-80592000D02*
X170041500Y-80603500D01*
X170053000Y-77914500D02*
X170053000Y-80592000D01*
X170053000Y-74890000D02*
X170053000Y-77914500D01*
X169241500Y-74078500D02*
X170053000Y-74890000D01*
X164541500Y-74078500D02*
X169241500Y-74078500D01*
X163816500Y-82600998D02*
X163816500Y-74803500D01*
X163816500Y-74803500D02*
X164541500Y-74078500D01*
X170116500Y-88900998D02*
X163816500Y-82600998D01*
X170116500Y-105474000D02*
X170116500Y-88900998D01*
X168387500Y-107203000D02*
X170116500Y-105474000D01*
X158368520Y-61150020D02*
X159893000Y-62674500D01*
X147637500Y-81089500D02*
X149687499Y-79039501D01*
X149687499Y-79039501D02*
X150455499Y-79039501D01*
X150455499Y-79039501D02*
X151147999Y-78347001D01*
X151147999Y-69197001D02*
X153516500Y-66828500D01*
X151147999Y-78347001D02*
X151147999Y-69197001D01*
X153516500Y-66828500D02*
X153516500Y-62320000D01*
X153516500Y-62320000D02*
X154686480Y-61150020D01*
X154686480Y-61150020D02*
X158368520Y-61150020D01*
X152725001Y-80002499D02*
X154813000Y-77914500D01*
X150177500Y-81089500D02*
X151264501Y-80002499D01*
X151264501Y-80002499D02*
X152725001Y-80002499D01*
X162433000Y-66137000D02*
X162433000Y-62674500D01*
X153398001Y-75171999D02*
X162433000Y-66137000D01*
X153398001Y-78454501D02*
X153398001Y-75171999D01*
X149873899Y-79489511D02*
X152362991Y-79489511D01*
X149090499Y-81611261D02*
X149090499Y-80272911D01*
X149655739Y-82176501D02*
X149090499Y-81611261D01*
X152362991Y-79489511D02*
X153398001Y-78454501D01*
X151630499Y-82176501D02*
X149655739Y-82176501D01*
X149090499Y-80272911D02*
X149873899Y-79489511D01*
X152717500Y-81089500D02*
X151630499Y-82176501D01*
X137414000Y-78295500D02*
X137033000Y-77914500D01*
X138689510Y-84268600D02*
X137414000Y-82993090D01*
X137414000Y-82993090D02*
X137414000Y-78295500D01*
X145097500Y-107344500D02*
X145131500Y-107378500D01*
X145097500Y-103949500D02*
X145097500Y-107344500D01*
X136816500Y-92178500D02*
X136266500Y-92178500D01*
X145097500Y-100459500D02*
X136816500Y-92178500D01*
X145097500Y-103949500D02*
X145097500Y-100459500D01*
X134766500Y-92178500D02*
X134766500Y-91328500D01*
X134766500Y-91328500D02*
X135316500Y-90778500D01*
X135316500Y-90778500D02*
X137566500Y-90778500D01*
X138689510Y-89655490D02*
X138689510Y-84268600D01*
X137566500Y-90778500D02*
X138689510Y-89655490D01*
X142557500Y-107344500D02*
X142591500Y-107378500D01*
X142557500Y-103949500D02*
X142557500Y-107344500D01*
X142557500Y-100469500D02*
X142557500Y-103949500D01*
X136816500Y-94728500D02*
X142557500Y-100469500D01*
X136216500Y-94728500D02*
X136816500Y-94728500D01*
X136866500Y-83082000D02*
X136866500Y-80288000D01*
X138239500Y-89055500D02*
X138239500Y-84455000D01*
X136866500Y-90428500D02*
X138239500Y-89055500D01*
X133666500Y-90428500D02*
X136866500Y-90428500D01*
X132766500Y-91328500D02*
X133666500Y-90428500D01*
X136866500Y-80288000D02*
X134493000Y-77914500D01*
X132766500Y-93378500D02*
X132766500Y-91328500D01*
X134116500Y-94728500D02*
X132766500Y-93378500D01*
X138239500Y-84455000D02*
X136866500Y-83082000D01*
X134716500Y-94728500D02*
X134116500Y-94728500D01*
X157797500Y-107344500D02*
X157831500Y-107378500D01*
X157797500Y-103949500D02*
X157797500Y-107344500D01*
X157797500Y-94384500D02*
X157797500Y-103949500D01*
X146441500Y-83028500D02*
X157797500Y-94384500D01*
X146441500Y-80353500D02*
X146441500Y-83028500D01*
X148526500Y-78268500D02*
X146441500Y-80353500D01*
X148526500Y-70918500D02*
X148526500Y-78268500D01*
X152266500Y-67178500D02*
X148526500Y-70918500D01*
X152266500Y-62681000D02*
X152266500Y-67178500D01*
X152273000Y-62674500D02*
X152266500Y-62681000D01*
X134091500Y-86128500D02*
X134791500Y-86128500D01*
X133367999Y-81754999D02*
X133367999Y-85404999D01*
X130316500Y-78703500D02*
X133367999Y-81754999D01*
X130316500Y-73978500D02*
X130316500Y-78703500D01*
X135466500Y-68828500D02*
X130316500Y-73978500D01*
X149291500Y-68828500D02*
X135466500Y-68828500D01*
X150416500Y-67703500D02*
X149291500Y-68828500D01*
X150416500Y-63978500D02*
X150416500Y-67703500D01*
X151720500Y-62674500D02*
X150416500Y-63978500D01*
X133367999Y-85404999D02*
X134091500Y-86128500D01*
X152273000Y-62674500D02*
X151720500Y-62674500D01*
X155257500Y-107344500D02*
X155291500Y-107378500D01*
X155257500Y-103949500D02*
X155257500Y-107344500D01*
X161734500Y-106997500D02*
X160178499Y-108553501D01*
X149733000Y-62674500D02*
X151707490Y-60700010D01*
X151707490Y-60700010D02*
X162123512Y-60700010D01*
X156466501Y-108553501D02*
X155291500Y-107378500D01*
X162123512Y-60700010D02*
X163558001Y-62134499D01*
X163558001Y-62134499D02*
X163558001Y-66311999D01*
X163558001Y-66311999D02*
X156227999Y-73642001D01*
X156227999Y-73642001D02*
X156227999Y-80986521D01*
X156227999Y-80986521D02*
X161734500Y-86493022D01*
X161734500Y-86493022D02*
X161734500Y-106997500D01*
X160178499Y-108553501D02*
X156466501Y-108553501D01*
X149733000Y-66912000D02*
X149733000Y-62674500D01*
X134791500Y-88678500D02*
X133866500Y-88678500D01*
X133866500Y-88678500D02*
X132917989Y-87729989D01*
X129691500Y-78703500D02*
X129691500Y-73903500D01*
X132917989Y-87729989D02*
X132917989Y-81929989D01*
X132917989Y-81929989D02*
X129691500Y-78703500D01*
X129691500Y-73903500D02*
X135441500Y-68153500D01*
X135441500Y-68153500D02*
X148491500Y-68153500D01*
X148491500Y-68153500D02*
X149733000Y-66912000D01*
D30*
X113665000Y-74358500D02*
X119396500Y-74358500D01*
D28*
X124206000Y-82232500D02*
X124206000Y-96647000D01*
X119396500Y-77423000D02*
X124206000Y-82232500D01*
X119396500Y-74358500D02*
X119396500Y-77423000D01*
X124206000Y-97282000D02*
X124206000Y-96647000D01*
X122134500Y-99353500D02*
X124206000Y-97282000D01*
X119213500Y-99353500D02*
X122134500Y-99353500D01*
X117665500Y-100901500D02*
X119213500Y-99353500D01*
X117665500Y-102171500D02*
X117665500Y-100901500D01*
D27*
X194564000Y-96266000D02*
X193051020Y-96266000D01*
X192289020Y-99112480D02*
X191812511Y-99588989D01*
X191812511Y-99588989D02*
X191812511Y-101777989D01*
X191812511Y-101777989D02*
X190387500Y-103203000D01*
X193051020Y-96266000D02*
X192289020Y-97028000D01*
X192289020Y-97028000D02*
X192289020Y-99112480D01*
X164973000Y-83135000D02*
X164973000Y-77914500D01*
X191342001Y-108227999D02*
X190065999Y-108227999D01*
X191774999Y-107795001D02*
X191342001Y-108227999D01*
X191774999Y-106670001D02*
X191774999Y-107795001D01*
X192841500Y-105603500D02*
X191774999Y-106670001D01*
X194585502Y-105603500D02*
X192841500Y-105603500D01*
X196474992Y-103714010D02*
X194585502Y-105603500D01*
X196474992Y-98176992D02*
X196474992Y-103714010D01*
X190065999Y-108227999D02*
X164973000Y-83135000D01*
X194564000Y-96266000D02*
X196474992Y-98176992D01*
X193361919Y-93726000D02*
X193051020Y-94036899D01*
X191839010Y-96642900D02*
X191839010Y-98609990D01*
X191839010Y-98609990D02*
X191362501Y-99086499D01*
X191362501Y-99086499D02*
X191362501Y-100227999D01*
X191362501Y-100227999D02*
X190387500Y-101203000D01*
X193051020Y-94036899D02*
X193051019Y-95430891D01*
X193051019Y-95430891D02*
X191839010Y-96642900D01*
X194564000Y-93726000D02*
X193361919Y-93726000D01*
X196189011Y-92100989D02*
X194564000Y-93726000D01*
X196189011Y-78076011D02*
X196189011Y-92100989D01*
X189241500Y-71128500D02*
X196189011Y-78076011D01*
X183141500Y-71128500D02*
X189241500Y-71128500D01*
X180213000Y-68200000D02*
X183141500Y-71128500D01*
X180213000Y-62674500D02*
X180213000Y-68200000D01*
X194564000Y-91186000D02*
X193299510Y-91186000D01*
X191389000Y-96456500D02*
X191389000Y-98201500D01*
X191389000Y-98201500D02*
X190387500Y-99203000D01*
X192601010Y-95244490D02*
X191389000Y-96456500D01*
X193299510Y-91186000D02*
X192601010Y-91884500D01*
X192601010Y-91884500D02*
X192601010Y-95244490D01*
X193737502Y-77914500D02*
X190373000Y-77914500D01*
X194564000Y-91186000D02*
X195739001Y-90010999D01*
X195739001Y-79915999D02*
X193737502Y-77914500D01*
X195739001Y-90010999D02*
X195739001Y-79915999D01*
X190387500Y-93203000D02*
X191643000Y-91947500D01*
X191643000Y-91947500D02*
X191643000Y-86487000D01*
X191643000Y-86487000D02*
X194564000Y-83566000D01*
X177673000Y-62674500D02*
X177673000Y-63309500D01*
X189103000Y-78915000D02*
X193754000Y-83566000D01*
X187516500Y-71653500D02*
X189103000Y-73240000D01*
X189103000Y-73240000D02*
X189103000Y-78915000D01*
X182566500Y-71653500D02*
X187516500Y-71653500D01*
X193754000Y-83566000D02*
X194564000Y-83566000D01*
X177673000Y-66760000D02*
X182566500Y-71653500D01*
X177673000Y-62674500D02*
X177673000Y-66760000D01*
X168387500Y-89457000D02*
X164973000Y-86042500D01*
X168387500Y-91203000D02*
X168387500Y-89457000D01*
X162433000Y-79845000D02*
X162433000Y-77914500D01*
X163352989Y-85339989D02*
X163352989Y-80764989D01*
X163352989Y-80764989D02*
X162433000Y-79845000D01*
X164055500Y-86042500D02*
X163352989Y-85339989D01*
X164973000Y-86042500D02*
X164055500Y-86042500D01*
X164973000Y-101282500D02*
X166306500Y-102616000D01*
X166306500Y-102616000D02*
X167800500Y-102616000D01*
X167800500Y-102616000D02*
X168387500Y-103203000D01*
D30*
X160083500Y-77914500D02*
X159893000Y-77914500D01*
D27*
X164123001Y-100432501D02*
X164973000Y-101282500D01*
X159893000Y-77914500D02*
X159893000Y-78542067D01*
X159893000Y-78542067D02*
X162636512Y-81285579D01*
X162636512Y-81285579D02*
X162636512Y-98946012D01*
X162636512Y-98946012D02*
X164123001Y-100432501D01*
X167007000Y-103822500D02*
X168387500Y-105203000D01*
X164973000Y-103822500D02*
X167007000Y-103822500D01*
X164973000Y-63805870D02*
X164973000Y-62674500D01*
X164973000Y-66222000D02*
X164973000Y-63805870D01*
X158750000Y-72445000D02*
X164973000Y-66222000D01*
X158750000Y-78549500D02*
X158750000Y-72445000D01*
X159512000Y-79311500D02*
X158750000Y-78549500D01*
X159950856Y-79311500D02*
X159512000Y-79311500D01*
X162186501Y-81547145D02*
X159950856Y-79311500D01*
X162186501Y-101036001D02*
X162186501Y-81547145D01*
X164973000Y-103822500D02*
X162186501Y-101036001D01*
M02*
