%FSLAX45Y45*%
G04 Gerber Fmt 4.5, Leading zero omitted, Abs format (unit mm)*
G04 Created by KiCad (PCBNEW (5.1.10)-1) date 2022-04-17 04:08:34*
%MOMM*%
%LPD*%
G01*
G04 APERTURE LIST*
%TA.AperFunction,Profile*%
%ADD10C,0.038100*%
%TD*%
%ADD11C,0.200000*%
%ADD12C,0.300000*%
G04 APERTURE END LIST*
D10*
X7588100Y-6244600D02*
X8032600Y-6244600D01*
X22510600Y-6689100D02*
X22510600Y-6562100D01*
X21748600Y-6244600D02*
X22066100Y-6244600D01*
X7588100Y-13864600D02*
G75*
G02*
X7270600Y-13547100I0J317500D01*
G01*
X22510600Y-13102600D02*
X22510600Y-13547100D01*
X22066100Y-6244600D02*
X22193100Y-6244600D01*
X7270600Y-13102600D02*
X7270600Y-13547100D01*
X22193100Y-6244600D02*
G75*
G02*
X22510600Y-6562100I0J-317500D01*
G01*
X22510600Y-7006600D02*
X22510600Y-6689100D01*
X21748600Y-13864600D02*
X8032600Y-13864600D01*
X7270600Y-6562100D02*
G75*
G02*
X7588100Y-6244600I317500J0D01*
G01*
X7270600Y-7006600D02*
X7270600Y-13102600D01*
X7270600Y-7006600D02*
X7270600Y-6562100D01*
X22510600Y-7006600D02*
X22510600Y-13102600D01*
X22510600Y-13547100D02*
G75*
G02*
X22193100Y-13864600I-317500J0D01*
G01*
X8032600Y-6244600D02*
X21748600Y-6244600D01*
X8032600Y-13864600D02*
X7588100Y-13864600D01*
X21748600Y-13864600D02*
X22193100Y-13864600D01*
D11*
X14640090Y-12828580D02*
X14673110Y-12861600D01*
X14673110Y-12828580D02*
X14640090Y-12861600D01*
X14890090Y-12824090D02*
X14923110Y-12857110D01*
X14923110Y-12824090D02*
X14890090Y-12857110D01*
X20669100Y-11150600D02*
G75*
G03*
X20669100Y-11150600I-27500J0D01*
G01*
X20869100Y-11150600D02*
G75*
G03*
X20869100Y-11150600I-27500J0D01*
G01*
X21069100Y-11150600D02*
G75*
G03*
X21069100Y-11150600I-27500J0D01*
G01*
X21269100Y-11150600D02*
G75*
G03*
X21269100Y-11150600I-27500J0D01*
G01*
X21469100Y-11150600D02*
G75*
G03*
X21469100Y-11150600I-27500J0D01*
G01*
X21669100Y-11150600D02*
G75*
G03*
X21669100Y-11150600I-27500J0D01*
G01*
X21869100Y-11150600D02*
G75*
G03*
X21869100Y-11150600I-27500J0D01*
G01*
X22069100Y-11150600D02*
G75*
G03*
X22069100Y-11150600I-27500J0D01*
G01*
X17372600Y-12709500D02*
X17372600Y-12785700D01*
X17334500Y-12747600D02*
X17410700Y-12747600D01*
X17626600Y-12709500D02*
X17626600Y-12785700D01*
X17588500Y-12747600D02*
X17664700Y-12747600D01*
X17880600Y-12709500D02*
X17880600Y-12785700D01*
X17842500Y-12747600D02*
X17918700Y-12747600D01*
X18119600Y-7093500D02*
X18119600Y-7169700D01*
X18081500Y-7131600D02*
X18157700Y-7131600D01*
X18119600Y-10141500D02*
X18119600Y-10217700D01*
X18081500Y-10179600D02*
X18157700Y-10179600D01*
X18134600Y-12709500D02*
X18134600Y-12785700D01*
X18096500Y-12747600D02*
X18172700Y-12747600D01*
X18389600Y-12710500D02*
X18389600Y-12786700D01*
X18351500Y-12748600D02*
X18427700Y-12748600D01*
X18500600Y-7093500D02*
X18500600Y-7169700D01*
X18462500Y-7131600D02*
X18538700Y-7131600D01*
X18500600Y-10141500D02*
X18500600Y-10217700D01*
X18462500Y-10179600D02*
X18538700Y-10179600D01*
X18881600Y-7093500D02*
X18881600Y-7169700D01*
X18843500Y-7131600D02*
X18919700Y-7131600D01*
X18881600Y-10141500D02*
X18881600Y-10217700D01*
X18843500Y-10179600D02*
X18919700Y-10179600D01*
X19262600Y-7093500D02*
X19262600Y-7169700D01*
X19224500Y-7131600D02*
X19300700Y-7131600D01*
X19262600Y-10141500D02*
X19262600Y-10217700D01*
X19224500Y-10179600D02*
X19300700Y-10179600D01*
X19643600Y-7093500D02*
X19643600Y-7169700D01*
X19605500Y-7131600D02*
X19681700Y-7131600D01*
X19643600Y-10141500D02*
X19643600Y-10217700D01*
X19605500Y-10179600D02*
X19681700Y-10179600D01*
X20024600Y-7093500D02*
X20024600Y-7169700D01*
X19986500Y-7131600D02*
X20062700Y-7131600D01*
X20024600Y-10141500D02*
X20024600Y-10217700D01*
X19986500Y-10179600D02*
X20062700Y-10179600D01*
X20405600Y-7093500D02*
X20405600Y-7169700D01*
X20367500Y-7131600D02*
X20443700Y-7131600D01*
X20405600Y-10141500D02*
X20405600Y-10217700D01*
X20367500Y-10179600D02*
X20443700Y-10179600D01*
X20786600Y-7093500D02*
X20786600Y-7169700D01*
X20748500Y-7131600D02*
X20824700Y-7131600D01*
X20786600Y-10141500D02*
X20786600Y-10217700D01*
X20748500Y-10179600D02*
X20824700Y-10179600D01*
X20166885Y-11369884D02*
X20166885Y-11313315D01*
X20110316Y-11313315D01*
X20110316Y-11369884D01*
X20166885Y-11369884D01*
X20166885Y-11623884D02*
X20166885Y-11567315D01*
X20110316Y-11567315D01*
X20110316Y-11623884D01*
X20166885Y-11623884D01*
X20166885Y-11877884D02*
X20166885Y-11821315D01*
X20110316Y-11821315D01*
X20110316Y-11877884D01*
X20166885Y-11877884D01*
X20166885Y-12131884D02*
X20166885Y-12075315D01*
X20110316Y-12075315D01*
X20110316Y-12131884D01*
X20166885Y-12131884D01*
X20166885Y-12385884D02*
X20166885Y-12329315D01*
X20110316Y-12329315D01*
X20110316Y-12385884D01*
X20166885Y-12385884D01*
X20166885Y-12639884D02*
X20166885Y-12583315D01*
X20110316Y-12583315D01*
X20110316Y-12639884D01*
X20166885Y-12639884D01*
X12373600Y-13445600D02*
X12423600Y-13395600D01*
X12373600Y-13345600D01*
X12323600Y-13395600D01*
X12373600Y-13445600D01*
X12627600Y-13445600D02*
X12677600Y-13395600D01*
X12627600Y-13345600D01*
X12577600Y-13395600D01*
X12627600Y-13445600D01*
X12881600Y-13445600D02*
X12931600Y-13395600D01*
X12881600Y-13345600D01*
X12831600Y-13395600D01*
X12881600Y-13445600D01*
X13135600Y-13445600D02*
X13185600Y-13395600D01*
X13135600Y-13345600D01*
X13085600Y-13395600D01*
X13135600Y-13445600D01*
X13389600Y-13445600D02*
X13439600Y-13395600D01*
X13389600Y-13345600D01*
X13339600Y-13395600D01*
X13389600Y-13445600D01*
X13643600Y-13445600D02*
X13693600Y-13395600D01*
X13643600Y-13345600D01*
X13593600Y-13395600D01*
X13643600Y-13445600D01*
X14656600Y-13440600D02*
X14706600Y-13390600D01*
X14656600Y-13340600D01*
X14606600Y-13390600D01*
X14656600Y-13440600D01*
X14910600Y-13440600D02*
X14960600Y-13390600D01*
X14910600Y-13340600D01*
X14860600Y-13390600D01*
X14910600Y-13440600D01*
X15164600Y-13440600D02*
X15214600Y-13390600D01*
X15164600Y-13340600D01*
X15114600Y-13390600D01*
X15164600Y-13440600D01*
X15418600Y-13440600D02*
X15468600Y-13390600D01*
X15418600Y-13340600D01*
X15368600Y-13390600D01*
X15418600Y-13440600D01*
X17531600Y-10840600D02*
X17581600Y-10790600D01*
X17531600Y-10740600D01*
X17481600Y-10790600D01*
X17531600Y-10840600D01*
X17533600Y-6580600D02*
X17583600Y-6530600D01*
X17533600Y-6480600D01*
X17483600Y-6530600D01*
X17533600Y-6580600D01*
X17785600Y-10840600D02*
X17835600Y-10790600D01*
X17785600Y-10740600D01*
X17735600Y-10790600D01*
X17785600Y-10840600D01*
X17787600Y-6580600D02*
X17837600Y-6530600D01*
X17787600Y-6480600D01*
X17737600Y-6530600D01*
X17787600Y-6580600D01*
X18039600Y-10840600D02*
X18089600Y-10790600D01*
X18039600Y-10740600D01*
X17989600Y-10790600D01*
X18039600Y-10840600D01*
X18041600Y-6580600D02*
X18091600Y-6530600D01*
X18041600Y-6480600D01*
X17991600Y-6530600D01*
X18041600Y-6580600D01*
X18293600Y-10840600D02*
X18343600Y-10790600D01*
X18293600Y-10740600D01*
X18243600Y-10790600D01*
X18293600Y-10840600D01*
X18295600Y-6580600D02*
X18345600Y-6530600D01*
X18295600Y-6480600D01*
X18245600Y-6530600D01*
X18295600Y-6580600D01*
X18547600Y-10840600D02*
X18597600Y-10790600D01*
X18547600Y-10740600D01*
X18497600Y-10790600D01*
X18547600Y-10840600D01*
X18549600Y-6580600D02*
X18599600Y-6530600D01*
X18549600Y-6480600D01*
X18499600Y-6530600D01*
X18549600Y-6580600D01*
X18801600Y-10840600D02*
X18851600Y-10790600D01*
X18801600Y-10740600D01*
X18751600Y-10790600D01*
X18801600Y-10840600D01*
X18803600Y-6580600D02*
X18853600Y-6530600D01*
X18803600Y-6480600D01*
X18753600Y-6530600D01*
X18803600Y-6580600D01*
X19055600Y-10840600D02*
X19105600Y-10790600D01*
X19055600Y-10740600D01*
X19005600Y-10790600D01*
X19055600Y-10840600D01*
X19057600Y-6580600D02*
X19107600Y-6530600D01*
X19057600Y-6480600D01*
X19007600Y-6530600D01*
X19057600Y-6580600D01*
X19309600Y-10840600D02*
X19359600Y-10790600D01*
X19309600Y-10740600D01*
X19259600Y-10790600D01*
X19309600Y-10840600D01*
X19311600Y-6580600D02*
X19361600Y-6530600D01*
X19311600Y-6480600D01*
X19261600Y-6530600D01*
X19311600Y-6580600D01*
X19956600Y-13610600D02*
X20006600Y-13560600D01*
X19956600Y-13510600D01*
X19906600Y-13560600D01*
X19956600Y-13610600D01*
X20210600Y-13610600D02*
X20260600Y-13560600D01*
X20210600Y-13510600D01*
X20160600Y-13560600D01*
X20210600Y-13610600D01*
X20464600Y-13610600D02*
X20514600Y-13560600D01*
X20464600Y-13510600D01*
X20414600Y-13560600D01*
X20464600Y-13610600D01*
X20718600Y-13610600D02*
X20768600Y-13560600D01*
X20718600Y-13510600D01*
X20668600Y-13560600D01*
X20718600Y-13610600D01*
X20972600Y-13610600D02*
X21022600Y-13560600D01*
X20972600Y-13510600D01*
X20922600Y-13560600D01*
X20972600Y-13610600D01*
X21226600Y-13610600D02*
X21276600Y-13560600D01*
X21226600Y-13510600D01*
X21176600Y-13560600D01*
X21226600Y-13610600D01*
X21480600Y-13610600D02*
X21530600Y-13560600D01*
X21480600Y-13510600D01*
X21430600Y-13560600D01*
X21480600Y-13610600D01*
X21734600Y-13610600D02*
X21784600Y-13560600D01*
X21734600Y-13510600D01*
X21684600Y-13560600D01*
X21734600Y-13610600D01*
X10410550Y-12358550D02*
X10512150Y-12460150D01*
X10512150Y-12358550D02*
X10410550Y-12460150D01*
X10512150Y-12409350D02*
G75*
G03*
X10512150Y-12409350I-50800J0D01*
G01*
X10410550Y-12612550D02*
X10512150Y-12714150D01*
X10512150Y-12612550D02*
X10410550Y-12714150D01*
X10512150Y-12663350D02*
G75*
G03*
X10512150Y-12663350I-50800J0D01*
G01*
X10664550Y-12358550D02*
X10766150Y-12460150D01*
X10766150Y-12358550D02*
X10664550Y-12460150D01*
X10766150Y-12409350D02*
G75*
G03*
X10766150Y-12409350I-50800J0D01*
G01*
X10664550Y-12612550D02*
X10766150Y-12714150D01*
X10766150Y-12612550D02*
X10664550Y-12714150D01*
X10766150Y-12663350D02*
G75*
G03*
X10766150Y-12663350I-50800J0D01*
G01*
X10918550Y-12358550D02*
X11020150Y-12460150D01*
X11020150Y-12358550D02*
X10918550Y-12460150D01*
X11020150Y-12409350D02*
G75*
G03*
X11020150Y-12409350I-50800J0D01*
G01*
X10918550Y-12612550D02*
X11020150Y-12714150D01*
X11020150Y-12612550D02*
X10918550Y-12714150D01*
X11020150Y-12663350D02*
G75*
G03*
X11020150Y-12663350I-50800J0D01*
G01*
X11172550Y-12358550D02*
X11274150Y-12460150D01*
X11274150Y-12358550D02*
X11172550Y-12460150D01*
X11274150Y-12409350D02*
G75*
G03*
X11274150Y-12409350I-50800J0D01*
G01*
X11172550Y-12612550D02*
X11274150Y-12714150D01*
X11274150Y-12612550D02*
X11172550Y-12714150D01*
X11274150Y-12663350D02*
G75*
G03*
X11274150Y-12663350I-50800J0D01*
G01*
X11426550Y-12358550D02*
X11528150Y-12460150D01*
X11528150Y-12358550D02*
X11426550Y-12460150D01*
X11528150Y-12409350D02*
G75*
G03*
X11528150Y-12409350I-50800J0D01*
G01*
X11426550Y-12612550D02*
X11528150Y-12714150D01*
X11528150Y-12612550D02*
X11426550Y-12714150D01*
X11528150Y-12663350D02*
G75*
G03*
X11528150Y-12663350I-50800J0D01*
G01*
X11680550Y-12358550D02*
X11782150Y-12460150D01*
X11782150Y-12358550D02*
X11680550Y-12460150D01*
X11782150Y-12409350D02*
G75*
G03*
X11782150Y-12409350I-50800J0D01*
G01*
X11680550Y-12612550D02*
X11782150Y-12714150D01*
X11782150Y-12612550D02*
X11680550Y-12714150D01*
X11782150Y-12663350D02*
G75*
G03*
X11782150Y-12663350I-50800J0D01*
G01*
X11934550Y-12358550D02*
X12036150Y-12460150D01*
X12036150Y-12358550D02*
X11934550Y-12460150D01*
X12036150Y-12409350D02*
G75*
G03*
X12036150Y-12409350I-50800J0D01*
G01*
X11934550Y-12612550D02*
X12036150Y-12714150D01*
X12036150Y-12612550D02*
X11934550Y-12714150D01*
X12036150Y-12663350D02*
G75*
G03*
X12036150Y-12663350I-50800J0D01*
G01*
X12188550Y-12358550D02*
X12290150Y-12460150D01*
X12290150Y-12358550D02*
X12188550Y-12460150D01*
X12290150Y-12409350D02*
G75*
G03*
X12290150Y-12409350I-50800J0D01*
G01*
X12188550Y-12612550D02*
X12290150Y-12714150D01*
X12290150Y-12612550D02*
X12188550Y-12714150D01*
X12290150Y-12663350D02*
G75*
G03*
X12290150Y-12663350I-50800J0D01*
G01*
X12442550Y-12358550D02*
X12544150Y-12460150D01*
X12544150Y-12358550D02*
X12442550Y-12460150D01*
X12544150Y-12409350D02*
G75*
G03*
X12544150Y-12409350I-50800J0D01*
G01*
X12442550Y-12612550D02*
X12544150Y-12714150D01*
X12544150Y-12612550D02*
X12442550Y-12714150D01*
X12544150Y-12663350D02*
G75*
G03*
X12544150Y-12663350I-50800J0D01*
G01*
X12696550Y-12358550D02*
X12798150Y-12460150D01*
X12798150Y-12358550D02*
X12696550Y-12460150D01*
X12798150Y-12409350D02*
G75*
G03*
X12798150Y-12409350I-50800J0D01*
G01*
X12696550Y-12612550D02*
X12798150Y-12714150D01*
X12798150Y-12612550D02*
X12696550Y-12714150D01*
X12798150Y-12663350D02*
G75*
G03*
X12798150Y-12663350I-50800J0D01*
G01*
X12950550Y-12358550D02*
X13052150Y-12460150D01*
X13052150Y-12358550D02*
X12950550Y-12460150D01*
X13052150Y-12409350D02*
G75*
G03*
X13052150Y-12409350I-50800J0D01*
G01*
X12950550Y-12612550D02*
X13052150Y-12714150D01*
X13052150Y-12612550D02*
X12950550Y-12714150D01*
X13052150Y-12663350D02*
G75*
G03*
X13052150Y-12663350I-50800J0D01*
G01*
X13204550Y-12358550D02*
X13306150Y-12460150D01*
X13306150Y-12358550D02*
X13204550Y-12460150D01*
X13306150Y-12409350D02*
G75*
G03*
X13306150Y-12409350I-50800J0D01*
G01*
X13204550Y-12612550D02*
X13306150Y-12714150D01*
X13306150Y-12612550D02*
X13204550Y-12714150D01*
X13306150Y-12663350D02*
G75*
G03*
X13306150Y-12663350I-50800J0D01*
G01*
X13458550Y-12358550D02*
X13560150Y-12460150D01*
X13560150Y-12358550D02*
X13458550Y-12460150D01*
X13560150Y-12409350D02*
G75*
G03*
X13560150Y-12409350I-50800J0D01*
G01*
X13458550Y-12612550D02*
X13560150Y-12714150D01*
X13560150Y-12612550D02*
X13458550Y-12714150D01*
X13560150Y-12663350D02*
G75*
G03*
X13560150Y-12663350I-50800J0D01*
G01*
X13712550Y-12358550D02*
X13814150Y-12460150D01*
X13814150Y-12358550D02*
X13712550Y-12460150D01*
X13814150Y-12409350D02*
G75*
G03*
X13814150Y-12409350I-50800J0D01*
G01*
X13712550Y-12612550D02*
X13814150Y-12714150D01*
X13814150Y-12612550D02*
X13712550Y-12714150D01*
X13814150Y-12663350D02*
G75*
G03*
X13814150Y-12663350I-50800J0D01*
G01*
X13966550Y-12358550D02*
X14068150Y-12460150D01*
X14068150Y-12358550D02*
X13966550Y-12460150D01*
X14068150Y-12409350D02*
G75*
G03*
X14068150Y-12409350I-50800J0D01*
G01*
X13966550Y-12612550D02*
X14068150Y-12714150D01*
X14068150Y-12612550D02*
X13966550Y-12714150D01*
X14068150Y-12663350D02*
G75*
G03*
X14068150Y-12663350I-50800J0D01*
G01*
X14220550Y-12358550D02*
X14322150Y-12460150D01*
X14322150Y-12358550D02*
X14220550Y-12460150D01*
X14322150Y-12409350D02*
G75*
G03*
X14322150Y-12409350I-50800J0D01*
G01*
X14220550Y-12612550D02*
X14322150Y-12714150D01*
X14322150Y-12612550D02*
X14220550Y-12714150D01*
X14322150Y-12663350D02*
G75*
G03*
X14322150Y-12663350I-50800J0D01*
G01*
X14474550Y-12358550D02*
X14576150Y-12460150D01*
X14576150Y-12358550D02*
X14474550Y-12460150D01*
X14576150Y-12409350D02*
G75*
G03*
X14576150Y-12409350I-50800J0D01*
G01*
X14474550Y-12612550D02*
X14576150Y-12714150D01*
X14576150Y-12612550D02*
X14474550Y-12714150D01*
X14576150Y-12663350D02*
G75*
G03*
X14576150Y-12663350I-50800J0D01*
G01*
X14728550Y-12358550D02*
X14830150Y-12460150D01*
X14830150Y-12358550D02*
X14728550Y-12460150D01*
X14830150Y-12409350D02*
G75*
G03*
X14830150Y-12409350I-50800J0D01*
G01*
X14728550Y-12612550D02*
X14830150Y-12714150D01*
X14830150Y-12612550D02*
X14728550Y-12714150D01*
X14830150Y-12663350D02*
G75*
G03*
X14830150Y-12663350I-50800J0D01*
G01*
X14982550Y-12358550D02*
X15084150Y-12460150D01*
X15084150Y-12358550D02*
X14982550Y-12460150D01*
X15084150Y-12409350D02*
G75*
G03*
X15084150Y-12409350I-50800J0D01*
G01*
X14982550Y-12612550D02*
X15084150Y-12714150D01*
X15084150Y-12612550D02*
X14982550Y-12714150D01*
X15084150Y-12663350D02*
G75*
G03*
X15084150Y-12663350I-50800J0D01*
G01*
X15236550Y-12358550D02*
X15338150Y-12460150D01*
X15338150Y-12358550D02*
X15236550Y-12460150D01*
X15338150Y-12409350D02*
G75*
G03*
X15338150Y-12409350I-50800J0D01*
G01*
X15236550Y-12612550D02*
X15338150Y-12714150D01*
X15338150Y-12612550D02*
X15236550Y-12714150D01*
X15338150Y-12663350D02*
G75*
G03*
X15338150Y-12663350I-50800J0D01*
G01*
X17565100Y-7021600D02*
X17785100Y-7241600D01*
X17785100Y-7021600D02*
X17565100Y-7241600D01*
X17675100Y-7021600D02*
X17675100Y-7241600D01*
X17565100Y-7131600D02*
X17785100Y-7131600D01*
X17565100Y-10069600D02*
X17785100Y-10289600D01*
X17785100Y-10069600D02*
X17565100Y-10289600D01*
X17675100Y-10069600D02*
X17675100Y-10289600D01*
X17565100Y-10179600D02*
X17785100Y-10179600D01*
X21121100Y-7021600D02*
X21341100Y-7241600D01*
X21341100Y-7021600D02*
X21121100Y-7241600D01*
X21231100Y-7021600D02*
X21231100Y-7241600D01*
X21121100Y-7131600D02*
X21341100Y-7131600D01*
X21121100Y-10069600D02*
X21341100Y-10289600D01*
X21341100Y-10069600D02*
X21121100Y-10289600D01*
X21231100Y-10069600D02*
X21231100Y-10289600D01*
X21121100Y-10179600D02*
X21341100Y-10179600D01*
X17791600Y-13295600D02*
X18061600Y-13565600D01*
X18061600Y-13295600D02*
X17791600Y-13565600D01*
X18022060Y-13526060D02*
X18022060Y-13335140D01*
X17831140Y-13335140D01*
X17831140Y-13526060D01*
X18022060Y-13526060D01*
X18291600Y-13295600D02*
X18561600Y-13565600D01*
X18561600Y-13295600D02*
X18291600Y-13565600D01*
X18522060Y-13526060D02*
X18522060Y-13335140D01*
X18331140Y-13335140D01*
X18331140Y-13526060D01*
X18522060Y-13526060D01*
X18991600Y-12795600D02*
X19261600Y-13065600D01*
X19261600Y-12795600D02*
X18991600Y-13065600D01*
X19222060Y-13026060D02*
X19222060Y-12835140D01*
X19031140Y-12835140D01*
X19031140Y-13026060D01*
X19222060Y-13026060D01*
X18991600Y-13295600D02*
X19261600Y-13565600D01*
X19261600Y-13295600D02*
X18991600Y-13565600D01*
X19222060Y-13526060D02*
X19222060Y-13335140D01*
X19031140Y-13335140D01*
X19031140Y-13526060D01*
X19222060Y-13526060D01*
X9836850Y-7498850D02*
X10111850Y-7773850D01*
X10111850Y-7498850D02*
X9836850Y-7773850D01*
X9974350Y-7773850D02*
X10111850Y-7636350D01*
X9974350Y-7498850D01*
X9836850Y-7636350D01*
X9974350Y-7773850D01*
X9836850Y-12398850D02*
X10111850Y-12673850D01*
X10111850Y-12398850D02*
X9836850Y-12673850D01*
X9974350Y-12673850D02*
X10111850Y-12536350D01*
X9974350Y-12398850D01*
X9836850Y-12536350D01*
X9974350Y-12673850D01*
X15636850Y-7498850D02*
X15911850Y-7773850D01*
X15911850Y-7498850D02*
X15636850Y-7773850D01*
X15774350Y-7773850D02*
X15911850Y-7636350D01*
X15774350Y-7498850D01*
X15636850Y-7636350D01*
X15774350Y-7773850D01*
X15636850Y-12398850D02*
X15911850Y-12673850D01*
X15911850Y-12398850D02*
X15636850Y-12673850D01*
X15774350Y-12673850D02*
X15911850Y-12536350D01*
X15774350Y-12398850D01*
X15636850Y-12536350D01*
X15774350Y-12673850D01*
X7588100Y-6412100D02*
X7588100Y-6712100D01*
X7438100Y-6562100D02*
X7738100Y-6562100D01*
X7738100Y-6562100D02*
G75*
G03*
X7738100Y-6562100I-150000J0D01*
G01*
X7588100Y-13397100D02*
X7588100Y-13697100D01*
X7438100Y-13547100D02*
X7738100Y-13547100D01*
X7738100Y-13547100D02*
G75*
G03*
X7738100Y-13547100I-150000J0D01*
G01*
X22193100Y-6412100D02*
X22193100Y-6712100D01*
X22043100Y-6562100D02*
X22343100Y-6562100D01*
X22343100Y-6562100D02*
G75*
G03*
X22343100Y-6562100I-150000J0D01*
G01*
X22193100Y-13397100D02*
X22193100Y-13697100D01*
X22043100Y-13547100D02*
X22343100Y-13547100D01*
X22343100Y-13547100D02*
G75*
G03*
X22343100Y-13547100I-150000J0D01*
G01*
D12*
X7555123Y-14332219D02*
X7555123Y-14032219D01*
X7626552Y-14032219D01*
X7669409Y-14046505D01*
X7697981Y-14075076D01*
X7712266Y-14103648D01*
X7726552Y-14160791D01*
X7726552Y-14203648D01*
X7712266Y-14260791D01*
X7697981Y-14289362D01*
X7669409Y-14317934D01*
X7626552Y-14332219D01*
X7555123Y-14332219D01*
X7855123Y-14332219D02*
X7855123Y-14132219D01*
X7855123Y-14189362D02*
X7869409Y-14160791D01*
X7883695Y-14146505D01*
X7912266Y-14132219D01*
X7940838Y-14132219D01*
X8040838Y-14332219D02*
X8040838Y-14132219D01*
X8040838Y-14032219D02*
X8026552Y-14046505D01*
X8040838Y-14060791D01*
X8055123Y-14046505D01*
X8040838Y-14032219D01*
X8040838Y-14060791D01*
X8226552Y-14332219D02*
X8197981Y-14317934D01*
X8183695Y-14289362D01*
X8183695Y-14032219D01*
X8383695Y-14332219D02*
X8355123Y-14317934D01*
X8340838Y-14289362D01*
X8340838Y-14032219D01*
X8726552Y-14332219D02*
X8726552Y-14032219D01*
X8826552Y-14246505D01*
X8926552Y-14032219D01*
X8926552Y-14332219D01*
X9197981Y-14332219D02*
X9197981Y-14175076D01*
X9183695Y-14146505D01*
X9155123Y-14132219D01*
X9097981Y-14132219D01*
X9069409Y-14146505D01*
X9197981Y-14317934D02*
X9169409Y-14332219D01*
X9097981Y-14332219D01*
X9069409Y-14317934D01*
X9055123Y-14289362D01*
X9055123Y-14260791D01*
X9069409Y-14232219D01*
X9097981Y-14217934D01*
X9169409Y-14217934D01*
X9197981Y-14203648D01*
X9340838Y-14132219D02*
X9340838Y-14432219D01*
X9340838Y-14146505D02*
X9369409Y-14132219D01*
X9426552Y-14132219D01*
X9455123Y-14146505D01*
X9469409Y-14160791D01*
X9483695Y-14189362D01*
X9483695Y-14275076D01*
X9469409Y-14303648D01*
X9455123Y-14317934D01*
X9426552Y-14332219D01*
X9369409Y-14332219D01*
X9340838Y-14317934D01*
X9612266Y-14303648D02*
X9626552Y-14317934D01*
X9612266Y-14332219D01*
X9597981Y-14317934D01*
X9612266Y-14303648D01*
X9612266Y-14332219D01*
X9612266Y-14146505D02*
X9626552Y-14160791D01*
X9612266Y-14175076D01*
X9597981Y-14160791D01*
X9612266Y-14146505D01*
X9612266Y-14175076D01*
X7235675Y-14809995D02*
X7268695Y-14843015D01*
X7268695Y-14809995D02*
X7235675Y-14843015D01*
X7612266Y-14662219D02*
X7640838Y-14662219D01*
X7669409Y-14676505D01*
X7683695Y-14690791D01*
X7697981Y-14719362D01*
X7712266Y-14776505D01*
X7712266Y-14847934D01*
X7697981Y-14905076D01*
X7683695Y-14933648D01*
X7669409Y-14947934D01*
X7640838Y-14962219D01*
X7612266Y-14962219D01*
X7583695Y-14947934D01*
X7569409Y-14933648D01*
X7555123Y-14905076D01*
X7540838Y-14847934D01*
X7540838Y-14776505D01*
X7555123Y-14719362D01*
X7569409Y-14690791D01*
X7583695Y-14676505D01*
X7612266Y-14662219D01*
X7840838Y-14933648D02*
X7855123Y-14947934D01*
X7840838Y-14962219D01*
X7826552Y-14947934D01*
X7840838Y-14933648D01*
X7840838Y-14962219D01*
X7955123Y-14662219D02*
X8140838Y-14662219D01*
X8040838Y-14776505D01*
X8083695Y-14776505D01*
X8112266Y-14790791D01*
X8126552Y-14805076D01*
X8140838Y-14833648D01*
X8140838Y-14905076D01*
X8126552Y-14933648D01*
X8112266Y-14947934D01*
X8083695Y-14962219D01*
X7997981Y-14962219D01*
X7969409Y-14947934D01*
X7955123Y-14933648D01*
X8240838Y-14662219D02*
X8426552Y-14662219D01*
X8326552Y-14776505D01*
X8369409Y-14776505D01*
X8397981Y-14790791D01*
X8412266Y-14805076D01*
X8426552Y-14833648D01*
X8426552Y-14905076D01*
X8412266Y-14933648D01*
X8397981Y-14947934D01*
X8369409Y-14962219D01*
X8283695Y-14962219D01*
X8255123Y-14947934D01*
X8240838Y-14933648D01*
X8612266Y-14662219D02*
X8640838Y-14662219D01*
X8669409Y-14676505D01*
X8683695Y-14690791D01*
X8697981Y-14719362D01*
X8712266Y-14776505D01*
X8712266Y-14847934D01*
X8697981Y-14905076D01*
X8683695Y-14933648D01*
X8669409Y-14947934D01*
X8640838Y-14962219D01*
X8612266Y-14962219D01*
X8583695Y-14947934D01*
X8569409Y-14933648D01*
X8555123Y-14905076D01*
X8540838Y-14847934D01*
X8540838Y-14776505D01*
X8555123Y-14719362D01*
X8569409Y-14690791D01*
X8583695Y-14676505D01*
X8612266Y-14662219D01*
X8840838Y-14962219D02*
X8840838Y-14762219D01*
X8840838Y-14790791D02*
X8855123Y-14776505D01*
X8883695Y-14762219D01*
X8926552Y-14762219D01*
X8955123Y-14776505D01*
X8969409Y-14805076D01*
X8969409Y-14962219D01*
X8969409Y-14805076D02*
X8983695Y-14776505D01*
X9012266Y-14762219D01*
X9055123Y-14762219D01*
X9083695Y-14776505D01*
X9097981Y-14805076D01*
X9097981Y-14962219D01*
X9240838Y-14962219D02*
X9240838Y-14762219D01*
X9240838Y-14790791D02*
X9255123Y-14776505D01*
X9283695Y-14762219D01*
X9326552Y-14762219D01*
X9355123Y-14776505D01*
X9369409Y-14805076D01*
X9369409Y-14962219D01*
X9369409Y-14805076D02*
X9383695Y-14776505D01*
X9412266Y-14762219D01*
X9455123Y-14762219D01*
X9483695Y-14776505D01*
X9497981Y-14805076D01*
X9497981Y-14962219D01*
X10083695Y-14647934D02*
X9826552Y-15033648D01*
X10469409Y-14662219D02*
X10497981Y-14662219D01*
X10526552Y-14676505D01*
X10540838Y-14690791D01*
X10555123Y-14719362D01*
X10569409Y-14776505D01*
X10569409Y-14847934D01*
X10555123Y-14905076D01*
X10540838Y-14933648D01*
X10526552Y-14947934D01*
X10497981Y-14962219D01*
X10469409Y-14962219D01*
X10440838Y-14947934D01*
X10426552Y-14933648D01*
X10412266Y-14905076D01*
X10397981Y-14847934D01*
X10397981Y-14776505D01*
X10412266Y-14719362D01*
X10426552Y-14690791D01*
X10440838Y-14676505D01*
X10469409Y-14662219D01*
X10697981Y-14933648D02*
X10712266Y-14947934D01*
X10697981Y-14962219D01*
X10683695Y-14947934D01*
X10697981Y-14933648D01*
X10697981Y-14962219D01*
X10897981Y-14662219D02*
X10926552Y-14662219D01*
X10955123Y-14676505D01*
X10969409Y-14690791D01*
X10983695Y-14719362D01*
X10997981Y-14776505D01*
X10997981Y-14847934D01*
X10983695Y-14905076D01*
X10969409Y-14933648D01*
X10955123Y-14947934D01*
X10926552Y-14962219D01*
X10897981Y-14962219D01*
X10869409Y-14947934D01*
X10855123Y-14933648D01*
X10840838Y-14905076D01*
X10826552Y-14847934D01*
X10826552Y-14776505D01*
X10840838Y-14719362D01*
X10855123Y-14690791D01*
X10869409Y-14676505D01*
X10897981Y-14662219D01*
X11283695Y-14962219D02*
X11112266Y-14962219D01*
X11197981Y-14962219D02*
X11197981Y-14662219D01*
X11169409Y-14705076D01*
X11140838Y-14733648D01*
X11112266Y-14747934D01*
X11383695Y-14662219D02*
X11569409Y-14662219D01*
X11469409Y-14776505D01*
X11512266Y-14776505D01*
X11540838Y-14790791D01*
X11555123Y-14805076D01*
X11569409Y-14833648D01*
X11569409Y-14905076D01*
X11555123Y-14933648D01*
X11540838Y-14947934D01*
X11512266Y-14962219D01*
X11426552Y-14962219D01*
X11397981Y-14947934D01*
X11383695Y-14933648D01*
X11755123Y-14662219D02*
X11783695Y-14662219D01*
X11812266Y-14676505D01*
X11826552Y-14690791D01*
X11840838Y-14719362D01*
X11855123Y-14776505D01*
X11855123Y-14847934D01*
X11840838Y-14905076D01*
X11826552Y-14933648D01*
X11812266Y-14947934D01*
X11783695Y-14962219D01*
X11755123Y-14962219D01*
X11726552Y-14947934D01*
X11712266Y-14933648D01*
X11697981Y-14905076D01*
X11683695Y-14847934D01*
X11683695Y-14776505D01*
X11697981Y-14719362D01*
X11712266Y-14690791D01*
X11726552Y-14676505D01*
X11755123Y-14662219D01*
X11969409Y-14662219D02*
X11969409Y-14719362D01*
X12083695Y-14662219D02*
X12083695Y-14719362D01*
X12526552Y-15076505D02*
X12512266Y-15062219D01*
X12483695Y-15019362D01*
X12469409Y-14990791D01*
X12455123Y-14947934D01*
X12440838Y-14876505D01*
X12440838Y-14819362D01*
X12455123Y-14747934D01*
X12469409Y-14705076D01*
X12483695Y-14676505D01*
X12512266Y-14633648D01*
X12526552Y-14619362D01*
X12626552Y-14690791D02*
X12640838Y-14676505D01*
X12669409Y-14662219D01*
X12740838Y-14662219D01*
X12769409Y-14676505D01*
X12783695Y-14690791D01*
X12797981Y-14719362D01*
X12797981Y-14747934D01*
X12783695Y-14790791D01*
X12612266Y-14962219D01*
X12797981Y-14962219D01*
X13155123Y-14962219D02*
X13155123Y-14662219D01*
X13283695Y-14962219D02*
X13283695Y-14805076D01*
X13269409Y-14776505D01*
X13240838Y-14762219D01*
X13197981Y-14762219D01*
X13169409Y-14776505D01*
X13155123Y-14790791D01*
X13469409Y-14962219D02*
X13440838Y-14947934D01*
X13426552Y-14933648D01*
X13412266Y-14905076D01*
X13412266Y-14819362D01*
X13426552Y-14790791D01*
X13440838Y-14776505D01*
X13469409Y-14762219D01*
X13512266Y-14762219D01*
X13540838Y-14776505D01*
X13555123Y-14790791D01*
X13569409Y-14819362D01*
X13569409Y-14905076D01*
X13555123Y-14933648D01*
X13540838Y-14947934D01*
X13512266Y-14962219D01*
X13469409Y-14962219D01*
X13740838Y-14962219D02*
X13712266Y-14947934D01*
X13697981Y-14919362D01*
X13697981Y-14662219D01*
X13969409Y-14947934D02*
X13940838Y-14962219D01*
X13883695Y-14962219D01*
X13855123Y-14947934D01*
X13840838Y-14919362D01*
X13840838Y-14805076D01*
X13855123Y-14776505D01*
X13883695Y-14762219D01*
X13940838Y-14762219D01*
X13969409Y-14776505D01*
X13983695Y-14805076D01*
X13983695Y-14833648D01*
X13840838Y-14862219D01*
X14097981Y-14947934D02*
X14126552Y-14962219D01*
X14183695Y-14962219D01*
X14212266Y-14947934D01*
X14226552Y-14919362D01*
X14226552Y-14905076D01*
X14212266Y-14876505D01*
X14183695Y-14862219D01*
X14140838Y-14862219D01*
X14112266Y-14847934D01*
X14097981Y-14819362D01*
X14097981Y-14805076D01*
X14112266Y-14776505D01*
X14140838Y-14762219D01*
X14183695Y-14762219D01*
X14212266Y-14776505D01*
X14326552Y-15076505D02*
X14340838Y-15062219D01*
X14369409Y-15019362D01*
X14383695Y-14990791D01*
X14397981Y-14947934D01*
X14412266Y-14876505D01*
X14412266Y-14819362D01*
X14397981Y-14747934D01*
X14383695Y-14705076D01*
X14369409Y-14676505D01*
X14340838Y-14633648D01*
X14326552Y-14619362D01*
X7268695Y-15222505D02*
G75*
G03*
X7268695Y-15222505I-27500J0D01*
G01*
X7612266Y-15058219D02*
X7640838Y-15058219D01*
X7669409Y-15072505D01*
X7683695Y-15086791D01*
X7697981Y-15115362D01*
X7712266Y-15172505D01*
X7712266Y-15243934D01*
X7697981Y-15301076D01*
X7683695Y-15329648D01*
X7669409Y-15343934D01*
X7640838Y-15358219D01*
X7612266Y-15358219D01*
X7583695Y-15343934D01*
X7569409Y-15329648D01*
X7555123Y-15301076D01*
X7540838Y-15243934D01*
X7540838Y-15172505D01*
X7555123Y-15115362D01*
X7569409Y-15086791D01*
X7583695Y-15072505D01*
X7612266Y-15058219D01*
X7840838Y-15329648D02*
X7855123Y-15343934D01*
X7840838Y-15358219D01*
X7826552Y-15343934D01*
X7840838Y-15329648D01*
X7840838Y-15358219D01*
X8126552Y-15058219D02*
X7983695Y-15058219D01*
X7969409Y-15201076D01*
X7983695Y-15186791D01*
X8012266Y-15172505D01*
X8083695Y-15172505D01*
X8112266Y-15186791D01*
X8126552Y-15201076D01*
X8140838Y-15229648D01*
X8140838Y-15301076D01*
X8126552Y-15329648D01*
X8112266Y-15343934D01*
X8083695Y-15358219D01*
X8012266Y-15358219D01*
X7983695Y-15343934D01*
X7969409Y-15329648D01*
X8412266Y-15058219D02*
X8269409Y-15058219D01*
X8255123Y-15201076D01*
X8269409Y-15186791D01*
X8297981Y-15172505D01*
X8369409Y-15172505D01*
X8397981Y-15186791D01*
X8412266Y-15201076D01*
X8426552Y-15229648D01*
X8426552Y-15301076D01*
X8412266Y-15329648D01*
X8397981Y-15343934D01*
X8369409Y-15358219D01*
X8297981Y-15358219D01*
X8269409Y-15343934D01*
X8255123Y-15329648D01*
X8612266Y-15058219D02*
X8640838Y-15058219D01*
X8669409Y-15072505D01*
X8683695Y-15086791D01*
X8697981Y-15115362D01*
X8712266Y-15172505D01*
X8712266Y-15243934D01*
X8697981Y-15301076D01*
X8683695Y-15329648D01*
X8669409Y-15343934D01*
X8640838Y-15358219D01*
X8612266Y-15358219D01*
X8583695Y-15343934D01*
X8569409Y-15329648D01*
X8555123Y-15301076D01*
X8540838Y-15243934D01*
X8540838Y-15172505D01*
X8555123Y-15115362D01*
X8569409Y-15086791D01*
X8583695Y-15072505D01*
X8612266Y-15058219D01*
X8840838Y-15358219D02*
X8840838Y-15158219D01*
X8840838Y-15186791D02*
X8855123Y-15172505D01*
X8883695Y-15158219D01*
X8926552Y-15158219D01*
X8955123Y-15172505D01*
X8969409Y-15201076D01*
X8969409Y-15358219D01*
X8969409Y-15201076D02*
X8983695Y-15172505D01*
X9012266Y-15158219D01*
X9055123Y-15158219D01*
X9083695Y-15172505D01*
X9097981Y-15201076D01*
X9097981Y-15358219D01*
X9240838Y-15358219D02*
X9240838Y-15158219D01*
X9240838Y-15186791D02*
X9255123Y-15172505D01*
X9283695Y-15158219D01*
X9326552Y-15158219D01*
X9355123Y-15172505D01*
X9369409Y-15201076D01*
X9369409Y-15358219D01*
X9369409Y-15201076D02*
X9383695Y-15172505D01*
X9412266Y-15158219D01*
X9455123Y-15158219D01*
X9483695Y-15172505D01*
X9497981Y-15201076D01*
X9497981Y-15358219D01*
X10083695Y-15043934D02*
X9826552Y-15429648D01*
X10469409Y-15058219D02*
X10497981Y-15058219D01*
X10526552Y-15072505D01*
X10540838Y-15086791D01*
X10555123Y-15115362D01*
X10569409Y-15172505D01*
X10569409Y-15243934D01*
X10555123Y-15301076D01*
X10540838Y-15329648D01*
X10526552Y-15343934D01*
X10497981Y-15358219D01*
X10469409Y-15358219D01*
X10440838Y-15343934D01*
X10426552Y-15329648D01*
X10412266Y-15301076D01*
X10397981Y-15243934D01*
X10397981Y-15172505D01*
X10412266Y-15115362D01*
X10426552Y-15086791D01*
X10440838Y-15072505D01*
X10469409Y-15058219D01*
X10697981Y-15329648D02*
X10712266Y-15343934D01*
X10697981Y-15358219D01*
X10683695Y-15343934D01*
X10697981Y-15329648D01*
X10697981Y-15358219D01*
X10897981Y-15058219D02*
X10926552Y-15058219D01*
X10955123Y-15072505D01*
X10969409Y-15086791D01*
X10983695Y-15115362D01*
X10997981Y-15172505D01*
X10997981Y-15243934D01*
X10983695Y-15301076D01*
X10969409Y-15329648D01*
X10955123Y-15343934D01*
X10926552Y-15358219D01*
X10897981Y-15358219D01*
X10869409Y-15343934D01*
X10855123Y-15329648D01*
X10840838Y-15301076D01*
X10826552Y-15243934D01*
X10826552Y-15172505D01*
X10840838Y-15115362D01*
X10855123Y-15086791D01*
X10869409Y-15072505D01*
X10897981Y-15058219D01*
X11112266Y-15086791D02*
X11126552Y-15072505D01*
X11155123Y-15058219D01*
X11226552Y-15058219D01*
X11255123Y-15072505D01*
X11269409Y-15086791D01*
X11283695Y-15115362D01*
X11283695Y-15143934D01*
X11269409Y-15186791D01*
X11097981Y-15358219D01*
X11283695Y-15358219D01*
X11569409Y-15358219D02*
X11397981Y-15358219D01*
X11483695Y-15358219D02*
X11483695Y-15058219D01*
X11455123Y-15101076D01*
X11426552Y-15129648D01*
X11397981Y-15143934D01*
X11669409Y-15058219D02*
X11869409Y-15058219D01*
X11740838Y-15358219D01*
X11969409Y-15058219D02*
X11969409Y-15115362D01*
X12083695Y-15058219D02*
X12083695Y-15115362D01*
X12526552Y-15472505D02*
X12512266Y-15458219D01*
X12483695Y-15415362D01*
X12469409Y-15386791D01*
X12455123Y-15343934D01*
X12440838Y-15272505D01*
X12440838Y-15215362D01*
X12455123Y-15143934D01*
X12469409Y-15101076D01*
X12483695Y-15072505D01*
X12512266Y-15029648D01*
X12526552Y-15015362D01*
X12683695Y-15186791D02*
X12655123Y-15172505D01*
X12640838Y-15158219D01*
X12626552Y-15129648D01*
X12626552Y-15115362D01*
X12640838Y-15086791D01*
X12655123Y-15072505D01*
X12683695Y-15058219D01*
X12740838Y-15058219D01*
X12769409Y-15072505D01*
X12783695Y-15086791D01*
X12797981Y-15115362D01*
X12797981Y-15129648D01*
X12783695Y-15158219D01*
X12769409Y-15172505D01*
X12740838Y-15186791D01*
X12683695Y-15186791D01*
X12655123Y-15201076D01*
X12640838Y-15215362D01*
X12626552Y-15243934D01*
X12626552Y-15301076D01*
X12640838Y-15329648D01*
X12655123Y-15343934D01*
X12683695Y-15358219D01*
X12740838Y-15358219D01*
X12769409Y-15343934D01*
X12783695Y-15329648D01*
X12797981Y-15301076D01*
X12797981Y-15243934D01*
X12783695Y-15215362D01*
X12769409Y-15201076D01*
X12740838Y-15186791D01*
X13155123Y-15358219D02*
X13155123Y-15058219D01*
X13283695Y-15358219D02*
X13283695Y-15201076D01*
X13269409Y-15172505D01*
X13240838Y-15158219D01*
X13197981Y-15158219D01*
X13169409Y-15172505D01*
X13155123Y-15186791D01*
X13469409Y-15358219D02*
X13440838Y-15343934D01*
X13426552Y-15329648D01*
X13412266Y-15301076D01*
X13412266Y-15215362D01*
X13426552Y-15186791D01*
X13440838Y-15172505D01*
X13469409Y-15158219D01*
X13512266Y-15158219D01*
X13540838Y-15172505D01*
X13555123Y-15186791D01*
X13569409Y-15215362D01*
X13569409Y-15301076D01*
X13555123Y-15329648D01*
X13540838Y-15343934D01*
X13512266Y-15358219D01*
X13469409Y-15358219D01*
X13740838Y-15358219D02*
X13712266Y-15343934D01*
X13697981Y-15315362D01*
X13697981Y-15058219D01*
X13969409Y-15343934D02*
X13940838Y-15358219D01*
X13883695Y-15358219D01*
X13855123Y-15343934D01*
X13840838Y-15315362D01*
X13840838Y-15201076D01*
X13855123Y-15172505D01*
X13883695Y-15158219D01*
X13940838Y-15158219D01*
X13969409Y-15172505D01*
X13983695Y-15201076D01*
X13983695Y-15229648D01*
X13840838Y-15258219D01*
X14097981Y-15343934D02*
X14126552Y-15358219D01*
X14183695Y-15358219D01*
X14212266Y-15343934D01*
X14226552Y-15315362D01*
X14226552Y-15301076D01*
X14212266Y-15272505D01*
X14183695Y-15258219D01*
X14140838Y-15258219D01*
X14112266Y-15243934D01*
X14097981Y-15215362D01*
X14097981Y-15201076D01*
X14112266Y-15172505D01*
X14140838Y-15158219D01*
X14183695Y-15158219D01*
X14212266Y-15172505D01*
X14326552Y-15472505D02*
X14340838Y-15458219D01*
X14369409Y-15415362D01*
X14383695Y-15386791D01*
X14397981Y-15343934D01*
X14412266Y-15272505D01*
X14412266Y-15215362D01*
X14397981Y-15143934D01*
X14383695Y-15101076D01*
X14369409Y-15072505D01*
X14340838Y-15029648D01*
X14326552Y-15015362D01*
X7230595Y-15580405D02*
X7230595Y-15656605D01*
X7192495Y-15618505D02*
X7268695Y-15618505D01*
X7612266Y-15454219D02*
X7640838Y-15454219D01*
X7669409Y-15468505D01*
X7683695Y-15482791D01*
X7697981Y-15511362D01*
X7712266Y-15568505D01*
X7712266Y-15639934D01*
X7697981Y-15697076D01*
X7683695Y-15725648D01*
X7669409Y-15739934D01*
X7640838Y-15754219D01*
X7612266Y-15754219D01*
X7583695Y-15739934D01*
X7569409Y-15725648D01*
X7555123Y-15697076D01*
X7540838Y-15639934D01*
X7540838Y-15568505D01*
X7555123Y-15511362D01*
X7569409Y-15482791D01*
X7583695Y-15468505D01*
X7612266Y-15454219D01*
X7840838Y-15725648D02*
X7855123Y-15739934D01*
X7840838Y-15754219D01*
X7826552Y-15739934D01*
X7840838Y-15725648D01*
X7840838Y-15754219D01*
X7955123Y-15454219D02*
X8155123Y-15454219D01*
X8026552Y-15754219D01*
X8397981Y-15454219D02*
X8340838Y-15454219D01*
X8312266Y-15468505D01*
X8297981Y-15482791D01*
X8269409Y-15525648D01*
X8255123Y-15582791D01*
X8255123Y-15697076D01*
X8269409Y-15725648D01*
X8283695Y-15739934D01*
X8312266Y-15754219D01*
X8369409Y-15754219D01*
X8397981Y-15739934D01*
X8412266Y-15725648D01*
X8426552Y-15697076D01*
X8426552Y-15625648D01*
X8412266Y-15597076D01*
X8397981Y-15582791D01*
X8369409Y-15568505D01*
X8312266Y-15568505D01*
X8283695Y-15582791D01*
X8269409Y-15597076D01*
X8255123Y-15625648D01*
X8540838Y-15482791D02*
X8555123Y-15468505D01*
X8583695Y-15454219D01*
X8655123Y-15454219D01*
X8683695Y-15468505D01*
X8697981Y-15482791D01*
X8712266Y-15511362D01*
X8712266Y-15539934D01*
X8697981Y-15582791D01*
X8526552Y-15754219D01*
X8712266Y-15754219D01*
X8840838Y-15754219D02*
X8840838Y-15554219D01*
X8840838Y-15582791D02*
X8855123Y-15568505D01*
X8883695Y-15554219D01*
X8926552Y-15554219D01*
X8955123Y-15568505D01*
X8969409Y-15597076D01*
X8969409Y-15754219D01*
X8969409Y-15597076D02*
X8983695Y-15568505D01*
X9012266Y-15554219D01*
X9055123Y-15554219D01*
X9083695Y-15568505D01*
X9097981Y-15597076D01*
X9097981Y-15754219D01*
X9240838Y-15754219D02*
X9240838Y-15554219D01*
X9240838Y-15582791D02*
X9255123Y-15568505D01*
X9283695Y-15554219D01*
X9326552Y-15554219D01*
X9355123Y-15568505D01*
X9369409Y-15597076D01*
X9369409Y-15754219D01*
X9369409Y-15597076D02*
X9383695Y-15568505D01*
X9412266Y-15554219D01*
X9455123Y-15554219D01*
X9483695Y-15568505D01*
X9497981Y-15597076D01*
X9497981Y-15754219D01*
X10083695Y-15439934D02*
X9826552Y-15825648D01*
X10469409Y-15454219D02*
X10497981Y-15454219D01*
X10526552Y-15468505D01*
X10540838Y-15482791D01*
X10555123Y-15511362D01*
X10569409Y-15568505D01*
X10569409Y-15639934D01*
X10555123Y-15697076D01*
X10540838Y-15725648D01*
X10526552Y-15739934D01*
X10497981Y-15754219D01*
X10469409Y-15754219D01*
X10440838Y-15739934D01*
X10426552Y-15725648D01*
X10412266Y-15697076D01*
X10397981Y-15639934D01*
X10397981Y-15568505D01*
X10412266Y-15511362D01*
X10426552Y-15482791D01*
X10440838Y-15468505D01*
X10469409Y-15454219D01*
X10697981Y-15725648D02*
X10712266Y-15739934D01*
X10697981Y-15754219D01*
X10683695Y-15739934D01*
X10697981Y-15725648D01*
X10697981Y-15754219D01*
X10897981Y-15454219D02*
X10926552Y-15454219D01*
X10955123Y-15468505D01*
X10969409Y-15482791D01*
X10983695Y-15511362D01*
X10997981Y-15568505D01*
X10997981Y-15639934D01*
X10983695Y-15697076D01*
X10969409Y-15725648D01*
X10955123Y-15739934D01*
X10926552Y-15754219D01*
X10897981Y-15754219D01*
X10869409Y-15739934D01*
X10855123Y-15725648D01*
X10840838Y-15697076D01*
X10826552Y-15639934D01*
X10826552Y-15568505D01*
X10840838Y-15511362D01*
X10855123Y-15482791D01*
X10869409Y-15468505D01*
X10897981Y-15454219D01*
X11097981Y-15454219D02*
X11283695Y-15454219D01*
X11183695Y-15568505D01*
X11226552Y-15568505D01*
X11255123Y-15582791D01*
X11269409Y-15597076D01*
X11283695Y-15625648D01*
X11283695Y-15697076D01*
X11269409Y-15725648D01*
X11255123Y-15739934D01*
X11226552Y-15754219D01*
X11140838Y-15754219D01*
X11112266Y-15739934D01*
X11097981Y-15725648D01*
X11469409Y-15454219D02*
X11497981Y-15454219D01*
X11526552Y-15468505D01*
X11540838Y-15482791D01*
X11555123Y-15511362D01*
X11569409Y-15568505D01*
X11569409Y-15639934D01*
X11555123Y-15697076D01*
X11540838Y-15725648D01*
X11526552Y-15739934D01*
X11497981Y-15754219D01*
X11469409Y-15754219D01*
X11440838Y-15739934D01*
X11426552Y-15725648D01*
X11412266Y-15697076D01*
X11397981Y-15639934D01*
X11397981Y-15568505D01*
X11412266Y-15511362D01*
X11426552Y-15482791D01*
X11440838Y-15468505D01*
X11469409Y-15454219D01*
X11755123Y-15454219D02*
X11783695Y-15454219D01*
X11812266Y-15468505D01*
X11826552Y-15482791D01*
X11840838Y-15511362D01*
X11855123Y-15568505D01*
X11855123Y-15639934D01*
X11840838Y-15697076D01*
X11826552Y-15725648D01*
X11812266Y-15739934D01*
X11783695Y-15754219D01*
X11755123Y-15754219D01*
X11726552Y-15739934D01*
X11712266Y-15725648D01*
X11697981Y-15697076D01*
X11683695Y-15639934D01*
X11683695Y-15568505D01*
X11697981Y-15511362D01*
X11712266Y-15482791D01*
X11726552Y-15468505D01*
X11755123Y-15454219D01*
X11969409Y-15454219D02*
X11969409Y-15511362D01*
X12083695Y-15454219D02*
X12083695Y-15511362D01*
X12526552Y-15868505D02*
X12512266Y-15854219D01*
X12483695Y-15811362D01*
X12469409Y-15782791D01*
X12455123Y-15739934D01*
X12440838Y-15668505D01*
X12440838Y-15611362D01*
X12455123Y-15539934D01*
X12469409Y-15497076D01*
X12483695Y-15468505D01*
X12512266Y-15425648D01*
X12526552Y-15411362D01*
X12626552Y-15482791D02*
X12640838Y-15468505D01*
X12669409Y-15454219D01*
X12740838Y-15454219D01*
X12769409Y-15468505D01*
X12783695Y-15482791D01*
X12797981Y-15511362D01*
X12797981Y-15539934D01*
X12783695Y-15582791D01*
X12612266Y-15754219D01*
X12797981Y-15754219D01*
X13083695Y-15754219D02*
X12912266Y-15754219D01*
X12997981Y-15754219D02*
X12997981Y-15454219D01*
X12969409Y-15497076D01*
X12940838Y-15525648D01*
X12912266Y-15539934D01*
X13440838Y-15754219D02*
X13440838Y-15454219D01*
X13569409Y-15754219D02*
X13569409Y-15597076D01*
X13555123Y-15568505D01*
X13526552Y-15554219D01*
X13483695Y-15554219D01*
X13455123Y-15568505D01*
X13440838Y-15582791D01*
X13755123Y-15754219D02*
X13726552Y-15739934D01*
X13712266Y-15725648D01*
X13697981Y-15697076D01*
X13697981Y-15611362D01*
X13712266Y-15582791D01*
X13726552Y-15568505D01*
X13755123Y-15554219D01*
X13797981Y-15554219D01*
X13826552Y-15568505D01*
X13840838Y-15582791D01*
X13855123Y-15611362D01*
X13855123Y-15697076D01*
X13840838Y-15725648D01*
X13826552Y-15739934D01*
X13797981Y-15754219D01*
X13755123Y-15754219D01*
X14026552Y-15754219D02*
X13997981Y-15739934D01*
X13983695Y-15711362D01*
X13983695Y-15454219D01*
X14255123Y-15739934D02*
X14226552Y-15754219D01*
X14169409Y-15754219D01*
X14140838Y-15739934D01*
X14126552Y-15711362D01*
X14126552Y-15597076D01*
X14140838Y-15568505D01*
X14169409Y-15554219D01*
X14226552Y-15554219D01*
X14255123Y-15568505D01*
X14269409Y-15597076D01*
X14269409Y-15625648D01*
X14126552Y-15654219D01*
X14383695Y-15739934D02*
X14412266Y-15754219D01*
X14469409Y-15754219D01*
X14497981Y-15739934D01*
X14512266Y-15711362D01*
X14512266Y-15697076D01*
X14497981Y-15668505D01*
X14469409Y-15654219D01*
X14426552Y-15654219D01*
X14397981Y-15639934D01*
X14383695Y-15611362D01*
X14383695Y-15597076D01*
X14397981Y-15568505D01*
X14426552Y-15554219D01*
X14469409Y-15554219D01*
X14497981Y-15568505D01*
X14612266Y-15868505D02*
X14626552Y-15854219D01*
X14655123Y-15811362D01*
X14669409Y-15782791D01*
X14683695Y-15739934D01*
X14697981Y-15668505D01*
X14697981Y-15611362D01*
X14683695Y-15539934D01*
X14669409Y-15497076D01*
X14655123Y-15468505D01*
X14626552Y-15425648D01*
X14612266Y-15411362D01*
X7256979Y-16042790D02*
X7256979Y-15986221D01*
X7200410Y-15986221D01*
X7200410Y-16042790D01*
X7256979Y-16042790D01*
X7612266Y-15850219D02*
X7640838Y-15850219D01*
X7669409Y-15864505D01*
X7683695Y-15878791D01*
X7697981Y-15907362D01*
X7712266Y-15964505D01*
X7712266Y-16035934D01*
X7697981Y-16093076D01*
X7683695Y-16121648D01*
X7669409Y-16135934D01*
X7640838Y-16150219D01*
X7612266Y-16150219D01*
X7583695Y-16135934D01*
X7569409Y-16121648D01*
X7555123Y-16093076D01*
X7540838Y-16035934D01*
X7540838Y-15964505D01*
X7555123Y-15907362D01*
X7569409Y-15878791D01*
X7583695Y-15864505D01*
X7612266Y-15850219D01*
X7840838Y-16121648D02*
X7855123Y-16135934D01*
X7840838Y-16150219D01*
X7826552Y-16135934D01*
X7840838Y-16121648D01*
X7840838Y-16150219D01*
X8026552Y-15978791D02*
X7997981Y-15964505D01*
X7983695Y-15950219D01*
X7969409Y-15921648D01*
X7969409Y-15907362D01*
X7983695Y-15878791D01*
X7997981Y-15864505D01*
X8026552Y-15850219D01*
X8083695Y-15850219D01*
X8112266Y-15864505D01*
X8126552Y-15878791D01*
X8140838Y-15907362D01*
X8140838Y-15921648D01*
X8126552Y-15950219D01*
X8112266Y-15964505D01*
X8083695Y-15978791D01*
X8026552Y-15978791D01*
X7997981Y-15993076D01*
X7983695Y-16007362D01*
X7969409Y-16035934D01*
X7969409Y-16093076D01*
X7983695Y-16121648D01*
X7997981Y-16135934D01*
X8026552Y-16150219D01*
X8083695Y-16150219D01*
X8112266Y-16135934D01*
X8126552Y-16121648D01*
X8140838Y-16093076D01*
X8140838Y-16035934D01*
X8126552Y-16007362D01*
X8112266Y-15993076D01*
X8083695Y-15978791D01*
X8326552Y-15850219D02*
X8355123Y-15850219D01*
X8383695Y-15864505D01*
X8397981Y-15878791D01*
X8412266Y-15907362D01*
X8426552Y-15964505D01*
X8426552Y-16035934D01*
X8412266Y-16093076D01*
X8397981Y-16121648D01*
X8383695Y-16135934D01*
X8355123Y-16150219D01*
X8326552Y-16150219D01*
X8297981Y-16135934D01*
X8283695Y-16121648D01*
X8269409Y-16093076D01*
X8255123Y-16035934D01*
X8255123Y-15964505D01*
X8269409Y-15907362D01*
X8283695Y-15878791D01*
X8297981Y-15864505D01*
X8326552Y-15850219D01*
X8612266Y-15850219D02*
X8640838Y-15850219D01*
X8669409Y-15864505D01*
X8683695Y-15878791D01*
X8697981Y-15907362D01*
X8712266Y-15964505D01*
X8712266Y-16035934D01*
X8697981Y-16093076D01*
X8683695Y-16121648D01*
X8669409Y-16135934D01*
X8640838Y-16150219D01*
X8612266Y-16150219D01*
X8583695Y-16135934D01*
X8569409Y-16121648D01*
X8555123Y-16093076D01*
X8540838Y-16035934D01*
X8540838Y-15964505D01*
X8555123Y-15907362D01*
X8569409Y-15878791D01*
X8583695Y-15864505D01*
X8612266Y-15850219D01*
X8840838Y-16150219D02*
X8840838Y-15950219D01*
X8840838Y-15978791D02*
X8855123Y-15964505D01*
X8883695Y-15950219D01*
X8926552Y-15950219D01*
X8955123Y-15964505D01*
X8969409Y-15993076D01*
X8969409Y-16150219D01*
X8969409Y-15993076D02*
X8983695Y-15964505D01*
X9012266Y-15950219D01*
X9055123Y-15950219D01*
X9083695Y-15964505D01*
X9097981Y-15993076D01*
X9097981Y-16150219D01*
X9240838Y-16150219D02*
X9240838Y-15950219D01*
X9240838Y-15978791D02*
X9255123Y-15964505D01*
X9283695Y-15950219D01*
X9326552Y-15950219D01*
X9355123Y-15964505D01*
X9369409Y-15993076D01*
X9369409Y-16150219D01*
X9369409Y-15993076D02*
X9383695Y-15964505D01*
X9412266Y-15950219D01*
X9455123Y-15950219D01*
X9483695Y-15964505D01*
X9497981Y-15993076D01*
X9497981Y-16150219D01*
X10083695Y-15835934D02*
X9826552Y-16221648D01*
X10469409Y-15850219D02*
X10497981Y-15850219D01*
X10526552Y-15864505D01*
X10540838Y-15878791D01*
X10555123Y-15907362D01*
X10569409Y-15964505D01*
X10569409Y-16035934D01*
X10555123Y-16093076D01*
X10540838Y-16121648D01*
X10526552Y-16135934D01*
X10497981Y-16150219D01*
X10469409Y-16150219D01*
X10440838Y-16135934D01*
X10426552Y-16121648D01*
X10412266Y-16093076D01*
X10397981Y-16035934D01*
X10397981Y-15964505D01*
X10412266Y-15907362D01*
X10426552Y-15878791D01*
X10440838Y-15864505D01*
X10469409Y-15850219D01*
X10697981Y-16121648D02*
X10712266Y-16135934D01*
X10697981Y-16150219D01*
X10683695Y-16135934D01*
X10697981Y-16121648D01*
X10697981Y-16150219D01*
X10897981Y-15850219D02*
X10926552Y-15850219D01*
X10955123Y-15864505D01*
X10969409Y-15878791D01*
X10983695Y-15907362D01*
X10997981Y-15964505D01*
X10997981Y-16035934D01*
X10983695Y-16093076D01*
X10969409Y-16121648D01*
X10955123Y-16135934D01*
X10926552Y-16150219D01*
X10897981Y-16150219D01*
X10869409Y-16135934D01*
X10855123Y-16121648D01*
X10840838Y-16093076D01*
X10826552Y-16035934D01*
X10826552Y-15964505D01*
X10840838Y-15907362D01*
X10855123Y-15878791D01*
X10869409Y-15864505D01*
X10897981Y-15850219D01*
X11097981Y-15850219D02*
X11283695Y-15850219D01*
X11183695Y-15964505D01*
X11226552Y-15964505D01*
X11255123Y-15978791D01*
X11269409Y-15993076D01*
X11283695Y-16021648D01*
X11283695Y-16093076D01*
X11269409Y-16121648D01*
X11255123Y-16135934D01*
X11226552Y-16150219D01*
X11140838Y-16150219D01*
X11112266Y-16135934D01*
X11097981Y-16121648D01*
X11569409Y-16150219D02*
X11397981Y-16150219D01*
X11483695Y-16150219D02*
X11483695Y-15850219D01*
X11455123Y-15893076D01*
X11426552Y-15921648D01*
X11397981Y-15935934D01*
X11840838Y-15850219D02*
X11697981Y-15850219D01*
X11683695Y-15993076D01*
X11697981Y-15978791D01*
X11726552Y-15964505D01*
X11797981Y-15964505D01*
X11826552Y-15978791D01*
X11840838Y-15993076D01*
X11855123Y-16021648D01*
X11855123Y-16093076D01*
X11840838Y-16121648D01*
X11826552Y-16135934D01*
X11797981Y-16150219D01*
X11726552Y-16150219D01*
X11697981Y-16135934D01*
X11683695Y-16121648D01*
X11969409Y-15850219D02*
X11969409Y-15907362D01*
X12083695Y-15850219D02*
X12083695Y-15907362D01*
X12526552Y-16264505D02*
X12512266Y-16250219D01*
X12483695Y-16207362D01*
X12469409Y-16178791D01*
X12455123Y-16135934D01*
X12440838Y-16064505D01*
X12440838Y-16007362D01*
X12455123Y-15935934D01*
X12469409Y-15893076D01*
X12483695Y-15864505D01*
X12512266Y-15821648D01*
X12526552Y-15807362D01*
X12769409Y-15850219D02*
X12712266Y-15850219D01*
X12683695Y-15864505D01*
X12669409Y-15878791D01*
X12640838Y-15921648D01*
X12626552Y-15978791D01*
X12626552Y-16093076D01*
X12640838Y-16121648D01*
X12655123Y-16135934D01*
X12683695Y-16150219D01*
X12740838Y-16150219D01*
X12769409Y-16135934D01*
X12783695Y-16121648D01*
X12797981Y-16093076D01*
X12797981Y-16021648D01*
X12783695Y-15993076D01*
X12769409Y-15978791D01*
X12740838Y-15964505D01*
X12683695Y-15964505D01*
X12655123Y-15978791D01*
X12640838Y-15993076D01*
X12626552Y-16021648D01*
X13155123Y-16150219D02*
X13155123Y-15850219D01*
X13283695Y-16150219D02*
X13283695Y-15993076D01*
X13269409Y-15964505D01*
X13240838Y-15950219D01*
X13197981Y-15950219D01*
X13169409Y-15964505D01*
X13155123Y-15978791D01*
X13469409Y-16150219D02*
X13440838Y-16135934D01*
X13426552Y-16121648D01*
X13412266Y-16093076D01*
X13412266Y-16007362D01*
X13426552Y-15978791D01*
X13440838Y-15964505D01*
X13469409Y-15950219D01*
X13512266Y-15950219D01*
X13540838Y-15964505D01*
X13555123Y-15978791D01*
X13569409Y-16007362D01*
X13569409Y-16093076D01*
X13555123Y-16121648D01*
X13540838Y-16135934D01*
X13512266Y-16150219D01*
X13469409Y-16150219D01*
X13740838Y-16150219D02*
X13712266Y-16135934D01*
X13697981Y-16107362D01*
X13697981Y-15850219D01*
X13969409Y-16135934D02*
X13940838Y-16150219D01*
X13883695Y-16150219D01*
X13855123Y-16135934D01*
X13840838Y-16107362D01*
X13840838Y-15993076D01*
X13855123Y-15964505D01*
X13883695Y-15950219D01*
X13940838Y-15950219D01*
X13969409Y-15964505D01*
X13983695Y-15993076D01*
X13983695Y-16021648D01*
X13840838Y-16050219D01*
X14097981Y-16135934D02*
X14126552Y-16150219D01*
X14183695Y-16150219D01*
X14212266Y-16135934D01*
X14226552Y-16107362D01*
X14226552Y-16093076D01*
X14212266Y-16064505D01*
X14183695Y-16050219D01*
X14140838Y-16050219D01*
X14112266Y-16035934D01*
X14097981Y-16007362D01*
X14097981Y-15993076D01*
X14112266Y-15964505D01*
X14140838Y-15950219D01*
X14183695Y-15950219D01*
X14212266Y-15964505D01*
X14326552Y-16264505D02*
X14340838Y-16250219D01*
X14369409Y-16207362D01*
X14383695Y-16178791D01*
X14397981Y-16135934D01*
X14412266Y-16064505D01*
X14412266Y-16007362D01*
X14397981Y-15935934D01*
X14383695Y-15893076D01*
X14369409Y-15864505D01*
X14340838Y-15821648D01*
X14326552Y-15807362D01*
X7218695Y-16460505D02*
X7268695Y-16410505D01*
X7218695Y-16360505D01*
X7168695Y-16410505D01*
X7218695Y-16460505D01*
X7712266Y-16546219D02*
X7540838Y-16546219D01*
X7626552Y-16546219D02*
X7626552Y-16246219D01*
X7597981Y-16289076D01*
X7569409Y-16317648D01*
X7540838Y-16331934D01*
X7840838Y-16517648D02*
X7855123Y-16531934D01*
X7840838Y-16546219D01*
X7826552Y-16531934D01*
X7840838Y-16517648D01*
X7840838Y-16546219D01*
X8040838Y-16246219D02*
X8069409Y-16246219D01*
X8097981Y-16260505D01*
X8112266Y-16274791D01*
X8126552Y-16303362D01*
X8140838Y-16360505D01*
X8140838Y-16431934D01*
X8126552Y-16489076D01*
X8112266Y-16517648D01*
X8097981Y-16531934D01*
X8069409Y-16546219D01*
X8040838Y-16546219D01*
X8012266Y-16531934D01*
X7997981Y-16517648D01*
X7983695Y-16489076D01*
X7969409Y-16431934D01*
X7969409Y-16360505D01*
X7983695Y-16303362D01*
X7997981Y-16274791D01*
X8012266Y-16260505D01*
X8040838Y-16246219D01*
X8326552Y-16246219D02*
X8355123Y-16246219D01*
X8383695Y-16260505D01*
X8397981Y-16274791D01*
X8412266Y-16303362D01*
X8426552Y-16360505D01*
X8426552Y-16431934D01*
X8412266Y-16489076D01*
X8397981Y-16517648D01*
X8383695Y-16531934D01*
X8355123Y-16546219D01*
X8326552Y-16546219D01*
X8297981Y-16531934D01*
X8283695Y-16517648D01*
X8269409Y-16489076D01*
X8255123Y-16431934D01*
X8255123Y-16360505D01*
X8269409Y-16303362D01*
X8283695Y-16274791D01*
X8297981Y-16260505D01*
X8326552Y-16246219D01*
X8612266Y-16246219D02*
X8640838Y-16246219D01*
X8669409Y-16260505D01*
X8683695Y-16274791D01*
X8697981Y-16303362D01*
X8712266Y-16360505D01*
X8712266Y-16431934D01*
X8697981Y-16489076D01*
X8683695Y-16517648D01*
X8669409Y-16531934D01*
X8640838Y-16546219D01*
X8612266Y-16546219D01*
X8583695Y-16531934D01*
X8569409Y-16517648D01*
X8555123Y-16489076D01*
X8540838Y-16431934D01*
X8540838Y-16360505D01*
X8555123Y-16303362D01*
X8569409Y-16274791D01*
X8583695Y-16260505D01*
X8612266Y-16246219D01*
X8840838Y-16546219D02*
X8840838Y-16346219D01*
X8840838Y-16374791D02*
X8855123Y-16360505D01*
X8883695Y-16346219D01*
X8926552Y-16346219D01*
X8955123Y-16360505D01*
X8969409Y-16389076D01*
X8969409Y-16546219D01*
X8969409Y-16389076D02*
X8983695Y-16360505D01*
X9012266Y-16346219D01*
X9055123Y-16346219D01*
X9083695Y-16360505D01*
X9097981Y-16389076D01*
X9097981Y-16546219D01*
X9240838Y-16546219D02*
X9240838Y-16346219D01*
X9240838Y-16374791D02*
X9255123Y-16360505D01*
X9283695Y-16346219D01*
X9326552Y-16346219D01*
X9355123Y-16360505D01*
X9369409Y-16389076D01*
X9369409Y-16546219D01*
X9369409Y-16389076D02*
X9383695Y-16360505D01*
X9412266Y-16346219D01*
X9455123Y-16346219D01*
X9483695Y-16360505D01*
X9497981Y-16389076D01*
X9497981Y-16546219D01*
X10083695Y-16231934D02*
X9826552Y-16617648D01*
X10469409Y-16246219D02*
X10497981Y-16246219D01*
X10526552Y-16260505D01*
X10540838Y-16274791D01*
X10555123Y-16303362D01*
X10569409Y-16360505D01*
X10569409Y-16431934D01*
X10555123Y-16489076D01*
X10540838Y-16517648D01*
X10526552Y-16531934D01*
X10497981Y-16546219D01*
X10469409Y-16546219D01*
X10440838Y-16531934D01*
X10426552Y-16517648D01*
X10412266Y-16489076D01*
X10397981Y-16431934D01*
X10397981Y-16360505D01*
X10412266Y-16303362D01*
X10426552Y-16274791D01*
X10440838Y-16260505D01*
X10469409Y-16246219D01*
X10697981Y-16517648D02*
X10712266Y-16531934D01*
X10697981Y-16546219D01*
X10683695Y-16531934D01*
X10697981Y-16517648D01*
X10697981Y-16546219D01*
X10897981Y-16246219D02*
X10926552Y-16246219D01*
X10955123Y-16260505D01*
X10969409Y-16274791D01*
X10983695Y-16303362D01*
X10997981Y-16360505D01*
X10997981Y-16431934D01*
X10983695Y-16489076D01*
X10969409Y-16517648D01*
X10955123Y-16531934D01*
X10926552Y-16546219D01*
X10897981Y-16546219D01*
X10869409Y-16531934D01*
X10855123Y-16517648D01*
X10840838Y-16489076D01*
X10826552Y-16431934D01*
X10826552Y-16360505D01*
X10840838Y-16303362D01*
X10855123Y-16274791D01*
X10869409Y-16260505D01*
X10897981Y-16246219D01*
X11097981Y-16246219D02*
X11283695Y-16246219D01*
X11183695Y-16360505D01*
X11226552Y-16360505D01*
X11255123Y-16374791D01*
X11269409Y-16389076D01*
X11283695Y-16417648D01*
X11283695Y-16489076D01*
X11269409Y-16517648D01*
X11255123Y-16531934D01*
X11226552Y-16546219D01*
X11140838Y-16546219D01*
X11112266Y-16531934D01*
X11097981Y-16517648D01*
X11426552Y-16546219D02*
X11483695Y-16546219D01*
X11512266Y-16531934D01*
X11526552Y-16517648D01*
X11555123Y-16474791D01*
X11569409Y-16417648D01*
X11569409Y-16303362D01*
X11555123Y-16274791D01*
X11540838Y-16260505D01*
X11512266Y-16246219D01*
X11455123Y-16246219D01*
X11426552Y-16260505D01*
X11412266Y-16274791D01*
X11397981Y-16303362D01*
X11397981Y-16374791D01*
X11412266Y-16403362D01*
X11426552Y-16417648D01*
X11455123Y-16431934D01*
X11512266Y-16431934D01*
X11540838Y-16417648D01*
X11555123Y-16403362D01*
X11569409Y-16374791D01*
X11826552Y-16346219D02*
X11826552Y-16546219D01*
X11755123Y-16231934D02*
X11683695Y-16446219D01*
X11869409Y-16446219D01*
X11969409Y-16246219D02*
X11969409Y-16303362D01*
X12083695Y-16246219D02*
X12083695Y-16303362D01*
X12526552Y-16660505D02*
X12512266Y-16646219D01*
X12483695Y-16603362D01*
X12469409Y-16574791D01*
X12455123Y-16531934D01*
X12440838Y-16460505D01*
X12440838Y-16403362D01*
X12455123Y-16331934D01*
X12469409Y-16289076D01*
X12483695Y-16260505D01*
X12512266Y-16217648D01*
X12526552Y-16203362D01*
X12612266Y-16246219D02*
X12797981Y-16246219D01*
X12697981Y-16360505D01*
X12740838Y-16360505D01*
X12769409Y-16374791D01*
X12783695Y-16389076D01*
X12797981Y-16417648D01*
X12797981Y-16489076D01*
X12783695Y-16517648D01*
X12769409Y-16531934D01*
X12740838Y-16546219D01*
X12655123Y-16546219D01*
X12626552Y-16531934D01*
X12612266Y-16517648D01*
X13055123Y-16346219D02*
X13055123Y-16546219D01*
X12983695Y-16231934D02*
X12912266Y-16446219D01*
X13097981Y-16446219D01*
X13440838Y-16546219D02*
X13440838Y-16246219D01*
X13569409Y-16546219D02*
X13569409Y-16389076D01*
X13555123Y-16360505D01*
X13526552Y-16346219D01*
X13483695Y-16346219D01*
X13455123Y-16360505D01*
X13440838Y-16374791D01*
X13755123Y-16546219D02*
X13726552Y-16531934D01*
X13712266Y-16517648D01*
X13697981Y-16489076D01*
X13697981Y-16403362D01*
X13712266Y-16374791D01*
X13726552Y-16360505D01*
X13755123Y-16346219D01*
X13797981Y-16346219D01*
X13826552Y-16360505D01*
X13840838Y-16374791D01*
X13855123Y-16403362D01*
X13855123Y-16489076D01*
X13840838Y-16517648D01*
X13826552Y-16531934D01*
X13797981Y-16546219D01*
X13755123Y-16546219D01*
X14026552Y-16546219D02*
X13997981Y-16531934D01*
X13983695Y-16503362D01*
X13983695Y-16246219D01*
X14255123Y-16531934D02*
X14226552Y-16546219D01*
X14169409Y-16546219D01*
X14140838Y-16531934D01*
X14126552Y-16503362D01*
X14126552Y-16389076D01*
X14140838Y-16360505D01*
X14169409Y-16346219D01*
X14226552Y-16346219D01*
X14255123Y-16360505D01*
X14269409Y-16389076D01*
X14269409Y-16417648D01*
X14126552Y-16446219D01*
X14383695Y-16531934D02*
X14412266Y-16546219D01*
X14469409Y-16546219D01*
X14497981Y-16531934D01*
X14512266Y-16503362D01*
X14512266Y-16489076D01*
X14497981Y-16460505D01*
X14469409Y-16446219D01*
X14426552Y-16446219D01*
X14397981Y-16431934D01*
X14383695Y-16403362D01*
X14383695Y-16389076D01*
X14397981Y-16360505D01*
X14426552Y-16346219D01*
X14469409Y-16346219D01*
X14497981Y-16360505D01*
X14612266Y-16660505D02*
X14626552Y-16646219D01*
X14655123Y-16603362D01*
X14669409Y-16574791D01*
X14683695Y-16531934D01*
X14697981Y-16460505D01*
X14697981Y-16403362D01*
X14683695Y-16331934D01*
X14669409Y-16289076D01*
X14655123Y-16260505D01*
X14626552Y-16217648D01*
X14612266Y-16203362D01*
X7167095Y-16755705D02*
X7268695Y-16857305D01*
X7268695Y-16755705D02*
X7167095Y-16857305D01*
X7268695Y-16806505D02*
G75*
G03*
X7268695Y-16806505I-50800J0D01*
G01*
X7712266Y-16942219D02*
X7540838Y-16942219D01*
X7626552Y-16942219D02*
X7626552Y-16642219D01*
X7597981Y-16685076D01*
X7569409Y-16713648D01*
X7540838Y-16727934D01*
X7840838Y-16913648D02*
X7855123Y-16927934D01*
X7840838Y-16942219D01*
X7826552Y-16927934D01*
X7840838Y-16913648D01*
X7840838Y-16942219D01*
X8040838Y-16642219D02*
X8069409Y-16642219D01*
X8097981Y-16656505D01*
X8112266Y-16670791D01*
X8126552Y-16699362D01*
X8140838Y-16756505D01*
X8140838Y-16827934D01*
X8126552Y-16885077D01*
X8112266Y-16913648D01*
X8097981Y-16927934D01*
X8069409Y-16942219D01*
X8040838Y-16942219D01*
X8012266Y-16927934D01*
X7997981Y-16913648D01*
X7983695Y-16885077D01*
X7969409Y-16827934D01*
X7969409Y-16756505D01*
X7983695Y-16699362D01*
X7997981Y-16670791D01*
X8012266Y-16656505D01*
X8040838Y-16642219D01*
X8426552Y-16942219D02*
X8255123Y-16942219D01*
X8340838Y-16942219D02*
X8340838Y-16642219D01*
X8312266Y-16685076D01*
X8283695Y-16713648D01*
X8255123Y-16727934D01*
X8683695Y-16642219D02*
X8626552Y-16642219D01*
X8597981Y-16656505D01*
X8583695Y-16670791D01*
X8555123Y-16713648D01*
X8540838Y-16770791D01*
X8540838Y-16885077D01*
X8555123Y-16913648D01*
X8569409Y-16927934D01*
X8597981Y-16942219D01*
X8655123Y-16942219D01*
X8683695Y-16927934D01*
X8697981Y-16913648D01*
X8712266Y-16885077D01*
X8712266Y-16813648D01*
X8697981Y-16785077D01*
X8683695Y-16770791D01*
X8655123Y-16756505D01*
X8597981Y-16756505D01*
X8569409Y-16770791D01*
X8555123Y-16785077D01*
X8540838Y-16813648D01*
X8840838Y-16942219D02*
X8840838Y-16742219D01*
X8840838Y-16770791D02*
X8855123Y-16756505D01*
X8883695Y-16742219D01*
X8926552Y-16742219D01*
X8955123Y-16756505D01*
X8969409Y-16785077D01*
X8969409Y-16942219D01*
X8969409Y-16785077D02*
X8983695Y-16756505D01*
X9012266Y-16742219D01*
X9055123Y-16742219D01*
X9083695Y-16756505D01*
X9097981Y-16785077D01*
X9097981Y-16942219D01*
X9240838Y-16942219D02*
X9240838Y-16742219D01*
X9240838Y-16770791D02*
X9255123Y-16756505D01*
X9283695Y-16742219D01*
X9326552Y-16742219D01*
X9355123Y-16756505D01*
X9369409Y-16785077D01*
X9369409Y-16942219D01*
X9369409Y-16785077D02*
X9383695Y-16756505D01*
X9412266Y-16742219D01*
X9455123Y-16742219D01*
X9483695Y-16756505D01*
X9497981Y-16785077D01*
X9497981Y-16942219D01*
X10083695Y-16627934D02*
X9826552Y-17013648D01*
X10469409Y-16642219D02*
X10497981Y-16642219D01*
X10526552Y-16656505D01*
X10540838Y-16670791D01*
X10555123Y-16699362D01*
X10569409Y-16756505D01*
X10569409Y-16827934D01*
X10555123Y-16885077D01*
X10540838Y-16913648D01*
X10526552Y-16927934D01*
X10497981Y-16942219D01*
X10469409Y-16942219D01*
X10440838Y-16927934D01*
X10426552Y-16913648D01*
X10412266Y-16885077D01*
X10397981Y-16827934D01*
X10397981Y-16756505D01*
X10412266Y-16699362D01*
X10426552Y-16670791D01*
X10440838Y-16656505D01*
X10469409Y-16642219D01*
X10697981Y-16913648D02*
X10712266Y-16927934D01*
X10697981Y-16942219D01*
X10683695Y-16927934D01*
X10697981Y-16913648D01*
X10697981Y-16942219D01*
X10897981Y-16642219D02*
X10926552Y-16642219D01*
X10955123Y-16656505D01*
X10969409Y-16670791D01*
X10983695Y-16699362D01*
X10997981Y-16756505D01*
X10997981Y-16827934D01*
X10983695Y-16885077D01*
X10969409Y-16913648D01*
X10955123Y-16927934D01*
X10926552Y-16942219D01*
X10897981Y-16942219D01*
X10869409Y-16927934D01*
X10855123Y-16913648D01*
X10840838Y-16885077D01*
X10826552Y-16827934D01*
X10826552Y-16756505D01*
X10840838Y-16699362D01*
X10855123Y-16670791D01*
X10869409Y-16656505D01*
X10897981Y-16642219D01*
X11255123Y-16742219D02*
X11255123Y-16942219D01*
X11183695Y-16627934D02*
X11112266Y-16842219D01*
X11297981Y-16842219D01*
X11469409Y-16642219D02*
X11497981Y-16642219D01*
X11526552Y-16656505D01*
X11540838Y-16670791D01*
X11555123Y-16699362D01*
X11569409Y-16756505D01*
X11569409Y-16827934D01*
X11555123Y-16885077D01*
X11540838Y-16913648D01*
X11526552Y-16927934D01*
X11497981Y-16942219D01*
X11469409Y-16942219D01*
X11440838Y-16927934D01*
X11426552Y-16913648D01*
X11412266Y-16885077D01*
X11397981Y-16827934D01*
X11397981Y-16756505D01*
X11412266Y-16699362D01*
X11426552Y-16670791D01*
X11440838Y-16656505D01*
X11469409Y-16642219D01*
X11755123Y-16642219D02*
X11783695Y-16642219D01*
X11812266Y-16656505D01*
X11826552Y-16670791D01*
X11840838Y-16699362D01*
X11855123Y-16756505D01*
X11855123Y-16827934D01*
X11840838Y-16885077D01*
X11826552Y-16913648D01*
X11812266Y-16927934D01*
X11783695Y-16942219D01*
X11755123Y-16942219D01*
X11726552Y-16927934D01*
X11712266Y-16913648D01*
X11697981Y-16885077D01*
X11683695Y-16827934D01*
X11683695Y-16756505D01*
X11697981Y-16699362D01*
X11712266Y-16670791D01*
X11726552Y-16656505D01*
X11755123Y-16642219D01*
X11969409Y-16642219D02*
X11969409Y-16699362D01*
X12083695Y-16642219D02*
X12083695Y-16699362D01*
X12526552Y-17056505D02*
X12512266Y-17042219D01*
X12483695Y-16999362D01*
X12469409Y-16970791D01*
X12455123Y-16927934D01*
X12440838Y-16856505D01*
X12440838Y-16799362D01*
X12455123Y-16727934D01*
X12469409Y-16685076D01*
X12483695Y-16656505D01*
X12512266Y-16613648D01*
X12526552Y-16599362D01*
X12769409Y-16742219D02*
X12769409Y-16942219D01*
X12697981Y-16627934D02*
X12626552Y-16842219D01*
X12812266Y-16842219D01*
X12983695Y-16642219D02*
X13012266Y-16642219D01*
X13040838Y-16656505D01*
X13055123Y-16670791D01*
X13069409Y-16699362D01*
X13083695Y-16756505D01*
X13083695Y-16827934D01*
X13069409Y-16885077D01*
X13055123Y-16913648D01*
X13040838Y-16927934D01*
X13012266Y-16942219D01*
X12983695Y-16942219D01*
X12955123Y-16927934D01*
X12940838Y-16913648D01*
X12926552Y-16885077D01*
X12912266Y-16827934D01*
X12912266Y-16756505D01*
X12926552Y-16699362D01*
X12940838Y-16670791D01*
X12955123Y-16656505D01*
X12983695Y-16642219D01*
X13440838Y-16942219D02*
X13440838Y-16642219D01*
X13569409Y-16942219D02*
X13569409Y-16785077D01*
X13555123Y-16756505D01*
X13526552Y-16742219D01*
X13483695Y-16742219D01*
X13455123Y-16756505D01*
X13440838Y-16770791D01*
X13755123Y-16942219D02*
X13726552Y-16927934D01*
X13712266Y-16913648D01*
X13697981Y-16885077D01*
X13697981Y-16799362D01*
X13712266Y-16770791D01*
X13726552Y-16756505D01*
X13755123Y-16742219D01*
X13797981Y-16742219D01*
X13826552Y-16756505D01*
X13840838Y-16770791D01*
X13855123Y-16799362D01*
X13855123Y-16885077D01*
X13840838Y-16913648D01*
X13826552Y-16927934D01*
X13797981Y-16942219D01*
X13755123Y-16942219D01*
X14026552Y-16942219D02*
X13997981Y-16927934D01*
X13983695Y-16899362D01*
X13983695Y-16642219D01*
X14255123Y-16927934D02*
X14226552Y-16942219D01*
X14169409Y-16942219D01*
X14140838Y-16927934D01*
X14126552Y-16899362D01*
X14126552Y-16785077D01*
X14140838Y-16756505D01*
X14169409Y-16742219D01*
X14226552Y-16742219D01*
X14255123Y-16756505D01*
X14269409Y-16785077D01*
X14269409Y-16813648D01*
X14126552Y-16842219D01*
X14383695Y-16927934D02*
X14412266Y-16942219D01*
X14469409Y-16942219D01*
X14497981Y-16927934D01*
X14512266Y-16899362D01*
X14512266Y-16885077D01*
X14497981Y-16856505D01*
X14469409Y-16842219D01*
X14426552Y-16842219D01*
X14397981Y-16827934D01*
X14383695Y-16799362D01*
X14383695Y-16785077D01*
X14397981Y-16756505D01*
X14426552Y-16742219D01*
X14469409Y-16742219D01*
X14497981Y-16756505D01*
X14612266Y-17056505D02*
X14626552Y-17042219D01*
X14655123Y-16999362D01*
X14669409Y-16970791D01*
X14683695Y-16927934D01*
X14697981Y-16856505D01*
X14697981Y-16799362D01*
X14683695Y-16727934D01*
X14669409Y-16685076D01*
X14655123Y-16656505D01*
X14626552Y-16613648D01*
X14612266Y-16599362D01*
X7048695Y-17092505D02*
X7268695Y-17312505D01*
X7268695Y-17092505D02*
X7048695Y-17312505D01*
X7158695Y-17092505D02*
X7158695Y-17312505D01*
X7048695Y-17202505D02*
X7268695Y-17202505D01*
X7540838Y-17066791D02*
X7555123Y-17052505D01*
X7583695Y-17038219D01*
X7655123Y-17038219D01*
X7683695Y-17052505D01*
X7697981Y-17066791D01*
X7712266Y-17095362D01*
X7712266Y-17123934D01*
X7697981Y-17166791D01*
X7526552Y-17338219D01*
X7712266Y-17338219D01*
X7840838Y-17309648D02*
X7855123Y-17323934D01*
X7840838Y-17338219D01*
X7826552Y-17323934D01*
X7840838Y-17309648D01*
X7840838Y-17338219D01*
X7969409Y-17066791D02*
X7983695Y-17052505D01*
X8012266Y-17038219D01*
X8083695Y-17038219D01*
X8112266Y-17052505D01*
X8126552Y-17066791D01*
X8140838Y-17095362D01*
X8140838Y-17123934D01*
X8126552Y-17166791D01*
X7955123Y-17338219D01*
X8140838Y-17338219D01*
X8326552Y-17038219D02*
X8355123Y-17038219D01*
X8383695Y-17052505D01*
X8397981Y-17066791D01*
X8412266Y-17095362D01*
X8426552Y-17152505D01*
X8426552Y-17223934D01*
X8412266Y-17281077D01*
X8397981Y-17309648D01*
X8383695Y-17323934D01*
X8355123Y-17338219D01*
X8326552Y-17338219D01*
X8297981Y-17323934D01*
X8283695Y-17309648D01*
X8269409Y-17281077D01*
X8255123Y-17223934D01*
X8255123Y-17152505D01*
X8269409Y-17095362D01*
X8283695Y-17066791D01*
X8297981Y-17052505D01*
X8326552Y-17038219D01*
X8612266Y-17038219D02*
X8640838Y-17038219D01*
X8669409Y-17052505D01*
X8683695Y-17066791D01*
X8697981Y-17095362D01*
X8712266Y-17152505D01*
X8712266Y-17223934D01*
X8697981Y-17281077D01*
X8683695Y-17309648D01*
X8669409Y-17323934D01*
X8640838Y-17338219D01*
X8612266Y-17338219D01*
X8583695Y-17323934D01*
X8569409Y-17309648D01*
X8555123Y-17281077D01*
X8540838Y-17223934D01*
X8540838Y-17152505D01*
X8555123Y-17095362D01*
X8569409Y-17066791D01*
X8583695Y-17052505D01*
X8612266Y-17038219D01*
X8840838Y-17338219D02*
X8840838Y-17138219D01*
X8840838Y-17166791D02*
X8855123Y-17152505D01*
X8883695Y-17138219D01*
X8926552Y-17138219D01*
X8955123Y-17152505D01*
X8969409Y-17181077D01*
X8969409Y-17338219D01*
X8969409Y-17181077D02*
X8983695Y-17152505D01*
X9012266Y-17138219D01*
X9055123Y-17138219D01*
X9083695Y-17152505D01*
X9097981Y-17181077D01*
X9097981Y-17338219D01*
X9240838Y-17338219D02*
X9240838Y-17138219D01*
X9240838Y-17166791D02*
X9255123Y-17152505D01*
X9283695Y-17138219D01*
X9326552Y-17138219D01*
X9355123Y-17152505D01*
X9369409Y-17181077D01*
X9369409Y-17338219D01*
X9369409Y-17181077D02*
X9383695Y-17152505D01*
X9412266Y-17138219D01*
X9455123Y-17138219D01*
X9483695Y-17152505D01*
X9497981Y-17181077D01*
X9497981Y-17338219D01*
X10083695Y-17023934D02*
X9826552Y-17409648D01*
X10469409Y-17038219D02*
X10497981Y-17038219D01*
X10526552Y-17052505D01*
X10540838Y-17066791D01*
X10555123Y-17095362D01*
X10569409Y-17152505D01*
X10569409Y-17223934D01*
X10555123Y-17281077D01*
X10540838Y-17309648D01*
X10526552Y-17323934D01*
X10497981Y-17338219D01*
X10469409Y-17338219D01*
X10440838Y-17323934D01*
X10426552Y-17309648D01*
X10412266Y-17281077D01*
X10397981Y-17223934D01*
X10397981Y-17152505D01*
X10412266Y-17095362D01*
X10426552Y-17066791D01*
X10440838Y-17052505D01*
X10469409Y-17038219D01*
X10697981Y-17309648D02*
X10712266Y-17323934D01*
X10697981Y-17338219D01*
X10683695Y-17323934D01*
X10697981Y-17309648D01*
X10697981Y-17338219D01*
X10897981Y-17038219D02*
X10926552Y-17038219D01*
X10955123Y-17052505D01*
X10969409Y-17066791D01*
X10983695Y-17095362D01*
X10997981Y-17152505D01*
X10997981Y-17223934D01*
X10983695Y-17281077D01*
X10969409Y-17309648D01*
X10955123Y-17323934D01*
X10926552Y-17338219D01*
X10897981Y-17338219D01*
X10869409Y-17323934D01*
X10855123Y-17309648D01*
X10840838Y-17281077D01*
X10826552Y-17223934D01*
X10826552Y-17152505D01*
X10840838Y-17095362D01*
X10855123Y-17066791D01*
X10869409Y-17052505D01*
X10897981Y-17038219D01*
X11169409Y-17166791D02*
X11140838Y-17152505D01*
X11126552Y-17138219D01*
X11112266Y-17109648D01*
X11112266Y-17095362D01*
X11126552Y-17066791D01*
X11140838Y-17052505D01*
X11169409Y-17038219D01*
X11226552Y-17038219D01*
X11255123Y-17052505D01*
X11269409Y-17066791D01*
X11283695Y-17095362D01*
X11283695Y-17109648D01*
X11269409Y-17138219D01*
X11255123Y-17152505D01*
X11226552Y-17166791D01*
X11169409Y-17166791D01*
X11140838Y-17181077D01*
X11126552Y-17195362D01*
X11112266Y-17223934D01*
X11112266Y-17281077D01*
X11126552Y-17309648D01*
X11140838Y-17323934D01*
X11169409Y-17338219D01*
X11226552Y-17338219D01*
X11255123Y-17323934D01*
X11269409Y-17309648D01*
X11283695Y-17281077D01*
X11283695Y-17223934D01*
X11269409Y-17195362D01*
X11255123Y-17181077D01*
X11226552Y-17166791D01*
X11540838Y-17038219D02*
X11483695Y-17038219D01*
X11455123Y-17052505D01*
X11440838Y-17066791D01*
X11412266Y-17109648D01*
X11397981Y-17166791D01*
X11397981Y-17281077D01*
X11412266Y-17309648D01*
X11426552Y-17323934D01*
X11455123Y-17338219D01*
X11512266Y-17338219D01*
X11540838Y-17323934D01*
X11555123Y-17309648D01*
X11569409Y-17281077D01*
X11569409Y-17209648D01*
X11555123Y-17181077D01*
X11540838Y-17166791D01*
X11512266Y-17152505D01*
X11455123Y-17152505D01*
X11426552Y-17166791D01*
X11412266Y-17181077D01*
X11397981Y-17209648D01*
X11826552Y-17038219D02*
X11769409Y-17038219D01*
X11740838Y-17052505D01*
X11726552Y-17066791D01*
X11697981Y-17109648D01*
X11683695Y-17166791D01*
X11683695Y-17281077D01*
X11697981Y-17309648D01*
X11712266Y-17323934D01*
X11740838Y-17338219D01*
X11797981Y-17338219D01*
X11826552Y-17323934D01*
X11840838Y-17309648D01*
X11855123Y-17281077D01*
X11855123Y-17209648D01*
X11840838Y-17181077D01*
X11826552Y-17166791D01*
X11797981Y-17152505D01*
X11740838Y-17152505D01*
X11712266Y-17166791D01*
X11697981Y-17181077D01*
X11683695Y-17209648D01*
X11969409Y-17038219D02*
X11969409Y-17095362D01*
X12083695Y-17038219D02*
X12083695Y-17095362D01*
X12526552Y-17452505D02*
X12512266Y-17438219D01*
X12483695Y-17395362D01*
X12469409Y-17366791D01*
X12455123Y-17323934D01*
X12440838Y-17252505D01*
X12440838Y-17195362D01*
X12455123Y-17123934D01*
X12469409Y-17081077D01*
X12483695Y-17052505D01*
X12512266Y-17009648D01*
X12526552Y-16995362D01*
X12769409Y-17138219D02*
X12769409Y-17338219D01*
X12697981Y-17023934D02*
X12626552Y-17238219D01*
X12812266Y-17238219D01*
X13155123Y-17338219D02*
X13155123Y-17038219D01*
X13283695Y-17338219D02*
X13283695Y-17181077D01*
X13269409Y-17152505D01*
X13240838Y-17138219D01*
X13197981Y-17138219D01*
X13169409Y-17152505D01*
X13155123Y-17166791D01*
X13469409Y-17338219D02*
X13440838Y-17323934D01*
X13426552Y-17309648D01*
X13412266Y-17281077D01*
X13412266Y-17195362D01*
X13426552Y-17166791D01*
X13440838Y-17152505D01*
X13469409Y-17138219D01*
X13512266Y-17138219D01*
X13540838Y-17152505D01*
X13555123Y-17166791D01*
X13569409Y-17195362D01*
X13569409Y-17281077D01*
X13555123Y-17309648D01*
X13540838Y-17323934D01*
X13512266Y-17338219D01*
X13469409Y-17338219D01*
X13740838Y-17338219D02*
X13712266Y-17323934D01*
X13697981Y-17295362D01*
X13697981Y-17038219D01*
X13969409Y-17323934D02*
X13940838Y-17338219D01*
X13883695Y-17338219D01*
X13855123Y-17323934D01*
X13840838Y-17295362D01*
X13840838Y-17181077D01*
X13855123Y-17152505D01*
X13883695Y-17138219D01*
X13940838Y-17138219D01*
X13969409Y-17152505D01*
X13983695Y-17181077D01*
X13983695Y-17209648D01*
X13840838Y-17238219D01*
X14097981Y-17323934D02*
X14126552Y-17338219D01*
X14183695Y-17338219D01*
X14212266Y-17323934D01*
X14226552Y-17295362D01*
X14226552Y-17281077D01*
X14212266Y-17252505D01*
X14183695Y-17238219D01*
X14140838Y-17238219D01*
X14112266Y-17223934D01*
X14097981Y-17195362D01*
X14097981Y-17181077D01*
X14112266Y-17152505D01*
X14140838Y-17138219D01*
X14183695Y-17138219D01*
X14212266Y-17152505D01*
X14326552Y-17452505D02*
X14340838Y-17438219D01*
X14369409Y-17395362D01*
X14383695Y-17366791D01*
X14397981Y-17323934D01*
X14412266Y-17252505D01*
X14412266Y-17195362D01*
X14397981Y-17123934D01*
X14383695Y-17081077D01*
X14369409Y-17052505D01*
X14340838Y-17009648D01*
X14326552Y-16995362D01*
X6998695Y-17463505D02*
X7268695Y-17733505D01*
X7268695Y-17463505D02*
X6998695Y-17733505D01*
X7229155Y-17693965D02*
X7229155Y-17503045D01*
X7038235Y-17503045D01*
X7038235Y-17693965D01*
X7229155Y-17693965D01*
X7540838Y-17462791D02*
X7555123Y-17448505D01*
X7583695Y-17434219D01*
X7655123Y-17434219D01*
X7683695Y-17448505D01*
X7697981Y-17462791D01*
X7712266Y-17491362D01*
X7712266Y-17519934D01*
X7697981Y-17562791D01*
X7526552Y-17734219D01*
X7712266Y-17734219D01*
X7840838Y-17705648D02*
X7855123Y-17719934D01*
X7840838Y-17734219D01*
X7826552Y-17719934D01*
X7840838Y-17705648D01*
X7840838Y-17734219D01*
X7955123Y-17434219D02*
X8155123Y-17434219D01*
X8026552Y-17734219D01*
X8326552Y-17434219D02*
X8355123Y-17434219D01*
X8383695Y-17448505D01*
X8397981Y-17462791D01*
X8412266Y-17491362D01*
X8426552Y-17548505D01*
X8426552Y-17619934D01*
X8412266Y-17677077D01*
X8397981Y-17705648D01*
X8383695Y-17719934D01*
X8355123Y-17734219D01*
X8326552Y-17734219D01*
X8297981Y-17719934D01*
X8283695Y-17705648D01*
X8269409Y-17677077D01*
X8255123Y-17619934D01*
X8255123Y-17548505D01*
X8269409Y-17491362D01*
X8283695Y-17462791D01*
X8297981Y-17448505D01*
X8326552Y-17434219D01*
X8612266Y-17434219D02*
X8640838Y-17434219D01*
X8669409Y-17448505D01*
X8683695Y-17462791D01*
X8697981Y-17491362D01*
X8712266Y-17548505D01*
X8712266Y-17619934D01*
X8697981Y-17677077D01*
X8683695Y-17705648D01*
X8669409Y-17719934D01*
X8640838Y-17734219D01*
X8612266Y-17734219D01*
X8583695Y-17719934D01*
X8569409Y-17705648D01*
X8555123Y-17677077D01*
X8540838Y-17619934D01*
X8540838Y-17548505D01*
X8555123Y-17491362D01*
X8569409Y-17462791D01*
X8583695Y-17448505D01*
X8612266Y-17434219D01*
X8840838Y-17734219D02*
X8840838Y-17534219D01*
X8840838Y-17562791D02*
X8855123Y-17548505D01*
X8883695Y-17534219D01*
X8926552Y-17534219D01*
X8955123Y-17548505D01*
X8969409Y-17577077D01*
X8969409Y-17734219D01*
X8969409Y-17577077D02*
X8983695Y-17548505D01*
X9012266Y-17534219D01*
X9055123Y-17534219D01*
X9083695Y-17548505D01*
X9097981Y-17577077D01*
X9097981Y-17734219D01*
X9240838Y-17734219D02*
X9240838Y-17534219D01*
X9240838Y-17562791D02*
X9255123Y-17548505D01*
X9283695Y-17534219D01*
X9326552Y-17534219D01*
X9355123Y-17548505D01*
X9369409Y-17577077D01*
X9369409Y-17734219D01*
X9369409Y-17577077D02*
X9383695Y-17548505D01*
X9412266Y-17534219D01*
X9455123Y-17534219D01*
X9483695Y-17548505D01*
X9497981Y-17577077D01*
X9497981Y-17734219D01*
X10083695Y-17419934D02*
X9826552Y-17805648D01*
X10469409Y-17434219D02*
X10497981Y-17434219D01*
X10526552Y-17448505D01*
X10540838Y-17462791D01*
X10555123Y-17491362D01*
X10569409Y-17548505D01*
X10569409Y-17619934D01*
X10555123Y-17677077D01*
X10540838Y-17705648D01*
X10526552Y-17719934D01*
X10497981Y-17734219D01*
X10469409Y-17734219D01*
X10440838Y-17719934D01*
X10426552Y-17705648D01*
X10412266Y-17677077D01*
X10397981Y-17619934D01*
X10397981Y-17548505D01*
X10412266Y-17491362D01*
X10426552Y-17462791D01*
X10440838Y-17448505D01*
X10469409Y-17434219D01*
X10697981Y-17705648D02*
X10712266Y-17719934D01*
X10697981Y-17734219D01*
X10683695Y-17719934D01*
X10697981Y-17705648D01*
X10697981Y-17734219D01*
X10997981Y-17734219D02*
X10826552Y-17734219D01*
X10912266Y-17734219D02*
X10912266Y-17434219D01*
X10883695Y-17477077D01*
X10855123Y-17505648D01*
X10826552Y-17519934D01*
X11183695Y-17434219D02*
X11212266Y-17434219D01*
X11240838Y-17448505D01*
X11255123Y-17462791D01*
X11269409Y-17491362D01*
X11283695Y-17548505D01*
X11283695Y-17619934D01*
X11269409Y-17677077D01*
X11255123Y-17705648D01*
X11240838Y-17719934D01*
X11212266Y-17734219D01*
X11183695Y-17734219D01*
X11155123Y-17719934D01*
X11140838Y-17705648D01*
X11126552Y-17677077D01*
X11112266Y-17619934D01*
X11112266Y-17548505D01*
X11126552Y-17491362D01*
X11140838Y-17462791D01*
X11155123Y-17448505D01*
X11183695Y-17434219D01*
X11540838Y-17434219D02*
X11483695Y-17434219D01*
X11455123Y-17448505D01*
X11440838Y-17462791D01*
X11412266Y-17505648D01*
X11397981Y-17562791D01*
X11397981Y-17677077D01*
X11412266Y-17705648D01*
X11426552Y-17719934D01*
X11455123Y-17734219D01*
X11512266Y-17734219D01*
X11540838Y-17719934D01*
X11555123Y-17705648D01*
X11569409Y-17677077D01*
X11569409Y-17605648D01*
X11555123Y-17577077D01*
X11540838Y-17562791D01*
X11512266Y-17548505D01*
X11455123Y-17548505D01*
X11426552Y-17562791D01*
X11412266Y-17577077D01*
X11397981Y-17605648D01*
X11669409Y-17434219D02*
X11855123Y-17434219D01*
X11755123Y-17548505D01*
X11797981Y-17548505D01*
X11826552Y-17562791D01*
X11840838Y-17577077D01*
X11855123Y-17605648D01*
X11855123Y-17677077D01*
X11840838Y-17705648D01*
X11826552Y-17719934D01*
X11797981Y-17734219D01*
X11712266Y-17734219D01*
X11683695Y-17719934D01*
X11669409Y-17705648D01*
X11969409Y-17434219D02*
X11969409Y-17491362D01*
X12083695Y-17434219D02*
X12083695Y-17491362D01*
X12526552Y-17848505D02*
X12512266Y-17834219D01*
X12483695Y-17791362D01*
X12469409Y-17762791D01*
X12455123Y-17719934D01*
X12440838Y-17648505D01*
X12440838Y-17591362D01*
X12455123Y-17519934D01*
X12469409Y-17477077D01*
X12483695Y-17448505D01*
X12512266Y-17405648D01*
X12526552Y-17391362D01*
X12769409Y-17534219D02*
X12769409Y-17734219D01*
X12697981Y-17419934D02*
X12626552Y-17634219D01*
X12812266Y-17634219D01*
X13155123Y-17734219D02*
X13155123Y-17434219D01*
X13283695Y-17734219D02*
X13283695Y-17577077D01*
X13269409Y-17548505D01*
X13240838Y-17534219D01*
X13197981Y-17534219D01*
X13169409Y-17548505D01*
X13155123Y-17562791D01*
X13469409Y-17734219D02*
X13440838Y-17719934D01*
X13426552Y-17705648D01*
X13412266Y-17677077D01*
X13412266Y-17591362D01*
X13426552Y-17562791D01*
X13440838Y-17548505D01*
X13469409Y-17534219D01*
X13512266Y-17534219D01*
X13540838Y-17548505D01*
X13555123Y-17562791D01*
X13569409Y-17591362D01*
X13569409Y-17677077D01*
X13555123Y-17705648D01*
X13540838Y-17719934D01*
X13512266Y-17734219D01*
X13469409Y-17734219D01*
X13740838Y-17734219D02*
X13712266Y-17719934D01*
X13697981Y-17691362D01*
X13697981Y-17434219D01*
X13969409Y-17719934D02*
X13940838Y-17734219D01*
X13883695Y-17734219D01*
X13855123Y-17719934D01*
X13840838Y-17691362D01*
X13840838Y-17577077D01*
X13855123Y-17548505D01*
X13883695Y-17534219D01*
X13940838Y-17534219D01*
X13969409Y-17548505D01*
X13983695Y-17577077D01*
X13983695Y-17605648D01*
X13840838Y-17634219D01*
X14097981Y-17719934D02*
X14126552Y-17734219D01*
X14183695Y-17734219D01*
X14212266Y-17719934D01*
X14226552Y-17691362D01*
X14226552Y-17677077D01*
X14212266Y-17648505D01*
X14183695Y-17634219D01*
X14140838Y-17634219D01*
X14112266Y-17619934D01*
X14097981Y-17591362D01*
X14097981Y-17577077D01*
X14112266Y-17548505D01*
X14140838Y-17534219D01*
X14183695Y-17534219D01*
X14212266Y-17548505D01*
X14326552Y-17848505D02*
X14340838Y-17834219D01*
X14369409Y-17791362D01*
X14383695Y-17762791D01*
X14397981Y-17719934D01*
X14412266Y-17648505D01*
X14412266Y-17591362D01*
X14397981Y-17519934D01*
X14383695Y-17477077D01*
X14369409Y-17448505D01*
X14340838Y-17405648D01*
X14326552Y-17391362D01*
X6993695Y-17861005D02*
X7268695Y-18136005D01*
X7268695Y-17861005D02*
X6993695Y-18136005D01*
X7131195Y-18136005D02*
X7268695Y-17998505D01*
X7131195Y-17861005D01*
X6993695Y-17998505D01*
X7131195Y-18136005D01*
X7540838Y-17862791D02*
X7555123Y-17848505D01*
X7583695Y-17834219D01*
X7655123Y-17834219D01*
X7683695Y-17848505D01*
X7697981Y-17862791D01*
X7712266Y-17891362D01*
X7712266Y-17919934D01*
X7697981Y-17962791D01*
X7526552Y-18134219D01*
X7712266Y-18134219D01*
X7840838Y-18105648D02*
X7855123Y-18119934D01*
X7840838Y-18134219D01*
X7826552Y-18119934D01*
X7840838Y-18105648D01*
X7840838Y-18134219D01*
X7955123Y-17834219D02*
X8155123Y-17834219D01*
X8026552Y-18134219D01*
X8412266Y-17834219D02*
X8269409Y-17834219D01*
X8255123Y-17977077D01*
X8269409Y-17962791D01*
X8297981Y-17948505D01*
X8369409Y-17948505D01*
X8397981Y-17962791D01*
X8412266Y-17977077D01*
X8426552Y-18005648D01*
X8426552Y-18077077D01*
X8412266Y-18105648D01*
X8397981Y-18119934D01*
X8369409Y-18134219D01*
X8297981Y-18134219D01*
X8269409Y-18119934D01*
X8255123Y-18105648D01*
X8612266Y-17834219D02*
X8640838Y-17834219D01*
X8669409Y-17848505D01*
X8683695Y-17862791D01*
X8697981Y-17891362D01*
X8712266Y-17948505D01*
X8712266Y-18019934D01*
X8697981Y-18077077D01*
X8683695Y-18105648D01*
X8669409Y-18119934D01*
X8640838Y-18134219D01*
X8612266Y-18134219D01*
X8583695Y-18119934D01*
X8569409Y-18105648D01*
X8555123Y-18077077D01*
X8540838Y-18019934D01*
X8540838Y-17948505D01*
X8555123Y-17891362D01*
X8569409Y-17862791D01*
X8583695Y-17848505D01*
X8612266Y-17834219D01*
X8840838Y-18134219D02*
X8840838Y-17934219D01*
X8840838Y-17962791D02*
X8855123Y-17948505D01*
X8883695Y-17934219D01*
X8926552Y-17934219D01*
X8955123Y-17948505D01*
X8969409Y-17977077D01*
X8969409Y-18134219D01*
X8969409Y-17977077D02*
X8983695Y-17948505D01*
X9012266Y-17934219D01*
X9055123Y-17934219D01*
X9083695Y-17948505D01*
X9097981Y-17977077D01*
X9097981Y-18134219D01*
X9240838Y-18134219D02*
X9240838Y-17934219D01*
X9240838Y-17962791D02*
X9255123Y-17948505D01*
X9283695Y-17934219D01*
X9326552Y-17934219D01*
X9355123Y-17948505D01*
X9369409Y-17977077D01*
X9369409Y-18134219D01*
X9369409Y-17977077D02*
X9383695Y-17948505D01*
X9412266Y-17934219D01*
X9455123Y-17934219D01*
X9483695Y-17948505D01*
X9497981Y-17977077D01*
X9497981Y-18134219D01*
X10083695Y-17819934D02*
X9826552Y-18205648D01*
X10469409Y-17834219D02*
X10497981Y-17834219D01*
X10526552Y-17848505D01*
X10540838Y-17862791D01*
X10555123Y-17891362D01*
X10569409Y-17948505D01*
X10569409Y-18019934D01*
X10555123Y-18077077D01*
X10540838Y-18105648D01*
X10526552Y-18119934D01*
X10497981Y-18134219D01*
X10469409Y-18134219D01*
X10440838Y-18119934D01*
X10426552Y-18105648D01*
X10412266Y-18077077D01*
X10397981Y-18019934D01*
X10397981Y-17948505D01*
X10412266Y-17891362D01*
X10426552Y-17862791D01*
X10440838Y-17848505D01*
X10469409Y-17834219D01*
X10697981Y-18105648D02*
X10712266Y-18119934D01*
X10697981Y-18134219D01*
X10683695Y-18119934D01*
X10697981Y-18105648D01*
X10697981Y-18134219D01*
X10997981Y-18134219D02*
X10826552Y-18134219D01*
X10912266Y-18134219D02*
X10912266Y-17834219D01*
X10883695Y-17877077D01*
X10855123Y-17905648D01*
X10826552Y-17919934D01*
X11183695Y-17834219D02*
X11212266Y-17834219D01*
X11240838Y-17848505D01*
X11255123Y-17862791D01*
X11269409Y-17891362D01*
X11283695Y-17948505D01*
X11283695Y-18019934D01*
X11269409Y-18077077D01*
X11255123Y-18105648D01*
X11240838Y-18119934D01*
X11212266Y-18134219D01*
X11183695Y-18134219D01*
X11155123Y-18119934D01*
X11140838Y-18105648D01*
X11126552Y-18077077D01*
X11112266Y-18019934D01*
X11112266Y-17948505D01*
X11126552Y-17891362D01*
X11140838Y-17862791D01*
X11155123Y-17848505D01*
X11183695Y-17834219D01*
X11455123Y-17962791D02*
X11426552Y-17948505D01*
X11412266Y-17934219D01*
X11397981Y-17905648D01*
X11397981Y-17891362D01*
X11412266Y-17862791D01*
X11426552Y-17848505D01*
X11455123Y-17834219D01*
X11512266Y-17834219D01*
X11540838Y-17848505D01*
X11555123Y-17862791D01*
X11569409Y-17891362D01*
X11569409Y-17905648D01*
X11555123Y-17934219D01*
X11540838Y-17948505D01*
X11512266Y-17962791D01*
X11455123Y-17962791D01*
X11426552Y-17977077D01*
X11412266Y-17991362D01*
X11397981Y-18019934D01*
X11397981Y-18077077D01*
X11412266Y-18105648D01*
X11426552Y-18119934D01*
X11455123Y-18134219D01*
X11512266Y-18134219D01*
X11540838Y-18119934D01*
X11555123Y-18105648D01*
X11569409Y-18077077D01*
X11569409Y-18019934D01*
X11555123Y-17991362D01*
X11540838Y-17977077D01*
X11512266Y-17962791D01*
X11669409Y-17834219D02*
X11855123Y-17834219D01*
X11755123Y-17948505D01*
X11797981Y-17948505D01*
X11826552Y-17962791D01*
X11840838Y-17977077D01*
X11855123Y-18005648D01*
X11855123Y-18077077D01*
X11840838Y-18105648D01*
X11826552Y-18119934D01*
X11797981Y-18134219D01*
X11712266Y-18134219D01*
X11683695Y-18119934D01*
X11669409Y-18105648D01*
X11969409Y-17834219D02*
X11969409Y-17891362D01*
X12083695Y-17834219D02*
X12083695Y-17891362D01*
X12526552Y-18248505D02*
X12512266Y-18234219D01*
X12483695Y-18191362D01*
X12469409Y-18162791D01*
X12455123Y-18119934D01*
X12440838Y-18048505D01*
X12440838Y-17991362D01*
X12455123Y-17919934D01*
X12469409Y-17877077D01*
X12483695Y-17848505D01*
X12512266Y-17805648D01*
X12526552Y-17791362D01*
X12769409Y-17934219D02*
X12769409Y-18134219D01*
X12697981Y-17819934D02*
X12626552Y-18034219D01*
X12812266Y-18034219D01*
X13155123Y-18134219D02*
X13155123Y-17834219D01*
X13283695Y-18134219D02*
X13283695Y-17977077D01*
X13269409Y-17948505D01*
X13240838Y-17934219D01*
X13197981Y-17934219D01*
X13169409Y-17948505D01*
X13155123Y-17962791D01*
X13469409Y-18134219D02*
X13440838Y-18119934D01*
X13426552Y-18105648D01*
X13412266Y-18077077D01*
X13412266Y-17991362D01*
X13426552Y-17962791D01*
X13440838Y-17948505D01*
X13469409Y-17934219D01*
X13512266Y-17934219D01*
X13540838Y-17948505D01*
X13555123Y-17962791D01*
X13569409Y-17991362D01*
X13569409Y-18077077D01*
X13555123Y-18105648D01*
X13540838Y-18119934D01*
X13512266Y-18134219D01*
X13469409Y-18134219D01*
X13740838Y-18134219D02*
X13712266Y-18119934D01*
X13697981Y-18091362D01*
X13697981Y-17834219D01*
X13969409Y-18119934D02*
X13940838Y-18134219D01*
X13883695Y-18134219D01*
X13855123Y-18119934D01*
X13840838Y-18091362D01*
X13840838Y-17977077D01*
X13855123Y-17948505D01*
X13883695Y-17934219D01*
X13940838Y-17934219D01*
X13969409Y-17948505D01*
X13983695Y-17977077D01*
X13983695Y-18005648D01*
X13840838Y-18034219D01*
X14097981Y-18119934D02*
X14126552Y-18134219D01*
X14183695Y-18134219D01*
X14212266Y-18119934D01*
X14226552Y-18091362D01*
X14226552Y-18077077D01*
X14212266Y-18048505D01*
X14183695Y-18034219D01*
X14140838Y-18034219D01*
X14112266Y-18019934D01*
X14097981Y-17991362D01*
X14097981Y-17977077D01*
X14112266Y-17948505D01*
X14140838Y-17934219D01*
X14183695Y-17934219D01*
X14212266Y-17948505D01*
X14326552Y-18248505D02*
X14340838Y-18234219D01*
X14369409Y-18191362D01*
X14383695Y-18162791D01*
X14397981Y-18119934D01*
X14412266Y-18048505D01*
X14412266Y-17991362D01*
X14397981Y-17919934D01*
X14383695Y-17877077D01*
X14369409Y-17848505D01*
X14340838Y-17805648D01*
X14326552Y-17791362D01*
X7118695Y-18253505D02*
X7118695Y-18553505D01*
X6968695Y-18403505D02*
X7268695Y-18403505D01*
X7268695Y-18403505D02*
G75*
G03*
X7268695Y-18403505I-150000J0D01*
G01*
X7526552Y-18239219D02*
X7712266Y-18239219D01*
X7612266Y-18353505D01*
X7655123Y-18353505D01*
X7683695Y-18367791D01*
X7697981Y-18382077D01*
X7712266Y-18410648D01*
X7712266Y-18482077D01*
X7697981Y-18510648D01*
X7683695Y-18524934D01*
X7655123Y-18539219D01*
X7569409Y-18539219D01*
X7540838Y-18524934D01*
X7526552Y-18510648D01*
X7840838Y-18510648D02*
X7855123Y-18524934D01*
X7840838Y-18539219D01*
X7826552Y-18524934D01*
X7840838Y-18510648D01*
X7840838Y-18539219D01*
X8040838Y-18239219D02*
X8069409Y-18239219D01*
X8097981Y-18253505D01*
X8112266Y-18267791D01*
X8126552Y-18296362D01*
X8140838Y-18353505D01*
X8140838Y-18424934D01*
X8126552Y-18482077D01*
X8112266Y-18510648D01*
X8097981Y-18524934D01*
X8069409Y-18539219D01*
X8040838Y-18539219D01*
X8012266Y-18524934D01*
X7997981Y-18510648D01*
X7983695Y-18482077D01*
X7969409Y-18424934D01*
X7969409Y-18353505D01*
X7983695Y-18296362D01*
X7997981Y-18267791D01*
X8012266Y-18253505D01*
X8040838Y-18239219D01*
X8326552Y-18239219D02*
X8355123Y-18239219D01*
X8383695Y-18253505D01*
X8397981Y-18267791D01*
X8412266Y-18296362D01*
X8426552Y-18353505D01*
X8426552Y-18424934D01*
X8412266Y-18482077D01*
X8397981Y-18510648D01*
X8383695Y-18524934D01*
X8355123Y-18539219D01*
X8326552Y-18539219D01*
X8297981Y-18524934D01*
X8283695Y-18510648D01*
X8269409Y-18482077D01*
X8255123Y-18424934D01*
X8255123Y-18353505D01*
X8269409Y-18296362D01*
X8283695Y-18267791D01*
X8297981Y-18253505D01*
X8326552Y-18239219D01*
X8612266Y-18239219D02*
X8640838Y-18239219D01*
X8669409Y-18253505D01*
X8683695Y-18267791D01*
X8697981Y-18296362D01*
X8712266Y-18353505D01*
X8712266Y-18424934D01*
X8697981Y-18482077D01*
X8683695Y-18510648D01*
X8669409Y-18524934D01*
X8640838Y-18539219D01*
X8612266Y-18539219D01*
X8583695Y-18524934D01*
X8569409Y-18510648D01*
X8555123Y-18482077D01*
X8540838Y-18424934D01*
X8540838Y-18353505D01*
X8555123Y-18296362D01*
X8569409Y-18267791D01*
X8583695Y-18253505D01*
X8612266Y-18239219D01*
X8840838Y-18539219D02*
X8840838Y-18339219D01*
X8840838Y-18367791D02*
X8855123Y-18353505D01*
X8883695Y-18339219D01*
X8926552Y-18339219D01*
X8955123Y-18353505D01*
X8969409Y-18382077D01*
X8969409Y-18539219D01*
X8969409Y-18382077D02*
X8983695Y-18353505D01*
X9012266Y-18339219D01*
X9055123Y-18339219D01*
X9083695Y-18353505D01*
X9097981Y-18382077D01*
X9097981Y-18539219D01*
X9240838Y-18539219D02*
X9240838Y-18339219D01*
X9240838Y-18367791D02*
X9255123Y-18353505D01*
X9283695Y-18339219D01*
X9326552Y-18339219D01*
X9355123Y-18353505D01*
X9369409Y-18382077D01*
X9369409Y-18539219D01*
X9369409Y-18382077D02*
X9383695Y-18353505D01*
X9412266Y-18339219D01*
X9455123Y-18339219D01*
X9483695Y-18353505D01*
X9497981Y-18382077D01*
X9497981Y-18539219D01*
X10083695Y-18224934D02*
X9826552Y-18610648D01*
X10469409Y-18239219D02*
X10497981Y-18239219D01*
X10526552Y-18253505D01*
X10540838Y-18267791D01*
X10555123Y-18296362D01*
X10569409Y-18353505D01*
X10569409Y-18424934D01*
X10555123Y-18482077D01*
X10540838Y-18510648D01*
X10526552Y-18524934D01*
X10497981Y-18539219D01*
X10469409Y-18539219D01*
X10440838Y-18524934D01*
X10426552Y-18510648D01*
X10412266Y-18482077D01*
X10397981Y-18424934D01*
X10397981Y-18353505D01*
X10412266Y-18296362D01*
X10426552Y-18267791D01*
X10440838Y-18253505D01*
X10469409Y-18239219D01*
X10697981Y-18510648D02*
X10712266Y-18524934D01*
X10697981Y-18539219D01*
X10683695Y-18524934D01*
X10697981Y-18510648D01*
X10697981Y-18539219D01*
X10997981Y-18539219D02*
X10826552Y-18539219D01*
X10912266Y-18539219D02*
X10912266Y-18239219D01*
X10883695Y-18282077D01*
X10855123Y-18310648D01*
X10826552Y-18324934D01*
X11283695Y-18539219D02*
X11112266Y-18539219D01*
X11197981Y-18539219D02*
X11197981Y-18239219D01*
X11169409Y-18282077D01*
X11140838Y-18310648D01*
X11112266Y-18324934D01*
X11455123Y-18367791D02*
X11426552Y-18353505D01*
X11412266Y-18339219D01*
X11397981Y-18310648D01*
X11397981Y-18296362D01*
X11412266Y-18267791D01*
X11426552Y-18253505D01*
X11455123Y-18239219D01*
X11512266Y-18239219D01*
X11540838Y-18253505D01*
X11555123Y-18267791D01*
X11569409Y-18296362D01*
X11569409Y-18310648D01*
X11555123Y-18339219D01*
X11540838Y-18353505D01*
X11512266Y-18367791D01*
X11455123Y-18367791D01*
X11426552Y-18382077D01*
X11412266Y-18396362D01*
X11397981Y-18424934D01*
X11397981Y-18482077D01*
X11412266Y-18510648D01*
X11426552Y-18524934D01*
X11455123Y-18539219D01*
X11512266Y-18539219D01*
X11540838Y-18524934D01*
X11555123Y-18510648D01*
X11569409Y-18482077D01*
X11569409Y-18424934D01*
X11555123Y-18396362D01*
X11540838Y-18382077D01*
X11512266Y-18367791D01*
X11855123Y-18539219D02*
X11683695Y-18539219D01*
X11769409Y-18539219D02*
X11769409Y-18239219D01*
X11740838Y-18282077D01*
X11712266Y-18310648D01*
X11683695Y-18324934D01*
X11969409Y-18239219D02*
X11969409Y-18296362D01*
X12083695Y-18239219D02*
X12083695Y-18296362D01*
X12526552Y-18653505D02*
X12512266Y-18639219D01*
X12483695Y-18596362D01*
X12469409Y-18567791D01*
X12455123Y-18524934D01*
X12440838Y-18453505D01*
X12440838Y-18396362D01*
X12455123Y-18324934D01*
X12469409Y-18282077D01*
X12483695Y-18253505D01*
X12512266Y-18210648D01*
X12526552Y-18196362D01*
X12769409Y-18339219D02*
X12769409Y-18539219D01*
X12697981Y-18224934D02*
X12626552Y-18439219D01*
X12812266Y-18439219D01*
X13155123Y-18539219D02*
X13155123Y-18239219D01*
X13283695Y-18539219D02*
X13283695Y-18382077D01*
X13269409Y-18353505D01*
X13240838Y-18339219D01*
X13197981Y-18339219D01*
X13169409Y-18353505D01*
X13155123Y-18367791D01*
X13469409Y-18539219D02*
X13440838Y-18524934D01*
X13426552Y-18510648D01*
X13412266Y-18482077D01*
X13412266Y-18396362D01*
X13426552Y-18367791D01*
X13440838Y-18353505D01*
X13469409Y-18339219D01*
X13512266Y-18339219D01*
X13540838Y-18353505D01*
X13555123Y-18367791D01*
X13569409Y-18396362D01*
X13569409Y-18482077D01*
X13555123Y-18510648D01*
X13540838Y-18524934D01*
X13512266Y-18539219D01*
X13469409Y-18539219D01*
X13740838Y-18539219D02*
X13712266Y-18524934D01*
X13697981Y-18496362D01*
X13697981Y-18239219D01*
X13969409Y-18524934D02*
X13940838Y-18539219D01*
X13883695Y-18539219D01*
X13855123Y-18524934D01*
X13840838Y-18496362D01*
X13840838Y-18382077D01*
X13855123Y-18353505D01*
X13883695Y-18339219D01*
X13940838Y-18339219D01*
X13969409Y-18353505D01*
X13983695Y-18382077D01*
X13983695Y-18410648D01*
X13840838Y-18439219D01*
X14097981Y-18524934D02*
X14126552Y-18539219D01*
X14183695Y-18539219D01*
X14212266Y-18524934D01*
X14226552Y-18496362D01*
X14226552Y-18482077D01*
X14212266Y-18453505D01*
X14183695Y-18439219D01*
X14140838Y-18439219D01*
X14112266Y-18424934D01*
X14097981Y-18396362D01*
X14097981Y-18382077D01*
X14112266Y-18353505D01*
X14140838Y-18339219D01*
X14183695Y-18339219D01*
X14212266Y-18353505D01*
X14326552Y-18653505D02*
X14340838Y-18639219D01*
X14369409Y-18596362D01*
X14383695Y-18567791D01*
X14397981Y-18524934D01*
X14412266Y-18453505D01*
X14412266Y-18396362D01*
X14397981Y-18324934D01*
X14383695Y-18282077D01*
X14369409Y-18253505D01*
X14340838Y-18210648D01*
X14326552Y-18196362D01*
M02*
