M48
; DRILL file {KiCad (5.1.10)-1} date 04/17/22 04:08:34
; FORMAT={-:-/ absolute / metric / decimal}
; #@! TF.CreationDate,2022-04-17T04:08:34-07:00
; #@! TF.GenerationSoftware,Kicad,Pcbnew,(5.1.10)-1
; #@! TF.FileFunction,Plated,1,2,PTH
FMAT,2
METRIC
T1C0.330
T2C0.550
T3C0.762
T4C0.800
T5C1.000
T6C1.016
T7C2.200
T8C2.700
T9C2.750
T10C3.000
%
G90
G05
T1
X146.566Y-128.451
X149.066Y-128.406
T2
X206.416Y-111.506
X208.416Y-111.506
X210.416Y-111.506
X212.416Y-111.506
X214.416Y-111.506
X216.416Y-111.506
X218.416Y-111.506
X220.416Y-111.506
T3
X173.726Y-127.476
X176.266Y-127.476
X178.806Y-127.476
X181.196Y-71.316
X181.196Y-101.796
X181.346Y-127.476
X183.896Y-127.486
X185.006Y-71.316
X185.006Y-101.796
X188.816Y-71.316
X188.816Y-101.796
X192.626Y-71.316
X192.626Y-101.796
X196.436Y-71.316
X196.436Y-101.796
X200.246Y-71.316
X200.246Y-101.796
X204.056Y-71.316
X204.056Y-101.796
X207.866Y-71.316
X207.866Y-101.796
T4
X201.386Y-113.416
X201.386Y-115.956
X201.386Y-118.496
X201.386Y-121.036
X201.386Y-123.576
X201.386Y-126.116
T5
X123.736Y-133.956
X126.276Y-133.956
X128.816Y-133.956
X131.356Y-133.956
X133.896Y-133.956
X136.436Y-133.956
X146.566Y-133.906
X149.106Y-133.906
X151.646Y-133.906
X154.186Y-133.906
X175.316Y-107.906
X175.336Y-65.306
X177.856Y-107.906
X177.876Y-65.306
X180.396Y-107.906
X180.416Y-65.306
X182.936Y-107.906
X182.956Y-65.306
X185.476Y-107.906
X185.496Y-65.306
X188.016Y-107.906
X188.036Y-65.306
X190.556Y-107.906
X190.576Y-65.306
X193.096Y-107.906
X193.116Y-65.306
X199.566Y-135.606
X202.106Y-135.606
X204.646Y-135.606
X207.186Y-135.606
X209.726Y-135.606
X212.266Y-135.606
X214.806Y-135.606
X217.346Y-135.606
T6
X104.614Y-124.093
X104.614Y-126.633
X107.153Y-124.093
X107.153Y-126.633
X109.694Y-124.093
X109.694Y-126.633
X112.233Y-124.093
X112.233Y-126.633
X114.773Y-124.093
X114.773Y-126.633
X117.313Y-124.093
X117.313Y-126.633
X119.853Y-124.093
X119.853Y-126.633
X122.393Y-124.093
X122.393Y-126.633
X124.933Y-124.093
X124.933Y-126.633
X127.473Y-124.093
X127.473Y-126.633
X130.013Y-124.093
X130.013Y-126.633
X132.553Y-124.093
X132.553Y-126.633
X135.094Y-124.093
X135.094Y-126.633
X137.633Y-124.093
X137.633Y-126.633
X140.173Y-124.093
X140.173Y-126.633
X142.713Y-124.093
X142.713Y-126.633
X145.254Y-124.093
X145.254Y-126.633
X147.793Y-124.093
X147.793Y-126.633
X150.333Y-124.093
X150.333Y-126.633
X152.874Y-124.093
X152.874Y-126.633
T7
X176.751Y-71.316
X176.751Y-101.796
X212.311Y-71.316
X212.311Y-101.796
T8
X179.266Y-134.306
X184.266Y-134.306
X191.266Y-129.306
X191.266Y-134.306
T9
X99.743Y-76.364
X99.743Y-125.363
X157.743Y-76.364
X157.743Y-125.363
T10
X75.881Y-65.621
X75.881Y-135.471
X221.931Y-65.621
X221.931Y-135.471
T0
M30
