%FSLAX45Y45*%
G04 Gerber Fmt 4.5, Leading zero omitted, Abs format (unit mm)*
G04 Created by KiCad (PCBNEW (5.1.10)-1) date 2022-04-17 04:08:34*
%MOMM*%
%LPD*%
G01*
G04 APERTURE LIST*
%TA.AperFunction,Profile*%
%ADD10C,0.038100*%
%TD*%
%ADD11C,0.200000*%
%ADD12C,0.300000*%
G04 APERTURE END LIST*
D10*
X7588100Y-6244600D02*
X8032600Y-6244600D01*
X22510600Y-6689100D02*
X22510600Y-6562100D01*
X21748600Y-6244600D02*
X22066100Y-6244600D01*
X7588100Y-13864600D02*
G75*
G02*
X7270600Y-13547100I0J317500D01*
G01*
X22510600Y-13102600D02*
X22510600Y-13547100D01*
X22066100Y-6244600D02*
X22193100Y-6244600D01*
X7270600Y-13102600D02*
X7270600Y-13547100D01*
X22193100Y-6244600D02*
G75*
G02*
X22510600Y-6562100I0J-317500D01*
G01*
X22510600Y-7006600D02*
X22510600Y-6689100D01*
X21748600Y-13864600D02*
X8032600Y-13864600D01*
X7270600Y-6562100D02*
G75*
G02*
X7588100Y-6244600I317500J0D01*
G01*
X7270600Y-7006600D02*
X7270600Y-13102600D01*
X7270600Y-7006600D02*
X7270600Y-6562100D01*
X22510600Y-7006600D02*
X22510600Y-13102600D01*
X22510600Y-13547100D02*
G75*
G02*
X22193100Y-13864600I-317500J0D01*
G01*
X8032600Y-6244600D02*
X21748600Y-6244600D01*
X8032600Y-13864600D02*
X7588100Y-13864600D01*
X21748600Y-13864600D02*
X22193100Y-13864600D01*
D11*
X16816600Y-12495600D02*
X17116600Y-12795600D01*
X17116600Y-12495600D02*
X16816600Y-12795600D01*
X18136600Y-11175600D02*
X18436600Y-11475600D01*
X18436600Y-11175600D02*
X18136600Y-11475600D01*
D12*
X7555123Y-14332219D02*
X7555123Y-14032219D01*
X7626552Y-14032219D01*
X7669409Y-14046505D01*
X7697981Y-14075076D01*
X7712266Y-14103648D01*
X7726552Y-14160791D01*
X7726552Y-14203648D01*
X7712266Y-14260791D01*
X7697981Y-14289362D01*
X7669409Y-14317934D01*
X7626552Y-14332219D01*
X7555123Y-14332219D01*
X7855123Y-14332219D02*
X7855123Y-14132219D01*
X7855123Y-14189362D02*
X7869409Y-14160791D01*
X7883695Y-14146505D01*
X7912266Y-14132219D01*
X7940838Y-14132219D01*
X8040838Y-14332219D02*
X8040838Y-14132219D01*
X8040838Y-14032219D02*
X8026552Y-14046505D01*
X8040838Y-14060791D01*
X8055123Y-14046505D01*
X8040838Y-14032219D01*
X8040838Y-14060791D01*
X8226552Y-14332219D02*
X8197981Y-14317934D01*
X8183695Y-14289362D01*
X8183695Y-14032219D01*
X8383695Y-14332219D02*
X8355123Y-14317934D01*
X8340838Y-14289362D01*
X8340838Y-14032219D01*
X8726552Y-14332219D02*
X8726552Y-14032219D01*
X8826552Y-14246505D01*
X8926552Y-14032219D01*
X8926552Y-14332219D01*
X9197981Y-14332219D02*
X9197981Y-14175076D01*
X9183695Y-14146505D01*
X9155123Y-14132219D01*
X9097981Y-14132219D01*
X9069409Y-14146505D01*
X9197981Y-14317934D02*
X9169409Y-14332219D01*
X9097981Y-14332219D01*
X9069409Y-14317934D01*
X9055123Y-14289362D01*
X9055123Y-14260791D01*
X9069409Y-14232219D01*
X9097981Y-14217934D01*
X9169409Y-14217934D01*
X9197981Y-14203648D01*
X9340838Y-14132219D02*
X9340838Y-14432219D01*
X9340838Y-14146505D02*
X9369409Y-14132219D01*
X9426552Y-14132219D01*
X9455123Y-14146505D01*
X9469409Y-14160791D01*
X9483695Y-14189362D01*
X9483695Y-14275076D01*
X9469409Y-14303648D01*
X9455123Y-14317934D01*
X9426552Y-14332219D01*
X9369409Y-14332219D01*
X9340838Y-14317934D01*
X9612266Y-14303648D02*
X9626552Y-14317934D01*
X9612266Y-14332219D01*
X9597981Y-14317934D01*
X9612266Y-14303648D01*
X9612266Y-14332219D01*
X9612266Y-14146505D02*
X9626552Y-14160791D01*
X9612266Y-14175076D01*
X9597981Y-14160791D01*
X9612266Y-14146505D01*
X9612266Y-14175076D01*
X6968695Y-14676505D02*
X7268695Y-14976505D01*
X7268695Y-14676505D02*
X6968695Y-14976505D01*
X7526552Y-14662219D02*
X7712266Y-14662219D01*
X7612266Y-14776505D01*
X7655123Y-14776505D01*
X7683695Y-14790791D01*
X7697981Y-14805076D01*
X7712266Y-14833648D01*
X7712266Y-14905076D01*
X7697981Y-14933648D01*
X7683695Y-14947934D01*
X7655123Y-14962219D01*
X7569409Y-14962219D01*
X7540838Y-14947934D01*
X7526552Y-14933648D01*
X7840838Y-14933648D02*
X7855123Y-14947934D01*
X7840838Y-14962219D01*
X7826552Y-14947934D01*
X7840838Y-14933648D01*
X7840838Y-14962219D01*
X8040838Y-14662219D02*
X8069409Y-14662219D01*
X8097981Y-14676505D01*
X8112266Y-14690791D01*
X8126552Y-14719362D01*
X8140838Y-14776505D01*
X8140838Y-14847934D01*
X8126552Y-14905076D01*
X8112266Y-14933648D01*
X8097981Y-14947934D01*
X8069409Y-14962219D01*
X8040838Y-14962219D01*
X8012266Y-14947934D01*
X7997981Y-14933648D01*
X7983695Y-14905076D01*
X7969409Y-14847934D01*
X7969409Y-14776505D01*
X7983695Y-14719362D01*
X7997981Y-14690791D01*
X8012266Y-14676505D01*
X8040838Y-14662219D01*
X8326552Y-14662219D02*
X8355123Y-14662219D01*
X8383695Y-14676505D01*
X8397981Y-14690791D01*
X8412266Y-14719362D01*
X8426552Y-14776505D01*
X8426552Y-14847934D01*
X8412266Y-14905076D01*
X8397981Y-14933648D01*
X8383695Y-14947934D01*
X8355123Y-14962219D01*
X8326552Y-14962219D01*
X8297981Y-14947934D01*
X8283695Y-14933648D01*
X8269409Y-14905076D01*
X8255123Y-14847934D01*
X8255123Y-14776505D01*
X8269409Y-14719362D01*
X8283695Y-14690791D01*
X8297981Y-14676505D01*
X8326552Y-14662219D01*
X8612266Y-14662219D02*
X8640838Y-14662219D01*
X8669409Y-14676505D01*
X8683695Y-14690791D01*
X8697981Y-14719362D01*
X8712266Y-14776505D01*
X8712266Y-14847934D01*
X8697981Y-14905076D01*
X8683695Y-14933648D01*
X8669409Y-14947934D01*
X8640838Y-14962219D01*
X8612266Y-14962219D01*
X8583695Y-14947934D01*
X8569409Y-14933648D01*
X8555123Y-14905076D01*
X8540838Y-14847934D01*
X8540838Y-14776505D01*
X8555123Y-14719362D01*
X8569409Y-14690791D01*
X8583695Y-14676505D01*
X8612266Y-14662219D01*
X8840838Y-14962219D02*
X8840838Y-14762219D01*
X8840838Y-14790791D02*
X8855123Y-14776505D01*
X8883695Y-14762219D01*
X8926552Y-14762219D01*
X8955123Y-14776505D01*
X8969409Y-14805076D01*
X8969409Y-14962219D01*
X8969409Y-14805076D02*
X8983695Y-14776505D01*
X9012266Y-14762219D01*
X9055123Y-14762219D01*
X9083695Y-14776505D01*
X9097981Y-14805076D01*
X9097981Y-14962219D01*
X9240838Y-14962219D02*
X9240838Y-14762219D01*
X9240838Y-14790791D02*
X9255123Y-14776505D01*
X9283695Y-14762219D01*
X9326552Y-14762219D01*
X9355123Y-14776505D01*
X9369409Y-14805076D01*
X9369409Y-14962219D01*
X9369409Y-14805076D02*
X9383695Y-14776505D01*
X9412266Y-14762219D01*
X9455123Y-14762219D01*
X9483695Y-14776505D01*
X9497981Y-14805076D01*
X9497981Y-14962219D01*
X10083695Y-14647934D02*
X9826552Y-15033648D01*
X10469409Y-14662219D02*
X10497981Y-14662219D01*
X10526552Y-14676505D01*
X10540838Y-14690791D01*
X10555123Y-14719362D01*
X10569409Y-14776505D01*
X10569409Y-14847934D01*
X10555123Y-14905076D01*
X10540838Y-14933648D01*
X10526552Y-14947934D01*
X10497981Y-14962219D01*
X10469409Y-14962219D01*
X10440838Y-14947934D01*
X10426552Y-14933648D01*
X10412266Y-14905076D01*
X10397981Y-14847934D01*
X10397981Y-14776505D01*
X10412266Y-14719362D01*
X10426552Y-14690791D01*
X10440838Y-14676505D01*
X10469409Y-14662219D01*
X10697981Y-14933648D02*
X10712266Y-14947934D01*
X10697981Y-14962219D01*
X10683695Y-14947934D01*
X10697981Y-14933648D01*
X10697981Y-14962219D01*
X10997981Y-14962219D02*
X10826552Y-14962219D01*
X10912266Y-14962219D02*
X10912266Y-14662219D01*
X10883695Y-14705076D01*
X10855123Y-14733648D01*
X10826552Y-14747934D01*
X11283695Y-14962219D02*
X11112266Y-14962219D01*
X11197981Y-14962219D02*
X11197981Y-14662219D01*
X11169409Y-14705076D01*
X11140838Y-14733648D01*
X11112266Y-14747934D01*
X11455123Y-14790791D02*
X11426552Y-14776505D01*
X11412266Y-14762219D01*
X11397981Y-14733648D01*
X11397981Y-14719362D01*
X11412266Y-14690791D01*
X11426552Y-14676505D01*
X11455123Y-14662219D01*
X11512266Y-14662219D01*
X11540838Y-14676505D01*
X11555123Y-14690791D01*
X11569409Y-14719362D01*
X11569409Y-14733648D01*
X11555123Y-14762219D01*
X11540838Y-14776505D01*
X11512266Y-14790791D01*
X11455123Y-14790791D01*
X11426552Y-14805076D01*
X11412266Y-14819362D01*
X11397981Y-14847934D01*
X11397981Y-14905076D01*
X11412266Y-14933648D01*
X11426552Y-14947934D01*
X11455123Y-14962219D01*
X11512266Y-14962219D01*
X11540838Y-14947934D01*
X11555123Y-14933648D01*
X11569409Y-14905076D01*
X11569409Y-14847934D01*
X11555123Y-14819362D01*
X11540838Y-14805076D01*
X11512266Y-14790791D01*
X11855123Y-14962219D02*
X11683695Y-14962219D01*
X11769409Y-14962219D02*
X11769409Y-14662219D01*
X11740838Y-14705076D01*
X11712266Y-14733648D01*
X11683695Y-14747934D01*
X11969409Y-14662219D02*
X11969409Y-14719362D01*
X12083695Y-14662219D02*
X12083695Y-14719362D01*
X12526552Y-15076505D02*
X12512266Y-15062219D01*
X12483695Y-15019362D01*
X12469409Y-14990791D01*
X12455123Y-14947934D01*
X12440838Y-14876505D01*
X12440838Y-14819362D01*
X12455123Y-14747934D01*
X12469409Y-14705076D01*
X12483695Y-14676505D01*
X12512266Y-14633648D01*
X12526552Y-14619362D01*
X12626552Y-14690791D02*
X12640838Y-14676505D01*
X12669409Y-14662219D01*
X12740838Y-14662219D01*
X12769409Y-14676505D01*
X12783695Y-14690791D01*
X12797981Y-14719362D01*
X12797981Y-14747934D01*
X12783695Y-14790791D01*
X12612266Y-14962219D01*
X12797981Y-14962219D01*
X13155123Y-14962219D02*
X13155123Y-14662219D01*
X13283695Y-14962219D02*
X13283695Y-14805076D01*
X13269409Y-14776505D01*
X13240838Y-14762219D01*
X13197981Y-14762219D01*
X13169409Y-14776505D01*
X13155123Y-14790791D01*
X13469409Y-14962219D02*
X13440838Y-14947934D01*
X13426552Y-14933648D01*
X13412266Y-14905076D01*
X13412266Y-14819362D01*
X13426552Y-14790791D01*
X13440838Y-14776505D01*
X13469409Y-14762219D01*
X13512266Y-14762219D01*
X13540838Y-14776505D01*
X13555123Y-14790791D01*
X13569409Y-14819362D01*
X13569409Y-14905076D01*
X13555123Y-14933648D01*
X13540838Y-14947934D01*
X13512266Y-14962219D01*
X13469409Y-14962219D01*
X13740838Y-14962219D02*
X13712266Y-14947934D01*
X13697981Y-14919362D01*
X13697981Y-14662219D01*
X13969409Y-14947934D02*
X13940838Y-14962219D01*
X13883695Y-14962219D01*
X13855123Y-14947934D01*
X13840838Y-14919362D01*
X13840838Y-14805076D01*
X13855123Y-14776505D01*
X13883695Y-14762219D01*
X13940838Y-14762219D01*
X13969409Y-14776505D01*
X13983695Y-14805076D01*
X13983695Y-14833648D01*
X13840838Y-14862219D01*
X14097981Y-14947934D02*
X14126552Y-14962219D01*
X14183695Y-14962219D01*
X14212266Y-14947934D01*
X14226552Y-14919362D01*
X14226552Y-14905076D01*
X14212266Y-14876505D01*
X14183695Y-14862219D01*
X14140838Y-14862219D01*
X14112266Y-14847934D01*
X14097981Y-14819362D01*
X14097981Y-14805076D01*
X14112266Y-14776505D01*
X14140838Y-14762219D01*
X14183695Y-14762219D01*
X14212266Y-14776505D01*
X14326552Y-15076505D02*
X14340838Y-15062219D01*
X14369409Y-15019362D01*
X14383695Y-14990791D01*
X14397981Y-14947934D01*
X14412266Y-14876505D01*
X14412266Y-14819362D01*
X14397981Y-14747934D01*
X14383695Y-14705076D01*
X14369409Y-14676505D01*
X14340838Y-14633648D01*
X14326552Y-14619362D01*
X14869409Y-15076505D02*
X14855123Y-15062219D01*
X14826552Y-15019362D01*
X14812266Y-14990791D01*
X14797981Y-14947934D01*
X14783695Y-14876505D01*
X14783695Y-14819362D01*
X14797981Y-14747934D01*
X14812266Y-14705076D01*
X14826552Y-14676505D01*
X14855123Y-14633648D01*
X14869409Y-14619362D01*
X14983695Y-14762219D02*
X14983695Y-14962219D01*
X14983695Y-14790791D02*
X14997981Y-14776505D01*
X15026552Y-14762219D01*
X15069409Y-14762219D01*
X15097981Y-14776505D01*
X15112266Y-14805076D01*
X15112266Y-14962219D01*
X15297981Y-14962219D02*
X15269409Y-14947934D01*
X15255123Y-14933648D01*
X15240838Y-14905076D01*
X15240838Y-14819362D01*
X15255123Y-14790791D01*
X15269409Y-14776505D01*
X15297981Y-14762219D01*
X15340838Y-14762219D01*
X15369409Y-14776505D01*
X15383695Y-14790791D01*
X15397981Y-14819362D01*
X15397981Y-14905076D01*
X15383695Y-14933648D01*
X15369409Y-14947934D01*
X15340838Y-14962219D01*
X15297981Y-14962219D01*
X15483695Y-14762219D02*
X15597981Y-14762219D01*
X15526552Y-14662219D02*
X15526552Y-14919362D01*
X15540838Y-14947934D01*
X15569409Y-14962219D01*
X15597981Y-14962219D01*
X15926552Y-14762219D02*
X15926552Y-15062219D01*
X15926552Y-14776505D02*
X15955123Y-14762219D01*
X16012266Y-14762219D01*
X16040838Y-14776505D01*
X16055123Y-14790791D01*
X16069409Y-14819362D01*
X16069409Y-14905076D01*
X16055123Y-14933648D01*
X16040838Y-14947934D01*
X16012266Y-14962219D01*
X15955123Y-14962219D01*
X15926552Y-14947934D01*
X16240838Y-14962219D02*
X16212266Y-14947934D01*
X16197981Y-14919362D01*
X16197981Y-14662219D01*
X16483695Y-14962219D02*
X16483695Y-14805076D01*
X16469409Y-14776505D01*
X16440838Y-14762219D01*
X16383695Y-14762219D01*
X16355123Y-14776505D01*
X16483695Y-14947934D02*
X16455123Y-14962219D01*
X16383695Y-14962219D01*
X16355123Y-14947934D01*
X16340838Y-14919362D01*
X16340838Y-14890791D01*
X16355123Y-14862219D01*
X16383695Y-14847934D01*
X16455123Y-14847934D01*
X16483695Y-14833648D01*
X16583695Y-14762219D02*
X16697981Y-14762219D01*
X16626552Y-14662219D02*
X16626552Y-14919362D01*
X16640838Y-14947934D01*
X16669409Y-14962219D01*
X16697981Y-14962219D01*
X16912266Y-14947934D02*
X16883695Y-14962219D01*
X16826552Y-14962219D01*
X16797981Y-14947934D01*
X16783695Y-14919362D01*
X16783695Y-14805076D01*
X16797981Y-14776505D01*
X16826552Y-14762219D01*
X16883695Y-14762219D01*
X16912266Y-14776505D01*
X16926552Y-14805076D01*
X16926552Y-14833648D01*
X16783695Y-14862219D01*
X17183695Y-14962219D02*
X17183695Y-14662219D01*
X17183695Y-14947934D02*
X17155123Y-14962219D01*
X17097981Y-14962219D01*
X17069409Y-14947934D01*
X17055123Y-14933648D01*
X17040838Y-14905076D01*
X17040838Y-14819362D01*
X17055123Y-14790791D01*
X17069409Y-14776505D01*
X17097981Y-14762219D01*
X17155123Y-14762219D01*
X17183695Y-14776505D01*
X17297981Y-15076505D02*
X17312266Y-15062219D01*
X17340838Y-15019362D01*
X17355123Y-14990791D01*
X17369409Y-14947934D01*
X17383695Y-14876505D01*
X17383695Y-14819362D01*
X17369409Y-14747934D01*
X17355123Y-14705076D01*
X17340838Y-14676505D01*
X17312266Y-14633648D01*
X17297981Y-14619362D01*
M02*
