G04 #@! TF.GenerationSoftware,KiCad,Pcbnew,(5.1.10)-1*
G04 #@! TF.CreationDate,2022-04-17T04:08:04-07:00*
G04 #@! TF.ProjectId,DevelopmentBoard,44657665-6c6f-4706-9d65-6e74426f6172,rev?*
G04 #@! TF.SameCoordinates,Original*
G04 #@! TF.FileFunction,Copper,L1,Top*
G04 #@! TF.FilePolarity,Positive*
%FSLAX46Y46*%
G04 Gerber Fmt 4.6, Leading zero omitted, Abs format (unit mm)*
G04 Created by KiCad (PCBNEW (5.1.10)-1) date 2022-04-17 04:08:04*
%MOMM*%
%LPD*%
G01*
G04 APERTURE LIST*
G04 #@! TA.AperFunction,ComponentPad*
%ADD10C,1.524000*%
G04 #@! TD*
G04 #@! TA.AperFunction,ComponentPad*
%ADD11R,1.524000X1.524000*%
G04 #@! TD*
G04 #@! TA.AperFunction,ComponentPad*
%ADD12C,6.200000*%
G04 #@! TD*
G04 #@! TA.AperFunction,ComponentPad*
%ADD13C,3.000000*%
G04 #@! TD*
G04 #@! TA.AperFunction,ComponentPad*
%ADD14O,1.700000X1.700000*%
G04 #@! TD*
G04 #@! TA.AperFunction,ComponentPad*
%ADD15R,1.700000X1.700000*%
G04 #@! TD*
G04 #@! TA.AperFunction,ComponentPad*
%ADD16C,1.900000*%
G04 #@! TD*
G04 #@! TA.AperFunction,ComponentPad*
%ADD17O,1.270000X1.000000*%
G04 #@! TD*
G04 #@! TA.AperFunction,SMDPad,CuDef*
%ADD18R,0.600000X0.900000*%
G04 #@! TD*
G04 #@! TA.AperFunction,SMDPad,CuDef*
%ADD19R,0.900000X0.600000*%
G04 #@! TD*
G04 #@! TA.AperFunction,SMDPad,CuDef*
%ADD20C,2.500000*%
G04 #@! TD*
G04 #@! TA.AperFunction,ComponentPad*
%ADD21C,3.800000*%
G04 #@! TD*
G04 #@! TA.AperFunction,ComponentPad*
%ADD22R,3.800000X3.800000*%
G04 #@! TD*
G04 #@! TA.AperFunction,ViaPad*
%ADD23C,4.000000*%
G04 #@! TD*
G04 #@! TA.AperFunction,ViaPad*
%ADD24C,0.685800*%
G04 #@! TD*
G04 #@! TA.AperFunction,Conductor*
%ADD25C,0.150000*%
G04 #@! TD*
G04 #@! TA.AperFunction,Conductor*
%ADD26C,0.254000*%
G04 #@! TD*
G04 #@! TA.AperFunction,Conductor*
%ADD27C,2.000000*%
G04 #@! TD*
G04 APERTURE END LIST*
D10*
X104613500Y-126633500D03*
X107153500Y-126633500D03*
X109693500Y-126633500D03*
X112233500Y-126633500D03*
X114773500Y-126633500D03*
X117313500Y-126633500D03*
X104613500Y-124093500D03*
X107153500Y-124093500D03*
X109693500Y-124093500D03*
X112233500Y-124093500D03*
X114773500Y-124093500D03*
X117313500Y-124093500D03*
X119853500Y-126633500D03*
X119853500Y-124093500D03*
X122393500Y-126633500D03*
X124933500Y-126633500D03*
X127473500Y-126633500D03*
X130013500Y-126633500D03*
X132553500Y-126633500D03*
X135093500Y-126633500D03*
X122393500Y-124093500D03*
X124933500Y-124093500D03*
X127473500Y-124093500D03*
X130013500Y-124093500D03*
X132553500Y-124093500D03*
X135093500Y-124093500D03*
X137633500Y-126633500D03*
X137633500Y-124093500D03*
X140173500Y-126633500D03*
X142713500Y-126633500D03*
X145253500Y-126633500D03*
X147793500Y-126633500D03*
X150333500Y-126633500D03*
X152873500Y-126633500D03*
X140173500Y-124093500D03*
X142713500Y-124093500D03*
X145253500Y-124093500D03*
X147793500Y-124093500D03*
X150333500Y-124093500D03*
D11*
X152873500Y-124093500D03*
D12*
X157743500Y-125363500D03*
X99743500Y-125363500D03*
X99743500Y-76363500D03*
X157743500Y-76363500D03*
D10*
X196436000Y-71316000D03*
X188816000Y-71316000D03*
X185006000Y-71316000D03*
X200246000Y-71316000D03*
X204056000Y-71316000D03*
X192626000Y-71316000D03*
X181196000Y-71316000D03*
X207866000Y-71316000D03*
X207866000Y-101796000D03*
X204056000Y-101796000D03*
X200246000Y-101796000D03*
X196436000Y-101796000D03*
X181196000Y-101796000D03*
X185006000Y-101796000D03*
X188816000Y-101796000D03*
X192626000Y-101796000D03*
D13*
X212311000Y-71316000D03*
X212311000Y-101796000D03*
X176751000Y-101796000D03*
X176751000Y-71316000D03*
D14*
X193096000Y-107906000D03*
X190556000Y-107906000D03*
X188016000Y-107906000D03*
X185476000Y-107906000D03*
X182936000Y-107906000D03*
X180396000Y-107906000D03*
X177856000Y-107906000D03*
D15*
X175316000Y-107906000D03*
D16*
X201386000Y-115956000D03*
D17*
X218416000Y-111506000D03*
D16*
X201386000Y-121036000D03*
X201386000Y-126116000D03*
D17*
X220416000Y-111506000D03*
D16*
X201386000Y-123576000D03*
D17*
X214416000Y-111506000D03*
D16*
X201386000Y-118496000D03*
X201386000Y-113416000D03*
D17*
X216416000Y-111506000D03*
X206416000Y-111506000D03*
X210416000Y-111506000D03*
X208416000Y-111506000D03*
X212416000Y-111506000D03*
D15*
X154186000Y-133906000D03*
D14*
X151646000Y-133906000D03*
X149106000Y-133906000D03*
X146566000Y-133906000D03*
D18*
X150166000Y-137006000D03*
X151666000Y-137006000D03*
X167816000Y-106506000D03*
X166316000Y-106506000D03*
X146566000Y-137006000D03*
X148066000Y-137006000D03*
X166316000Y-103716000D03*
X167816000Y-103716000D03*
D19*
X217316000Y-132244420D03*
X217316000Y-130744420D03*
X214816000Y-130750200D03*
X214816000Y-132250200D03*
X212266000Y-132242580D03*
X212266000Y-130742580D03*
X209716000Y-130736800D03*
X209716000Y-132236800D03*
X207216000Y-132234960D03*
X207216000Y-130734960D03*
X204616000Y-130734960D03*
X204616000Y-132234960D03*
X202066000Y-132247660D03*
X202066000Y-130747660D03*
X199566000Y-132256000D03*
X199566000Y-130756000D03*
D20*
X171956500Y-134074000D03*
X159466000Y-134006000D03*
X166866000Y-134006000D03*
D10*
X178806000Y-127476000D03*
X181346000Y-127476000D03*
X183896000Y-127486000D03*
X176266000Y-127476000D03*
X173726000Y-127476000D03*
D15*
X199566000Y-135606000D03*
D14*
X202106000Y-135606000D03*
X204646000Y-135606000D03*
X207186000Y-135606000D03*
X209726000Y-135606000D03*
X212266000Y-135606000D03*
X214806000Y-135606000D03*
X217346000Y-135606000D03*
D15*
X136436000Y-133956000D03*
D14*
X133896000Y-133956000D03*
X131356000Y-133956000D03*
X128816000Y-133956000D03*
X126276000Y-133956000D03*
X123736000Y-133956000D03*
D21*
X191266000Y-134306000D03*
D22*
X191266000Y-129306000D03*
X184266000Y-134306000D03*
D21*
X179266000Y-134306000D03*
D15*
X175336000Y-65306000D03*
D14*
X177876000Y-65306000D03*
X180416000Y-65306000D03*
X182956000Y-65306000D03*
X185496000Y-65306000D03*
X188036000Y-65306000D03*
X190576000Y-65306000D03*
X193116000Y-65306000D03*
D18*
X167156000Y-83456000D03*
X165656000Y-83456000D03*
X165668000Y-89504500D03*
X167168000Y-89504500D03*
X165666000Y-87446000D03*
X167166000Y-87446000D03*
X167168000Y-85440500D03*
X165668000Y-85440500D03*
D23*
X75881000Y-135471000D03*
X75881000Y-65621000D03*
X221931000Y-65621000D03*
X221931000Y-135471000D03*
D24*
X146566000Y-128450900D03*
X149066000Y-128406004D03*
D25*
X204616000Y-118256000D02*
X204616000Y-130734960D01*
X202316000Y-115956000D02*
X204616000Y-118256000D01*
X201386000Y-115956000D02*
X202316000Y-115956000D01*
D26*
X154286000Y-134006000D02*
X154186000Y-133906000D01*
X159466000Y-134006000D02*
X154286000Y-134006000D01*
D25*
X199016000Y-121036000D02*
X201386000Y-121036000D01*
X194766000Y-116786000D02*
X199016000Y-121036000D01*
X194766000Y-112206000D02*
X194766000Y-116786000D01*
X205766000Y-109006000D02*
X197966000Y-109006000D01*
X209266000Y-105506000D02*
X205766000Y-109006000D01*
X209266000Y-99106000D02*
X209266000Y-105506000D01*
X207966000Y-97806000D02*
X209266000Y-99106000D01*
X197966000Y-109006000D02*
X194766000Y-112206000D01*
X161906000Y-97806000D02*
X207966000Y-97806000D01*
X140173500Y-119538500D02*
X161906000Y-97806000D01*
X140173500Y-124093500D02*
X140173500Y-119538500D01*
X202396000Y-121036000D02*
X201386000Y-121036000D01*
X203246000Y-121886000D02*
X202396000Y-121036000D01*
X203246000Y-126376000D02*
X203246000Y-121886000D01*
X199566000Y-130056000D02*
X203246000Y-126376000D01*
X199566000Y-130756000D02*
X199566000Y-130056000D01*
D27*
X150333500Y-126633500D02*
X152873500Y-126633500D01*
D25*
X150333500Y-130473500D02*
X150333500Y-126633500D01*
X151646000Y-131786000D02*
X150333500Y-130473500D01*
X151646000Y-133906000D02*
X151646000Y-131786000D01*
X151646000Y-136986000D02*
X151666000Y-137006000D01*
X151646000Y-133906000D02*
X151646000Y-136986000D01*
D27*
X161166000Y-130106000D02*
X167696000Y-123576000D01*
X154566000Y-130106000D02*
X161166000Y-130106000D01*
X152873500Y-128413500D02*
X154566000Y-130106000D01*
X152873500Y-126633500D02*
X152873500Y-128413500D01*
X167696000Y-123576000D02*
X180796000Y-123576000D01*
X183896000Y-126686000D02*
X183896000Y-127486000D01*
X180796000Y-123586000D02*
X183896000Y-126686000D01*
X180796000Y-123576000D02*
X180796000Y-123586000D01*
X190556000Y-120566000D02*
X187546000Y-123576000D01*
X190556000Y-107906000D02*
X190556000Y-120566000D01*
X187546000Y-123576000D02*
X201386000Y-123576000D01*
X180796000Y-123576000D02*
X187546000Y-123576000D01*
X190556000Y-107206102D02*
X190556000Y-107906000D01*
X201916000Y-105656000D02*
X192106102Y-105656000D01*
X204056000Y-103516000D02*
X201916000Y-105656000D01*
X192106102Y-105656000D02*
X190556000Y-107206102D01*
X204056000Y-101796000D02*
X204056000Y-103516000D01*
D25*
X133896000Y-136886000D02*
X133896000Y-133956000D01*
X135021000Y-138011000D02*
X133896000Y-136886000D01*
X147699500Y-138011000D02*
X135021000Y-138011000D01*
X147705250Y-138016750D02*
X147699500Y-138011000D01*
D26*
X166866000Y-133036000D02*
X166866000Y-134006000D01*
X163936000Y-130106000D02*
X166866000Y-133036000D01*
X161166000Y-130106000D02*
X163936000Y-130106000D01*
D25*
X147706000Y-138016000D02*
X147705250Y-138016750D01*
X151406000Y-138016000D02*
X147706000Y-138016000D01*
X151666000Y-137756000D02*
X151406000Y-138016000D01*
X151666000Y-137006000D02*
X151666000Y-137756000D01*
X148066000Y-137656000D02*
X148066000Y-137006000D01*
X147705250Y-138016750D02*
X148066000Y-137656000D01*
D26*
X147793500Y-123583500D02*
X147793500Y-124093500D01*
D25*
X146566000Y-128450900D02*
X146566000Y-133906000D01*
X146566000Y-133906000D02*
X146566000Y-137006000D01*
X146606000Y-122906000D02*
X147793500Y-124093500D01*
X214416000Y-111506000D02*
X214426000Y-111496000D01*
X214426000Y-111496000D02*
X214426000Y-107386000D01*
X214426000Y-107386000D02*
X215316000Y-106496000D01*
X144516000Y-122906000D02*
X146606000Y-122906000D01*
X215316000Y-96706000D02*
X211366000Y-92756000D01*
X215316000Y-106496000D02*
X215316000Y-96706000D01*
X133816000Y-121065756D02*
X133816000Y-124806000D01*
X211366000Y-92756000D02*
X162125756Y-92756000D01*
X144016000Y-124606000D02*
X144016000Y-123406000D01*
X162125756Y-92756000D02*
X133816000Y-121065756D01*
X133816000Y-124806000D02*
X134593010Y-125583010D01*
X134593010Y-125583010D02*
X143038990Y-125583010D01*
X143038990Y-125583010D02*
X144016000Y-124606000D01*
X144016000Y-123406000D02*
X144516000Y-122906000D01*
D26*
X137597920Y-124057920D02*
X137633500Y-124093500D01*
D25*
X202066000Y-129906000D02*
X202066000Y-130747660D01*
X203866000Y-128106000D02*
X202066000Y-129906000D01*
X203866000Y-119756000D02*
X203866000Y-128106000D01*
X202606000Y-118496000D02*
X203866000Y-119756000D01*
X201386000Y-118496000D02*
X202606000Y-118496000D01*
X161806000Y-97256000D02*
X137633500Y-121428500D01*
X209866000Y-98906000D02*
X208216000Y-97256000D01*
X209866000Y-105606000D02*
X209866000Y-98906000D01*
X137633500Y-121428500D02*
X137633500Y-124093500D01*
X206066000Y-109406000D02*
X209866000Y-105606000D01*
X208216000Y-97256000D02*
X161806000Y-97256000D01*
X195266000Y-112406000D02*
X198266000Y-109406000D01*
X195266000Y-116506000D02*
X195266000Y-112406000D01*
X197256000Y-118496000D02*
X195266000Y-116506000D01*
X198266000Y-109406000D02*
X206066000Y-109406000D01*
X201386000Y-118496000D02*
X197256000Y-118496000D01*
X204326000Y-113416000D02*
X201386000Y-113416000D01*
X207266000Y-130684960D02*
X207266000Y-116356000D01*
X207266000Y-116356000D02*
X204326000Y-113416000D01*
X207216000Y-130734960D02*
X207266000Y-130684960D01*
X149106000Y-133906000D02*
X149106000Y-128446004D01*
X149106000Y-128446004D02*
X149066000Y-128406004D01*
X150166000Y-136056000D02*
X150166000Y-137006000D01*
X149106000Y-134996000D02*
X150166000Y-136056000D01*
X149106000Y-133906000D02*
X149106000Y-134996000D01*
X148868990Y-122628990D02*
X150333500Y-124093500D01*
X142151258Y-122628990D02*
X148868990Y-122628990D01*
X141388989Y-123391259D02*
X142151258Y-122628990D01*
X140766000Y-125156000D02*
X141388989Y-124533011D01*
X216416000Y-111506000D02*
X216416000Y-112216000D01*
X215866000Y-112766000D02*
X214176000Y-112766000D01*
X216416000Y-112216000D02*
X215866000Y-112766000D01*
X161940497Y-93333011D02*
X136543011Y-118730497D01*
X214176000Y-112766000D02*
X213416000Y-112006000D01*
X214788989Y-106433011D02*
X214788989Y-97278989D01*
X213416000Y-112006000D02*
X213416000Y-107806000D01*
X137016000Y-125156000D02*
X140766000Y-125156000D01*
X213416000Y-107806000D02*
X214788989Y-106433011D01*
X210843011Y-93333011D02*
X161940497Y-93333011D01*
X214788989Y-97278989D02*
X210843011Y-93333011D01*
X136543011Y-118730497D02*
X136543011Y-124683011D01*
X141388989Y-124533011D02*
X141388989Y-123391259D01*
X136543011Y-124683011D02*
X137016000Y-125156000D01*
X206466000Y-112156000D02*
X206466000Y-111556000D01*
X209766000Y-115456000D02*
X206466000Y-112156000D01*
X209766000Y-130686800D02*
X209766000Y-115456000D01*
X209716000Y-130736800D02*
X209766000Y-130686800D01*
X210416000Y-112056000D02*
X210416000Y-111506000D01*
X214866000Y-116506000D02*
X210416000Y-112056000D01*
X214866000Y-130700200D02*
X214866000Y-116506000D01*
X214816000Y-130750200D02*
X214866000Y-130700200D01*
X208416000Y-112106000D02*
X208416000Y-111506000D01*
X212316000Y-116006000D02*
X208416000Y-112106000D01*
X212316000Y-130692580D02*
X212316000Y-116006000D01*
X212266000Y-130742580D02*
X212316000Y-130692580D01*
X212416000Y-112056000D02*
X212416000Y-111506000D01*
X217366000Y-117006000D02*
X212416000Y-112056000D01*
X217366000Y-130694420D02*
X217366000Y-117006000D01*
X217316000Y-130744420D02*
X217366000Y-130694420D01*
X182936000Y-107906000D02*
X180986000Y-109856000D01*
X180986000Y-109856000D02*
X173666000Y-109856000D01*
X170316000Y-106506000D02*
X167816000Y-106506000D01*
X173666000Y-109856000D02*
X170316000Y-106506000D01*
X182936000Y-106286000D02*
X182936000Y-107906000D01*
X185970020Y-103251980D02*
X182936000Y-106286000D01*
X191170020Y-103251980D02*
X185970020Y-103251980D01*
X192626000Y-101796000D02*
X191170020Y-103251980D01*
X145253500Y-127493500D02*
X145253500Y-126633500D01*
X148066000Y-127906000D02*
X145666000Y-127906000D01*
X148866000Y-127106000D02*
X148066000Y-127906000D01*
X145666000Y-127906000D02*
X145253500Y-127493500D01*
X148866000Y-125606000D02*
X148866000Y-127106000D01*
X151866000Y-124697752D02*
X151180741Y-125383011D01*
X151866000Y-118206000D02*
X151866000Y-124697752D01*
X149088989Y-125383011D02*
X148866000Y-125606000D01*
X151180741Y-125383011D02*
X149088989Y-125383011D01*
X163566000Y-106506000D02*
X151866000Y-118206000D01*
X166316000Y-106506000D02*
X163566000Y-106506000D01*
X143288500Y-126633500D02*
X142713500Y-126633500D01*
X151066000Y-125106000D02*
X144816000Y-125106000D01*
X151466000Y-124706000D02*
X151066000Y-125106000D01*
X151466000Y-118006000D02*
X151466000Y-124706000D01*
X165756000Y-103716000D02*
X151466000Y-118006000D01*
X166356000Y-103716000D02*
X165756000Y-103716000D01*
X144816000Y-125106000D02*
X143288500Y-126633500D01*
X166366000Y-103706000D02*
X166356000Y-103716000D01*
X180396000Y-106326000D02*
X180396000Y-107906000D01*
X183816000Y-102906000D02*
X180396000Y-106326000D01*
X187706000Y-102906000D02*
X183816000Y-102906000D01*
X188816000Y-101796000D02*
X187706000Y-102906000D01*
X186486500Y-99466500D02*
X188816000Y-101796000D01*
X173755500Y-99466500D02*
X186486500Y-99466500D01*
X169506000Y-103716000D02*
X173755500Y-99466500D01*
X167876000Y-103716000D02*
X169506000Y-103716000D01*
X167866000Y-103706000D02*
X167876000Y-103716000D01*
X217316000Y-135576000D02*
X217346000Y-135606000D01*
X217316000Y-132244420D02*
X217316000Y-135576000D01*
X214816000Y-135596000D02*
X214806000Y-135606000D01*
X214816000Y-132250200D02*
X214816000Y-135596000D01*
X212266000Y-132242580D02*
X212266000Y-135606000D01*
X209716000Y-135596000D02*
X209726000Y-135606000D01*
X209716000Y-132236800D02*
X209716000Y-135596000D01*
X207216000Y-135576000D02*
X207186000Y-135606000D01*
X207216000Y-132234960D02*
X207216000Y-135576000D01*
X204616000Y-135576000D02*
X204646000Y-135606000D01*
X204616000Y-132234960D02*
X204616000Y-135576000D01*
X202066000Y-135566000D02*
X202106000Y-135606000D01*
X202066000Y-132247660D02*
X202066000Y-135566000D01*
X199566000Y-132256000D02*
X199566000Y-135606000D01*
D27*
X176266000Y-131306000D02*
X179266000Y-134306000D01*
X176266000Y-127476000D02*
X176266000Y-131306000D01*
D26*
X172188500Y-134306000D02*
X171956500Y-134074000D01*
X179266000Y-134306000D02*
X172188500Y-134306000D01*
D25*
X130013500Y-124258500D02*
X130013500Y-124093500D01*
X128816000Y-125456000D02*
X130013500Y-124258500D01*
X128816000Y-133956000D02*
X128816000Y-125456000D01*
X196436000Y-70376000D02*
X196436000Y-71316000D01*
X194566000Y-68506000D02*
X196436000Y-70376000D01*
X187666000Y-68506000D02*
X194566000Y-68506000D01*
X185496000Y-66336000D02*
X187666000Y-68506000D01*
X185496000Y-65306000D02*
X185496000Y-66336000D01*
X167168000Y-89504500D02*
X167196500Y-89476000D01*
X168527500Y-89504500D02*
X167168000Y-89504500D01*
X181176000Y-76856000D02*
X168527500Y-89504500D01*
X192066000Y-76856000D02*
X181176000Y-76856000D01*
X196436000Y-72486000D02*
X192066000Y-76856000D01*
X196436000Y-71316000D02*
X196436000Y-72486000D01*
X130013500Y-123015870D02*
X130013500Y-124093500D01*
X131765983Y-120311022D02*
X130013500Y-122063504D01*
X134178982Y-120311022D02*
X131765983Y-120311022D01*
X162558500Y-91931504D02*
X134178982Y-120311022D01*
X130013500Y-122063504D02*
X130013500Y-123015870D01*
X162558500Y-91913500D02*
X162558500Y-91931504D01*
X164967500Y-89504500D02*
X162558500Y-91913500D01*
X165668000Y-89504500D02*
X164967500Y-89504500D01*
X187076000Y-71316000D02*
X188816000Y-71316000D01*
X185566000Y-69806000D02*
X187076000Y-71316000D01*
X184116000Y-69806000D02*
X185566000Y-69806000D01*
X180416000Y-66106000D02*
X184116000Y-69806000D01*
X180416000Y-65306000D02*
X180416000Y-66106000D01*
X180536000Y-68326000D02*
X183526000Y-71316000D01*
X179386000Y-68326000D02*
X180536000Y-68326000D01*
X177876000Y-66816000D02*
X179386000Y-68326000D01*
X183526000Y-71316000D02*
X185006000Y-71316000D01*
X177876000Y-65306000D02*
X177876000Y-66816000D01*
X123736000Y-125291000D02*
X124933500Y-124093500D01*
X123736000Y-133956000D02*
X123736000Y-125291000D01*
X200246000Y-70236000D02*
X200246000Y-71316000D01*
X197666000Y-67656000D02*
X200246000Y-70236000D01*
X189416000Y-67656000D02*
X197666000Y-67656000D01*
X188036000Y-66276000D02*
X189416000Y-67656000D01*
X188036000Y-65306000D02*
X188036000Y-66276000D01*
X168360000Y-83472000D02*
X167104500Y-83472000D01*
X171258000Y-80574000D02*
X168360000Y-83472000D01*
X171258000Y-65303500D02*
X171258000Y-80574000D01*
X173290000Y-63271500D02*
X171258000Y-65303500D01*
X186001500Y-63271500D02*
X173290000Y-63271500D01*
X188036000Y-65306000D02*
X186001500Y-63271500D01*
X124933500Y-122042000D02*
X124933500Y-124093500D01*
X127600500Y-119375000D02*
X124933500Y-122042000D01*
X133939750Y-119375000D02*
X127600500Y-119375000D01*
X161606000Y-91708750D02*
X133939750Y-119375000D01*
X161606000Y-86086000D02*
X161606000Y-91708750D01*
X164220000Y-83472000D02*
X161606000Y-86086000D01*
X165604500Y-83472000D02*
X164220000Y-83472000D01*
X204056000Y-70031000D02*
X204056000Y-71316000D01*
X200981000Y-66956000D02*
X204056000Y-70031000D01*
X191896000Y-66956000D02*
X200981000Y-66956000D01*
X190576000Y-65636000D02*
X191896000Y-66956000D01*
X190576000Y-65306000D02*
X190576000Y-65636000D01*
X127473500Y-124423500D02*
X126276000Y-125621000D01*
X126276000Y-125621000D02*
X126276000Y-133956000D01*
X127473500Y-124093500D02*
X127473500Y-124423500D01*
X192626000Y-70416000D02*
X192626000Y-71316000D01*
X191466000Y-69256000D02*
X192626000Y-70416000D01*
X186016000Y-69256000D02*
X191466000Y-69256000D01*
X182956000Y-66196000D02*
X186016000Y-69256000D01*
X182956000Y-65306000D02*
X182956000Y-66196000D01*
X167270000Y-87446000D02*
X167180000Y-87536000D01*
X168166000Y-87446000D02*
X167270000Y-87446000D01*
X179306000Y-76306000D02*
X168166000Y-87446000D01*
X189153500Y-76306000D02*
X179306000Y-76306000D01*
X192626000Y-72833500D02*
X189153500Y-76306000D01*
X192626000Y-71316000D02*
X192626000Y-72833500D01*
X128977989Y-120034011D02*
X127473500Y-121538500D01*
X134064241Y-120034011D02*
X128977989Y-120034011D01*
X127473500Y-123015870D02*
X127473500Y-124093500D01*
X162241000Y-89991000D02*
X162241000Y-91857252D01*
X164786000Y-87446000D02*
X162241000Y-89991000D01*
X162241000Y-91857252D02*
X134064241Y-120034011D01*
X165590000Y-87446000D02*
X164786000Y-87446000D01*
X127473500Y-121538500D02*
X127473500Y-123015870D01*
X165680000Y-87536000D02*
X165590000Y-87446000D01*
X179626000Y-71316000D02*
X181196000Y-71316000D01*
X175336000Y-67026000D02*
X179626000Y-71316000D01*
X175336000Y-65306000D02*
X175336000Y-67026000D01*
X168291500Y-85440500D02*
X167168000Y-85440500D01*
X181196000Y-72536000D02*
X168291500Y-85440500D01*
X181196000Y-71316000D02*
X181196000Y-72536000D01*
X124933500Y-125738500D02*
X124933500Y-126633500D01*
X126266000Y-121766000D02*
X126266000Y-124406000D01*
X128309000Y-119723000D02*
X126266000Y-121766000D01*
X133983500Y-119723000D02*
X128309000Y-119723000D01*
X161923500Y-91783000D02*
X133983500Y-119723000D01*
X126266000Y-124406000D02*
X124933500Y-125738500D01*
X161923500Y-88428500D02*
X161923500Y-91783000D01*
X164911500Y-85440500D02*
X161923500Y-88428500D01*
X165668000Y-85440500D02*
X164911500Y-85440500D01*
X201856000Y-65306000D02*
X207866000Y-71316000D01*
X193116000Y-65306000D02*
X201856000Y-65306000D01*
D27*
X191266000Y-134306000D02*
X184266000Y-134306000D01*
D25*
X208016000Y-103406000D02*
X208016000Y-101806000D01*
X203516000Y-107906000D02*
X208016000Y-103406000D01*
X193096000Y-107906000D02*
X203516000Y-107906000D01*
X191066000Y-103806000D02*
X188016000Y-106856000D01*
X188016000Y-106856000D02*
X188016000Y-107906000D01*
X198236000Y-103806000D02*
X191066000Y-103806000D01*
X200246000Y-101796000D02*
X198236000Y-103806000D01*
X194703010Y-103528990D02*
X188493010Y-103528990D01*
X196436000Y-101796000D02*
X194703010Y-103528990D01*
X185476000Y-106546000D02*
X185476000Y-107906000D01*
X188493010Y-103528990D02*
X185476000Y-106546000D01*
M02*
